<svg width="196" height="156" viewBox="0 0 196 156" fill="none" xmlns="http://www.w3.org/2000/svg">
<path d="M56.8326 0H35.3829C35.4544 0.0239143 35.523 0.0559193 35.5873 0.0953971L36.127 0.383973C36.4139 0.518133 36.66 0.726372 36.8403 0.98736C36.914 1.10184 37.0281 1.3284 36.952 1.47865C36.8759 1.66945 36.8403 1.96995 36.6501 2.04627C36.4001 2.14855 36.1256 2.17508 35.8608 2.12259C35.7069 2.11569 35.5544 2.09006 35.4066 2.04627C35.9725 2.27284 36.5003 2.53756 36.8759 3.06702C36.914 3.14333 37.0661 3.18149 37.2159 3.18149C37.254 3.18149 37.254 3.25543 37.254 3.29358C37.1779 3.3699 37.1042 3.40806 37.1398 3.52015H37.254C37.4418 3.44384 37.4037 3.06702 37.6676 3.18149C37.76 3.23851 37.8273 3.32876 37.8555 3.43382C37.8838 3.53888 37.871 3.6508 37.8198 3.74672C37.678 3.88423 37.5262 4.01098 37.3657 4.12592C37.3481 4.16782 37.3391 4.21283 37.3391 4.25829C37.3391 4.30375 37.3481 4.34875 37.3657 4.39065C37.4611 4.52606 37.526 4.68068 37.5559 4.84379C37.6676 5.10851 37.7057 5.4114 37.8198 5.67374C37.9978 6.2236 38.0869 6.79848 38.0837 7.37658C38.0837 7.67708 37.9315 7.94181 38.0457 8.24469C38.1452 8.52783 38.2845 8.79525 38.4593 9.03887C38.61 9.23088 38.7482 9.43243 38.873 9.64226C39.0989 10.0215 39.515 10.3983 39.3271 10.8538C39.213 11.1185 38.7993 11.0923 38.5354 11.2306C38.3096 11.419 38.4974 11.7219 38.6091 11.9103C38.7993 12.2514 38.3833 12.4779 38.1194 12.5924C38.1954 12.7045 38.3571 12.6663 38.3833 12.7427C38.4213 12.9311 38.6091 13.0456 38.4974 13.234C38.3452 13.4605 37.8935 13.575 38.1194 13.9137C38.2715 14.1784 38.174 14.4717 38.0837 14.746C38.0265 14.89 37.9343 15.0173 37.8156 15.1164C37.6968 15.2155 37.5552 15.2833 37.4037 15.3136C37.172 15.3809 36.9278 15.3931 36.6905 15.3494C36.6179 15.3068 36.5366 15.2815 36.4527 15.2755C35.8132 15.1991 35.1713 15.0107 34.5317 15.0107C34.3504 15.039 34.1731 15.0895 34.0039 15.161C33.8401 15.2823 33.6873 15.418 33.5475 15.5664L33.4666 15.657L33.4167 15.7167C33.4167 15.7167 33.3953 15.7405 33.3858 15.7548C33.2762 15.8928 33.1769 16.0387 33.0886 16.1913L33.072 16.2199L33.0434 16.2724C32.9238 16.4928 32.8281 16.7254 32.7581 16.9664C32.5014 17.8321 32.6131 18.5738 32.7938 18.7551C32.8437 18.8052 34.0372 19.1748 34.8693 19.5445C35.1767 19.6754 35.4746 19.8276 35.7609 20H56.8231L56.8326 0Z" fill="#E1000F"/>
<path d="M36.6581 7.29547C36.8079 7.33363 37.0338 7.33363 37.0338 7.40995C36.9601 7.71283 36.506 7.78676 36.2801 8.08965H36.1684C36.0543 8.16597 36.0923 8.35438 35.9782 8.35438C35.8645 8.32906 35.7457 8.34249 35.6406 8.39254C35.7078 8.47619 35.7947 8.54178 35.8935 8.58341C35.9923 8.62504 36.0998 8.6414 36.2064 8.63103C36.2379 8.64268 36.2653 8.66336 36.2852 8.6905C36.305 8.71764 36.3165 8.75004 36.3182 8.78366C36.3473 8.78079 36.3744 8.7672 36.3942 8.74551C36.4323 8.74551 36.4703 8.74551 36.4703 8.78366V8.93391C36.3562 9.08417 36.1684 9.01023 36.0162 9.04601C36.3005 9.12242 36.5997 9.12242 36.884 9.04601C37.1217 8.97207 36.884 8.59287 37.0338 8.40446C36.9601 8.40446 37.0338 8.29237 36.9601 8.29237C37.0338 8.21605 37.1099 8.10158 37.1859 8.05388C37.2298 8.05514 37.2734 8.04558 37.3128 8.02604C37.3522 8.0065 37.3862 7.97757 37.4118 7.94178C37.4118 7.86547 37.2596 7.82731 37.2977 7.75337C37.5235 7.60074 37.7114 7.37417 37.6377 7.1476C37.5996 7.03551 37.2977 7.03551 37.1099 6.95919C36.897 6.91566 36.6765 6.92881 36.4703 6.99735C36.2773 7.0292 36.0879 7.07951 35.9045 7.1476C35.6484 7.23575 35.4077 7.36371 35.1912 7.52681C35.4601 7.42504 35.7368 7.34529 36.0186 7.28831C36.2312 7.26347 36.4461 7.26587 36.6581 7.29547Z" fill="#9D9D9C"/>
<path d="M24.667 17.6485C24.8809 17.4338 25.0973 17.2049 25.3137 16.9735C25.7009 16.5147 26.1204 16.0843 26.569 15.6857C26.6991 15.5674 26.8364 15.4575 26.9803 15.3565C27.0159 15.3208 27.0159 15.2445 27.054 15.2063C26.8661 15.2826 26.752 15.4448 26.5642 15.5092C26.5262 15.5092 26.4905 15.471 26.5262 15.4329L26.9303 15.13H26.9042C26.8661 15.13 26.8661 15.0942 26.8661 15.056C26.3764 14.9797 25.9984 15.3208 25.6608 15.6213C25.5847 15.6594 25.5086 15.5855 25.4729 15.5855C24.9071 15.7739 24.4934 16.2652 23.9276 16.4918V16.4083C23.7017 16.4846 23.4806 16.6206 23.25 16.673C22.9356 16.7236 22.6164 16.7364 22.299 16.7112C21.8383 16.7641 21.3811 16.8437 20.9296 16.9497H20.8915C20.6429 17.0142 20.4033 17.1095 20.1783 17.2335L20.1521 17.2478C20.1359 17.2702 20.1184 17.2917 20.0998 17.3122C20.0293 17.4074 19.9413 17.4884 19.8407 17.5507C19.6158 17.6923 19.4063 17.8569 19.2154 18.042C19.1984 18.055 19.1774 18.0618 19.156 18.0611C18.9539 18.2566 18.7542 18.4522 18.5473 18.643C18.5119 18.6603 18.4718 18.6653 18.4332 18.6573C18.4403 18.6448 18.4482 18.6329 18.457 18.6215C18.4879 18.5667 18.5188 18.5142 18.5521 18.4617C18.5854 18.4093 18.6258 18.3449 18.6638 18.2852C18.7019 18.2256 18.7684 18.1302 18.8255 18.0467C18.832 18.0401 18.8357 18.0311 18.8357 18.0217C18.8357 18.0123 18.832 18.0033 18.8255 17.9967C18.8112 17.9837 18.7924 17.9768 18.7732 17.9776C18.9658 17.7957 19.1779 17.6358 19.4056 17.5006C19.3794 17.5006 19.3438 17.5006 19.3628 17.4648C19.3818 17.429 19.4056 17.3957 19.427 17.3599L19.4413 17.3265L19.4127 17.2979C19.3496 17.3337 19.29 17.3752 19.2344 17.4219C19.1441 17.503 19.0727 17.6604 18.9372 17.6604H18.8802C18.8657 17.6589 18.8519 17.654 18.8398 17.6461C18.8452 17.6345 18.8515 17.6233 18.8588 17.6127L18.8754 17.5817L18.8897 17.5555L18.9158 17.5078L18.9372 17.472C18.9515 17.4434 18.9681 17.4171 18.9848 17.3885L19.0086 17.348L19.049 17.2812C19.068 17.2478 19.049 17.2239 19.0204 17.212C19.0897 17.1203 19.1771 17.044 19.2772 16.9878C19.4199 16.9139 19.5649 16.8257 19.7099 16.7493L19.7717 16.6945C19.5599 16.7672 19.3585 16.8674 19.1726 16.9926C19.1498 17.0009 19.1283 17.0121 19.1084 17.026C19.091 17.0299 19.0729 17.0289 19.0561 17.023C19.0393 17.0171 19.0244 17.0065 19.0133 16.9926C19.0105 16.9833 19.0105 16.9733 19.0133 16.964C19.0513 16.8877 19.1631 16.8495 19.2511 16.7756C19.2891 16.7756 19.3248 16.7756 19.3248 16.8137C20.5325 15.8598 22.1777 16.0983 23.5828 15.6046L23.9228 15.3661C24.1106 15.2922 24.2604 15.1037 24.4887 14.9893C24.7922 14.7783 25.0172 14.4721 25.1282 14.1188C25.1237 14.0907 25.1104 14.0648 25.0902 14.0448C24.6145 14.5574 24.0508 14.9799 23.4259 15.2922C22.6342 15.7071 21.7617 15.6308 20.9391 15.7453C20.9771 15.669 21.0508 15.669 21.1269 15.669C21.1269 15.5569 21.203 15.5187 21.2791 15.4424H21.3908C21.4288 15.4424 21.4288 15.3661 21.4669 15.3661C21.5406 15.3661 21.6547 15.3303 21.6167 15.3303C21.5049 15.1777 21.2791 15.4424 21.0889 15.3303C21.1649 15.254 21.1269 15.1395 21.203 15.1037H21.3528C21.3608 15.0459 21.3875 14.9923 21.4288 14.9511C21.9947 14.6101 22.5225 14.3477 23.0479 14.0448C22.9362 14.0448 22.8601 14.1569 22.7483 14.083C22.822 14.083 22.7483 13.9685 22.822 13.9685C23.2381 13.8564 23.5757 13.6275 23.9918 13.4772C23.8396 13.4772 23.7279 13.5917 23.5757 13.4772C23.6518 13.4391 23.6898 13.3651 23.8135 13.3651V13.2507C23.8135 13.2125 23.8515 13.2125 23.8895 13.2125C23.8607 13.2085 23.834 13.1951 23.8135 13.1743C23.8515 13.1004 23.9656 13.1362 24.0512 13.0622C24.0155 13.0622 23.9395 13.0622 23.9395 13.0241C24.0691 12.8904 24.2436 12.8096 24.4292 12.7975C24.3912 12.7212 24.2771 12.7975 24.2771 12.7212C24.2771 12.683 24.3151 12.683 24.3531 12.683H24.2771C24.2034 12.6449 24.2414 12.571 24.2414 12.5328C24.4792 12.2681 24.4792 11.927 24.579 11.6265C24.541 11.6265 24.5053 11.6265 24.5053 11.5884C24.1273 12.0033 23.5258 12.1536 22.9599 12.3038H22.7555C22.6519 12.3436 22.5411 12.3608 22.4304 12.3542C22.3197 12.3476 22.2117 12.3175 22.1136 12.2657C21.977 12.1722 21.8497 12.066 21.7332 11.9485C21.4351 11.7603 21.1159 11.6082 20.7822 11.4953C19.846 11.1885 18.8636 11.048 17.8792 11.0804C18.2953 10.8419 18.7518 10.8419 19.1987 10.7012C19.8383 10.5128 20.4422 10.2862 21.1198 10.3244C20.9953 10.3053 20.8686 10.3053 20.7441 10.3244C20.2163 10.2862 19.6885 10.4364 19.1227 10.5628C18.747 10.6368 18.4094 10.7894 18.0314 10.8657C17.8055 10.9397 17.6914 11.1662 17.4275 11.1305V11.016C17.8055 10.5628 18.2573 10.1097 18.854 10.062C19.534 9.94753 20.1735 10.062 20.8511 10.1359C21.3325 10.1885 21.8093 10.277 22.2776 10.4007C22.4678 10.4007 22.5153 10.7036 22.6556 10.7417C22.8934 10.818 23.1073 10.7417 23.3332 10.892C23.3332 10.818 23.2952 10.7417 23.3332 10.6654C23.4854 10.5151 23.6732 10.7036 23.823 10.6272C24.1249 10.4388 23.5591 10.1002 23.4093 9.83544C23.4133 9.80651 23.4267 9.7797 23.4473 9.75912C23.7469 10.0238 23.9751 10.3267 24.3508 10.5151C24.5386 10.5915 24.9903 10.7036 24.9166 10.477C24.7288 10.062 24.3508 9.72096 24.0488 9.34414V9.19151C23.9751 9.19151 23.9751 9.15335 23.9371 9.11758V8.96494C23.7849 8.88862 23.823 8.73837 23.7469 8.62628C23.6351 8.43549 23.7112 8.17076 23.6351 7.94419C23.5662 7.73528 23.516 7.52057 23.4854 7.30265C23.3974 6.65633 23.2452 6.0911 23.1596 5.48533C23.0836 4.76985 23.5733 4.19986 23.9133 3.55831C24.1586 3.07286 24.5216 2.65706 24.9689 2.34915C25.1169 1.89921 25.3602 1.48672 25.6822 1.14C26.0084 0.803874 26.4057 0.545513 26.8448 0.383973C27.1752 0.237702 27.5133 0.109523 27.8576 0L2 0V20H20.3067C21.0199 19.4825 21.7332 19.2368 22.7412 18.7408C23.2191 18.507 24.3008 18.011 24.667 17.6485ZM18.8802 14.9344C18.8065 14.9344 18.6424 14.9726 18.6923 14.8963C18.7304 14.7078 18.9943 14.7078 19.1441 14.6315C19.2201 14.5934 19.3319 14.5194 19.408 14.5576C19.484 14.6697 19.5958 14.6315 19.6719 14.7078C19.4389 14.9344 19.1369 14.8223 18.8802 14.9344ZM13.11 14.1021C13.0892 14.0826 13.0758 14.0564 13.072 14.0281C13.5346 13.4262 13.9383 12.7809 14.2773 12.1011C14.7554 11.8182 15.1856 11.4608 15.5517 11.0422C16.1455 10.3596 16.8606 9.79348 17.6605 9.37276C17.9814 9.27128 18.3274 9.28392 18.64 9.40854C18.5283 9.56117 18.3381 9.52302 18.1883 9.64703C18.1679 9.64955 18.1471 9.64766 18.1274 9.64149C18.1077 9.63532 18.0896 9.62501 18.0742 9.61126C18.0886 9.5962 18.0995 9.57812 18.1061 9.55832C18.1127 9.53852 18.1148 9.5175 18.1122 9.49678C17.7366 9.91176 17.2088 10.1026 16.9069 10.5938C16.6881 10.9707 16.5383 11.4477 16.0486 11.5717C15.8964 11.6098 16.0866 11.4572 16.0105 11.4953C14.8384 12.2132 14.0134 13.0837 13.11 14.1021ZM16.2364 11.6098C16.1984 11.6838 16.1579 11.6933 16.1223 11.7601C16.0938 11.8279 16.0401 11.8818 15.9725 11.9103C15.9345 11.9103 15.8964 11.9103 15.8964 11.8722C15.9147 11.795 15.9519 11.7236 16.0046 11.6645C16.0573 11.6053 16.1239 11.5603 16.1984 11.5335C16.2364 11.5335 16.2364 11.5717 16.2364 11.6098ZM17.9862 17.2716C17.9637 17.3146 17.932 17.352 17.8935 17.3813C17.9411 17.3813 17.9743 17.4124 17.9434 17.441C17.8631 17.5261 17.7659 17.5935 17.6581 17.6389C17.6384 17.6417 17.6184 17.6417 17.5987 17.6389C17.5535 17.6842 17.506 17.7272 17.4584 17.7701C17.4109 17.813 17.2064 17.7701 17.2706 17.7248C17.3348 17.6795 17.4537 17.5483 17.5488 17.4624C17.6011 17.4124 17.6581 17.367 17.7057 17.3122C17.7289 17.2802 17.756 17.2514 17.7865 17.2263C17.8174 17.2144 18.0171 17.1977 17.9862 17.2716ZM17.311 16.9592C17.1708 17.0594 17.0305 17.1596 16.8807 17.2454C16.7309 17.3313 16.5502 17.4124 16.3838 17.4839C16.3766 17.4741 16.3662 17.4673 16.3544 17.4646C16.3426 17.462 16.3302 17.4638 16.3196 17.4696C16.1809 17.5478 16.0537 17.645 15.9416 17.7582C15.923 17.7744 15.9055 17.792 15.8893 17.8106L15.837 17.8631C15.8108 17.8893 15.7847 17.9156 15.7538 17.9513C15.741 17.9722 15.724 17.99 15.7038 18.0038C15.6801 18.0181 15.6159 18.0181 15.623 17.9752L15.5564 18.0086C15.5359 18.0183 15.516 18.0294 15.497 18.042C15.4885 18.0395 15.4794 18.0395 15.4708 18.042C15.4624 18.0387 15.4531 18.0387 15.4447 18.042C15.3971 18.0777 15.352 18.1159 15.3068 18.1565C15.2278 18.2294 15.1554 18.3092 15.0905 18.3949L15.0786 18.4093V18.4259L15.0524 18.4617C15.0439 18.4702 15.0332 18.476 15.0215 18.4784L15.0072 18.4546C15.0027 18.4486 14.9988 18.4422 14.9954 18.4355C14.9954 18.4164 14.974 18.3973 14.9644 18.3759C14.9636 18.3695 14.9636 18.3631 14.9644 18.3568C15.0049 18.3139 15.0429 18.2685 15.0833 18.2208L15.1214 18.1731L15.1237 18.1254L15.1451 18.0968C15.1879 18.042 15.226 17.9895 15.264 17.937L15.2807 17.9132C15.2997 17.887 15.3163 17.8583 15.333 17.8321C15.3478 17.8074 15.3613 17.782 15.3734 17.7558V17.7415L15.409 17.6532C15.4081 17.6445 15.4081 17.6357 15.409 17.627C15.4083 17.6135 15.4083 17.6 15.409 17.5865L15.4233 17.5316C15.4252 17.5275 15.4262 17.523 15.4262 17.5185C15.4262 17.514 15.4252 17.5095 15.4233 17.5054C15.4666 17.4323 15.5167 17.3637 15.5731 17.3003L15.5564 17.3122C15.5018 17.3456 15.4661 17.3957 15.4162 17.4314C15.3662 17.4672 15.2997 17.4124 15.3472 17.3766C15.3774 17.3522 15.4059 17.3259 15.4328 17.2979C15.4928 17.2302 15.5571 17.1664 15.6254 17.1071C15.6682 17.0761 15.7062 17.0475 15.7395 17.0188C15.7462 17.0146 15.7519 17.0089 15.7561 17.0021C15.7827 16.9687 15.8113 16.9368 15.8417 16.9067C16.2007 16.5562 16.8094 16.5729 17.2849 16.3511C17.4727 16.2747 17.6986 16.3868 17.8864 16.3511C18.0046 16.3398 18.1234 16.3656 18.2264 16.425C17.9292 16.5562 17.6201 16.766 17.311 16.9592ZM18.0813 14.3358C18.0457 14.2976 18.1954 14.3358 18.2335 14.2595H17.9292C17.8911 14.2595 17.8911 14.2213 17.8911 14.1832C17.7033 14.2213 17.4774 14.2976 17.2896 14.3358C17.0257 14.4097 16.7999 14.5981 16.4979 14.6745C16.0842 14.8271 15.7443 15.1658 15.2925 15.3184C15.2545 15.3184 15.2545 15.2802 15.2545 15.2421C15.2925 15.1276 15.4423 15.0918 15.5184 14.9773C15.5184 14.9392 15.5184 14.901 15.4804 14.901C15.7823 14.486 16.1936 14.2595 16.574 13.9184V13.8063C16.6857 13.6537 16.8736 13.5798 16.9496 13.389C17.0268 13.231 17.1625 13.1095 17.3277 13.0503C17.2896 13.0122 17.2135 13.0122 17.2135 12.9358C17.0638 12.9358 16.9116 13.0122 16.7618 12.8977C16.8285 12.8337 16.9103 12.7877 16.9996 12.7641C16.9651 12.7574 16.9345 12.7378 16.914 12.7093C16.8759 12.633 16.9877 12.5495 17.1018 12.5209C17.254 12.4827 17.4418 12.4827 17.5559 12.3682C17.292 12.3325 16.9901 12.4446 16.7262 12.2943C16.8882 11.8086 17.2282 11.4029 17.6772 11.1591C17.7152 11.1591 17.7913 11.1591 17.7913 11.1972C17.7945 11.2862 17.7658 11.3734 17.7104 11.443C17.655 11.5126 17.5766 11.5599 17.4893 11.5764C17.7986 11.6146 18.102 11.6907 18.3928 11.803C18.3547 11.8769 18.281 11.8412 18.243 11.8412C18.4308 11.9533 18.6567 11.8769 18.8445 12.0296C18.7328 12.1417 18.6068 12.0296 18.5069 12.0296C19.6742 12.3682 20.9177 12.633 21.8972 13.389C21.0697 13.7676 20.196 14.0347 19.2986 14.1832C19.1965 14.1895 19.094 14.1766 18.9967 14.145C18.9967 14.1832 18.9967 14.2595 18.9586 14.2595C18.8285 14.2438 18.6968 14.2706 18.583 14.3358C18.5072 14.382 18.4201 14.406 18.3315 14.4052C18.2428 14.4043 18.1562 14.3787 18.0813 14.331V14.3358Z" fill="#000091"/>
<path d="M2.163 44H5.145V33.542L8.421 38.96H10.521L13.797 33.542V44H16.779V29.3H13.02L9.471 35.348L5.922 29.3H2.163V44ZM20.8817 44H23.8637V29.3H20.8817V44ZM27.9725 44H30.9545V33.437L37.5275 44H41.3495V29.3H38.3675V39.821L31.7945 29.3H27.9725V44ZM45.4607 44H48.4427V29.3H45.4607V44ZM51.2285 41.963C52.5305 43.517 54.2105 44.42 56.6885 44.42C59.3765 44.42 61.5185 42.74 61.5605 40.01C61.5605 35.033 54.8405 35.642 54.8405 33.017C54.8405 32.156 55.5125 31.484 56.5415 31.484C57.6545 31.484 58.6205 32.198 59.4815 33.311L61.6655 31.358C60.4265 29.867 58.7255 28.88 56.5205 28.88C53.7275 28.88 51.8165 30.812 51.8165 33.143C51.8165 38.036 58.5365 37.448 58.5365 40.073C58.5365 41.144 57.8225 41.774 56.6465 41.774C55.4495 41.774 54.2735 41.102 53.3915 39.968L51.2285 41.963ZM63.0727 32.009H67.6087V44H70.5907V32.009H75.1267V29.3H63.0727V32.009ZM80.7068 28.04H83.4368L81.0638 25.205H77.9978L80.7068 28.04ZM77.7458 44H86.3138V41.459H80.7278V37.784H85.4738V35.243H80.7278V31.841H86.3138V29.3H77.7458V44ZM89.7789 44H92.7609V38.057H94.2939L98.1999 44H101.77L97.1499 37.49C98.6409 36.776 99.5019 35.453 99.5019 33.689C99.5019 30.959 97.5069 29.3 94.2729 29.3H89.7789V44ZM94.4409 31.841C95.7009 31.841 96.4359 32.534 96.4359 33.647C96.4359 34.844 95.7009 35.516 94.4409 35.516H92.7609V31.841H94.4409ZM103.617 44H112.185V41.459H106.599V37.784H111.345V35.243H106.599V31.841H112.185V29.3H103.617V44ZM2.163 66H7.938C12.6 66 15.75 62.619 15.75 58.65C15.75 54.681 12.6 51.3 7.938 51.3H2.163V66ZM7.98 54.009C10.71 54.009 12.684 56.025 12.684 58.65C12.684 61.254 10.71 63.291 7.98 63.291H5.145V54.009H7.98ZM18.6259 66H27.1939V63.459H21.6079V59.784H26.3539V57.243H21.6079V53.841H27.1939V51.3H18.6259V66ZM36.1092 66H44.6772V63.291H39.0912V51.3H36.1092V66ZM46.518 57.348L48.954 51.3H45.93L44.04 57.348H46.518ZM56.8616 50.04L59.5916 47.205H56.5256L54.1526 50.04H56.8616ZM51.2546 66H59.8226V63.459H54.2366V59.784H58.9826V57.243H54.2366V53.841H59.8226V51.3H51.2546V66ZM69.5116 63.627C66.7396 63.627 64.7656 61.464 64.7656 58.65C64.7656 55.836 66.7396 53.673 69.5116 53.673C71.1916 53.673 72.5146 54.492 73.3546 55.689L75.7066 53.862C74.3626 52.077 72.1786 50.88 69.5116 50.88C64.8706 50.88 61.6996 54.45 61.6996 58.65C61.6996 62.85 64.8706 66.42 69.5116 66.42C72.1786 66.42 74.3626 65.244 75.7066 63.417L73.3546 61.611C72.5146 62.808 71.1916 63.627 69.5116 63.627ZM84.744 50.88C80.103 50.88 76.932 54.45 76.932 58.65C76.932 62.85 80.103 66.42 84.744 66.42C89.364 66.42 92.535 62.85 92.535 58.65C92.535 54.45 89.364 50.88 84.744 50.88ZM84.744 63.627C81.972 63.627 79.998 61.464 79.998 58.65C79.998 55.836 81.972 53.673 84.744 53.673C87.495 53.673 89.469 55.836 89.469 58.65C89.469 61.464 87.495 63.627 84.744 63.627ZM95.3932 66H98.3752V55.437L104.948 66H108.77V51.3H105.788V61.821L99.2152 51.3H95.3932V66ZM119.433 50.88C114.792 50.88 111.621 54.45 111.621 58.65C111.621 62.85 114.792 66.42 119.433 66.42C124.053 66.42 127.224 62.85 127.224 58.65C127.224 54.45 124.053 50.88 119.433 50.88ZM119.433 63.627C116.661 63.627 114.687 61.464 114.687 58.65C114.687 55.836 116.661 53.673 119.433 53.673C122.184 53.673 124.158 55.836 124.158 58.65C124.158 61.464 122.184 63.627 119.433 63.627ZM130.083 66H133.065V55.542L136.341 60.96H138.441L141.717 55.542V66H144.699V51.3H140.94L137.391 57.348L133.842 51.3H130.083V66ZM148.801 66H151.783V51.3H148.801V66ZM155.892 66H164.46V63.459H158.874V59.784H163.62V57.243H158.874V53.841H164.46V51.3H155.892V66ZM2.163 88H7.938C12.6 88 15.75 84.619 15.75 80.65C15.75 76.681 12.6 73.3 7.938 73.3H2.163V88ZM7.98 76.009C10.71 76.009 12.684 78.025 12.684 80.65C12.684 83.254 10.71 85.291 7.98 85.291H5.145V76.009H7.98ZM18.6259 88H27.1939V85.459H21.6079V81.784H26.3539V79.243H21.6079V75.841H27.1939V73.3H18.6259V88ZM29.336 85.963C30.638 87.517 32.318 88.42 34.796 88.42C37.484 88.42 39.626 86.74 39.668 84.01C39.668 79.033 32.948 79.642 32.948 77.017C32.948 76.156 33.62 75.484 34.649 75.484C35.762 75.484 36.728 76.198 37.589 77.311L39.773 75.358C38.534 73.867 36.833 72.88 34.628 72.88C31.835 72.88 29.924 74.812 29.924 77.143C29.924 82.036 36.644 81.448 36.644 84.073C36.644 85.144 35.93 85.774 34.754 85.774C33.557 85.774 32.381 85.102 31.499 83.968L29.336 85.963ZM48.2449 88H51.2269V81.784H55.9729V79.243H51.2269V75.841H56.8129V73.3H48.2449V88ZM59.4372 88H62.4192V73.3H59.4372V88ZM66.528 88H69.51V77.437L76.083 88H79.905V73.3H76.923V83.821L70.35 73.3H66.528V88ZM82.1682 88H85.3392L86.7462 84.178H92.6262L94.0332 88H97.2042L91.6392 73.3H87.7332L82.1682 88ZM87.6702 81.637L89.6862 76.114L91.7022 81.637H87.6702ZM99.4742 88H102.456V77.437L109.029 88H112.851V73.3H109.869V83.821L103.296 73.3H99.4742V88ZM123.514 85.627C120.742 85.627 118.768 83.464 118.768 80.65C118.768 77.836 120.742 75.673 123.514 75.673C125.194 75.673 126.517 76.492 127.357 77.689L129.709 75.862C128.365 74.077 126.181 72.88 123.514 72.88C118.873 72.88 115.702 76.45 115.702 80.65C115.702 84.85 118.873 88.42 123.514 88.42C126.181 88.42 128.365 87.244 129.709 85.417L127.357 83.611C126.517 84.808 125.194 85.627 123.514 85.627ZM132.297 88H140.865V85.459H135.279V81.784H140.025V79.243H135.279V75.841H140.865V73.3H132.297V88ZM143.008 85.963C144.31 87.517 145.99 88.42 148.468 88.42C151.156 88.42 153.298 86.74 153.34 84.01C153.34 79.033 146.62 79.642 146.62 77.017C146.62 76.156 147.292 75.484 148.321 75.484C149.434 75.484 150.4 76.198 151.261 77.311L153.445 75.358C152.206 73.867 150.505 72.88 148.3 72.88C145.507 72.88 143.596 74.812 143.596 77.143C143.596 82.036 150.316 81.448 150.316 84.073C150.316 85.144 149.602 85.774 148.426 85.774C147.229 85.774 146.053 85.102 145.171 83.968L143.008 85.963ZM2.163 110H10.731V107.459H5.145V103.784H9.891V101.243H5.145V97.841H10.731V95.3H2.163V110ZM12.9918 98.009H17.5278V110H20.5098V98.009H25.0458V95.3H12.9918V98.009ZM33.115 110H38.89C43.552 110 46.702 106.619 46.702 102.65C46.702 98.681 43.552 95.3 38.89 95.3H33.115V110ZM38.932 98.009C41.662 98.009 43.636 100.025 43.636 102.65C43.636 105.254 41.662 107.291 38.932 107.291H36.097V98.009H38.932ZM49.5779 110H58.1459V107.459H52.5599V103.784H57.3059V101.243H52.5599V97.841H58.1459V95.3H49.5779V110ZM67.0612 110H75.6292V107.291H70.0432V95.3H67.0612V110ZM77.0413 110H80.2123L81.6193 106.178H87.4993L88.9063 110H92.0773L86.5123 95.3H82.6063L77.0413 110ZM82.5433 103.637L84.5593 98.114L86.5753 103.637H82.5433ZM99.7974 110H102.779V104.057H104.312L108.218 110H111.788L107.168 103.49C108.659 102.776 109.52 101.453 109.52 99.689C109.52 96.959 107.525 95.3 104.291 95.3H99.7974V110ZM104.459 97.841C105.719 97.841 106.454 98.534 106.454 99.647C106.454 100.844 105.719 101.516 104.459 101.516H102.779V97.841H104.459ZM113.635 110H122.203V107.459H116.617V103.784H121.363V101.243H116.617V97.841H122.203V95.3H113.635V110ZM125.668 110H134.236V107.291H128.65V95.3H125.668V110ZM135.649 110H138.82L140.227 106.178H146.107L147.514 110H150.685L145.12 95.3H141.214L135.649 110ZM141.151 103.637L143.167 98.114L145.183 103.637H141.151ZM152.954 110H155.936V99.437L162.509 110H166.331V95.3H163.349V105.821L156.776 95.3H152.954V110ZM176.995 107.627C174.223 107.627 172.249 105.464 172.249 102.65C172.249 99.836 174.223 97.673 176.995 97.673C178.675 97.673 179.998 98.492 180.838 99.689L183.19 97.862C181.846 96.077 179.662 94.88 176.995 94.88C172.354 94.88 169.183 98.45 169.183 102.65C169.183 106.85 172.354 110.42 176.995 110.42C179.662 110.42 181.846 109.244 183.19 107.417L180.838 105.611C179.998 106.808 178.675 107.627 176.995 107.627ZM185.778 110H194.346V107.459H188.76V103.784H193.506V101.243H188.76V97.841H194.346V95.3H185.778V110Z" fill="black"/>
<path d="M49.77 150.865C50.1696 150.865 50.5136 151.168 50.33 151.935L48.471 152.367C48.794 151.504 49.3308 150.865 49.7607 150.865H49.77ZM50.7831 153.856H50.4183C49.9535 154.406 49.4609 154.838 48.9659 154.838C48.471 154.838 48.2014 154.537 48.2014 153.856C48.2025 153.58 48.2313 153.306 48.2874 153.036L51.2688 152.054C51.8497 150.672 51.1503 150.068 50.3393 150.068C48.9287 150.068 47.3184 152.432 47.3184 154.497C47.3184 155.43 47.7599 155.933 48.4477 155.933C49.2564 155.933 50.0953 155.145 50.7715 153.849L50.7831 153.856ZM50.1813 149.511L52.2727 147.546V147.313H51.141L49.8513 149.504L50.1813 149.511ZM43.7467 150.891H44.7366L43.1844 155.199C43.0449 155.565 43.2401 155.933 43.6166 155.933C44.5089 155.933 45.952 155.047 46.4562 153.835H46.1774C45.7777 154.257 45.0155 154.819 44.3579 154.938L45.8009 150.889H47.2765L47.4601 150.273H46.0287L46.5771 148.721H46.0078L44.9853 150.273L43.77 150.446L43.7467 150.891ZM42.4105 150.686C42.4402 150.622 42.4542 150.552 42.4515 150.482C42.4487 150.412 42.4292 150.343 42.3946 150.282C42.3601 150.221 42.3114 150.169 42.2527 150.131C42.194 150.092 42.127 150.068 42.0573 150.061C41.1952 150.061 40.1727 150.837 39.7638 151.926H40.0728C40.3517 151.527 40.8257 151.085 41.2672 151.008L39.6081 155.313C39.5755 155.377 39.5593 155.448 39.5609 155.519C39.5624 155.591 39.5817 155.661 39.617 155.723C39.6522 155.785 39.7024 155.838 39.7629 155.875C39.8234 155.913 39.8924 155.936 39.9636 155.94C40.7816 155.94 41.739 155.152 42.1479 154.075H41.8691C41.5879 154.474 41.1139 154.917 40.6747 154.991L42.4105 150.686ZM42.7126 148.527C42.8059 148.528 42.8983 148.51 42.9846 148.474C43.0708 148.438 43.1492 148.386 43.2153 148.32C43.2814 148.254 43.3338 148.175 43.3695 148.089C43.4053 148.003 43.4237 147.91 43.4237 147.816C43.4237 147.627 43.3488 147.446 43.2154 147.312C43.0821 147.178 42.9012 147.103 42.7126 147.103C42.524 147.103 42.3432 147.178 42.2098 147.312C42.0765 147.446 42.0016 147.627 42.0016 147.816C42 147.91 42.0173 148.004 42.0525 148.091C42.0877 148.178 42.1401 148.257 42.2064 148.323C42.2728 148.39 42.3519 148.442 42.4388 148.477C42.5258 148.512 42.6189 148.529 42.7126 148.527ZM33.2316 155.134C33.0178 155.621 33.2316 155.933 33.7173 155.933C34.0077 155.933 34.1356 155.856 34.2541 155.544L35.395 152.513C35.9225 151.865 37.0101 151.175 37.44 151.175C37.7514 151.175 37.7095 151.434 37.505 151.823L35.7715 155.199C35.7306 155.274 35.7098 155.359 35.7111 155.444C35.7125 155.53 35.7359 155.614 35.7792 155.688C35.8225 155.762 35.8841 155.823 35.9581 155.866C36.0321 155.909 36.1159 155.932 36.2014 155.933C37.0635 155.933 38.086 155.155 38.495 154.068H38.2138C37.9349 154.467 37.4609 154.91 37.0194 154.984L38.5252 151.931C38.7001 151.608 38.8002 151.251 38.818 150.884C38.8296 150.775 38.8172 150.665 38.7815 150.562C38.7459 150.458 38.688 150.364 38.6118 150.286C38.5357 150.207 38.4433 150.147 38.3411 150.108C38.239 150.07 38.1296 150.055 38.0209 150.064C37.2773 150.064 36.5244 150.905 35.6321 151.94V151.143C35.6321 150.569 35.4485 150.064 34.9349 150.064C34.6119 150.064 34.3005 150.343 34.0054 150.742V150.851C34.5631 150.819 34.8118 151.66 34.4144 152.546L33.2316 155.134ZM33.2107 151.378C33.4152 150.679 33.3083 150.061 32.7692 150.061C32.1348 150.061 31.9744 150.546 31.3284 151.938V151.14C31.3284 150.567 31.1449 150.061 30.6313 150.061C30.0294 150.061 29.4694 150.994 29.0604 151.926H29.3393C29.6297 151.504 29.8993 151.257 30.1154 151.257C30.3734 151.257 30.5128 151.656 30.1154 152.541L28.9535 155.131C28.7397 155.618 28.9535 155.931 29.4392 155.931C29.7297 155.931 29.8575 155.854 29.976 155.541L31.117 152.511C31.44 152.113 31.7304 151.765 32.0976 151.378H33.2107ZM26.6042 150.858C27.0016 150.858 27.3478 151.161 27.1642 151.928L25.3052 152.36C25.6282 151.497 26.1673 150.858 26.5972 150.858H26.6042ZM27.6197 153.849H27.292C26.8273 154.399 26.3346 154.831 25.8397 154.831C25.3447 154.831 25.0775 154.53 25.0775 153.849C25.0774 153.573 25.1062 153.298 25.1634 153.029L28.1425 152.047C28.7235 150.665 28.024 150.061 27.213 150.061C25.8048 150.061 24.1921 152.425 24.1921 154.49C24.1921 155.423 24.6336 155.926 25.3215 155.926C26.1278 155.926 26.969 155.138 27.6452 153.842L27.6197 153.849ZM20.6205 150.898H21.6104L20.0395 155.199C19.9001 155.565 20.093 155.933 20.4694 155.933C21.3641 155.933 22.7932 155.047 23.3114 153.835H23.0302C22.6328 154.257 21.8683 154.819 21.213 154.938L22.6445 150.898H24.1201L24.3013 150.283H22.8768L23.4253 148.73H22.8583L21.8358 150.283L20.6205 150.455V150.898ZM15.1875 154.266C15.1875 152.94 16.6607 151.138 17.4903 151.138C17.6605 151.136 17.83 151.158 17.9946 151.201L17.1348 153.502C16.6398 154.106 15.8753 154.84 15.5081 154.84C15.3036 154.84 15.1758 154.667 15.1758 154.266H15.1875ZM19.7049 149.837L19.2541 149.805L18.7475 150.301H18.6406C16.1867 150.301 14.0674 153.066 14.0674 155.073C14.0568 155.192 14.0722 155.311 14.1127 155.424C14.1531 155.536 14.2176 155.638 14.3016 155.722C14.3856 155.807 14.487 155.872 14.5987 155.912C14.7104 155.953 14.8296 155.969 14.9481 155.959C15.5848 155.959 16.2076 155.052 16.907 154.08L16.8745 154.425C16.7885 155.418 17.0906 155.959 17.6065 155.959C18.2084 155.959 18.7684 155.026 19.1774 154.094H18.8985C18.6197 154.5 18.3501 154.733 18.134 154.733C17.9179 154.733 17.7483 154.322 18.134 153.448L19.7049 149.837ZM14.4764 151.404C14.6809 150.705 14.5717 150.087 14.0349 150.087C13.4005 150.087 13.2378 150.572 12.5918 151.963V151.166C12.5918 150.593 12.4105 150.087 11.8947 150.087C11.2928 150.087 10.7328 151.019 10.3238 151.952H10.605C10.8954 151.53 11.1627 151.283 11.3788 151.283C11.6367 151.283 11.7761 151.681 11.3788 152.567L10.2169 155.157C10.0008 155.644 10.2169 155.956 10.7002 155.956C10.7635 155.967 10.8283 155.966 10.8908 155.951C10.9534 155.936 11.0124 155.909 11.0643 155.872C11.1163 155.834 11.1602 155.786 11.1935 155.731C11.2267 155.676 11.2486 155.615 11.2579 155.551L12.3989 152.52C12.7219 152.122 13.0124 151.775 13.3772 151.388L14.4764 151.404ZM6.24555 155.723L6.35244 155.39C4.92099 155.12 4.72579 155.12 5.30906 153.553L5.89001 151.945H7.4725C8.18126 151.945 8.19287 152.236 8.08366 153.015H8.49264L9.44074 150.413H9.03176C8.67622 151.029 8.39737 151.481 7.62122 151.481H6.06197L6.88923 149.203C7.1495 148.481 7.29822 148.329 8.26724 148.329H8.96437C9.9636 148.329 10.0821 148.6 10.0821 149.614H10.4795L10.8141 147.844H4.86754L4.75136 148.178C5.90163 148.411 6.00852 148.525 5.47173 150.015L4.189 153.553C3.65221 155.033 3.42448 155.152 2.0976 155.39L2 155.723H6.24555Z" fill="black"/>
<path d="M35.3625 137.373C35.7599 137.373 36.1061 137.676 35.9226 138.441L34.0635 138.874C34.3865 138.01 34.9256 137.373 35.3555 137.373H35.3625ZM36.378 140.364H36.0132C35.5484 140.914 35.0535 141.345 34.5585 141.345C34.0635 141.345 33.7963 141.042 33.7963 140.364C33.7972 140.088 33.826 139.813 33.8823 139.543L36.8614 138.56C37.4423 137.18 36.7428 136.574 35.9318 136.574C34.5236 136.574 32.9109 138.937 32.9109 141.003C32.9109 141.935 33.3524 142.436 34.0403 142.436C34.8466 142.436 35.6878 141.648 36.3641 140.355L36.378 140.364ZM35.7715 136.014L37.8629 134.049V133.816H36.7336L35.4415 136.007L35.7715 136.014ZM29.337 137.397H30.3269L28.756 141.704C28.6166 142.07 28.8095 142.436 29.1859 142.436C30.0806 142.436 31.5213 141.553 32.0279 140.338H31.7467C31.3493 140.76 30.5848 141.32 29.9295 141.439L31.3703 137.392H32.8691L33.0527 136.777H31.6212L32.1696 135.222H31.598L30.5755 136.777L29.3602 136.949L29.337 137.397ZM28.0031 137.191C28.0327 137.127 28.0467 137.057 28.0438 136.987C28.0409 136.916 28.0212 136.847 27.9864 136.786C27.9516 136.725 27.9027 136.673 27.8438 136.634C27.7848 136.595 27.7176 136.572 27.6476 136.564C26.7878 136.564 25.7653 137.343 25.3563 138.429H25.6654C25.9466 138.031 26.4183 137.588 26.8598 137.513L25.2006 141.821C25.168 141.884 25.1517 141.955 25.1532 142.027C25.1547 142.098 25.174 142.168 25.2094 142.23C25.2447 142.292 25.2949 142.344 25.3555 142.382C25.416 142.42 25.485 142.442 25.5562 142.446C26.3741 142.446 27.3315 141.658 27.7405 140.581H27.4593C27.1805 140.982 26.7064 141.425 26.2649 141.499L28.0031 137.191ZM28.3052 135.033C28.4458 135.033 28.5833 134.991 28.7002 134.913C28.8172 134.834 28.9083 134.723 28.9621 134.593C29.016 134.462 29.03 134.319 29.0026 134.18C28.9752 134.042 28.9074 133.915 28.808 133.815C28.7086 133.715 28.5819 133.648 28.4439 133.62C28.306 133.592 28.163 133.607 28.0331 133.661C27.9031 133.715 27.7921 133.806 27.714 133.923C27.6358 134.041 27.5941 134.179 27.5941 134.32C27.5938 134.413 27.612 134.506 27.6476 134.593C27.6832 134.68 27.7356 134.758 27.8017 134.825C27.8678 134.891 27.9463 134.943 28.0327 134.979C28.1191 135.015 28.2117 135.033 28.3052 135.033ZM22.6003 141.497L25.6026 133.606L25.505 133.487L23.6228 133.704V133.937L23.9899 134.217C24.3222 134.476 24.2223 134.725 23.9132 135.525L21.5686 141.714C21.5275 141.789 21.5065 141.873 21.5078 141.959C21.5091 142.045 21.5326 142.129 21.576 142.202C21.6193 142.276 21.6811 142.337 21.7551 142.38C21.8292 142.423 21.9131 142.445 21.9985 142.446C22.8583 142.446 23.7738 141.669 24.1828 140.581H23.9016C23.5839 141.026 23.1252 141.35 22.6003 141.499V141.497ZM16.8978 140.765C16.8978 139.436 18.371 137.634 19.2006 137.634C19.3717 137.632 19.5422 137.654 19.7072 137.7L18.8451 139.998C18.3501 140.604 17.5856 141.336 17.2324 141.336C17.0279 141.336 16.8978 141.164 16.8978 140.765ZM21.4268 136.336L20.976 136.303L20.4694 136.784H20.3625C17.9086 136.784 15.7893 139.553 15.7893 141.562C15.779 141.681 15.7948 141.801 15.8355 141.913C15.8763 142.025 15.941 142.126 16.0252 142.211C16.1094 142.295 16.211 142.36 16.3228 142.4C16.4346 142.441 16.5539 142.456 16.6724 142.446C17.3067 142.446 17.9318 141.539 18.6313 140.569L18.5988 140.914C18.5128 141.907 18.8126 142.446 19.3284 142.446C19.9326 142.446 20.4903 141.513 20.9016 140.581H20.6205C20.33 141.003 20.0604 141.25 19.8466 141.25C19.6328 141.25 19.4586 140.84 19.8466 139.965L21.4268 136.336ZM10.4725 143.495C10.4725 142.921 11.0232 142.562 11.8087 142.252C12.186 142.425 12.5741 142.573 12.9706 142.695C13.7885 142.965 14.0999 143.073 14.0999 143.322C14.0999 143.849 13.2076 144.255 11.9899 144.255C10.9698 144.255 10.4725 144.038 10.4725 143.499V143.495ZM12.701 140.003C12.3455 140.003 12.206 139.7 12.206 139.355C12.206 138.394 12.7219 136.979 13.5306 136.979C13.8838 136.979 14.0256 137.282 14.0256 137.627C14.0256 138.588 13.5074 140.003 12.701 140.003ZM15.0248 142.961C15.0248 142.261 14.4113 142.028 13.4098 141.718C12.55 141.46 12.1619 141.385 12.1619 141.103C12.1619 140.87 12.3455 140.606 12.7103 140.404C13.3261 140.358 13.9035 140.086 14.3321 139.64C14.7608 139.194 15.0107 138.605 15.0341 137.986C15.0362 137.782 14.9959 137.58 14.9156 137.392H16.11L16.2913 136.777H14.4113C14.1819 136.635 13.9182 136.56 13.6491 136.56C13.0121 136.567 12.4019 136.818 11.9435 137.262C11.4851 137.706 11.2132 138.308 11.1836 138.947C11.1691 139.284 11.2766 139.615 11.4863 139.879C11.6959 140.143 11.9937 140.322 12.3246 140.383C11.6274 140.695 11.237 141.061 11.237 141.495C11.233 141.608 11.2575 141.721 11.3082 141.823C11.359 141.925 11.4344 142.012 11.5275 142.077C9.9148 142.544 9.27808 143.091 9.27808 143.858C9.27808 144.625 10.2587 144.942 11.4206 144.942C13.3888 144.942 15.0364 143.872 15.0364 142.977L15.0248 142.961ZM7.51433 138.345C8.22541 138.345 8.2347 138.637 8.12781 139.413H8.5368L9.48257 136.811H9.07591C8.72037 137.427 8.4392 137.881 7.66538 137.881H6.1038L6.88923 135.711C7.1495 134.989 7.29822 134.846 8.26724 134.846H8.96437C9.9636 134.846 10.0821 135.117 10.0821 136.122H10.4795L10.8141 134.35H4.86755L4.75136 134.686C5.90163 134.919 6.00852 135.031 5.47173 136.52L4.189 140.061C3.65221 141.539 3.42448 141.658 2.0976 141.896L2 142.231H8.61116L9.79628 140.352H9.34315C8.59024 141.066 7.64446 141.751 6.32223 141.751C4.56778 141.751 4.73044 141.676 5.31139 140.068L5.93416 138.352L7.51433 138.345ZM8.37645 133.823L10.4679 132.376V132.142H9.20372L8.04183 133.816L8.37645 133.823Z" fill="black"/>
<path d="M34.6631 123.881C35.0604 123.881 35.4067 124.182 35.2231 124.949L33.3641 125.38C33.6871 124.518 34.2262 123.881 34.6561 123.881H34.6631ZM35.6785 126.87H35.3114C34.8466 127.422 34.354 127.853 33.859 127.853C33.3641 127.853 33.0968 127.55 33.0968 126.87C33.0969 126.594 33.1258 126.319 33.1828 126.049L36.1619 125.068C36.7428 123.685 36.0434 123.082 35.2324 123.082C33.8242 123.082 32.2115 125.445 32.2115 127.511C32.2115 128.443 32.653 128.947 33.3408 128.947C34.1472 128.947 34.9884 128.159 35.6762 126.863L35.6785 126.87ZM35.0837 122.525L37.1751 120.559V120.326H36.0457L34.7537 122.518L35.0837 122.525ZM28.9187 123.914H29.7041L28.1332 128.219C27.9938 128.588 28.1867 128.954 28.5631 128.954C29.4555 128.954 30.8869 128.068 31.4051 126.856H31.1239C30.7266 127.275 29.962 127.837 29.3067 127.956L30.7475 123.909H32.2231L32.4043 123.294H30.9729L31.5236 121.739H30.952L29.9295 123.294L28.9187 123.466V123.914ZM28.1448 124.399C28.3493 123.699 28.2401 123.082 27.7033 123.082C27.0666 123.082 26.9063 123.567 26.2603 124.96V124.161C26.2603 123.59 26.0767 123.082 25.5631 123.082C24.9613 123.082 24.4012 124.014 23.9923 124.946H24.2711C24.5616 124.527 24.8288 124.277 25.0449 124.277C25.3029 124.277 25.4423 124.676 25.0449 125.562L23.883 128.152C23.6669 128.639 23.883 128.951 24.3664 128.951C24.4889 128.968 24.6133 128.937 24.7137 128.865C24.8141 128.792 24.8828 128.684 24.9055 128.562L26.0465 125.532C26.3672 125.133 26.66 124.788 27.0248 124.399H28.1448ZM21.536 123.881C21.9357 123.881 22.2796 124.182 22.0961 124.949L20.237 125.38C20.56 124.518 21.0968 123.881 21.5267 123.881H21.536ZM22.5492 126.87H22.2029C21.7382 127.422 21.2455 127.853 20.7506 127.853C20.2556 127.853 19.9861 127.55 19.9861 126.87C19.9872 126.594 20.016 126.319 20.072 126.049L23.0534 125.068C23.6344 123.685 22.9349 123.082 22.1239 123.082C20.7134 123.082 19.103 125.445 19.103 127.511C19.103 128.443 19.5445 128.947 20.2324 128.947C21.0411 128.947 21.8799 128.159 22.5562 126.863L22.5492 126.87ZM15.2502 128.072C14.9597 128.072 14.5391 127.802 14.5391 127.564C14.6161 127.281 14.7132 127.004 14.8296 126.734L15.3153 125.45C15.8311 124.835 16.6166 124.175 17.0581 124.175C17.3277 124.175 17.5229 124.347 17.5229 124.748C17.5229 125.914 16.4237 128.072 15.2409 128.072H15.2502ZM18.6313 124.273C18.6313 123.399 18.3083 123.075 17.7018 123.075C16.9489 123.075 16.2401 123.874 15.529 124.844L17.3253 120.107L17.2533 120L15.3687 120.214V120.448L15.7359 120.73C16.0682 120.988 15.9682 121.259 15.6592 122.035L13.7235 127.044C13.5938 127.34 13.4896 127.647 13.4121 127.961C13.4121 128.48 14.1092 128.965 14.7459 128.965C16.2099 128.965 18.6522 126.322 18.6522 124.291L18.6313 124.273ZM12.7986 123.72C12.8282 123.656 12.8422 123.586 12.8393 123.516C12.8364 123.445 12.8167 123.376 12.7819 123.315C12.7471 123.254 12.6982 123.201 12.6393 123.163C12.5803 123.124 12.5131 123.1 12.4431 123.093C11.5809 123.093 10.5585 123.87 10.1518 124.958H10.4307C10.7095 124.56 11.1836 124.117 11.6251 124.04L9.97754 128.338C9.94761 128.401 9.93333 128.47 9.9359 128.54C9.93848 128.61 9.95785 128.678 9.99234 128.738C10.0268 128.799 10.0754 128.85 10.134 128.887C10.1925 128.925 10.2592 128.948 10.3284 128.954C11.1464 128.954 12.1038 128.166 12.5128 127.089H12.2339C11.9551 127.485 11.4903 127.926 11.0442 128.005L12.7986 123.72ZM13.0984 121.559C13.193 121.56 13.2869 121.542 13.3745 121.506C13.462 121.47 13.5415 121.417 13.6082 121.35C13.6749 121.282 13.7275 121.202 13.7629 121.114C13.7982 121.026 13.8157 120.932 13.8141 120.837C13.8123 120.648 13.7368 120.468 13.6038 120.334C13.4709 120.201 13.291 120.125 13.103 120.124C13.0098 120.124 12.9174 120.142 12.8313 120.178C12.7451 120.214 12.6669 120.266 12.601 120.333C12.5352 120.399 12.483 120.478 12.4476 120.564C12.4121 120.651 12.394 120.743 12.3943 120.837C12.3927 120.931 12.41 121.024 12.445 121.111C12.4801 121.198 12.5322 121.277 12.5984 121.343C12.6645 121.409 12.7432 121.462 12.8299 121.497C12.9166 121.532 13.0095 121.549 13.103 121.548L13.0984 121.559ZM8.76685 120.849H4.84663L4.73741 121.184C5.8993 121.417 5.9969 121.529 5.46011 123.019L4.189 126.569C3.65221 128.047 3.42448 128.166 2.0976 128.403L2 128.737H7.96747L9.25717 126.429H8.80635C8.07436 127.238 7.21224 128.252 5.89001 128.252C4.88846 128.252 4.76995 128.079 5.30906 126.569L6.57785 123.03C7.10535 121.55 7.34237 121.431 8.66925 121.196L8.76685 120.849Z" fill="black"/>
</svg>
