<svg width="190" height="134" viewBox="0 0 190 134" fill="none" xmlns="http://www.w3.org/2000/svg">
<path d="M56.8326 0H35.3829C35.4544 0.0239143 35.523 0.0559193 35.5873 0.0953971L36.127 0.383973C36.4139 0.518133 36.66 0.726372 36.8403 0.98736C36.914 1.10184 37.0281 1.3284 36.952 1.47865C36.8759 1.66945 36.8403 1.96995 36.6501 2.04627C36.4001 2.14855 36.1256 2.17508 35.8608 2.12259C35.7069 2.11569 35.5544 2.09006 35.4066 2.04627C35.9725 2.27284 36.5003 2.53756 36.8759 3.06702C36.914 3.14333 37.0661 3.18149 37.2159 3.18149C37.254 3.18149 37.254 3.25543 37.254 3.29358C37.1779 3.3699 37.1042 3.40806 37.1398 3.52015H37.254C37.4418 3.44384 37.4037 3.06702 37.6676 3.18149C37.76 3.23851 37.8273 3.32876 37.8555 3.43382C37.8838 3.53888 37.871 3.6508 37.8198 3.74672C37.678 3.88423 37.5262 4.01098 37.3657 4.12592C37.3481 4.16782 37.3391 4.21283 37.3391 4.25829C37.3391 4.30375 37.3481 4.34875 37.3657 4.39065C37.4611 4.52606 37.526 4.68068 37.5559 4.84379C37.6676 5.10851 37.7057 5.4114 37.8198 5.67374C37.9978 6.2236 38.0869 6.79848 38.0837 7.37658C38.0837 7.67708 37.9315 7.94181 38.0457 8.24469C38.1452 8.52783 38.2845 8.79525 38.4593 9.03887C38.61 9.23088 38.7482 9.43243 38.873 9.64226C39.0989 10.0215 39.515 10.3983 39.3271 10.8538C39.213 11.1185 38.7993 11.0923 38.5354 11.2306C38.3096 11.419 38.4974 11.7219 38.6091 11.9103C38.7993 12.2514 38.3833 12.4779 38.1194 12.5924C38.1954 12.7045 38.3571 12.6663 38.3833 12.7427C38.4213 12.9311 38.6091 13.0456 38.4974 13.234C38.3452 13.4605 37.8935 13.575 38.1194 13.9137C38.2715 14.1784 38.174 14.4717 38.0837 14.746C38.0265 14.89 37.9343 15.0173 37.8156 15.1164C37.6968 15.2155 37.5552 15.2833 37.4037 15.3136C37.172 15.3809 36.9278 15.3931 36.6905 15.3494C36.6179 15.3068 36.5366 15.2815 36.4527 15.2755C35.8132 15.1991 35.1713 15.0107 34.5317 15.0107C34.3504 15.039 34.1731 15.0895 34.0039 15.161C33.8401 15.2823 33.6873 15.418 33.5475 15.5664L33.4666 15.657L33.4167 15.7167C33.4167 15.7167 33.3953 15.7405 33.3858 15.7548C33.2762 15.8928 33.1769 16.0387 33.0886 16.1913L33.072 16.2199L33.0434 16.2724C32.9238 16.4928 32.8281 16.7254 32.7581 16.9664C32.5014 17.8321 32.6131 18.5738 32.7938 18.7551C32.8437 18.8052 34.0372 19.1748 34.8693 19.5445C35.1767 19.6754 35.4746 19.8276 35.7609 20H56.8231L56.8326 0Z" fill="#E1000F"/>
<path d="M36.6581 7.29551C36.8079 7.33367 37.0337 7.33367 37.0337 7.40998C36.96 7.71287 36.5059 7.7868 36.2801 8.08969H36.1683C36.0542 8.16601 36.0922 8.35442 35.9781 8.35442C35.8645 8.3291 35.7457 8.34253 35.6405 8.39257C35.7078 8.47623 35.7947 8.54182 35.8934 8.58345C35.9922 8.62508 36.0997 8.64144 36.2063 8.63107C36.2378 8.64272 36.2652 8.6634 36.2851 8.69054C36.305 8.71767 36.3164 8.75007 36.3181 8.7837C36.3473 8.78083 36.3744 8.76724 36.3942 8.74554C36.4322 8.74554 36.4703 8.74554 36.4703 8.7837V8.93395C36.3561 9.0842 36.1683 9.01027 36.0162 9.04605C36.3004 9.12246 36.5997 9.12246 36.8839 9.04605C37.1217 8.97211 36.8839 8.59291 37.0337 8.4045C36.96 8.4045 37.0337 8.29241 36.96 8.29241C37.0337 8.21609 37.1098 8.10161 37.1859 8.05391C37.2298 8.05518 37.2733 8.04562 37.3127 8.02608C37.3521 8.00654 37.3861 7.97761 37.4117 7.94182C37.4117 7.8655 37.2596 7.82735 37.2976 7.75341C37.5235 7.60078 37.7113 7.37421 37.6376 7.14764C37.5996 7.03555 37.2976 7.03555 37.1098 6.95923C36.8969 6.91569 36.6764 6.92885 36.4703 6.99739C36.2773 7.02924 36.0878 7.07955 35.9044 7.14764C35.6483 7.23578 35.4076 7.36375 35.1912 7.52685C35.4601 7.42508 35.7368 7.34532 36.0185 7.28835C36.2311 7.26351 36.4461 7.26591 36.6581 7.29551Z" fill="#9D9D9C"/>
<path d="M24.667 17.6485C24.8809 17.4338 25.0973 17.2049 25.3137 16.9735C25.7009 16.5147 26.1204 16.0843 26.569 15.6857C26.6991 15.5674 26.8364 15.4575 26.9803 15.3565C27.0159 15.3208 27.0159 15.2445 27.054 15.2063C26.8661 15.2826 26.752 15.4448 26.5642 15.5092C26.5262 15.5092 26.4905 15.471 26.5262 15.4329L26.9303 15.13H26.9042C26.8661 15.13 26.8661 15.0942 26.8661 15.056C26.3764 14.9797 25.9984 15.3208 25.6608 15.6213C25.5847 15.6594 25.5086 15.5855 25.4729 15.5855C24.9071 15.7739 24.4934 16.2652 23.9276 16.4918V16.4083C23.7017 16.4846 23.4806 16.6206 23.25 16.673C22.9356 16.7236 22.6164 16.7364 22.299 16.7112C21.8383 16.7641 21.3811 16.8437 20.9296 16.9497H20.8915C20.6429 17.0142 20.4033 17.1095 20.1783 17.2335L20.1521 17.2478C20.1359 17.2702 20.1184 17.2917 20.0998 17.3122C20.0293 17.4074 19.9413 17.4884 19.8407 17.5507C19.6158 17.6923 19.4063 17.8569 19.2154 18.042C19.1984 18.055 19.1774 18.0618 19.156 18.0611C18.9539 18.2566 18.7542 18.4522 18.5473 18.643C18.5119 18.6603 18.4718 18.6653 18.4332 18.6573C18.4403 18.6448 18.4482 18.6329 18.457 18.6215C18.4879 18.5667 18.5188 18.5142 18.5521 18.4617C18.5854 18.4093 18.6258 18.3449 18.6638 18.2852C18.7019 18.2256 18.7684 18.1302 18.8255 18.0467C18.832 18.0401 18.8357 18.0311 18.8357 18.0217C18.8357 18.0123 18.832 18.0033 18.8255 17.9967C18.8112 17.9837 18.7924 17.9768 18.7732 17.9776C18.9658 17.7957 19.1779 17.6358 19.4056 17.5006C19.3794 17.5006 19.3438 17.5006 19.3628 17.4648C19.3818 17.429 19.4056 17.3957 19.427 17.3599L19.4413 17.3265L19.4127 17.2979C19.3496 17.3337 19.29 17.3752 19.2344 17.4219C19.1441 17.503 19.0727 17.6604 18.9372 17.6604H18.8802C18.8657 17.6589 18.8519 17.654 18.8398 17.6461C18.8452 17.6345 18.8515 17.6233 18.8588 17.6127L18.8754 17.5817L18.8897 17.5555L18.9158 17.5078L18.9372 17.472C18.9515 17.4434 18.9681 17.4171 18.9848 17.3885L19.0086 17.348L19.049 17.2812C19.068 17.2478 19.049 17.2239 19.0204 17.212C19.0897 17.1203 19.1771 17.044 19.2772 16.9878C19.4199 16.9139 19.5649 16.8257 19.7099 16.7493L19.7717 16.6945C19.5599 16.7672 19.3585 16.8674 19.1726 16.9926C19.1498 17.0009 19.1283 17.0121 19.1084 17.026C19.091 17.0299 19.0729 17.0289 19.0561 17.023C19.0393 17.0171 19.0244 17.0065 19.0133 16.9926C19.0105 16.9833 19.0105 16.9733 19.0133 16.964C19.0513 16.8877 19.1631 16.8495 19.2511 16.7756C19.2891 16.7756 19.3248 16.7756 19.3248 16.8137C20.5325 15.8598 22.1777 16.0983 23.5828 15.6046L23.9228 15.3661C24.1106 15.2922 24.2604 15.1037 24.4887 14.9893C24.7922 14.7783 25.0172 14.4721 25.1282 14.1188C25.1237 14.0907 25.1104 14.0648 25.0902 14.0448C24.6145 14.5574 24.0508 14.9799 23.4259 15.2922C22.6342 15.7071 21.7617 15.6308 20.9391 15.7453C20.9771 15.669 21.0508 15.669 21.1269 15.669C21.1269 15.5569 21.203 15.5187 21.2791 15.4424H21.3908C21.4288 15.4424 21.4288 15.3661 21.4669 15.3661C21.5406 15.3661 21.6547 15.3303 21.6167 15.3303C21.5049 15.1777 21.2791 15.4424 21.0889 15.3303C21.1649 15.254 21.1269 15.1395 21.203 15.1037H21.3528C21.3608 15.0459 21.3875 14.9923 21.4288 14.9511C21.9947 14.6101 22.5225 14.3477 23.0479 14.0448C22.9362 14.0448 22.8601 14.1569 22.7483 14.083C22.822 14.083 22.7483 13.9685 22.822 13.9685C23.2381 13.8564 23.5757 13.6275 23.9918 13.4772C23.8396 13.4772 23.7279 13.5917 23.5757 13.4772C23.6518 13.4391 23.6898 13.3651 23.8135 13.3651V13.2507C23.8135 13.2125 23.8515 13.2125 23.8895 13.2125C23.8607 13.2085 23.834 13.1951 23.8135 13.1743C23.8515 13.1004 23.9656 13.1362 24.0512 13.0622C24.0155 13.0622 23.9395 13.0622 23.9395 13.0241C24.0691 12.8904 24.2436 12.8096 24.4292 12.7975C24.3912 12.7212 24.2771 12.7975 24.2771 12.7212C24.2771 12.683 24.3151 12.683 24.3531 12.683H24.2771C24.2034 12.6449 24.2414 12.571 24.2414 12.5328C24.4792 12.2681 24.4792 11.927 24.579 11.6265C24.541 11.6265 24.5053 11.6265 24.5053 11.5884C24.1273 12.0033 23.5258 12.1536 22.9599 12.3038H22.7555C22.6519 12.3436 22.5411 12.3608 22.4304 12.3542C22.3197 12.3476 22.2117 12.3175 22.1136 12.2657C21.977 12.1722 21.8497 12.066 21.7332 11.9485C21.4351 11.7603 21.1159 11.6082 20.7822 11.4953C19.846 11.1885 18.8636 11.048 17.8792 11.0804C18.2953 10.8419 18.7518 10.8419 19.1987 10.7012C19.8383 10.5128 20.4422 10.2862 21.1198 10.3244C20.9953 10.3053 20.8686 10.3053 20.7441 10.3244C20.2163 10.2862 19.6885 10.4364 19.1227 10.5628C18.747 10.6368 18.4094 10.7894 18.0314 10.8657C17.8055 10.9397 17.6914 11.1662 17.4275 11.1305V11.016C17.8055 10.5628 18.2573 10.1097 18.854 10.062C19.534 9.94753 20.1735 10.062 20.8511 10.1359C21.3325 10.1885 21.8093 10.277 22.2776 10.4007C22.4678 10.4007 22.5153 10.7036 22.6556 10.7417C22.8934 10.818 23.1073 10.7417 23.3332 10.892C23.3332 10.818 23.2952 10.7417 23.3332 10.6654C23.4854 10.5151 23.6732 10.7036 23.823 10.6272C24.1249 10.4388 23.5591 10.1002 23.4093 9.83544C23.4133 9.80651 23.4267 9.7797 23.4473 9.75912C23.7469 10.0238 23.9751 10.3267 24.3508 10.5151C24.5386 10.5915 24.9903 10.7036 24.9166 10.477C24.7288 10.062 24.3508 9.72096 24.0488 9.34414V9.19151C23.9751 9.19151 23.9751 9.15335 23.9371 9.11758V8.96494C23.7849 8.88862 23.823 8.73837 23.7469 8.62628C23.6351 8.43549 23.7112 8.17076 23.6351 7.94419C23.5662 7.73528 23.516 7.52057 23.4854 7.30265C23.3974 6.65633 23.2452 6.0911 23.1596 5.48533C23.0836 4.76985 23.5733 4.19986 23.9133 3.55831C24.1586 3.07286 24.5216 2.65706 24.9689 2.34915C25.1169 1.89921 25.3602 1.48672 25.6822 1.14C26.0084 0.803874 26.4057 0.545513 26.8448 0.383973C27.1752 0.237702 27.5133 0.109523 27.8576 0L2 0V20H20.3067C21.0199 19.4825 21.7332 19.2368 22.7412 18.7408C23.2191 18.507 24.3008 18.011 24.667 17.6485ZM18.8802 14.9344C18.8065 14.9344 18.6424 14.9726 18.6923 14.8963C18.7304 14.7078 18.9943 14.7078 19.1441 14.6315C19.2201 14.5934 19.3319 14.5194 19.408 14.5576C19.484 14.6697 19.5958 14.6315 19.6719 14.7078C19.4389 14.9344 19.1369 14.8223 18.8802 14.9344ZM13.11 14.1021C13.0892 14.0826 13.0758 14.0564 13.072 14.0281C13.5346 13.4262 13.9383 12.7809 14.2773 12.1011C14.7554 11.8182 15.1856 11.4608 15.5517 11.0422C16.1455 10.3596 16.8606 9.79348 17.6605 9.37276C17.9814 9.27128 18.3274 9.28392 18.64 9.40854C18.5283 9.56117 18.3381 9.52302 18.1883 9.64703C18.1679 9.64955 18.1471 9.64766 18.1274 9.64149C18.1077 9.63532 18.0896 9.62501 18.0742 9.61126C18.0886 9.5962 18.0995 9.57812 18.1061 9.55832C18.1127 9.53852 18.1148 9.5175 18.1122 9.49678C17.7366 9.91176 17.2088 10.1026 16.9069 10.5938C16.6881 10.9707 16.5383 11.4477 16.0486 11.5717C15.8964 11.6098 16.0866 11.4572 16.0105 11.4953C14.8384 12.2132 14.0134 13.0837 13.11 14.1021ZM16.2364 11.6098C16.1984 11.6838 16.1579 11.6933 16.1223 11.7601C16.0938 11.8279 16.0401 11.8818 15.9725 11.9103C15.9345 11.9103 15.8964 11.9103 15.8964 11.8722C15.9147 11.795 15.9519 11.7236 16.0046 11.6645C16.0573 11.6053 16.1239 11.5603 16.1984 11.5335C16.2364 11.5335 16.2364 11.5717 16.2364 11.6098ZM17.9862 17.2716C17.9637 17.3146 17.932 17.352 17.8935 17.3813C17.9411 17.3813 17.9743 17.4124 17.9434 17.441C17.8631 17.5261 17.7659 17.5935 17.6581 17.6389C17.6384 17.6417 17.6184 17.6417 17.5987 17.6389C17.5535 17.6842 17.506 17.7272 17.4584 17.7701C17.4109 17.813 17.2064 17.7701 17.2706 17.7248C17.3348 17.6795 17.4537 17.5483 17.5488 17.4624C17.6011 17.4124 17.6581 17.367 17.7057 17.3122C17.7289 17.2802 17.756 17.2514 17.7865 17.2263C17.8174 17.2144 18.0171 17.1977 17.9862 17.2716ZM17.311 16.9592C17.1708 17.0594 17.0305 17.1596 16.8807 17.2454C16.7309 17.3313 16.5502 17.4124 16.3838 17.4839C16.3766 17.4741 16.3662 17.4673 16.3544 17.4646C16.3426 17.462 16.3302 17.4638 16.3196 17.4696C16.1809 17.5478 16.0537 17.645 15.9416 17.7582C15.923 17.7744 15.9055 17.792 15.8893 17.8106L15.837 17.8631C15.8108 17.8893 15.7847 17.9156 15.7538 17.9513C15.741 17.9722 15.724 17.99 15.7038 18.0038C15.6801 18.0181 15.6159 18.0181 15.623 17.9752L15.5564 18.0086C15.5359 18.0183 15.516 18.0294 15.497 18.042C15.4885 18.0395 15.4794 18.0395 15.4708 18.042C15.4624 18.0387 15.4531 18.0387 15.4447 18.042C15.3971 18.0777 15.352 18.1159 15.3068 18.1565C15.2278 18.2294 15.1554 18.3092 15.0905 18.3949L15.0786 18.4093V18.4259L15.0524 18.4617C15.0439 18.4702 15.0332 18.476 15.0215 18.4784L15.0072 18.4546C15.0027 18.4486 14.9988 18.4422 14.9954 18.4355C14.9954 18.4164 14.974 18.3973 14.9644 18.3759C14.9636 18.3695 14.9636 18.3631 14.9644 18.3568C15.0049 18.3139 15.0429 18.2685 15.0833 18.2208L15.1214 18.1731L15.1237 18.1254L15.1451 18.0968C15.1879 18.042 15.226 17.9895 15.264 17.937L15.2807 17.9132C15.2997 17.887 15.3163 17.8583 15.333 17.8321C15.3478 17.8074 15.3613 17.782 15.3734 17.7558V17.7415L15.409 17.6532C15.4081 17.6445 15.4081 17.6357 15.409 17.627C15.4083 17.6135 15.4083 17.6 15.409 17.5865L15.4233 17.5316C15.4252 17.5275 15.4262 17.523 15.4262 17.5185C15.4262 17.514 15.4252 17.5095 15.4233 17.5054C15.4666 17.4323 15.5167 17.3637 15.5731 17.3003L15.5564 17.3122C15.5018 17.3456 15.4661 17.3957 15.4162 17.4314C15.3662 17.4672 15.2997 17.4124 15.3472 17.3766C15.3774 17.3522 15.4059 17.3259 15.4328 17.2979C15.4928 17.2302 15.5571 17.1664 15.6254 17.1071C15.6682 17.0761 15.7062 17.0475 15.7395 17.0188C15.7462 17.0146 15.7519 17.0089 15.7561 17.0021C15.7827 16.9687 15.8113 16.9368 15.8417 16.9067C16.2007 16.5562 16.8094 16.5729 17.2849 16.3511C17.4727 16.2747 17.6986 16.3868 17.8864 16.3511C18.0046 16.3398 18.1234 16.3656 18.2264 16.425C17.9292 16.5562 17.6201 16.766 17.311 16.9592ZM18.0813 14.3358C18.0457 14.2976 18.1954 14.3358 18.2335 14.2595H17.9292C17.8911 14.2595 17.8911 14.2213 17.8911 14.1832C17.7033 14.2213 17.4774 14.2976 17.2896 14.3358C17.0257 14.4097 16.7999 14.5981 16.4979 14.6745C16.0842 14.8271 15.7443 15.1658 15.2925 15.3184C15.2545 15.3184 15.2545 15.2802 15.2545 15.2421C15.2925 15.1276 15.4423 15.0918 15.5184 14.9773C15.5184 14.9392 15.5184 14.901 15.4804 14.901C15.7823 14.486 16.1936 14.2595 16.574 13.9184V13.8063C16.6857 13.6537 16.8736 13.5798 16.9496 13.389C17.0268 13.231 17.1625 13.1095 17.3277 13.0503C17.2896 13.0122 17.2135 13.0122 17.2135 12.9358C17.0638 12.9358 16.9116 13.0122 16.7618 12.8977C16.8285 12.8337 16.9103 12.7877 16.9996 12.7641C16.9651 12.7574 16.9345 12.7378 16.914 12.7093C16.8759 12.633 16.9877 12.5495 17.1018 12.5209C17.254 12.4827 17.4418 12.4827 17.5559 12.3682C17.292 12.3325 16.9901 12.4446 16.7262 12.2943C16.8882 11.8086 17.2282 11.4029 17.6772 11.1591C17.7152 11.1591 17.7913 11.1591 17.7913 11.1972C17.7945 11.2862 17.7658 11.3734 17.7104 11.443C17.655 11.5126 17.5766 11.5599 17.4893 11.5764C17.7986 11.6146 18.102 11.6907 18.3928 11.803C18.3547 11.8769 18.281 11.8412 18.243 11.8412C18.4308 11.9533 18.6567 11.8769 18.8445 12.0296C18.7328 12.1417 18.6068 12.0296 18.5069 12.0296C19.6742 12.3682 20.9177 12.633 21.8972 13.389C21.0697 13.7676 20.196 14.0347 19.2986 14.1832C19.1965 14.1895 19.094 14.1766 18.9967 14.145C18.9967 14.1832 18.9967 14.2595 18.9586 14.2595C18.8285 14.2438 18.6968 14.2706 18.583 14.3358C18.5072 14.382 18.4201 14.406 18.3315 14.4052C18.2428 14.4043 18.1562 14.3787 18.0813 14.331V14.3358Z" fill="#000091"/>
<path d="M2.163 44H5.145V33.542L8.421 38.96H10.521L13.797 33.542V44H16.779V29.3H13.02L9.471 35.348L5.922 29.3H2.163V44ZM20.8817 44H23.8637V29.3H20.8817V44ZM27.9725 44H30.9545V33.437L37.5275 44H41.3495V29.3H38.3675V39.821L31.7945 29.3H27.9725V44ZM45.4607 44H48.4427V29.3H45.4607V44ZM51.2285 41.963C52.5305 43.517 54.2105 44.42 56.6885 44.42C59.3765 44.42 61.5185 42.74 61.5605 40.01C61.5605 35.033 54.8405 35.642 54.8405 33.017C54.8405 32.156 55.5125 31.484 56.5415 31.484C57.6545 31.484 58.6205 32.198 59.4815 33.311L61.6655 31.358C60.4265 29.867 58.7255 28.88 56.5205 28.88C53.7275 28.88 51.8165 30.812 51.8165 33.143C51.8165 38.036 58.5365 37.448 58.5365 40.073C58.5365 41.144 57.8225 41.774 56.6465 41.774C55.4495 41.774 54.2735 41.102 53.3915 39.968L51.2285 41.963ZM63.0727 32.009H67.6087V44H70.5907V32.009H75.1267V29.3H63.0727V32.009ZM80.7068 28.04H83.4368L81.0638 25.205H77.9978L80.7068 28.04ZM77.7458 44H86.3138V41.459H80.7278V37.784H85.4738V35.243H80.7278V31.841H86.3138V29.3H77.7458V44ZM89.7789 44H92.7609V38.057H94.2939L98.1999 44H101.77L97.1499 37.49C98.6409 36.776 99.5019 35.453 99.5019 33.689C99.5019 30.959 97.5069 29.3 94.2729 29.3H89.7789V44ZM94.4409 31.841C95.7009 31.841 96.4359 32.534 96.4359 33.647C96.4359 34.844 95.7009 35.516 94.4409 35.516H92.7609V31.841H94.4409ZM103.617 44H112.185V41.459H106.599V37.784H111.345V35.243H106.599V31.841H112.185V29.3H103.617V44ZM2.163 66H7.938C12.6 66 15.75 62.619 15.75 58.65C15.75 54.681 12.6 51.3 7.938 51.3H2.163V66ZM7.98 54.009C10.71 54.009 12.684 56.025 12.684 58.65C12.684 61.254 10.71 63.291 7.98 63.291H5.145V54.009H7.98ZM18.6259 66H27.1939V63.459H21.6079V59.784H26.3539V57.243H21.6079V53.841H27.1939V51.3H18.6259V66ZM36.1092 66H44.6772V63.291H39.0912V51.3H36.1092V66ZM46.518 57.348L48.954 51.3H45.93L44.04 57.348H46.518ZM56.8616 50.04L59.5916 47.205H56.5256L54.1526 50.04H56.8616ZM51.2546 66H59.8226V63.459H54.2366V59.784H58.9826V57.243H54.2366V53.841H59.8226V51.3H51.2546V66ZM69.5116 63.627C66.7396 63.627 64.7656 61.464 64.7656 58.65C64.7656 55.836 66.7396 53.673 69.5116 53.673C71.1916 53.673 72.5146 54.492 73.3546 55.689L75.7066 53.862C74.3626 52.077 72.1786 50.88 69.5116 50.88C64.8706 50.88 61.6996 54.45 61.6996 58.65C61.6996 62.85 64.8706 66.42 69.5116 66.42C72.1786 66.42 74.3626 65.244 75.7066 63.417L73.3546 61.611C72.5146 62.808 71.1916 63.627 69.5116 63.627ZM84.744 50.88C80.103 50.88 76.932 54.45 76.932 58.65C76.932 62.85 80.103 66.42 84.744 66.42C89.364 66.42 92.535 62.85 92.535 58.65C92.535 54.45 89.364 50.88 84.744 50.88ZM84.744 63.627C81.972 63.627 79.998 61.464 79.998 58.65C79.998 55.836 81.972 53.673 84.744 53.673C87.495 53.673 89.469 55.836 89.469 58.65C89.469 61.464 87.495 63.627 84.744 63.627ZM95.3932 66H98.3752V55.437L104.948 66H108.77V51.3H105.788V61.821L99.2152 51.3H95.3932V66ZM119.433 50.88C114.792 50.88 111.621 54.45 111.621 58.65C111.621 62.85 114.792 66.42 119.433 66.42C124.053 66.42 127.224 62.85 127.224 58.65C127.224 54.45 124.053 50.88 119.433 50.88ZM119.433 63.627C116.661 63.627 114.687 61.464 114.687 58.65C114.687 55.836 116.661 53.673 119.433 53.673C122.184 53.673 124.158 55.836 124.158 58.65C124.158 61.464 122.184 63.627 119.433 63.627ZM130.083 66H133.065V55.542L136.341 60.96H138.441L141.717 55.542V66H144.699V51.3H140.94L137.391 57.348L133.842 51.3H130.083V66ZM148.801 66H151.783V51.3H148.801V66ZM155.892 66H164.46V63.459H158.874V59.784H163.62V57.243H158.874V53.841H164.46V51.3H155.892V66ZM2.163 88H10.731V85.459H5.145V81.784H9.891V79.243H5.145V75.841H10.731V73.3H2.163V88ZM12.9918 76.009H17.5278V88H20.5098V76.009H25.0458V73.3H12.9918V76.009ZM33.115 88H38.89C43.552 88 46.702 84.619 46.702 80.65C46.702 76.681 43.552 73.3 38.89 73.3H33.115V88ZM38.932 76.009C41.662 76.009 43.636 78.025 43.636 80.65C43.636 83.254 41.662 85.291 38.932 85.291H36.097V76.009H38.932ZM49.5779 88H58.1459V85.459H52.5599V81.784H57.3059V79.243H52.5599V75.841H58.1459V73.3H49.5779V88ZM60.288 85.963C61.59 87.517 63.27 88.42 65.748 88.42C68.436 88.42 70.578 86.74 70.62 84.01C70.62 79.033 63.9 79.642 63.9 77.017C63.9 76.156 64.572 75.484 65.601 75.484C66.714 75.484 67.68 76.198 68.541 77.311L70.725 75.358C69.486 73.867 67.785 72.88 65.58 72.88C62.787 72.88 60.876 74.812 60.876 77.143C60.876 82.036 67.596 81.448 67.596 84.073C67.596 85.144 66.882 85.774 65.706 85.774C64.509 85.774 63.333 85.102 62.451 83.968L60.288 85.963ZM79.1969 88H82.1789V81.784H86.9249V79.243H82.1789V75.841H87.7649V73.3H79.1969V88ZM90.3892 88H93.3712V73.3H90.3892V88ZM97.48 88H100.462V77.437L107.035 88H110.857V73.3H107.875V83.821L101.302 73.3H97.48V88ZM113.12 88H116.291L117.698 84.178H123.578L124.985 88H128.156L122.591 73.3H118.685L113.12 88ZM118.622 81.637L120.638 76.114L122.654 81.637H118.622ZM130.426 88H133.408V77.437L139.981 88H143.803V73.3H140.821V83.821L134.248 73.3H130.426V88ZM154.466 85.627C151.694 85.627 149.72 83.464 149.72 80.65C149.72 77.836 151.694 75.673 154.466 75.673C156.146 75.673 157.469 76.492 158.309 77.689L160.661 75.862C159.317 74.077 157.133 72.88 154.466 72.88C149.825 72.88 146.654 76.45 146.654 80.65C146.654 84.85 149.825 88.42 154.466 88.42C157.133 88.42 159.317 87.244 160.661 85.417L158.309 83.611C157.469 84.808 156.146 85.627 154.466 85.627ZM163.249 88H171.817V85.459H166.231V81.784H170.977V79.243H166.231V75.841H171.817V73.3H163.249V88ZM173.96 85.963C175.262 87.517 176.942 88.42 179.42 88.42C182.108 88.42 184.25 86.74 184.292 84.01C184.292 79.033 177.572 79.642 177.572 77.017C177.572 76.156 178.244 75.484 179.273 75.484C180.386 75.484 181.352 76.198 182.213 77.311L184.397 75.358C183.158 73.867 181.457 72.88 179.252 72.88C176.459 72.88 174.548 74.812 174.548 77.143C174.548 82.036 181.268 81.448 181.268 84.073C181.268 85.144 180.554 85.774 179.378 85.774C178.181 85.774 177.005 85.102 176.123 83.968L173.96 85.963Z" fill="black"/>
<path d="M49.77 128.865C50.1696 128.865 50.5136 129.168 50.33 129.935L48.471 130.367C48.794 129.504 49.3308 128.865 49.7607 128.865H49.77ZM50.7831 131.856H50.4183C49.9535 132.406 49.4609 132.837 48.9659 132.837C48.471 132.837 48.2014 132.537 48.2014 131.856C48.2025 131.58 48.2313 131.305 48.2874 131.036L51.2688 130.054C51.8497 128.672 51.1503 128.068 50.3393 128.068C48.9287 128.068 47.3184 130.432 47.3184 132.497C47.3184 133.43 47.7599 133.933 48.4477 133.933C49.2564 133.933 50.0953 133.145 50.7715 131.849L50.7831 131.856ZM50.1813 127.511L52.2727 125.546V125.313H51.141L49.8513 127.504L50.1813 127.511ZM43.7467 128.891H44.7366L43.1844 133.199C43.0449 133.565 43.2401 133.933 43.6166 133.933C44.5089 133.933 45.952 133.047 46.4562 131.835H46.1774C45.7777 132.257 45.0155 132.819 44.3579 132.938L45.8009 128.889H47.2765L47.4601 128.273H46.0287L46.5771 126.721H46.0078L44.9853 128.273L43.77 128.446L43.7467 128.891ZM42.4105 128.686C42.4402 128.622 42.4542 128.552 42.4515 128.482C42.4487 128.412 42.4292 128.343 42.3946 128.282C42.3601 128.221 42.3114 128.169 42.2527 128.131C42.194 128.092 42.127 128.068 42.0573 128.061C41.1952 128.061 40.1727 128.837 39.7638 129.926H40.0728C40.3517 129.527 40.8257 129.084 41.2672 129.008L39.6081 133.313C39.5755 133.377 39.5593 133.448 39.5609 133.519C39.5624 133.591 39.5817 133.661 39.617 133.723C39.6522 133.785 39.7024 133.838 39.7629 133.875C39.8234 133.913 39.8924 133.936 39.9636 133.94C40.7816 133.94 41.739 133.152 42.1479 132.075H41.8691C41.5879 132.474 41.1139 132.917 40.6747 132.991L42.4105 128.686ZM42.7126 126.527C42.8059 126.528 42.8983 126.509 42.9846 126.474C43.0708 126.438 43.1492 126.386 43.2153 126.32C43.2814 126.254 43.3338 126.175 43.3695 126.089C43.4053 126.003 43.4237 125.91 43.4237 125.816C43.4237 125.627 43.3488 125.446 43.2154 125.312C43.0821 125.178 42.9012 125.103 42.7126 125.103C42.524 125.103 42.3432 125.178 42.2098 125.312C42.0765 125.446 42.0016 125.627 42.0016 125.816C42 125.91 42.0173 126.004 42.0525 126.091C42.0877 126.178 42.1401 126.257 42.2064 126.323C42.2728 126.39 42.3519 126.442 42.4388 126.477C42.5258 126.512 42.6189 126.529 42.7126 126.527ZM33.2316 133.134C33.0178 133.621 33.2316 133.933 33.7173 133.933C34.0077 133.933 34.1356 133.856 34.2541 133.544L35.395 130.513C35.9225 129.865 37.0101 129.175 37.44 129.175C37.7514 129.175 37.7095 129.434 37.505 129.823L35.7715 133.199C35.7306 133.274 35.7098 133.359 35.7111 133.444C35.7125 133.53 35.7359 133.614 35.7792 133.688C35.8225 133.762 35.8841 133.823 35.9581 133.866C36.0321 133.909 36.1159 133.932 36.2014 133.933C37.0635 133.933 38.086 133.154 38.495 132.068H38.2138C37.9349 132.467 37.4609 132.91 37.0194 132.984L38.5252 129.931C38.7001 129.608 38.8002 129.251 38.818 128.884C38.8296 128.775 38.8172 128.665 38.7815 128.562C38.7459 128.458 38.688 128.364 38.6118 128.286C38.5357 128.207 38.4433 128.147 38.3411 128.108C38.239 128.07 38.1296 128.055 38.0209 128.063C37.2773 128.063 36.5244 128.905 35.6321 129.94V129.143C35.6321 128.569 35.4485 128.063 34.9349 128.063C34.6119 128.063 34.3005 128.343 34.0054 128.742V128.851C34.5631 128.819 34.8118 129.66 34.4144 130.546L33.2316 133.134ZM33.2107 129.378C33.4152 128.679 33.3083 128.061 32.7692 128.061C32.1348 128.061 31.9744 128.546 31.3284 129.938V129.14C31.3284 128.567 31.1449 128.061 30.6313 128.061C30.0294 128.061 29.4694 128.994 29.0604 129.926H29.3393C29.6297 129.504 29.8993 129.257 30.1154 129.257C30.3734 129.257 30.5128 129.656 30.1154 130.541L28.9535 133.131C28.7397 133.618 28.9535 133.931 29.4392 133.931C29.7297 133.931 29.8575 133.854 29.976 133.541L31.117 130.511C31.44 130.112 31.7304 129.765 32.0976 129.378H33.2107ZM26.6042 128.858C27.0016 128.858 27.3478 129.161 27.1642 129.928L25.3052 130.36C25.6282 129.497 26.1673 128.858 26.5972 128.858H26.6042ZM27.6197 131.849H27.292C26.8273 132.399 26.3346 132.83 25.8397 132.83C25.3447 132.83 25.0775 132.53 25.0775 131.849C25.0774 131.573 25.1062 131.298 25.1634 131.029L28.1425 130.047C28.7235 128.665 28.024 128.061 27.213 128.061C25.8048 128.061 24.1921 130.425 24.1921 132.49C24.1921 133.423 24.6336 133.926 25.3215 133.926C26.1278 133.926 26.969 133.138 27.6452 131.842L27.6197 131.849ZM20.6205 128.898H21.6104L20.0395 133.199C19.9001 133.565 20.093 133.933 20.4694 133.933C21.3641 133.933 22.7932 133.047 23.3114 131.835H23.0302C22.6328 132.257 21.8683 132.819 21.213 132.938L22.6445 128.898H24.1201L24.3013 128.283H22.8768L23.4253 126.73H22.8583L21.8358 128.283L20.6205 128.455V128.898ZM15.1875 132.266C15.1875 130.94 16.6607 129.138 17.4903 129.138C17.6605 129.136 17.83 129.158 17.9946 129.201L17.1348 131.502C16.6398 132.106 15.8753 132.84 15.5081 132.84C15.3036 132.84 15.1758 132.667 15.1758 132.266H15.1875ZM19.7049 127.837L19.2541 127.805L18.7475 128.301H18.6406C16.1867 128.301 14.0674 131.066 14.0674 133.073C14.0568 133.192 14.0722 133.311 14.1127 133.424C14.1531 133.536 14.2176 133.638 14.3016 133.722C14.3856 133.807 14.487 133.871 14.5987 133.912C14.7104 133.953 14.8296 133.969 14.9481 133.959C15.5848 133.959 16.2076 133.052 16.907 132.08L16.8745 132.425C16.7885 133.418 17.0906 133.959 17.6065 133.959C18.2084 133.959 18.7684 133.026 19.1774 132.094H18.8985C18.6197 132.499 18.3501 132.733 18.134 132.733C17.9179 132.733 17.7483 132.322 18.134 131.448L19.7049 127.837ZM14.4764 129.404C14.6809 128.705 14.5717 128.087 14.0349 128.087C13.4005 128.087 13.2378 128.572 12.5918 129.963V129.166C12.5918 128.593 12.4105 128.087 11.8947 128.087C11.2928 128.087 10.7328 129.019 10.3238 129.952H10.605C10.8954 129.53 11.1627 129.283 11.3788 129.283C11.6367 129.283 11.7761 129.681 11.3788 130.567L10.2169 133.157C10.0008 133.644 10.2169 133.956 10.7002 133.956C10.7635 133.967 10.8283 133.965 10.8908 133.951C10.9534 133.936 11.0124 133.909 11.0643 133.872C11.1163 133.834 11.1602 133.786 11.1935 133.731C11.2267 133.676 11.2486 133.614 11.2579 133.551L12.3989 130.52C12.7219 130.122 13.0124 129.774 13.3772 129.388L14.4764 129.404ZM6.24555 133.723L6.35244 133.39C4.92099 133.12 4.72579 133.12 5.30906 131.553L5.89001 129.945H7.4725C8.18126 129.945 8.19287 130.236 8.08366 131.015H8.49264L9.44074 128.413H9.03176C8.67622 129.029 8.39737 129.481 7.62122 129.481H6.06197L6.88923 127.203C7.1495 126.481 7.29822 126.329 8.26724 126.329H8.96437C9.9636 126.329 10.0821 126.6 10.0821 127.614H10.4795L10.8141 125.844H4.86754L4.75136 126.178C5.90163 126.411 6.00852 126.525 5.47173 128.015L4.189 131.553C3.65221 133.033 3.42448 133.152 2.0976 133.39L2 133.723H6.24555Z" fill="black"/>
<path d="M35.3625 115.373C35.7599 115.373 36.1061 115.676 35.9226 116.441L34.0635 116.874C34.3865 116.01 34.9256 115.373 35.3555 115.373H35.3625ZM36.378 118.364H36.0132C35.5484 118.914 35.0535 119.345 34.5585 119.345C34.0635 119.345 33.7963 119.042 33.7963 118.364C33.7972 118.088 33.826 117.813 33.8823 117.543L36.8614 116.56C37.4423 115.18 36.7428 114.574 35.9318 114.574C34.5236 114.574 32.9109 116.937 32.9109 119.003C32.9109 119.935 33.3524 120.436 34.0403 120.436C34.8466 120.436 35.6878 119.648 36.3641 118.355L36.378 118.364ZM35.7715 114.014L37.8629 112.049V111.816H36.7336L35.4415 114.007L35.7715 114.014ZM29.337 115.397H30.3269L28.756 119.704C28.6166 120.07 28.8095 120.436 29.1859 120.436C30.0806 120.436 31.5213 119.553 32.0279 118.338H31.7467C31.3493 118.76 30.5848 119.32 29.9295 119.439L31.3703 115.392H32.8691L33.0527 114.776H31.6212L32.1696 113.222H31.598L30.5755 114.776L29.3602 114.949L29.337 115.397ZM28.0031 115.191C28.0327 115.127 28.0467 115.057 28.0438 114.987C28.0409 114.916 28.0212 114.847 27.9864 114.786C27.9516 114.725 27.9027 114.672 27.8438 114.634C27.7848 114.595 27.7176 114.572 27.6476 114.564C26.7878 114.564 25.7653 115.343 25.3563 116.429H25.6654C25.9466 116.031 26.4183 115.588 26.8598 115.513L25.2006 119.821C25.168 119.884 25.1517 119.955 25.1532 120.027C25.1547 120.098 25.174 120.168 25.2094 120.23C25.2447 120.292 25.2949 120.344 25.3555 120.382C25.416 120.42 25.485 120.441 25.5562 120.446C26.3741 120.446 27.3315 119.658 27.7405 118.581H27.4593C27.1805 118.982 26.7064 119.425 26.2649 119.499L28.0031 115.191ZM28.3052 113.033C28.4458 113.033 28.5833 112.991 28.7002 112.913C28.8172 112.834 28.9083 112.723 28.9621 112.593C29.016 112.462 29.03 112.319 29.0026 112.18C28.9752 112.042 28.9074 111.915 28.808 111.815C28.7086 111.715 28.5819 111.647 28.4439 111.62C28.306 111.592 28.163 111.607 28.0331 111.661C27.9031 111.715 27.7921 111.806 27.714 111.923C27.6358 112.041 27.5941 112.178 27.5941 112.32C27.5938 112.413 27.612 112.506 27.6476 112.593C27.6832 112.68 27.7356 112.758 27.8017 112.825C27.8678 112.891 27.9463 112.943 28.0327 112.979C28.1191 113.015 28.2117 113.033 28.3052 113.033ZM22.6003 119.497L25.6026 111.606L25.505 111.487L23.6228 111.704V111.937L23.9899 112.217C24.3222 112.476 24.2223 112.725 23.9132 113.525L21.5686 119.714C21.5275 119.789 21.5065 119.873 21.5078 119.959C21.5091 120.045 21.5326 120.128 21.576 120.202C21.6193 120.276 21.6811 120.337 21.7551 120.38C21.8292 120.423 21.9131 120.445 21.9985 120.446C22.8583 120.446 23.7738 119.669 24.1828 118.581H23.9016C23.5839 119.026 23.1252 119.349 22.6003 119.499V119.497ZM16.8978 118.765C16.8978 117.436 18.371 115.634 19.2006 115.634C19.3717 115.632 19.5422 115.654 19.7072 115.7L18.8451 117.998C18.3501 118.604 17.5856 119.336 17.2324 119.336C17.0279 119.336 16.8978 119.164 16.8978 118.765ZM21.4268 114.336L20.976 114.303L20.4694 114.783H20.3625C17.9086 114.783 15.7893 117.553 15.7893 119.562C15.779 119.681 15.7948 119.801 15.8355 119.913C15.8763 120.025 15.941 120.126 16.0252 120.211C16.1094 120.295 16.211 120.36 16.3228 120.4C16.4346 120.441 16.5539 120.456 16.6724 120.446C17.3067 120.446 17.9318 119.539 18.6313 118.569L18.5988 118.914C18.5128 119.907 18.8126 120.446 19.3284 120.446C19.9326 120.446 20.4903 119.513 20.9016 118.581H20.6205C20.33 119.003 20.0604 119.25 19.8466 119.25C19.6328 119.25 19.4586 118.839 19.8466 117.965L21.4268 114.336ZM10.4725 121.495C10.4725 120.921 11.0232 120.562 11.8087 120.252C12.186 120.425 12.5741 120.573 12.9706 120.695C13.7885 120.965 14.0999 121.073 14.0999 121.322C14.0999 121.849 13.2076 122.254 11.9899 122.254C10.9698 122.254 10.4725 122.038 10.4725 121.499V121.495ZM12.701 118.003C12.3455 118.003 12.206 117.7 12.206 117.355C12.206 116.394 12.7219 114.979 13.5306 114.979C13.8838 114.979 14.0256 115.282 14.0256 115.627C14.0256 116.588 13.5074 118.003 12.701 118.003ZM15.0248 120.961C15.0248 120.261 14.4113 120.028 13.4098 119.718C12.55 119.46 12.1619 119.385 12.1619 119.103C12.1619 118.87 12.3455 118.606 12.7103 118.404C13.3261 118.358 13.9035 118.086 14.3321 117.64C14.7608 117.194 15.0107 116.605 15.0341 115.986C15.0362 115.782 14.9959 115.58 14.9156 115.392H16.11L16.2913 114.776H14.4113C14.1819 114.635 13.9182 114.56 13.6491 114.56C13.0121 114.567 12.4019 114.818 11.9435 115.262C11.4851 115.705 11.2132 116.308 11.1836 116.947C11.1691 117.284 11.2766 117.615 11.4863 117.879C11.6959 118.143 11.9937 118.322 12.3246 118.383C11.6274 118.695 11.237 119.061 11.237 119.495C11.233 119.608 11.2575 119.721 11.3082 119.823C11.359 119.925 11.4344 120.012 11.5275 120.077C9.9148 120.543 9.27808 121.091 9.27808 121.858C9.27808 122.625 10.2587 122.942 11.4206 122.942C13.3888 122.942 15.0364 121.872 15.0364 120.977L15.0248 120.961ZM7.51433 116.345C8.22541 116.345 8.2347 116.637 8.12781 117.413H8.5368L9.48257 114.811H9.07591C8.72037 115.427 8.4392 115.881 7.66538 115.881H6.1038L6.88923 113.711C7.1495 112.989 7.29822 112.846 8.26724 112.846H8.96437C9.9636 112.846 10.0821 113.117 10.0821 114.121H10.4795L10.8141 112.35H4.86755L4.75136 112.686C5.90163 112.919 6.00852 113.031 5.47173 114.52L4.189 118.061C3.65221 119.539 3.42448 119.658 2.0976 119.895L2 120.231H8.61116L9.79628 118.352H9.34315C8.59024 119.066 7.64446 119.751 6.32223 119.751C4.56778 119.751 4.73044 119.676 5.31139 118.068L5.93416 116.352L7.51433 116.345ZM8.37645 111.823L10.4679 110.375V110.142H9.20372L8.04183 111.816L8.37645 111.823Z" fill="black"/>
<path d="M34.6631 101.881C35.0604 101.881 35.4067 102.182 35.2231 102.949L33.3641 103.38C33.6871 102.518 34.2262 101.881 34.6561 101.881H34.6631ZM35.6785 104.87H35.3114C34.8466 105.422 34.354 105.853 33.859 105.853C33.3641 105.853 33.0968 105.55 33.0968 104.87C33.0969 104.594 33.1258 104.319 33.1828 104.049L36.1619 103.068C36.7428 101.685 36.0434 101.082 35.2324 101.082C33.8242 101.082 32.2115 103.445 32.2115 105.511C32.2115 106.443 32.653 106.947 33.3408 106.947C34.1472 106.947 34.9884 106.159 35.6762 104.863L35.6785 104.87ZM35.0837 100.525L37.1751 98.5595V98.3263H36.0457L34.7537 100.518L35.0837 100.525ZM28.9187 101.914H29.7041L28.1332 106.219C27.9938 106.588 28.1867 106.954 28.5631 106.954C29.4555 106.954 30.8869 106.068 31.4051 104.856H31.1239C30.7266 105.275 29.962 105.837 29.3067 105.956L30.7475 101.909H32.2231L32.4043 101.294H30.9729L31.5236 99.739H30.952L29.9295 101.294L28.9187 101.466V101.914ZM28.1448 102.399C28.3493 101.699 28.2401 101.082 27.7033 101.082C27.0666 101.082 26.9063 101.567 26.2603 102.96V102.161C26.2603 101.59 26.0767 101.082 25.5631 101.082C24.9613 101.082 24.4012 102.014 23.9923 102.946H24.2711C24.5616 102.527 24.8288 102.277 25.0449 102.277C25.3029 102.277 25.4423 102.676 25.0449 103.562L23.883 106.152C23.6669 106.639 23.883 106.951 24.3664 106.951C24.4889 106.968 24.6133 106.937 24.7137 106.865C24.8141 106.792 24.8828 106.684 24.9055 106.562L26.0465 103.532C26.3672 103.133 26.66 102.788 27.0248 102.399H28.1448ZM21.536 101.881C21.9357 101.881 22.2796 102.182 22.0961 102.949L20.237 103.38C20.56 102.518 21.0968 101.881 21.5267 101.881H21.536ZM22.5492 104.87H22.2029C21.7382 105.422 21.2455 105.853 20.7506 105.853C20.2556 105.853 19.9861 105.55 19.9861 104.87C19.9872 104.594 20.016 104.319 20.072 104.049L23.0534 103.068C23.6344 101.685 22.9349 101.082 22.1239 101.082C20.7134 101.082 19.103 103.445 19.103 105.511C19.103 106.443 19.5445 106.947 20.2324 106.947C21.0411 106.947 21.8799 106.159 22.5562 104.863L22.5492 104.87ZM15.2502 106.072C14.9597 106.072 14.5391 105.802 14.5391 105.564C14.6161 105.281 14.7132 105.004 14.8296 104.734L15.3153 103.45C15.8311 102.835 16.6166 102.175 17.0581 102.175C17.3277 102.175 17.5229 102.347 17.5229 102.748C17.5229 103.914 16.4237 106.072 15.2409 106.072H15.2502ZM18.6313 102.273C18.6313 101.399 18.3083 101.075 17.7018 101.075C16.9489 101.075 16.2401 101.874 15.529 102.844L17.3253 98.1072L17.2533 98L15.3687 98.2145V98.4476L15.7359 98.7296C16.0682 98.9884 15.9682 99.2588 15.6592 100.035L13.7235 105.044C13.5938 105.34 13.4896 105.647 13.4121 105.961C13.4121 106.48 14.1092 106.965 14.7459 106.965C16.2099 106.965 18.6522 104.322 18.6522 102.291L18.6313 102.273ZM12.7986 101.72C12.8282 101.656 12.8422 101.586 12.8393 101.516C12.8364 101.445 12.8167 101.376 12.7819 101.315C12.7471 101.254 12.6982 101.201 12.6393 101.163C12.5803 101.124 12.5131 101.1 12.4431 101.093C11.5809 101.093 10.5585 101.87 10.1518 102.958H10.4307C10.7095 102.56 11.1836 102.117 11.6251 102.04L9.97754 106.338C9.94761 106.401 9.93333 106.47 9.9359 106.54C9.93848 106.61 9.95785 106.678 9.99234 106.738C10.0268 106.799 10.0754 106.85 10.134 106.887C10.1925 106.925 10.2592 106.948 10.3284 106.954C11.1464 106.954 12.1038 106.166 12.5128 105.089H12.2339C11.9551 105.485 11.4903 105.926 11.0442 106.005L12.7986 101.72ZM13.0984 99.5595C13.193 99.5604 13.2869 99.5423 13.3745 99.5063C13.462 99.4703 13.5415 99.417 13.6082 99.3496C13.6749 99.2823 13.7275 99.2022 13.7629 99.1141C13.7982 99.0261 13.8157 98.9318 13.8141 98.8368C13.8123 98.6482 13.7368 98.4679 13.6038 98.3345C13.4709 98.2011 13.291 98.1254 13.103 98.1235C13.0098 98.1235 12.9174 98.142 12.8313 98.1779C12.7451 98.2138 12.6669 98.2663 12.601 98.3326C12.5352 98.3989 12.483 98.4775 12.4476 98.5641C12.4121 98.6506 12.394 98.7433 12.3943 98.8368C12.3927 98.9306 12.41 99.0238 12.445 99.1108C12.4801 99.1977 12.5322 99.2768 12.5984 99.3431C12.6645 99.4094 12.7432 99.4617 12.8299 99.4969C12.9166 99.5321 13.0095 99.5494 13.103 99.5478L13.0984 99.5595ZM8.76685 98.8485H4.84663L4.73741 99.1842C5.8993 99.4173 5.9969 99.5292 5.46011 101.019L4.189 104.569C3.65221 106.047 3.42448 106.166 2.0976 106.403L2 106.737H7.96747L9.25717 104.429H8.80635C8.07436 105.238 7.21224 106.252 5.89001 106.252C4.88846 106.252 4.76995 106.079 5.30906 104.569L6.57785 101.03C7.10535 99.5501 7.34237 99.4313 8.66925 99.1958L8.76685 98.8485Z" fill="black"/>
</svg>
