<svg width="45" height="45" viewBox="0 0 45 45" fill="none" xmlns="http://www.w3.org/2000/svg">
<path d="M35.5312 27.7216C34.6481 25.8804 31.4887 23.3247 28.4363 20.8553C26.7337 19.479 25.125 18.1778 24.0994 17.1522C23.8425 16.8935 23.4581 16.8109 23.1188 16.9328C22.4869 17.1616 22.0969 17.3378 21.7894 17.4747C21.3207 17.6846 21.1632 17.7559 20.5313 17.8196C20.2519 17.8478 20.0007 17.9978 19.845 18.2303C18.5194 20.2121 17.1469 20.0434 16.23 19.7359C15.9375 19.6385 15.885 19.5128 15.8569 19.3928C15.66 18.5697 16.6482 16.6534 17.9288 15.3728C20.9757 12.324 22.5469 11.5609 25.8656 13.044C29.6306 14.7277 33.4031 16.0459 33.4407 16.059C33.9338 16.2296 34.4644 15.9709 34.635 15.4815C34.8038 14.9921 34.5469 14.4577 34.0575 14.2871C34.0199 14.274 30.3225 12.9821 26.6325 11.3302C22.3331 9.40833 19.9743 10.674 16.6049 14.0453C15.3224 15.3278 13.5805 17.9227 14.0305 19.8259C14.2236 20.6359 14.7937 21.236 15.6411 21.5153C17.7655 22.2165 19.7042 21.5452 21.148 19.629C21.7443 19.5372 22.0687 19.4022 22.5561 19.1828C22.7323 19.1041 22.9386 19.0122 23.2124 18.9016C24.2849 19.9085 25.7324 21.0803 27.2568 22.3122C30.013 24.5415 33.1387 27.0691 33.8418 28.5316C34.1887 29.2534 33.8155 29.7241 33.5624 29.9397C33.1911 30.2585 32.683 30.3597 32.4074 30.1665C32.1037 29.9584 31.7081 29.9453 31.3949 30.1328C31.0799 30.3202 30.9037 30.6746 30.9431 31.0384C31.0068 31.6346 30.4612 31.9759 30.2249 32.094C29.6249 32.3978 28.9987 32.3453 28.7643 32.1278C28.5017 31.8841 28.1249 31.8128 27.7911 31.9365C27.4574 32.0621 27.2249 32.3697 27.1911 32.7259C27.1349 33.3409 26.6792 33.9315 26.0848 34.1621C25.798 34.2708 25.3817 34.3365 25.0086 33.9952C24.7761 33.7852 24.4536 33.7046 24.1518 33.7777C23.8462 33.8527 23.6005 34.074 23.4936 34.3683C23.458 34.4621 23.3774 34.6871 22.4999 34.6871C21.8755 34.6871 20.7523 34.2652 20.203 33.9014C19.5449 33.4683 15.418 30.3896 11.8537 27.4046C11.353 26.9827 10.4868 26.0789 9.72179 25.2802C9.04301 24.5714 8.42241 23.9283 8.10364 23.6583C7.70426 23.3208 7.11364 23.3714 6.78176 23.769C6.44804 24.1646 6.49673 24.7571 6.89241 25.0908C7.18307 25.3365 7.74557 25.9308 8.36616 26.5777C9.20244 27.4514 10.0668 28.3552 10.6481 28.8427C14.1393 31.7659 18.3356 34.9215 19.1718 35.4708C19.8618 35.9246 21.3487 36.5621 22.4999 36.5621C23.4243 36.5621 24.135 36.3502 24.628 35.9358C25.288 36.1927 26.0381 36.1946 26.7599 35.9133C27.6131 35.5833 28.3143 34.9177 28.7118 34.1115C29.4505 34.269 30.2962 34.1583 31.0649 33.7721C31.8168 33.3934 32.3605 32.814 32.6305 32.1371C33.3768 32.1765 34.1455 31.9121 34.7811 31.3665C35.8575 30.4459 36.1537 29.0135 35.5312 27.7216Z" fill="url(#paint0_linear)"/>
<path d="M18.75 12.1871H10.3125C9.79503 12.1871 9.375 12.6072 9.375 13.1247C9.375 13.6422 9.79503 14.0622 10.3125 14.0622H18.75C19.2675 14.0622 19.6876 13.6422 19.6876 13.1247C19.6876 12.6072 19.2675 12.1871 18.75 12.1871Z" fill="url(#paint1_linear)"/>
<path d="M38.2782 25.7266C37.9875 25.2972 37.4063 25.1791 36.9769 25.4716L34.2357 27.3128C33.8064 27.6016 33.6919 28.1847 33.9807 28.6141C34.1626 28.8822 34.4589 29.0285 34.7608 29.0285C34.9389 29.0285 35.1208 28.9778 35.2821 28.8691L38.0233 27.0279C38.4525 26.7391 38.5669 26.156 38.2782 25.7266Z" fill="url(#paint2_linear)"/>
<path d="M32.458 30.2004C31.7867 29.6717 28.7848 26.5986 26.9286 24.6636C26.5704 24.2885 25.9761 24.2754 25.6029 24.6354C25.2279 24.9936 25.2166 25.5879 25.5748 25.9611C26.0567 26.4636 30.3073 30.8942 31.2954 31.6743C31.466 31.8093 31.6723 31.8749 31.8748 31.8749C32.1504 31.8749 32.4261 31.7512 32.6135 31.5168C32.9342 31.1117 32.8649 30.521 32.458 30.2004Z" fill="url(#paint3_linear)"/>
<path d="M28.7119 32.081C27.5887 31.1829 24.7669 28.1847 24.1294 27.491C23.7768 27.1085 23.1862 27.086 22.8037 27.4348C22.423 27.7854 22.3969 28.3798 22.7475 28.7604C22.7812 28.796 26.1487 32.4317 27.5399 33.5454C27.7125 33.6823 27.9206 33.7498 28.1249 33.7498C28.3987 33.7498 28.6724 33.6279 28.858 33.3992C29.1807 32.9941 29.115 32.4035 28.7119 32.081Z" fill="url(#paint4_linear)"/>
<path d="M24.9808 33.9692C23.6438 32.8423 20.9082 29.9304 20.3739 29.3585C20.0195 28.9798 19.4251 28.9591 19.0482 29.3135C18.6695 29.6679 18.6507 30.2604 19.0032 30.6392C19.772 31.4623 22.3895 34.2373 23.7714 35.4035C23.9476 35.5516 24.1613 35.6248 24.3751 35.6248C24.6413 35.6248 24.9076 35.5104 25.0933 35.291C25.427 34.8935 25.3763 34.3029 24.9808 33.9692Z" fill="url(#paint5_linear)"/>
<path d="M10.9575 10.569C9.3506 9.04652 2.925 8.55336 0.993779 8.43902C0.727559 8.42592 0.481904 8.51399 0.294434 8.69214C0.106875 8.86836 0 9.11587 0 9.37462V26.2496C0 26.7671 0.420029 27.1872 0.937529 27.1872H6.56253C6.96753 27.1872 7.32753 26.9266 7.45313 26.5403C7.58997 26.1202 10.8207 16.2053 11.2462 11.3303C11.2707 11.0452 11.1656 10.764 10.9575 10.569ZM5.87812 25.3122H1.87497V10.3796C4.88813 10.6177 8.13937 11.1352 9.32062 11.709C8.82378 15.8152 6.57562 23.1109 5.87812 25.3122Z" fill="url(#paint6_linear)"/>
<path d="M44.0623 10.3123C36.701 10.3123 32.6173 12.1966 32.4467 12.2754C32.203 12.3897 32.021 12.6016 31.9461 12.8585C31.8711 13.1154 31.9085 13.3911 32.0491 13.6198C33.2079 15.4854 36.836 25.8467 37.5335 28.3741C37.646 28.781 38.0154 29.0622 38.4373 29.0622H44.0623C44.5798 29.0622 44.9998 28.6422 44.9998 28.1247V11.2497C44.9998 10.7304 44.5798 10.3123 44.0623 10.3123ZM43.1249 27.1872H39.1386C38.2498 24.2922 35.6248 16.7435 34.1605 13.6235C35.5911 13.1379 38.6642 12.3035 43.1249 12.1986V27.1872Z" fill="url(#paint7_linear)"/>
<defs>
<linearGradient id="paint0_linear" x1="17.9514" y1="17.5635" x2="49.3159" y2="62.7944" gradientUnits="userSpaceOnUse">
<stop stop-color="#407CA8"/>
<stop offset="0.276042" stop-color="#2A8194"/>
<stop offset="1" stop-color="#5A4B5F"/>
</linearGradient>
<linearGradient id="paint1_linear" x1="13.3852" y1="12.699" x2="14.0511" y2="17.4108" gradientUnits="userSpaceOnUse">
<stop stop-color="#407CA8"/>
<stop offset="0.276042" stop-color="#2A8194"/>
<stop offset="1" stop-color="#5A4B5F"/>
</linearGradient>
<linearGradient id="paint2_linear" x1="35.6164" y1="26.3256" x2="39.9022" y2="33.1718" gradientUnits="userSpaceOnUse">
<stop stop-color="#407CA8"/>
<stop offset="0.276042" stop-color="#2A8194"/>
<stop offset="1" stop-color="#5A4B5F"/>
</linearGradient>
<linearGradient id="paint3_linear" x1="28.2308" y1="26.4216" x2="37.5465" y2="38.4068" gradientUnits="userSpaceOnUse">
<stop stop-color="#407CA8"/>
<stop offset="0.276042" stop-color="#2A8194"/>
<stop offset="1" stop-color="#5A4B5F"/>
</linearGradient>
<linearGradient id="paint4_linear" x1="25.0524" y1="28.9793" x2="33.2014" y2="39.4642" gradientUnits="userSpaceOnUse">
<stop stop-color="#407CA8"/>
<stop offset="0.276042" stop-color="#2A8194"/>
<stop offset="1" stop-color="#5A4B5F"/>
</linearGradient>
<linearGradient id="paint5_linear" x1="21.3031" y1="30.8526" x2="29.4555" y2="41.3391" gradientUnits="userSpaceOnUse">
<stop stop-color="#407CA8"/>
<stop offset="0.276042" stop-color="#2A8194"/>
<stop offset="1" stop-color="#5A4B5F"/>
</linearGradient>
<linearGradient id="paint6_linear" x1="4.37466" y1="13.5565" x2="27.6192" y2="31.4997" gradientUnits="userSpaceOnUse">
<stop stop-color="#407CA8"/>
<stop offset="0.276042" stop-color="#2A8194"/>
<stop offset="1" stop-color="#5A4B5F"/>
</linearGradient>
<linearGradient id="paint7_linear" x1="36.9991" y1="15.4312" x2="60.89" y2="36.8922" gradientUnits="userSpaceOnUse">
<stop stop-color="#407CA8"/>
<stop offset="0.276042" stop-color="#2A8194"/>
<stop offset="1" stop-color="#5A4B5F"/>
</linearGradient>
</defs>
</svg>
