<svg role="img" width="551" height="75" viewBox="0 0 551 75" fill="none" xmlns="http://www.w3.org/2000/svg">
<path d="M229.021 29.7788H229.017C228.263 29.7791 227.653 30.3889 227.654 31.1407C227.654 31.8925 228.265 32.5015 229.018 32.5012H229.021C229.773 32.502 230.383 33.1101 230.384 33.8611C230.385 34.6122 230.995 35.2208 231.748 35.2209H231.749C232.502 35.2202 233.112 34.6102 233.112 33.8584C233.107 31.6055 231.277 29.7813 229.021 29.7788Z" fill="white"/>
<path d="M212.638 35.2237L215.365 35.221C216.118 35.2206 216.728 34.6108 216.728 33.859C216.728 33.1072 216.117 32.4982 215.364 32.4985H215.362L212.635 32.5012C211.882 32.5015 211.271 33.1114 211.272 33.8632C211.272 34.6149 211.883 35.224 212.636 35.2237H212.638Z" fill="white"/>
<path d="M213.174 29.5687L215.737 30.4972C216.196 30.6653 216.709 30.5759 217.083 30.2627C217.458 29.9496 217.636 29.4604 217.55 28.9805C217.464 28.5006 217.128 28.103 216.668 27.9384L214.104 27.0099C213.397 26.7563 212.618 27.1212 212.361 27.8263C212.105 28.5312 212.468 29.3104 213.174 29.5687Z" fill="white"/>
<path d="M217.086 37.4854C216.713 37.1731 216.201 37.0835 215.743 37.2502L213.181 38.1833C212.723 38.35 212.39 38.7478 212.305 39.2267C212.221 39.7057 212.399 40.1932 212.773 40.5055C213.146 40.8179 213.658 40.9075 214.116 40.7408L216.678 39.8077C217.136 39.641 217.47 39.2431 217.554 38.7643C217.638 38.2852 217.46 37.7978 217.086 37.4854Z" fill="white"/>
<path d="M245.364 32.4958H245.362L242.635 32.4985C241.886 32.5041 241.281 33.1123 241.282 33.8603C241.282 34.6082 241.887 35.2158 242.636 35.2208H242.637L245.365 35.2181C246.118 35.2178 246.728 34.6079 246.728 33.8561C246.727 33.1043 246.117 32.4955 245.364 32.4958Z" fill="white"/>
<path d="M241.831 30.5571C241.99 30.5567 242.148 30.5285 242.298 30.4739L244.86 29.5408C245.317 29.3741 245.651 28.9763 245.735 28.4974C245.819 28.0185 245.641 27.5309 245.268 27.2186C244.894 26.9062 244.382 26.8166 243.925 26.9833L241.363 27.9164C240.742 28.143 240.373 28.782 240.488 29.4323C240.603 30.0827 241.169 30.5569 241.831 30.5571Z" fill="white"/>
<path d="M244.868 38.156L242.304 37.2268C241.597 36.9732 240.818 37.3382 240.561 38.0432C240.305 38.7483 240.668 39.5274 241.373 39.7858L243.937 40.715C244.644 40.9675 245.422 40.6023 245.678 39.8981C245.934 39.1935 245.572 38.4149 244.868 38.156Z" fill="white"/>
<path d="M204.455 57.0693H205.818V65.2338C205.818 66.3347 206.483 67.3274 207.502 67.7487C208.521 68.17 209.694 67.9371 210.474 67.1586C210.507 67.1266 210.537 67.0928 210.566 67.0569L218.737 57.0693L253.546 57.0693C256.556 57.0658 258.997 54.6302 259 51.6246V24.4007C258.996 21.3951 256.556 18.9593 253.546 18.9559L204.455 18.9559C201.444 18.9594 199.003 21.3951 199 24.4007V51.6246C199.004 54.6302 201.444 57.066 204.455 57.0693ZM201.727 24.4007C201.729 22.8977 202.949 21.6798 204.455 21.6782L253.546 21.6782C255.051 21.6797 256.271 22.8977 256.273 24.4007V51.6246C256.272 53.1275 255.051 54.3454 253.546 54.347L218.091 54.347C217.9 54.3481 217.712 54.3896 217.538 54.4689C217.498 54.4933 217.459 54.5196 217.421 54.548C217.295 54.6169 217.181 54.7053 217.084 54.8099C217.069 54.8257 217.049 54.831 217.035 54.8476L208.546 65.2228V55.7082C208.546 54.9564 207.935 54.347 207.182 54.347H204.455C202.949 54.3456 201.729 53.1275 201.727 51.6246V24.4007V24.4007Z" fill="white"/>
<path d="M230.148 24.3991C225.914 23.8855 221.853 26.2385 220.2 30.1629C218.547 34.0873 219.704 38.6301 223.033 41.2905C223.355 41.5437 223.544 41.93 223.545 42.3393V43.3881C223.548 44.3556 224.067 45.2482 224.907 45.7311L224.909 47.4731C224.914 48.7842 225.546 50.0139 226.611 50.781C227.305 51.2836 228.14 51.554 228.997 51.5534C229.453 51.5526 229.907 51.4789 230.339 51.3347C232.027 50.7338 233.137 49.1198 233.093 47.3321L233.091 45.7316C233.932 45.249 234.451 44.3561 234.454 43.3881V42.3433C234.463 41.919 234.664 41.5215 235.001 41.2626C237.676 39.1219 238.985 35.7067 238.425 32.3304C237.713 28.1578 234.353 24.9391 230.148 24.3991ZM229.483 48.7504C229.054 48.904 228.578 48.838 228.208 48.5736C227.851 48.3186 227.639 47.9083 227.636 47.4703L227.635 46.1104H230.365L230.365 47.3347C230.394 47.9437 230.042 48.5068 229.483 48.7504ZM233.288 39.1444C232.308 39.9188 231.734 41.0957 231.727 42.3433V43.3835H231.726L226.272 43.3881V42.3393C226.273 41.1023 225.707 39.9329 224.736 39.1643C222.482 37.3581 221.615 34.3291 222.571 31.6064C223.528 28.8836 226.101 27.0591 228.991 27.0538C229.271 27.0538 229.551 27.0701 229.829 27.1029C232.827 27.4866 235.222 29.7796 235.731 32.7531C236.133 35.1675 235.199 37.611 233.288 39.1444Z" fill="white"/>
<path d="M38.5141 7.45832C31.5589 7.79049 26.0907 13.5188 26.0907 20.4726C26.0907 21.5005 26.925 22.3337 27.9543 22.3337C28.9836 22.3337 29.8178 21.5003 29.8178 20.4726C29.8135 17.6682 31.0797 15.0126 33.2621 13.2479C35.4775 11.4653 38.3809 10.7783 41.1617 11.3785C44.7053 12.1465 47.4731 14.9107 48.2423 18.4497C48.8009 20.9786 48.2811 23.6258 46.8074 25.7566C45.3337 27.8875 43.0388 29.3102 40.4729 29.6838C38.6438 29.949 37.2834 31.5096 37.2725 33.3552V35.3618C37.2725 36.3897 38.1068 37.2228 39.1361 37.2228C40.1654 37.2228 40.9996 36.3897 40.9996 35.3618L41.0005 33.3678C47.8922 32.3746 52.7884 26.1514 52.124 19.2292C51.4599 12.3074 45.4693 7.12615 38.5141 7.45832Z" fill="white"/>
<path d="M40.4582 41.4851C40.277 41.3207 40.0692 41.1881 39.8433 41.0935C39.3894 40.9082 38.881 40.9082 38.4271 41.0935C38.1992 41.1836 37.9907 41.3165 37.813 41.4851C37.6484 41.6656 37.5157 41.8731 37.421 42.0983C37.3256 42.3222 37.2754 42.5627 37.2727 42.806C37.2756 42.9307 37.2882 43.0548 37.3101 43.1775C37.3299 43.2941 37.3675 43.4071 37.421 43.5126C37.4618 43.6312 37.5185 43.7441 37.5893 43.8479C37.6637 43.9406 37.7384 44.0332 37.813 44.1267C38.1702 44.4664 38.6426 44.6589 39.1355 44.6663C39.3798 44.6726 39.6221 44.6216 39.8433 44.5174C40.0688 44.4228 40.2768 44.2907 40.4582 44.1267C40.5327 44.0332 40.6073 43.9406 40.6811 43.8479C40.7518 43.7441 40.8084 43.6314 40.8494 43.5126C40.9029 43.4069 40.9407 43.2939 40.9614 43.1775C40.9828 43.0548 40.9952 42.9305 40.9987 42.806C40.9959 42.5627 40.9453 42.3222 40.8496 42.0983C40.7545 41.8733 40.6222 41.666 40.4582 41.4851Z" fill="white"/>
<path d="M82 44.6678V7.44456C81.9952 3.33504 78.6605 0.0047983 74.5453 0H7.45447C3.33947 0.0047983 0.00480468 3.33504 0 7.44456V44.6678C0.00480468 48.7773 3.33947 52.1078 7.45447 52.1124H9.31803V63.2756C9.31672 64.7819 10.2246 66.1402 11.6179 66.7167C13.0113 67.2931 14.6152 66.9736 15.6805 65.9075C15.7253 65.8637 15.7672 65.8174 15.8061 65.7683L26.9741 52.1124H74.5451C78.6605 52.1078 81.9952 48.7773 82 44.6678ZM26.091 48.3902C26.0595 48.3902 26.0335 48.4066 26.0025 48.4081C25.7629 48.4441 25.5271 48.5021 25.2984 48.5817C25.2014 48.6349 25.1095 48.6969 25.0237 48.7667C24.9132 48.8388 24.8107 48.9226 24.7183 49.0166C24.6974 49.0399 24.6681 49.0498 24.6478 49.0744L13.0456 63.2604V50.2513C13.0456 49.2234 12.2113 48.3902 11.182 48.3902H7.45447C5.39675 48.3882 3.72931 46.7228 3.72712 44.6678V7.44456C3.72909 5.38958 5.39675 3.72435 7.45447 3.72217H74.5453C76.603 3.72414 78.2705 5.38958 78.2727 7.44456V44.6678C78.2707 46.7228 76.603 48.388 74.5453 48.3902H26.091V48.3902Z" fill="white"/>
<path d="M544.913 38H517.087C513.73 38 511 40.5256 511 43.6305V61.3261C511 64.4309 513.73 66.9565 517.087 66.9565H535.857L544.297 74.7651C544.464 74.918 544.687 75 544.913 75C545.024 75 545.137 74.9791 545.245 74.9388C545.57 74.8149 545.783 74.5206 545.783 74.1956V66.9002C548.729 66.5077 551 64.1574 551 61.326V43.6305C551 40.5256 548.269 38 544.913 38ZM549.261 61.326C549.261 63.5445 547.309 65.3478 544.913 65.3478C544.433 65.3478 544.043 65.7081 544.043 66.1521V72.2539L536.833 65.5827C536.669 65.433 536.449 65.3478 536.217 65.3478H517.087C514.69 65.3478 512.739 63.5444 512.739 61.326V43.6305C512.739 41.412 514.69 39.6087 517.087 39.6087H544.913C547.309 39.6087 549.261 41.4121 549.261 43.6305V61.326V61.326Z" fill="white"/>
<path d="M531 57.3043C529.562 57.3043 528.391 58.3869 528.391 59.7174C528.391 61.0478 529.562 62.1304 531 62.1304C532.438 62.1304 533.609 61.0478 533.609 59.7174C533.609 58.3869 532.438 57.3043 531 57.3043ZM531 60.5217C530.52 60.5217 530.13 60.1598 530.13 59.7174C530.13 59.2749 530.52 58.913 531 58.913C531.48 58.913 531.87 59.2749 531.87 59.7174C531.87 60.1598 531.48 60.5217 531 60.5217Z" fill="white"/>
<path d="M533.779 43.595C533.287 43.106 532.591 42.8261 531.87 42.8261H530.13C529.409 42.8261 528.715 43.106 528.223 43.595C527.73 44.0824 527.478 44.7436 527.529 45.4225L528.264 53.3485C528.365 54.6645 529.562 55.6956 531 55.6956C532.426 55.6956 533.623 54.6644 533.722 53.3613L534.471 45.4112C534.523 44.7453 534.271 44.0841 533.779 43.595ZM532.739 45.2841L531.988 53.2359C531.951 53.7137 531.517 54.0869 530.986 54.0869C530.468 54.0869 530.035 53.7137 529.996 53.223L529.263 45.297C529.245 45.0702 529.327 44.8546 529.494 44.6905C529.661 44.5264 529.887 44.4347 530.13 44.4347H531.87C532.113 44.4347 532.339 44.5264 532.506 44.6905C532.673 44.8546 532.755 45.0702 532.739 45.2841Z" fill="white"/>
</svg>
