<svg width="45" height="45" viewBox="0 0 45 45" fill="none" xmlns="http://www.w3.org/2000/svg">
<path d="M41.1123 21.3337V20.5075H42.716C43.1186 20.5075 43.4449 20.1812 43.4449 19.7786V17.3974H44.2711C44.6736 17.3974 45 17.071 45 16.6685V14.3358C45 14.0743 44.8599 13.8327 44.6327 13.7029L22.8617 1.26232C22.6375 1.13432 22.3624 1.13432 22.1383 1.26232L0.367289 13.7029C0.140151 13.8327 0 14.0742 0 14.3358V16.6685C0 17.071 0.326371 17.3974 0.728942 17.3974H1.55508V19.7786C1.55508 20.1812 1.88145 20.5075 2.28402 20.5075H3.88769V21.3337C3.88769 21.9 4.20211 22.3939 4.66523 22.6511V36.1555H2.28402C1.88145 36.1555 1.55508 36.4819 1.55508 36.8844V39.2656H0.728942C0.326371 39.2656 0 39.592 0 39.9946V43.1047C0 43.5073 0.326371 43.8337 0.728942 43.8337H44.2711C44.6736 43.8337 45 43.5073 45 43.1047V39.9946C45 39.592 44.6736 39.2656 44.2711 39.2656H43.4449V36.8844C43.4449 36.4819 43.1186 36.1555 42.716 36.1555H40.3348V22.6511C40.7979 22.3939 41.1123 21.9 41.1123 21.3337ZM39.6544 21.3337C39.6544 21.3605 39.6327 21.3823 39.6058 21.3823H36.4957C36.4689 21.3823 36.4471 21.3605 36.4471 21.3337V20.5075H39.6544V21.3337ZM32.5594 36.1555V22.6511C33.0225 22.3939 33.3369 21.9 33.3369 21.3337V20.5075H34.9892V21.3337C34.9892 21.9 35.3036 22.3939 35.7667 22.6511V36.1555H32.5594ZM29.4492 36.1555V22.8402H31.1015V36.1555H29.4492ZM24.784 36.1555V22.6511C25.2471 22.3939 25.5616 21.9 25.5616 21.3337V20.5075H27.2138V21.3337C27.2138 21.9 27.5282 22.3939 27.9914 22.6511V36.1555H24.784ZM21.6739 36.1555V22.8402H23.3261V36.1555H21.6739ZM17.0086 36.1555V22.6511C17.4718 22.3939 17.7862 21.9 17.7862 21.3337V20.5075H19.4384V21.3337C19.4384 21.9 19.7529 22.3939 20.216 22.6511V36.1555H17.0086ZM13.8985 36.1555V22.8402H15.5508V36.1555H13.8985ZM9.23326 36.1555V22.6511C9.69638 22.3939 10.0108 21.9 10.0108 21.3337V20.5075H11.6631V21.3337C11.6631 21.9 11.9775 22.3939 12.4406 22.6511V36.1555H9.23326ZM16.3283 20.5075V21.3337C16.3283 21.3605 16.3065 21.3823 16.2797 21.3823H13.1695C13.1427 21.3823 13.121 21.3605 13.121 21.3337V20.5075H16.3283ZM24.1037 20.5075V21.3337C24.1037 21.3605 24.0819 21.3823 24.0551 21.3823H20.9449C20.9181 21.3823 20.8963 21.3605 20.8963 21.3337V20.5075H24.1037ZM31.8791 20.5075V21.3337C31.8791 21.3605 31.8573 21.3823 31.8305 21.3823H28.7203C28.6935 21.3823 28.6717 21.3605 28.6717 21.3337V20.5075H31.8791ZM1.45788 14.7588L22.5 2.73478L43.5421 14.7588V15.9395H1.45788V14.7588ZM3.01296 17.3974H41.987V19.0497H3.01296V17.3974ZM8.55292 20.5075V21.3337C8.55292 21.3605 8.53114 21.3823 8.50432 21.3823H5.39417C5.36734 21.3823 5.34557 21.3605 5.34557 21.3337V20.5075H8.55292ZM6.12311 22.8402H7.77538V36.1555H6.12311V22.8402ZM43.5421 42.3758H1.45788V40.7235H43.5421V42.3758ZM41.987 39.2656H3.01296V37.6134H41.987V39.2656ZM37.2246 36.1555V22.8402H38.8769V36.1555H37.2246Z" fill="#333333"/>
</svg>
