<svg width="45" height="45" viewBox="0 0 45 45" fill="none" xmlns="http://www.w3.org/2000/svg">
<path d="M2.98412 35.8552L2.98421 35.8551C3.05393 35.7854 3.15348 35.7441 3.25195 35.7441C3.35032 35.7441 3.44995 35.7854 3.51979 35.8552C3.58962 35.925 3.63086 36.0247 3.63086 36.123C3.63086 36.2214 3.58961 36.321 3.51988 36.3907L3.51969 36.3909C3.44989 36.4607 3.3503 36.502 3.25195 36.502C3.1536 36.502 3.05402 36.4607 2.98421 36.3909L2.98402 36.3907C2.9143 36.321 2.87305 36.2214 2.87305 36.123C2.87305 36.0247 2.91428 35.925 2.98412 35.8552ZM2.63057 36.7443C2.79404 36.9079 3.0208 37.002 3.25195 37.002C3.48311 37.002 3.70986 36.9079 3.87334 36.7443C4.03682 36.581 4.13086 36.3542 4.13086 36.123C4.13086 35.8919 4.03682 35.6651 3.87334 35.5017C3.70986 35.3382 3.48311 35.2441 3.25195 35.2441C3.0208 35.2441 2.79404 35.3381 2.63057 35.5017C2.46709 35.6651 2.37305 35.8919 2.37305 36.123C2.37305 36.3542 2.46709 36.581 2.63057 36.7443Z" stroke="#333333"/>
<mask id="path-2-inside-1" fill="white">
<path d="M39.1664 10.1943C39.1661 10.194 39.1657 10.1936 39.1653 10.1934L33.306 6.23549C32.1826 5.47664 30.8443 5.19574 29.5632 5.38471C29.6204 5.10864 29.6503 4.82493 29.6503 4.53647C29.6503 3.4309 29.2198 2.3915 28.438 1.60963L28.0406 1.21228C27.2589 0.430488 26.2194 0 25.1139 0C24.0083 0 22.9688 0.430488 22.1869 1.21236C21.4051 1.99424 20.9747 3.03363 20.9747 4.1393C20.9747 5.24487 21.4052 6.28427 22.1869 7.06606L22.5843 7.4635C23.0822 7.96131 23.6848 8.31604 24.3421 8.50852L18.4286 12.964C18.0522 13.2476 17.779 13.62 17.6184 14.0315C17.1928 13.9455 16.7418 13.9696 16.3104 14.1237L10.5818 16.168C10.791 15.6734 10.9068 15.1301 10.9068 14.5602V13.9983C10.9068 11.7159 9.04992 9.85904 6.76758 9.85904C4.48523 9.85904 2.62837 11.7159 2.62837 13.9983V14.5602C2.62837 16.1483 3.52784 17.5296 4.84365 18.2235C3.35698 18.8517 2.37305 20.3201 2.37305 21.9482V32.4316C2.37305 32.917 2.76653 33.3105 3.25195 33.3105C3.73737 33.3105 4.13086 32.917 4.13086 32.4316V30.8232H7.59753C7.78052 30.8232 7.95041 30.7672 8.09112 30.6715L12.0654 27.9737C12.4561 27.7085 12.9122 27.5684 13.3842 27.5684C14.679 27.5684 15.7323 28.6217 15.7323 29.9164V35.3633L13.2714 36.3481V31.9482C13.2714 31.6317 13.1012 31.3398 12.8261 31.1837C12.5509 31.0277 12.2129 31.0315 11.9413 31.194L7.48828 33.8579C6.93527 34.1887 6.5918 34.7946 6.5918 35.439V43.2422H4.13086V39.5525C4.13086 39.0672 3.73737 38.6736 3.25195 38.6736C2.76653 38.6736 2.37305 39.0672 2.37305 39.5525V44.1211C2.37305 44.6064 2.76653 45 3.25195 45H7.4707C7.95612 45 8.34961 44.6064 8.34961 44.1211V35.439C8.34961 35.4094 8.36543 35.3815 8.39074 35.3664L11.5137 33.4982V44.1211C11.5137 44.6064 11.9072 45 12.3926 45H41.748C42.2335 45 42.627 44.6064 42.627 44.1211V16.5869C42.627 13.9977 41.3336 11.6094 39.1664 10.1943ZM23.8273 6.22063L23.43 5.82311C22.9801 5.37337 22.7325 4.77536 22.7325 4.1393C22.7325 3.50314 22.9801 2.90514 23.43 2.4554C23.8797 2.00549 24.4777 1.75781 25.1139 1.75781C25.75 1.75781 26.3479 2.00549 26.7978 2.4554L27.1951 2.85275C28.1236 3.78114 28.1236 5.29207 27.1951 6.22055C26.2666 7.14902 24.7557 7.14902 23.8273 6.22063ZM19.4864 14.3679L28.2059 7.79827C29.4142 6.88799 31.0684 6.84536 32.322 7.6921L37.1944 10.9833L32.8943 14.4425L29.5219 12.1644C29.2785 11.9999 28.9689 11.9679 28.6969 12.0793L20.1706 15.5709C19.8541 15.7003 19.4843 15.5771 19.3086 15.2842C19.3078 15.2828 19.3069 15.2815 19.3061 15.28C19.1248 14.9741 19.2023 14.5819 19.4864 14.3679ZM4.38618 14.5602V13.9983C4.38618 12.6852 5.45449 11.6169 6.76758 11.6169C8.08066 11.6169 9.14897 12.6851 9.14897 13.9983V14.5602C9.14897 15.8733 8.08066 16.9417 6.76758 16.9417C5.45449 16.9417 4.38618 15.8734 4.38618 14.5602ZM9.4043 23.0566V27.6557L7.32753 29.0654H4.13086V26.6895V21.9482C4.13086 20.9841 4.74091 20.1187 5.64891 19.7946L16.9011 15.7791C17.2144 15.6674 17.5653 15.7939 17.7349 16.0801C17.9213 16.3946 17.8313 16.8031 17.5301 17.0101L9.78539 22.3323C9.54686 22.4962 9.4043 22.7671 9.4043 23.0566ZM13.3843 25.8106C12.5923 25.8106 11.8264 26.0368 11.1621 26.4647V23.519L18.5258 18.4587C18.9447 18.1708 19.2471 17.772 19.4199 17.3269C19.5828 17.3603 19.7493 17.3782 19.9169 17.3782C20.2259 17.3782 20.5381 17.3198 20.8368 17.1975L28.9279 13.8843L32.4203 16.2433C33.198 16.8396 33.6622 17.7787 33.6622 18.7592V25.6641H31.9337C31.7392 25.6641 31.5502 25.7286 31.3962 25.8475L22.6597 32.5986L17.4902 34.6636V29.9164C17.4902 27.6524 15.6483 25.8106 13.3843 25.8106ZM40.8691 43.2422H13.2715V38.2417L23.4258 34.1853C23.5016 34.1551 23.5727 34.1145 23.6372 34.0646L32.2336 27.4219H40.8691V43.2422ZM40.8691 25.6641H39.1113V18.7324C39.1113 18.2471 38.7178 17.8535 38.2324 17.8535C37.747 17.8535 37.3535 18.2471 37.3535 18.7324V25.6641H35.4199V18.7592C35.4199 17.5979 35.0006 16.4742 34.2664 15.5947L38.7007 12.0277C40.0685 13.1376 40.8691 14.8 40.8691 16.5869V25.6641Z"/>
</mask>
<path d="M39.1664 10.1943C39.1661 10.194 39.1657 10.1936 39.1653 10.1934L33.306 6.23549C32.1826 5.47664 30.8443 5.19574 29.5632 5.38471C29.6204 5.10864 29.6503 4.82493 29.6503 4.53647C29.6503 3.4309 29.2198 2.3915 28.438 1.60963L28.0406 1.21228C27.2589 0.430488 26.2194 0 25.1139 0C24.0083 0 22.9688 0.430488 22.1869 1.21236C21.4051 1.99424 20.9747 3.03363 20.9747 4.1393C20.9747 5.24487 21.4052 6.28427 22.1869 7.06606L22.5843 7.4635C23.0822 7.96131 23.6848 8.31604 24.3421 8.50852L18.4286 12.964C18.0522 13.2476 17.779 13.62 17.6184 14.0315C17.1928 13.9455 16.7418 13.9696 16.3104 14.1237L10.5818 16.168C10.791 15.6734 10.9068 15.1301 10.9068 14.5602V13.9983C10.9068 11.7159 9.04992 9.85904 6.76758 9.85904C4.48523 9.85904 2.62837 11.7159 2.62837 13.9983V14.5602C2.62837 16.1483 3.52784 17.5296 4.84365 18.2235C3.35698 18.8517 2.37305 20.3201 2.37305 21.9482V32.4316C2.37305 32.917 2.76653 33.3105 3.25195 33.3105C3.73737 33.3105 4.13086 32.917 4.13086 32.4316V30.8232H7.59753C7.78052 30.8232 7.95041 30.7672 8.09112 30.6715L12.0654 27.9737C12.4561 27.7085 12.9122 27.5684 13.3842 27.5684C14.679 27.5684 15.7323 28.6217 15.7323 29.9164V35.3633L13.2714 36.3481V31.9482C13.2714 31.6317 13.1012 31.3398 12.8261 31.1837C12.5509 31.0277 12.2129 31.0315 11.9413 31.194L7.48828 33.8579C6.93527 34.1887 6.5918 34.7946 6.5918 35.439V43.2422H4.13086V39.5525C4.13086 39.0672 3.73737 38.6736 3.25195 38.6736C2.76653 38.6736 2.37305 39.0672 2.37305 39.5525V44.1211C2.37305 44.6064 2.76653 45 3.25195 45H7.4707C7.95612 45 8.34961 44.6064 8.34961 44.1211V35.439C8.34961 35.4094 8.36543 35.3815 8.39074 35.3664L11.5137 33.4982V44.1211C11.5137 44.6064 11.9072 45 12.3926 45H41.748C42.2335 45 42.627 44.6064 42.627 44.1211V16.5869C42.627 13.9977 41.3336 11.6094 39.1664 10.1943ZM23.8273 6.22063L23.43 5.82311C22.9801 5.37337 22.7325 4.77536 22.7325 4.1393C22.7325 3.50314 22.9801 2.90514 23.43 2.4554C23.8797 2.00549 24.4777 1.75781 25.1139 1.75781C25.75 1.75781 26.3479 2.00549 26.7978 2.4554L27.1951 2.85275C28.1236 3.78114 28.1236 5.29207 27.1951 6.22055C26.2666 7.14902 24.7557 7.14902 23.8273 6.22063ZM19.4864 14.3679L28.2059 7.79827C29.4142 6.88799 31.0684 6.84536 32.322 7.6921L37.1944 10.9833L32.8943 14.4425L29.5219 12.1644C29.2785 11.9999 28.9689 11.9679 28.6969 12.0793L20.1706 15.5709C19.8541 15.7003 19.4843 15.5771 19.3086 15.2842C19.3078 15.2828 19.3069 15.2815 19.3061 15.28C19.1248 14.9741 19.2023 14.5819 19.4864 14.3679ZM4.38618 14.5602V13.9983C4.38618 12.6852 5.45449 11.6169 6.76758 11.6169C8.08066 11.6169 9.14897 12.6851 9.14897 13.9983V14.5602C9.14897 15.8733 8.08066 16.9417 6.76758 16.9417C5.45449 16.9417 4.38618 15.8734 4.38618 14.5602ZM9.4043 23.0566V27.6557L7.32753 29.0654H4.13086V26.6895V21.9482C4.13086 20.9841 4.74091 20.1187 5.64891 19.7946L16.9011 15.7791C17.2144 15.6674 17.5653 15.7939 17.7349 16.0801C17.9213 16.3946 17.8313 16.8031 17.5301 17.0101L9.78539 22.3323C9.54686 22.4962 9.4043 22.7671 9.4043 23.0566ZM13.3843 25.8106C12.5923 25.8106 11.8264 26.0368 11.1621 26.4647V23.519L18.5258 18.4587C18.9447 18.1708 19.2471 17.772 19.4199 17.3269C19.5828 17.3603 19.7493 17.3782 19.9169 17.3782C20.2259 17.3782 20.5381 17.3198 20.8368 17.1975L28.9279 13.8843L32.4203 16.2433C33.198 16.8396 33.6622 17.7787 33.6622 18.7592V25.6641H31.9337C31.7392 25.6641 31.5502 25.7286 31.3962 25.8475L22.6597 32.5986L17.4902 34.6636V29.9164C17.4902 27.6524 15.6483 25.8106 13.3843 25.8106ZM40.8691 43.2422H13.2715V38.2417L23.4258 34.1853C23.5016 34.1551 23.5727 34.1145 23.6372 34.0646L32.2336 27.4219H40.8691V43.2422ZM40.8691 25.6641H39.1113V18.7324C39.1113 18.2471 38.7178 17.8535 38.2324 17.8535C37.747 17.8535 37.3535 18.2471 37.3535 18.7324V25.6641H35.4199V18.7592C35.4199 17.5979 35.0006 16.4742 34.2664 15.5947L38.7007 12.0277C40.0685 13.1376 40.8691 14.8 40.8691 16.5869V25.6641Z" stroke="#333333" stroke-width="2" mask="url(#path-2-inside-1)"/>
<path d="M37.1504 32.7246V32.2246H36.6504H35.4785C35.2693 32.2246 35.0996 32.0549 35.0996 31.8457C35.0996 31.6365 35.2693 31.4668 35.4785 31.4668H37.5293C37.7385 31.4668 37.9082 31.6365 37.9082 31.8457V36.1231C37.9082 36.3323 37.7385 36.502 37.5293 36.502C37.32 36.502 37.1504 36.3323 37.1504 36.1231V32.7246Z" stroke="#333333"/>
<path d="M37.797 39.2846L37.7972 39.2848C37.867 39.3545 37.9082 39.4541 37.9082 39.5525C37.9082 39.6508 37.867 39.7504 37.797 39.8204C37.7273 39.8902 37.6278 39.9314 37.5293 39.9314C37.4309 39.9314 37.3313 39.8902 37.2615 39.8203C37.1916 39.7505 37.1504 39.6509 37.1504 39.5525C37.1504 39.4541 37.1916 39.3545 37.2614 39.2848L37.2616 39.2846C37.3314 39.2148 37.4309 39.1736 37.5293 39.1736C37.6276 39.1736 37.7272 39.2148 37.797 39.2846Z" stroke="#333333"/>
</svg>
