<svg role="img" width="24" height="24" viewBox="0 0 24 24" fill="none" xmlns="http://www.w3.org/2000/svg">
<path d="M20.3478 0H3.65218C1.63824 0 0 1.63824 0 3.65219V15.1305C0 17.1444 1.63824 18.7826 3.65218 18.7826H14.9144L19.9784 23.8476C20.0786 23.9468 20.2122 24 20.3478 24C20.4146 24 20.4824 23.9865 20.5471 23.9603C20.7423 23.88 20.8696 23.689 20.8696 23.4782V18.7461C22.6372 18.4915 24 16.9669 24 15.1304V3.65219C24 1.63824 22.3617 0 20.3478 0ZM22.9564 15.1304C22.9564 16.5694 21.7857 17.7391 20.3478 17.7391C20.0598 17.7391 19.826 17.9728 19.826 18.2608V22.2187L15.4998 17.8914C15.4017 17.7944 15.2691 17.7391 15.1304 17.7391H3.65218C2.21429 17.7391 1.04351 16.5693 1.04351 15.1304V3.65219C1.04351 2.21322 2.21429 1.04351 3.65218 1.04351H20.3478C21.7857 1.04351 22.9564 2.21326 22.9564 3.65219V15.1304V15.1304Z" fill="white"/>
<path d="M11.9999 12.5217C11.137 12.5217 10.4347 13.224 10.4347 14.0869C10.4347 14.9499 11.137 15.6522 11.9999 15.6522C12.8629 15.6522 13.5652 14.9499 13.5652 14.0869C13.5652 13.224 12.8629 12.5217 11.9999 12.5217ZM11.9999 14.6087C11.7119 14.6087 11.4782 14.3739 11.4782 14.0869C11.4782 13.8 11.7119 13.5652 11.9999 13.5652C12.2879 13.5652 12.5217 13.8 12.5217 14.0869C12.5217 14.3739 12.2879 14.6087 11.9999 14.6087Z" fill="white"/>
<path d="M13.6675 3.6292C13.3722 3.312 12.9547 3.13043 12.5217 3.13043H11.4783C11.0452 3.13043 10.6289 3.312 10.3335 3.6292C10.0383 3.94537 9.88692 4.37424 9.9172 4.8146L10.3586 9.9558C10.4191 10.8094 11.137 11.4782 12 11.4782C12.8556 11.4782 13.5735 10.8093 13.633 9.96412L14.0828 4.80727C14.1141 4.37532 13.9627 3.94645 13.6675 3.6292ZM13.0435 4.72485L12.5927 9.88278C12.5708 10.1927 12.3099 10.4348 11.9916 10.4348C11.6807 10.4348 11.4209 10.1927 11.3979 9.87441L10.9575 4.73321C10.9471 4.58608 10.9961 4.44624 11.0963 4.33981C11.1965 4.23337 11.3321 4.17389 11.4782 4.17389H12.5217C12.6678 4.17389 12.8035 4.23337 12.9036 4.33981C13.0038 4.44624 13.0529 4.58608 13.0435 4.72485Z" fill="white"/>
</svg>
