<svg role="img" width="218" height="95" viewBox="0 0 218 95" fill="none" xmlns="http://www.w3.org/2000/svg">
<g clip-path="url(#clip0)">
<path d="M36.3123 51.2482C36.3123 54.307 35.5306 56.9396 33.9419 59.1711C32.3533 61.4025 30.1846 63.1075 27.3603 64.311C24.536 65.5145 21.3083 66.0911 17.677 66.0911C16.6684 66.0911 15.4075 66.0159 13.9449 65.8905C12.4571 65.7652 10.5154 65.4142 8.0694 64.8124C5.62337 64.2107 3.07646 63.3582 0.428687 62.2049V50.2202C2.89994 51.7496 5.34598 53.0283 7.74159 54.0312C10.1372 55.0341 12.7093 55.5356 15.458 55.5356C17.9796 55.5356 19.6187 55.1093 20.3752 54.2819C21.1318 53.4545 21.4848 52.6773 21.4848 51.9251C21.4848 50.6213 20.8544 49.4931 19.5683 48.5905C18.2822 47.6879 16.4414 46.7602 13.9954 45.7823C11.2972 44.6541 8.92678 43.4255 6.90943 42.0967C4.89208 40.7678 3.22776 39.113 1.91648 37.1072C0.605205 35.1014 0 32.7947 0 30.0618C0 27.4292 0.655639 25.0473 1.9417 22.9161C3.22776 20.785 5.2199 19.08 7.89289 17.8264C10.5659 16.5728 13.8189 15.9209 17.677 15.9209C20.4257 15.9209 22.9474 16.1967 25.2925 16.7232C27.6377 17.2497 29.5542 17.8515 31.0672 18.5034C32.5802 19.1553 33.6141 19.6818 34.1941 20.0579V31.516C32.1768 30.0869 29.9324 28.8082 27.4864 27.6799C25.0404 26.5517 22.3674 25.975 19.5683 25.975C17.7275 25.975 16.391 26.326 15.5588 27.028C14.7267 27.7301 14.3232 28.6076 14.3232 29.6356C14.3232 30.5884 14.7267 31.4408 15.5588 32.1429C16.391 32.8449 17.8536 33.6974 19.997 34.7253C23.7795 36.4804 26.8056 38.0851 29.0751 39.4891C31.3446 40.8932 33.135 42.5229 34.4211 44.3783C35.7071 46.2336 36.3123 48.5152 36.3123 51.2482Z" fill="white"/>
<path d="M106.869 37.2327H100.565C102.784 39.1633 103.894 41.5201 103.894 44.3282C103.894 45.8075 103.591 47.2366 102.961 48.5906C102.33 49.9445 101.422 51.173 100.187 52.2261C98.9511 53.2791 97.4634 54.1567 95.673 54.8086C93.8826 55.4605 91.84 55.8867 89.5453 56.0371C86.5949 56.1625 85.1071 56.9397 85.1071 58.3939C85.1071 58.9455 85.3088 59.3718 85.6619 59.6225C86.0149 59.8732 86.6453 60.0738 87.4522 60.1992C88.2592 60.3245 89.6461 60.475 91.5878 60.6505C93.7817 60.8511 95.8243 61.177 97.7155 61.6283C99.6068 62.0796 101.372 63.0825 103.011 64.5869C104.65 66.0912 105.457 68.2475 105.457 71.0305C105.457 73.262 104.852 75.2427 103.641 76.9477C102.431 78.6526 100.464 80.0065 97.7407 80.9593C95.0173 81.912 91.4365 82.4135 86.9479 82.4135C80.5176 82.4135 75.8021 81.561 72.776 79.831C69.75 78.101 68.2622 75.8194 68.2622 72.9611C68.2622 72.1839 68.4639 71.2812 68.8422 70.2783C69.2204 69.2754 70.0526 68.2976 71.3134 67.3449C72.5743 66.3921 74.4151 65.7653 76.8359 65.4393C75.9786 65.1385 75.2473 64.5367 74.6421 63.6592C74.0369 62.7816 73.709 61.854 73.709 60.9012C73.709 59.6476 74.1377 58.419 74.9951 57.1905C75.8525 55.9619 77.2646 55.1847 79.2063 54.8336C76.5081 54.1316 74.1882 52.8028 72.2213 50.8471C70.2543 48.8914 69.2709 46.3591 69.2709 43.2752C69.2709 40.9184 69.7248 38.8624 70.6326 37.1073C71.5404 35.3522 72.8012 33.898 74.4151 32.7948C76.029 31.6916 77.8951 30.8642 80.0133 30.3377C82.1315 29.8112 84.4767 29.5354 86.9983 29.5354H106.819V37.2327H106.869ZM95.3199 72.1588C95.3199 70.5792 94.4625 69.5763 92.773 69.0999C91.0835 68.6236 89.3435 68.423 87.5531 68.423C84.6027 68.423 82.4593 68.7238 81.148 69.3507C79.8368 69.9775 79.1811 70.9553 79.1811 72.3343C79.1811 75.0171 81.9045 76.3459 87.3262 76.3459C89.7722 76.3459 91.6887 75.9949 93.1513 75.3179C94.6138 74.641 95.3199 73.5629 95.3199 72.1588ZM92.7478 43.3002C92.7478 41.495 92.1174 40.0408 90.8817 38.9376C89.6461 37.8344 88.2592 37.3079 86.721 37.3079C84.754 37.3079 83.2158 37.9598 82.0811 39.2886C80.9463 40.6175 80.3915 41.9965 80.3915 43.4507C80.3915 44.4536 80.6437 45.4063 81.1228 46.2588C81.6019 47.1113 82.2828 47.8384 83.1906 48.3649C84.0984 48.8914 85.1323 49.1672 86.3679 49.1672C88.2088 49.1672 89.747 48.5906 90.9322 47.4372C92.1174 46.2839 92.7478 44.8798 92.7478 43.3002Z" fill="white"/>
<path d="M151.604 65.4643H138.844V46.1083C138.844 44.1276 138.517 42.4226 137.861 40.9434C137.205 39.4641 135.793 38.737 133.599 38.737C132.565 38.737 131.632 38.9376 130.851 39.3136C130.069 39.6897 129.338 40.1912 128.732 40.818C128.102 41.4197 127.572 42.0215 127.144 42.5731C126.715 43.1247 126.286 43.7264 125.832 44.3783V65.4643H113.073V29.5604H125.832V34.7003C127.85 32.5691 129.867 31.0648 131.885 30.2123C133.902 29.3598 136.146 28.9336 138.643 28.9336C147.292 28.9336 151.629 34.0735 151.629 44.3783V65.4643H151.604Z" fill="white"/>
<path d="M196.717 63.6592C194.851 64.3863 193.136 64.963 191.547 65.4143C189.958 65.8656 188.067 66.0912 185.848 66.0912C183.755 66.0912 182.267 65.7151 181.46 64.988C180.653 64.2609 180.048 63.3583 179.695 62.2802C178.333 63.3834 176.795 64.286 175.131 65.0131C173.467 65.7402 171.248 66.0912 168.524 66.0912C165.902 66.0912 163.783 65.6399 162.169 64.7373C160.556 63.8347 159.421 62.6814 158.765 61.3274C158.11 59.9735 157.782 58.5444 157.782 57.0902C157.782 54.8838 158.337 53.0535 159.471 51.5993C160.606 50.1451 162.094 48.9667 163.985 48.064C165.876 47.1614 168.373 46.1836 171.5 45.2058C173.265 44.6542 174.627 44.2029 175.534 43.9271C176.442 43.6513 177.123 43.4005 177.577 43.2501C178.031 43.0997 178.51 42.874 178.989 42.6233C178.989 40.8933 178.636 39.5143 177.93 38.5365C177.224 37.5586 175.686 37.0572 173.315 37.0572C170.516 37.0572 167.944 37.6589 165.549 38.8875C163.153 40.116 160.984 41.6956 158.992 43.6011V33.8479C160.581 32.7196 162.296 31.7919 164.136 31.0899C165.977 30.3879 167.919 29.8363 169.911 29.4853C171.903 29.1342 173.946 28.9587 176.014 28.9587C181.233 28.9587 185.167 29.9616 187.815 31.9674C190.463 33.9733 191.774 36.7563 191.774 40.2665V54.1316C191.774 55.4354 191.9 56.4383 192.152 57.0651C192.405 57.6919 192.858 58.0429 193.514 58.0429C194.321 58.0429 195.405 57.6919 196.767 57.0149V63.6592H196.717ZM178.939 56.7893V48.2897C175.913 49.5183 173.694 50.6214 172.307 51.5742C170.92 52.527 170.214 53.8809 170.214 55.5357C170.214 56.7392 170.567 57.6418 171.248 58.2937C171.928 58.9455 172.761 59.2464 173.668 59.2464C174.551 59.2464 175.408 58.9957 176.266 58.5193C177.123 58.0429 178.056 57.4663 178.939 56.7893Z" fill="white"/>
<path d="M214.167 65.4644H201.357V16.5979H214.167V65.4644Z" fill="white"/>
<path d="M55.2503 28.006C58.5928 28.006 61.3024 25.3119 61.3024 21.9886C61.3024 18.6653 58.5928 15.9712 55.2503 15.9712C51.9078 15.9712 49.1982 18.6653 49.1982 21.9886C49.1982 25.3119 51.9078 28.006 55.2503 28.006Z" fill="#EA9001"/>
<path d="M55.8885 0.000691254L54.9814 8.14941L58.2898 8.51347L59.1968 0.364745L55.8885 0.000691254Z" fill="white"/>
<path d="M71.3284 4.94903L64.8916 10.0732L66.972 12.6567L73.4088 7.53249L71.3284 4.94903Z" fill="white"/>
<path d="M43.0285 1.83581L40.4302 3.9043L45.5839 10.3042L48.1822 8.23574L43.0285 1.83581Z" fill="white"/>
<path d="M132.238 92.8187C131.254 93.3453 130.245 93.7715 129.186 94.0974C128.152 94.4234 127.093 94.649 126.034 94.7995C124.975 94.9499 123.891 95.0251 122.756 95.0251C120.663 95.0502 118.797 94.7744 117.133 94.2228C115.468 93.6712 114.031 92.8187 112.795 91.7155C111.56 90.6123 110.652 89.3086 110.022 87.8042C109.391 86.2999 109.088 84.6701 109.063 82.8649C109.038 80.809 109.391 79.0037 110.097 77.4492C110.803 75.8947 111.787 74.616 113.073 73.563C114.359 72.535 115.821 71.7578 117.46 71.2563C119.1 70.7549 120.84 70.5041 122.655 70.4791C125.379 70.454 128.48 71.0307 131.935 72.2091L131.985 78.5524C130.8 77.8253 129.615 77.2236 128.43 76.7472C127.27 76.2708 125.883 76.0452 124.319 76.0452C122.933 76.0452 121.621 76.346 120.411 76.8976C119.2 77.4492 118.242 78.2516 117.511 79.2795C116.78 80.3075 116.427 81.511 116.427 82.8649C116.427 84.0684 116.78 85.1716 117.435 86.1745C118.091 87.1774 118.999 87.9547 120.159 88.5564C121.319 89.1331 122.605 89.4339 124.067 89.4089C125.227 89.4089 126.337 89.2584 127.371 88.9575C128.405 88.6567 129.287 88.3558 129.993 88.0048C130.699 87.6538 131.431 87.2275 132.187 86.7512L132.238 92.8187Z" fill="white"/>
<path d="M155.513 85.6228C155.538 87.3779 155.16 88.9324 154.403 90.3114C153.647 91.6904 152.512 92.7685 150.999 93.5708C149.486 94.3732 147.645 94.7994 145.451 94.7994C143.257 94.7994 141.416 94.4484 139.878 93.646C138.34 92.8688 137.205 91.7907 136.423 90.4368C135.642 89.0828 135.263 87.5283 135.238 85.7733C135.238 84.4444 135.415 83.2409 135.843 82.1628C136.247 81.0847 136.877 80.1068 137.735 79.2795C138.592 78.427 139.651 77.8002 140.887 77.3238C142.148 76.8725 143.585 76.6218 145.249 76.6218C146.914 76.5967 148.376 76.8223 149.662 77.2736C150.948 77.725 152.008 78.3518 152.84 79.1541C153.697 79.9564 154.327 80.9092 154.756 81.9873C155.286 83.0905 155.487 84.294 155.513 85.6228ZM148.931 85.673C148.931 84.294 148.603 83.1908 147.998 82.4135C147.393 81.6363 146.51 81.2351 145.35 81.2602C144.216 81.2602 143.333 81.6613 142.728 82.4637C142.123 83.266 141.845 84.3441 141.845 85.7482C141.845 87.1272 142.173 88.2053 142.803 89.0076C143.434 89.8099 144.291 90.2111 145.426 90.186C146.586 90.186 147.468 89.7598 148.048 88.9575C148.654 88.1551 148.956 87.052 148.931 85.673Z" fill="white"/>
<path d="M177.679 94.2228L171.45 94.273L171.374 84.8206C171.374 83.8428 171.198 83.0154 170.87 82.2883C170.542 81.5612 169.836 81.2102 168.777 81.2353C168.273 81.2353 167.819 81.3356 167.441 81.5361C167.062 81.7367 166.709 81.9874 166.407 82.2883C166.104 82.5892 165.852 82.8901 165.65 83.1659C165.448 83.4417 165.221 83.7425 165.02 84.0434L165.121 94.3482L158.892 94.3984L158.741 76.8476L164.969 76.7974L164.995 79.3047C165.978 78.2516 166.936 77.4995 167.92 77.0732C168.903 76.647 170.013 76.4213 171.223 76.4213C175.46 76.3963 177.578 78.8784 177.628 83.918L177.679 94.2228Z" fill="white"/>
<path d="M195.179 88.9326C195.204 90.5372 194.624 91.8661 193.439 92.869C192.254 93.8969 190.514 94.3984 188.169 94.4235C186.858 94.4235 185.698 94.3232 184.689 94.0975C183.68 93.8719 182.546 93.5459 181.36 93.1197L181.31 88.7069C182.369 89.2836 183.277 89.7349 184.059 90.0358C184.84 90.3366 185.698 90.4871 186.605 90.4871C188.169 90.462 188.951 90.0358 188.925 89.1833C188.925 88.9075 188.799 88.6317 188.572 88.4311C188.345 88.2055 187.942 87.9547 187.387 87.6789C186.832 87.4031 186.076 87.0772 185.143 86.7011C183.983 86.1997 182.999 85.5478 182.167 84.6953C181.36 83.8428 180.932 82.8149 180.932 81.5863C180.932 80.7088 181.184 79.8814 181.713 79.054C182.243 78.2517 183.05 77.5747 184.134 77.0482C185.219 76.5216 186.53 76.2709 188.068 76.2458C188.446 76.2458 188.9 76.2709 189.48 76.3211C190.06 76.3712 190.766 76.4966 191.649 76.6972C192.531 76.8977 193.364 77.2237 194.145 77.5998L194.171 81.8872C193.792 81.6615 193.49 81.486 193.237 81.3356C192.985 81.1851 192.658 81.0347 192.229 80.8341C191.8 80.6586 191.321 80.4831 190.766 80.3577C190.211 80.2073 189.631 80.1572 189.051 80.1572C188.345 80.1572 187.841 80.3076 187.589 80.5834C187.337 80.8592 187.185 81.135 187.185 81.4108C187.185 81.6866 187.337 81.9624 187.614 82.2131C187.892 82.4638 188.522 82.7647 189.48 83.1157C190.867 83.6423 191.977 84.1688 192.834 84.7204C193.666 85.272 194.271 85.8737 194.624 86.5507C194.977 87.2527 195.154 88.03 195.179 88.9326Z" fill="white"/>
<path d="M218 85.0713C218.025 86.8264 217.647 88.3809 216.89 89.7599C216.134 91.1389 214.999 92.217 213.486 93.0193C211.973 93.8216 210.132 94.2479 207.938 94.2479C205.745 94.2479 203.904 93.8969 202.365 93.0945C200.827 92.3173 199.693 91.2392 198.911 89.8852C198.129 88.5313 197.751 86.9768 197.726 85.2217C197.726 83.8929 197.902 82.6894 198.331 81.6113C198.759 80.5332 199.365 79.5553 200.222 78.7279C201.079 77.8755 202.139 77.2487 203.374 76.7723C204.635 76.321 206.072 76.0702 207.737 76.0702C209.401 76.0452 210.864 76.2708 212.15 76.7221C213.436 77.1734 214.495 77.8003 215.327 78.6026C216.184 79.4049 216.815 80.3577 217.243 81.4358C217.773 82.539 218 83.7675 218 85.0713ZM211.444 85.1214C211.444 83.7425 211.116 82.6393 210.511 81.862C209.905 81.0848 209.023 80.6836 207.863 80.7087C206.728 80.7087 205.845 81.1098 205.24 81.9122C204.635 82.7145 204.358 83.7926 204.358 85.1967C204.358 86.5757 204.685 87.6538 205.316 88.4561C205.946 89.2584 206.804 89.6596 207.938 89.6345C209.098 89.6345 209.981 89.2083 210.561 88.406C211.166 87.6287 211.444 86.5255 211.444 85.1214Z" fill="white"/>
<path d="M68.1612 30.4128C70.1533 27.4292 72.1959 22.3896 71.389 17.5757L65.6899 18.3028C65.8412 19.2806 65.9169 20.3086 65.816 21.3616C65.3369 27.7802 60.3944 32.7446 54.771 32.4186C49.1477 32.1177 44.9617 26.6519 45.4408 20.2333C45.5669 18.6287 45.9451 17.1243 46.5755 15.7704L41.1035 13.5891C41.1035 13.5891 39.8931 15.9961 39.8931 21.6123C39.8931 28.0309 42.3139 31.2402 43.1208 32.8449C45.0373 36.6308 45.819 37.8092 46.3486 40.0658C47.2816 43.9771 46.3234 47.0109 45.5921 50.9723C44.6843 55.8615 45.466 61.6532 47.9625 65.7401H54.418C51.1902 57.7169 51.9972 52.1006 52.8041 49.6936C53.1067 48.7659 53.611 48.089 54.418 48.089C56.0319 48.089 56.6119 49.7187 56.8388 50.4959C58.4527 56.1122 57.9736 62.8567 56.8388 68.9494H63.2943C65.6143 63.3832 64.9082 58.5192 64.1013 52.1006C63.37 46.3088 62.4874 43.275 64.1013 37.6588C65.0343 34.4996 66.5473 32.8198 68.1612 30.4128Z" fill="white"/>
</g>
<defs>
<clipPath id="clip0">
<rect width="218" height="95" fill="white"/>
</clipPath>
</defs>
</svg>
