<?xml version="1.0" encoding="utf-8"?>
<!-- Generator: Adobe Illustrator 23.0.1, SVG Export Plug-In . SVG Version: 6.00 Build 0)  -->
<svg version="1.1" xmlns="http://www.w3.org/2000/svg" x="0px" y="0px"
     viewBox="20 0 126 55" style="enable-background:new 0 0 166 55;" xml:space="preserve">
<style type="text/css">
	.st0{opacity:0.4;fill:url(#SVGID_1_);}
	.st1{opacity:0.6;fill:url(#SVGID_2_);}
	.st2{opacity:0.6;fill:url(#SVGID_3_);}
	.st3{opacity:0.6;fill:url(#SVGID_4_);}
	.st4{opacity:0.6;fill:url(#SVGID_5_);}
	.st5{opacity:0.6;fill:url(#SVGID_6_);}
	.st6{fill:#1F2B50;}
	.st7{fill:none;stroke:#1F2B50;stroke-width:3;stroke-miterlimit:10;}
	.st8{opacity:0.4;fill:url(#SVGID_7_);}
	.st9{opacity:0.4;fill:url(#SVGID_8_);}
	.st10{opacity:0.6;fill:url(#SVGID_9_);}
	.st11{opacity:0.6;fill:url(#SVGID_10_);}
	.st12{opacity:0.4;fill:url(#SVGID_11_);}
	.st13{opacity:0.4;fill:url(#SVGID_12_);}
	.st14{opacity:0.4;fill:url(#SVGID_13_);}
	.st15{opacity:0.4;fill:url(#SVGID_14_);}
	.st16{opacity:0.4;fill:url(#SVGID_15_);}
	.st17{opacity:0.4;fill:url(#SVGID_16_);}
	.st18{opacity:0.4;fill:url(#SVGID_17_);}
	.st19{fill:url(#SVGID_18_);}
	.st20{fill:url(#SVGID_19_);}
	.st21{fill:url(#SVGID_20_);}
	.st22{opacity:0.6;fill:url(#SVGID_21_);}
	.st23{opacity:0.6;fill:url(#SVGID_22_);}
	.st24{opacity:0.6;fill:url(#SVGID_23_);}
	.st25{opacity:0.6;fill:url(#SVGID_24_);}
	.st26{opacity:0.6;fill:url(#SVGID_25_);}
	.st27{opacity:0.6;fill:url(#SVGID_26_);}
	.st28{opacity:0.6;fill:url(#SVGID_27_);}
	.st29{opacity:0.6;fill:url(#SVGID_28_);}
	.st30{fill:url(#SVGID_29_);}
	.st31{fill:url(#SVGID_30_);}
	.st32{fill:#EA9001;}
	.st33{fill:#407EA7;}
	.st34{opacity:0.5;fill:#FFFFFF;}
	.st35{fill:none;stroke:#EA9001;stroke-width:2;stroke-miterlimit:10;}
	.st36{fill:#BECBCC;}
	.st37{fill:#FFFFFF;}
	.st38{fill:#979B9B;}
	.st39{fill:none;stroke:#407EA7;stroke-width:3;stroke-miterlimit:10;}
	.st40{fill:none;stroke:#407EA7;stroke-width:3.0377;stroke-miterlimit:10;}
	.st41{fill:none;stroke:#407EA7;stroke-width:2.8985;stroke-miterlimit:10;}
	.st42{fill:none;stroke:#407EA7;stroke-width:2.933;stroke-miterlimit:10;}
	.st43{fill:none;stroke:#EA9001;stroke-width:1.8227;stroke-miterlimit:10;}
	.st44{fill:#AAB2B2;}
	.st45{fill:none;stroke:#407EA7;stroke-width:3.0142;stroke-miterlimit:10;}
	.st46{fill:none;stroke:#407EA7;stroke-width:3.0512;stroke-miterlimit:10;}
	.st47{fill:#D3DDDD;}
	.st48{fill:none;stroke:#1F2B50;stroke-miterlimit:10;}
	.st49{fill:#BECBCC;stroke:#1F2B50;stroke-width:0.75;stroke-miterlimit:10;}
	.st50{fill:url(#SVGID_31_);}
	.st51{fill:none;stroke:#407EA7;stroke-width:2.8066;stroke-linecap:round;stroke-miterlimit:10;}
	.st52{fill:none;stroke:#407EA7;stroke-width:2.7511;stroke-linecap:round;stroke-miterlimit:10;}
	.st53{fill:url(#SVGID_32_);}
	.st54{fill:none;stroke:#EA9001;stroke-width:0.8;stroke-miterlimit:10;}
	.st55{fill:none;stroke:#407EA7;stroke-width:1.2;stroke-miterlimit:10;}
	.st56{fill:none;stroke:#407EA7;stroke-width:1.2151;stroke-miterlimit:10;}
	.st57{fill:none;stroke:#407EA7;stroke-width:1.1594;stroke-miterlimit:10;}
	.st58{fill:none;stroke:#407EA7;stroke-width:1.1732;stroke-miterlimit:10;}
	.st59{fill:url(#SVGID_33_);}
	.st60{fill:none;stroke:#1F2B50;stroke-width:0.4;stroke-miterlimit:10;}
	.st61{fill:#BECBCC;stroke:#1F2B50;stroke-width:0.3;stroke-miterlimit:10;}
	.st62{fill:none;stroke:#407EA7;stroke-width:1.1226;stroke-linecap:round;stroke-miterlimit:10;}
	.st63{fill:none;stroke:#407EA7;stroke-width:1.1004;stroke-linecap:round;stroke-miterlimit:10;}
	.st64{fill:url(#SVGID_34_);}
	.st65{fill:url(#SVGID_35_);}
</style>
<g id="Calque_2">
</g>
<g id="Calque_1">
	<g>
		<path class="st6" d="M42.3,30c0,1.7-0.4,3.2-1.3,4.5s-2.1,2.2-3.7,2.9c-1.6,0.7-3.4,1-5.4,1c-0.6,0-1.3,0-2.1-0.1
			c-0.8-0.1-1.9-0.3-3.3-0.6c-1.4-0.3-2.8-0.8-4.3-1.5v-6.8c1.4,0.9,2.8,1.6,4.1,2.2c1.3,0.6,2.8,0.9,4.3,0.9c1.4,0,2.3-0.2,2.8-0.7
			c0.4-0.5,0.6-0.9,0.6-1.3c0-0.7-0.4-1.4-1.1-1.9c-0.7-0.5-1.8-1-3.1-1.6c-1.5-0.6-2.8-1.3-4-2.1c-1.1-0.8-2.1-1.7-2.8-2.8
			s-1.1-2.5-1.1-4c0-1.5,0.4-2.8,1.1-4s1.8-2.2,3.4-2.9c1.5-0.7,3.3-1.1,5.5-1.1c1.5,0,3,0.1,4.3,0.4s2.4,0.6,3.2,1
			c0.9,0.4,1.4,0.7,1.8,0.9v6.5c-1.1-0.8-2.4-1.5-3.8-2.2c-1.4-0.6-2.9-1-4.5-1c-1,0-1.8,0.2-2.3,0.6c-0.5,0.4-0.7,0.9-0.7,1.5
			c0,0.5,0.2,1,0.7,1.4c0.5,0.4,1.3,0.9,2.5,1.5c2.1,1,3.8,1.9,5.1,2.7c1.3,0.8,2.3,1.7,3,2.8C42,27.1,42.3,28.4,42.3,30z"/>
		<path class="st6" d="M82,22.1h-3.5c1.2,1.1,1.9,2.4,1.9,4c0,0.8-0.2,1.6-0.5,2.4c-0.4,0.8-0.9,1.5-1.6,2.1
			c-0.7,0.6-1.5,1.1-2.5,1.5c-1,0.4-2.2,0.6-3.4,0.7c-1.7,0.1-2.5,0.5-2.5,1.3c0,0.3,0.1,0.6,0.3,0.7c0.2,0.1,0.5,0.3,1,0.3
			c0.5,0.1,1.2,0.2,2.3,0.2c1.2,0.1,2.4,0.3,3.4,0.6c1.1,0.3,2.1,0.8,3,1.7c0.9,0.9,1.4,2.1,1.4,3.6c0,1.3-0.3,2.4-1,3.4
			c-0.7,1-1.8,1.7-3.3,2.3s-3.5,0.8-6.1,0.8c-3.6,0-6.3-0.5-8-1.5c-1.7-1-2.5-2.3-2.5-3.9c0-0.4,0.1-0.9,0.3-1.5
			c0.2-0.6,0.7-1.1,1.4-1.7s1.7-0.9,3.1-1.1c-0.5-0.2-0.9-0.5-1.2-1s-0.5-1-0.5-1.6c0-0.7,0.2-1.4,0.7-2.1c0.5-0.7,1.3-1.1,2.4-1.3
			c-1.5-0.4-2.8-1.1-3.9-2.3c-1.1-1.1-1.7-2.5-1.7-4.3c0-1.3,0.3-2.5,0.8-3.5c0.5-1,1.2-1.8,2.1-2.4c0.9-0.6,2-1.1,3.2-1.4
			s2.5-0.4,3.9-0.4H82V22.1z M75.5,41.8c0-0.9-0.5-1.5-1.4-1.7s-1.9-0.4-2.9-0.4c-1.7,0-2.9,0.2-3.6,0.5c-0.7,0.4-1.1,0.9-1.1,1.7
			c0,1.5,1.5,2.3,4.6,2.3c1.4,0,2.5-0.2,3.3-0.6C75.1,43.2,75.5,42.6,75.5,41.8z M74.1,25.5c0-1-0.3-1.8-1-2.5s-1.5-0.9-2.3-0.9
			c-1.1,0-2,0.4-2.6,1.1c-0.6,0.7-0.9,1.5-0.9,2.4c0,0.6,0.1,1.1,0.4,1.6s0.7,0.9,1.2,1.2c0.5,0.3,1.1,0.4,1.8,0.4
			c1,0,1.9-0.3,2.6-1C73.7,27.2,74.1,26.4,74.1,25.5z"/>
		<path class="st6" d="M107.2,38H100V27.1c0-1.1-0.2-2.1-0.5-2.9c-0.4-0.8-1.2-1.2-2.4-1.2c-0.6,0-1.1,0.1-1.5,0.3
			c-0.4,0.2-0.8,0.5-1.2,0.8c-0.4,0.3-0.6,0.7-0.9,1s-0.5,0.7-0.7,1V38h-7.2V17.7h7.2v2.9c1.1-1.2,2.3-2.1,3.4-2.5
			c1.1-0.5,2.4-0.7,3.8-0.7c4.9,0,7.3,2.9,7.3,8.7V38z"/>
		<path class="st6" d="M132.5,37c-1.1,0.4-2,0.7-2.9,1s-2,0.4-3.2,0.4c-1.2,0-2-0.2-2.5-0.6c-0.5-0.4-0.8-0.9-1-1.5
			c-0.8,0.6-1.6,1.1-2.6,1.5c-0.9,0.4-2.2,0.6-3.7,0.6c-1.5,0-2.7-0.3-3.6-0.8c-0.9-0.5-1.5-1.2-1.9-1.9c-0.4-0.8-0.5-1.6-0.5-2.4
			c0-1.2,0.3-2.3,0.9-3.1c0.6-0.8,1.5-1.5,2.5-2c1.1-0.5,2.5-1.1,4.2-1.6c1-0.3,1.8-0.6,2.3-0.7c0.5-0.2,0.9-0.3,1.1-0.4
			s0.5-0.2,0.8-0.4c0-1-0.2-1.8-0.6-2.3c-0.4-0.6-1.3-0.8-2.6-0.8c-1.6,0-3,0.3-4.4,1s-2.6,1.6-3.7,2.7v-5.5
			c0.9-0.6,1.9-1.2,2.9-1.6c1-0.4,2.1-0.7,3.3-0.9s2.3-0.3,3.4-0.3c2.9,0,5.1,0.6,6.6,1.7c1.5,1.1,2.2,2.7,2.2,4.7v7.8
			c0,0.7,0.1,1.3,0.2,1.7c0.1,0.4,0.4,0.5,0.8,0.5c0.5,0,1.1-0.2,1.8-0.6V37z M122.5,33.1v-4.8c-1.7,0.7-2.9,1.3-3.7,1.9
			c-0.8,0.6-1.2,1.3-1.2,2.2c0,0.7,0.2,1.2,0.6,1.6s0.8,0.5,1.4,0.5c0.5,0,1-0.1,1.5-0.4C121.5,33.8,122,33.5,122.5,33.1z"/>
		<path class="st6" d="M142.3,38h-7.2V10.4h7.2V38z"/>
		<circle class="st32" cx="53" cy="13.4" r="3.4"/>
		<g>
			<g>
				<rect x="51.7" y="2.5" transform="matrix(0.11 -0.9939 0.9939 0.11 44.6871 56.7171)" class="st6" width="4.6" height="1.9"/>
				<rect x="58.5" y="5" transform="matrix(0.7806 -0.625 0.625 0.7806 9.6003 39.3166)" class="st6" width="4.6" height="1.9"/>
				<rect x="45.9" y="2.1" transform="matrix(0.7806 -0.625 0.625 0.7806 7.4995 30.2369)" class="st6" width="1.9" height="4.6"/>
			</g>
		</g>
		<g>
			<g>
				<path class="st33" d="M96.3,53.5c-0.6,0.3-1.1,0.5-1.7,0.7c-0.6,0.2-1.2,0.3-1.8,0.4c-0.6,0.1-1.2,0.1-1.8,0.1
					c-1.2,0-2.2-0.1-3.2-0.5c-0.9-0.3-1.7-0.8-2.4-1.4c-0.7-0.6-1.2-1.4-1.6-2.2c-0.3-0.8-0.5-1.8-0.5-2.8c0-1.2,0.2-2.2,0.6-3.1
					c0.4-0.9,1-1.6,1.7-2.2c0.7-0.6,1.5-1,2.5-1.3c0.9-0.3,1.9-0.4,2.9-0.4c1.5,0,3.3,0.3,5.2,1l0,3.6c-0.7-0.4-1.3-0.8-2-1
					c-0.7-0.3-1.4-0.4-2.3-0.4c-0.8,0-1.5,0.2-2.2,0.5c-0.7,0.3-1.2,0.8-1.6,1.3c-0.4,0.6-0.6,1.3-0.6,2c0,0.7,0.2,1.3,0.6,1.9
					c0.4,0.6,0.9,1,1.5,1.3c0.6,0.3,1.4,0.5,2.2,0.5c0.7,0,1.3-0.1,1.9-0.3c0.6-0.2,1.1-0.3,1.5-0.5c0.4-0.2,0.8-0.4,1.2-0.7
					L96.3,53.5z"/>
				<path class="st33" d="M109.4,49.4c0,1-0.2,1.9-0.6,2.6c-0.4,0.8-1.1,1.4-1.9,1.8c-0.9,0.5-1.9,0.7-3.1,0.7
					c-1.2,0-2.3-0.2-3.1-0.6c-0.9-0.4-1.5-1-1.9-1.8c-0.4-0.8-0.7-1.6-0.7-2.6c0-0.7,0.1-1.4,0.3-2c0.2-0.6,0.6-1.2,1.1-1.6
					c0.5-0.5,1.1-0.8,1.8-1.1c0.7-0.3,1.5-0.4,2.5-0.4c0.9,0,1.8,0.1,2.5,0.4c0.7,0.3,1.3,0.6,1.8,1.1c0.5,0.5,0.8,1,1.1,1.6
					C109.2,48,109.3,48.7,109.4,49.4z M105.7,49.4c0-0.8-0.2-1.4-0.5-1.8c-0.3-0.4-0.8-0.7-1.5-0.7c-0.6,0-1.1,0.2-1.5,0.7
					c-0.3,0.4-0.5,1.1-0.5,1.9c0,0.8,0.2,1.4,0.5,1.8c0.3,0.5,0.8,0.7,1.5,0.7c0.6,0,1.1-0.2,1.5-0.7
					C105.5,50.9,105.7,50.2,105.7,49.4z"/>
				<path class="st33" d="M121.8,54.3l-3.5,0l0-5.4c0-0.5-0.1-1-0.3-1.4c-0.2-0.4-0.6-0.6-1.2-0.6c-0.3,0-0.5,0.1-0.8,0.2
					c-0.2,0.1-0.4,0.2-0.6,0.4c-0.2,0.2-0.3,0.3-0.4,0.5c-0.1,0.2-0.2,0.3-0.4,0.5l0.1,5.8l-3.5,0l-0.1-9.9l3.5,0l0,1.4
					c0.5-0.6,1.1-1,1.7-1.3c0.6-0.2,1.2-0.4,1.9-0.4c2.4,0,3.6,1.4,3.6,4.2L121.8,54.3z"/>
				<path class="st33" d="M131.7,51.3c0,0.9-0.3,1.7-1,2.2c-0.7,0.6-1.6,0.9-3,0.9c-0.7,0-1.4-0.1-2-0.2c-0.6-0.1-1.2-0.3-1.9-0.6
					l0-2.5c0.6,0.3,1.1,0.6,1.5,0.8c0.4,0.2,0.9,0.3,1.4,0.3c0.9,0,1.3-0.3,1.3-0.7c0-0.2-0.1-0.3-0.2-0.4c-0.1-0.1-0.4-0.3-0.7-0.4
					c-0.3-0.2-0.7-0.3-1.3-0.6c-0.7-0.3-1.2-0.7-1.7-1.1c-0.5-0.5-0.7-1.1-0.7-1.8c0-0.5,0.1-1,0.4-1.4c0.3-0.5,0.8-0.8,1.4-1.1
					c0.6-0.3,1.3-0.4,2.2-0.5c0.2,0,0.5,0,0.8,0c0.3,0,0.7,0.1,1.2,0.2c0.5,0.1,1,0.3,1.4,0.5l0,2.4c-0.2-0.1-0.4-0.2-0.5-0.3
					c-0.1-0.1-0.3-0.2-0.6-0.3c-0.2-0.1-0.5-0.2-0.8-0.3c-0.3-0.1-0.6-0.1-1-0.1c-0.4,0-0.7,0.1-0.8,0.2c-0.1,0.2-0.2,0.3-0.2,0.5
					c0,0.2,0.1,0.3,0.2,0.5c0.2,0.1,0.5,0.3,1,0.5c0.8,0.3,1.4,0.6,1.9,0.9c0.5,0.3,0.8,0.7,1,1C131.6,50.3,131.7,50.8,131.7,51.3z"
					/>
				<path class="st33" d="M144.5,49.1c0,1-0.2,1.9-0.6,2.6c-0.4,0.8-1.1,1.4-1.9,1.8c-0.9,0.5-1.9,0.7-3.1,0.7
					c-1.2,0-2.3-0.2-3.1-0.6c-0.9-0.4-1.5-1-1.9-1.8c-0.4-0.8-0.7-1.6-0.7-2.6c0-0.7,0.1-1.4,0.3-2c0.2-0.6,0.6-1.2,1.1-1.6
					c0.5-0.5,1.1-0.8,1.8-1.1c0.7-0.3,1.5-0.4,2.5-0.4c0.9,0,1.8,0.1,2.5,0.4c0.7,0.3,1.3,0.6,1.8,1.1c0.5,0.5,0.8,1,1.1,1.6
					C144.4,47.7,144.5,48.4,144.5,49.1z M140.8,49.1c0-0.8-0.2-1.4-0.5-1.8c-0.3-0.4-0.8-0.7-1.5-0.7c-0.6,0-1.1,0.2-1.5,0.7
					c-0.3,0.4-0.5,1.1-0.5,1.9c0,0.8,0.2,1.4,0.5,1.8c0.3,0.5,0.8,0.7,1.5,0.7c0.6,0,1.1-0.2,1.5-0.7
					C140.6,50.5,140.8,49.9,140.8,49.1z"/>
			</g>
		</g>
		<path class="st6" d="M60.2,18.2c1.1-1.7,2.3-4.5,1.8-7.3l-3.2,0.4c0.1,0.6,0.1,1.1,0.1,1.7c-0.3,3.6-3,6.4-6.2,6.3
			s-5.5-3.3-5.2-6.9c0.1-0.9,0.3-1.8,0.6-2.5L45,8.7c0,0-0.7,1.4-0.7,4.5c0,3.6,1.4,5.4,1.8,6.4c1.1,2.1,1.5,2.8,1.8,4.1
			c0.5,2.2,0,3.9-0.4,6.2c-0.5,2.8-0.1,6,1.3,8.4h3.6c-1.8-4.5-1.4-7.7-0.9-9.1c0.2-0.5,0.5-0.9,0.9-0.9c0.9,0,1.2,0.9,1.4,1.4
			c0.9,3.2,0.6,7,0,10.4h3.6c1.3-3.2,0.9-5.9,0.5-9.5c-0.4-3.3-0.9-5,0-8.2C58.5,20.5,59.3,19.6,60.2,18.2z"/>
	</g>
</g>
<g id="Calque_3">
</g>
</svg>
