<?xml version="1.0" encoding="UTF-8" standalone="no"?>
<!DOCTYPE svg PUBLIC "-//W3C//DTD SVG 1.1//EN" "http://www.w3.org/Graphics/SVG/1.1/DTD/svg11.dtd">
<svg width="100%" height="100%" viewBox="0 0 600 600" version="1.1" xmlns="http://www.w3.org/2000/svg"
     xml:space="preserve"
     style="fill-rule:evenodd;clip-rule:evenodd;stroke-linejoin:round;stroke-miterlimit:2;">
    <g transform="matrix(2.6482,0,0,2.36919,-109,-49.849)">
        <path d="M233.366,250.301C233.366,256.127 198.33,260.849 155.111,260.849C111.892,260.849 76.856,256.127 76.856,250.301C76.856,244.476 111.892,239.754 155.111,239.754C198.33,239.754 233.366,244.476 233.366,250.301Z" style="fill:rgb(0,98,120);fill-opacity:0.3;fill-rule:nonzero;"/>
    </g>
    <g transform="matrix(2.6482,0,0,2.36919,-109,-49.849)">
        <path d="M109.271,122.421C109.271,122.421 96.798,110.744 96.798,99.863C99.452,97.475 107.944,91.106 109.537,91.106C111.129,91.106 111.129,86.329 105.556,86.064C99.983,86.329 95.471,92.167 95.471,92.167C95.471,92.167 92.552,82.614 87.51,85.268C84.856,87.656 85.918,89.779 85.918,89.779C85.918,89.779 82.468,85.798 81.406,88.718C80.345,91.637 81.141,93.229 81.141,93.229C81.141,93.229 76.895,92.167 77.956,97.652C76.895,97.652 74.064,102.252 80.433,105.083C81.141,106.321 82.026,110.037 86.095,108.267C86.095,108.267 76.895,142.855 102.371,147.632C114.048,147.101 116.171,133.567 116.171,133.567L113.252,128.525L109.271,122.421Z" style="fill:rgb(249,174,129);fill-rule:nonzero;"/>
    </g>
    <g transform="matrix(2.6482,0,0,2.36919,-109,-49.849)">
        <path d="M102.373,147.628C103.248,147.588 104.064,147.467 104.835,147.292L106.87,140.728C85.371,146.567 86.097,108.268 86.097,108.268C86.097,108.268 76.894,142.853 102.373,147.628Z" style="fill:rgb(247,158,119);fill-rule:nonzero;"/>
    </g>
    <g transform="matrix(2.6482,0,0,2.36919,-109,-49.849)">
        <path d="M131.826,107.821C131.826,107.821 111.126,121.09 109.268,122.417C110.596,125.336 113.249,128.521 113.249,128.521L131.826,107.821Z" style="fill:rgb(205,210,216);fill-rule:nonzero;"/>
    </g>
    <g transform="matrix(2.6482,0,0,2.36919,-109,-49.849)">
        <path d="M168.957,206.279C168.957,206.279 182.757,227.51 189.657,243.963C191.779,244.494 198.149,243.433 198.149,243.433C198.149,243.433 191.78,202.564 192.31,196.726C185.941,198.318 168.957,206.279 168.957,206.279Z" style="fill:rgb(32,58,73);fill-rule:nonzero;"/>
    </g>
    <g transform="matrix(2.6482,0,0,2.36919,-109,-49.849)">
        <path d="M101.553,203.621C101.553,203.621 113.23,240.775 114.822,246.613C117.21,247.144 121.191,246.083 121.191,246.083C121.191,246.083 122.253,214.237 123.314,207.337C122.784,205.744 101.553,203.621 101.553,203.621Z" style="fill:rgb(32,58,73);fill-rule:nonzero;"/>
    </g>
    <g transform="matrix(2.6482,0,0,2.36919,-109,-49.849)">
        <path d="M135.272,105.168C135.272,105.168 83.434,136.748 97.588,207.87C100.418,210.701 110.68,216.717 117.403,217.778C118.818,212.117 120.233,206.809 120.233,206.809L126.603,220.609C126.603,220.609 163.401,228.04 193.124,199.025C190.647,186.287 187.462,147.011 199.847,118.349C199.139,115.873 192.417,103.488 180.032,97.119C172.247,99.596 135.272,105.168 135.272,105.168Z" style="fill:rgb(205,210,216);fill-rule:nonzero;"/>
    </g>
    <g transform="matrix(2.6482,0,0,2.36919,-109,-49.849)">
        <path d="M184.882,83.673C183.958,82.287 181.826,82.007 179.713,82.133C179.854,80.317 180.043,78.434 180.295,76.517C180.293,76.534 180.29,76.551 180.288,76.568C180.233,76.547 180.177,76.53 180.121,76.508C161.545,62.177 142.438,66.424 142.438,66.424C142.438,66.424 139.253,72.793 139.253,77.569C138.456,78.1 136.864,90.971 136.864,90.971C136.864,90.971 132.265,100.304 137.218,107.38C141.287,107.38 153.495,109.857 179.679,98.534C179.493,96.609 179.307,92.982 179.404,88.458C182.46,87.396 186.191,85.636 184.882,83.673Z" style="fill:rgb(249,174,129);fill-rule:nonzero;"/>
    </g>
    <g transform="matrix(2.6482,0,0,2.36919,-109,-49.849)">
        <path d="M116.06,245.727C116.06,245.727 105.798,252.097 100.844,253.158C100.49,254.927 103.675,255.635 107.921,254.22C112.168,252.804 119.245,247.143 119.245,245.728C119.245,244.312 116.06,245.727 116.06,245.727Z" style="fill:rgb(32,58,73);fill-rule:nonzero;"/>
    </g>
    <g transform="matrix(2.6482,0,0,2.36919,-109,-49.849)">
        <path d="M195.65,243.076C195.65,243.076 205.912,249.445 210.866,250.507C211.22,252.276 208.034,252.984 203.789,251.569C199.543,250.153 192.466,244.492 192.466,243.076C192.466,241.661 195.65,243.076 195.65,243.076Z" style="fill:rgb(32,58,73);fill-rule:nonzero;"/>
    </g>
    <g transform="matrix(2.6482,0,0,2.36919,-109,-49.849)">
        <path d="M174.534,147.098C174.534,147.098 181.169,159.571 185.415,179.74C185.415,179.74 179.608,213.533 128.02,220.963C132.339,222.731 173.208,222.997 193.126,199.025C191.784,181.332 190.723,159.748 191.431,154.086C187.185,152.671 174.534,147.098 174.534,147.098Z" style="fill:rgb(175,175,203);fill-rule:nonzero;"/>
    </g>
    <g transform="matrix(2.6482,0,0,2.36919,-109,-49.849)">
        <path d="M173.028,80.133C173.028,80.133 164.89,109.501 141.536,105.256C139.046,104.62 137.016,103.944 135.35,103.255C135.701,104.658 136.293,106.057 137.217,107.378C141.286,107.378 153.494,109.855 179.678,98.532C179.401,95.671 179.126,89.053 179.779,81.317L173.028,80.133Z" style="fill:rgb(244,151,114);fill-rule:nonzero;"/>
    </g>
    <g transform="matrix(2.6482,0,0,2.36919,-109,-49.849)">
        <path d="M171.883,69.076C171.883,69.076 171.618,81.814 170.556,85.795L176.925,85.795L179.314,82.345C179.314,82.345 187.275,81.284 186.214,78.099C185.152,74.915 180.293,76.567 180.293,76.567L171.883,69.076Z" style="fill:rgb(124,60,61);fill-rule:nonzero;"/>
    </g>
    <g transform="matrix(2.6482,0,0,2.36919,-109,-49.849)">
        <path d="M178.515,106.495L135.524,114.456L133.401,109.68C133.401,109.68 119.07,120.826 108.853,133.298C106.732,136.672 105.109,140.318 103.902,144.037C106.554,150.827 111.238,163.527 108.632,162.224C106.157,160.987 102.995,158.195 101.315,156.627C100.119,168.908 102.751,179.499 106.332,180.802C112.17,182.924 135.524,175.494 136.054,174.963C183.823,153.732 185.416,124.01 185.416,124.01L178.515,106.495Z" style="fill:rgb(246,230,215);fill-rule:nonzero;"/>
    </g>
    <g transform="matrix(2.6482,0,0,2.36919,-109,-49.849)">
        <path d="M205.862,125.601C205.862,125.601 213.011,164.612 189.658,167C165.774,167.531 173.382,141.17 171.258,138.516C166.658,140.64 205.862,125.601 205.862,125.601Z" style="fill:rgb(249,174,129);fill-rule:nonzero;"/>
    </g>
    <g transform="matrix(2.6482,0,0,2.36919,-109,-49.849)">
        <path d="M191.429,141.346C191.429,141.346 197.355,146.92 206.909,148.688C208.501,144.443 211.951,129.67 203.813,120.47C197.444,113.393 185.414,124.008 185.414,124.008L188.951,132.854L191.429,141.346Z" style="fill:rgb(205,210,216);fill-rule:nonzero;"/>
    </g>
    <g transform="matrix(2.6482,0,0,2.36919,-109,-49.849)">
        <path d="M188.952,132.858L191.43,141.349C191.43,141.349 191.844,141.709 192.648,142.264C195.477,134.164 205.052,124.807 205.052,124.807L187.328,128.795L188.952,132.858Z" style="fill:rgb(175,175,203);fill-rule:nonzero;"/>
    </g>
    <g transform="matrix(2.6482,0,0,2.36919,-109,-49.849)">
        <path d="M188.954,132.857C188.954,132.857 178.694,145.595 165.247,144.888C160.647,144.888 160.293,139.58 160.293,139.58L188.954,132.857Z" style="fill:rgb(247,158,119);fill-rule:nonzero;"/>
    </g>
    <g transform="matrix(2.6482,0,0,2.36919,-109,-49.849)">
        <path d="M170.688,86.989L174.005,86.856C174.005,86.856 168.299,96.543 164.318,97.074C166.309,94.685 170.688,86.989 170.688,86.989Z" style="fill:rgb(124,60,61);fill-rule:nonzero;"/>
    </g>
    <g transform="matrix(2.6482,0,0,2.36919,-109,-49.849)">
        <path d="M151.272,74.821C151.272,74.821 151.449,72.167 152.865,72.167C154.28,72.167 158.172,73.759 158.349,76.059C157.288,75.705 151.272,74.821 151.272,74.821Z" style="fill:rgb(124,60,61);fill-rule:nonzero;"/>
    </g>
    <g transform="matrix(2.6482,0,0,2.36919,-109,-49.849)">
        <path d="M142.56,71.999C142.56,71.999 142.693,73.459 142.427,74.122C142.162,74.785 139.375,75.184 139.375,75.184C139.375,75.184 139.906,72.663 142.56,71.999Z" style="fill:rgb(124,60,61);fill-rule:nonzero;"/>
    </g>
    <g transform="matrix(2.6482,0,0,2.36919,-109,-49.849)">
        <path d="M151.18,78.095C151.18,78.095 151.047,82.474 155.028,82.076C158.477,81.014 157.018,78.36 157.018,78.36L157.814,78.36C157.814,78.36 156.752,77.387 156.222,77.829C156.044,78.449 157.726,80.527 154.629,81.412C152.838,81.39 151.776,80.417 151.18,78.095Z" style="fill:rgb(124,60,61);fill-rule:nonzero;"/>
    </g>
    <g transform="matrix(2.6482,0,0,2.36919,-109,-49.849)">
        <path d="M141.96,77.104C141.96,77.104 141.562,79.559 139.903,79.426C138.576,79.227 139.373,76.705 139.373,76.705L138.311,77.037L138.908,77.236C138.908,77.236 138.576,79.824 139.903,79.824C141.23,79.824 142.225,78.762 141.96,77.104Z" style="fill:rgb(124,60,61);fill-rule:nonzero;"/>
    </g>
    <g transform="matrix(2.6482,0,0,2.36919,-109,-49.849)">
        <path d="M139.02,94.687C139.02,94.687 157.774,103.002 157.597,86.726L157.42,86.726L158.482,86.726C158.482,86.726 157.774,98.933 148.397,97.518C139.02,96.103 139.02,94.687 139.02,94.687Z" style="fill:rgb(222,112,92);fill-rule:nonzero;"/>
    </g>
    <g transform="matrix(2.6482,0,0,2.36919,-109,-49.849)">
        <path d="M157.419,83.534C157.419,83.534 154.367,84.198 156.623,86.321C158.879,88.444 161.931,86.852 161.002,85.127C160.073,83.402 157.419,83.534 157.419,83.534Z" style="fill:rgb(222,112,92);fill-rule:nonzero;"/>
    </g>
    <g transform="matrix(2.6482,0,0,2.36919,-109,-49.849)">
        <path d="M191.428,141.346C191.428,141.346 203.723,151.607 198.946,163.019C201.866,161.161 206.377,152.934 205.581,148.423C203.989,146.565 191.428,141.346 191.428,141.346Z" style="fill:rgb(247,158,119);fill-rule:nonzero;"/>
    </g>
    <g transform="matrix(2.6482,0,0,2.36919,-109,-49.849)">
        <path d="M135.351,103.258C135.351,103.258 131.983,105.259 135.521,114.459C145.782,113.751 189.128,103.571 189.128,103.571L184.875,100.041L179.574,96.811L179.679,98.536C179.679,98.536 154.22,108.89 137.298,107.229C136.662,106.079 135.351,103.258 135.351,103.258Z" style="fill:rgb(222,112,92);fill-rule:nonzero;"/>
    </g>
    <g transform="matrix(2.6482,0,0,2.36919,-109,-49.849)">
        <path d="M133.044,123.831C133.044,124.711 132.331,125.424 131.452,125.424C130.572,125.424 129.859,124.711 129.859,123.831C129.859,122.952 130.572,122.239 131.452,122.239C132.331,122.239 133.044,122.952 133.044,123.831Z" style="fill:rgb(83,88,102);fill-rule:nonzero;"/>
    </g>
    <g transform="matrix(2.6482,0,0,2.36919,-109,-49.849)">
        <path d="M125.088,143.293C125.088,144.172 124.375,144.885 123.495,144.885C122.616,144.885 121.903,144.172 121.903,143.293C121.903,142.413 122.616,141.7 123.495,141.7C124.375,141.7 125.088,142.413 125.088,143.293Z" style="fill:rgb(83,88,102);fill-rule:nonzero;"/>
    </g>
    <g transform="matrix(2.6482,0,0,2.36919,-109,-49.849)">
        <path d="M121.548,173.549C121.548,174.428 120.835,175.141 119.956,175.141C119.077,175.141 118.364,174.428 118.364,173.549C118.364,172.67 119.077,171.956 119.956,171.956C120.835,171.956 121.548,172.67 121.548,173.549Z" style="fill:rgb(83,88,102);fill-rule:nonzero;"/>
    </g>
    <g transform="matrix(2.6482,0,0,2.36919,-109,-49.849)">
        <path d="M135.519,114.46C145.78,113.752 189.126,103.572 189.126,103.572L184.873,100.042" style="fill:rgb(222,112,92);fill-rule:nonzero;"/>
    </g>
    <g transform="matrix(2.6482,0,0,2.36919,-109,-49.849)">
        <path d="M143.996,78.928C143.996,78.928 139.658,88.341 139.885,91.063C140.792,91.971 145.811,90.043 145.811,90.043C145.811,90.043 146.151,90.156 145.867,90.439C145.584,90.723 140.82,92.368 139.46,91.687C138.495,91.12 141.898,81.99 143.996,78.928Z" style="fill:rgb(222,112,92);fill-rule:nonzero;"/>
    </g>
    <g transform="matrix(2.6482,0,0,2.36919,-109,-49.849)">
        <path d="M135.519,146.298L216.548,127.898L202.394,127.898C202.394,127.898 193.902,106.313 167.364,110.559C147.549,113.39 144.718,140.636 144.718,140.636L135.519,146.298Z" style="fill:rgb(83,88,102);fill-rule:nonzero;"/>
    </g>
    <g transform="matrix(2.6482,0,0,2.36919,-109,-49.849)">
        <path d="M161.357,114.1C161.357,114.1 148.972,123.3 147.557,137.807C160.296,136.746 184.711,128.607 184.711,128.607L167.726,113.039C167.726,113.039 165.603,111.269 161.357,114.1Z" style="fill:rgb(110,118,126);fill-rule:nonzero;"/>
    </g>
    <g transform="matrix(2.6482,0,0,2.36919,-109,-49.849)">
        <path d="M164.11,114.159C164.11,114.159 153.567,120.562 151.179,128.523C156.752,128.523 171.348,118.439 171.348,118.439C171.348,118.439 167.029,112.833 164.11,114.159Z" style="fill:rgb(232,213,204);fill-rule:nonzero;"/>
    </g>
    <g transform="matrix(2.6482,0,0,2.36919,-109,-49.849)">
        <path d="M166.305,112.332L162.855,107.821L167.898,105.964L168.428,111.801L166.305,112.332Z" style="fill:rgb(83,88,102);fill-rule:nonzero;"/>
    </g>
    <g transform="matrix(2.6482,0,0,2.36919,-109,-49.849)">
        <path d="M142.438,66.42C142.438,66.42 168.034,66.225 171.777,78.473C173.138,72.349 171.879,69.074 171.879,69.074C171.879,69.074 154.269,60.491 142.438,66.42Z" style="fill:rgb(244,151,114);fill-rule:nonzero;"/>
    </g>
    <g transform="matrix(2.6482,0,0,2.36919,-109,-49.849)">
        <path d="M201.443,48.644C201.089,40.683 190.473,36.967 186.227,41.744C186.758,39.621 184.989,30.067 171.366,27.767C158.275,25.821 152.259,34.844 152.259,34.844C152.259,34.844 141.467,28.121 135.628,35.728C132.09,41.567 138.105,50.236 147.659,47.583C145.89,52.713 142.528,65.098 142.44,66.425C142.44,66.425 161.547,62.178 180.124,76.509C180.179,76.531 180.235,76.548 180.291,76.569C181.051,70.778 182.386,64.685 184.635,59.26C185.874,59.436 200.558,62.267 201.443,48.644Z" style="fill:rgb(246,231,215);fill-rule:nonzero;"/>
    </g>
    <g transform="matrix(2.6482,0,0,2.36919,-109,-49.849)">
        <path d="M188.248,50.415C187.231,51.331 185.628,52.099 183.861,52.73L188.248,50.415L185.771,46.523C185.771,46.523 190.371,33.784 177.633,29.892C177.633,29.892 185.771,34.846 182.233,41.215C178.694,47.584 165.602,50.769 156.403,46.169C152.864,43.692 152.157,39.092 152.157,39.092L151.98,36.969C151.98,36.969 140.48,49.707 134.818,40.861C136.588,46.169 140.336,50.415 147.661,47.584C148.867,47.809 150.694,48.465 152.907,49.231L153.218,58.553L155.62,50.146C159.975,51.558 165.254,52.934 170.202,52.538C171.749,53.225 173.042,54.329 173.966,55.283L167.294,69.235C171.435,70.846 175.793,73.168 180.126,76.51C180.182,76.532 180.237,76.55 180.293,76.571C180.964,71.467 182.082,66.129 183.877,61.219C184.007,60.633 184.141,60.091 184.283,59.615C184.352,59.626 184.42,59.634 184.489,59.644C184.54,59.518 184.585,59.387 184.638,59.261C185.776,59.423 198.268,61.818 200.967,51.624C200.978,51.459 200.986,51.292 200.986,51.123C198.509,57.138 190.371,53.953 188.248,50.415Z" style="fill:rgb(212,215,220);fill-rule:nonzero;"/>
    </g>
    <g transform="matrix(2.6482,0,0,2.36919,-109,-49.849)">
        <path d="M139.966,97.868C139.966,97.868 135.713,99.058 138.435,101.44C141.157,103.822 144.22,103.055 145.156,101.27C145.156,101.695 142.433,105.352 138.605,102.12C137.329,100.845 135.543,98.803 139.966,97.868Z" style="fill:rgb(244,151,114);fill-rule:nonzero;"/>
    </g>
</svg>
