<svg width="231" height="231" viewBox="0 0 231 231" fill="none" xmlns="http://www.w3.org/2000/svg">
<path opacity="0.1" d="M198.802 146.646C181.507 193.22 108.943 209.519 74.1942 196.784C39.4455 184.048 10.0028 143.017 27.2981 96.4432C44.5934 49.8693 69.7718 16.2031 136.826 28.1249C171.575 40.8605 216.098 100.072 198.802 146.646Z" fill="url(#paint0_linear)"/>
<g clip-path="url(#clip0)">
<path d="M153.782 125.557C153.782 128.154 151.664 130.26 149.05 130.26C146.436 130.26 144.318 128.154 144.318 125.557C144.318 122.961 146.436 120.855 149.05 120.855C151.664 120.855 153.782 122.961 153.782 125.557Z" fill="#ACABA7"/>
<path d="M141.816 129.689C141.816 131.957 139.967 133.8 137.685 133.8C135.403 133.8 133.554 131.957 133.554 129.689C133.554 127.429 135.403 125.586 137.685 125.586C139.967 125.586 141.816 127.429 141.816 129.689Z" fill="#ACABA7"/>
<path d="M182.398 83.7438C182.398 78.3148 177.97 73.915 172.507 73.915C172.37 73.915 172.234 73.9217 172.098 73.9284C172.362 73.1278 172.507 72.2735 172.507 71.3855C172.507 66.8983 168.843 63.2587 164.323 63.2587C162.074 63.2587 160.036 64.1601 158.556 65.62C158.227 63.4941 156.381 61.8594 154.145 61.8594C152.065 61.8594 150.322 63.2721 149.823 65.1827C148.335 63.1712 145.933 61.8594 143.222 61.8594C139.683 61.8594 136.669 64.0929 135.527 67.2144C134.609 66.9386 133.634 66.7838 132.623 66.7838C127.161 66.7838 122.732 71.1836 122.732 76.6126C122.732 78.4156 123.222 80.0975 124.073 81.5507C121.92 81.8668 120.269 83.7102 120.269 85.937C120.269 87.7063 121.313 89.2267 122.822 89.9398C121.235 91.6822 120.269 93.9965 120.269 96.5327C120.269 101.955 124.697 106.355 130.159 106.355C130.508 106.355 130.851 106.341 131.189 106.301C131.113 106.752 131.072 107.209 131.072 107.673C131.072 112.167 134.735 115.807 139.255 115.807C141.609 115.807 143.728 114.818 145.221 113.237C145.216 113.324 145.208 113.412 145.208 113.499C145.208 115.948 147.209 117.939 149.676 117.939C152.145 117.939 154.145 115.948 154.145 113.499C154.145 113.439 154.138 113.378 154.136 113.318H154.173C154.313 115.639 156.251 117.489 158.627 117.489C161.096 117.489 163.097 115.497 163.097 113.049C163.097 112.356 162.934 111.71 162.652 111.125C164.028 112.167 165.747 112.793 167.612 112.793C172.132 112.793 175.796 109.153 175.796 104.659C175.796 103.173 175.39 101.773 174.687 100.576C174.789 100.583 174.891 100.589 174.996 100.589C177.463 100.589 179.464 98.6047 179.464 96.1492C179.464 94.5346 178.589 93.1218 177.286 92.3482C180.334 90.673 182.398 87.4439 182.398 83.7438Z" fill="#ACABA7"/>
<path d="M77.7732 85.1379C77.1922 84.5526 77.0134 83.6781 77.2849 82.8977L77.851 81.2831C77.9804 80.8189 78.3786 79.6752 79.3876 78.5181C80.4623 77.2803 82.4681 75.78 85.9176 75.6185C88.8573 75.484 89.485 73.2101 89.5879 72.7056C89.6143 72.5172 89.6502 72.4297 89.7295 72.201C90.3694 70.3846 89.8398 68.3461 88.3616 67.0948C85.4585 64.646 81.3995 66.0387 80.3735 69.2544C80.1331 70.0079 79.4736 70.573 78.686 70.6941C76.6416 71.0035 75.3367 69.1871 75.9035 67.5658C77.656 62.5538 83.1865 59.8964 88.2309 61.6389C93.2149 63.3544 95.8884 68.7431 94.2612 73.7012C93.7878 76.0155 91.5633 80.1125 86.1391 80.3614C83.0078 80.5027 82.4728 82.4738 82.4687 82.494C82.4491 82.5814 82.4241 82.6689 82.3949 82.7564L81.843 84.3306C81.2844 85.9318 79.1817 86.5574 77.7732 85.1379Z" fill="#ACABA7"/>
<path d="M80.3222 89.776C79.8455 91.1416 78.3475 91.8615 76.9763 91.3906C75.605 90.9129 74.8797 89.4261 75.3564 88.0672C75.8325 86.7015 77.3304 85.9816 78.7017 86.4526C80.0737 86.9302 80.7989 88.417 80.3222 89.776Z" fill="#ACABA7"/>
<path d="M57.9702 95.7463C56.8779 95.9482 55.7687 95.4839 55.1043 94.6026L53.7222 92.7593C53.3024 92.2682 52.3211 90.9698 51.7862 88.9852C51.216 86.8661 51.044 83.5225 53.4629 79.6004C55.5235 76.2569 53.4534 73.8484 52.9658 73.3573C52.7796 73.1892 52.7051 73.0815 52.5128 72.8258C50.9614 70.7471 48.2818 69.7985 45.7755 70.4914C40.8531 71.8504 39.3538 77.3736 42.177 80.9257C42.8393 81.7599 42.97 82.9103 42.5129 83.8656C41.3244 86.3615 38.311 86.4288 36.9254 84.5854C32.6436 78.8805 33.8307 70.7807 39.5739 66.5222C45.248 62.3176 53.2773 63.4209 57.5998 68.9508C59.8277 71.218 62.7321 76.748 58.9297 82.9238C56.7343 86.4893 58.5363 88.5614 58.5546 88.5816C58.6372 88.669 58.7144 88.7565 58.7862 88.8574L60.1345 90.6536C61.4996 92.47 60.6173 95.262 57.9702 95.7463Z" fill="#ACABA7"/>
<path d="M65.0363 96.4287C66.2004 97.976 65.8787 100.169 64.3172 101.326C62.7563 102.483 60.5473 102.167 59.3832 100.613C58.2192 99.0658 58.5408 96.8659 60.1017 95.7088C61.6626 94.5517 63.8723 94.8746 65.0363 96.4287Z" fill="#ACABA7"/>
<path d="M76.4907 109.369C76.4907 113.103 79.5367 116.123 83.295 116.123C87.0527 116.123 90.0993 113.103 90.0993 109.369C90.0993 105.635 87.0527 102.608 83.295 102.608C79.5367 102.608 76.4907 105.635 76.4907 109.369Z" fill="#383A45"/>
<path d="M107.343 109.369C107.343 113.103 110.39 116.123 114.148 116.123C117.906 116.123 120.953 113.103 120.953 109.369C120.953 105.635 117.906 102.608 114.148 102.608C110.39 102.608 107.343 105.635 107.343 109.369Z" fill="#383A45"/>
<path d="M68.039 191.516C68.039 191.516 61.2347 160.718 80.1355 155.087C99.0363 149.456 96.4928 138.578 86.9398 126.24C69.8884 104.214 102.617 81.5762 109.999 95.3743C125.033 123.488 110.606 125.311 107.33 134.824C103.384 146.281 106.011 149.066 118.347 153.062C136.356 158.895 132.464 191.516 132.464 191.516H68.039Z" fill="#F6BC9F"/>
<path d="M91.2811 149.226C91.2811 149.226 91.1132 161.214 100.718 159.882C108.724 158.765 108.933 148.802 108.933 148.802C108.933 148.802 118.847 151.95 122.557 153.928C126.266 155.913 144.748 165.304 136.484 191.535H68.0355C68.0355 191.535 62.2097 177.582 68.0355 165.056C74.5988 150.941 87.5803 152.267 91.2811 149.226Z" fill="#FFFAEF"/>
<path d="M85.0542 165.101C85.0542 165.101 95.4123 200.965 125.941 177.137V215.315H85.856L85.0542 165.101Z" fill="#D6ECE1"/>
<path d="M84.3951 117.304C85.0249 120.096 85.0208 123.944 82.7943 123.944C80.567 123.944 76.3306 119.518 76.3306 117.304C76.3306 115.091 78.1353 113.302 80.3625 113.302C82.5891 113.302 83.9069 115.145 84.3951 117.304Z" fill="#F6BC9F"/>
<path d="M114.507 117.311C113.876 120.096 113.88 123.944 116.108 123.944C118.335 123.944 122.571 119.524 122.571 117.311C122.571 115.098 120.766 113.302 118.539 113.302C116.312 113.302 114.994 115.152 114.507 117.311Z" fill="#F6BC9F"/>
<path d="M94.2205 143.163C94.2205 143.163 101.884 145.517 105.899 139.846C105.899 139.846 107.09 134.31 107.426 133.644C107.762 132.977 107.09 134.31 107.09 134.31H91.2964C91.2964 134.31 94.6241 138.158 94.2205 143.163Z" fill="#E9946F"/>
<path d="M85.9133 104.263C85.9133 104.263 82.0913 122.669 88.3071 128.172C94.5236 133.682 93.9893 121.667 100.405 121.418C104.773 121.249 106.683 132.525 113.21 125.447C117.48 120.819 113.112 102.608 113.112 102.608L116.783 105.016C116.783 105.016 121.161 137.079 100.661 138.552C79.7536 140.053 80.2453 108.07 82.0439 104.39C82.0439 104.39 84.4011 102.594 85.9133 104.263Z" fill="#383A45"/>
<path d="M93.9537 113.926C93.9537 114.706 93.3138 115.345 92.5255 115.345C91.7366 115.345 91.0967 114.706 91.0967 113.926C91.0967 113.139 91.7366 112.506 92.5255 112.506C93.3138 112.506 93.9537 113.139 93.9537 113.926Z" fill="#383A45"/>
<path d="M110.36 113.29C110.36 114.077 109.72 114.709 108.932 114.709C108.143 114.709 107.503 114.077 107.503 113.29C107.503 112.509 108.143 111.87 108.932 111.87C109.72 111.87 110.36 112.509 110.36 113.29Z" fill="#383A45"/>
<path d="M100.613 121.377C100.574 121.377 100.535 121.37 100.496 121.363C99.3007 121.107 98.6567 118.477 98.5396 117.952L99.2946 117.784C99.5526 118.941 100.075 120.219 100.512 120.536C100.761 119.681 100.472 116.015 100.027 112.853L100.794 112.745C101.195 115.611 101.755 120.515 100.993 121.222C100.887 121.323 100.752 121.377 100.613 121.377Z" fill="#383A45"/>
<path d="M91.768 120.633C91.768 121.736 90.866 122.631 89.752 122.631C88.638 122.631 87.7354 121.736 87.7354 120.633C87.7354 119.523 88.638 118.628 89.752 118.628C90.866 118.628 91.768 119.523 91.768 120.633Z" fill="#E9946F"/>
<path d="M112.136 120.633C112.136 121.736 111.233 122.631 110.12 122.631C109.006 122.631 108.103 121.736 108.103 120.633C108.103 119.523 109.006 118.628 110.12 118.628C111.233 118.628 112.136 119.523 112.136 120.633Z" fill="#E9946F"/>
<path d="M80.909 121.567C80.6923 118.217 79.9718 117.551 79.6718 117.416C79.3826 117.288 79.1125 117.497 79.1003 117.503L78.6113 116.905C78.845 116.716 79.3935 116.454 79.9731 116.703C80.9402 117.12 81.4982 118.694 81.681 121.513L80.909 121.567Z" fill="#383A45"/>
<path d="M117.52 121.567L116.747 121.513C116.93 118.694 117.489 117.12 118.456 116.703C119.033 116.454 119.583 116.716 119.816 116.905L119.327 117.503C119.316 117.497 119.044 117.288 118.756 117.416C118.456 117.551 117.736 118.217 117.52 121.567Z" fill="#383A45"/>
<path d="M85.8945 104.287C85.8945 104.287 90.7919 99.1609 95.6067 99.9951C100.421 100.829 101.984 108.943 113.868 106.393C113.868 106.393 106.921 103.762 103.001 100.661C99.082 97.5664 94.9186 89.5473 85.8945 104.287Z" fill="#E9946F"/>
<path d="M85.9123 104.296C85.9123 104.296 91.583 94.7833 96.6233 96.2835C101.664 97.7837 109.519 109.308 116.113 105.736C116.113 105.736 115.654 87.6051 98.6426 88.3585C81.6312 89.1053 81.0996 110.176 85.9123 104.296Z" fill="#383A45"/>
<path d="M99.818 163.602C89.0136 163.602 87.8258 152.367 87.8149 152.253L88.1996 152.219C88.2104 152.334 89.3934 163.434 100.109 163.212C110.832 163.01 111.921 150.719 111.931 150.591L112.317 150.625C112.307 150.753 111.193 163.387 100.117 163.595C100.016 163.595 99.9168 163.602 99.818 163.602Z" fill="#D6ECE1"/>
<path d="M78.2643 112.065L78.2515 111.681C78.2765 111.681 80.8098 111.567 82.3972 109.656C83.5626 108.25 83.9459 106.232 83.5348 103.662L83.9168 103.602C84.3461 106.293 83.9344 108.412 82.6931 109.905C80.9913 111.95 78.3754 112.058 78.2643 112.065Z" fill="#547984"/>
<path d="M76.4934 109.557L76.4907 109.174C76.507 109.174 78.1701 109.153 79.8089 108.326C81.9833 107.229 83.0926 105.305 83.1034 102.608H83.49C83.4623 109.429 76.5632 109.557 76.4934 109.557Z" fill="#547984"/>
<path d="M118.157 110.947C117.978 110.947 117.804 110.92 117.636 110.86C115.445 110.073 115.157 104.341 115.146 104.092L115.532 104.079C115.535 104.132 115.818 109.797 117.767 110.497C118.449 110.739 119.292 110.322 120.275 109.245L120.561 109.508C119.681 110.463 118.875 110.947 118.157 110.947Z" fill="#547984"/>
<path d="M96.1051 110.47C96.1051 110.47 94.8259 111.378 93.1675 111.607C91.5084 111.836 86.6835 111.661 86.2095 111.728C85.7355 111.795 90.1053 107.275 96.1051 110.47Z" fill="#383A45"/>
<path d="M103.941 108.844C103.941 108.844 108.497 105.332 110.382 106.381C112.412 107.518 112.238 108.844 112.238 108.844C112.238 108.844 109.354 108.104 108.989 108.258C107.348 108.978 105.339 109.94 103.941 108.844Z" fill="#383A45"/>
<path d="M105.087 131.336C105.087 131.336 102.675 122.947 99.9446 123.505C97.2142 124.057 95.0391 130.017 95.8822 132.655C96.7253 135.285 105.214 135.359 105.087 131.336Z" fill="#F6BC9F"/>
<path d="M97.7161 128.819L97.1392 128.308C97.234 128.2 99.4768 125.751 101.456 125.785C102.113 125.798 102.667 126.081 103.102 126.612L102.5 127.097C102.211 126.74 101.863 126.565 101.437 126.552H101.398C100.055 126.552 98.289 128.186 97.7161 128.819Z" fill="#383A45"/>
<path d="M101.896 128.939C100.531 128.495 99.4451 128.926 99.4342 128.932L99.1396 128.219C99.1952 128.199 100.505 127.674 102.138 128.213L101.896 128.939Z" fill="#383A45"/>
<path d="M90.0962 91.1673C90.0962 91.1673 94.227 88.4898 98.4147 91.5374C102.601 94.5916 110.76 106.6 115.124 100.209C115.124 100.209 113.138 92.2976 106.997 90.0775C100.857 87.8642 96.2917 87.7498 90.0962 91.1673Z" fill="#4B6D79" fill-opacity="0.03"/>
<path d="M112.659 105.718C111.184 105.718 109.506 103.949 107.413 101.735C105.357 99.5625 102.798 96.8648 99.7299 95.1897C92.182 91.0657 85.3811 103.101 85.3134 103.222L84.9741 103.034C85.0445 102.913 92.0317 90.541 99.9161 94.8533C103.037 96.5553 105.619 99.2799 107.694 101.473C109.84 103.74 111.527 105.53 112.873 105.321C113.513 105.22 114.076 104.642 114.591 103.565L114.94 103.733C114.366 104.931 113.71 105.577 112.932 105.698C112.842 105.711 112.751 105.718 112.659 105.718Z" fill="#547984"/>
<path d="M112.82 103.853C111.155 103.853 110.064 102.367 108.476 100.207C107.048 98.2562 105.269 95.8343 102.294 93.2913C99.8904 91.2327 97.4478 90.4792 95.0323 91.0578C88.7292 92.5647 84.5333 102.616 84.4914 102.716L84.1338 102.568C84.1439 102.542 85.2125 99.9649 87.0612 97.2268C88.7765 94.6906 91.5354 91.495 94.9409 90.681C97.4851 90.0756 100.043 90.856 102.547 93.002C105.556 95.5719 107.349 98.014 108.79 99.9784C111.079 103.093 112.125 104.519 115.243 102.589L115.448 102.918C114.4 103.564 113.554 103.853 112.82 103.853Z" fill="#547984"/>
<path d="M114.519 101.799H114.431C113.401 101.745 111.584 100.716 108.78 96.1213C104.006 88.2838 97.2541 89.4477 95.9485 89.7571L95.8584 89.3871C97.2087 89.0642 104.197 87.8599 109.111 95.9194C111.957 100.588 113.668 101.362 114.435 101.409C114.958 101.443 115.195 101.16 115.205 101.147L115.512 101.382C115.499 101.396 115.186 101.799 114.519 101.799Z" fill="#547984"/>
<path d="M89.2797 101.643C89.2797 101.643 85.9365 104.408 85.9142 110.005C85.8918 115.609 86.2304 129.918 92.5505 129.003C92.5505 129.003 90.4384 131.533 87.5895 127.106C84.7406 122.68 83.0057 114.412 85.9142 104.3C85.9142 104.3 88.585 100.889 89.2797 101.643Z" fill="#E9946F"/>
<path d="M114.4 150.631C114.4 150.631 113.39 209.987 113.88 215.315H134.033C134.033 215.315 140.522 177.345 138.347 168.304C135.298 155.629 114.4 150.631 114.4 150.631Z" fill="#383A45"/>
<path d="M86.9619 151.068C86.9619 151.068 90.5814 209.994 90.0912 215.322H70.1441C70.1441 215.322 60.839 177.352 63.0148 168.31C66.0628 155.636 86.9619 151.068 86.9619 151.068Z" fill="#383A45"/>
<path d="M67.4468 201.066L67.4935 200.406C67.4996 200.326 68.1984 191.957 78.1422 186.608L78.3263 186.952C70.211 191.311 68.3725 197.689 67.9797 199.761C71.1862 196.141 81.0371 189.952 81.4766 189.676L81.6825 189.999C81.5701 190.073 70.3898 197.097 67.8422 200.534L67.4468 201.066Z" fill="#547984"/>
<path d="M85.9716 191.061C81.0146 180.586 78.0811 167.622 78.0513 167.494L78.4291 167.407C78.4582 167.535 81.3823 180.458 86.3217 190.893L85.9716 191.061Z" fill="#547984"/>
<path d="M120.382 194.775C120.382 194.775 90.6895 210.947 79.8763 211.741C69.063 212.535 67.687 200.426 67.687 200.426C67.687 200.426 81.1365 193.739 88.1893 190.691C88.1893 190.691 104.079 186.184 121.775 186.782C121.775 186.782 123.989 191.794 120.382 194.775Z" fill="#F6BC9F"/>
<path d="M80.4085 194.251C80.4085 194.251 70.5115 198.664 71.0411 203.05C71.5713 207.443 74.3999 212.058 82.8782 209.71C91.3558 207.363 115.341 193.827 121.456 193.605L121.775 194.782C121.775 194.782 108.581 201.025 102.596 203.703C96.6114 206.38 72.6291 223.912 67.687 200.42C67.687 200.42 69.8147 199.505 80.4085 194.251Z" fill="#E9946F"/>
<path d="M128.485 145.441C128.485 145.441 120.887 132.316 117.382 130.869C113.877 129.423 105.782 132.424 105.782 132.424L106.849 135.108C106.849 135.108 117.192 130.055 119.054 137.812C119.054 137.812 113.168 136.413 110.623 139.225C107.971 142.151 108.145 146.686 108.145 146.686L111.272 147.318C111.272 147.318 110.123 140.234 117.134 139.972C117.134 139.972 111.198 140.651 112.698 148.495L115.471 149.276C115.471 149.276 114.564 141.324 119.405 141.573C119.405 141.573 114.269 142.925 117.033 149.404L119.599 149.175C119.599 149.175 117.468 144.425 120.305 143.605C120.305 143.605 119.928 149.175 123.785 152.451C123.785 152.451 122.134 167.245 121.376 176.657C120.438 188.275 115.219 218.555 138.487 205.49C138.487 205.49 135.091 156.145 128.485 145.441Z" fill="#F6BC9F"/>
<path d="M107.198 134.581L107.021 134.238C107.893 133.794 108.866 133.189 109.011 132.953C108.797 132.832 107.586 132.751 106.549 132.772L106.543 132.388C108.324 132.354 109.285 132.509 109.397 132.846C109.44 132.973 109.572 133.364 107.198 134.581Z" fill="#383A45"/>
<path d="M112.77 130.833L112.974 132.831L112.59 132.872L112.385 130.874L112.77 130.833Z" fill="#383A45"/>
<path d="M113.612 130.833L113.776 133.033L113.389 133.06L113.226 130.86L113.612 130.833Z" fill="#383A45"/>
<path d="M114.353 130.833L114.738 130.874L114.532 132.872L114.146 132.831L114.353 130.833Z" fill="#383A45"/>
<path d="M110.691 146.545L110.305 146.538C110.335 145.515 110.237 143.786 109.844 143.47C109.61 143.504 109.177 144.715 108.924 146.006L108.543 145.932C108.663 145.327 109.1 143.322 109.697 143.1C109.829 143.053 109.968 143.08 110.085 143.174C110.743 143.692 110.705 146.074 110.691 146.545Z" fill="#383A45"/>
<path d="M114.728 148.318L114.341 148.311C114.356 147.43 114.203 146.085 113.824 145.97C113.788 145.963 113.765 145.963 113.735 145.984C113.469 146.179 113.316 147.181 113.292 147.834L112.905 147.82C112.916 147.524 112.995 146.044 113.509 145.674C113.637 145.587 113.783 145.56 113.932 145.6C114.732 145.836 114.735 147.908 114.728 148.318Z" fill="#383A45"/>
<path d="M117.248 148.893C117.191 147.904 117.224 146.693 117.708 146.586C117.977 146.525 118.322 146.7 119.006 148.362L118.647 148.51C118.056 147.07 117.804 146.969 117.777 146.962C117.662 147.063 117.582 147.958 117.634 148.873L117.248 148.893Z" fill="#383A45"/>
<path d="M112.949 140.35C112.74 139.913 112.111 139.112 112.105 139.106L112.41 138.864C112.436 138.897 113.071 139.704 113.3 140.189L112.949 140.35Z" fill="#383A45"/>
<path d="M112.263 140.614C112.224 140.439 111.714 139.901 111.265 139.51L111.52 139.221C111.761 139.43 112.555 140.15 112.641 140.533L112.263 140.614Z" fill="#383A45"/>
<path d="M115.871 142.441C115.429 142.219 114.437 141.983 114.426 141.983L114.516 141.607C114.558 141.62 115.561 141.856 116.042 142.091L115.871 142.441Z" fill="#383A45"/>
<path d="M115.501 143.074C115.358 142.959 114.623 142.858 114.026 142.825L114.045 142.441C114.366 142.462 115.437 142.529 115.745 142.778L115.501 143.074Z" fill="#383A45"/>
<path d="M118.769 143.903C118.365 143.735 117.437 143.58 117.427 143.58L117.49 143.197C117.53 143.203 118.474 143.358 118.92 143.553L118.769 143.903Z" fill="#383A45"/>
<path d="M118.409 144.465C118.289 144.378 117.602 144.331 117.034 144.344L117.027 143.954C117.333 143.947 118.357 143.947 118.643 144.163L118.409 144.465Z" fill="#383A45"/>
<path d="M123.307 156.554C123.307 156.554 118.851 198.049 124.925 203.263C130.998 208.476 138.291 203.263 138.291 203.263L138.456 205.489C138.456 205.489 125.171 215.877 121.195 201.87C118.139 191.106 123.307 156.554 123.307 156.554Z" fill="#E9946F"/>
<path d="M127.576 128.465C127.576 130.052 126.281 131.337 124.683 131.337C123.085 131.337 121.789 130.052 121.789 128.465C121.789 126.877 123.085 125.585 124.683 125.585C126.281 125.585 127.576 126.877 127.576 128.465Z" fill="#ACABA7"/>
<path d="M163.451 69.0208L162.692 68.2404L161.934 69.0208L161.175 68.2404L160.416 69.0208L159.658 68.2404L158.899 69.0208L158.14 68.2404L157.381 69.0208L156.623 68.2404L155.863 69.0208L155.105 68.2404L154.346 69.0208L153.587 68.2404L152.829 69.0208L152.07 68.2404L151.311 69.0208L150.552 68.2404L149.794 69.0208L149.035 68.2404L148.276 69.0208L147.518 68.2404L146.759 69.0208L146 68.2404L145.241 69.0208L144.483 68.2404L143.724 69.0208L142.965 68.2404L142.207 69.0208L141.448 68.2404L140.689 69.0208L139.93 68.2404L139.172 69.0208L138.436 68.2202V106.573L139.172 107.3L139.93 106.547L140.689 107.3L141.448 106.547L142.207 107.3L142.965 106.547L143.724 107.3L144.483 106.547L145.241 107.3L146 106.547L146.759 107.3L147.518 106.547L148.276 107.3L149.035 106.547L149.794 107.3L150.552 106.547L151.311 107.3L152.07 106.547L152.829 107.3L153.587 106.547L154.346 107.3L155.105 106.547L155.863 107.3L156.623 106.547L157.381 107.3L158.14 106.547L158.899 107.3L159.658 106.547L160.416 107.3L161.175 106.547L161.934 107.3L162.692 106.547L163.451 107.3L164.187 106.573V68.2202L163.451 69.0208Z" fill="white"/>
<path d="M140.55 97.4397H140.196V100.998H140.55V97.4397Z" fill="#253D7A"/>
<path d="M141.879 97.4397H140.757V100.998H141.879V97.4397Z" fill="#253D7A"/>
<path d="M142.431 97.4397H142.077V100.998H142.431V97.4397Z" fill="#253D7A"/>
<path d="M144.352 97.4397H143.998V100.998H144.352V97.4397Z" fill="#253D7A"/>
<path d="M145.296 97.4397H145.118V100.998H145.296V97.4397Z" fill="#253D7A"/>
<path d="M145.656 97.4397H145.479V100.998H145.656V97.4397Z" fill="#253D7A"/>
<path d="M146.056 97.4397H145.879V100.998H146.056V97.4397Z" fill="#253D7A"/>
<path d="M147.377 97.4397H147.199V100.998H147.377V97.4397Z" fill="#253D7A"/>
<path d="M144.913 97.4397H144.558V100.998H144.913V97.4397Z" fill="#253D7A"/>
<path d="M147.954 97.4397H147.6V100.998H147.954V97.4397Z" fill="#253D7A"/>
<path d="M147.017 97.4397H146.279V100.998H147.017V97.4397Z" fill="#253D7A"/>
<path d="M143.76 97.4397H142.638V100.998H143.76V97.4397Z" fill="#253D7A"/>
<path d="M149.282 97.4397H148.16V100.998H149.282V97.4397Z" fill="#253D7A"/>
<path d="M158.598 97.4397H158.244V100.998H158.598V97.4397Z" fill="#253D7A"/>
<path d="M158.045 97.4397H156.923V100.998H158.045V97.4397Z" fill="#253D7A"/>
<path d="M162.407 97.4397H161.285V100.998H162.407V97.4397Z" fill="#253D7A"/>
<path d="M156.717 97.4397H156.363V100.998H156.717V97.4397Z" fill="#253D7A"/>
<path d="M159.719 97.4397H159.364V100.998H159.719V97.4397Z" fill="#253D7A"/>
<path d="M154.797 97.4397H154.442V100.998H154.797V97.4397Z" fill="#253D7A"/>
<path d="M160.279 97.4397H159.925V100.998H160.279V97.4397Z" fill="#253D7A"/>
<path d="M153.699 97.4397H153.522V100.998H153.699V97.4397Z" fill="#253D7A"/>
<path d="M160.662 97.4397H160.485V100.998H160.662V97.4397Z" fill="#253D7A"/>
<path d="M153.299 97.4397H153.122V100.998H153.299V97.4397Z" fill="#253D7A"/>
<path d="M161.062 97.4397H160.885V100.998H161.062V97.4397Z" fill="#253D7A"/>
<path d="M152.899 97.4397H152.722V100.998H152.899V97.4397Z" fill="#253D7A"/>
<path d="M151.578 97.4397H151.401V100.998H151.578V97.4397Z" fill="#253D7A"/>
<path d="M154.236 97.4397H153.882V100.998H154.236V97.4397Z" fill="#253D7A"/>
<path d="M159.158 97.4397H158.804V100.998H159.158V97.4397Z" fill="#253D7A"/>
<path d="M151.195 97.4397H150.841V100.998H151.195V97.4397Z" fill="#253D7A"/>
<path d="M152.539 97.4397H151.801V100.998H152.539V97.4397Z" fill="#253D7A"/>
<path d="M156.125 97.4397H155.002V100.998H156.125V97.4397Z" fill="#253D7A"/>
<path d="M150.642 97.4397H149.52V100.998H150.642V97.4397Z" fill="#253D7A"/>
<path d="M162.775 76.5288H139.836V76.7172H162.775V76.5288Z" fill="#253D7A"/>
<path d="M162.775 96.406H139.836V96.5877H162.775V96.406Z" fill="#253D7A"/>
<path d="M162.775 90.0454H139.836V90.2271H162.775V90.0454Z" fill="#253D7A"/>
<path d="M162.745 85.6724H158.644V86.2105H162.745V85.6724Z" fill="#253D7A"/>
<path d="M162.745 83.446H158.644V83.9843H162.745V83.446Z" fill="#253D7A"/>
<path d="M162.745 81.2197H158.644V81.7579H162.745V81.2197Z" fill="#253D7A"/>
<path d="M162.745 78.9539H158.644V79.4854H162.745V78.9539Z" fill="#253D7A"/>
<path d="M148.221 85.6724H139.876V86.2105H148.221V85.6724Z" fill="#253D7A"/>
<path d="M148.221 83.446H139.876V83.9843H148.221V83.446Z" fill="#253D7A"/>
<path d="M148.221 81.2197H139.876V81.7579H148.221V81.2197Z" fill="#253D7A"/>
<path d="M148.221 78.9539H139.876V79.4854H148.221V78.9539Z" fill="#253D7A"/>
<path d="M140.569 94.639V92.7621H140.276V92.2373H140.569V91.4368H141.168V92.2373H141.529V92.7621H141.168V94.639H140.569Z" fill="#253D7A"/>
<path d="M143.058 92.1921C143.295 92.1921 143.515 92.246 143.718 92.3603C143.92 92.4747 144.081 92.6227 144.198 92.8177C144.315 93.0128 144.374 93.2214 144.374 93.4502C144.374 93.6789 144.314 93.8875 144.196 94.0759C144.078 94.271 143.918 94.4189 143.714 94.5333C143.509 94.6477 143.288 94.7015 143.049 94.7015C142.808 94.7015 142.585 94.6477 142.379 94.5333C142.175 94.4189 142.013 94.271 141.895 94.0759C141.776 93.8875 141.717 93.6789 141.717 93.4502C141.717 93.2753 141.751 93.1138 141.82 92.9591C141.89 92.8043 141.985 92.6698 142.104 92.5554C142.225 92.4478 142.368 92.3536 142.533 92.2931C142.699 92.2258 142.874 92.1921 143.058 92.1921ZM143.033 92.7169C142.84 92.7169 142.672 92.7909 142.531 92.9321C142.392 93.0801 142.322 93.2483 142.322 93.4434C142.322 93.6453 142.393 93.8202 142.533 93.9615C142.674 94.1027 142.844 94.17 143.042 94.17C143.242 94.17 143.412 94.1027 143.555 93.9615C143.698 93.8202 143.769 93.652 143.769 93.4502C143.769 93.2416 143.698 93.0734 143.555 92.9321C143.412 92.7909 143.238 92.7169 143.033 92.7169Z" fill="#253D7A"/>
<path d="M144.811 94.639V92.7621H144.518V92.2373H144.811V91.4368H145.409V92.2373H145.771V92.7621H145.409V94.639H144.811Z" fill="#253D7A"/>
<path d="M148.557 92.2459V94.6477H148.008V94.3314C147.888 94.466 147.763 94.5602 147.634 94.614C147.506 94.6746 147.355 94.7015 147.178 94.7015C146.937 94.7015 146.721 94.6477 146.528 94.54C146.337 94.4391 146.188 94.2844 146.079 94.096C145.972 93.9076 145.919 93.6924 145.919 93.4569C145.919 93.2147 145.973 92.9995 146.081 92.8044C146.19 92.6093 146.342 92.4612 146.535 92.3536C146.729 92.246 146.948 92.1921 147.191 92.1921C147.372 92.1921 147.527 92.2191 147.658 92.2796C147.789 92.3401 147.905 92.4343 148.008 92.5688V92.2459H148.557ZM147.244 92.7169C147.036 92.7169 146.863 92.7909 146.727 92.9321C146.591 93.0734 146.524 93.2484 146.524 93.4704C146.524 93.6789 146.592 93.8471 146.729 93.9817C146.867 94.1095 147.045 94.17 147.264 94.17C147.481 94.17 147.656 94.1095 147.788 93.9749C147.921 93.8404 147.988 93.6655 147.988 93.4569C147.988 93.2349 147.919 93.06 147.779 92.9254C147.641 92.7841 147.463 92.7169 147.244 92.7169Z" fill="#253D7A"/>
<path d="M149.639 91.4368H149.04V94.639H149.639V91.4368Z" fill="#253D7A"/>
<path d="M161.624 94.4776C161.365 94.6189 161.084 94.6928 160.78 94.6928C160.445 94.6928 160.138 94.6054 159.861 94.4372C159.584 94.269 159.375 94.0403 159.234 93.7577H158.564L158.755 93.2397H159.078C159.073 93.159 159.07 93.1051 159.07 93.0648V93.0177H158.573L158.764 92.4929H159.18C159.305 92.1768 159.512 91.9278 159.803 91.7327C160.093 91.5376 160.419 91.4368 160.78 91.4368C161.174 91.4368 161.527 91.5579 161.841 91.7933L161.624 92.3854C161.523 92.2643 161.399 92.1701 161.251 92.1028C161.104 92.0355 160.947 92.0019 160.78 92.0019C160.591 92.0019 160.415 92.0422 160.251 92.1364C160.088 92.2238 159.956 92.3449 159.857 92.4929H161.59L161.397 93.0177H159.683V93.0648C159.683 93.1253 159.687 93.1791 159.696 93.2397H161.314L161.121 93.7577H159.95C160.051 93.8721 160.174 93.9663 160.319 94.0336C160.463 94.1008 160.617 94.1278 160.78 94.1278C160.947 94.1278 161.104 94.0941 161.251 94.0268C161.399 93.9595 161.523 93.8653 161.624 93.751V94.4776Z" fill="#253D7A"/>
<path d="M144.518 74.7159V70.6055H145.711C146.004 70.6055 146.235 70.6324 146.407 70.6795C146.578 70.7266 146.732 70.814 146.868 70.9351C147.139 71.1773 147.275 71.5069 147.275 71.924C147.275 72.3479 147.125 72.6775 146.827 72.9129C146.741 72.9802 146.653 73.0408 146.562 73.0811C146.473 73.1215 146.351 73.1619 146.197 73.2023L147.313 74.7159H146.369C146.369 74.7159 146.007 74.1912 145.285 73.1417V74.7159H144.518ZM145.285 72.5698H145.659C145.956 72.5698 146.17 72.5228 146.303 72.4218C146.436 72.3209 146.502 72.1662 146.502 71.9442C146.502 71.7357 146.432 71.5742 146.292 71.4666C146.178 71.3791 145.956 71.3387 145.626 71.3387H145.285V72.5698Z" fill="#253D7A"/>
<path d="M147.879 74.7159V70.6055H150.098V71.3387H148.646V72.3008H150.038V73.0341H148.646V73.9894H150.098V74.7159H147.879Z" fill="#253D7A"/>
<path d="M152.661 74.7843C152.661 74.7843 152.632 74.8718 152.574 75.0332C152.648 75.0063 152.702 74.9929 152.735 74.9929C152.873 74.9929 152.992 75.0535 153.093 75.1611C153.193 75.2687 153.242 75.4033 153.242 75.558C153.242 75.7195 153.193 75.854 153.095 75.9549C152.997 76.0558 152.868 76.1096 152.708 76.1096C152.566 76.1096 152.442 76.0626 152.336 75.9751C152.233 75.8876 152.17 75.7733 152.148 75.6387H152.495C152.539 75.7464 152.608 75.8002 152.702 75.8002C152.764 75.8002 152.816 75.78 152.858 75.7262C152.9 75.6791 152.921 75.6185 152.921 75.5445C152.921 75.4773 152.9 75.4234 152.858 75.3696C152.816 75.3225 152.766 75.3024 152.708 75.3024C152.666 75.3024 152.629 75.3158 152.596 75.3359C152.565 75.3561 152.531 75.3965 152.495 75.4503L152.197 75.3091L152.383 74.7507C152.054 74.7036 151.752 74.5758 151.48 74.374C151.207 74.1721 150.992 73.9165 150.836 73.6138C150.679 73.3043 150.601 72.9813 150.601 72.645C150.601 72.3557 150.657 72.0799 150.77 71.8242C150.883 71.5619 151.034 71.3331 151.223 71.1448C151.412 70.9564 151.638 70.8084 151.9 70.6941C152.161 70.5864 152.436 70.5259 152.724 70.5259C152.984 70.5259 153.234 70.5729 153.475 70.6604C153.716 70.7411 153.934 70.869 154.127 71.0304C154.258 71.1381 154.364 71.2524 154.444 71.3601C154.523 71.4677 154.603 71.609 154.681 71.7839H153.824C153.684 71.6023 153.528 71.4677 153.357 71.3869C153.186 71.3062 152.981 71.2591 152.74 71.2591C152.309 71.2591 151.966 71.4139 151.711 71.7099C151.606 71.8377 151.522 71.979 151.461 72.1471C151.4 72.3086 151.371 72.4768 151.371 72.645C151.371 72.9006 151.432 73.1361 151.556 73.3514C151.679 73.5667 151.848 73.7348 152.061 73.8627C152.274 73.9905 152.505 74.0511 152.757 74.0511C152.955 74.0511 153.133 74.0107 153.289 73.9367C153.447 73.8627 153.611 73.7416 153.78 73.5667H154.681C154.513 73.9434 154.257 74.2461 153.911 74.4614C153.567 74.6767 153.177 74.7843 152.74 74.7843H152.661Z" fill="#253D7A"/>
<path d="M155.283 70.6055H156.05V73.209C156.05 73.3637 156.056 73.4781 156.069 73.5588C156.083 73.6396 156.111 73.7135 156.151 73.7808C156.204 73.8683 156.276 73.9356 156.369 73.9827C156.462 74.0298 156.564 74.0567 156.675 74.0567C156.789 74.0567 156.893 74.0298 156.986 73.9827C157.081 73.9356 157.154 73.8683 157.207 73.7808C157.247 73.7135 157.274 73.6396 157.286 73.5588C157.301 73.4781 157.308 73.3637 157.308 73.209V70.6055H158.072V73.209C158.072 73.4579 158.048 73.6664 158.001 73.8346C157.956 73.9961 157.881 74.1508 157.777 74.2854C157.652 74.4401 157.491 74.568 157.294 74.6554C157.1 74.7496 156.893 74.7899 156.675 74.7899C156.427 74.7899 156.197 74.7361 155.984 74.6217C155.773 74.5074 155.608 74.346 155.49 74.1509C155.352 73.9154 155.283 73.6059 155.283 73.209V70.6055Z" fill="#253D7A"/>
</g>
<defs>
<linearGradient id="paint0_linear" x1="62.75" y1="0.97583" x2="240.187" y2="112.288" gradientUnits="userSpaceOnUse">
<stop stop-color="#407CA8"/>
<stop offset="0.276042" stop-color="#2A8194"/>
<stop offset="1" stop-color="#743B49"/>
</linearGradient>
<clipPath id="clip0">
<rect x="26.4302" y="52.4775" width="163.907" height="162.833" fill="white"/>
</clipPath>
</defs>
</svg>
