<svg role="img" width="231" height="231" viewBox="0 0 231 231" fill="none" xmlns="http://www.w3.org/2000/svg">
<path opacity="0.1" d="M188.554 75.3962C211.451 116.51 178.588 178.212 148.065 195.053C117.542 211.893 69.9114 207.455 47.0147 166.341C24.1181 125.226 15.3577 86.4892 65.1488 46.1648C95.6718 29.3245 165.658 34.282 188.554 75.3962Z" fill="url(#paint0_linear)"/>
<path d="M43.8501 127.456C43.8501 127.456 48.0927 117.857 43.1834 118.642C43.1834 118.642 41.4863 120.031 39.7893 122.868C38.4559 124.981 35.789 130.656 35.8496 132.588C35.9709 134.52 37.3043 135.908 38.8195 138.987C38.8195 138.987 41.9106 144.662 42.0318 145.387L45.3047 143.696C45.3047 143.696 42.5773 138.263 40.6378 133.433L43.8501 127.456Z" fill="#427FA9"/>
<path d="M18.8789 156.253L84.1552 145.205L82.2763 134.157L17 145.205L18.8789 156.253Z" fill="url(#paint1_linear)"/>
<path d="M83.9691 143.821L87.4346 143.234L86.0006 134.842L82.5351 135.43L83.9691 143.821Z" fill="#2D3038"/>
<path d="M68.5182 208.897H69.3061C69.3061 208.897 69.0637 205.879 69.791 205.819C70.5183 205.819 72.3972 208.294 73.4882 208.656C74.5792 209.018 80.2158 209.38 80.2764 208.354C80.2764 207.328 78.0945 206.905 77.4278 206.603C76.7611 206.301 73.4276 203.102 72.8215 202.679C72.2154 202.317 71.185 199.6 71.185 199.6L68.0333 199.479C68.0333 199.479 67.8515 201.955 67.6697 203.283C67.6091 203.766 67.5485 204.249 67.5485 204.551C67.4879 205.698 68.5182 208.897 68.5182 208.897Z" fill="#EEA886"/>
<path d="M48.1532 208.294H48.8199V205.457C49.3654 205.517 51.2443 207.268 51.8504 207.811C52.4565 208.294 53.2444 208.294 55.6688 208.475C58.0931 208.656 58.3356 207.147 57.9719 206.664C57.6083 206.181 56.3355 205.94 55.6688 205.638C55.0021 205.336 52.4565 202.438 51.7898 201.774C51.1231 201.11 50.6988 199.118 50.6988 199.118L47.8502 199.359C47.8502 199.359 47.8502 201.17 47.5471 202.619C47.5471 202.74 47.4865 202.861 47.4259 202.981C47.0016 204.551 48.1532 208.294 48.1532 208.294Z" fill="#EEA886"/>
<path d="M58.7602 144.481C58.7602 144.481 59.8512 147.017 59.9118 147.681C60.033 148.345 62.518 154.382 63.2453 158.487C63.6696 160.963 64.8817 168.63 65.003 169.596C65.1848 171.286 65.9727 174.969 66.0939 176.659C66.1545 177.625 70.8821 192.295 72.0337 199.963C72.0337 199.963 69.3062 200.385 67.2455 199.842C67.2455 199.842 63.1241 191.933 60.8209 180.704C59.4269 173.942 58.2147 170.32 57.1238 167.543C56.0328 164.766 49.9718 156.857 49.3051 156.012C48.6991 155.107 44.6988 150.216 48.4566 144.904C52.275 139.591 58.7602 144.481 58.7602 144.481Z" fill="#1D3B54"/>
<path d="M45.1229 167C45.4866 169.294 45.1229 172.312 44.3956 180.644C43.6683 188.975 45.6684 199.117 45.6684 199.117C48.1534 199.963 51.002 199.117 51.002 199.117C50.9414 198.514 51.002 178.772 51.002 177.021C51.002 175.271 51.4869 173.278 51.6687 171.226C51.7293 169.837 52.396 167.302 53.1233 164.706C53.3658 163.921 53.5476 163.136 53.79 162.411C53.9113 161.989 54.0325 161.566 54.1537 161.144C55.1841 157.642 56.5175 143.998 56.5175 143.998C56.5175 143.998 48.9413 137.901 45.2441 143.636C41.5469 149.371 43.4258 153.537 43.5471 154.261C43.6683 154.986 44.7592 164.706 45.1229 167Z" fill="#1D3B54"/>
<path d="M48.2749 154.744C48.3355 154.865 52.0933 163.257 53.1237 164.705C53.3661 163.921 53.5479 163.136 53.7904 162.411C53.7904 162.411 48.3961 154.925 48.2749 154.744Z" fill="#122536"/>
<path d="M48.1529 208.294H48.8196V205.457C49.3651 205.517 51.2439 207.268 51.85 207.811C52.4561 208.294 53.2441 208.294 55.6684 208.475C58.0928 208.656 58.3352 207.147 57.9716 206.664C57.6079 206.181 56.3351 205.94 55.6684 205.638C53.0622 205.759 49.8499 202.136 48.3347 202.136C47.5468 202.136 47.5468 202.619 47.4862 202.68C47.4862 202.8 47.4256 202.921 47.3649 203.042C47.0013 204.551 48.1529 208.294 48.1529 208.294Z" fill="#172F42"/>
<path d="M68.5182 208.898H69.3061C69.3061 208.898 69.0637 205.879 69.791 205.819C70.5183 205.819 72.3972 208.294 73.4881 208.656C74.5791 209.019 80.2158 209.381 80.2764 208.354C80.2764 207.328 78.0945 206.906 77.4277 206.604C75.1246 206.604 71.3062 204.068 70.1546 203.525C69.003 202.981 67.7303 203.344 67.7303 203.344C67.6696 203.827 67.609 204.31 67.609 204.611C67.4878 205.698 68.5182 208.898 68.5182 208.898Z" fill="#172F42"/>
<path d="M52.0327 112.544C52.0327 112.544 50.8205 115.744 51.7903 118.219C51.7903 118.219 47.3658 117.917 47.184 117.435C47.0022 116.891 47.3658 112.122 46.7597 110.733C46.093 109.284 52.0327 112.544 52.0327 112.544Z" fill="#EEA886"/>
<path d="M52.4566 117.133C52.4566 117.133 55.0628 118.038 56.2749 118.34C57.4871 118.582 59.9721 119.789 59.7297 124.196C59.5479 128.603 58.7599 132.407 58.5175 134.339C58.2751 136.21 58.3963 141.04 58.8811 143.394C58.8811 143.394 52.5778 144.964 45.1834 143.394C45.1834 143.394 46.5168 139.41 46.4562 138.384C46.3956 137.357 42.0924 128.845 41.8499 127.517C41.6075 126.188 40.7589 120.272 42.7591 118.944C44.7592 117.616 46.335 117.797 47.1835 117.193C48.0321 116.529 51.2444 116.71 52.4566 117.133Z" fill="#427FA9"/>
<path d="M42.3351 150.277C53.1235 153.114 61.6695 150.277 61.6695 150.277C60.8815 148.707 60.3361 147.077 59.9118 145.568C59.6087 144.481 59.4269 143.394 59.2451 142.368C58.3966 136.512 59.4875 132.044 59.4875 132.044C58.2147 121.902 42.7593 118.883 41.5472 122.083C40.335 125.283 43.9715 139.168 44.1534 140.376C44.2746 141.583 42.3351 150.277 42.3351 150.277Z" fill="#427FA9"/>
<path d="M48.1536 99.7456C49.9113 99.1419 54.76 98.4778 56.0328 105.843C57.245 113.208 54.5782 113.329 51.7901 113.148C49.0021 112.967 44.6988 107.956 44.3352 106.447C44.0321 104.938 43.0624 101.496 48.1536 99.7456Z" fill="#EEA886"/>
<path d="M55.0024 102.583C55.0024 102.583 53.5478 105.723 51.6083 106.809C51.6083 106.809 50.3961 110.13 47.7899 111.518C47.7899 111.518 40.8198 106.93 44.8807 101.436C48.9415 95.9423 54.5781 100.349 55.0024 102.583Z" fill="#E8734D"/>
<path d="M51.7901 105.722C51.6083 105.36 50.5779 104.696 50.093 105.783C49.6082 106.809 51.3052 108.681 51.7901 108.62C52.2144 108.499 52.3962 107.171 51.7901 105.722Z" fill="#EEA886"/>
<path d="M45.0626 102.281C44.8808 102.04 40.2745 99.9267 39.3654 104.334C38.3956 108.801 43.0625 113.993 43.8505 116.227C44.699 118.461 43.4868 123.653 43.4868 123.653C43.4868 123.653 46.2748 120.996 47.1234 118.219C48.0931 115.14 48.3962 107.473 45.0626 102.281Z" fill="#E8734D"/>
<path d="M44.8198 102.1C44.8198 102.1 46.2138 103.187 46.3957 104.998C46.3957 104.998 46.6381 103.609 46.0926 102.764C45.5471 101.979 44.8198 102.1 44.8198 102.1Z" fill="#E54242"/>
<path d="M59.8513 145.568C59.5483 144.481 59.3665 143.394 59.1846 142.368C59.1846 142.368 58.4573 140.859 58.2149 140.134C57.9725 139.41 56.2148 130.595 56.2148 130.595C56.2148 130.595 54.3359 138.927 59.8513 145.568Z" fill="#1D3B54"/>
<path d="M67.7909 146.111C67.7909 146.111 69.1849 147.5 69.6092 147.62C70.0334 147.741 70.9426 147.017 74.0943 146.775C74.3973 146.775 74.8822 147.017 74.761 147.379C74.6397 147.741 73.2457 148.767 72.6396 148.888C72.0335 149.069 69.2455 150.156 67.8515 149.613C66.4575 149.069 65.5483 147.319 65.5483 147.319L67.7909 146.111Z" fill="#EEA886"/>
<path d="M57.0016 118.582C57.0016 118.582 60.6988 120.03 60.8806 125.162C61.1231 130.294 61.3049 132.95 61.4867 133.735C61.6686 134.52 62.0928 137.659 63.002 139.591C63.9111 141.462 69.7902 147.258 69.7902 147.258L66.9416 149.914C66.9416 149.914 58.6987 141.704 58.2138 140.195C57.729 138.685 55.6682 128.241 55.4864 126.43C55.4258 124.981 53.5469 118.642 57.0016 118.582Z" fill="#427FA9"/>
<path opacity="0.1" d="M159.86 138.496C164.401 119.83 152.891 101.032 134.152 96.5095C115.413 91.9867 96.541 103.452 92.0003 122.117C87.4597 140.783 98.9698 159.581 117.709 164.103C136.448 168.626 155.32 157.161 159.86 138.496Z" fill="#B8B8B8"/>
<path opacity="0.3" d="M102.883 104.938C102.883 104.938 147.431 99.4439 156.341 146.292C158.886 141.523 160.341 136.029 160.341 130.233C160.341 111.337 144.946 96.0027 125.975 96.0027C117.127 96.0027 109.005 99.3835 102.883 104.938Z" fill="#869AC2"/>
<path d="M125.915 89.4827C103.308 89.4827 84.9434 107.775 84.9434 130.294C84.9434 152.812 103.308 171.105 125.915 171.105C148.523 171.105 166.887 152.812 166.887 130.294C166.887 107.775 148.583 89.4827 125.915 89.4827ZM125.915 164.464C106.945 164.464 91.6104 149.19 91.6104 130.294C91.6104 111.398 106.945 96.1235 125.915 96.1235C144.886 96.1235 160.22 111.398 160.22 130.294C160.22 149.19 144.886 164.464 125.915 164.464Z" fill="#3F444F"/>
<defs>
<linearGradient id="paint0_linear" x1="0.0810547" y1="82.0645" x2="188.676" y2="22.8575" gradientUnits="userSpaceOnUse">
<stop stop-color="#407CA8"/>
<stop offset="0.276042" stop-color="#2A8194"/>
<stop offset="1" stop-color="#743B49"/>
</linearGradient>
<linearGradient id="paint1_linear" x1="17" y1="145.19" x2="84.1654" y2="145.19" gradientUnits="userSpaceOnUse">
<stop stop-color="#FF9F55"/>
<stop offset="1" stop-color="#FFD255"/>
</linearGradient>
</defs>
</svg>
