<?xml version="1.0" encoding="UTF-8" standalone="no"?>
<!DOCTYPE svg PUBLIC "-//W3C//DTD SVG 1.1//EN" "http://www.w3.org/Graphics/SVG/1.1/DTD/svg11.dtd">
<svg width="100%" height="100%" viewBox="0 0 600 600" version="1.1" xmlns="http://www.w3.org/2000/svg"
     xml:space="preserve"
     style="fill-rule:evenodd;clip-rule:evenodd;stroke-linejoin:round;stroke-miterlimit:2;">
    <g transform="matrix(2.4789,0,0,2.4789,-635.353,-4142.16)">
        <path d="M444.347,1779.62C444.347,1783.48 441.219,1786.61 437.359,1786.61C433.499,1786.61 430.371,1783.48 430.371,1779.62C430.371,1775.76 433.499,1772.63 437.359,1772.63C441.219,1772.63 444.347,1775.76 444.347,1779.62Z" style="fill:rgb(172,171,167);fill-rule:nonzero;"/>
    </g>
    <g transform="matrix(2.4789,0,0,2.4789,-635.353,-4142.16)">
        <path d="M426.703,1785.76C426.703,1789.13 423.972,1791.87 420.603,1791.87C417.233,1791.87 414.502,1789.13 414.502,1785.76C414.502,1782.4 417.233,1779.66 420.603,1779.66C423.972,1779.66 426.703,1782.4 426.703,1785.76Z" style="fill:rgb(172,171,167);fill-rule:nonzero;"/>
    </g>
    <g transform="matrix(2.4789,0,0,2.4789,-635.353,-4142.16)">
        <path d="M486.652,1717.42C486.652,1709.35 480.112,1702.81 472.045,1702.81C471.843,1702.81 471.642,1702.82 471.441,1702.83C471.831,1701.64 472.045,1700.37 472.045,1699.05C472.045,1692.38 466.635,1686.97 459.96,1686.97C456.638,1686.97 453.629,1688.31 451.444,1690.48C450.957,1687.32 448.231,1684.89 444.93,1684.89C441.858,1684.89 439.284,1686.99 438.548,1689.83C436.35,1686.84 432.803,1684.89 428.8,1684.89C423.573,1684.89 419.122,1688.21 417.437,1692.85C416.08,1692.44 414.641,1692.21 413.148,1692.21C405.082,1692.21 398.542,1698.75 398.542,1706.82C398.542,1709.5 399.265,1712 400.522,1714.16C397.343,1714.63 394.904,1717.37 394.904,1720.68C394.904,1723.31 396.447,1725.57 398.675,1726.63C396.331,1729.22 394.904,1732.66 394.904,1736.43C394.904,1744.49 401.443,1751.03 409.51,1751.03C410.024,1751.03 410.531,1751.01 411.031,1750.95C410.918,1751.62 410.857,1752.3 410.857,1752.99C410.857,1759.67 416.267,1765.08 422.942,1765.08C426.417,1765.08 429.547,1763.61 431.752,1761.26C431.744,1761.39 431.732,1761.52 431.732,1761.65C431.732,1765.29 434.687,1768.25 438.331,1768.25C441.976,1768.25 444.93,1765.29 444.93,1761.65C444.93,1761.56 444.92,1761.47 444.917,1761.38L444.971,1761.38C445.178,1764.83 448.04,1767.58 451.549,1767.58C455.194,1767.58 458.149,1764.62 458.149,1760.98C458.149,1759.95 457.908,1758.99 457.492,1758.12C459.524,1759.67 462.062,1760.6 464.817,1760.6C471.491,1760.6 476.902,1755.19 476.902,1748.51C476.902,1746.3 476.303,1744.22 475.264,1742.44C475.415,1742.45 475.565,1742.46 475.72,1742.46C479.364,1742.46 482.319,1739.51 482.319,1735.86C482.319,1733.46 481.027,1731.36 479.103,1730.21C483.603,1727.72 486.652,1722.92 486.652,1717.42Z" style="fill:rgb(172,171,167);fill-rule:nonzero;"/>
    </g>
    <g transform="matrix(2.4789,0,0,2.4789,-635.353,-4142.16)">
        <path d="M332.134,1719.51C331.276,1718.64 331.012,1717.34 331.413,1716.18L332.249,1713.78C332.44,1713.09 333.028,1711.39 334.518,1709.67C336.105,1707.83 339.067,1705.6 344.161,1705.36C348.502,1705.16 349.429,1701.78 349.581,1701.03C349.62,1700.75 349.673,1700.62 349.79,1700.28C350.735,1697.58 349.953,1694.55 347.77,1692.69C343.483,1689.05 337.489,1691.12 335.974,1695.9C335.619,1697.02 334.645,1697.86 333.482,1698.04C330.463,1698.5 328.536,1695.8 329.373,1693.39C331.961,1685.94 340.128,1681.99 347.577,1684.58C354.937,1687.13 358.885,1695.14 356.482,1702.51C355.783,1705.95 352.498,1712.04 344.488,1712.41C339.864,1712.62 339.074,1715.55 339.068,1715.58C339.039,1715.71 339.002,1715.84 338.959,1715.97L338.144,1718.31C337.319,1720.69 334.214,1721.62 332.134,1719.51Z" style="fill:rgb(172,171,167);fill-rule:nonzero;"/>
    </g>
    <g transform="matrix(2.4789,0,0,2.4789,-635.353,-4142.16)">
        <path d="M335.873,1726.39C335.169,1728.42 332.957,1729.49 330.932,1728.79C328.907,1728.08 327.836,1725.87 328.54,1723.85C329.243,1721.82 331.455,1720.75 333.48,1721.45C335.506,1722.16 336.577,1724.37 335.873,1726.39Z" style="fill:rgb(172,171,167);fill-rule:nonzero;"/>
    </g>
    <g transform="matrix(2.4789,0,0,2.4789,-635.353,-4142.16)">
        <path d="M302.875,1735.28C301.262,1735.58 299.624,1734.89 298.643,1733.58L296.602,1730.84C295.982,1730.11 294.533,1728.18 293.743,1725.23C292.901,1722.08 292.647,1717.11 296.219,1711.28C299.262,1706.31 296.205,1702.73 295.485,1702C295.21,1701.75 295.1,1701.59 294.816,1701.21C292.525,1698.12 288.568,1696.71 284.867,1697.74C277.598,1699.76 275.384,1707.97 279.553,1713.25C280.531,1714.49 280.724,1716.2 280.049,1717.62C278.294,1721.33 273.844,1721.43 271.798,1718.69C265.475,1710.21 267.228,1698.17 275.709,1691.84C284.088,1685.59 295.945,1687.23 302.328,1695.45C305.618,1698.82 309.907,1707.04 304.292,1716.22C301.05,1721.52 303.711,1724.6 303.738,1724.63C303.86,1724.76 303.974,1724.89 304.08,1725.04L306.071,1727.71C308.087,1730.41 306.784,1734.56 302.875,1735.28Z" style="fill:rgb(172,171,167);fill-rule:nonzero;"/>
    </g>
    <g transform="matrix(2.4789,0,0,2.4789,-635.353,-4142.16)">
        <path d="M313.337,1736.3C315.056,1738.6 314.581,1741.86 312.275,1743.58C309.97,1745.3 306.708,1744.83 304.989,1742.52C303.27,1740.22 303.745,1736.95 306.05,1735.23C308.355,1733.51 311.618,1733.99 313.337,1736.3Z" style="fill:rgb(172,171,167);fill-rule:nonzero;"/>
    </g>
    <g transform="matrix(2.4789,0,0,2.4789,-635.353,-4142.16)">
        <path d="M330.223,1755.56C330.223,1761.11 334.721,1765.6 340.271,1765.6C345.82,1765.6 350.319,1761.11 350.319,1755.56C350.319,1750.01 345.82,1745.51 340.271,1745.51C334.721,1745.51 330.223,1750.01 330.223,1755.56Z" style="fill:rgb(56,58,69);fill-rule:nonzero;"/>
    </g>
    <g transform="matrix(2.4789,0,0,2.4789,-635.353,-4142.16)">
        <path d="M375.778,1755.56C375.778,1761.11 380.277,1765.6 385.827,1765.6C391.376,1765.6 395.875,1761.11 395.875,1755.56C395.875,1750.01 391.376,1745.51 385.827,1745.51C380.277,1745.51 375.778,1750.01 375.778,1755.56Z" style="fill:rgb(56,58,69);fill-rule:nonzero;"/>
    </g>
    <g transform="matrix(2.4789,0,0,2.4789,-635.353,-4142.16)">
        <path d="M317.757,1877.65C317.757,1877.65 307.709,1831.87 335.62,1823.5C363.531,1815.13 359.775,1798.96 345.668,1780.62C320.488,1747.88 368.819,1714.23 379.72,1734.74C401.92,1776.53 380.616,1779.24 375.778,1793.38C369.951,1810.41 373.831,1814.55 392.047,1820.49C418.641,1829.16 412.894,1877.65 412.894,1877.65L317.757,1877.65Z" style="fill:rgb(246,188,159);fill-rule:nonzero;"/>
    </g>
    <g transform="matrix(2.4789,0,0,2.4789,-635.353,-4142.16)">
        <path d="M352.072,1814.76C352.072,1814.76 351.824,1832.58 366.008,1830.6C377.83,1828.94 378.139,1814.13 378.139,1814.13C378.139,1814.13 392.779,1818.81 398.257,1821.75C403.734,1824.7 431.027,1838.66 418.823,1877.65L317.745,1877.65C317.745,1877.65 309.142,1856.91 317.745,1838.29C327.437,1817.31 346.607,1819.28 352.072,1814.76Z" style="fill:rgb(255,250,239);fill-rule:nonzero;"/>
    </g>
    <g transform="matrix(2.4789,0,0,2.4789,-635.353,-4142.16)">
        <path d="M342.888,1838.36C342.888,1838.36 358.184,1891.67 403.266,1856.25L403.266,1913L344.072,1913L342.888,1838.36Z" style="fill:rgb(214,236,225);fill-rule:nonzero;"/>
    </g>
    <g transform="matrix(2.4789,0,0,2.4789,-635.353,-4142.16)">
        <path d="M341.912,1767.32C342.842,1771.47 342.836,1777.19 339.548,1777.19C336.259,1777.19 330.003,1770.61 330.003,1767.32C330.003,1764.03 332.668,1761.37 335.957,1761.37C339.245,1761.37 341.191,1764.11 341.912,1767.32Z" style="fill:rgb(246,188,159);fill-rule:nonzero;"/>
    </g>
    <g transform="matrix(2.4789,0,0,2.4789,-635.353,-4142.16)">
        <path d="M386.353,1767.33C385.422,1771.47 385.428,1777.19 388.717,1777.19C392.006,1777.19 398.262,1770.62 398.262,1767.33C398.262,1764.04 395.596,1761.37 392.307,1761.37C389.019,1761.37 387.073,1764.12 386.353,1767.33Z" style="fill:rgb(246,188,159);fill-rule:nonzero;"/>
    </g>
    <g transform="matrix(2.4789,0,0,2.4789,-635.353,-4142.16)">
        <path d="M356.403,1805.79C356.403,1805.79 367.72,1809.29 373.649,1800.86C373.649,1800.86 375.408,1792.63 375.904,1791.64C376.4,1790.65 375.408,1792.63 375.408,1792.63L352.085,1792.63C352.085,1792.63 356.999,1798.35 356.403,1805.79Z" style="fill:rgb(233,148,111);fill-rule:nonzero;"/>
    </g>
    <g transform="matrix(2.4789,0,0,2.4789,-635.353,-4142.16)">
        <path d="M344.131,1747.97C344.131,1747.97 338.487,1775.33 347.666,1783.51C356.846,1791.7 356.057,1773.84 365.531,1773.47C371.981,1773.22 374.802,1789.98 384.44,1779.46C390.746,1772.58 384.295,1745.51 384.295,1745.51L389.716,1749.09C389.716,1749.09 396.182,1796.75 365.909,1798.94C335.035,1801.17 335.761,1753.63 338.417,1748.16C338.417,1748.16 341.898,1745.49 344.131,1747.97Z" style="fill:rgb(56,58,69);fill-rule:nonzero;"/>
    </g>
    <g transform="matrix(2.4789,0,0,2.4789,-635.353,-4142.16)">
        <path d="M356.043,1762.31C356.043,1763.47 355.098,1764.42 353.934,1764.42C352.769,1764.42 351.824,1763.47 351.824,1762.31C351.824,1761.14 352.769,1760.2 353.934,1760.2C355.098,1760.2 356.043,1761.14 356.043,1762.31Z" style="fill:rgb(56,58,69);fill-rule:nonzero;"/>
    </g>
    <g transform="matrix(2.4789,0,0,2.4789,-635.353,-4142.16)">
        <path d="M380.259,1761.37C380.259,1762.54 379.314,1763.48 378.15,1763.48C376.985,1763.48 376.04,1762.54 376.04,1761.37C376.04,1760.21 376.985,1759.26 378.15,1759.26C379.314,1759.26 380.259,1760.21 380.259,1761.37Z" style="fill:rgb(56,58,69);fill-rule:nonzero;"/>
    </g>
    <g transform="matrix(2.4789,0,0,2.4789,-635.353,-4142.16)">
        <path d="M365.852,1773.4C365.795,1773.4 365.737,1773.39 365.679,1773.38C363.914,1773 362.963,1769.09 362.79,1768.31L363.905,1768.06C364.286,1769.78 365.058,1771.68 365.703,1772.15C366.07,1770.88 365.643,1765.43 364.987,1760.73L366.119,1760.57C366.712,1764.83 367.539,1772.12 366.413,1773.17C366.256,1773.32 366.057,1773.4 365.852,1773.4Z" style="fill:rgb(56,58,69);fill-rule:nonzero;"/>
    </g>
    <g transform="matrix(2.4789,0,0,2.4789,-635.353,-4142.16)">
        <path d="M352.817,1772.26C352.817,1773.9 351.485,1775.23 349.84,1775.23C348.195,1775.23 346.862,1773.9 346.862,1772.26C346.862,1770.61 348.195,1769.28 349.84,1769.28C351.485,1769.28 352.817,1770.61 352.817,1772.26Z" style="fill:rgb(233,148,111);fill-rule:nonzero;"/>
    </g>
    <g transform="matrix(2.4789,0,0,2.4789,-635.353,-4142.16)">
        <path d="M382.839,1772.26C382.839,1773.9 381.506,1775.23 379.862,1775.23C378.217,1775.23 376.884,1773.9 376.884,1772.26C376.884,1770.61 378.217,1769.28 379.862,1769.28C381.506,1769.28 382.839,1770.61 382.839,1772.26Z" style="fill:rgb(233,148,111);fill-rule:nonzero;"/>
    </g>
    <g transform="matrix(2.4789,0,0,2.4789,-635.353,-4142.16)">
        <path d="M336.771,1773.65C336.451,1768.67 335.387,1767.68 334.944,1767.48C334.517,1767.29 334.118,1767.6 334.1,1767.61L333.378,1766.72C333.723,1766.44 334.533,1766.05 335.389,1766.42C336.817,1767.04 337.641,1769.38 337.911,1773.57L336.771,1773.65Z" style="fill:rgb(56,58,69);fill-rule:nonzero;"/>
    </g>
    <g transform="matrix(2.4789,0,0,2.4789,-635.353,-4142.16)">
        <path d="M390.814,1773.65L389.673,1773.57C389.943,1769.38 390.768,1767.04 392.196,1766.42C393.048,1766.05 393.861,1766.44 394.205,1766.72L393.483,1767.61C393.467,1767.6 393.065,1767.29 392.64,1767.48C392.197,1767.68 391.133,1768.67 390.814,1773.65Z" style="fill:rgb(56,58,69);fill-rule:nonzero;"/>
    </g>
    <g transform="matrix(2.4789,0,0,2.4789,-635.353,-4142.16)">
        <path d="M344.136,1747.97C344.136,1747.97 351.368,1740.35 358.478,1741.59C365.588,1742.83 367.895,1754.89 385.444,1751.1C385.444,1751.1 375.186,1747.19 369.398,1742.58C363.61,1737.98 357.462,1726.06 344.136,1747.97Z" style="fill:rgb(233,148,111);fill-rule:nonzero;"/>
    </g>
    <g transform="matrix(2.4789,0,0,2.4789,-635.353,-4142.16)">
        <path d="M344.146,1747.97C344.146,1747.97 352.52,1733.83 359.963,1736.06C367.406,1738.29 379.006,1755.42 388.744,1750.11C388.744,1750.11 388.066,1723.16 362.945,1724.28C337.824,1725.39 337.039,1756.71 344.146,1747.97Z" style="fill:rgb(56,58,69);fill-rule:nonzero;"/>
    </g>
    <g transform="matrix(2.4789,0,0,2.4789,-635.353,-4142.16)">
        <path d="M364.667,1836.17C348.712,1836.17 346.958,1819.47 346.942,1819.3L347.51,1819.25C347.526,1819.42 349.273,1835.92 365.097,1835.59C380.932,1835.29 382.54,1817.02 382.555,1816.83L383.124,1816.88C383.109,1817.07 381.465,1835.85 365.108,1836.16C364.96,1836.16 364.813,1836.17 364.667,1836.17Z" style="fill:rgb(214,236,225);fill-rule:nonzero;"/>
    </g>
    <g transform="matrix(2.4789,0,0,2.4789,-635.353,-4142.16)">
        <path d="M332.857,1759.55L332.838,1758.98C332.875,1758.98 336.616,1758.81 338.96,1755.97C340.681,1753.88 341.247,1750.88 340.64,1747.06L341.204,1746.97C341.838,1750.97 341.23,1754.12 339.397,1756.34C336.884,1759.38 333.021,1759.54 332.857,1759.55Z" style="fill:rgb(84,121,132);fill-rule:nonzero;"/>
    </g>
    <g transform="matrix(2.4789,0,0,2.4789,-635.353,-4142.16)">
        <path d="M330.227,1755.84L330.223,1755.27C330.247,1755.27 332.703,1755.24 335.123,1754.01C338.334,1752.38 339.972,1749.52 339.988,1745.51L340.559,1745.51C340.518,1755.65 330.33,1755.84 330.227,1755.84Z" style="fill:rgb(84,121,132);fill-rule:nonzero;"/>
    </g>
    <g transform="matrix(2.4789,0,0,2.4789,-635.353,-4142.16)">
        <path d="M391.782,1757.89C391.518,1757.89 391.261,1757.85 391.013,1757.76C387.778,1756.59 387.353,1748.07 387.337,1747.7L387.907,1747.68C387.911,1747.76 388.329,1756.18 391.207,1757.22C392.214,1757.58 393.459,1756.96 394.91,1755.36L395.333,1755.75C394.033,1757.17 392.843,1757.89 391.782,1757.89Z" style="fill:rgb(84,121,132);fill-rule:nonzero;"/>
    </g>
    <g transform="matrix(2.4789,0,0,2.4789,-635.353,-4142.16)">
        <path d="M359.166,1757.18C359.166,1757.18 357.277,1758.53 354.828,1758.87C352.378,1759.21 345.253,1758.95 344.553,1759.05C343.853,1759.15 350.306,1752.43 359.166,1757.18Z" style="fill:rgb(56,58,69);fill-rule:nonzero;"/>
    </g>
    <g transform="matrix(2.4789,0,0,2.4789,-635.353,-4142.16)">
        <path d="M370.74,1754.74C370.74,1754.74 377.468,1749.52 380.251,1751.08C383.249,1752.77 382.992,1754.74 382.992,1754.74C382.992,1754.74 378.733,1753.64 378.194,1753.87C375.771,1754.94 372.804,1756.37 370.74,1754.74Z" style="fill:rgb(56,58,69);fill-rule:nonzero;"/>
    </g>
    <g transform="matrix(2.4789,0,0,2.4789,-635.353,-4142.16)">
        <path d="M372.47,1788.17C372.47,1788.17 368.908,1775.7 364.876,1776.53C360.844,1777.35 357.632,1786.21 358.877,1790.13C360.122,1794.04 372.658,1794.15 372.47,1788.17Z" style="fill:rgb(246,188,159);fill-rule:nonzero;"/>
    </g>
    <g transform="matrix(2.4789,0,0,2.4789,-635.353,-4142.16)">
        <path d="M361.584,1784.45L360.732,1783.69C360.872,1783.53 364.184,1779.89 367.107,1779.94C368.077,1779.96 368.895,1780.38 369.537,1781.17L368.649,1781.89C368.221,1781.36 367.708,1781.1 367.079,1781.08L367.021,1781.08C365.038,1781.08 362.43,1783.51 361.584,1784.45Z" style="fill:rgb(56,58,69);fill-rule:nonzero;"/>
    </g>
    <g transform="matrix(2.4789,0,0,2.4789,-635.353,-4142.16)">
        <path d="M367.748,1784.61C365.732,1783.95 364.129,1784.59 364.113,1784.6L363.678,1783.54C363.76,1783.51 365.694,1782.73 368.106,1783.53L367.748,1784.61Z" style="fill:rgb(56,58,69);fill-rule:nonzero;"/>
    </g>
    <g transform="matrix(2.4789,0,0,2.4789,-635.353,-4142.16)">
        <path d="M350.323,1728.47C350.323,1728.47 356.423,1724.49 362.607,1729.02C368.789,1733.56 380.837,1751.41 387.282,1741.91C387.282,1741.91 384.349,1730.15 375.281,1726.85C366.213,1723.56 359.472,1723.39 350.323,1728.47Z" style="fill:rgb(75,109,121);fill-opacity:0.03;fill-rule:nonzero;"/>
    </g>
    <g transform="matrix(2.4789,0,0,2.4789,-635.353,-4142.16)">
        <path d="M383.657,1750.08C381.479,1750.08 379.001,1747.45 375.91,1744.16C372.874,1740.93 369.095,1736.92 364.565,1734.43C353.419,1728.3 343.376,1746.19 343.276,1746.37L342.775,1746.09C342.879,1745.91 353.197,1727.52 364.84,1733.93C369.449,1736.46 373.262,1740.51 376.326,1743.77C379.495,1747.14 381.986,1749.8 383.973,1749.49C384.919,1749.34 385.75,1748.48 386.51,1746.88L387.026,1747.13C386.179,1748.91 385.209,1749.87 384.061,1750.05C383.928,1750.07 383.793,1750.08 383.657,1750.08Z" style="fill:rgb(84,121,132);fill-rule:nonzero;"/>
    </g>
    <g transform="matrix(2.4789,0,0,2.4789,-635.353,-4142.16)">
        <path d="M383.881,1747.31C381.423,1747.31 379.811,1745.1 377.467,1741.89C375.358,1738.99 372.731,1735.39 368.338,1731.61C364.788,1728.55 361.181,1727.43 357.614,1728.29C348.306,1730.53 342.11,1745.47 342.048,1745.62L341.52,1745.4C341.535,1745.36 343.113,1741.53 345.843,1737.46C348.376,1733.69 352.45,1728.94 357.479,1727.73C361.236,1726.83 365.013,1727.99 368.711,1731.18C373.154,1735 375.802,1738.63 377.93,1741.55C381.31,1746.18 382.855,1748.3 387.46,1745.43L387.762,1745.92C386.214,1746.88 384.965,1747.31 383.881,1747.31Z" style="fill:rgb(84,121,132);fill-rule:nonzero;"/>
    </g>
    <g transform="matrix(2.4789,0,0,2.4789,-635.353,-4142.16)">
        <path d="M386.371,1744.31L386.242,1744.31C384.72,1744.23 382.037,1742.7 377.897,1735.87C370.846,1724.22 360.876,1725.95 358.948,1726.41L358.815,1725.86C360.809,1725.38 371.128,1723.59 378.386,1735.57C382.588,1742.51 385.115,1743.66 386.247,1743.73C387.02,1743.78 387.37,1743.36 387.384,1743.34L387.838,1743.69C387.818,1743.71 387.357,1744.31 386.371,1744.31Z" style="fill:rgb(84,121,132);fill-rule:nonzero;"/>
    </g>
    <g transform="matrix(2.4789,0,0,2.4789,-635.353,-4142.16)">
        <path d="M349.107,1744.02C349.107,1744.02 344.17,1748.13 344.137,1756.45C344.104,1764.78 344.604,1786.05 353.937,1784.69C353.937,1784.69 350.818,1788.45 346.611,1781.87C342.404,1775.29 339.842,1763 344.137,1747.97C344.137,1747.97 348.081,1742.9 349.107,1744.02Z" style="fill:rgb(233,148,111);fill-rule:nonzero;"/>
    </g>
    <g transform="matrix(2.4789,0,0,2.4789,-635.353,-4142.16)">
        <path d="M386.209,1816.86C386.209,1816.86 384.717,1905.09 385.441,1913.01L415.201,1913.01C415.201,1913.01 424.784,1856.57 421.572,1843.13C417.07,1824.29 386.209,1816.86 386.209,1816.86Z" style="fill:rgb(56,58,69);fill-rule:nonzero;"/>
    </g>
    <g transform="matrix(2.4789,0,0,2.4789,-635.353,-4142.16)">
        <path d="M345.695,1817.5C345.695,1817.5 351.04,1905.09 350.316,1913.01L320.86,1913.01C320.86,1913.01 307.119,1856.57 310.332,1843.13C314.833,1824.29 345.695,1817.5 345.695,1817.5Z" style="fill:rgb(56,58,69);fill-rule:nonzero;"/>
    </g>
    <g transform="matrix(2.4789,0,0,2.4789,-635.353,-4142.16)">
        <path d="M316.885,1891.84L316.954,1890.86C316.963,1890.74 317.995,1878.3 332.679,1870.35L332.951,1870.86C320.967,1877.34 318.252,1886.82 317.672,1889.9C322.407,1884.52 336.954,1875.32 337.603,1874.91L337.907,1875.39C337.741,1875.5 321.231,1885.94 317.469,1891.05L316.885,1891.84Z" style="fill:rgb(84,121,132);fill-rule:nonzero;"/>
    </g>
    <g transform="matrix(2.4789,0,0,2.4789,-635.353,-4142.16)">
        <path d="M344.24,1876.99C336.92,1861.42 332.588,1842.15 332.544,1841.96L333.102,1841.83C333.145,1842.02 337.463,1861.23 344.757,1876.74L344.24,1876.99Z" style="fill:rgb(84,121,132);fill-rule:nonzero;"/>
    </g>
    <g transform="matrix(2.4789,0,0,2.4789,-635.353,-4142.16)">
        <path d="M395.068,1882.48C395.068,1882.48 351.22,1906.52 335.252,1907.7C319.284,1908.88 317.252,1890.88 317.252,1890.88C317.252,1890.88 337.113,1880.94 347.528,1876.41C347.528,1876.41 370.992,1869.71 397.125,1870.6C397.125,1870.6 400.394,1878.05 395.068,1882.48Z" style="fill:rgb(246,188,159);fill-rule:nonzero;"/>
    </g>
    <g transform="matrix(2.4789,0,0,2.4789,-635.353,-4142.16)">
        <path d="M336.038,1881.71C336.038,1881.71 321.423,1888.27 322.205,1894.79C322.988,1901.32 327.165,1908.18 339.685,1904.69C352.204,1901.2 387.623,1881.08 396.654,1880.75L397.125,1882.5C397.125,1882.5 377.641,1891.78 368.803,1895.76C359.965,1899.74 324.55,1925.8 317.252,1890.88C317.252,1890.88 320.394,1889.52 336.038,1881.71Z" style="fill:rgb(233,148,111);fill-rule:nonzero;"/>
    </g>
    <g transform="matrix(2.4789,0,0,2.4789,-635.353,-4142.16)">
        <path d="M406.984,1809.14C406.984,1809.14 395.765,1789.63 390.589,1787.48C385.412,1785.33 373.459,1789.79 373.459,1789.79L375.035,1793.78C375.035,1793.78 390.308,1786.27 393.057,1797.8C393.057,1797.8 384.366,1795.72 380.608,1799.9C376.691,1804.25 376.948,1810.99 376.948,1810.99L381.566,1811.93C381.566,1811.93 379.869,1801.4 390.222,1801.01C390.222,1801.01 381.457,1802.02 383.672,1813.68L387.766,1814.84C387.766,1814.84 386.427,1803.02 393.576,1803.39C393.576,1803.39 385.991,1805.4 390.073,1815.03L393.862,1814.69C393.862,1814.69 390.715,1807.63 394.905,1806.41C394.905,1806.41 394.348,1814.69 400.044,1819.56C400.044,1819.56 397.606,1841.55 396.486,1855.54C395.102,1872.81 387.394,1917.82 421.754,1898.4C421.754,1898.4 416.74,1825.05 406.984,1809.14Z" style="fill:rgb(246,188,159);fill-rule:nonzero;"/>
    </g>
    <g transform="matrix(2.4789,0,0,2.4789,-635.353,-4142.16)">
        <path d="M375.577,1793L375.316,1792.49C376.604,1791.83 378.04,1790.93 378.254,1790.58C377.938,1790.4 376.15,1790.28 374.619,1790.31L374.61,1789.74C377.24,1789.69 378.659,1789.92 378.824,1790.42C378.888,1790.61 379.083,1791.19 375.577,1793Z" style="fill:rgb(56,58,69);fill-rule:nonzero;"/>
    </g>
    <g transform="matrix(2.4789,0,0,2.4789,-635.353,-4142.16)">
        <path d="M383.792,1787.45L384.094,1790.42L383.527,1790.48L383.224,1787.51L383.792,1787.45Z" style="fill:rgb(56,58,69);fill-rule:nonzero;"/>
    </g>
    <g transform="matrix(2.4789,0,0,2.4789,-635.353,-4142.16)">
        <path d="M385.072,1787.46L385.315,1790.73L384.744,1790.77L384.502,1787.5L385.072,1787.46Z" style="fill:rgb(56,58,69);fill-rule:nonzero;"/>
    </g>
    <g transform="matrix(2.4789,0,0,2.4789,-635.353,-4142.16)">
        <path d="M386.14,1787.45L386.709,1787.51L386.405,1790.48L385.835,1790.42L386.14,1787.45Z" style="fill:rgb(56,58,69);fill-rule:nonzero;"/>
    </g>
    <g transform="matrix(2.4789,0,0,2.4789,-635.353,-4142.16)">
        <path d="M380.711,1810.81L380.14,1810.8C380.185,1809.28 380.04,1806.71 379.459,1806.24C379.114,1806.29 378.474,1808.09 378.101,1810.01L377.539,1809.9C377.716,1809 378.361,1806.02 379.243,1805.69C379.438,1805.62 379.643,1805.66 379.816,1805.8C380.787,1806.57 380.731,1810.11 380.711,1810.81Z" style="fill:rgb(56,58,69);fill-rule:nonzero;"/>
    </g>
    <g transform="matrix(2.4789,0,0,2.4789,-635.353,-4142.16)">
        <path d="M386.716,1813.42L386.145,1813.41C386.168,1812.1 385.941,1810.1 385.381,1809.93C385.328,1809.92 385.295,1809.92 385.251,1809.95C384.857,1810.24 384.631,1811.73 384.596,1812.7L384.025,1812.68C384.041,1812.24 384.158,1810.04 384.916,1809.49C385.105,1809.36 385.321,1809.32 385.541,1809.38C386.722,1809.73 386.727,1812.81 386.716,1813.42Z" style="fill:rgb(56,58,69);fill-rule:nonzero;"/>
    </g>
    <g transform="matrix(2.4789,0,0,2.4789,-635.353,-4142.16)">
        <path d="M390.436,1814.26C390.352,1812.79 390.401,1810.99 391.116,1810.83C391.513,1810.74 392.022,1811 393.032,1813.47L392.503,1813.69C391.629,1811.55 391.257,1811.4 391.217,1811.39C391.048,1811.54 390.929,1812.87 391.006,1814.23L390.436,1814.26Z" style="fill:rgb(56,58,69);fill-rule:nonzero;"/>
    </g>
    <g transform="matrix(2.4789,0,0,2.4789,-635.353,-4142.16)">
        <path d="M384.047,1801.58C383.738,1800.93 382.81,1799.74 382.801,1799.73L383.251,1799.37C383.29,1799.42 384.228,1800.62 384.565,1801.34L384.047,1801.58Z" style="fill:rgb(56,58,69);fill-rule:nonzero;"/>
    </g>
    <g transform="matrix(2.4789,0,0,2.4789,-635.353,-4142.16)">
        <path d="M383.083,1801.99C383.024,1801.73 382.271,1800.93 381.608,1800.35L381.985,1799.92C382.341,1800.23 383.514,1801.3 383.641,1801.87L383.083,1801.99Z" style="fill:rgb(56,58,69);fill-rule:nonzero;"/>
    </g>
    <g transform="matrix(2.4789,0,0,2.4789,-635.353,-4142.16)">
        <path d="M388.372,1804.71C387.719,1804.38 386.254,1804.03 386.238,1804.03L386.371,1803.47C386.433,1803.49 387.915,1803.84 388.624,1804.19L388.372,1804.71Z" style="fill:rgb(56,58,69);fill-rule:nonzero;"/>
    </g>
    <g transform="matrix(2.4789,0,0,2.4789,-635.353,-4142.16)">
        <path d="M387.864,1805.62C387.653,1805.45 386.568,1805.3 385.686,1805.25L385.714,1804.68C386.188,1804.71 387.77,1804.81 388.224,1805.18L387.864,1805.62Z" style="fill:rgb(56,58,69);fill-rule:nonzero;"/>
    </g>
    <g transform="matrix(2.4789,0,0,2.4789,-635.353,-4142.16)">
        <path d="M392.654,1806.85C392.058,1806.6 390.687,1806.37 390.673,1806.37L390.765,1805.8C390.825,1805.81 392.219,1806.04 392.878,1806.33L392.654,1806.85Z" style="fill:rgb(56,58,69);fill-rule:nonzero;"/>
    </g>
    <g transform="matrix(2.4789,0,0,2.4789,-635.353,-4142.16)">
        <path d="M392.11,1807.72C391.933,1807.59 390.919,1807.52 390.08,1807.54L390.069,1806.96C390.521,1806.95 392.033,1806.95 392.455,1807.27L392.11,1807.72Z" style="fill:rgb(56,58,69);fill-rule:nonzero;"/>
    </g>
    <g transform="matrix(2.4789,0,0,2.4789,-635.353,-4142.16)">
        <path d="M399.38,1825.66C399.38,1825.66 392.8,1887.34 401.769,1895.09C410.738,1902.84 421.507,1895.09 421.507,1895.09L421.751,1898.4C421.751,1898.4 402.133,1913.84 396.261,1893.02C391.749,1877.02 399.38,1825.66 399.38,1825.66Z" style="fill:rgb(233,148,111);fill-rule:nonzero;"/>
    </g>
    <g transform="matrix(2.4789,0,0,2.4789,-635.353,-4142.16)">
        <path d="M405.643,1783.89C405.643,1786.25 403.73,1788.16 401.37,1788.16C399.01,1788.16 397.097,1786.25 397.097,1783.89C397.097,1781.53 399.01,1779.61 401.37,1779.61C403.73,1779.61 405.643,1781.53 405.643,1783.89Z" style="fill:rgb(172,171,167);fill-rule:nonzero;"/>
    </g>
    <g transform="matrix(2.4789,0,0,2.4789,-635.353,-4142.16)">
        <path d="M458.619,1695.53L457.498,1694.37L456.378,1695.53L455.258,1694.37L454.137,1695.53L453.017,1694.37L451.896,1695.53L450.776,1694.37L449.655,1695.53L448.535,1694.37L447.414,1695.53L446.294,1694.37L445.173,1695.53L444.053,1694.37L442.933,1695.53L441.812,1694.37L440.692,1695.53L439.571,1694.37L438.451,1695.53L437.33,1694.37L436.21,1695.53L435.09,1694.37L433.969,1695.53L432.849,1694.37L431.728,1695.53L430.608,1694.37L429.487,1695.53L428.367,1694.37L427.247,1695.53L426.126,1694.37L425.006,1695.53L423.885,1694.37L422.765,1695.53L421.678,1694.34L421.678,1751.35L422.765,1752.43L423.885,1751.31L425.006,1752.43L426.126,1751.31L427.247,1752.43L428.367,1751.31L429.487,1752.43L430.608,1751.31L431.728,1752.43L432.849,1751.31L433.969,1752.43L435.09,1751.31L436.21,1752.43L437.33,1751.31L438.451,1752.43L439.571,1751.31L440.692,1752.43L441.812,1751.31L442.933,1752.43L444.053,1751.31L445.173,1752.43L446.294,1751.31L447.414,1752.43L448.535,1751.31L449.655,1752.43L450.776,1751.31L451.896,1752.43L453.017,1751.31L454.137,1752.43L455.258,1751.31L456.378,1752.43L457.498,1751.31L458.619,1752.43L459.705,1751.35L459.705,1694.34L458.619,1695.53Z" style="fill:white;fill-rule:nonzero;"/>
    </g>
    <g transform="matrix(2.4789,0,0,2.4789,-635.353,-4142.16)">
        <rect x="424.293" y="1737.81" width="0.523" height="5.29" style="fill:rgb(37,61,122);fill-rule:nonzero;"/>
    </g>
    <g transform="matrix(2.4789,0,0,2.4789,-635.353,-4142.16)">
        <rect x="425.125" y="1737.81" width="1.657" height="5.29" style="fill:rgb(37,61,122);fill-rule:nonzero;"/>
    </g>
    <g transform="matrix(2.4789,0,0,2.4789,-635.353,-4142.16)">
        <rect x="427.093" y="1737.81" width="0.523" height="5.29" style="fill:rgb(37,61,122);fill-rule:nonzero;"/>
    </g>
    <g transform="matrix(2.4789,0,0,2.4789,-635.353,-4142.16)">
        <rect x="429.893" y="1737.81" width="0.523" height="5.29" style="fill:rgb(37,61,122);fill-rule:nonzero;"/>
    </g>
    <g transform="matrix(2.4789,0,0,2.4789,-635.353,-4142.16)">
        <rect x="431.557" y="1737.81" width="0.262" height="5.29" style="fill:rgb(37,61,122);fill-rule:nonzero;"/>
    </g>
    <g transform="matrix(2.4789,0,0,2.4789,-635.353,-4142.16)">
        <rect x="432.126" y="1737.81" width="0.262" height="5.29" style="fill:rgb(37,61,122);fill-rule:nonzero;"/>
    </g>
    <g transform="matrix(2.4789,0,0,2.4789,-635.353,-4142.16)">
        <rect x="432.701" y="1737.81" width="0.261" height="5.29" style="fill:rgb(37,61,122);fill-rule:nonzero;"/>
    </g>
    <g transform="matrix(2.4789,0,0,2.4789,-635.353,-4142.16)">
        <rect x="434.672" y="1737.81" width="0.262" height="5.29" style="fill:rgb(37,61,122);fill-rule:nonzero;"/>
    </g>
    <g transform="matrix(2.4789,0,0,2.4789,-635.353,-4142.16)">
        <rect x="430.726" y="1737.81" width="0.524" height="5.29" style="fill:rgb(37,61,122);fill-rule:nonzero;"/>
    </g>
    <g transform="matrix(2.4789,0,0,2.4789,-635.353,-4142.16)">
        <rect x="435.244" y="1737.81" width="0.524" height="5.29" style="fill:rgb(37,61,122);fill-rule:nonzero;"/>
    </g>
    <g transform="matrix(2.4789,0,0,2.4789,-635.353,-4142.16)">
        <rect x="433.269" y="1737.81" width="1.09" height="5.29" style="fill:rgb(37,61,122);fill-rule:nonzero;"/>
    </g>
    <g transform="matrix(2.4789,0,0,2.4789,-635.353,-4142.16)">
        <rect x="427.925" y="1737.81" width="1.657" height="5.29" style="fill:rgb(37,61,122);fill-rule:nonzero;"/>
    </g>
    <g transform="matrix(2.4789,0,0,2.4789,-635.353,-4142.16)">
        <rect x="436.077" y="1737.81" width="1.657" height="5.29" style="fill:rgb(37,61,122);fill-rule:nonzero;"/>
    </g>
    <g transform="matrix(2.4789,0,0,2.4789,-635.353,-4142.16)">
        <rect x="450.961" y="1737.81" width="0.523" height="5.29" style="fill:rgb(37,61,122);fill-rule:nonzero;"/>
    </g>
    <g transform="matrix(2.4789,0,0,2.4789,-635.353,-4142.16)">
        <rect x="448.995" y="1737.81" width="1.657" height="5.29" style="fill:rgb(37,61,122);fill-rule:nonzero;"/>
    </g>
    <g transform="matrix(2.4789,0,0,2.4789,-635.353,-4142.16)">
        <rect x="455.434" y="1737.81" width="1.657" height="5.29" style="fill:rgb(37,61,122);fill-rule:nonzero;"/>
    </g>
    <g transform="matrix(2.4789,0,0,2.4789,-635.353,-4142.16)">
        <rect x="448.161" y="1737.81" width="0.523" height="5.29" style="fill:rgb(37,61,122);fill-rule:nonzero;"/>
    </g>
    <g transform="matrix(2.4789,0,0,2.4789,-635.353,-4142.16)">
        <rect x="452.628" y="1737.81" width="0.524" height="5.29" style="fill:rgb(37,61,122);fill-rule:nonzero;"/>
    </g>
    <g transform="matrix(2.4789,0,0,2.4789,-635.353,-4142.16)">
        <rect x="445.361" y="1737.81" width="0.524" height="5.29" style="fill:rgb(37,61,122);fill-rule:nonzero;"/>
    </g>
    <g transform="matrix(2.4789,0,0,2.4789,-635.353,-4142.16)">
        <rect x="453.462" y="1737.81" width="0.523" height="5.29" style="fill:rgb(37,61,122);fill-rule:nonzero;"/>
    </g>
    <g transform="matrix(2.4789,0,0,2.4789,-635.353,-4142.16)">
        <rect x="443.959" y="1737.81" width="0.261" height="5.29" style="fill:rgb(37,61,122);fill-rule:nonzero;"/>
    </g>
    <g transform="matrix(2.4789,0,0,2.4789,-635.353,-4142.16)">
        <rect x="454.29" y="1737.81" width="0.262" height="5.29" style="fill:rgb(37,61,122);fill-rule:nonzero;"/>
    </g>
    <g transform="matrix(2.4789,0,0,2.4789,-635.353,-4142.16)">
        <rect x="443.384" y="1737.81" width="0.262" height="5.29" style="fill:rgb(37,61,122);fill-rule:nonzero;"/>
    </g>
    <g transform="matrix(2.4789,0,0,2.4789,-635.353,-4142.16)">
        <rect x="454.865" y="1737.81" width="0.262" height="5.29" style="fill:rgb(37,61,122);fill-rule:nonzero;"/>
    </g>
    <g transform="matrix(2.4789,0,0,2.4789,-635.353,-4142.16)">
        <rect x="442.815" y="1737.81" width="0.262" height="5.29" style="fill:rgb(37,61,122);fill-rule:nonzero;"/>
    </g>
    <g transform="matrix(2.4789,0,0,2.4789,-635.353,-4142.16)">
        <rect x="440.843" y="1737.81" width="0.262" height="5.29" style="fill:rgb(37,61,122);fill-rule:nonzero;"/>
    </g>
    <g transform="matrix(2.4789,0,0,2.4789,-635.353,-4142.16)">
        <rect x="444.528" y="1737.81" width="0.523" height="5.29" style="fill:rgb(37,61,122);fill-rule:nonzero;"/>
    </g>
    <g transform="matrix(2.4789,0,0,2.4789,-635.353,-4142.16)">
        <rect x="451.795" y="1737.81" width="0.523" height="5.29" style="fill:rgb(37,61,122);fill-rule:nonzero;"/>
    </g>
    <g transform="matrix(2.4789,0,0,2.4789,-635.353,-4142.16)">
        <rect x="440.01" y="1737.81" width="0.523" height="5.29" style="fill:rgb(37,61,122);fill-rule:nonzero;"/>
    </g>
    <g transform="matrix(2.4789,0,0,2.4789,-635.353,-4142.16)">
        <rect x="441.412" y="1737.81" width="1.09" height="5.29" style="fill:rgb(37,61,122);fill-rule:nonzero;"/>
    </g>
    <g transform="matrix(2.4789,0,0,2.4789,-635.353,-4142.16)">
        <rect x="446.195" y="1737.81" width="1.657" height="5.29" style="fill:rgb(37,61,122);fill-rule:nonzero;"/>
    </g>
    <g transform="matrix(2.4789,0,0,2.4789,-635.353,-4142.16)">
        <rect x="438.044" y="1737.81" width="1.657" height="5.29" style="fill:rgb(37,61,122);fill-rule:nonzero;"/>
    </g>
    <g transform="matrix(2.4789,0,0,2.4789,-635.353,-4142.16)">
        <rect x="423.758" y="1706.71" width="33.873" height="0.28" style="fill:rgb(37,61,122);fill-rule:nonzero;"/>
    </g>
    <g transform="matrix(2.4789,0,0,2.4789,-635.353,-4142.16)">
        <rect x="423.758" y="1736.27" width="33.873" height="0.27" style="fill:rgb(37,61,122);fill-rule:nonzero;"/>
    </g>
    <g transform="matrix(2.4789,0,0,2.4789,-635.353,-4142.16)">
        <rect x="423.758" y="1726.83" width="33.873" height="0.27" style="fill:rgb(37,61,122);fill-rule:nonzero;"/>
    </g>
    <g transform="matrix(2.4789,0,0,2.4789,-635.353,-4142.16)">
        <rect x="451.552" y="1720.31" width="6.056" height="0.8" style="fill:rgb(37,61,122);fill-rule:nonzero;"/>
    </g>
    <g transform="matrix(2.4789,0,0,2.4789,-635.353,-4142.16)">
        <rect x="451.552" y="1716.99" width="6.056" height="0.8" style="fill:rgb(37,61,122);fill-rule:nonzero;"/>
    </g>
    <g transform="matrix(2.4789,0,0,2.4789,-635.353,-4142.16)">
        <rect x="451.552" y="1713.67" width="6.056" height="0.8" style="fill:rgb(37,61,122);fill-rule:nonzero;"/>
    </g>
    <g transform="matrix(2.4789,0,0,2.4789,-635.353,-4142.16)">
        <rect x="451.552" y="1710.35" width="6.056" height="0.79" style="fill:rgb(37,61,122);fill-rule:nonzero;"/>
    </g>
    <g transform="matrix(2.4789,0,0,2.4789,-635.353,-4142.16)">
        <rect x="423.823" y="1720.31" width="12.322" height="0.8" style="fill:rgb(37,61,122);fill-rule:nonzero;"/>
    </g>
    <g transform="matrix(2.4789,0,0,2.4789,-635.353,-4142.16)">
        <rect x="423.823" y="1716.99" width="12.322" height="0.8" style="fill:rgb(37,61,122);fill-rule:nonzero;"/>
    </g>
    <g transform="matrix(2.4789,0,0,2.4789,-635.353,-4142.16)">
        <rect x="423.823" y="1713.67" width="12.322" height="0.8" style="fill:rgb(37,61,122);fill-rule:nonzero;"/>
    </g>
    <g transform="matrix(2.4789,0,0,2.4789,-635.353,-4142.16)">
        <rect x="423.823" y="1710.35" width="12.322" height="0.79" style="fill:rgb(37,61,122);fill-rule:nonzero;"/>
    </g>
    <g transform="matrix(2.4789,0,0,2.4789,-635.353,-4142.16)">
        <path d="M424.876,1733.66L424.876,1730.87L424.444,1730.87L424.444,1730.09L424.876,1730.09L424.876,1728.9L425.76,1728.9L425.76,1730.09L426.294,1730.09L426.294,1730.87L425.76,1730.87L425.76,1733.66L424.876,1733.66Z" style="fill:rgb(37,61,122);fill-rule:nonzero;"/>
    </g>
    <g transform="matrix(2.4789,0,0,2.4789,-635.353,-4142.16)">
        <path d="M428.518,1730.01C428.869,1730.01 429.194,1730.09 429.493,1730.26C429.792,1730.43 430.029,1730.65 430.202,1730.94C430.375,1731.23 430.462,1731.54 430.462,1731.88C430.462,1732.22 430.374,1732.53 430.199,1732.81C430.025,1733.1 429.788,1733.32 429.487,1733.49C429.185,1733.66 428.858,1733.74 428.505,1733.74C428.149,1733.74 427.82,1733.66 427.516,1733.49C427.215,1733.32 426.976,1733.1 426.801,1732.81C426.625,1732.53 426.538,1732.22 426.538,1731.88C426.538,1731.62 426.588,1731.38 426.69,1731.15C426.794,1730.92 426.934,1730.72 427.11,1730.55C427.288,1730.39 427.499,1730.25 427.744,1730.16C427.989,1730.06 428.247,1730.01 428.518,1730.01ZM428.482,1730.79C428.196,1730.79 427.949,1730.9 427.741,1731.11C427.535,1731.33 427.432,1731.58 427.432,1731.87C427.432,1732.17 427.536,1732.43 427.744,1732.64C427.952,1732.85 428.202,1732.95 428.495,1732.95C428.79,1732.95 429.042,1732.85 429.253,1732.64C429.463,1732.43 429.568,1732.18 429.568,1731.88C429.568,1731.57 429.463,1731.32 429.253,1731.11C429.042,1730.9 428.785,1730.79 428.482,1730.79Z" style="fill:rgb(37,61,122);fill-rule:nonzero;"/>
    </g>
    <g transform="matrix(2.4789,0,0,2.4789,-635.353,-4142.16)">
        <path d="M431.106,1733.66L431.106,1730.87L430.674,1730.87L430.674,1730.09L431.106,1730.09L431.106,1728.9L431.99,1728.9L431.99,1730.09L432.524,1730.09L432.524,1730.87L431.99,1730.87L431.99,1733.66L431.106,1733.66Z" style="fill:rgb(37,61,122);fill-rule:nonzero;"/>
    </g>
    <g transform="matrix(2.4789,0,0,2.4789,-635.353,-4142.16)">
        <path d="M436.663,1730.09L436.663,1733.66L435.853,1733.66L435.853,1733.19C435.675,1733.39 435.491,1733.53 435.3,1733.61C435.112,1733.7 434.888,1733.74 434.627,1733.74C434.272,1733.74 433.952,1733.66 433.668,1733.5C433.386,1733.35 433.165,1733.12 433.005,1732.84C432.847,1732.56 432.768,1732.24 432.768,1731.89C432.768,1731.53 432.848,1731.21 433.008,1730.92C433.169,1730.63 433.392,1730.41 433.678,1730.25C433.964,1730.09 434.287,1730.01 434.647,1730.01C434.914,1730.01 435.143,1730.05 435.336,1730.14C435.529,1730.23 435.701,1730.37 435.853,1730.57L435.853,1730.09L436.663,1730.09ZM434.725,1730.79C434.417,1730.79 434.162,1730.9 433.961,1731.11C433.761,1731.32 433.662,1731.58 433.662,1731.91C433.662,1732.22 433.762,1732.47 433.964,1732.67C434.168,1732.86 434.431,1732.95 434.754,1732.95C435.075,1732.95 435.333,1732.86 435.528,1732.66C435.725,1732.46 435.824,1732.2 435.824,1731.89C435.824,1731.56 435.721,1731.3 435.515,1731.1C435.311,1730.89 435.048,1730.79 434.725,1730.79Z" style="fill:rgb(37,61,122);fill-rule:nonzero;"/>
    </g>
    <g transform="matrix(2.4789,0,0,2.4789,-635.353,-4142.16)">
        <rect x="437.385" y="1728.9" width="0.884" height="4.76" style="fill:rgb(37,61,122);fill-rule:nonzero;"/>
    </g>
    <g transform="matrix(2.4789,0,0,2.4789,-635.353,-4142.16)">
        <path d="M455.922,1733.42C455.54,1733.63 455.125,1733.74 454.676,1733.74C454.181,1733.74 453.728,1733.61 453.318,1733.36C452.909,1733.11 452.6,1732.77 452.393,1732.35L451.403,1732.35L451.685,1731.58L452.162,1731.58C452.154,1731.46 452.15,1731.38 452.15,1731.32L452.15,1731.25L451.416,1731.25L451.698,1730.47L452.313,1730.47C452.497,1730 452.803,1729.63 453.232,1729.34C453.661,1729.05 454.143,1728.9 454.676,1728.9C455.257,1728.9 455.779,1729.08 456.242,1729.43L455.922,1730.31C455.773,1730.13 455.589,1729.99 455.371,1729.89C455.154,1729.79 454.922,1729.74 454.676,1729.74C454.397,1729.74 454.136,1729.8 453.895,1729.94C453.654,1730.07 453.459,1730.25 453.312,1730.47L455.871,1730.47L455.586,1731.25L453.056,1731.25L453.056,1731.32C453.056,1731.41 453.062,1731.49 453.075,1731.58L455.464,1731.58L455.179,1732.35L453.45,1732.35C453.599,1732.52 453.781,1732.66 453.994,1732.76C454.208,1732.86 454.435,1732.9 454.676,1732.9C454.922,1732.9 455.154,1732.85 455.371,1732.75C455.589,1732.65 455.773,1732.51 455.922,1732.34L455.922,1733.42Z" style="fill:rgb(37,61,122);fill-rule:nonzero;"/>
    </g>
    <g transform="matrix(2.4789,0,0,2.4789,-635.353,-4142.16)">
        <path d="M430.665,1704.01L430.665,1697.9L432.426,1697.9C432.859,1697.9 433.201,1697.94 433.454,1698.01C433.707,1698.08 433.934,1698.21 434.135,1698.39C434.536,1698.75 434.736,1699.24 434.736,1699.86C434.736,1700.49 434.515,1700.98 434.075,1701.33C433.948,1701.43 433.818,1701.52 433.684,1701.58C433.552,1701.64 433.372,1701.7 433.144,1701.76L434.792,1704.01L433.398,1704.01C433.398,1704.01 432.864,1703.23 431.798,1701.67L431.798,1704.01L430.665,1704.01ZM431.798,1700.82L432.35,1700.82C432.788,1700.82 433.105,1700.75 433.301,1700.6C433.497,1700.45 433.595,1700.22 433.595,1699.89C433.595,1699.58 433.492,1699.34 433.285,1699.18C433.116,1699.05 432.788,1698.99 432.301,1698.99L431.798,1698.99L431.798,1700.82Z" style="fill:rgb(37,61,122);fill-rule:nonzero;"/>
    </g>
    <g transform="matrix(2.4789,0,0,2.4789,-635.353,-4142.16)">
        <path d="M435.647,1704.01L435.647,1697.9L438.923,1697.9L438.923,1698.99L436.779,1698.99L436.779,1700.42L438.835,1700.42L438.835,1701.51L436.779,1701.51L436.779,1702.93L438.923,1702.93L438.923,1704.01L435.647,1704.01Z" style="fill:rgb(37,61,122);fill-rule:nonzero;"/>
    </g>
    <g transform="matrix(2.4789,0,0,2.4789,-635.353,-4142.16)">
        <path d="M442.732,1704.12C442.732,1704.12 442.689,1704.25 442.603,1704.49C442.713,1704.45 442.792,1704.43 442.841,1704.43C443.045,1704.43 443.221,1704.52 443.369,1704.68C443.517,1704.84 443.59,1705.04 443.59,1705.27C443.59,1705.51 443.518,1705.71 443.373,1705.86C443.228,1706.01 443.037,1706.09 442.801,1706.09C442.591,1706.09 442.408,1706.02 442.252,1705.89C442.099,1705.76 442.007,1705.59 441.974,1705.39L442.486,1705.39C442.551,1705.55 442.653,1705.63 442.792,1705.63C442.884,1705.63 442.96,1705.6 443.022,1705.52C443.084,1705.45 443.115,1705.36 443.115,1705.25C443.115,1705.15 443.084,1705.07 443.022,1704.99C442.96,1704.92 442.886,1704.89 442.801,1704.89C442.739,1704.89 442.684,1704.91 442.635,1704.94C442.59,1704.97 442.54,1705.03 442.486,1705.11L442.047,1704.9L442.321,1704.07C441.835,1704 441.39,1703.81 440.987,1703.51C440.584,1703.21 440.267,1702.83 440.036,1702.38C439.805,1701.92 439.689,1701.44 439.689,1700.94C439.689,1700.51 439.772,1700.1 439.939,1699.72C440.106,1699.33 440.329,1698.99 440.608,1698.71C440.887,1698.43 441.221,1698.21 441.608,1698.04C441.994,1697.88 442.4,1697.79 442.825,1697.79C443.209,1697.79 443.578,1697.86 443.933,1697.99C444.29,1698.11 444.611,1698.3 444.896,1698.54C445.09,1698.7 445.246,1698.87 445.364,1699.03C445.482,1699.19 445.599,1699.4 445.714,1699.66L444.449,1699.66C444.242,1699.39 444.012,1699.19 443.76,1699.07C443.507,1698.95 443.204,1698.88 442.849,1698.88C442.212,1698.88 441.706,1699.11 441.329,1699.55C441.174,1699.74 441.05,1699.95 440.959,1700.2C440.87,1700.44 440.826,1700.69 440.826,1700.94C440.826,1701.32 440.917,1701.67 441.1,1701.99C441.282,1702.31 441.531,1702.56 441.845,1702.75C442.16,1702.94 442.502,1703.03 442.873,1703.03C443.166,1703.03 443.428,1702.97 443.659,1702.86C443.893,1702.75 444.135,1702.57 444.384,1702.31L445.714,1702.31C445.467,1702.87 445.088,1703.32 444.578,1703.64C444.07,1703.96 443.494,1704.12 442.849,1704.12L442.732,1704.12Z" style="fill:rgb(37,61,122);fill-rule:nonzero;"/>
    </g>
    <g transform="matrix(2.4789,0,0,2.4789,-635.353,-4142.16)">
        <path d="M446.593,1697.9L447.726,1697.9L447.726,1701.77C447.726,1702 447.735,1702.17 447.754,1702.29C447.775,1702.41 447.816,1702.52 447.875,1702.62C447.953,1702.75 448.06,1702.85 448.197,1702.92C448.334,1702.99 448.485,1703.03 448.649,1703.03C448.818,1703.03 448.971,1702.99 449.108,1702.92C449.248,1702.85 449.357,1702.75 449.434,1702.62C449.494,1702.52 449.533,1702.41 449.551,1702.29C449.573,1702.17 449.584,1702 449.584,1701.77L449.584,1697.9L450.712,1697.9L450.712,1701.77C450.712,1702.14 450.677,1702.45 450.607,1702.7C450.54,1702.94 450.43,1703.17 450.277,1703.37C450.091,1703.6 449.854,1703.79 449.563,1703.92C449.276,1704.06 448.971,1704.12 448.649,1704.12C448.283,1704.12 447.943,1704.04 447.629,1703.87C447.317,1703.7 447.074,1703.46 446.899,1703.17C446.695,1702.82 446.593,1702.36 446.593,1701.77L446.593,1697.9Z" style="fill:rgb(37,61,122);fill-rule:nonzero;"/>
    </g>
</svg>
