<svg width="186" height="179" viewBox="0 0 186 179" fill="none" xmlns="http://www.w3.org/2000/svg">
<path opacity="0.1" d="M186 85.5C186 132.72 127.235 171 92.3556 171C57.4757 171 18 144.013 18 96.7925C18 49.5721 29.2 11.2925 92.3556 0C127.235 0 186 38.2797 186 85.5Z" fill="url(#paint0_linear)"/>
<path d="M32.5917 81.0671C32.5917 81.0671 37.6582 69.5424 31.7956 70.4847C31.7956 70.4847 29.769 72.1518 27.7424 75.5585C26.1501 78.0954 22.9655 84.9087 23.0378 87.2281C23.1826 89.5476 24.7749 91.2147 26.5844 94.9113C26.5844 94.9113 30.2756 101.725 30.4204 102.594L34.3288 100.565C34.3288 100.565 31.0718 94.0415 28.7557 88.2429L32.5917 81.0671Z" fill="#427FA9"/>
<path d="M2.77204 115.641L80.7231 102.377L78.4793 89.1123L0.52832 102.377L2.77204 115.641Z" fill="url(#paint1_linear)"/>
<path d="M80.5008 100.715L84.6392 100.01L82.9267 89.9346L78.7884 90.6401L80.5008 100.715Z" fill="#2D3038"/>
<path d="M62.0498 178.846H62.9907C62.9907 178.846 62.7012 175.221 63.5697 175.149C64.4383 175.149 66.682 178.121 67.9848 178.556C69.2876 178.991 76.0187 179.425 76.0911 178.193C76.0911 176.961 73.4855 176.454 72.6893 176.091C71.8932 175.729 67.9124 171.887 67.1886 171.38C66.4648 170.945 65.2344 167.683 65.2344 167.683L61.4708 167.538C61.4708 167.538 61.2536 170.51 61.0365 172.105C60.9641 172.685 60.8917 173.264 60.8917 173.627C60.8194 175.004 62.0498 178.846 62.0498 178.846Z" fill="#EEA886"/>
<path d="M37.7306 178.121H38.5268V174.714C39.1782 174.787 41.4219 176.889 42.1457 177.541C42.8695 178.121 43.8104 178.121 46.7055 178.338C49.6006 178.556 49.8901 176.744 49.4558 176.164C49.0216 175.584 47.5016 175.294 46.7055 174.932C45.9093 174.569 42.8695 171.09 42.0733 170.293C41.2771 169.495 40.7705 167.104 40.7705 167.104L37.3687 167.393C37.3687 167.393 37.3687 169.568 37.0068 171.307C37.0068 171.452 36.9345 171.597 36.8621 171.742C36.3554 173.627 37.7306 178.121 37.7306 178.121Z" fill="#EEA886"/>
<path d="M50.3968 101.507C50.3968 101.507 51.6996 104.551 51.772 105.349C51.9168 106.146 54.8843 113.394 55.7528 118.323C56.2594 121.295 57.707 130.5 57.8517 131.66C58.0689 133.689 59.0098 138.111 59.1545 140.14C59.2269 141.3 64.8724 158.913 66.2476 168.118C66.2476 168.118 62.9906 168.626 60.5297 167.973C60.5297 167.973 55.608 158.478 52.8577 144.996C51.193 136.878 49.7454 132.529 48.4426 129.195C47.1398 125.861 39.902 116.366 39.1059 115.351C38.3821 114.264 33.6051 108.393 38.0926 102.014C42.6524 95.636 50.3968 101.507 50.3968 101.507Z" fill="#1D3B54"/>
<path d="M34.1116 128.543C34.5459 131.297 34.1116 134.921 33.2431 144.924C32.3746 154.926 34.763 167.103 34.763 167.103C37.7305 168.118 41.1323 167.103 41.1323 167.103C41.0599 166.379 41.1323 142.677 41.1323 140.575C41.1323 138.473 41.7113 136.081 41.9285 133.616C42.0008 131.949 42.797 128.905 43.6655 125.788C43.955 124.846 44.1722 123.904 44.4617 123.034C44.6064 122.527 44.7512 122.019 44.896 121.512C46.1264 117.308 47.7187 100.927 47.7187 100.927C47.7187 100.927 38.6715 93.6063 34.2564 100.492C29.8413 107.378 32.0851 112.379 32.2298 113.249C32.3746 114.119 33.6774 125.788 34.1116 128.543Z" fill="#1D3B54"/>
<path d="M37.8755 113.829C37.9479 113.974 42.4353 124.049 43.6657 125.788C43.9552 124.846 44.1724 123.904 44.4619 123.034C44.4619 123.034 38.0202 114.046 37.8755 113.829Z" fill="#122536"/>
<path d="M37.7303 178.121H38.5265V174.714C39.1779 174.787 41.4216 176.889 42.1453 177.541C42.8691 178.121 43.81 178.121 46.7052 178.338C49.6003 178.556 49.8898 176.744 49.4555 176.164C49.0212 175.584 47.5013 175.294 46.7052 174.932C43.5929 175.076 39.7569 170.728 37.9474 170.728C37.0065 170.728 37.0065 171.307 36.9341 171.38C36.9341 171.525 36.8618 171.67 36.7894 171.815C36.3551 173.627 37.7303 178.121 37.7303 178.121Z" fill="#172F42"/>
<path d="M62.0497 178.846H62.9906C62.9906 178.846 62.7011 175.221 63.5696 175.149C64.4381 175.149 66.6818 178.121 67.9846 178.556C69.2874 178.99 76.0186 179.425 76.091 178.193C76.091 176.961 73.4854 176.454 72.6892 176.091C69.9388 176.091 65.379 173.047 64.0039 172.395C62.6287 171.742 61.1087 172.177 61.1087 172.177C61.0364 172.757 60.964 173.337 60.964 173.699C60.8192 175.004 62.0497 178.846 62.0497 178.846Z" fill="#172F42"/>
<path d="M42.3631 63.1636C42.3631 63.1636 40.9156 67.0052 42.0736 69.9769C42.0736 69.9769 36.79 69.6145 36.5729 69.0347C36.3558 68.3823 36.79 62.6562 36.0662 60.9891C35.2701 59.2496 42.3631 63.1636 42.3631 63.1636Z" fill="#EEA886"/>
<path d="M42.8694 68.6723C42.8694 68.6723 45.9817 69.7595 47.4292 70.1219C48.8768 70.4119 51.8443 71.8615 51.5548 77.1527C51.3376 82.4439 50.3967 87.0103 50.1072 89.3297C49.8177 91.5767 49.9625 97.3753 50.5415 100.202C50.5415 100.202 43.0142 102.087 34.1841 100.202C34.1841 100.202 35.7764 95.4183 35.704 94.1861C35.6316 92.9539 30.4928 82.7339 30.2033 81.1392C29.9138 79.5446 28.9005 72.4414 31.289 70.8468C33.6774 69.2521 35.5593 69.4696 36.5726 68.7448C37.5858 67.9475 41.4219 68.1649 42.8694 68.6723Z" fill="#427FA9"/>
<path d="M30.7826 108.465C43.6658 111.872 53.8711 108.465 53.8711 108.465C52.9302 106.581 52.2788 104.624 51.7722 102.812C51.4103 101.507 51.1931 100.202 50.976 98.97C49.9627 91.9392 51.2655 86.5755 51.2655 86.5755C49.7456 74.3985 31.2892 70.7743 29.8417 74.6159C28.3941 78.4575 32.7368 95.1284 32.9539 96.578C33.0987 98.0277 30.7826 108.465 30.7826 108.465Z" fill="#427FA9"/>
<path d="M37.7308 47.7975C39.8298 47.0726 45.62 46.2753 47.14 55.1182C48.5875 63.961 45.4029 64.106 42.0735 63.8885C38.7441 63.6711 33.6053 57.6551 33.171 55.843C32.8091 54.0309 31.6511 49.8994 37.7308 47.7975Z" fill="#EEA886"/>
<path d="M45.9093 51.2044C45.9093 51.2044 44.1723 54.9734 41.8562 56.2781C41.8562 56.2781 40.4086 60.2646 37.2964 61.9317C37.2964 61.9317 28.9729 56.4231 33.8222 49.8272C38.6715 43.2313 45.4027 48.5225 45.9093 51.2044Z" fill="#E8734D"/>
<path d="M42.0734 54.9732C41.8562 54.5383 40.6258 53.741 40.0468 55.0456C39.4678 56.2778 41.4943 58.5248 42.0734 58.4523C42.58 58.3073 42.7972 56.7127 42.0734 54.9732Z" fill="#EEA886"/>
<path d="M34.0397 50.8418C33.8226 50.5518 28.3219 48.015 27.2362 53.3062C26.0782 58.6699 31.6513 64.9033 32.5922 67.5852C33.6055 70.267 32.1579 76.5005 32.1579 76.5005C32.1579 76.5005 35.4873 73.3113 36.5006 69.9771C37.6586 66.2805 38.0205 57.0753 34.0397 50.8418Z" fill="#E8734D"/>
<path d="M33.75 50.6245C33.75 50.6245 35.4147 51.9292 35.6318 54.1036C35.6318 54.1036 35.9213 52.4365 35.2699 51.4218C34.6185 50.4795 33.75 50.6245 33.75 50.6245Z" fill="#E54242"/>
<path d="M51.6999 102.812C51.338 101.507 51.1209 100.202 50.9037 98.97C50.9037 98.97 50.0352 97.1579 49.7457 96.2881C49.4562 95.4184 47.3572 84.8359 47.3572 84.8359C47.3572 84.8359 45.1135 94.8385 51.6999 102.812Z" fill="#1D3B54"/>
<path d="M61.1809 103.464C61.1809 103.464 62.8456 105.131 63.3523 105.276C63.8589 105.421 64.9446 104.551 68.7082 104.261C69.0701 104.261 69.6491 104.551 69.5044 104.986C69.3596 105.421 67.6949 106.653 66.9712 106.798C66.2474 107.015 62.918 108.32 61.2533 107.668C59.5886 107.015 58.5029 104.914 58.5029 104.914L61.1809 103.464Z" fill="#EEA886"/>
<path d="M48.2975 70.4119C48.2975 70.4119 52.7125 72.1514 52.9297 78.3124C53.2192 84.4734 53.4363 87.6627 53.6534 88.6049C53.8706 89.5472 54.3772 93.3163 55.4629 95.6357C56.5486 97.8827 63.5692 104.841 63.5692 104.841L60.1675 108.03C60.1675 108.03 50.3241 98.1726 49.745 96.3605C49.166 94.5485 46.7052 82.009 46.488 79.8346C46.4156 78.095 44.1719 70.4843 48.2975 70.4119Z" fill="#427FA9"/>
<path opacity="0.1" d="M171.128 94.3209C176.55 71.911 162.805 49.3423 140.427 43.9122C118.05 38.4821 95.5137 52.2469 90.0914 74.6568C84.6691 97.0666 98.4141 119.635 120.792 125.065C143.169 130.496 165.705 116.731 171.128 94.3209Z" fill="#B8B8B8"/>
<path opacity="0.3" d="M103.087 54.0309C103.087 54.0309 156.285 47.435 166.925 103.681C169.965 97.9551 171.702 91.3592 171.702 84.4009C171.702 61.714 153.318 43.3035 130.663 43.3035C120.096 43.3035 110.398 47.3625 103.087 54.0309Z" fill="#869AC2"/>
<path d="M130.592 35.4756C103.595 35.4756 81.6641 57.4377 81.6641 84.4736C81.6641 111.51 103.595 133.472 130.592 133.472C157.589 133.472 179.519 111.51 179.519 84.4736C179.519 57.4377 157.661 35.4756 130.592 35.4756ZM130.592 125.499C107.937 125.499 89.6256 107.161 89.6256 84.4736C89.6256 61.7867 107.937 43.4486 130.592 43.4486C153.246 43.4486 171.557 61.7867 171.557 84.4736C171.557 107.161 153.246 125.499 130.592 125.499Z" fill="#3F444F"/>
<defs>
<linearGradient id="paint0_linear" x1="18" y1="0" x2="211.583" y2="39.8886" gradientUnits="userSpaceOnUse">
<stop stop-color="#407CA8"/>
<stop offset="0.276042" stop-color="#2A8194"/>
<stop offset="1" stop-color="#743B49"/>
</linearGradient>
<linearGradient id="paint1_linear" x1="0.52832" y1="102.358" x2="80.7353" y2="102.358" gradientUnits="userSpaceOnUse">
<stop stop-color="#FF9F55"/>
<stop offset="1" stop-color="#FFD255"/>
</linearGradient>
</defs>
</svg>
