<svg role="img" width="47" height="47" viewBox="0 0 47 47" fill="none" xmlns="http://www.w3.org/2000/svg">
<g clip-path="url(#clip0)">
<path d="M15.1433 41.5075V47H31.8865V41.5009L37.523 35.8644L36.0514 31.3506L10.0629 31.9429L11.478 38.6884" fill="#DD636E"/>
<path d="M32.1192 34.4272L27.6604 39.122L23.5149 34.9266L19.3693 39.122L14.9106 34.4272" fill="#D82E3D"/>
<path d="M22.8057 31.3925H24.2242V47H22.8057V31.3925Z" fill="#D82E3D"/>
<path d="M12.2826 30.0441C12.2826 30.0441 11.2584 35.3919 12.6798 36.8132C12.6798 36.8132 13.403 33.1702 14.1115 32.4617C14.82 31.7532 12.2826 30.0441 12.2826 30.0441Z" fill="#D82E3D"/>
<path d="M37.8393 24.663H37.8593C39.5813 24.663 40.9766 23.2665 40.9766 21.5457C40.9766 19.8237 39.5813 18.4272 37.8593 18.4272C37.8369 18.4272 37.8145 18.4272 37.7921 18.4284H9.24617C9.22377 18.4272 9.20137 18.4272 9.17898 18.4272C7.45696 18.4272 6.06165 19.8237 6.06165 21.5457C6.06165 23.2665 7.45696 24.663 9.17898 24.663H9.19899" fill="#F1B986"/>
<path d="M37.1221 10.2866C28.0534 9.40733 18.9847 9.40733 9.91612 10.2866C9.21241 15.9251 9.00513 21.5636 9.29429 27.2022C9.50478 31.3069 12.7893 34.5739 16.8947 34.7678C21.311 34.9762 25.7273 34.9762 30.1436 34.7678C34.249 34.574 37.5334 31.3069 37.744 27.2022C38.033 21.5636 37.8258 15.9251 37.1221 10.2866Z" fill="#F1D0A5"/>
<path d="M23.5191 30.7755C22.0595 30.7755 20.712 29.9233 20.086 28.6045C19.8984 28.2092 20.0667 27.7367 20.462 27.5492C20.8573 27.3614 21.3298 27.53 21.5173 27.9252C21.8824 28.6943 22.6682 29.1912 23.5191 29.1912C24.3702 29.1912 25.1559 28.6942 25.5209 27.9252C25.7085 27.53 26.1809 27.3615 26.5763 27.5492C26.9715 27.7367 27.14 28.2093 26.9523 28.6045C26.3264 29.9233 24.9788 30.7755 23.5191 30.7755Z" fill="#DD636E"/>
<path d="M9.91664 10.2857C14.4502 9.84595 18.9851 9.62683 23.5199 9.62683C21.2241 9.62683 18.9282 9.8487 16.6323 10.2925C16.2751 15.9854 16.1709 21.6784 16.3171 27.37C16.4131 31.1161 17.7823 34.1709 19.5789 34.8677C18.6846 34.8433 17.789 34.8095 16.8948 34.7675C12.7901 34.574 9.50529 31.3068 9.29425 27.2022C9.0062 21.5634 9.2132 15.9245 9.91664 10.2857Z" fill="#F1B986"/>
<path d="M37.7924 18.4283C31.4015 18.4283 21.5846 14.2902 17.3762 12.3719C16.1064 11.7926 15.3468 11.4162 15.3468 11.4162C15.3468 11.4162 12.9093 17.6449 9.24619 18.4284C9.22352 18.4273 9.20194 18.4273 9.17927 18.4273C8.51494 18.4273 7.89925 18.6347 7.39364 18.9896C6.18513 10.2847 4.8281 4.62967 7.88236 2.93363C10.9355 1.23639 13.0284 3.32927 13.0284 3.32927C13.0284 3.32927 16.0861 1.71144 20.3036 0.731879C25.3158 -0.433574 31.9651 -0.697765 37.0635 3.72492C42.4159 8.36874 40.9704 14.5146 37.7924 18.4283Z" fill="#617881"/>
<path d="M17.3762 12.3719C16.1064 11.7926 15.3468 11.4162 15.3468 11.4162C15.3468 11.4162 12.9093 17.6449 9.24619 18.4284C9.22352 18.4273 9.20194 18.4273 9.17927 18.4273C8.51494 18.4273 7.89925 18.6347 7.39364 18.9896C6.18513 10.2847 4.8281 4.62966 7.88236 2.93362C10.9355 1.23639 13.0284 3.32927 13.0284 3.32927C13.0284 3.32927 16.0861 1.71144 20.3036 0.731873C15.272 1.95286 15.0328 9.29386 17.3762 12.3719Z" fill="#475959"/>
<path d="M16.384 40.4805C16.384 40.4805 15.06 41.8045 13.6095 42.3576C13.0856 42.5572 12.5455 42.6565 12.0443 42.5562C6.66622 41.8016 7.32725 33.2168 7.32725 28.2161C7.32725 26.9366 12.2826 30.044 12.2826 30.044C12.2826 30.044 11.2584 35.3918 12.6798 36.8131L16.384 40.4805Z" fill="#DD636E"/>
<path d="M13.6095 42.3577C13.0856 42.5572 12.5455 42.6566 12.0443 42.5562C6.66622 41.8017 7.32725 33.2168 7.32725 28.2161C7.32725 26.9366 7.67149 25.85 8.18307 24.9431L11.6669 24.1591C11.6669 24.1591 8.93112 27.084 8.93112 31.3292C8.93112 35.5753 10.5993 41.4508 13.6095 42.3577Z" fill="#D82E3D"/>
<path d="M12.5737 21.1783L12.2824 30.044L9.22502 28.9158L7.32703 28.216C7.32703 25.7733 8.57914 24.0371 9.86053 22.9014V22.9005C11.2015 21.7117 12.5737 21.1783 12.5737 21.1783Z" fill="#F1D0A5"/>
<path d="M34.9947 42.5563C33.1071 42.9336 30.6541 40.4806 30.6541 40.4806L34.3582 36.8133C35.7805 35.3919 34.7554 30.0442 34.7554 30.0442C34.7554 30.0442 35.0571 29.6291 35.5119 29.0777C36.8993 27.3954 39.7117 24.4496 39.7117 28.2162C39.7117 33.2168 40.3718 41.8016 34.9947 42.5563Z" fill="#DD636E"/>
<path d="M34.3582 36.8132C35.7804 35.3918 34.7554 30.0441 34.7554 30.0441C34.7554 30.0441 35.057 29.629 35.5119 29.0776L36.5512 29.3821C36.5512 29.382 36.7744 36.3725 34.3582 36.8132Z" fill="#D82E3D"/>
<path d="M39.7108 28.216L36.5513 29.382L34.7555 30.044L34.4642 21.1783C34.4642 21.1783 35.5309 21.5925 36.7026 22.5061L36.7234 22.5231C38.1447 23.6361 39.7108 25.484 39.7108 28.216Z" fill="#F1D0A5"/>
<path d="M36.5512 29.382L34.7554 30.044L34.4641 21.1783C34.4641 21.1783 35.5308 21.5925 36.7025 22.5061L36.7233 22.5231C36.0935 23.8451 35.3729 27.12 36.5512 29.382Z" fill="#F1B986"/>
<path d="M19.4277 22.7214H27.6107V26.6754H19.4277V22.7214Z" fill="#475959"/>
<path d="M11.0784 26.6754C11.0784 20.6318 15.424 17.7103 17.6596 17.7103C19.8951 17.7103 21.7074 19.5227 21.7074 21.7582V26.6754H11.0784Z" fill="#475959"/>
<path d="M16.3929 31.99C19.3281 31.99 21.7075 29.6106 21.7075 26.6754C21.7075 23.7403 19.3281 21.3608 16.3929 21.3608C13.4578 21.3608 11.0784 23.7403 11.0784 26.6754C11.0784 29.6106 13.4578 31.99 16.3929 31.99Z" fill="#617881"/>
<path d="M16.3929 30.6294C18.5766 30.6294 20.3469 28.8591 20.3469 26.6754C20.3469 24.4917 18.5766 22.7214 16.3929 22.7214C14.2092 22.7214 12.439 24.4917 12.439 26.6754C12.439 28.8591 14.2092 30.6294 16.3929 30.6294Z" fill="#B1E4F9"/>
<path d="M20.3469 26.6755C20.3469 28.859 18.5766 30.6293 16.3931 30.6293C16.1273 30.6293 15.8683 30.6029 15.6176 30.5527C17.4304 30.1933 18.7969 28.5942 18.7969 26.6755C18.7969 24.7567 17.4304 23.1575 15.6176 22.7982C15.8682 22.7481 16.1273 22.7217 16.3931 22.7217C18.5766 22.7216 20.3469 24.4919 20.3469 26.6755Z" fill="#E4F6FF"/>
<path d="M20.3468 26.6755C20.3468 28.8591 18.5765 30.6294 16.393 30.6294C14.2094 30.6294 12.4391 28.8591 12.4391 26.6755C12.4391 26.4344 12.4608 26.198 12.5024 25.9681C12.8362 27.815 14.4515 29.2146 16.393 29.2146C18.3345 29.2146 19.9496 27.815 20.2835 25.9681C20.3251 26.198 20.3468 26.4344 20.3468 26.6755Z" fill="#475959"/>
<path d="M35.9599 26.6754C35.9599 20.6318 31.6142 17.7103 29.3786 17.7103C27.1429 17.7103 25.3307 19.5227 25.3307 21.7582V26.6754H35.9599Z" fill="#475959"/>
<path d="M30.6453 31.99C33.5804 31.99 35.9599 29.6106 35.9599 26.6754C35.9599 23.7403 33.5804 21.3608 30.6453 21.3608C27.7101 21.3608 25.3307 23.7403 25.3307 26.6754C25.3307 29.6106 27.7101 31.99 30.6453 31.99Z" fill="#617881"/>
<path d="M30.6453 30.6294C32.829 30.6294 34.5992 28.8591 34.5992 26.6754C34.5992 24.4917 32.829 22.7214 30.6453 22.7214C28.4615 22.7214 26.6913 24.4917 26.6913 26.6754C26.6913 28.8591 28.4615 30.6294 30.6453 30.6294Z" fill="#B1E4F9"/>
<path d="M34.5993 26.6755C34.5993 28.859 32.8289 30.6293 30.6454 30.6293C30.3796 30.6293 30.1206 30.6029 29.8699 30.5527C31.6828 30.1933 33.0493 28.5942 33.0493 26.6755C33.0493 24.7567 31.6828 23.1575 29.8699 22.7982C30.1205 22.7481 30.3796 22.7217 30.6454 22.7217C32.8289 22.7216 34.5993 24.4919 34.5993 26.6755Z" fill="#E4F6FF"/>
<path d="M34.5992 26.6755C34.5992 28.8591 32.8289 30.6294 30.6453 30.6294C28.4617 30.6294 26.6914 28.8591 26.6914 26.6755C26.6914 26.4344 26.7132 26.198 26.7547 25.9681C27.0885 27.815 28.7038 29.2146 30.6453 29.2146C32.5868 29.2146 34.202 27.815 34.5358 25.9681C34.5774 26.198 34.5992 26.4344 34.5992 26.6755Z" fill="#475959"/>
<path d="M9.22502 28.9159L7.32703 28.2162C7.32703 25.7734 8.57913 24.0372 9.86053 22.9015C9.86053 22.9014 11.1457 26.9962 9.22502 28.9159Z" fill="#F1B986"/>
</g>
<defs>
<clipPath id="clip0">
<rect width="47" height="47" fill="white"/>
</clipPath>
</defs>
</svg>
