<svg role="img" width="143" height="145" viewBox="0 0 143 145" fill="none" xmlns="http://www.w3.org/2000/svg">
<mask id="mask0" mask-type="alpha" maskUnits="userSpaceOnUse" x="0" y="0" width="143" height="145">
<rect width="143" height="145" fill="#C4C4C4"/>
</mask>
<g mask="url(#mask0)">
<path d="M45.9433 119.726C47.2537 117.274 49.4457 115.388 51.8359 113.952C54.226 112.517 56.8265 111.489 59.3704 110.352C64.1023 108.239 69.0565 106.042 72.6034 102.273C79.6365 94.7979 89.5774 96.0034 98.5072 92.3104C99.4374 91.9234 100.133 90.8671 100.04 89.8672C99.947 88.9077 99.0047 88.2142 98.0543 88.061C97.0998 87.9078 96.1372 88.1699 95.203 88.4118C90.6329 89.581 85.9335 90.2543 81.2178 90.4155C79.9924 90.4559 78.4636 90.2744 78.0349 89.1254C77.5617 87.8635 78.8438 86.6863 79.956 85.9162C86.0629 81.691 91.6562 76.7281 96.5741 71.1684C97.1767 70.4871 97.7792 69.7775 98.0785 68.9228C98.3778 68.0681 98.3131 67.0239 97.6862 66.3708C97.0391 65.6975 95.9593 65.6008 95.0696 65.891C94.1798 66.1813 93.4356 66.7901 92.7158 67.3827C88.1619 71.1402 83.608 74.8977 79.0581 78.6552C77.8287 79.6672 76.0977 80.7235 74.7792 79.8284C80.5747 73.8253 86.3703 67.8222 92.1658 61.8191C93.4963 60.4443 94.928 58.5454 94.1151 56.8118C93.4599 55.4128 91.555 54.9854 90.087 55.4773C88.6189 55.9692 87.4905 57.1303 86.4228 58.2511C81.7031 63.21 76.9834 68.1649 72.2677 73.1238C71.7177 73.7003 70.9291 74.3293 70.2092 73.9825C69.5499 73.664 69.4893 72.7609 69.5742 72.0352C70.3831 65.1694 75.7903 59.8033 78.3787 53.3889C78.7305 52.5221 79.0298 51.611 79.0055 50.6796C78.9813 49.7443 78.5769 48.7767 77.7801 48.2848C76.7448 47.6438 75.3333 47.9825 74.391 48.7565C73.4487 49.5266 72.8744 50.6433 72.3122 51.7198C68.369 59.2711 63.2732 66.2781 58.7233 73.4826C57.6233 75.2243 55.7993 76.4983 53.7812 76.9297C53.0572 77.0869 52.2241 77.1111 51.6498 76.6394C51.1726 76.2443 50.9946 75.5831 51.027 74.9663C51.0594 74.3494 51.2777 73.7608 51.4638 73.1722C52.5274 69.8703 52.8227 66.3265 52.3171 62.8955C52.0623 61.1539 51.5123 59.3074 50.0928 58.2591C49.478 57.8076 48.6449 57.5375 47.9452 57.8439C46.8856 58.3035 46.7117 59.6944 46.6349 60.8434C46.3599 64.8831 45.3488 68.8704 43.6664 72.5553C42.3196 75.5065 40.5239 78.3287 39.9739 81.5258C39.1246 86.4484 41.3571 91.4436 40.9607 96.4227C36.1237 100.958 30.8863 105.24 25.3011 108.82C30.7812 114.073 36.2653 119.326 41.7453 124.576C43.1204 123.056 44.9767 121.532 45.9433 119.726Z" fill="#FEE3C5"/>
<path d="M52.6772 119.6C52.6772 119.6 6.94404 152.253 -30.8177 190.517C-34.3929 194.141 -37.8993 197.814 -41.2844 201.515L-63.3745 182.385C-38.1258 160.856 14.7374 115.399 32.31 97.386C32.31 97.386 32.6173 98.8575 34.7487 101.893C36.9326 105.01 41.0295 109.771 48.6733 116.286C49.9068 117.347 51.2414 118.447 52.6772 119.6Z" fill="#3A4C64"/>
<path d="M73.752 51.591L76.5871 53.2641C76.8298 53.4052 77.1412 53.3246 77.2787 53.0786L78.1644 51.5144C78.1644 51.5144 78.7913 50.2323 77.3555 49.1195C77.3555 49.1195 76.118 48.2366 74.8521 49.0308C74.8521 49.0308 74.3708 49.3856 73.8693 50.4056L73.5741 50.9015C73.4325 51.1394 73.5134 51.4498 73.752 51.591Z" fill="#F4F4F4"/>
<path d="M88.1862 58.1585L90.4955 61.1419C90.6937 61.3959 91.0617 61.4403 91.3125 61.2387L92.9221 59.9445C92.9221 59.9445 94.1394 58.8398 93.0798 57.0498C93.0798 57.0498 92.1375 55.5822 90.451 55.8967C90.451 55.8967 89.7837 56.0701 88.8171 56.949L88.2913 57.3522C88.0406 57.5416 87.9921 57.9045 88.1862 58.1585Z" fill="#F4F4F4"/>
<path d="M93.6905 68.3745L95.3244 70.4871C95.466 70.6685 95.7248 70.6967 95.9028 70.5556L97.0433 69.6404C97.0433 69.6404 97.9047 68.8583 97.1525 67.5924C97.1525 67.5924 96.4851 66.5522 95.2921 66.7739C95.2921 66.7739 94.8229 66.8989 94.1354 67.5198L93.7633 67.802C93.5854 67.9391 93.553 68.1971 93.6905 68.3745Z" fill="#F4F4F4"/>
<path d="M96.295 89.4518L96.5943 91.7579C96.6186 91.9555 96.8046 92.0926 96.9988 92.0643L98.2606 91.8748C98.2606 91.8748 99.2515 91.6652 99.2474 90.3831C99.2474 90.3831 99.2029 89.3107 98.208 88.9519C98.208 88.9519 97.7995 88.8391 97.0109 89.0043L96.6065 89.0527C96.4083 89.0769 96.2708 89.2543 96.295 89.4518Z" fill="#F4F4F4"/>
<path d="M47.104 64.0446L49.6358 64.3147C49.8502 64.3389 50.0362 64.0768 50.0403 63.7341L50.0767 61.545C50.0767 61.545 50.0403 59.8033 48.6652 59.38C48.6652 59.38 47.5044 59.0938 46.9301 60.654C46.9301 60.654 46.732 61.3031 46.7603 62.69L46.736 63.3915C46.7239 63.7301 46.8897 64.0204 47.104 64.0446Z" fill="#F4F4F4"/>
<path d="M39.7029 64.3467L42.5542 62.7018C42.7969 62.5607 42.8777 62.2502 42.7321 62.0083L41.7979 60.4723C41.7979 60.4723 40.985 59.2991 39.3106 60.0046C39.3106 60.0046 37.9315 60.6456 38.0084 62.1333C38.0084 62.1333 38.0812 62.726 38.7323 63.6613L39.0194 64.1612C39.1529 64.4031 39.4643 64.4838 39.7029 64.3467Z" fill="#F4F4F4"/>
<path d="M52.5194 55.0136L56.2604 54.4653C56.5799 54.4169 56.7983 54.1186 56.7457 53.8001L56.4019 51.764C56.4019 51.764 56.0339 50.1675 53.947 50.2118C53.947 50.2118 52.1999 50.3126 51.6499 51.9334C51.6499 51.9334 51.476 52.5986 51.7712 53.8686L51.8642 54.5217C51.9087 54.8402 52.1999 55.062 52.5194 55.0136Z" fill="#F4F4F4"/>
<path d="M64.1508 55.2356L66.7998 54.8485C67.0263 54.8163 67.18 54.6026 67.1436 54.3808L66.9009 52.9415C66.9009 52.9415 66.6381 51.8126 65.1659 51.8409C65.1659 51.8409 63.9324 51.9134 63.5401 53.0584C63.5401 53.0584 63.4188 53.5302 63.6251 54.4292L63.6898 54.8929C63.7181 55.1146 63.9243 55.2719 64.1508 55.2356Z" fill="#F4F4F4"/>
<path d="M83.8588 63.2947L86.0225 64.1615C86.2085 64.2341 86.4188 64.1454 86.4876 63.9599L86.9406 62.7706C86.9406 62.7706 87.2439 61.807 86.1196 61.1821C86.1196 61.1821 85.157 60.6942 84.3603 61.3877C84.3603 61.3877 84.061 61.686 83.8224 62.4561L83.6687 62.8351C83.5878 63.0125 83.6768 63.2221 83.8588 63.2947Z" fill="#F4F4F4"/>
<path d="M99.2231 117.92C97.2657 115.944 96.109 113.295 95.4417 110.598C94.7744 107.901 94.56 105.115 94.2284 102.357C93.6056 97.2252 92.9747 91.855 90.4187 87.3598C85.3471 78.4458 89.4521 69.3423 88.5623 59.743C88.4693 58.7432 87.6645 57.7675 86.6777 57.5619C85.7353 57.3643 84.7849 58.0537 84.3603 58.9165C83.9316 59.7793 83.8952 60.7751 83.8507 61.7346C83.6161 66.4315 82.8639 71.1042 81.6182 75.6398C81.2947 76.8211 80.6638 78.22 79.4383 78.2886C78.0875 78.3652 77.3394 76.7928 76.9349 75.5067C74.6984 68.4393 71.6045 61.6419 67.7381 55.3122C67.265 54.5382 66.7635 53.752 66.0355 53.2117C65.3035 52.6715 64.2883 52.4256 63.4754 52.8287C62.6383 53.244 62.2257 54.2439 62.2419 55.1752C62.2581 56.1065 62.618 56.9934 62.9739 57.8562C65.2226 63.307 67.4712 68.7537 69.7199 74.2045C70.3265 75.6761 70.8199 77.6354 69.5743 78.6272C65.5421 71.3299 61.5139 64.0286 57.4818 56.7314C56.5597 55.0582 55.1644 53.1311 53.2635 53.3891C51.7267 53.5988 50.7561 55.284 50.7925 56.8281C50.8289 58.3723 51.6054 59.7914 52.3617 61.138C55.7104 67.1008 59.059 73.0636 62.4037 79.0264C62.792 79.7198 63.16 80.6592 62.614 81.2397C62.1125 81.7719 61.2268 81.5622 60.5595 81.2679C54.222 78.4579 50.6873 71.721 45.3124 67.3507C44.5844 66.7621 43.8039 66.2017 42.902 65.9477C42.0001 65.6937 40.9526 65.7905 40.2449 66.4033C39.3228 67.1975 39.2298 68.6449 39.6908 69.7697C40.1519 70.8945 41.0457 71.7734 41.9112 72.6281C47.9736 78.6232 53.1746 85.5536 58.7234 92.0203C60.0661 93.5846 60.7415 95.6972 60.5595 97.7493C60.4948 98.4871 60.2723 99.2853 59.6495 99.6925C59.1318 100.031 58.4403 100.003 57.8619 99.7893C57.2836 99.5756 56.778 99.1926 56.2725 98.8378C53.4253 96.8462 50.1171 95.5117 46.6834 94.9755C44.9403 94.7014 43.0072 94.6772 41.5836 95.7174C40.9688 96.1689 40.4633 96.8785 40.5482 97.6364C40.6736 98.7814 41.9556 99.3579 43.0314 99.7732C46.821 101.237 50.3395 103.382 53.3727 106.075C55.7993 108.232 57.9711 110.78 60.8709 112.251C65.3358 114.521 70.7795 113.876 75.4345 115.734C78.3464 121.685 80.8903 127.942 82.6617 134.32C89.3186 130.66 95.9796 126.999 102.637 123.342C101.577 121.592 100.667 119.375 99.2231 117.92Z" fill="#D6AE8A"/>
<path d="M101.1 111.473C101.1 111.473 118.806 164.699 144.253 212.006C146.663 216.485 149.142 220.912 151.682 225.234L126.801 240.582C113.669 210.16 85.8163 146.343 73.7763 124.27C73.7763 124.27 75.2768 124.411 78.8196 123.286C82.4514 122.133 88.2307 119.645 96.7399 114.303C98.119 113.437 99.575 112.497 101.1 111.473Z" fill="#70CACD"/>
<path d="M46.2264 100.289L47.2375 97.9588C47.3224 97.7613 47.1283 97.5073 46.8007 97.4025L44.7139 96.7171C44.7139 96.7171 43.0355 96.2333 42.2226 97.4186C42.2226 97.4186 41.6038 98.4386 42.9263 99.4465C42.9263 99.4465 43.4925 99.8295 44.8271 100.212L45.4904 100.442C45.8139 100.555 46.1415 100.487 46.2264 100.289Z" fill="#F4F4F4"/>
<path d="M40.1236 74.3856L41.8262 71.0192C41.9718 70.733 41.8505 70.3822 41.5593 70.2411L39.6949 69.3501C39.6949 69.3501 38.1702 68.7333 37.0094 70.4588C37.0094 70.4588 36.0873 71.9425 37.0984 73.3213C37.0984 73.3213 37.5433 73.8454 38.7566 74.3373L39.347 74.6396C39.6342 74.7807 39.982 74.6679 40.1236 74.3856Z" fill="#F4F4F4"/>
<path d="M46.9989 65.0282L48.2041 62.6455C48.3052 62.4439 48.2203 62.1939 48.014 62.0972L46.6956 61.4682C46.6956 61.4682 45.6157 61.0328 44.7947 62.2544C44.7947 62.2544 44.1436 63.3027 44.8595 64.2824C44.8595 64.2824 45.1749 64.6533 46.0323 65L46.4489 65.2137C46.647 65.3064 46.8937 65.2298 46.9989 65.0282Z" fill="#F4F4F4"/>
<path d="M64.9435 53.5864L66.901 52.3245C67.0669 52.2157 67.1154 51.9939 67.0021 51.8286L66.2863 50.7764C66.2863 50.7764 65.6675 49.9741 64.5108 50.5345C64.5108 50.5345 63.5604 51.0384 63.6655 52.0866C63.6655 52.0866 63.7383 52.5019 64.2317 53.1389L64.4542 53.4816C64.5593 53.6469 64.7777 53.6912 64.9435 53.5864Z" fill="#F4F4F4"/>
<path d="M107.931 40.8586C106.147 42.9913 103.615 44.3943 100.982 45.3135C98.3536 46.2327 95.5913 46.7125 92.8695 47.3092C87.806 48.4179 82.5039 49.5588 78.2614 52.5302C69.8493 58.4204 60.3653 55.2233 50.8653 57.0255C49.8744 57.2149 48.9766 58.1059 48.8674 59.1058C48.7622 60.0613 49.5428 60.9361 50.4447 61.2788C51.3465 61.6215 52.3455 61.561 53.308 61.5167C58.0196 61.299 62.7596 61.5933 67.4105 62.3956C68.6198 62.6052 70.0798 63.0931 70.2658 64.3026C70.4721 65.633 68.9716 66.528 67.73 67.0522C60.8871 69.9469 54.4 73.6721 48.4508 78.115C47.7228 78.6593 46.9868 79.2318 46.5176 80.0058C46.0485 80.7839 45.8988 81.816 46.3801 82.5861C46.8776 83.3763 47.9129 83.6907 48.8431 83.5859C49.7733 83.4811 50.6226 83.0376 51.4517 82.6022C56.6769 79.8486 61.9022 77.095 67.1274 74.3373C68.5349 73.5955 70.4478 72.9142 71.556 74.0551C64.6564 78.756 57.7527 83.4569 50.8531 88.1578C49.2718 89.2343 47.4802 90.8026 47.921 92.6652C48.2769 94.169 50.0564 94.9713 51.5932 94.7899C53.1301 94.6044 54.4728 93.6973 55.7467 92.8184C61.3805 88.9238 67.0102 85.0293 72.6439 81.1347C73.2991 80.6791 74.2009 80.2276 74.8319 80.7114C75.4102 81.1589 75.2889 82.0539 75.0583 82.7473C72.8623 89.3068 66.4763 93.4594 62.6261 99.2166C62.1044 99.9947 61.6231 100.825 61.4573 101.744C61.2915 102.664 61.4897 103.696 62.1651 104.337C63.0467 105.175 64.4986 105.127 65.5785 104.563C66.6583 103.998 67.451 103.027 68.2194 102.087C73.6226 95.4954 80.0409 89.6697 85.9699 83.5416C87.4016 82.0579 89.448 81.1831 91.5146 81.171C92.2588 81.1669 93.0798 81.3081 93.5408 81.8886C93.9291 82.3724 93.9655 83.0578 93.8078 83.6545C93.65 84.2512 93.3184 84.7874 93.011 85.3236C91.2963 88.3392 90.2811 91.75 90.0749 95.2092C89.9697 96.967 90.1315 98.886 91.3043 100.2C91.8139 100.769 92.5742 101.2 93.3224 101.043C94.4508 100.809 94.9078 99.4827 95.2192 98.374C96.3152 94.4754 98.119 90.7744 100.521 87.5087C102.442 84.8922 104.776 82.4934 105.969 79.4777C107.805 74.8292 106.64 69.4873 108.048 64.6936C113.71 61.2345 119.712 58.1059 125.912 55.7353C121.616 49.4782 117.325 43.2251 113.03 36.968C111.372 38.1735 109.245 39.2902 107.931 40.8586Z" fill="#FEE3C5"/>
<path d="M101.314 39.6168C101.314 39.6168 152.758 16.9347 197.549 -12.8591C201.791 -15.6812 205.973 -18.5639 210.045 -21.5029L227.764 1.71126C198.645 17.6645 137.604 51.4335 116.719 65.4999C116.719 65.4999 116.715 63.9961 115.251 60.5893C113.75 57.0979 110.709 51.5988 104.562 43.6726C103.563 42.3865 102.483 41.0319 101.314 39.6168Z" fill="#AFAFCB"/>
<path d="M66.7837 101.918L64.349 99.7041C64.1427 99.5146 63.8192 99.5348 63.6331 99.7444L62.4441 101.095C62.4441 101.095 61.5665 102.224 62.7474 103.603C62.7474 103.603 63.7787 104.72 65.1781 104.199C65.1781 104.199 65.7241 103.949 66.4197 103.05L66.812 102.627C67.0021 102.426 66.9899 102.107 66.7837 101.918Z" fill="#F4F4F4"/>
<path d="M50.6954 81.4369L49.5266 79.0381C49.4255 78.8325 49.1788 78.7518 48.9725 78.8526L47.6702 79.5178C47.6702 79.5178 46.6673 80.1065 47.1445 81.5014C47.1445 81.5014 47.5853 82.6545 48.7986 82.6787C48.7986 82.6787 49.2839 82.6545 50.0806 82.1828L50.5053 81.9812C50.7075 81.8845 50.7924 81.6426 50.6954 81.4369Z" fill="#F4F4F4"/>
<path d="M52.4466 60.2749L52.6245 57.9567C52.6407 57.7591 52.487 57.5858 52.2888 57.5777L51.0149 57.5051C51.0149 57.5051 49.9998 57.5092 49.745 58.7671C49.745 58.7671 49.5711 59.8274 50.473 60.3757C50.473 60.3757 50.8491 60.5693 51.6579 60.5652L52.0664 60.5975C52.2605 60.6176 52.4344 60.4685 52.4466 60.2749Z" fill="#F4F4F4"/>
<path d="M95.4174 95.1366L92.9949 94.3585C92.7886 94.294 92.554 94.5117 92.4813 94.8463L91.9959 96.9831C91.9959 96.9831 91.6764 98.6966 92.9383 99.39C92.9383 99.39 94.0181 99.9061 94.8957 98.495C94.8957 98.495 95.2233 97.8983 95.4781 96.5356L95.6439 95.8543C95.7248 95.5237 95.6237 95.2051 95.4174 95.1366Z" fill="#FFF9EF"/>
<path d="M54.3069 27.1792C55.1037 29.8401 54.8731 32.7187 54.1896 35.4118C53.5021 38.1049 52.3778 40.661 51.3708 43.2533C49.4983 48.0711 47.5206 53.1067 47.6581 58.2752C47.9291 68.5196 40.0103 74.6275 36.2653 83.5173C35.873 84.4446 36.1237 85.6823 36.9002 86.3273C37.6403 86.9442 38.8011 86.7789 39.5857 86.2185C40.3703 85.6581 40.8717 84.7953 41.3652 83.9729C43.7917 79.9372 46.6551 76.1676 49.8986 72.7488C50.7399 71.8578 51.9572 70.9184 53.0734 71.4345C54.2989 72.0029 54.218 73.7365 53.9713 75.063C52.6083 82.3481 52.1311 89.7986 52.5558 97.1966C52.6083 98.0997 52.6811 99.031 53.0694 99.8495C53.4576 100.668 54.2422 101.361 55.1481 101.39C56.0824 101.414 56.9196 100.724 57.3442 99.8978C57.7729 99.0673 57.87 98.1159 57.963 97.1886C58.5494 91.3266 59.1358 85.4605 59.7263 79.5985C59.884 78.0181 60.3734 76.0547 61.9426 75.7645C62.0558 84.0978 62.1691 92.4272 62.2823 100.761C62.3066 102.672 62.6301 105.026 64.4258 105.687C65.8777 106.223 67.5359 105.191 68.2315 103.813C68.9271 102.434 68.9109 100.817 68.8786 99.2729C68.737 92.4393 68.5955 85.6097 68.4539 78.7761C68.4377 77.9819 68.555 76.982 69.3113 76.724C70.0069 76.4902 70.6864 77.0868 71.1393 77.6634C75.4061 83.1141 75.3495 90.7178 78.0309 97.0959C78.3948 97.9586 78.8195 98.8174 79.4949 99.4624C80.1703 100.107 81.1409 100.515 82.0549 100.309C83.244 100.039 84.0083 98.8053 84.1337 97.5998C84.2591 96.3903 83.883 95.197 83.523 94.0358C80.9994 85.904 79.6809 77.3489 77.8367 69.0397C77.3918 67.0279 77.7922 64.8468 78.9206 63.1253C79.325 62.5044 79.8993 61.9037 80.6394 61.8392C81.2582 61.7868 81.8527 62.1335 82.2652 62.5931C82.6778 63.0567 82.9406 63.6252 83.2197 64.1775C84.7929 67.2698 87.082 69.9952 89.8605 72.0836C91.2719 73.1399 92.9665 74.0712 94.7136 73.8212C95.4699 73.7124 96.2505 73.3213 96.5336 72.6117C96.9623 71.5433 96.1049 70.4306 95.3526 69.5598C92.6996 66.4957 90.6046 62.9479 89.2012 59.1501C88.0769 56.1062 87.3611 52.8446 85.5007 50.1837C82.6292 46.0876 77.5213 44.1 74.2939 40.282C74.5325 33.6661 75.2362 26.9494 76.6841 20.4907C69.0808 20.5996 61.4775 20.7044 53.8742 20.8133C53.9632 22.8331 53.7205 25.2198 54.3069 27.1792Z" fill="#E3B486"/>
<path d="M49.6075 31.9888C49.6075 31.9888 59.0954 -23.285 58.9579 -76.9623C58.9458 -82.0462 58.8447 -87.114 58.6425 -92.1213L87.8424 -94C85.0761 -60.9929 79.5475 8.37952 79.7579 33.5047C79.7579 33.5047 78.5001 32.6742 74.844 32.009C71.0949 31.3236 64.8222 30.8116 54.7923 31.5332C53.1665 31.6501 51.4395 31.7993 49.6075 31.9888Z" fill="#772020"/>
<path d="M82.5889 95.1205L79.3939 95.9187C79.1188 95.9873 78.9571 96.2655 79.0299 96.5356L79.5031 98.2691C79.5031 98.2691 79.9601 99.6238 81.7639 99.4061C81.7639 99.4061 83.2684 99.1682 83.6081 97.7168C83.6081 97.7168 83.7011 97.1282 83.3371 96.0477L83.1996 95.4874C83.1349 95.2172 82.8599 95.0519 82.5889 95.1205Z" fill="#F4F4F4"/>
<path d="M67.6937 100.571L63.9446 100.067C63.6251 100.023 63.3298 100.253 63.2934 100.571L63.0589 102.619C63.0589 102.619 62.9699 104.256 64.988 104.788C64.988 104.788 66.6947 105.171 67.6734 103.764C67.6734 103.764 68.0253 103.176 68.0941 101.869L68.1871 101.216C68.2316 100.902 68.0091 100.612 67.6937 100.571Z" fill="#F4F4F4"/>
<path d="M56.5717 97.1607L53.9187 96.8059C53.6922 96.7736 53.486 96.9349 53.4577 97.1647L53.2919 98.6162C53.2919 98.6162 53.2312 99.7733 54.6588 100.148C54.6588 100.148 55.868 100.418 56.5596 99.4226C56.5596 99.4226 56.8063 99.0032 56.8548 98.084L56.9195 97.6203C56.9559 97.3945 56.7982 97.1889 56.5717 97.1607Z" fill="#F4F4F4"/>
<path d="M39.8525 84.0012L38.0124 82.5739C37.8547 82.453 37.6282 82.4812 37.5109 82.6425L36.7466 83.6625C36.7466 83.6625 36.1885 84.5052 37.0984 85.4123C37.0984 85.4123 37.887 86.1461 38.8455 85.6986C38.8455 85.6986 39.2176 85.4929 39.6584 84.8196L39.9132 84.5011C40.0386 84.3439 40.0103 84.1221 39.8525 84.0012Z" fill="#F4F4F4"/>
<path d="M92.7562 67.5842L90.7665 69.1646C90.5966 69.3017 90.6532 69.6121 90.8878 69.8621L92.4044 71.4465C92.4044 71.4465 93.6581 72.66 94.9361 71.9948C94.9361 71.9948 95.9633 71.382 95.2717 69.8742C95.2717 69.8742 94.9563 69.2694 93.9573 68.3059L93.4801 67.7899C93.2496 67.5439 92.922 67.4512 92.7562 67.5842Z" fill="#F4F4F4"/>
<path d="M12.3957 60.7952C15.1661 61.1097 17.7302 62.4442 19.9464 64.1294C22.1627 65.8146 24.0838 67.8466 26.0817 69.7858C29.7943 73.3901 33.6688 77.1798 38.4896 79.0787C48.0504 82.8443 50.5861 92.5001 57.3199 99.4184C58.0236 100.14 59.2652 100.394 60.1631 99.9384C61.0245 99.503 61.3238 98.3701 61.1175 97.4308C60.9072 96.4914 60.3087 95.6931 59.7425 94.915C56.9681 91.1091 54.6102 87.0009 52.7256 82.6911C52.2362 81.5703 51.8439 80.0866 52.7539 79.2642C53.7569 78.3611 55.3301 79.115 56.4544 79.8649C62.6422 83.9691 69.3315 87.3234 76.3282 89.8351C77.1815 90.1415 78.0672 90.4399 78.9772 90.4036C79.8872 90.3673 80.8335 89.9238 81.2137 89.0974C81.6019 88.2507 81.2946 87.2146 80.696 86.4969C80.0975 85.7793 79.2562 85.3157 78.4393 84.8641C73.2585 82.0259 68.0778 79.1916 62.897 76.3533C61.4977 75.5873 59.88 74.3698 60.2237 72.8176C67.9564 75.9784 75.6892 79.1392 83.4259 82.3C85.1973 83.0257 87.4985 83.6506 88.813 82.2637C89.8766 81.1389 89.5733 79.2198 88.5743 78.0386C87.5714 76.8573 86.075 76.2404 84.6392 75.6639C78.2775 73.1159 71.9158 70.5679 65.5582 68.0199C64.8181 67.7216 63.9405 67.2217 64.0011 66.4274C64.0577 65.6977 64.8747 65.3066 65.5865 65.1212C72.292 63.3432 79.2846 66.375 86.2206 66.4153C87.1588 66.4194 88.1173 66.367 88.9788 66.0001C89.8402 65.6332 90.5965 64.9035 90.7623 63.9843C90.9767 62.7909 90.1395 61.6056 89.0758 61.017C88.0081 60.4283 86.7585 60.3034 85.5492 60.1784C77.0562 59.3035 68.644 57.1627 60.252 55.5984C58.2218 55.2195 56.3655 53.9979 55.2169 52.2844C54.8044 51.6676 54.4727 50.9056 54.7032 50.2041C54.8974 49.6155 55.4474 49.2083 56.0379 49.0107C56.6243 48.8132 57.2552 48.797 57.874 48.7567C61.344 48.5269 64.7574 47.4948 67.7704 45.7653C69.2992 44.8864 70.8198 43.697 71.2768 41.9957C71.475 41.2579 71.4184 40.3911 70.8764 39.8508C70.0595 39.0405 68.6966 39.3912 67.5965 39.7379C63.7261 40.9676 59.6333 41.4998 55.5768 41.2982C52.3252 41.1369 49.0372 40.512 45.8502 41.1813C40.9445 42.2093 37.1105 46.116 32.318 47.5795C26.3081 44.7694 20.3832 41.4877 14.9881 37.6294C12.1086 44.6445 9.22902 51.6595 6.34947 58.6746C8.25434 59.4083 10.3574 60.5654 12.3957 60.7952Z" fill="#876653"/>
<path d="M14.9962 66.9916C14.9962 66.9916 -32.298 36.6293 -81.8894 15.7171C-86.5848 13.7376 -91.3005 11.8427 -96 10.0648L-86.2936 -17.4512C-56.9198 -1.97773 4.94205 30.2794 28.213 39.9312C28.213 39.9312 26.9553 40.7577 24.9048 43.854C22.8018 47.0269 19.8696 52.5785 16.6099 62.0568C16.0761 63.5969 15.5382 65.2378 14.9962 66.9916Z" fill="#DE705C"/>
<path d="M86.1843 61.4807L85.6666 64.7261C85.6221 65.0043 85.8162 65.2623 86.0953 65.2986L87.8789 65.5445C87.8789 65.5445 89.3066 65.6534 89.8122 63.9158C89.8122 63.9158 90.1802 62.4442 88.975 61.5653C88.975 61.5653 88.4654 61.2509 87.3289 61.1622L86.7586 61.0694C86.4876 61.0211 86.2288 61.2065 86.1843 61.4807Z" fill="#CCB79C"/>
<path d="M85.3754 77.2803L83.4423 80.5218C83.2764 80.8 83.3735 81.1548 83.6526 81.316L85.4522 82.332C85.4522 82.332 86.9284 83.0537 88.2104 81.4128C88.2104 81.4128 89.2296 79.9977 88.3196 78.5503C88.3196 78.5503 87.9111 77.998 86.7383 77.4255L86.1681 77.0868C85.8931 76.9175 85.5372 77.0062 85.3754 77.2803Z" fill="#CCB79C"/>
<path d="M77.8732 86.1419L76.5062 88.4359C76.3889 88.6335 76.4577 88.8834 76.6559 88.9963L77.9298 89.718C77.9298 89.718 78.9732 90.23 79.8792 89.0648C79.8792 89.0648 80.6031 88.065 79.956 87.0409C79.956 87.0409 79.6689 86.6499 78.8357 86.2427L78.4354 86.0008C78.2372 85.8839 77.9864 85.9484 77.8732 86.1419Z" fill="#CCB79C"/>
<path d="M59.1763 96.3176L57.138 97.4424C56.9641 97.5392 56.9034 97.7569 57.0045 97.9302L57.6435 99.0308C57.6435 99.0308 58.2057 99.8734 59.3988 99.3937C59.3988 99.3937 60.3815 98.9583 60.3492 97.902C60.3492 97.902 60.3047 97.4827 59.8598 96.8135L59.6616 96.4547C59.5646 96.2853 59.3462 96.2249 59.1763 96.3176Z" fill="#CCB79C"/>
<path d="M64.7575 41.3663L65.4369 43.8135C65.4935 44.0231 65.8049 44.0957 66.1285 43.9747L68.187 43.2047C68.187 43.2047 69.8007 42.5314 69.6834 41.0961C69.6834 41.0961 69.5216 39.9149 67.8594 39.9592C67.8594 39.9592 67.18 40.0157 65.898 40.5519L65.2347 40.7897C64.9112 40.9026 64.7009 41.1607 64.7575 41.3663Z" fill="#CCB79C"/>
</g>
</svg>
