<svg role="img" width="230" height="230" viewBox="0 0 230 230" fill="none" xmlns="http://www.w3.org/2000/svg">
<path opacity="0.1" d="M154.992 189.261C113.567 211.76 52.0071 178.049 35.4008 147.213C18.7944 116.377 23.6752 68.6197 65.1006 46.12C106.526 23.6203 145.44 15.2821 185.416 65.7344C202.022 96.5702 196.418 166.761 154.992 189.261Z" fill="url(#paint0_linear)"/>
<g clip-path="url(#clip0)">
<path d="M103.067 128.494C103.067 128.494 95.4866 122.101 95.4866 116.127C97.0881 114.81 102.249 111.34 103.21 111.34C104.171 111.34 104.171 108.706 100.79 108.578C97.4084 108.738 94.668 111.919 94.668 111.919C94.668 111.919 92.8885 106.683 89.8277 108.128C88.2261 109.445 88.8668 110.602 88.8668 110.602C88.8668 110.602 86.7669 108.417 86.1263 110.023C85.4857 111.629 85.9484 112.497 85.9484 112.497C85.9484 112.497 83.3859 111.919 84.0265 114.906C83.3859 114.906 81.6775 117.444 85.5213 118.986C85.9484 119.66 86.4822 121.716 88.9735 120.72C88.9735 120.72 83.3859 139.673 98.8676 142.307C105.95 142.018 107.267 134.597 107.267 134.597L105.487 131.835L103.067 128.494Z" fill="#F9AE81"/>
<path d="M98.903 142.307C99.4368 142.275 99.9351 142.21 100.398 142.114L101.643 138.516C88.5818 141.728 89.0089 120.72 89.0089 120.72C89.0089 120.72 83.4212 139.673 98.903 142.307Z" fill="#F79E77"/>
<path d="M116.77 120.463C116.77 120.463 104.206 127.723 103.067 128.462C103.886 130.068 105.488 131.803 105.488 131.803L116.77 120.463Z" fill="#CDD2D8"/>
<path d="M139.333 174.462C139.333 174.462 147.733 186.09 151.897 195.116C153.178 195.406 157.057 194.827 157.057 194.827C157.057 194.827 153.178 172.438 153.498 169.226C149.655 170.093 139.333 174.462 139.333 174.462Z" fill="#203A49"/>
<path d="M98.4053 172.984C98.4053 172.984 105.488 193.35 106.449 196.562C107.908 196.851 110.328 196.273 110.328 196.273C110.328 196.273 110.969 178.798 111.609 175.04C111.289 174.172 98.4053 172.984 98.4053 172.984Z" fill="#203A49"/>
<path d="M118.869 119.018C118.869 119.018 87.3719 136.332 95.9848 175.329C97.6931 176.871 103.921 180.179 108.014 180.757C108.868 177.642 109.723 174.751 109.723 174.751L113.602 182.331C113.602 182.331 135.953 186.411 153.997 170.51C152.502 163.54 150.545 141.985 158.09 126.277C157.663 124.928 153.57 118.118 146.06 114.649C141.327 115.966 118.869 119.018 118.869 119.018Z" fill="#CDD2D8"/>
<path d="M149.015 107.229C148.445 106.458 147.164 106.329 145.883 106.394C145.954 105.398 146.096 104.37 146.239 103.31V103.342C146.203 103.342 146.167 103.31 146.132 103.31C134.85 95.4398 123.247 97.7847 123.247 97.7847C123.247 97.7847 121.325 101.286 121.325 103.888C120.827 104.177 119.866 111.244 119.866 111.244C119.866 111.244 117.09 116.352 120.08 120.238C122.536 120.238 129.974 121.588 145.883 115.388C145.776 114.328 145.669 112.336 145.705 109.863C147.555 109.285 149.798 108.321 149.015 107.229Z" fill="#F9AE81"/>
<path d="M107.196 196.08C107.196 196.08 100.968 199.582 97.9425 200.16C97.7289 201.123 99.6508 201.509 102.249 200.738C104.811 199.967 109.118 196.851 109.118 196.08C109.153 195.309 107.196 196.08 107.196 196.08Z" fill="#203A49"/>
<path d="M155.563 194.635C155.563 194.635 161.791 198.136 164.816 198.714C165.03 199.678 163.108 200.063 160.51 199.292C157.948 198.521 153.641 195.406 153.641 194.635C153.606 193.864 155.563 194.635 155.563 194.635Z" fill="#203A49"/>
<path d="M142.715 142.018C142.715 142.018 146.736 148.86 149.335 159.91C149.335 159.91 145.811 178.445 114.456 182.524C117.09 183.488 141.896 183.649 153.997 170.51C153.178 160.809 152.538 148.988 152.965 145.872C150.402 145.069 142.715 142.018 142.715 142.018Z" fill="#AFAFCB"/>
<path d="M141.825 105.301C141.825 105.301 136.878 121.395 122.713 119.082C121.218 118.729 119.973 118.375 118.94 117.99C119.154 118.761 119.51 119.532 120.079 120.238C122.535 120.238 129.973 121.587 145.882 115.388C145.704 113.814 145.562 110.184 145.953 105.944L141.825 105.301Z" fill="#F49772"/>
<path d="M141.113 99.2302C141.113 99.2302 140.936 106.201 140.295 108.385H144.174L145.633 106.49C145.633 106.49 150.474 105.912 149.833 104.177C149.192 102.442 146.238 103.342 146.238 103.342L141.113 99.2302Z" fill="#7C3C3D"/>
<path d="M145.135 119.757L119.012 124.125L117.73 121.491C117.73 121.491 109.011 127.595 102.818 134.437C101.537 136.3 100.54 138.291 99.8285 140.315C101.43 144.041 104.277 151.012 102.711 150.273C101.217 149.599 99.2947 148.057 98.2625 147.189C97.5507 153.935 99.1523 159.717 101.323 160.456C104.882 161.612 119.047 157.533 119.368 157.244C148.374 145.615 149.335 129.297 149.335 129.297L145.135 119.757Z" fill="#F6E6D7"/>
<path d="M161.756 130.229C161.756 130.229 166.098 151.622 151.897 152.939C137.376 153.228 142.003 138.773 140.722 137.328C137.946 138.452 161.756 130.229 161.756 130.229Z" fill="#F9AE81"/>
<path d="M153.001 138.87C153.001 138.87 156.595 141.921 162.397 142.885C163.358 140.572 165.457 132.445 160.51 127.402C156.631 123.515 149.335 129.329 149.335 129.329L151.47 134.18L153.001 138.87Z" fill="#CDD2D8"/>
<path d="M151.47 134.212L152.965 138.87C152.965 138.87 153.214 139.062 153.712 139.384C155.421 134.951 161.258 129.811 161.258 129.811L150.509 131.995L151.47 134.212Z" fill="#AFAFCB"/>
<path d="M151.47 134.212C151.47 134.212 145.242 141.182 137.056 140.797C134.244 140.797 134.031 137.874 134.031 137.874L151.47 134.212Z" fill="#F79E77"/>
<path d="M140.401 109.06L142.43 108.995C142.43 108.995 138.978 114.296 136.558 114.585C137.732 113.268 140.401 109.06 140.401 109.06Z" fill="#7C3C3D"/>
<path d="M128.585 102.378C128.585 102.378 128.692 100.933 129.546 100.933C130.401 100.933 132.785 101.8 132.892 103.053C132.251 102.86 128.585 102.378 128.585 102.378Z" fill="#7C3C3D"/>
<path d="M123.318 100.836C123.318 100.836 123.39 101.639 123.247 101.993C123.069 102.346 121.396 102.571 121.396 102.571C121.396 102.571 121.681 101.19 123.318 100.836Z" fill="#7C3C3D"/>
<path d="M128.55 104.177C128.55 104.177 128.479 106.586 130.899 106.361C132.999 105.783 132.109 104.338 132.109 104.338H132.607C132.607 104.338 131.967 103.792 131.646 104.048C131.54 104.402 132.572 105.526 130.685 106.008C129.547 105.976 128.906 105.462 128.55 104.177Z" fill="#7C3C3D"/>
<path d="M122.927 103.631C122.927 103.631 122.678 104.98 121.681 104.916C120.863 104.82 121.361 103.438 121.361 103.438L120.72 103.631L121.076 103.727C121.076 103.727 120.863 105.141 121.681 105.141C122.5 105.141 123.105 104.53 122.927 103.631Z" fill="#7C3C3D"/>
<path d="M121.147 113.268C121.147 113.268 132.536 117.829 132.429 108.899H132.322H132.963C132.963 108.899 132.536 115.58 126.841 114.81C121.147 114.039 121.147 113.268 121.147 113.268Z" fill="#DE705C"/>
<path d="M132.322 107.164C132.322 107.164 130.472 107.518 131.824 108.706C133.176 109.895 135.063 108.995 134.493 108.064C133.924 107.132 132.322 107.164 132.322 107.164Z" fill="#DE705C"/>
<path d="M153 138.87C153 138.87 160.474 144.491 157.556 150.755C159.336 149.727 162.076 145.23 161.578 142.756C160.617 141.729 153 138.87 153 138.87Z" fill="#F79E77"/>
<path d="M118.941 117.958C118.941 117.958 116.912 119.05 119.047 124.093C125.276 123.708 151.613 118.118 151.613 118.118L149.014 116.191L145.811 114.424L145.882 115.356C145.882 115.356 130.436 121.041 120.151 120.11C119.724 119.532 118.941 117.958 118.941 117.958Z" fill="#DE705C"/>
<path d="M117.517 129.265C117.517 129.747 117.09 130.132 116.556 130.132C116.022 130.132 115.595 129.747 115.595 129.265C115.595 128.783 116.022 128.397 116.556 128.397C117.09 128.365 117.517 128.783 117.517 129.265Z" fill="#535866"/>
<path d="M112.677 139.93C112.677 140.411 112.25 140.797 111.716 140.797C111.182 140.797 110.755 140.411 110.755 139.93C110.755 139.448 111.182 139.062 111.716 139.062C112.25 139.062 112.677 139.448 112.677 139.93Z" fill="#535866"/>
<path d="M110.542 156.505C110.542 156.987 110.114 157.372 109.581 157.372C109.047 157.372 108.62 156.987 108.62 156.505C108.62 156.023 109.047 155.638 109.581 155.638C110.114 155.638 110.542 156.023 110.542 156.505Z" fill="#535866"/>
<path d="M119.012 124.125C125.24 123.74 151.577 118.151 151.577 118.151L148.979 116.223" fill="#DE705C"/>
<path d="M124.172 104.627C124.172 104.627 121.539 109.798 121.681 111.276C122.215 111.758 125.276 110.73 125.276 110.73C125.276 110.73 125.489 110.794 125.311 110.955C125.133 111.116 122.25 112.015 121.432 111.629C120.827 111.308 122.891 106.329 124.172 104.627Z" fill="#DE705C"/>
<path d="M119.012 141.568L168.233 131.481H159.62C159.62 131.481 154.46 119.66 138.337 121.973C126.308 123.515 124.599 138.452 124.599 138.452L119.012 141.568Z" fill="#535866"/>
<path d="M134.707 123.933C134.707 123.933 127.197 128.976 126.308 136.942C134.031 136.364 148.872 131.899 148.872 131.899L138.586 123.322C138.586 123.322 137.305 122.359 134.707 123.933Z" fill="#6E767E"/>
<path d="M136.38 123.965C136.38 123.965 129.973 127.466 128.514 131.835C131.895 131.835 140.757 126.31 140.757 126.31C140.757 126.31 138.159 123.226 136.38 123.965Z" fill="#E8D5CC"/>
<path d="M137.732 122.937L135.632 120.463L138.693 119.435L139.013 122.648L137.732 122.937Z" fill="#535866"/>
<path d="M123.247 97.7845C123.247 97.7845 138.8 97.6882 141.078 104.402C141.896 101.029 141.149 99.2622 141.149 99.2622C141.149 99.2622 130.401 94.5402 123.247 97.7845Z" fill="#F49772"/>
<path d="M159.087 88.0196C158.873 83.6509 152.431 81.6271 149.833 84.2291C150.153 83.0727 149.086 77.8367 140.793 76.5517C132.857 75.4917 129.191 80.4386 129.191 80.4386C129.191 80.4386 122.642 76.7445 119.083 80.9204C116.948 84.1327 120.578 88.8869 126.379 87.4092C125.311 90.236 123.247 97.0139 123.212 97.7527C123.212 97.7527 134.814 95.4399 146.096 103.278C146.132 103.278 146.167 103.31 146.203 103.31C146.666 100.13 147.484 96.7891 148.837 93.8338C149.62 93.9623 158.517 95.5041 159.087 88.0196Z" fill="#F6E7D7"/>
<path d="M151.043 89.0152C150.438 89.5291 149.442 89.9467 148.374 90.3001L151.043 89.0152L149.549 86.8951C149.549 86.8951 152.36 79.9244 144.601 77.7722C144.601 77.7722 149.549 80.5026 147.413 83.9719C145.278 87.4733 137.305 89.2079 131.718 86.7023C129.582 85.3532 129.155 82.8155 129.155 82.8155L129.049 81.6591C129.049 81.6591 122.073 88.6297 118.621 83.7792C119.688 86.7023 121.966 89.0152 126.415 87.4733C127.162 87.6018 128.266 87.9551 129.618 88.3727L129.796 93.4802L131.255 88.8867C133.889 89.6576 137.092 90.4286 140.117 90.2037C141.042 90.5892 141.825 91.1995 142.395 91.7135L138.338 99.3587C140.865 100.226 143.498 101.511 146.132 103.342C146.167 103.342 146.203 103.374 146.239 103.374C146.63 100.579 147.342 97.6562 148.41 94.9579C148.481 94.6366 148.588 94.3475 148.659 94.0906C148.694 94.0906 148.73 94.0906 148.801 94.0906C148.837 94.0263 148.872 93.9621 148.908 93.8657C149.584 93.9621 157.2 95.2791 158.838 89.6897C158.838 89.5934 158.838 89.497 158.838 89.4006C157.272 92.6772 152.36 90.9425 151.043 89.0152Z" fill="#D4D7DC"/>
<path d="M121.717 115.002C121.717 115.002 119.119 115.645 120.791 116.962C122.429 118.279 124.315 117.861 124.884 116.865C124.884 117.09 123.247 119.114 120.898 117.347C120.115 116.64 119.048 115.516 121.717 115.002Z" fill="#F49772"/>
</g>
<defs>
<linearGradient id="paint0_linear" x1="150.015" y1="0" x2="207.373" y2="190.088" gradientUnits="userSpaceOnUse">
<stop stop-color="#407CA8"/>
<stop offset="0.276042" stop-color="#2A8194"/>
<stop offset="1" stop-color="#743B49"/>
</linearGradient>
<clipPath id="clip0">
<rect x="83.1226" y="76.436" width="85.1253" height="124.711" fill="white"/>
</clipPath>
</defs>
</svg>
