<?xml version="1.0" encoding="UTF-8" standalone="no"?>
<!DOCTYPE svg PUBLIC "-//W3C//DTD SVG 1.1//EN" "http://www.w3.org/Graphics/SVG/1.1/DTD/svg11.dtd">
<svg width="100%" height="100%" viewBox="0 0 600 600" version="1.1" xmlns="http://www.w3.org/2000/svg"
     xml:space="preserve"
     style="fill-rule:evenodd;clip-rule:evenodd;stroke-linejoin:round;stroke-miterlimit:2;">
    <g transform="matrix(2.27664,0,0,2.27664,42,18.643)">
        <path d="M5.638,165.265L3.767,164.187C3.178,163.847 2.7,163.02 2.7,162.341L2.699,70.137C2.699,69.458 3.177,68.631 3.766,68.291L121.811,0.255C122.401,-0.085 123.357,-0.085 123.947,0.255L125.817,1.333C126.407,1.673 126.885,2.499 126.885,3.179L126.885,95.383C126.885,96.063 126.407,96.889 125.817,97.229L7.773,165.265C7.183,165.605 6.227,165.605 5.638,165.265Z" style="fill:rgb(43,69,78);fill-rule:nonzero;"/>
    </g>
    <g transform="matrix(2.27664,0,0,2.27664,42,18.643)">
        <path d="M126.878,3.011C126.804,2.454 126.355,2.252 125.822,2.567L7.779,70.602C7.483,70.77 7.222,71.06 7.024,71.395L3.016,69.086C3.218,68.751 3.479,68.466 3.77,68.294L121.818,0.259C122.406,-0.086 123.362,-0.086 123.954,0.259L125.822,1.337C126.36,1.646 126.809,2.366 126.878,3.011Z" style="fill:rgb(55,90,100);fill-rule:nonzero;"/>
    </g>
    <g transform="matrix(2.27664,0,0,2.27664,42,18.643)">
        <path d="M7.6,165.351C7.59,165.356 7.585,165.356 7.576,165.361C7.556,165.371 7.536,165.376 7.511,165.38C7.487,165.395 7.462,165.4 7.437,165.41C7.413,165.42 7.383,165.425 7.354,165.435C7.304,165.449 7.25,165.459 7.196,165.474C7.181,165.474 7.161,165.479 7.137,165.484C6.624,165.572 6.042,165.503 5.638,165.267L3.764,164.189C3.177,163.85 2.699,163.023 2.699,162.343L2.699,70.139C2.699,69.799 2.817,69.42 3.009,69.085L7.018,71.394C6.821,71.729 6.703,72.108 6.703,72.447L6.703,164.652C6.703,165.134 6.944,165.415 7.294,165.415C7.344,165.415 7.393,165.41 7.447,165.395C7.497,165.385 7.546,165.371 7.6,165.351Z" style="fill:rgb(26,46,53);fill-rule:nonzero;"/>
    </g>
    <g transform="matrix(2.27664,0,0,2.27664,42,18.643)">
        <path d="M10.716,73.527L10.716,163.575L122.884,98.926L122.884,8.878L10.716,73.527Z" style="fill:rgb(250,250,250);fill-rule:nonzero;"/>
    </g>
    <g transform="matrix(2.27664,0,0,2.27664,42,18.643)">
        <path d="M42.769,145.103L42.769,71.219L90.841,43.512L90.842,117.397L88.778,118.586L88.839,46.975L44.773,72.373L44.773,143.948L42.769,145.103Z" style="fill:rgb(225,225,225);fill-rule:nonzero;"/>
    </g>
    <g transform="matrix(2.27664,0,0,2.27664,42,18.643)">
        <path d="M10.716,163.575L12.72,162.42L12.72,76.991L120.639,14.79L120.881,100.08L122.884,98.925L122.884,8.878L10.716,73.527L10.716,163.575Z" style="fill:rgb(225,225,225);fill-rule:nonzero;"/>
    </g>
    <g transform="matrix(2.27664,0,0,2.27664,42,18.643)">
        <path d="M10.716,73.524L114.696,13.594L132.024,23.582L113.241,34.409L111.574,35.37L28.047,83.513L10.716,73.524Z" style="fill:rgb(250,250,250);fill-rule:nonzero;"/>
    </g>
    <g transform="matrix(2.27664,0,0,2.27664,42,18.643)">
        <path d="M10.716,73.531L28.044,83.516L36.712,78.517L19.384,68.531L10.716,73.531Z" style="fill:rgb(0,223,191);fill-rule:nonzero;"/>
    </g>
    <g transform="matrix(2.27664,0,0,2.27664,42,18.643)">
        <path d="M28.041,63.539L45.369,73.524L54.036,68.525L36.709,58.539L28.041,63.539Z" style="fill:rgb(0,223,191);fill-rule:nonzero;"/>
    </g>
    <g transform="matrix(2.27664,0,0,2.27664,42,18.643)">
        <path d="M45.366,53.551L62.694,63.537L71.361,58.538L54.034,48.552L45.366,53.551Z" style="fill:rgb(0,223,191);fill-rule:nonzero;"/>
    </g>
    <g transform="matrix(2.27664,0,0,2.27664,42,18.643)">
        <path d="M62.709,43.564L80.037,53.55L88.704,48.551L71.376,38.565L62.709,43.564Z" style="fill:rgb(0,223,191);fill-rule:nonzero;"/>
    </g>
    <g transform="matrix(2.27664,0,0,2.27664,42,18.643)">
        <path d="M80.033,33.577L97.361,43.562L106.029,38.563L88.701,28.578L80.033,33.577Z" style="fill:rgb(0,223,191);fill-rule:nonzero;"/>
    </g>
    <g transform="matrix(2.27664,0,0,2.27664,42,18.643)">
        <path d="M97.358,23.585L114.686,33.571L123.354,28.572L106.026,18.586L97.358,23.585Z" style="fill:rgb(0,223,191);fill-rule:nonzero;"/>
    </g>
    <g transform="matrix(2.27664,0,0,2.27664,42,18.643)">
        <path d="M114.701,13.598L132.029,23.583L140.696,18.584L123.368,8.598L114.701,13.598Z" style="fill:rgb(0,223,191);fill-rule:nonzero;"/>
    </g>
    <g transform="matrix(2.27664,0,0,2.27664,42,18.643)">
        <path d="M10.716,73.527L28.047,83.516L36.712,78.521L19.381,68.532L10.716,73.527Z" style="fill:rgb(255,155,155);fill-rule:nonzero;"/>
    </g>
    <g transform="matrix(2.27664,0,0,2.27664,42,18.643)">
        <path d="M28.041,63.539L45.372,73.528L54.036,68.533L36.706,58.545L28.041,63.539Z" style="fill:rgb(255,155,155);fill-rule:nonzero;"/>
    </g>
    <g transform="matrix(2.27664,0,0,2.27664,42,18.643)">
        <path d="M45.384,53.547L62.714,63.536L71.378,58.542L54.048,48.553L45.384,53.547Z" style="fill:rgb(255,155,155);fill-rule:nonzero;"/>
    </g>
    <g transform="matrix(2.27664,0,0,2.27664,42,18.643)">
        <path d="M62.709,43.56L80.039,53.549L88.704,48.555L71.373,38.566L62.709,43.56Z" style="fill:rgb(255,155,155);fill-rule:nonzero;"/>
    </g>
    <g transform="matrix(2.27664,0,0,2.27664,42,18.643)">
        <path d="M80.033,33.573L97.364,43.561L106.029,38.567L88.698,28.579L80.033,33.573Z" style="fill:rgb(255,155,155);fill-rule:nonzero;"/>
    </g>
    <g transform="matrix(2.27664,0,0,2.27664,42,18.643)">
        <path d="M97.358,23.585L114.689,33.574L123.354,28.58L106.023,18.591L97.358,23.585Z" style="fill:rgb(255,155,155);fill-rule:nonzero;"/>
    </g>
    <g transform="matrix(2.27664,0,0,2.27664,42,18.643)">
        <path d="M114.701,13.594L132.031,23.582L140.696,18.588L123.366,8.599L114.701,13.594Z" style="fill:rgb(255,155,155);fill-rule:nonzero;"/>
    </g>
    <g transform="matrix(2.27664,0,0,2.27664,42,18.643)">
        <path d="M28.041,83.515C28.041,86.273 29.981,87.391 32.374,86.012C34.767,84.632 36.707,81.279 36.707,78.52L28.041,83.515Z" style="fill:rgb(241,91,102);fill-rule:nonzero;"/>
    </g>
    <g transform="matrix(2.27664,0,0,2.27664,42,18.643)">
        <path d="M36.704,78.521C36.704,81.28 38.644,82.397 41.036,81.018C43.429,79.639 45.369,76.285 45.369,73.527L36.704,78.521Z" style="fill:rgb(231,231,231);fill-rule:nonzero;"/>
    </g>
    <g transform="matrix(2.27664,0,0,2.27664,42,18.643)">
        <path d="M45.366,73.523C45.366,76.281 47.306,77.4 49.699,76.02C52.092,74.641 54.032,71.287 54.032,68.528L45.366,73.523Z" style="fill:rgb(241,91,102);fill-rule:nonzero;"/>
    </g>
    <g transform="matrix(2.27664,0,0,2.27664,42,18.643)">
        <path d="M54.046,68.529C54.046,71.288 55.986,72.406 58.379,71.026C60.771,69.647 62.711,66.293 62.711,63.535L54.046,68.529Z" style="fill:rgb(231,231,231);fill-rule:nonzero;"/>
    </g>
    <g transform="matrix(2.27664,0,0,2.27664,42,18.643)">
        <path d="M62.709,63.536C62.709,66.294 64.648,67.412 67.041,66.033C69.434,64.653 71.374,61.3 71.374,58.541L62.709,63.536Z" style="fill:rgb(241,91,102);fill-rule:nonzero;"/>
    </g>
    <g transform="matrix(2.27664,0,0,2.27664,42,18.643)">
        <path d="M71.371,58.542C71.371,61.3 73.311,62.418 75.703,61.039C78.096,59.66 80.036,56.306 80.036,53.547L71.371,58.542Z" style="fill:rgb(231,231,231);fill-rule:nonzero;"/>
    </g>
    <g transform="matrix(2.27664,0,0,2.27664,42,18.643)">
        <path d="M80.033,53.548C80.033,56.306 81.973,57.425 84.366,56.045C86.759,54.666 88.698,51.312 88.698,48.554L80.033,53.548Z" style="fill:rgb(241,91,102);fill-rule:nonzero;"/>
    </g>
    <g transform="matrix(2.27664,0,0,2.27664,42,18.643)">
        <path d="M88.696,48.554C88.696,51.313 90.636,52.431 93.028,51.052C95.421,49.672 97.361,46.319 97.361,43.56L88.696,48.554Z" style="fill:rgb(231,231,231);fill-rule:nonzero;"/>
    </g>
    <g transform="matrix(2.27664,0,0,2.27664,42,18.643)">
        <path d="M97.358,43.561C97.358,46.319 99.298,47.437 101.691,46.058C104.084,44.679 106.024,41.325 106.024,38.566L97.358,43.561Z" style="fill:rgb(241,91,102);fill-rule:nonzero;"/>
    </g>
    <g transform="matrix(2.27664,0,0,2.27664,42,18.643)">
        <path d="M106.038,38.563C106.038,41.321 107.979,42.439 110.371,41.06C112.764,39.681 114.704,36.327 114.704,33.568L106.038,38.563Z" style="fill:rgb(231,231,231);fill-rule:nonzero;"/>
    </g>
    <g transform="matrix(2.27664,0,0,2.27664,42,18.643)">
        <path d="M114.701,33.569C114.701,36.327 116.641,37.446 119.033,36.066C121.426,34.687 123.366,31.333 123.366,28.575L114.701,33.569Z" style="fill:rgb(241,91,102);fill-rule:nonzero;"/>
    </g>
    <g transform="matrix(2.27664,0,0,2.27664,42,18.643)">
        <path d="M132.026,23.582C132.026,26.34 133.966,27.458 136.358,26.079C138.751,24.7 140.69,21.346 140.69,18.587L132.026,23.582Z" style="fill:rgb(241,91,102);fill-rule:nonzero;"/>
    </g>
    <g transform="matrix(2.27664,0,0,2.27664,42,18.643)">
        <path d="M123.363,28.575C123.363,31.334 125.303,32.452 127.696,31.073C130.089,29.693 132.028,26.34 132.028,23.581L123.363,28.575Z" style="fill:rgb(231,231,231);fill-rule:nonzero;"/>
    </g>
    <g transform="matrix(2.27664,0,0,2.27664,42,18.643)">
        <path d="M193.454,89.086L193.454,103.876L192.374,103.876L192.374,90.058L188.755,90.058L188.755,89.086L193.454,89.086Z" style="fill:rgb(215,217,217);fill-rule:nonzero;"/>
    </g>
    <g transform="matrix(2.27664,0,0,2.27664,42,18.643)">
        <path d="M142.203,116.343C142.203,116.343 142.839,109.579 143.484,109.634C144.128,109.688 144.227,110.888 144.152,111.47C144.077,112.052 144.18,114.311 144.18,114.311L142.203,116.343Z" style="fill:rgb(249,178,153);fill-rule:nonzero;"/>
    </g>
    <g transform="matrix(2.27664,0,0,2.27664,42,18.643)">
        <path d="M200.312,110.801L197.069,133.583L212.071,198.955L170.664,202.264L188.481,96.986C188.481,96.986 200.282,95.674 200.312,110.801Z" style="fill:rgb(12,43,52);fill-rule:nonzero;"/>
    </g>
    <g transform="matrix(2.27664,0,0,2.27664,42,18.643)">
        <path d="M149.413,225.877L147.022,252.858L157.24,252.858L161.743,225.877L149.413,225.877Z" style="fill:rgb(249,178,153);fill-rule:nonzero;"/>
    </g>
    <g transform="matrix(2.27664,0,0,2.27664,42,18.643)">
        <path d="M147.021,252.86C147.021,252.86 140.128,253.748 138.898,254.637L156.963,254.419L157.239,252.86L147.021,252.86Z" style="fill:rgb(249,178,153);fill-rule:nonzero;"/>
    </g>
    <g transform="matrix(2.27664,0,0,2.27664,42,18.643)">
        <path d="M138.898,254.637L138.898,255.357L157.502,255.16L157.502,254.384L138.898,254.637Z" style="fill:rgb(241,91,102);fill-rule:nonzero;"/>
    </g>
    <g transform="matrix(2.27664,0,0,2.27664,42,18.643)">
        <path d="M145.472,255.055C145.377,255.096 145.081,254.544 144.482,254.11C143.891,253.663 143.276,253.541 143.288,253.438C143.28,253.344 144.009,253.312 144.694,253.824C145.383,254.329 145.565,255.035 145.472,255.055Z" style="fill:rgb(241,91,102);fill-rule:nonzero;"/>
    </g>
    <g transform="matrix(2.27664,0,0,2.27664,42,18.643)">
        <path d="M157.486,252.322C157.504,252.427 156.245,252.674 154.833,253.341C153.415,253.995 152.418,254.802 152.349,254.72C152.284,254.659 153.209,253.699 154.682,253.017C156.15,252.326 157.48,252.232 157.486,252.322Z" style="fill:rgb(241,91,102);fill-rule:nonzero;"/>
    </g>
    <g transform="matrix(2.27664,0,0,2.27664,42,18.643)">
        <path d="M157.057,251.885C157.052,251.983 154.802,251.95 152.031,251.81C149.26,251.671 147.018,251.478 147.022,251.379C147.027,251.281 149.278,251.315 152.049,251.455C154.82,251.594 157.063,251.787 157.057,251.885Z" style="fill:rgb(241,91,102);fill-rule:nonzero;"/>
    </g>
    <g transform="matrix(2.27664,0,0,2.27664,42,18.643)">
        <path d="M158.25,248.335C158.268,248.432 155.791,248.964 152.719,249.524C149.645,250.084 147.14,250.459 147.123,250.362C147.105,250.265 149.581,249.733 152.655,249.174C155.727,248.613 158.232,248.238 158.25,248.335Z" style="fill:rgb(241,91,102);fill-rule:nonzero;"/>
    </g>
    <g transform="matrix(2.27664,0,0,2.27664,42,18.643)">
        <path d="M158.068,248.465C158.062,248.505 157.526,248.472 156.719,248.171C156.319,248.018 155.853,247.796 155.38,247.476C155.142,247.314 154.909,247.139 154.669,246.923C154.552,246.811 154.429,246.672 154.36,246.484C154.293,246.293 154.29,246.07 154.416,245.869C154.547,245.656 154.814,245.594 154.997,245.616C155.189,245.633 155.348,245.698 155.492,245.757C155.785,245.877 156.052,246.028 156.289,246.196C156.762,246.533 157.11,246.93 157.344,247.295C157.815,248.033 157.858,248.589 157.822,248.591C157.763,248.612 157.632,248.095 157.137,247.439C156.892,247.114 156.548,246.762 156.102,246.466C155.879,246.319 155.631,246.186 155.361,246.081C155.098,245.963 154.794,245.913 154.714,246.063C154.606,246.233 154.706,246.489 154.912,246.672C155.12,246.866 155.35,247.049 155.569,247.207C156.009,247.526 156.444,247.762 156.817,247.939C157.571,248.289 158.08,248.409 158.068,248.465Z" style="fill:rgb(241,91,102);fill-rule:nonzero;"/>
    </g>
    <g transform="matrix(2.27664,0,0,2.27664,42,18.643)">
        <path d="M157.976,248.704C157.945,248.72 157.702,248.23 157.722,247.373C157.732,246.949 157.819,246.441 158.036,245.915C158.144,245.653 158.288,245.39 158.466,245.137C158.555,245.007 158.651,244.89 158.764,244.763C158.879,244.646 159.047,244.495 159.298,244.497C159.549,244.509 159.723,244.674 159.815,244.849C159.907,245.031 159.917,245.215 159.913,245.375C159.899,245.69 159.849,245.985 159.77,246.258C159.613,246.807 159.346,247.253 159.081,247.586C158.533,248.25 158.024,248.454 158.011,248.42C157.975,248.371 158.418,248.094 158.879,247.435C159.101,247.105 159.326,246.68 159.451,246.173C159.516,245.92 159.555,245.646 159.563,245.368C159.585,245.101 159.456,244.858 159.288,244.854C159.131,244.837 158.912,245.124 158.751,245.34C158.585,245.569 158.445,245.808 158.338,246.047C158.121,246.525 158.015,246.993 157.974,247.391C157.89,248.19 158.038,248.691 157.976,248.704Z" style="fill:rgb(241,91,102);fill-rule:nonzero;"/>
    </g>
    <g transform="matrix(2.27664,0,0,2.27664,42,18.643)">
        <path d="M159.352,252.918C159.269,252.961 158.721,252.06 158.324,250.828C157.924,249.598 157.838,248.548 157.932,248.534C158.032,248.517 158.272,249.519 158.664,250.719C159.051,251.92 159.444,252.872 159.352,252.918Z" style="fill:rgb(241,91,102);fill-rule:nonzero;"/>
    </g>
    <g transform="matrix(2.27664,0,0,2.27664,42,18.643)">
        <path d="M160.577,251.96C160.523,252.035 159.599,251.429 158.771,250.366C157.937,249.307 157.571,248.266 157.657,248.233C157.752,248.189 158.249,249.128 159.053,250.146C159.849,251.17 160.642,251.878 160.577,251.96Z" style="fill:rgb(241,91,102);fill-rule:nonzero;"/>
    </g>
    <g transform="matrix(2.27664,0,0,2.27664,42,18.643)">
        <path d="M187.544,228.09L208.471,244.651L213.451,237.381L194.736,217.049L187.544,228.09Z" style="fill:rgb(249,178,153);fill-rule:nonzero;"/>
    </g>
    <g transform="matrix(2.27664,0,0,2.27664,42,18.643)">
        <path d="M206.986,245.057C206.986,245.057 203.768,251.207 203.793,252.723L213.959,237.814L212.837,236.695L206.986,245.057Z" style="fill:rgb(249,178,153);fill-rule:nonzero;"/>
    </g>
    <g transform="matrix(2.27664,0,0,2.27664,42,18.643)">
        <path d="M203.793,252.727L204.386,253.14L214.876,237.8L214.24,237.356L203.793,252.727Z" style="fill:rgb(241,91,102);fill-rule:nonzero;"/>
    </g>
    <g transform="matrix(2.27664,0,0,2.27664,42,18.643)">
        <path d="M207.921,247.579C207.9,247.681 207.278,247.607 206.578,247.85C205.873,248.078 205.421,248.51 205.343,248.442C205.261,248.394 205.653,247.779 206.465,247.512C207.274,247.237 207.958,247.492 207.921,247.579Z" style="fill:rgb(241,91,102);fill-rule:nonzero;"/>
    </g>
    <g transform="matrix(2.27664,0,0,2.27664,42,18.643)">
        <path d="M212.526,236.199C212.623,236.244 212.105,237.417 211.844,238.954C211.57,240.489 211.661,241.767 211.554,241.777C211.466,241.795 211.209,240.488 211.492,238.893C211.764,237.296 212.449,236.152 212.526,236.199Z" style="fill:rgb(241,91,102);fill-rule:nonzero;"/>
    </g>
    <g transform="matrix(2.27664,0,0,2.27664,42,18.643)">
        <path d="M211.961,235.803C212.039,235.863 210.85,237.522 209.307,239.506C207.762,241.492 206.448,243.053 206.37,242.992C206.293,242.932 207.481,241.273 209.025,239.288C210.568,237.303 211.883,235.742 211.961,235.803Z" style="fill:rgb(241,91,102);fill-rule:nonzero;"/>
    </g>
    <g transform="matrix(2.27664,0,0,2.27664,42,18.643)">
        <path d="M209.722,233.277C209.812,233.318 208.954,235.381 207.806,237.884C206.658,240.388 205.655,242.384 205.565,242.344C205.476,242.303 206.333,240.24 207.481,237.736C208.629,235.232 209.632,233.235 209.722,233.277Z" style="fill:rgb(241,91,102);fill-rule:nonzero;"/>
    </g>
    <g transform="matrix(2.27664,0,0,2.27664,42,18.643)">
        <path d="M209.722,233.502C209.752,233.53 209.418,233.95 208.709,234.437C208.353,234.677 207.904,234.931 207.371,235.136C207.102,235.237 206.824,235.328 206.51,235.4C206.35,235.433 206.165,235.453 205.971,235.403C205.776,235.347 205.592,235.223 205.498,235.004C205.399,234.775 205.501,234.52 205.625,234.384C205.748,234.237 205.892,234.143 206.023,234.06C206.289,233.888 206.567,233.756 206.839,233.658C207.386,233.464 207.914,233.406 208.346,233.424C209.223,233.462 209.703,233.745 209.685,233.774C209.668,233.834 209.169,233.648 208.347,233.676C207.939,233.69 207.453,233.77 206.955,233.966C206.706,234.065 206.455,234.191 206.215,234.352C205.966,234.5 205.751,234.72 205.83,234.87C205.906,235.056 206.174,235.122 206.442,235.057C206.721,234.998 207.002,234.915 207.258,234.826C207.772,234.649 208.214,234.428 208.574,234.223C209.292,233.808 209.683,233.46 209.722,233.502Z" style="fill:rgb(241,91,102);fill-rule:nonzero;"/>
    </g>
    <g transform="matrix(2.27664,0,0,2.27664,42,18.643)">
        <path d="M209.857,233.714C209.852,233.749 209.311,233.668 208.619,233.161C208.276,232.909 207.908,232.547 207.601,232.069C207.448,231.83 207.314,231.562 207.209,231.271C207.152,231.124 207.112,230.978 207.072,230.813C207.042,230.652 207.014,230.428 207.16,230.223C207.312,230.025 207.548,229.977 207.745,230.001C207.947,230.03 208.103,230.128 208.232,230.223C208.483,230.414 208.696,230.624 208.876,230.846C209.237,231.289 209.451,231.762 209.572,232.169C209.804,232.998 209.68,233.531 209.644,233.523C209.583,233.524 209.609,233.003 209.332,232.249C209.188,231.877 208.968,231.451 208.623,231.057C208.453,230.86 208.25,230.672 208.026,230.505C207.819,230.333 207.547,230.3 207.447,230.436C207.342,230.554 207.454,230.897 207.539,231.154C207.631,231.422 207.747,231.671 207.882,231.897C208.15,232.347 208.474,232.702 208.776,232.964C209.387,233.491 209.881,233.656 209.857,233.714Z" style="fill:rgb(241,91,102);fill-rule:nonzero;"/>
    </g>
    <g transform="matrix(2.27664,0,0,2.27664,42,18.643)">
        <path d="M214.111,234.996C214.1,235.09 213.045,235.021 211.808,234.641C210.567,234.265 209.656,233.734 209.698,233.649C209.742,233.557 210.702,233.934 211.912,234.3C213.118,234.672 214.127,234.895 214.111,234.996Z" style="fill:rgb(241,91,102);fill-rule:nonzero;"/>
    </g>
    <g transform="matrix(2.27664,0,0,2.27664,42,18.643)">
        <path d="M214.001,233.451C214.033,233.537 213.006,233.946 211.659,234.015C210.312,234.092 209.247,233.796 209.269,233.706C209.288,233.603 210.343,233.735 211.639,233.659C212.936,233.594 213.971,233.351 214.001,233.451Z" style="fill:rgb(241,91,102);fill-rule:nonzero;"/>
    </g>
    <g transform="matrix(2.27664,0,0,2.27664,42,18.643)">
        <path d="M167.365,146.698C167.365,146.698 159.373,199.704 160.536,202.265C161.699,204.828 187.586,231.287 187.586,231.287L197.3,214.677C197.3,214.677 180.17,195.731 180.415,194.747C180.662,193.764 192.766,142.435 192.766,142.435L167.365,146.698Z" style="fill:rgb(241,91,102);fill-rule:nonzero;"/>
    </g>
    <g transform="matrix(2.27664,0,0,2.27664,42,18.643)">
        <path d="M169.225,212.297L176.048,197.335L183.938,180.526C179.226,187.409 175.073,194.667 171.776,202.502C170.474,205.716 169.623,208.981 169.225,212.297Z" style="fill:rgb(241,91,102);fill-rule:nonzero;"/>
    </g>
    <g transform="matrix(2.27664,0,0,2.27664,42,18.643)">
        <path d="M169.225,212.297C169.623,208.981 170.474,205.716 171.776,202.502C175.073,194.667 179.226,187.409 183.938,180.526L183.644,181.151L176.048,197.335L169.269,212.201L169.225,212.297Z" style="fill:rgb(158,48,60);fill-rule:nonzero;"/>
    </g>
    <g transform="matrix(2.27664,0,0,2.27664,42,18.643)">
        <path d="M164.533,166.264C164.612,165.702 171.059,151.226 171.059,151.226L167.929,146.818L167.373,146.698L164.533,166.264Z" style="fill:rgb(241,91,102);fill-rule:nonzero;"/>
    </g>
    <g transform="matrix(2.27664,0,0,2.27664,42,18.643)">
        <path d="M164.533,166.264L167.373,146.698L167.929,146.818L171.059,151.226C171.059,151.226 164.612,165.702 164.533,166.264Z" style="fill:rgb(158,48,60);fill-rule:nonzero;"/>
    </g>
    <g transform="matrix(2.27664,0,0,2.27664,42,18.643)">
        <path d="M197.305,141.711L197.788,143.677C199.211,149.473 198.338,155.591 195.351,160.76L173.68,198.259C172.146,200.915 171.026,203.789 170.36,206.783L164.963,231.033C164.963,231.033 147.928,231.609 147.189,231.033C146.451,230.456 149.387,214.416 151.344,202.266C152.82,193.104 165.104,164.659 171.053,151.227L167.367,146.7L173.772,145.633L197.305,141.711Z" style="fill:rgb(241,91,102);fill-rule:nonzero;"/>
    </g>
    <g transform="matrix(2.27664,0,0,2.27664,42,18.643)">
        <path d="M164.955,231.031C164.957,231.055 164.708,231.094 164.256,231.144C163.804,231.195 163.148,231.249 162.338,231.302C160.716,231.408 158.47,231.486 155.991,231.481C153.51,231.475 151.267,231.399 149.645,231.32C148.833,231.28 148.177,231.24 147.725,231.204C147.272,231.167 147.022,231.135 147.022,231.11C147.023,231.086 147.275,231.071 147.729,231.065C148.263,231.065 148.904,231.066 149.652,231.068C151.365,231.083 153.562,231.103 155.992,231.125C158.465,231.13 160.705,231.092 162.327,231.05C163.074,231.033 163.714,231.018 164.247,231.006C164.702,230.998 164.954,231.006 164.955,231.031Z" style="fill:rgb(12,43,52);fill-rule:nonzero;"/>
    </g>
    <g transform="matrix(2.27664,0,0,2.27664,42,18.643)">
        <path d="M165.897,226.483C165.897,226.581 161.801,226.645 156.75,226.627C151.696,226.608 147.602,226.513 147.603,226.414C147.603,226.316 151.698,226.252 156.751,226.271C161.802,226.289 165.898,226.384 165.897,226.483Z" style="fill:rgb(12,43,52);fill-rule:nonzero;"/>
    </g>
    <g transform="matrix(2.27664,0,0,2.27664,42,18.643)">
        <path d="M194.332,211.256C194.353,211.269 194.221,211.507 193.966,211.925C193.665,212.405 193.298,212.991 192.864,213.68C191.879,215.227 190.602,217.228 189.189,219.442C187.785,221.661 186.516,223.668 185.535,225.217C185.094,225.902 184.72,226.484 184.414,226.961C184.144,227.369 183.984,227.589 183.964,227.577C183.942,227.564 184.061,227.32 184.295,226.889C184.528,226.459 184.877,225.842 185.319,225.087C186.201,223.575 187.454,221.505 188.887,219.25C190.32,216.996 191.66,214.982 192.654,213.541C193.151,212.821 193.56,212.241 193.851,211.848C194.141,211.453 194.312,211.242 194.332,211.256Z" style="fill:rgb(12,43,52);fill-rule:nonzero;"/>
    </g>
    <g transform="matrix(2.27664,0,0,2.27664,42,18.643)">
        <path d="M186.561,229.869C186.467,229.9 186.096,228.903 185.731,227.643C185.367,226.381 185.15,225.34 185.245,225.317C185.341,225.293 185.712,226.29 186.075,227.544C186.437,228.797 186.654,229.838 186.561,229.869Z" style="fill:rgb(12,43,52);fill-rule:nonzero;"/>
    </g>
    <g transform="matrix(2.27664,0,0,2.27664,42,18.643)">
        <path d="M188.087,229.818C187.989,229.835 187.631,228.163 187.286,226.086C186.94,224.007 186.739,222.31 186.837,222.294C186.934,222.278 187.293,223.949 187.638,226.027C187.983,228.105 188.184,229.803 188.087,229.818Z" style="fill:rgb(12,43,52);fill-rule:nonzero;"/>
    </g>
    <g transform="matrix(2.27664,0,0,2.27664,42,18.643)">
        <path d="M190.047,227.005C189.949,227.024 189.595,225.557 189.152,223.753C188.71,221.948 188.346,220.485 188.443,220.456C188.535,220.427 189.055,221.853 189.499,223.669C189.945,225.484 190.142,226.988 190.047,227.005Z" style="fill:rgb(12,43,52);fill-rule:nonzero;"/>
    </g>
    <g transform="matrix(2.27664,0,0,2.27664,42,18.643)">
        <path d="M191.735,223.111C191.638,223.133 191.276,221.723 190.927,219.963C190.577,218.203 190.373,216.763 190.47,216.746C190.567,216.73 190.929,218.139 191.277,219.894C191.626,221.648 191.831,223.089 191.735,223.111Z" style="fill:rgb(12,43,52);fill-rule:nonzero;"/>
    </g>
    <g transform="matrix(2.27664,0,0,2.27664,42,18.643)">
        <path d="M193.907,219.885C193.806,219.898 193.546,218.489 193.144,216.776C192.747,215.06 192.357,213.681 192.454,213.649C192.544,213.617 193.089,214.958 193.492,216.695C193.898,218.429 194.002,219.874 193.907,219.885Z" style="fill:rgb(12,43,52);fill-rule:nonzero;"/>
    </g>
    <g transform="matrix(2.27664,0,0,2.27664,42,18.643)">
        <path d="M195.864,217.144C195.768,217.169 195.403,216.034 195.049,214.612C194.695,213.189 194.485,212.016 194.582,211.992C194.677,211.969 195.041,213.102 195.396,214.526C195.75,215.949 195.959,217.121 195.864,217.144Z" style="fill:rgb(12,43,52);fill-rule:nonzero;"/>
    </g>
    <g transform="matrix(2.27664,0,0,2.27664,42,18.643)">
        <path d="M156.097,226.299C156.14,226.391 154.212,227.371 151.858,228.616C149.5,229.86 147.605,230.899 147.553,230.813C147.528,230.77 147.971,230.456 148.716,229.994C149.46,229.532 150.508,228.926 151.691,228.301C152.873,227.678 153.964,227.153 154.766,226.798C155.567,226.444 156.076,226.255 156.097,226.299Z" style="fill:rgb(12,43,52);fill-rule:nonzero;"/>
    </g>
    <g transform="matrix(2.27664,0,0,2.27664,42,18.643)">
        <path d="M161.344,226.379C161.368,226.422 160.857,226.758 160.004,227.252C159.151,227.747 157.953,228.394 156.604,229.061C155.254,229.726 154.01,230.284 153.098,230.659C152.186,231.035 151.609,231.236 151.59,231.191C151.57,231.146 152.111,230.864 152.995,230.43C154,229.937 155.162,229.369 156.446,228.741C157.724,228.105 158.883,227.529 159.885,227.03C160.767,226.594 161.32,226.336 161.344,226.379Z" style="fill:rgb(12,43,52);fill-rule:nonzero;"/>
    </g>
    <g transform="matrix(2.27664,0,0,2.27664,42,18.643)">
        <path d="M165.345,226.378C165.405,226.455 163.936,227.721 162,229.126C160.065,230.533 158.406,231.54 158.353,231.46C158.296,231.376 159.862,230.24 161.79,228.838C163.719,227.438 165.282,226.3 165.345,226.378Z" style="fill:rgb(12,43,52);fill-rule:nonzero;"/>
    </g>
    <g transform="matrix(2.27664,0,0,2.27664,42,18.643)">
        <path d="M165.783,228.889C165.843,228.967 165.178,229.579 164.298,230.255C163.416,230.93 162.654,231.416 162.594,231.337C162.534,231.26 163.199,230.648 164.079,229.971C164.96,229.296 165.723,228.811 165.783,228.889Z" style="fill:rgb(12,43,52);fill-rule:nonzero;"/>
    </g>
    <g transform="matrix(2.27664,0,0,2.27664,42,18.643)">
        <path d="M151.438,226.213C151.488,226.298 150.502,226.978 149.234,227.733C147.966,228.488 146.898,229.031 146.848,228.947C146.796,228.862 147.783,228.181 149.051,227.427C150.319,226.672 151.388,226.129 151.438,226.213Z" style="fill:rgb(12,43,52);fill-rule:nonzero;"/>
    </g>
    <g transform="matrix(2.27664,0,0,2.27664,42,18.643)">
        <path d="M170.593,151.125C170.64,151.146 170.279,152.046 169.688,153.495C169.096,154.945 168.28,156.948 167.413,159.173C166.546,161.399 165.793,163.425 165.248,164.893C164.702,166.361 164.36,167.267 164.311,167.251C164.288,167.244 164.343,167.007 164.462,166.584C164.58,166.162 164.767,165.556 165.009,164.81C165.494,163.319 166.212,161.274 167.08,159.043C167.949,156.814 168.803,154.822 169.455,153.395C169.782,152.682 170.054,152.11 170.253,151.718C170.451,151.326 170.571,151.114 170.593,151.125Z" style="fill:rgb(12,43,52);fill-rule:nonzero;"/>
    </g>
    <g transform="matrix(2.27664,0,0,2.27664,42,18.643)">
        <path d="M168.802,213.991C168.79,213.99 168.8,213.845 168.831,213.571C168.871,213.259 168.921,212.863 168.983,212.373C169.046,211.852 169.141,211.217 169.302,210.488C169.454,209.759 169.598,208.919 169.856,208.016C169.976,207.561 170.1,207.086 170.23,206.591C170.37,206.097 170.543,205.593 170.707,205.066C171.021,204.007 171.457,202.909 171.886,201.744C172.809,199.439 173.952,196.956 175.297,194.426C178.014,189.377 180.923,185.075 183.056,181.995C184.125,180.456 185.008,179.221 185.625,178.376C185.92,177.979 186.158,177.658 186.345,177.406C186.513,177.186 186.606,177.074 186.616,177.081C186.626,177.088 186.552,177.214 186.404,177.446C186.231,177.709 186.012,178.043 185.74,178.455C185.129,179.363 184.29,180.611 183.264,182.137C181.186,185.251 178.318,189.566 175.612,194.594C174.273,197.113 173.128,199.579 172.191,201.865C171.757,203.02 171.313,204.108 170.988,205.158C170.819,205.68 170.64,206.181 170.495,206.669C170.358,207.159 170.226,207.63 170.1,208.081C169.828,208.975 169.667,209.806 169.497,210.528C169.319,211.25 169.205,211.879 169.12,212.395C169.031,212.88 168.959,213.272 168.903,213.58C168.848,213.851 168.814,213.993 168.802,213.991Z" style="fill:rgb(12,43,52);fill-rule:nonzero;"/>
    </g>
    <g transform="matrix(2.27664,0,0,2.27664,42,18.643)">
        <path d="M190.067,97.065L173.299,98.488C173.299,98.488 168.269,98.604 162.823,111.341L158.881,123.954L165.97,125.462L165.985,126.155L167.378,146.7L197.639,141.809C197.707,139.199 196.237,135.398 195.124,131.822C196.253,129.003 201.033,116.72 201.024,110.804C201.005,98.157 190.067,97.065 190.067,97.065Z" style="fill:white;fill-rule:nonzero;"/>
    </g>
    <g transform="matrix(2.27664,0,0,2.27664,42,18.643)">
        <path d="M197.313,214.675C197.334,214.687 197.224,214.934 197.004,215.368C196.786,215.804 196.454,216.426 196.032,217.188C195.191,218.713 193.976,220.788 192.608,223.063C191.259,225.298 190.039,227.319 189.095,228.881C188.676,229.573 188.319,230.161 188.026,230.643C187.77,231.056 187.618,231.279 187.597,231.268C187.575,231.256 187.686,231.009 187.905,230.575C188.123,230.139 188.456,229.518 188.877,228.755C189.718,227.232 190.933,225.155 192.302,222.879C193.651,220.644 194.871,218.623 195.813,217.061C196.233,216.37 196.59,215.782 196.882,215.3C197.139,214.887 197.291,214.664 197.313,214.675Z" style="fill:rgb(12,43,52);fill-rule:nonzero;"/>
    </g>
    <g transform="matrix(2.27664,0,0,2.27664,42,18.643)">
        <path d="M193.328,127.273C193.352,127.366 192.308,127.714 190.968,127.892C189.627,128.072 188.528,128.01 188.528,127.915C188.526,127.813 189.603,127.716 190.921,127.538C192.237,127.364 193.303,127.175 193.328,127.273Z" style="fill:white;fill-rule:nonzero;"/>
    </g>
    <g transform="matrix(2.27664,0,0,2.27664,42,18.643)">
        <path d="M167.448,126.27L167.1,148.565L176.167,97.782C173.156,97.249 167.537,99.618 165.426,102.619C163.916,104.411 163.084,108.546 158.873,120.987L156.289,129.43L145.813,117.978L138.746,124.349C138.746,124.349 150.93,144.209 156.015,145.309C162.944,146.808 167.448,126.27 167.448,126.27Z" style="fill:rgb(51,88,99);fill-rule:nonzero;"/>
    </g>
    <g transform="matrix(2.27664,0,0,2.27664,42,18.643)">
        <path d="M168.89,105.635C168.915,105.64 168.88,105.949 168.798,106.504C168.701,107.129 168.58,107.915 168.434,108.851C168.124,110.831 167.717,113.569 167.34,116.603C166.966,119.638 166.695,122.393 166.513,124.389C166.425,125.331 166.352,126.123 166.293,126.754C166.238,127.312 166.196,127.62 166.171,127.619C166.146,127.617 166.142,127.306 166.154,126.745C166.166,126.184 166.201,125.372 166.261,124.37C166.378,122.366 166.61,119.601 166.985,116.559C167.363,113.518 167.811,110.78 168.186,108.807C168.372,107.821 168.536,107.025 168.661,106.479C168.786,105.931 168.867,105.63 168.89,105.635Z" style="fill:rgb(12,43,52);fill-rule:nonzero;"/>
    </g>
    <g transform="matrix(2.27664,0,0,2.27664,42,18.643)">
        <path d="M166.552,104.658C166.514,104.559 167.923,103.964 169.517,102.978C171.117,102.002 172.284,101.014 172.355,101.093C172.42,101.156 171.338,102.284 169.704,103.282C168.076,104.288 166.58,104.744 166.552,104.658Z" style="fill:white;fill-rule:nonzero;"/>
    </g>
    <g transform="matrix(2.27664,0,0,2.27664,42,18.643)">
        <path d="M163.646,119.363C163.545,119.383 163.233,118.219 162.77,116.813C162.313,115.405 161.879,114.281 161.972,114.238C162.058,114.198 162.645,115.271 163.11,116.703C163.579,118.131 163.74,119.345 163.646,119.363Z" style="fill:white;fill-rule:nonzero;"/>
    </g>
    <g transform="matrix(2.27664,0,0,2.27664,42,18.643)">
        <path d="M170.991,111.34C171.086,111.345 171.086,112.685 170.779,114.302C170.477,115.921 169.99,117.168 169.9,117.139C169.802,117.108 170.131,115.83 170.428,114.235C170.73,112.643 170.889,111.333 170.991,111.34Z" style="fill:white;fill-rule:nonzero;"/>
    </g>
    <g transform="matrix(2.27664,0,0,2.27664,42,18.643)">
        <path d="M160.799,130.773C160.899,130.794 160.729,131.957 160.582,133.394C160.429,134.831 160.357,136.003 160.255,136.003C160.16,136.005 160.073,134.816 160.226,133.357C160.376,131.899 160.706,130.752 160.799,130.773Z" style="fill:white;fill-rule:nonzero;"/>
    </g>
    <g transform="matrix(2.27664,0,0,2.27664,42,18.643)">
        <path d="M147.398,130.597C147.322,130.652 146.382,129.427 145.502,127.745C144.617,126.065 144.144,124.597 144.232,124.565C144.329,124.528 144.945,125.921 145.818,127.58C146.686,129.241 147.484,130.54 147.398,130.597Z" style="fill:white;fill-rule:nonzero;"/>
    </g>
    <g transform="matrix(2.27664,0,0,2.27664,42,18.643)">
        <path d="M155.076,131.123C155.127,131.203 154.284,131.817 153.118,132.346C151.953,132.879 150.936,133.112 150.908,133.02C150.878,132.923 151.827,132.544 152.97,132.021C154.113,131.504 155.023,131.036 155.076,131.123Z" style="fill:white;fill-rule:nonzero;"/>
    </g>
    <g transform="matrix(2.27664,0,0,2.27664,42,18.643)">
        <path d="M191.379,138.188L196.626,200.444L212.426,198.954L197.423,133.582L199.256,116.031L191.379,138.188Z" style="fill:rgb(51,88,99);fill-rule:nonzero;"/>
    </g>
    <g transform="matrix(2.27664,0,0,2.27664,42,18.643)">
        <path d="M196.616,200.446C196.517,200.453 195.357,186.642 194.025,169.601C192.692,152.554 191.692,138.733 191.79,138.726C191.888,138.718 193.048,152.526 194.381,169.573C195.713,186.614 196.714,200.438 196.616,200.446Z" style="fill:rgb(12,43,52);fill-rule:nonzero;"/>
    </g>
    <g transform="matrix(2.27664,0,0,2.27664,42,18.643)">
        <path d="M195.104,139.628C195.013,139.588 195.313,138.67 195.773,137.575C196.233,136.479 196.68,135.622 196.77,135.66C196.862,135.698 196.562,136.616 196.102,137.713C195.642,138.808 195.196,139.665 195.104,139.628Z" style="fill:white;fill-rule:nonzero;"/>
    </g>
    <g transform="matrix(2.27664,0,0,2.27664,42,18.643)">
        <path d="M199.452,148.886C199.37,148.951 198.58,148.044 197.478,147.066C196.38,146.084 195.389,145.403 195.444,145.314C195.489,145.232 196.589,145.792 197.716,146.801C198.846,147.805 199.528,148.832 199.452,148.886Z" style="fill:white;fill-rule:nonzero;"/>
    </g>
    <g transform="matrix(2.27664,0,0,2.27664,42,18.643)">
        <path d="M198.503,161.384C198.418,161.326 198.966,160.412 199.491,159.219C200.022,158.027 200.329,157.008 200.429,157.032C200.521,157.049 200.364,158.136 199.818,159.363C199.276,160.593 198.578,161.44 198.503,161.384Z" style="fill:white;fill-rule:nonzero;"/>
    </g>
    <g transform="matrix(2.27664,0,0,2.27664,42,18.643)">
        <path d="M201.893,171.41C201.828,171.484 200.852,170.746 199.713,169.761C198.573,168.775 197.701,167.916 197.766,167.842C197.83,167.768 198.806,168.506 199.946,169.491C201.086,170.477 201.957,171.336 201.893,171.41Z" style="fill:white;fill-rule:nonzero;"/>
    </g>
    <g transform="matrix(2.27664,0,0,2.27664,42,18.643)">
        <path d="M204.761,178.293C204.662,178.292 204.591,176.945 204.601,175.284C204.612,173.622 204.701,172.276 204.8,172.277C204.898,172.277 204.97,173.625 204.958,175.286C204.948,176.947 204.86,178.294 204.761,178.293Z" style="fill:white;fill-rule:nonzero;"/>
    </g>
    <g transform="matrix(2.27664,0,0,2.27664,42,18.643)">
        <path d="M199.676,182.972C199.573,182.973 199.486,181.897 199.297,180.583C199.114,179.269 198.9,178.21 198.999,178.183C199.09,178.157 199.464,179.194 199.652,180.534C199.842,181.873 199.771,182.972 199.676,182.972Z" style="fill:white;fill-rule:nonzero;"/>
    </g>
    <g transform="matrix(2.27664,0,0,2.27664,42,18.643)">
        <path d="M204.928,188.922C204.913,189.019 203.901,188.949 202.669,188.766C201.436,188.583 200.448,188.356 200.463,188.258C200.477,188.161 201.488,188.23 202.721,188.414C203.954,188.597 204.942,188.824 204.928,188.922Z" style="fill:white;fill-rule:nonzero;"/>
    </g>
    <g transform="matrix(2.27664,0,0,2.27664,42,18.643)">
        <path d="M204.078,196.846C203.996,196.792 204.569,195.785 205.355,194.596C206.144,193.408 206.848,192.489 206.93,192.543C207.013,192.597 206.441,193.604 205.653,194.793C204.866,195.981 204.16,196.901 204.078,196.846Z" style="fill:white;fill-rule:nonzero;"/>
    </g>
    <g transform="matrix(2.27664,0,0,2.27664,42,18.643)">
        <path d="M108.575,96.192C107.502,96.228 106.441,96.207 105.392,96.131C90.456,95.045 78.396,82.829 77.877,67.557C77.321,51.212 90.189,37.464 106.56,36.91C107.642,36.873 108.715,36.894 109.778,36.971C116.518,37.461 122.843,40.208 127.851,44.88C133.649,50.289 136.991,57.627 137.26,65.545C137.529,73.463 134.693,81.011 129.276,86.799C123.859,92.588 116.508,95.923 108.575,96.192ZM156.43,131.563L129.89,95.465C131.445,94.264 132.919,92.936 134.288,91.473C140.956,84.349 144.446,75.058 144.115,65.313C143.784,55.568 139.671,46.534 132.534,39.878C125.398,33.221 116.088,29.737 106.328,30.067C96.566,30.397 87.517,34.503 80.85,41.628C74.18,48.753 70.69,58.043 71.022,67.789C71.661,86.588 86.504,101.626 104.89,102.96C106.179,103.052 107.488,103.08 108.809,103.034C114.213,102.851 119.397,101.507 124.082,99.137L150.901,135.615C152.023,137.138 154.168,137.467 155.695,136.349C157.223,135.23 157.552,133.087 156.43,131.563Z" style="fill:rgb(12,43,52);fill-rule:nonzero;"/>
    </g>
    <g transform="matrix(2.27664,0,0,2.27664,42,18.643)">
        <path d="M157.535,126.109L154.39,136.828C154.39,136.828 170.861,142.809 179.783,142.7C188.141,142.597 190.536,141.652 193.477,134.912C196.419,128.174 199.756,120.434 200.456,115.975C200.456,115.975 205.174,95.455 187.175,97.287L186.689,113.337C186.689,113.337 184.695,119.915 184.551,120.295C183.208,123.847 181.468,129.043 179.783,129.672C178.098,130.301 157.535,126.109 157.535,126.109Z" style="fill:rgb(51,88,99);fill-rule:nonzero;"/>
    </g>
    <g transform="matrix(2.27664,0,0,2.27664,42,18.643)">
        <path d="M183.403,134.7C183.323,134.754 182.485,133.669 181.637,132.211C180.784,130.756 180.25,129.494 180.337,129.452C180.427,129.407 181.099,130.588 181.945,132.032C182.787,133.477 183.487,134.643 183.403,134.7Z" style="fill:rgb(12,43,52);fill-rule:nonzero;"/>
    </g>
    <g transform="matrix(2.27664,0,0,2.27664,42,18.643)">
        <path d="M185.075,133.021C185.014,133.098 183.943,132.37 182.681,131.395C181.421,130.419 180.447,129.565 180.507,129.488C180.568,129.409 181.639,130.137 182.901,131.113C184.161,132.089 185.136,132.942 185.075,133.021Z" style="fill:rgb(12,43,52);fill-rule:nonzero;"/>
    </g>
    <g transform="matrix(2.27664,0,0,2.27664,42,18.643)">
        <path d="M190.683,103.759C190.774,103.797 189.926,106.046 188.789,108.781C187.653,111.518 186.657,113.705 186.566,113.668C186.475,113.631 187.323,111.382 188.46,108.644C189.597,105.909 190.592,103.721 190.683,103.759Z" style="fill:rgb(12,43,52);fill-rule:nonzero;"/>
    </g>
    <g transform="matrix(2.27664,0,0,2.27664,42,18.643)">
        <path d="M199.745,119.035C199.768,119.043 199.684,119.335 199.513,119.853C199.31,120.438 199.057,121.169 198.756,122.037C198.103,123.875 197.183,126.409 196.095,129.183C195.003,131.957 193.927,134.433 193.082,136.195C192.66,137.076 192.306,137.783 192.044,138.264C191.785,138.744 191.632,139.005 191.609,138.994C191.587,138.983 191.699,138.701 191.919,138.203C192.169,137.636 192.481,136.93 192.852,136.09C193.636,134.306 194.673,131.821 195.762,129.052C196.825,126.314 197.786,123.838 198.52,121.949C198.876,121.04 199.17,120.307 199.382,119.804C199.594,119.301 199.722,119.027 199.745,119.035Z" style="fill:rgb(12,43,52);fill-rule:nonzero;"/>
    </g>
    <g transform="matrix(2.27664,0,0,2.27664,42,18.643)">
        <path d="M173.299,129.197C173.281,129.293 169.695,128.725 165.289,127.927C160.882,127.129 157.324,126.403 157.342,126.306C157.359,126.209 160.945,126.777 165.353,127.576C169.758,128.374 173.317,129.1 173.299,129.197Z" style="fill:rgb(12,43,52);fill-rule:nonzero;"/>
    </g>
    <g transform="matrix(2.27664,0,0,2.27664,42,18.643)">
        <path d="M191.977,119.407C191.878,119.405 191.816,118.107 191.838,116.508C191.86,114.908 191.957,113.612 192.056,113.613C192.154,113.615 192.217,114.912 192.194,116.513C192.173,118.112 192.075,119.408 191.977,119.407Z" style="fill:white;fill-rule:nonzero;"/>
    </g>
    <g transform="matrix(2.27664,0,0,2.27664,42,18.643)">
        <path d="M185.56,139.127C185.473,139.071 185.992,138.146 186.506,136.954C187.026,135.764 187.346,134.753 187.446,134.778C187.538,134.798 187.367,135.873 186.834,137.095C186.306,138.32 185.637,139.18 185.56,139.127Z" style="fill:white;fill-rule:nonzero;"/>
    </g>
    <g transform="matrix(2.27664,0,0,2.27664,42,18.643)">
        <path d="M176.828,138.572C176.734,138.612 176.162,137.464 175.398,136.085C174.637,134.704 173.969,133.61 174.052,133.552C174.131,133.497 174.94,134.514 175.711,135.913C176.486,137.31 176.916,138.536 176.828,138.572Z" style="fill:white;fill-rule:nonzero;"/>
    </g>
    <g transform="matrix(2.27664,0,0,2.27664,42,18.643)">
        <path d="M164.814,133.023C164.85,133.113 163.806,133.614 162.482,134.138C161.157,134.662 160.054,135.013 160.017,134.922C159.981,134.831 161.025,134.33 162.349,133.806C163.674,133.282 164.777,132.931 164.814,133.023Z" style="fill:white;fill-rule:nonzero;"/>
    </g>
    <g transform="matrix(2.27664,0,0,2.27664,42,18.643)">
        <path d="M198.588,107.841C198.51,107.911 197.716,107.101 196.574,106.323C195.437,105.535 194.395,105.086 194.433,104.988C194.459,104.9 195.595,105.212 196.776,106.029C197.962,106.837 198.661,107.786 198.588,107.841Z" style="fill:white;fill-rule:nonzero;"/>
    </g>
    <g transform="matrix(2.27664,0,0,2.27664,42,18.643)">
        <path d="M193.444,125.557C193.467,125.649 192.213,126.043 190.611,126.243C189.007,126.447 187.695,126.377 187.695,126.282C187.694,126.18 188.987,126.09 190.565,125.889C192.145,125.691 193.419,125.458 193.444,125.557Z" style="fill:white;fill-rule:nonzero;"/>
    </g>
    <g transform="matrix(2.27664,0,0,2.27664,42,18.643)">
        <path d="M191.764,70.623C192.609,68.821 194.925,67.986 196.846,68.524C198.764,69.061 200.228,70.74 200.863,72.626C201.498,74.513 201.397,76.579 200.971,78.523C200.661,79.938 200.24,81.595 201.185,82.694C202.064,83.715 203.703,83.69 204.718,84.576C205.725,85.455 205.782,87.203 204.835,88.146C203.887,89.088 202.136,89.025 201.258,88.017C201.27,89.01 201.797,89.912 202.111,90.855C202.424,91.798 202.46,92.988 201.698,93.626C201.132,94.1 200.283,94.103 199.599,93.826C198.914,93.549 198.355,93.038 197.813,92.537C198.12,93.565 198.169,94.698 197.772,95.695C197.375,96.691 196.483,97.521 195.42,97.675C194.092,97.869 192.778,96.978 192.139,95.8C191.498,94.622 191.418,93.221 191.513,91.884C191.663,89.803 192.206,87.769 192.46,85.698C192.715,83.626 192.658,81.431 191.687,79.582" style="fill:rgb(241,91,102);fill-rule:nonzero;"/>
    </g>
    <g transform="matrix(2.27664,0,0,2.27664,42,18.643)">
        <path d="M203.844,82.772C203.847,82.78 203.757,82.827 203.574,82.806C203.397,82.782 203.119,82.661 202.943,82.345C202.75,82.037 202.828,81.489 203.238,81.17C203.626,80.816 204.363,80.826 204.841,81.261C205.347,81.686 205.52,82.466 205.325,83.174C205.229,83.53 205.041,83.884 204.743,84.158C204.443,84.435 204.031,84.597 203.612,84.622C203.19,84.649 202.755,84.557 202.366,84.348C201.975,84.136 201.655,83.806 201.42,83.423C200.945,82.652 200.83,81.686 200.958,80.775C201.225,78.942 202.108,77.406 202.09,75.87C202.129,74.344 201.621,73.003 201.02,72.024C200.403,71.039 199.692,70.396 199.165,70.016C198.638,69.631 198.301,69.483 198.319,69.448C198.324,69.437 198.409,69.468 198.569,69.539C198.733,69.603 198.96,69.725 199.244,69.901C199.806,70.254 200.566,70.887 201.232,71.889C201.882,72.884 202.441,74.27 202.419,75.877C202.447,77.511 201.554,79.093 201.313,80.821C201.192,81.681 201.302,82.554 201.719,83.241C202.117,83.937 202.866,84.344 203.591,84.295C204.326,84.28 204.877,83.721 205.041,83.095C205.223,82.477 205.08,81.806 204.675,81.451C204.275,81.077 203.694,81.05 203.362,81.327C203.01,81.584 202.926,82.014 203.068,82.283C203.199,82.562 203.434,82.693 203.588,82.735C203.749,82.777 203.842,82.756 203.844,82.772Z" style="fill:rgb(241,91,102);fill-rule:nonzero;"/>
    </g>
    <g transform="matrix(2.27664,0,0,2.27664,42,18.643)">
        <path d="M187.326,97.692L188.28,75.944L179.629,69.402L171.765,73.24C171.765,73.24 171.502,83.097 171.765,87.371C172.026,91.646 176.344,92.102 176.344,92.102C176.344,92.102 176.244,94.607 176.144,97.24C176.024,100.424 178.596,103.064 181.789,103.034C184.764,103.007 187.196,100.66 187.326,97.692Z" style="fill:rgb(249,178,153);fill-rule:nonzero;"/>
    </g>
    <g transform="matrix(2.27664,0,0,2.27664,42,18.643)">
        <path d="M172.632,80.144C172.632,80.293 172.753,80.414 172.903,80.414C173.052,80.414 173.173,80.293 173.173,80.144C173.173,79.995 173.052,79.874 172.903,79.874C172.753,79.874 172.632,79.995 172.632,80.144Z" style="fill:rgb(12,43,52);fill-rule:nonzero;"/>
    </g>
    <g transform="matrix(2.27664,0,0,2.27664,42,18.643)">
        <path d="M172.112,79.825C172.182,79.895 172.587,79.552 173.177,79.521C173.767,79.48 174.21,79.772 174.272,79.694C174.302,79.658 174.229,79.528 174.035,79.395C173.844,79.263 173.523,79.142 173.155,79.165C172.788,79.187 172.483,79.346 172.311,79.501C172.134,79.655 172.077,79.793 172.112,79.825Z" style="fill:rgb(12,43,52);fill-rule:nonzero;"/>
    </g>
    <g transform="matrix(2.27664,0,0,2.27664,42,18.643)">
        <path d="M178.991,80.144C178.991,80.293 179.112,80.414 179.261,80.414C179.41,80.414 179.531,80.293 179.531,80.144C179.531,79.995 179.41,79.874 179.261,79.874C179.112,79.874 178.991,79.995 178.991,80.144Z" style="fill:rgb(12,43,52);fill-rule:nonzero;"/>
    </g>
    <g transform="matrix(2.27664,0,0,2.27664,42,18.643)">
        <path d="M178.646,79.825C178.718,79.895 179.122,79.552 179.713,79.521C180.302,79.48 180.745,79.772 180.807,79.694C180.837,79.658 180.764,79.528 180.57,79.395C180.38,79.263 180.058,79.142 179.69,79.165C179.323,79.187 179.018,79.346 178.846,79.501C178.67,79.655 178.613,79.793 178.646,79.825Z" style="fill:rgb(12,43,52);fill-rule:nonzero;"/>
    </g>
    <g transform="matrix(2.27664,0,0,2.27664,42,18.643)">
        <path d="M178.463,85.358C177.729,85.722 176.428,86.244 175.61,86.339C175.61,86.339 176.338,87.376 177.566,86.893C178.839,86.393 178.463,85.358 178.463,85.358Z" style="fill:white;fill-rule:nonzero;"/>
    </g>
    <g transform="matrix(2.27664,0,0,2.27664,42,18.643)">
        <path d="M176.341,92.101C176.341,92.101 179.224,92.134 182.015,90.188C182.015,90.188 180.728,93.327 176.435,93.15L176.341,92.101Z" style="fill:rgb(247,149,112);fill-rule:nonzero;"/>
    </g>
    <g transform="matrix(2.27664,0,0,2.27664,42,18.643)">
        <path d="M200.748,88.231C200.368,88.252 199.803,88.191 199.196,87.881C198.586,87.582 197.981,87.017 197.504,86.243C197.019,85.476 196.643,84.527 196.239,83.535C195.44,81.549 194.836,79.704 194.428,78.36C194.363,78.148 194.305,77.954 194.249,77.768C194.213,77.539 194.176,77.335 194.136,77.185C191.801,68.271 183.953,66.609 182.4,66.609C180.735,66.609 177.822,65.695 173.576,70.099C172.864,70.838 172.35,71.585 171.966,72.319C170.871,73.69 170.292,75.204 170.072,76.344C169.814,77.646 169.923,78.469 169.974,78.466C170.054,78.469 170.068,77.659 170.4,76.421C170.564,75.801 170.829,75.071 171.222,74.317C170.602,77.077 171.657,79.24 171.657,79.24L173.18,78.821L178.633,76.969C178.137,75.283 178.867,73.19 179.279,72.214L179.32,72.176C180.569,78.575 186.529,79.165 186.529,79.165L187.536,93.164C194.786,91.618 194.621,81.934 194.575,79.967C194.903,81.076 195.331,82.35 195.868,83.684C196.275,84.678 196.664,85.641 197.194,86.442C197.711,87.245 198.398,87.849 199.075,88.136C199.748,88.437 200.367,88.457 200.766,88.385C201.168,88.308 201.359,88.179 201.35,88.161C201.338,88.129 201.13,88.205 200.748,88.231Z" style="fill:rgb(241,91,102);fill-rule:nonzero;"/>
    </g>
    <g transform="matrix(2.27664,0,0,2.27664,42,18.643)">
        <path d="M176.517,84.804C176.517,84.771 176.148,84.727 175.55,84.683C175.401,84.676 175.252,84.654 175.221,84.542C175.181,84.428 175.239,84.254 175.305,84.067C175.433,83.68 175.568,83.273 175.71,82.846C175.99,81.978 176.231,81.188 176.395,80.612C176.558,80.037 176.643,79.675 176.612,79.666C176.581,79.655 176.439,79.998 176.234,80.561C176.03,81.123 175.764,81.905 175.483,82.773C175.348,83.203 175.219,83.612 175.096,84C175.045,84.182 174.954,84.388 175.038,84.616C175.081,84.728 175.193,84.806 175.288,84.828C175.386,84.852 175.47,84.85 175.545,84.85C176.143,84.852 176.515,84.836 176.517,84.804Z" style="fill:rgb(12,43,52);fill-rule:nonzero;"/>
    </g>
    <g transform="matrix(2.27664,0,0,2.27664,42,18.643)">
        <path d="M188.741,84.623C188.715,83.911 188.714,83.178 188.971,82.513C189.228,81.848 189.8,81.259 190.511,81.184C191.328,81.1 192.119,81.778 192.249,82.588C192.379,83.398 191.906,84.241 191.19,84.643C190.474,85.046 189.567,85.034 188.812,84.71" style="fill:rgb(249,178,153);fill-rule:nonzero;"/>
    </g>
    <g transform="matrix(2.27664,0,0,2.27664,42,18.643)">
        <path d="M190.002,83.998C190.028,83.951 190.234,84.056 190.535,83.964C190.84,83.89 191.151,83.545 191.176,83.055C191.194,82.815 191.141,82.593 191.024,82.486C190.904,82.371 190.711,82.338 190.558,82.347C190.236,82.375 190.011,82.46 189.992,82.405C189.979,82.37 190.136,82.206 190.52,82.097C190.711,82.055 190.987,82.043 191.239,82.236C191.491,82.442 191.553,82.784 191.533,83.079C191.514,83.384 191.398,83.673 191.214,83.877C191.032,84.086 190.783,84.192 190.583,84.211C190.161,84.252 189.967,84.024 190.002,83.998Z" style="fill:rgb(247,149,112);fill-rule:nonzero;"/>
    </g>
    <g transform="matrix(2.27664,0,0,2.27664,42,18.643)">
        <path d="M191.279,84.582C191.301,84.549 191.601,84.803 191.596,85.378C191.59,85.653 191.478,86.007 191.191,86.27C190.915,86.529 190.488,86.698 190.038,86.628C189.589,86.551 189.238,86.255 189.059,85.92C188.871,85.581 188.879,85.209 188.963,84.947C189.142,84.401 189.508,84.255 189.518,84.294C189.558,84.334 189.292,84.544 189.208,85.006C189.169,85.232 189.191,85.51 189.345,85.757C189.495,86.005 189.772,86.221 190.096,86.275C190.42,86.328 190.752,86.211 190.973,86.025C191.199,85.839 191.308,85.582 191.344,85.356C191.412,84.892 191.227,84.608 191.279,84.582Z" style="fill:rgb(12,43,52);fill-rule:nonzero;"/>
    </g>
    <g transform="matrix(2.27664,0,0,2.27664,42,18.643)">
        <path d="M188.76,81.641C188.769,81.655 188.591,81.808 188.209,81.981C187.828,82.154 187.229,82.325 186.472,82.332C185.719,82.335 184.81,82.161 183.919,81.696C183.027,81.233 182.197,80.472 181.54,79.532C180.221,77.628 179.853,75.528 179.644,74.086C179.546,73.354 179.495,72.76 179.466,72.349C179.439,71.938 179.437,71.709 179.462,71.707C179.517,71.699 179.642,72.604 179.893,74.047C180.163,75.47 180.568,77.506 181.833,79.329C182.462,80.227 183.243,80.956 184.075,81.406C184.906,81.86 185.761,82.051 186.476,82.081C187.935,82.131 188.737,81.567 188.76,81.641Z" style="fill:rgb(241,91,102);fill-rule:nonzero;"/>
    </g>
    <g transform="matrix(2.27664,0,0,2.27664,42,18.643)">
        <path d="M193.563,75.513C193.458,75.54 193.137,74.277 192.297,72.941C191.471,71.596 190.479,70.749 190.55,70.666C190.595,70.59 191.734,71.346 192.6,72.753C193.478,74.153 193.652,75.506 193.563,75.513Z" style="fill:rgb(12,43,52);fill-rule:nonzero;"/>
    </g>
    <g transform="matrix(2.27664,0,0,2.27664,42,18.643)">
        <path d="M154.714,135.753L152.195,135.726C149.906,135.503 148.624,135.466 147.984,134.858C147.128,134.044 148.304,133.244 148.304,133.244C148.304,133.244 146.647,132.676 146.803,131.668C146.908,130.98 147.693,130.903 147.693,130.903C147.693,130.903 146.231,130.333 145.943,129.725C145.548,128.896 146.581,128.453 146.581,128.453C144.587,127.226 144.768,126.013 145.229,125.892C145.689,125.771 147.245,126.485 147.245,126.485C148.558,126.859 152.141,127.951 150.813,125.978C149.485,124.005 149.21,121.99 149.515,121.393C149.82,120.795 150.764,121.002 150.882,121.731C150.977,122.32 151.44,123.252 151.817,123.938C152.128,124.503 152.53,125.015 153.012,125.445C153.575,125.944 154.071,126.346 154.503,126.677L156.745,128.837L154.714,135.753Z" style="fill:rgb(249,178,153);fill-rule:nonzero;"/>
    </g>
    <g transform="matrix(2.27664,0,0,2.27664,42,18.643)">
        <path d="M139.037,110.645C139.221,110.103 139.668,109.717 140.155,109.972C140.385,110.226 140.391,110.573 140.315,110.808L138.759,115.864L138.761,115.869L140.235,112.295C140.419,111.753 140.91,111.427 141.249,111.721C141.436,111.883 141.443,112.305 141.368,112.541L140.025,116.737L141.118,114.114C141.346,113.516 141.614,113.355 141.919,113.486C142.22,113.615 142.233,114.061 142.158,114.297L141.232,117.396C141.432,117.99 142.117,119.864 141.458,120.919L141.522,121.205L141.834,121.562L139.768,123.424C139.768,123.424 137.862,118.611 137.501,117.168C137.185,115.907 137.473,115.078 137.613,114.643L139.037,110.645Z" style="fill:rgb(249,178,153);fill-rule:nonzero;"/>
    </g>
    <g transform="matrix(2.27664,0,0,2.27664,42,18.643)">
        <circle cx="108" cy="67" r="30" style="fill:rgb(255,96,108);fill-opacity:0.5;"/>
    </g>
    <g transform="matrix(2.27664,0,0,2.27664,42,18.643)">
        <path d="M16.979,133.038C13.671,133.569 12.191,137.628 12.48,140.96C12.77,144.293 14.142,147.551 13.775,150.876C13.309,155.098 10.113,158.667 9.741,162.899C9.301,167.89 12.836,172.316 13.892,177.215C14.405,179.598 14.333,182.118 15.222,184.387C16.721,188.216 21.116,190.674 25.169,189.951C29.222,189.229 32.492,185.404 32.571,181.294C32.644,177.462 30.275,173.853 30.563,170.031C30.776,167.206 32.434,164.529 32.079,161.719C31.656,158.375 28.553,156 27.457,152.811C26.362,149.621 27.414,146.107 27.036,142.756C26.357,136.745 23.019,132.556 16.979,133.038Z" style="fill:rgb(241,91,102);fill-rule:nonzero;"/>
    </g>
    <g transform="matrix(2.27664,0,0,2.27664,42,18.643)">
        <path d="M0.081,162.142C-0.482,167.711 1.985,174.263 4.854,179.072C7.723,183.882 12.17,187.736 17.343,189.895C17.927,190.138 18.653,190.343 19.144,189.945C19.546,189.619 19.597,189.034 19.6,188.516C19.639,182.656 17.729,176.799 14.24,172.084C10.751,167.37 5.704,163.826 0.081,162.142Z" style="fill:rgb(241,91,102);fill-rule:nonzero;"/>
    </g>
    <g transform="matrix(2.27664,0,0,2.27664,42,18.643)">
        <path d="M18.452,190.169C18.084,190.169 17.689,190.039 17.343,189.895C12.17,187.736 7.723,183.882 4.854,179.072C2.265,174.733 0.003,168.974 0,163.799C0,163.239 0.026,162.686 0.081,162.142C5.704,163.826 10.751,167.37 14.24,172.084C17.695,176.752 19.602,182.542 19.601,188.345C19.601,188.402 19.6,188.459 19.6,188.516C19.599,188.692 19.592,188.876 19.568,189.055C19.522,189.402 19.41,189.73 19.144,189.945C18.944,190.108 18.705,190.169 18.452,190.169Z" style="fill:rgb(217,71,82);fill-rule:nonzero;"/>
    </g>
    <g transform="matrix(2.27664,0,0,2.27664,42,18.643)">
        <path d="M24.392,201.539C24.382,201.543 24.328,201.437 24.233,201.229C24.128,200.989 23.996,200.687 23.835,200.317C23.5,199.521 22.999,198.377 22.361,196.971C21.087,194.159 19.199,190.332 16.822,186.266C14.439,182.201 12.024,178.68 10.195,176.193C9.283,174.948 8.529,173.95 7.999,173.268C7.756,172.946 7.557,172.683 7.398,172.474C7.264,172.29 7.197,172.19 7.206,172.184C7.214,172.177 7.298,172.263 7.448,172.433C7.619,172.633 7.833,172.884 8.096,173.191C8.656,173.85 9.437,174.829 10.375,176.059C12.254,178.517 14.705,182.029 17.095,186.107C19.479,190.185 21.341,194.04 22.565,196.88C23.179,198.3 23.649,199.46 23.95,200.272C24.089,200.65 24.203,200.959 24.293,201.206C24.368,201.421 24.403,201.536 24.392,201.539Z" style="fill:rgb(12,43,52);fill-rule:nonzero;"/>
    </g>
    <g transform="matrix(2.27664,0,0,2.27664,42,18.643)">
        <path d="M20.798,148.447C20.809,148.446 20.83,148.63 20.858,148.981C20.886,149.359 20.923,149.87 20.97,150.515C21.058,151.877 21.181,153.797 21.334,156.158C21.635,160.923 22.058,167.506 22.57,174.773C23.083,182.043 23.588,188.62 23.958,193.38C24.139,195.739 24.286,197.658 24.39,199.019C24.434,199.663 24.469,200.175 24.495,200.553C24.515,200.904 24.521,201.089 24.51,201.09C24.499,201.091 24.472,200.908 24.431,200.559C24.391,200.182 24.336,199.672 24.267,199.03C24.139,197.67 23.957,195.755 23.735,193.399C23.307,188.642 22.767,182.067 22.254,174.795C21.742,167.526 21.354,160.941 21.11,156.171C21,153.807 20.91,151.884 20.847,150.521C20.825,149.875 20.808,149.363 20.795,148.984C20.787,148.632 20.787,148.447 20.798,148.447Z" style="fill:rgb(12,43,52);fill-rule:nonzero;"/>
    </g>
    <g transform="matrix(2.27664,0,0,2.27664,42,18.643)">
        <path d="M15.669,193.596L29.641,193.596L29.641,203.837C29.641,207.535 26.638,210.532 22.934,210.532C19.369,210.532 16.427,207.749 16.236,204.194L15.669,193.596Z" style="fill:rgb(51,88,99);fill-rule:nonzero;"/>
    </g>
</svg>
