<svg width="230" height="229" viewBox="0 0 230 229" fill="none" xmlns="http://www.w3.org/2000/svg">
<path opacity="0.1" d="M154.764 188.181C113.4 210.553 51.9307 177.033 35.3487 146.373C18.7668 115.714 23.6404 68.2283 65.0049 45.8569C106.369 23.4856 145.226 15.1949 185.143 65.3595C201.725 96.0194 196.129 165.81 154.764 188.181Z" fill="url(#paint0_linear)"/>
<g clip-path="url(#clip0)">
<path d="M85.9741 107.243C85.9741 107.243 77.7602 99.5943 77.7602 92.4471C79.4987 90.8922 85.0923 86.7042 86.1505 86.7042C87.2087 86.7042 87.2087 83.5695 83.5301 83.394C79.8515 83.5695 76.8783 87.4064 76.8783 87.4064C76.8783 87.4064 74.9634 81.137 71.6376 82.8924C69.899 84.4472 70.5793 85.8516 70.5793 85.8516C70.5793 85.8516 68.3117 83.2435 67.6062 85.1494C66.9007 87.0553 67.4298 88.1086 67.4298 88.1086C67.4298 88.1086 64.633 87.4064 65.3385 91.0176C64.633 91.0176 62.7685 94.027 66.9763 95.8827C67.4298 96.6852 68.0345 99.1429 70.7053 97.9642C70.7053 97.9642 64.633 120.635 81.4388 123.769C89.1236 123.418 90.5346 114.541 90.5346 114.541L88.6197 111.23L85.9741 107.243Z" fill="#F9AE81"/>
<path d="M81.4389 123.769C82.0184 123.744 82.5476 123.669 83.0515 123.544L84.3869 119.23C70.2267 123.067 70.7054 97.9392 70.7054 97.9392C70.7054 97.9392 64.6583 120.635 81.4389 123.769Z" fill="#F79E77"/>
<path opacity="0.23" d="M88.5946 111.23L87.8136 110.052C83.5806 112.735 76.047 115.895 69.7983 110.077C70.4534 116.02 73.1998 122.24 81.4137 123.769C89.0986 123.418 90.5095 114.541 90.5095 114.541L88.5946 111.23Z" fill="#9F665C"/>
<path d="M100.84 97.6633C100.84 97.6633 87.2087 106.365 85.9741 107.243C86.856 109.149 88.5945 111.256 88.5945 111.256L100.84 97.6633Z" fill="#CDD2D8"/>
<path d="M125.305 162.214C125.305 162.214 134.401 176.132 138.936 186.916C140.322 187.267 144.53 186.564 144.53 186.564C144.53 186.564 140.347 159.781 140.675 155.944C136.492 156.998 125.305 162.214 125.305 162.214Z" fill="#203A49"/>
<path d="M80.9097 160.483C80.9097 160.483 88.5945 184.834 89.6527 188.671C91.2149 189.022 93.8605 188.32 93.8605 188.32C93.8605 188.32 94.566 167.43 95.2714 162.916C94.8935 161.863 80.9097 160.483 80.9097 160.483Z" fill="#203A49"/>
<path d="M103.108 95.9331C103.108 95.9331 68.9668 116.647 78.2894 163.267C80.1539 165.123 86.9064 169.06 91.3409 169.762C92.2732 166.051 93.2055 162.565 93.2055 162.565L97.4132 171.618C97.4132 171.618 121.652 176.483 141.229 157.474C139.591 149.123 137.5 123.368 145.664 104.585C145.185 102.955 140.776 94.8297 132.612 90.6667C127.472 92.2717 103.108 95.9331 103.108 95.9331Z" fill="#CDD2D8"/>
<path d="M135.787 81.8393C135.182 80.9364 133.771 80.7358 132.386 80.8361C132.486 79.6575 132.612 78.4036 132.764 77.1497V77.1748C132.738 77.1497 132.688 77.1497 132.663 77.1246C120.417 67.7204 107.845 70.5041 107.845 70.5041C107.845 70.5041 105.753 74.6921 105.753 77.8017C105.224 78.1528 104.191 86.579 104.191 86.579C104.191 86.579 101.168 92.698 104.418 97.3374C107.089 97.3374 115.151 98.9674 132.386 91.5444C132.26 90.2905 132.134 87.9081 132.209 84.9489C134.2 84.2718 136.644 83.1182 135.787 81.8393Z" fill="#F9AE81"/>
<path d="M90.4589 188.094C90.4589 188.094 83.7064 192.282 80.4309 192.959C80.2041 194.113 82.2954 194.589 85.0922 193.661C87.8889 192.733 92.5502 189.022 92.5502 188.094C92.5502 187.166 90.4589 188.094 90.4589 188.094Z" fill="#203A49"/>
<path d="M142.892 186.339C142.892 186.339 149.645 190.527 152.92 191.204C153.147 192.357 151.056 192.834 148.259 191.906C145.462 190.978 140.801 187.267 140.801 186.339C140.776 185.411 142.892 186.339 142.892 186.339Z" fill="#203A49"/>
<path d="M128.984 123.418C128.984 123.418 133.343 131.594 136.14 144.81C136.14 144.81 132.31 166.954 98.3203 171.844C101.167 172.997 128.077 173.173 141.204 157.449C140.322 145.838 139.617 131.694 140.095 127.983C137.299 127.08 128.984 123.418 128.984 123.418Z" fill="#AFAFCB"/>
<path d="M127.976 79.5071C127.976 79.5071 122.609 98.7669 107.239 95.9832C105.602 95.5569 104.266 95.1306 103.158 94.6792C103.384 95.6071 103.788 96.5099 104.392 97.3876C107.063 97.3876 115.126 99.0177 132.36 91.5946C132.184 89.7138 132.007 85.3753 132.436 80.3096L127.976 79.5071Z" fill="#F49772"/>
<path d="M127.22 72.2595C127.22 72.2595 127.044 80.6104 126.338 83.2185C127.397 83.2185 130.546 83.2185 130.546 83.2185L132.108 80.9615C132.108 80.9615 137.349 80.2594 136.644 78.1779C135.938 76.0964 132.738 77.1748 132.738 77.1748L127.22 72.2595Z" fill="#7C3C3D"/>
<path d="M131.605 96.7856L103.284 102.002L101.873 98.8671C101.873 98.8671 92.4246 106.165 85.6972 114.34C84.3114 116.547 83.228 118.954 82.4469 121.387C84.1855 125.826 87.2846 134.177 85.5712 133.299C83.9335 132.497 81.8674 130.666 80.7588 129.638C79.9777 137.688 81.7162 144.634 84.0595 145.487C87.9145 146.866 103.284 142.001 103.637 141.65C135.082 127.757 136.14 108.271 136.14 108.271L131.605 96.7856Z" fill="#F6E6D7"/>
<path d="M149.619 109.325C149.619 109.325 154.331 134.904 138.936 136.459C123.214 136.81 128.203 119.531 126.817 117.776C123.793 119.18 149.619 109.325 149.619 109.325Z" fill="#F9AE81"/>
<path d="M140.095 119.657C140.095 119.657 144.001 123.318 150.3 124.472C151.358 121.688 153.626 112.008 148.259 105.964C144.051 101.325 136.14 108.296 136.14 108.296L138.458 114.089L140.095 119.657Z" fill="#CDD2D8"/>
<path d="M138.483 114.089L140.121 119.657C140.121 119.657 140.398 119.882 140.927 120.258C142.791 114.942 149.09 108.823 149.09 108.823L137.399 111.406L138.483 114.089Z" fill="#AFAFCB"/>
<path opacity="0.23" d="M135.636 116.171L133.519 115.418C130.344 116.622 127.724 117.575 126.867 117.851C128.052 119.732 123.995 134.578 136.039 136.308C129.16 131.293 135.636 116.171 135.636 116.171ZM126.842 117.851C126.842 117.826 126.817 117.801 126.792 117.801C126.464 117.951 126.515 117.951 126.842 117.851Z" fill="#9F665C"/>
<path d="M138.483 114.089C138.483 114.089 131.73 122.44 122.861 121.989C119.838 121.989 119.586 118.503 119.586 118.503L138.483 114.089Z" fill="#F79E77"/>
<path d="M126.439 84.021L128.631 83.9458C128.631 83.9458 124.877 90.2905 122.256 90.6416C123.541 89.0617 126.439 84.021 126.439 84.021Z" fill="#7C3C3D"/>
<path d="M113.64 76.0463C113.64 76.0463 113.766 74.3159 114.698 74.3159C115.63 74.3159 118.2 75.3692 118.301 76.8739C117.621 76.6231 113.64 76.0463 113.64 76.0463Z" fill="#7C3C3D"/>
<path d="M107.92 74.1904C107.92 74.1904 107.995 75.1434 107.844 75.5948C107.668 76.0211 105.829 76.297 105.829 76.297C105.829 76.297 106.156 74.6168 107.92 74.1904Z" fill="#7C3C3D"/>
<path d="M113.589 78.1778C113.589 78.1778 113.514 81.0367 116.134 80.7859C118.402 80.0837 117.444 78.3533 117.444 78.3533H117.973C117.973 78.3533 117.268 77.7264 116.915 78.0023C116.789 78.4035 117.898 79.7828 115.857 80.3596C114.673 80.3345 113.992 79.7076 113.589 78.1778Z" fill="#7C3C3D"/>
<path d="M107.517 77.5259C107.517 77.5259 107.265 79.1309 106.156 79.0557C105.275 78.9303 105.804 77.2751 105.804 77.2751L105.098 77.5009L105.501 77.6262C105.501 77.6262 105.275 79.3315 106.156 79.3315C107.038 79.3315 107.693 78.6043 107.517 77.5259Z" fill="#7C3C3D"/>
<path d="M105.577 89.0616C105.577 89.0616 117.923 94.5035 117.822 83.8455C117.696 83.8455 117.696 83.8455 117.696 83.8455H118.401C118.401 83.8455 117.923 91.8453 111.75 90.9174C105.577 89.9895 105.577 89.0616 105.577 89.0616Z" fill="#DE705C"/>
<path d="M117.696 81.7391C117.696 81.7391 115.68 82.1654 117.167 83.5698C118.653 84.9741 120.669 83.9209 120.039 82.7924C119.435 81.6638 117.696 81.7391 117.696 81.7391Z" fill="#DE705C"/>
<path d="M140.095 119.657C140.095 119.657 148.183 126.378 145.059 133.876C146.974 132.647 149.947 127.255 149.418 124.296C148.385 123.067 140.095 119.657 140.095 119.657Z" fill="#F79E77"/>
<path opacity="0.23" d="M64.9858 93.5758C64.9858 93.5758 67.0015 96.535 68.9164 95.8329C70.7557 95.1307 66.3716 91.4944 66.3716 91.4944C66.3716 91.4944 72.0911 95.0805 71.436 93.2248C70.8565 91.6198 68.2109 88.3597 68.2109 88.3597C68.2109 88.3597 72.2423 93.5758 73.0234 91.7452C73.8045 89.9145 70.9321 86.3534 70.9321 86.3534C70.9321 86.3534 73.9808 90.7922 75.4674 89.9145C76.954 89.0368 75.3918 84.6983 74.1572 83.645C75.1147 84.5227 77.1556 87.3816 76.3997 89.4631C75.6942 91.4944 73.3006 89.6386 73.3006 89.6386C73.3006 89.6386 74.1068 91.6699 73.2502 92.2969C72.3683 92.9238 71.7384 92.2467 71.7384 92.2467C71.7384 92.2467 72.1919 93.3 71.6124 93.8768C71.0329 94.4536 68.9416 93.6511 68.9416 93.6511C68.9416 93.6511 70.4534 95.1558 69.6471 95.9833C68.8408 96.7858 66.8504 96.4598 64.9858 93.5758Z" fill="#9F665C"/>
<path d="M103.158 94.6791C103.158 94.6791 100.941 95.9832 103.259 102.027C110.011 101.576 138.558 94.8798 138.558 94.8798L135.762 92.5726L132.259 90.4661L132.335 91.5946C132.335 91.5946 115.554 98.3907 104.418 97.2872C104.015 96.5349 103.158 94.6791 103.158 94.6791Z" fill="#DE705C"/>
<path d="M101.646 108.171C101.646 108.748 101.168 109.224 100.588 109.224C100.009 109.224 99.5298 108.748 99.5298 108.171C99.5298 107.594 100.009 107.118 100.588 107.118C101.168 107.118 101.646 107.594 101.646 108.171Z" fill="#535866"/>
<path d="M96.4055 120.936C96.4055 121.512 95.9268 121.989 95.3473 121.989C94.7678 121.989 94.2891 121.512 94.2891 120.936C94.2891 120.359 94.7678 119.882 95.3473 119.882C95.9268 119.882 96.4055 120.359 96.4055 120.936Z" fill="#535866"/>
<path d="M94.0623 140.772C94.0623 141.349 93.5835 141.826 93.004 141.826C92.4245 141.826 91.9458 141.349 91.9458 140.772C91.9458 140.195 92.4245 139.719 93.004 139.719C93.6087 139.719 94.0623 140.195 94.0623 140.772Z" fill="#535866"/>
<path d="M103.284 102.027C110.036 101.575 138.583 94.8797 138.583 94.8797L135.787 92.5725" fill="#DE705C"/>
<path opacity="0.4" d="M78.5163 86.6793C78.7683 86.4536 82.0942 82.4412 85.3445 84.4474C87.1586 86.8047 77.6345 87.4568 78.5163 86.6793Z" fill="#F6E7D7"/>
<path d="M108.852 78.7295C108.852 78.7295 106.005 84.8986 106.156 86.6792C106.761 87.281 110.062 86.0021 110.062 86.0021C110.062 86.0021 110.288 86.0773 110.087 86.2528C109.91 86.4284 106.761 87.5067 105.854 87.0804C105.224 86.7293 107.466 80.7357 108.852 78.7295Z" fill="#DE705C"/>
<path d="M103.284 122.892L156.649 110.829H147.326C147.326 110.829 141.733 96.6855 124.247 99.4691C111.195 101.325 109.331 119.18 109.331 119.18L103.284 122.892Z" fill="#535866"/>
<path d="M120.291 101.776C120.291 101.776 112.128 107.82 111.195 117.325C119.586 116.622 135.661 111.281 135.661 111.281L124.474 101.074C124.474 101.099 123.088 99.9205 120.291 101.776Z" fill="#6E767E"/>
<path d="M122.105 101.826C122.105 101.826 115.151 106.014 113.589 111.256C117.267 111.256 126.867 104.635 126.867 104.635C126.867 104.635 124.02 100.949 122.105 101.826Z" fill="#E8D5CC"/>
<path d="M123.542 100.623L121.274 97.6635L124.6 96.4597L124.953 100.272L123.542 100.623Z" fill="#535866"/>
<path d="M107.819 70.5293C107.819 70.5293 124.676 70.4039 127.145 78.4288C128.052 74.4163 127.22 72.2596 127.22 72.2596C127.22 72.2596 115.63 66.6422 107.819 70.5293Z" fill="#F49772"/>
<path d="M146.697 58.868C146.47 53.6518 139.465 51.2192 136.669 54.3539C137.021 52.9496 135.862 46.7052 126.867 45.2005C118.25 43.9216 114.269 49.8399 114.269 49.8399C114.269 49.8399 107.164 45.4262 103.309 50.4167C100.966 54.2536 104.947 59.9212 111.246 58.1909C110.087 61.5513 107.87 69.6765 107.819 70.5542C107.819 70.5542 120.417 67.7706 132.637 77.1748C132.663 77.1999 132.713 77.1999 132.738 77.2249C133.242 73.4382 134.124 69.4257 135.61 65.8647C136.442 65.9399 146.117 67.7957 146.697 58.868Z" fill="#F6E7D7"/>
<path d="M138.004 60.0215C137.324 60.6234 136.265 61.1249 135.106 61.5512L138.004 60.0215L136.366 57.4636C136.366 57.4636 139.39 49.1126 130.999 46.5547C130.999 46.5547 136.366 49.8148 134.023 53.9777C131.68 58.1657 123.063 60.2472 117.016 57.2379C114.672 55.6078 114.219 52.5985 114.219 52.5985L114.093 51.1941C114.093 51.1941 106.509 59.545 102.78 53.752C103.939 57.2379 106.408 60.0215 111.246 58.1657C112.052 58.3162 113.236 58.7425 114.698 59.2441L114.899 65.3631L116.486 59.846C119.359 60.7738 122.836 61.6766 126.086 61.4259C127.094 61.8773 127.951 62.6045 128.555 63.2315L124.171 72.3849C126.892 73.4381 129.765 74.9679 132.612 77.1497C132.637 77.1747 132.688 77.1747 132.713 77.1998C133.166 73.8645 133.897 70.3536 135.081 67.1436C135.157 66.7674 135.258 66.3913 135.358 66.0903C135.409 66.0903 135.459 66.1154 135.484 66.1154C135.51 66.0402 135.56 65.9399 135.585 65.8646C136.341 65.9649 144.555 67.5449 146.344 60.8491C146.344 60.7488 146.369 60.6234 146.369 60.5231C144.756 64.4352 139.415 62.3537 138.004 60.0215Z" fill="#D4D7DC"/>
<path d="M106.207 91.1431C106.207 91.1431 103.41 91.9205 105.199 93.4753C106.988 95.0301 109.003 94.5286 109.633 93.375C109.633 93.6508 107.844 96.0583 105.325 93.9267C104.468 93.0991 103.284 91.7449 106.207 91.1431Z" fill="#F49772"/>
<path opacity="0.25" d="M130.092 102.553C130.092 102.553 126.59 96.61 133.242 94.5034C139.919 92.3969 145.89 101.5 146.243 93.8013C146.596 86.1024 138.861 75.6198 148.359 78.7796C157.858 81.9394 160.302 89.2622 166.979 82.6165C173.656 75.9709 163.452 80.2592 163.225 78.6292C162.998 76.9991 166.501 75.5947 168.844 77.4756C171.187 79.3313 170.96 80.9614 166.979 84.4723C162.998 87.9581 162.293 87.9581 156.447 85.4002C150.602 82.8422 147.553 81.6636 151.761 89.1368C155.969 96.5849 163.931 104.986 156.221 103.356C148.485 101.726 148.032 106.165 145.462 108.472C142.842 110.804 133.267 111.08 130.092 102.553Z" fill="#D5E5E3"/>
</g>
<defs>
<linearGradient id="paint0_linear" x1="149.794" y1="0" x2="206.624" y2="189.137" gradientUnits="userSpaceOnUse">
<stop stop-color="#407CA8"/>
<stop offset="0.276042" stop-color="#2A8194"/>
<stop offset="1" stop-color="#743B49"/>
</linearGradient>
<clipPath id="clip0">
<rect x="64.3306" y="45" width="106" height="153" fill="white"/>
</clipPath>
</defs>
</svg>
