<svg width="555" height="86" viewBox="0 0 555 86" fill="none" xmlns="http://www.w3.org/2000/svg">
<path d="M0 0H161.05V49.3594H0V0Z" fill="white"/>
<path d="M128.607 85.9444C128.519 85.912 128.513 85.8233 128.588 85.6302C128.681 85.3847 128.726 85.3649 129.09 85.4086C129.418 85.4496 129.515 85.4211 129.648 85.2418C129.914 84.8998 129.71 84.6524 129.223 84.7338C128.85 84.7966 128.85 84.7927 128.921 84.5366C129.143 83.7216 129.161 83.7673 128.496 83.6462C127.678 83.4955 126.925 83.0965 126.34 82.5031C125.454 81.6126 125.152 80.7123 125.24 79.2642C125.285 78.5272 125.347 78.2395 125.605 77.7261C126.385 76.1569 128.176 75.3578 130.588 75.5C131.111 75.5311 131.768 75.6125 132.06 75.6793L132.583 75.8004L132.636 77.5462H132.317C132.131 77.5462 131.998 77.4939 131.998 77.4251C131.998 77.1744 131.351 76.6041 130.899 76.4487C130.313 76.241 129.178 76.2926 128.602 76.5433C127.298 77.1142 126.704 78.5921 127.103 80.2863C127.289 81.0636 127.591 81.5908 128.167 82.1353C128.717 82.6453 129.276 82.853 130.109 82.853C130.987 82.853 131.599 82.5328 131.989 81.8673C132.255 81.4182 132.344 81.358 132.601 81.5048C132.716 81.5736 132.716 81.7291 132.61 82.4468L132.477 83.3108L131.998 83.4577C131.732 83.5357 131.129 83.631 130.659 83.6654C129.834 83.717 129.79 83.7349 129.79 83.9419C129.79 84.106 129.852 84.1668 130.029 84.1668C130.375 84.1668 130.704 84.409 130.783 84.7285C130.872 85.1003 130.579 85.6447 130.198 85.826C129.923 85.9556 128.841 86.0079 128.566 85.904L128.607 85.9444ZM66.306 85.5455C65.4018 85.3034 64.6215 84.9375 63.6811 84.3177L62.8744 83.7805L61.6238 83.7216C60.2317 83.6568 59.7444 83.5159 58.8481 82.9159C56.8619 81.5954 56.7908 78.2328 58.7151 76.5982C60.1698 75.3644 62.715 75.111 64.5418 76.0147C67.0159 77.2346 67.282 80.8347 65.0291 82.7214C64.6834 83.0138 64.3462 83.2533 64.2757 83.2533C64.063 83.2533 66.5279 84.4745 67.2464 84.7245C68.0445 85.001 68.9665 85.0374 69.6494 84.8191C70.1459 84.661 70.2348 84.6809 70.3145 84.968C70.3679 85.1367 70.279 85.2074 69.7824 85.4172C68.9935 85.7492 67.3439 85.8108 66.3508 85.5455H66.306ZM63.2379 82.6116C64.9936 81.782 65.3307 79.1226 63.8945 77.4244C62.5642 75.8513 60.2317 76.0888 59.3538 77.8882C58.5649 79.5129 59.4691 82.0268 61.0832 82.6923C61.7391 82.9602 62.5728 82.9311 63.2471 82.6116H63.2379ZM8.20269 83.5953C7.72393 83.4054 7.19513 82.8133 6.36208 81.5299C5.08057 79.5553 4.8402 79.2648 4.48196 79.2648H4.17113L4.17376 80.3346C4.17837 82.2834 4.39569 82.9496 5.07266 83.1044C5.2531 83.1454 5.32422 83.2275 5.32422 83.3968V83.6323H1.03188V83.4167C1.03188 83.2526 1.11223 83.1745 1.36049 83.1051C1.54225 83.0621 1.7892 82.898 1.91037 82.7512C2.12571 82.4918 2.13032 82.3966 2.13032 78.8011C2.13032 75.2056 2.12571 75.1104 1.91037 74.8511C1.7892 74.7042 1.54225 74.5487 1.36049 74.4965C1.12079 74.4363 1.03188 74.3582 1.03188 74.2028C1.03188 73.9957 1.04308 73.9957 3.69105 73.9348C6.50893 73.8746 7.12993 73.9176 7.92413 74.2722C8.61757 74.5745 9.19708 75.4994 9.19774 76.3031C9.19971 77.228 8.44371 78.2653 7.44603 78.7144L6.92315 78.948L8.07888 80.5125C9.43547 82.3622 9.86088 82.855 10.26 83.0449C10.6327 83.2175 10.6682 83.6065 10.3225 83.6846C9.89644 83.7884 8.52208 83.7448 8.20269 83.6151V83.5953ZM5.58435 78.3056C6.98769 77.9517 7.46118 76.1847 6.39961 75.2632C5.89979 74.8312 5.36966 74.6731 4.69203 74.7578L4.17771 74.8226V78.4115H4.67425C4.94886 78.4115 5.36571 78.3638 5.58764 78.3056H5.58435ZM29.7098 83.5953C29.1362 83.4107 28.5956 83.0793 28.3091 82.7399C27.7882 82.12 27.7329 81.7952 27.727 79.2781C27.7204 76.6471 27.6651 76.3567 27.133 76.1338C26.9203 76.0438 26.7945 75.9221 26.7925 75.801C26.7905 75.6198 26.8597 75.6105 28.5706 75.6105C30.3466 75.6105 30.3512 75.6105 30.3512 75.8248C30.3512 75.9684 30.2893 76.0385 30.1596 76.0385C30.0549 76.0385 29.8547 76.149 29.7144 76.2833L29.4609 76.5287V79.1081C29.4609 81.5346 29.4734 81.7092 29.6782 82.0618C29.9976 82.6155 30.6357 82.898 31.4536 82.8537C32.3315 82.8054 32.8102 82.5229 33.1559 81.8376C33.422 81.3116 33.4312 81.2858 33.4312 78.9764C33.4312 76.9111 33.4134 76.6187 33.2449 76.3924C33.1382 76.2515 32.9432 76.1093 32.8017 76.0776C32.6331 76.0405 32.5356 75.9505 32.5356 75.8381C32.5356 75.6714 32.6331 75.6595 33.9455 75.6595C35.258 75.6595 35.3555 75.6714 35.3555 75.8381C35.3555 75.9505 35.258 76.0405 35.0986 76.0769C34.6107 76.1801 34.5751 76.3878 34.5218 79.1279L34.4684 81.6947L34.1497 82.2477C33.777 82.9046 33.1737 83.3631 32.4026 83.5701C31.746 83.7435 30.2123 83.7521 29.6888 83.5787L29.7098 83.5953ZM70.549 83.5953C69.9688 83.4087 69.4334 83.0786 69.1371 82.726C68.6432 82.1379 68.572 81.7059 68.5661 79.2271C68.5569 76.6518 68.495 76.3574 67.9715 76.1331C67.7502 76.0438 67.6257 75.9221 67.6257 75.801C67.6172 75.6198 67.6876 75.6105 69.3992 75.6105C71.1555 75.6105 71.1733 75.6132 71.1733 75.8182C71.1733 75.9565 71.0929 76.0346 70.9428 76.0557C70.8183 76.0729 70.6142 76.2066 70.4989 76.3541C70.2948 76.6048 70.2776 76.7603 70.2421 78.8415C70.1973 81.3976 70.2776 81.9361 70.7564 82.3794C71.6164 83.1831 73.4169 82.9582 73.922 81.9904C74.2414 81.3765 74.3211 80.6164 74.2855 78.602C74.2414 76.4758 74.1703 76.2079 73.6204 76.0868C73.4518 76.0524 73.3543 75.9658 73.3543 75.854C73.3543 75.6892 73.4518 75.6806 74.7643 75.6806C76.0767 75.6806 76.1834 75.6978 76.1834 75.8626C76.1834 75.975 76.0589 76.0868 75.8732 76.1563C75.7046 76.2251 75.5268 76.3461 75.4827 76.4328C75.4386 76.5195 75.3767 77.7466 75.3411 79.1643L75.2786 81.7397L74.9598 82.3013C74.5871 82.9582 73.9839 83.4167 73.2035 83.6237C72.5476 83.8056 71.0132 83.8142 70.4904 83.6409L70.549 83.5953ZM103.694 83.5926C103.276 83.4266 102.778 82.8649 102.008 81.6867C101.013 80.1659 100.899 80.0276 100.64 80.0276C100.41 80.0256 100.405 80.0448 100.405 81.2151C100.405 82.6341 100.535 83.0343 101.029 83.1236C101.277 83.1686 101.348 83.2314 101.348 83.4067V83.6317H97.7867V83.4067C97.7867 83.2314 97.8572 83.1686 98.1061 83.1236C98.7027 83.0158 98.7442 82.7591 98.7086 79.4547L98.677 76.5287L98.4235 76.2833C98.2839 76.149 98.0837 76.0385 97.9783 76.0385C97.8605 76.0385 97.7874 75.9697 97.7874 75.8573C97.7874 75.7018 97.894 75.6667 98.5592 75.6098C98.9846 75.5668 100.146 75.5582 101.149 75.5754C102.78 75.6012 103.019 75.627 103.41 75.8176C104.101 76.1457 104.491 76.794 104.491 77.6064C104.491 78.3843 104.004 79.067 103.108 79.5255C102.825 79.6724 102.638 79.8192 102.7 79.8536C102.763 79.8887 103.224 80.4761 103.729 81.1674C104.722 82.5242 105.272 83.1296 105.503 83.1296C105.706 83.1296 105.688 83.5701 105.485 83.6396C105.192 83.7435 104.039 83.6912 103.711 83.5615L103.694 83.5926ZM101.76 79.1266C102.176 78.9321 102.584 78.4631 102.661 78.0926C102.76 77.617 102.527 76.9944 102.128 76.6491C101.758 76.3375 101.401 76.2429 100.782 76.3117L100.405 76.3547V79.2761H100.934C101.218 79.2761 101.59 79.2159 101.758 79.1378L101.76 79.1266ZM148.369 83.5761C148.056 83.4987 147.78 83.4206 147.757 83.3995C147.735 83.3823 147.658 82.9582 147.589 82.4574L147.459 81.5498H147.754C147.917 81.5498 148.05 81.5842 148.05 81.6272C148.05 81.8779 148.737 82.6043 149.135 82.777C150.213 83.2526 151.505 82.8028 151.505 81.9646C151.505 81.4115 151.208 81.0828 150.2 80.5125C148.784 79.7087 148.237 79.2854 147.956 78.7667C147.672 78.2567 147.623 77.4529 147.835 76.8734C147.976 76.493 148.634 75.9142 149.187 75.6978C149.745 75.4736 151.49 75.4822 152.211 75.7071L152.761 75.8798V77.574H152.46C152.224 77.574 152.142 77.5217 152.091 77.3404C151.982 76.9428 151.421 76.45 150.95 76.3375C149.7 76.0352 148.69 77.2022 149.479 78.0489C149.629 78.213 150.312 78.6886 150.995 79.112C152.325 79.9244 152.813 80.3742 152.981 80.9015C153.345 82.077 152.742 83.1229 151.448 83.5549C150.755 83.797 149.257 83.8142 148.379 83.5979L148.369 83.5761ZM11.1885 83.3776C11.1885 83.2083 11.2471 83.158 11.442 83.158C11.5928 83.158 11.7851 83.0541 11.9142 82.9073C12.1223 82.6671 12.1302 82.5487 12.1302 79.675C12.1302 77.5885 12.0861 76.628 12.0064 76.4837C11.8464 76.2178 11.5981 76.0458 11.3676 76.0432C11.2438 76.0398 11.1812 75.9624 11.1812 75.801V75.5642H17.469V77.5693L17.1937 77.5402C16.981 77.5177 16.8835 77.4304 16.7946 77.1856C16.5819 76.6207 16.2362 76.4751 14.9948 76.4335L13.8951 76.3971V79.1008L14.7373 79.0578C15.6507 79.0082 16.1124 78.8071 16.1743 78.4267C16.1921 78.2758 16.2803 78.2223 16.4844 78.2223H16.7597V80.6938H16.4759C16.2454 80.6938 16.1828 80.6508 16.1828 80.4688C16.1828 80.0455 15.8285 79.89 14.8085 79.8556L13.8773 79.8212V81.1608C13.8773 82.7684 13.8865 82.7942 15.0837 82.7942C16.2625 82.7942 16.875 82.5262 17.1851 81.8693C17.3359 81.5412 17.6994 81.4459 17.8147 81.7053C17.8858 81.8779 17.5928 82.9933 17.3715 83.3823L17.2115 83.6588L14.1789 83.6409L11.1463 83.6237V83.4081L11.1885 83.3776ZM19.2516 83.4067C19.2516 83.2341 19.3221 83.1692 19.5526 83.1262C20.1024 83.0257 20.1294 82.8841 20.165 79.8358C20.1999 76.661 20.1558 76.3746 19.5796 76.1338C19.3399 76.0332 19.2424 75.9261 19.2338 75.7693V75.5457L21.6105 75.586C24.1821 75.629 24.3948 75.672 25.0955 76.1993C25.8581 76.7874 26.0622 77.9537 25.5387 78.8183C25.0862 79.5791 24.2973 79.9767 23.056 80.0891L22.3994 80.1493L22.24 79.7861L22.0715 79.4236L22.4528 79.3714C22.9401 79.3112 23.4722 79.026 23.756 78.68C23.916 78.4902 23.9779 78.2825 23.9694 77.9193C23.9516 76.9944 23.3839 76.4328 22.3816 76.3547L21.814 76.3117L21.841 79.4838C21.8765 82.941 21.8937 83.0363 22.4791 83.1487C22.6918 83.1917 22.7629 83.2612 22.7629 83.4339V83.6588H19.2068V83.4339L19.2516 83.4067ZM36.6324 83.3723C36.6324 83.2255 36.6943 83.158 36.8273 83.158C36.934 83.158 37.1381 83.076 37.2711 82.9767L37.5194 82.7948L37.5458 79.853C37.5813 76.5598 37.5372 76.3111 36.934 76.1053C36.739 76.0405 36.6146 75.9287 36.6146 75.8288C36.6146 75.6747 36.7568 75.6555 38.2109 75.635C41.2612 75.59 41.9086 75.6211 42.4058 75.8387C43.0439 76.1219 43.3455 76.5307 43.3988 77.1962C43.4166 77.4959 43.4074 77.8458 43.3718 77.9742C43.2658 78.3453 42.7778 78.8018 42.2372 79.0287L41.7314 79.2377L42.1575 79.3522C42.6412 79.4769 43.0626 79.7755 43.3419 80.1913C43.6213 80.6071 43.7392 81.1114 43.6734 81.6087C43.5582 82.4726 43.1506 82.9655 42.1924 83.3631C41.6873 83.5701 41.5543 83.5787 39.1335 83.5787H36.6245V83.3631L36.6324 83.3723ZM41.2441 82.6579C41.7755 82.3344 41.9889 81.8945 41.9263 81.2316C41.8381 80.2373 41.0663 79.6452 39.8605 79.6452H39.2217L39.2487 81.0788C39.2751 82.4508 39.2929 82.5183 39.5233 82.6923C39.8783 82.9569 40.7561 82.9397 41.2171 82.6579H41.2441ZM40.8095 78.7138C41.4476 78.4889 41.7848 78.0337 41.7229 77.4807C41.6339 76.7371 40.9688 76.3236 39.8691 76.3236H39.2395V78.8864L39.7894 78.8812C40.091 78.8785 40.5434 78.8038 40.8002 78.7138H40.8095ZM45.1011 83.3776C45.1011 83.2248 45.1723 83.1613 45.3764 83.1408C45.5272 83.1236 45.7485 82.9939 45.8729 82.8424C46.0857 82.5831 46.0942 82.4707 46.0942 79.6618C46.0942 77.3285 46.0593 76.7034 45.9441 76.5128C45.7577 76.2165 45.518 76.0465 45.2789 76.0418C45.1545 76.0332 45.0926 75.9644 45.0926 75.8176C45.0926 75.6012 45.0926 75.6012 46.9727 75.6012C48.8522 75.6012 48.8522 75.6012 48.8522 75.809C48.8522 75.9558 48.7903 76.016 48.6487 76.016C48.5334 76.016 48.3115 76.1199 48.1521 76.241L47.8861 76.4917L47.8505 79.4818L47.8235 82.4726L48.0896 82.6281C48.3029 82.7492 48.5242 82.775 49.1716 82.7406C50.1646 82.689 50.6348 82.464 50.9101 81.9024C51.0872 81.5306 51.2914 81.444 51.566 81.5994C51.6635 81.6603 51.6457 81.8329 51.4863 82.421C51.3711 82.8272 51.2025 83.2678 51.1136 83.3889L50.945 83.6138L48.0191 83.5787L45.0926 83.5443V83.3373L45.1011 83.3776ZM52.426 83.4067C52.426 83.2314 52.4972 83.1686 52.7454 83.1236C53.3217 83.0197 53.3664 82.7604 53.3664 79.5778C53.3664 76.9349 53.3486 76.7312 53.1623 76.4447C53.047 76.2767 52.8343 76.1113 52.6921 76.0782C52.5057 76.0438 52.426 75.9572 52.426 75.8189C52.426 75.6204 52.453 75.6204 54.2087 75.6204C55.9644 75.6204 55.9821 75.629 55.9821 75.8275C55.9821 75.9658 55.8939 76.0524 55.7253 76.0954C55.5471 76.1518 55.3916 76.264 55.2815 76.4156C55.1135 76.6491 55.0957 76.96 55.0957 79.5705C55.0957 82.7942 55.1399 83.0535 55.6805 83.1573C55.9025 83.2003 55.9736 83.2698 55.9736 83.4425V83.6674H52.4175V83.4425L52.426 83.4067ZM77.4517 83.3895C77.4517 83.2341 77.5314 83.1666 77.7705 83.1236C78.3474 83.0197 78.3915 82.7604 78.3915 79.5678C78.3915 76.7708 78.3829 76.7265 78.1518 76.4083C78.0187 76.2317 77.806 76.0716 77.6822 76.0557C77.5136 76.0346 77.4517 75.9611 77.4517 75.7951V75.5642H83.6236V76.5605C83.6236 77.5462 83.615 77.5548 83.3667 77.5548C83.1626 77.5548 83.1007 77.4939 83.0473 77.226C82.9229 76.6643 82.4975 76.4745 81.2469 76.4308L80.1919 76.3964L80.1208 76.8463C80.0852 77.0877 80.0497 77.7016 80.0497 78.1945V79.0928L80.9367 79.0412C81.912 78.981 82.3025 78.8249 82.4085 78.4452C82.4533 78.2719 82.5416 78.2031 82.7194 78.2031H82.9676V80.666H82.7102C82.533 80.666 82.4441 80.6144 82.4441 80.5019C82.4355 80.0269 81.9298 79.8106 80.8748 79.8106H80.0141L80.0497 81.1416C80.0945 82.7578 80.0852 82.7492 81.3358 82.7492C82.4441 82.7492 83.0203 82.507 83.3219 81.9196C83.4727 81.6173 83.588 81.5134 83.7566 81.5134C83.881 81.5134 84.0226 81.5564 84.0582 81.6173C84.1556 81.7555 83.6854 83.3022 83.4997 83.4669C83.3753 83.5787 82.8432 83.5966 80.3776 83.5787L77.407 83.5615V83.3545L77.4517 83.3895ZM88.9709 83.412C88.9709 83.2566 89.0683 83.1527 89.2988 83.0561C89.4852 82.982 89.7249 82.8001 89.8487 82.6526C90.0614 82.3933 90.0614 82.2762 90.0614 78.8077C90.0614 74.7803 90.0528 74.7373 89.3258 74.521C89.042 74.4343 88.9531 74.3569 88.9531 74.175V73.9421H96.278V76.319H95.9586C95.7018 76.319 95.6399 76.2754 95.6399 76.1027C95.6399 75.7481 95.2494 75.2731 94.8239 75.1084C94.5757 75.0138 94.008 74.9357 93.2632 74.9099L92.0838 74.8669V78.1164L92.9438 78.1078C94.0969 78.0992 94.4868 77.9696 94.735 77.5204C94.8944 77.226 94.9833 77.1572 95.2316 77.1572H95.5417V80.0177L95.2052 79.9833C94.9747 79.9575 94.8503 79.8887 94.8147 79.759C94.6461 79.1967 94.008 78.946 92.7311 78.946H92.0568L92.1015 80.6316C92.1457 82.5507 92.2346 82.8358 92.8641 83.0343C93.1387 83.121 93.2276 83.2076 93.2276 83.3717V83.5873H88.9353V83.3717L88.9709 83.412ZM105.723 83.3948C105.723 83.2222 105.775 83.158 105.926 83.158C106.246 83.158 106.609 82.5659 107.407 80.7639C108.471 78.3473 109.482 75.8917 109.482 75.7164C109.482 75.5979 109.589 75.5642 109.979 75.5662L110.475 75.5675L111.886 78.8494C113.42 82.4131 113.704 82.9668 114.058 83.1104C114.2 83.1666 114.289 83.2857 114.289 83.4173C114.289 83.6336 114.289 83.6336 112.506 83.6336H110.724V83.4067C110.724 83.2341 110.795 83.1686 111.034 83.1249C111.487 83.0442 111.513 82.7677 111.167 81.829L110.866 81.0226H108.392L108.144 81.6881C107.824 82.5262 107.842 83.0965 108.188 83.1487C108.356 83.1745 108.418 83.2433 108.418 83.4081V83.6409H105.696V83.4081L105.723 83.3948ZM110.538 80.0713C110.538 79.933 109.766 78.0317 109.704 78.0317C109.66 78.0317 109.553 78.213 109.465 78.4379L109.021 79.4838L108.755 80.1235H109.642C110.13 80.1235 110.529 80.1063 110.529 80.0805L110.538 80.0713ZM115.042 83.4081C115.042 83.2433 115.113 83.1745 115.326 83.1315C115.894 83.0277 115.912 82.898 115.956 79.7947C116 76.5969 115.956 76.3289 115.344 76.1219C115.158 76.061 115.025 75.9486 115.025 75.8454C115.025 75.6978 115.14 75.6806 116.205 75.6806H117.375L118.058 76.4672C118.43 76.8998 119.397 77.9537 120.204 78.8183C120.778 79.4311 121.346 80.0506 121.906 80.6766L122.146 80.9617L122.11 78.8183C122.075 76.4844 122.013 76.2429 121.454 76.1133C121.286 76.0782 121.188 75.9836 121.188 75.8712C121.188 75.7071 121.286 75.6892 122.598 75.6892C123.929 75.6892 124.008 75.7071 124.008 75.8798C124.008 76.0008 123.919 76.0782 123.778 76.0954C123.653 76.1133 123.449 76.2515 123.334 76.3984C123.121 76.6577 123.113 76.7874 123.077 80.1751L123.042 83.6846H122.581C122.164 83.6846 122.084 83.6502 121.773 83.287C121.489 82.9668 117.055 77.9801 116.887 77.8068C116.861 77.781 116.861 78.8269 116.887 80.1321C116.932 82.7856 117.002 83.0965 117.499 83.1917C117.73 83.2347 117.8 83.2956 117.8 83.4683V83.6932H114.98V83.4683L115.042 83.4081ZM133.363 83.3995C133.363 83.2612 133.417 83.1659 133.506 83.1659C133.71 83.1659 134.1 82.7253 134.375 82.163C134.756 81.3937 136.547 77.2022 136.858 76.3547L137.141 75.5682L138.081 75.6376L139.465 78.8699C140.227 80.6508 140.937 82.2497 141.043 82.431C141.274 82.855 141.62 83.1917 141.797 83.1917C141.877 83.1917 141.939 83.2956 141.939 83.4339V83.676H138.374V83.4339C138.374 83.2698 138.428 83.2003 138.561 83.2003C139.066 83.2003 139.11 82.8028 138.729 81.7569L138.454 81.0226H135.998L135.776 81.6623C135.359 82.8722 135.377 83.2089 135.873 83.2089C136.015 83.2089 136.069 83.2784 136.069 83.4511V83.6932H133.346V83.4511L133.363 83.3995ZM137.807 79.1557C137.602 78.6198 137.416 78.1184 137.381 78.0403C137.346 77.9537 137.133 78.3169 136.858 78.948C136.601 79.5268 136.397 80.0283 136.397 80.0627C136.397 80.1063 136.787 80.1407 137.275 80.1407H138.152L137.789 79.1729L137.807 79.1557ZM142.578 83.4081C142.578 83.2261 142.631 83.1745 142.817 83.1745C142.95 83.1745 143.154 83.0879 143.261 82.9754C143.438 82.7942 143.456 82.5692 143.482 79.8212C143.5 78.1958 143.491 76.7702 143.456 76.6577C143.384 76.3898 142.995 76.061 142.755 76.061C142.622 76.061 142.56 75.9922 142.56 75.854C142.56 75.6462 142.56 75.6462 144.333 75.6462C146.045 75.6462 146.116 75.6548 146.116 75.8361C146.116 75.9572 146.001 76.0782 145.805 76.1477C145.637 76.2165 145.459 76.3898 145.398 76.5281C145.247 76.8906 145.158 79.8556 145.255 81.4545C145.318 82.5692 145.362 82.8372 145.531 83.0019C145.637 83.1137 145.814 83.2003 145.92 83.2003C146.053 83.2003 146.107 83.2698 146.107 83.4425V83.6846H142.551V83.4425L142.578 83.4081ZM154.301 83.3909C154.301 83.2261 154.363 83.1745 154.558 83.1745C154.709 83.1745 154.895 83.0707 155.028 82.9238C155.232 82.6817 155.241 82.5692 155.241 79.6915C155.241 77.6084 155.205 76.6491 155.117 76.5023C154.957 76.2429 154.709 76.0696 154.478 76.061C154.354 76.061 154.292 75.9836 154.292 75.8189V75.586H160.57V77.5912L160.296 77.5654C160.091 77.5475 159.994 77.4615 159.905 77.2108C159.702 76.6491 159.356 76.5023 158.105 76.4586L157.006 76.4242V79.1034H157.662C158.566 79.0948 159.01 78.948 159.205 78.5676C159.32 78.3427 159.426 78.2653 159.622 78.2653H159.879V80.7282H159.613C159.374 80.7282 159.32 80.6852 159.32 80.5039C159.32 80.0805 158.975 79.9244 157.945 79.89L157.015 79.8556V81.1866C157.015 82.7942 157.032 82.82 158.229 82.82C159.409 82.82 160.021 82.552 160.331 81.8951C160.482 81.567 160.846 81.4717 160.961 81.7311C161.032 81.9037 160.739 83.0191 160.518 83.4081L160.358 83.6846L157.325 83.6674L154.292 83.6502V83.4253L154.301 83.3909ZM14.0202 74.7207L13.7653 74.5415L14.3883 73.6861C14.7308 73.2104 15.0772 72.8215 15.1595 72.8215C15.5124 72.8215 16.6405 73.0378 16.6122 73.1066C16.5556 73.2435 14.4891 74.9132 14.3817 74.9106C14.3244 74.9106 14.1618 74.8292 14.0209 74.7293L14.0202 74.7207ZM0.718421 68.1622H160.199V69.0136H0.716445V68.1596L0.718421 68.1622ZM61.4151 66.2173C60.5774 65.9461 60.1059 65.2409 60.2587 64.4801C60.3647 63.9701 60.6841 63.6109 61.2517 63.374L61.7483 63.1663L61.4467 63.0108C61.2781 62.9202 61.1451 62.7714 61.1451 62.6649C61.1451 62.4922 61.9169 61.8009 62.1026 61.8009C62.1474 61.8009 62.0855 61.6428 61.961 61.4496C61.4289 60.6253 61.8543 59.4339 62.8566 58.9675C63.3979 58.7142 63.5836 58.7036 65.4815 58.8134C66.5721 58.8776 66.6168 58.8881 66.5543 59.0813C66.5279 59.1938 66.5016 59.3168 66.4924 59.3565C66.4924 59.3955 66.3152 59.4273 66.0847 59.4273H65.6765L65.7298 59.979C65.8543 61.183 64.9053 62.0073 63.3801 62.0298C62.5906 62.041 62.2093 62.1939 62.5194 62.3738C62.6083 62.4241 63.1227 62.5941 63.6547 62.7522C65.3926 63.2622 65.712 63.5189 65.6409 64.3339C65.5704 65.1853 64.8164 65.9243 63.7259 66.2226C63.1049 66.3926 61.9788 66.3913 61.4467 66.2193L61.4151 66.2173ZM63.7469 65.6299C64.5965 65.2468 64.9646 64.5145 64.501 64.1341C64.1868 63.8775 62.8263 63.4825 62.4733 63.5467C61.7555 63.6764 61.0812 64.4715 61.2057 65.0418C61.3742 65.8283 62.6511 66.1247 63.7417 65.6312L63.7469 65.6299ZM64.0275 61.3338C64.6656 60.9832 64.9139 59.981 64.4885 59.4868C63.903 58.8094 62.7855 59.5649 62.7769 60.6452C62.7769 60.9806 62.8303 61.099 63.0693 61.2849C63.4243 61.5614 63.6192 61.57 64.0453 61.3365L64.0275 61.3338ZM67.9998 63.5381C67.5388 63.4514 67.2997 63.1749 67.2464 62.6821C67.1134 61.4205 68.2836 59.5675 69.5961 58.9702C70.279 58.6586 71.627 58.6275 72.5226 58.9007C72.6023 58.9265 72.5496 59.2507 72.3362 59.9182C71.9372 61.2234 71.6981 62.5299 71.8311 62.7555C71.9194 62.903 71.9819 62.9143 72.2658 62.8269C72.5226 62.7403 72.6115 62.7489 72.6826 62.8527C72.8328 63.0684 72.7445 63.1465 72.1413 63.3363C71.3432 63.587 70.9711 63.5355 70.8466 63.1637L70.7577 62.8699L70.3323 63.0863C69.6138 63.4574 68.6208 63.6479 68.0268 63.5354L67.9998 63.5381ZM69.8094 62.6847C70.1196 62.5537 70.4298 62.352 70.5187 62.2355C70.6603 62.043 71.0863 60.6194 71.2549 59.7892C71.3254 59.4498 71.3168 59.4379 70.9355 59.3426C70.2348 59.1627 69.5256 59.6277 68.9665 60.6392C68.3811 61.6937 68.2309 62.6371 68.6122 62.8818C68.8783 63.0499 69.0376 63.0201 69.8265 62.6834L69.8094 62.6847ZM119.39 63.5103C118.92 63.4064 118.76 63.2596 118.627 62.8276C118.432 62.1707 118.884 60.9283 119.656 60.0101C120.578 58.912 121.598 58.5402 123.105 58.7565C123.505 58.8134 123.859 58.8908 123.894 58.9265C123.939 58.9616 123.806 59.5689 123.602 60.2754C123.407 60.9793 123.229 61.8333 123.221 62.1733L123.203 62.7939L123.646 62.7767C124.045 62.7595 124.09 62.7853 124.09 62.9751C124.09 63.157 123.992 63.2172 123.487 63.3555C122.662 63.589 122.272 63.5374 122.228 63.2001C122.21 63.0618 122.174 62.9407 122.156 62.9407C122.139 62.9407 121.864 63.0446 121.553 63.1657C121.057 63.3641 120.037 63.6234 119.833 63.5976C119.798 63.5976 119.611 63.5546 119.425 63.5196L119.39 63.5103ZM121.146 62.6979C121.402 62.5769 121.696 62.4042 121.793 62.309C122.023 62.0668 122.44 60.8311 122.662 59.7422C122.724 59.4478 122.706 59.4306 122.307 59.3353C121.97 59.2493 121.829 59.2579 121.527 59.3876C120.862 59.6727 120.205 60.6406 119.86 61.8333C119.532 62.9764 119.939 63.2457 121.163 62.6926L121.146 62.6979ZM7.583 63.294C7.556 63.1729 7.74237 62.2918 7.99986 61.3325C8.51417 59.4392 8.51418 59.2837 7.94652 59.4306C7.67191 59.5001 7.64491 59.4829 7.64491 59.2923C7.64491 59.1111 7.74237 59.0502 8.24813 58.9139C8.57608 58.8273 9.01927 58.7446 9.21486 58.7327C9.56059 58.7122 9.58693 58.73 9.61393 59.0297C9.63171 59.205 9.45391 60.073 9.21486 60.9574C8.97515 61.8439 8.80657 62.6338 8.84213 62.7151C8.89547 62.8316 9.00149 62.8481 9.38278 62.7965C9.8352 62.733 9.8622 62.7409 9.82664 62.9473C9.79964 63.1207 9.66661 63.1981 9.21486 63.3277C8.90403 63.4144 8.41671 63.4924 8.14144 63.4924C7.71603 63.4924 7.64491 63.466 7.59157 63.2847L7.583 63.294ZM11.6086 63.3376L11.3696 63.1557L12.1855 59.9235C12.6287 58.1452 12.9837 56.5701 12.9659 56.4193C12.9303 56.1401 12.8948 56.1256 12.4871 56.238C12.2915 56.2923 12.2566 56.2671 12.2566 56.0654C12.2566 55.7882 12.6287 55.6545 13.6488 55.5639C14.2336 55.5116 14.2513 55.5143 14.2513 55.7366C14.2513 55.8629 14.092 56.6442 13.8878 57.4724C13.6843 58.302 13.5243 59.0324 13.5243 59.0998C13.5243 59.1951 13.6396 59.1772 13.9767 59.0429C15.147 58.5759 16.1585 58.6017 16.5305 59.1031C16.8763 59.5788 16.6991 60.7973 16.1407 61.7996C15.8569 62.3268 14.9968 63.1399 14.5266 63.3297C13.9148 63.5804 11.9814 63.589 11.6356 63.3297L11.6086 63.3376ZM14.2606 62.7323C14.7927 62.3956 15.3781 61.2545 15.5375 60.2516C15.7061 59.2407 14.9698 59.0416 13.7996 59.7766C13.5568 59.926 13.365 60.1461 13.2497 60.4077C13.0633 60.8741 12.6728 62.387 12.6728 62.6563C12.6728 63.0538 13.6929 63.1008 14.2691 62.7257L14.2606 62.7323ZM18.2599 63.2166C17.976 62.9487 17.9582 62.8706 17.9582 62.2395C17.976 60.6353 18.9783 59.2017 20.3619 58.8081C21.0534 58.6096 21.6651 58.6791 22.0728 58.994C22.3125 59.1772 22.3566 59.2917 22.3566 59.6793C22.3566 60.6564 21.3813 61.3993 19.9628 61.486C19.5545 61.5118 19.1825 61.5813 19.1469 61.6388C19.0317 61.8016 19.058 62.348 19.191 62.5808C19.4571 63.0307 19.8298 63.0433 20.7254 62.6245C21.2839 62.3652 21.3991 62.3394 21.488 62.4604C21.6744 62.7257 21.5855 62.8091 20.7781 63.1557C20.1044 63.4428 19.8469 63.5017 19.2799 63.5017C18.6589 63.5017 18.57 63.4772 18.2862 63.2113L18.2599 63.2166ZM20.14 60.9349C21.0356 60.71 21.621 59.8454 21.1686 59.4306C20.8848 59.17 20.6187 59.1786 20.246 59.461C19.9536 59.686 19.4749 60.3971 19.3326 60.8212C19.2799 60.9945 19.3063 61.0289 19.5104 61.0289C19.6434 61.0289 19.9358 60.9773 20.1578 60.925L20.14 60.9349ZM23.6691 63.4713C23.6691 63.4574 23.8554 62.7198 24.0859 61.8379C24.3164 60.9535 24.512 60.0438 24.512 59.8156V59.4002L24.0951 59.461C23.7224 59.5126 23.6783 59.4987 23.6783 59.3314C23.6783 59.1236 24.0155 58.9642 24.8663 58.771C25.4517 58.6414 25.6737 58.7307 25.6737 59.0998V59.3228L26.0457 59.0945C26.7023 58.697 27.1014 58.6189 27.5709 58.818C27.802 58.9133 27.97 59.0337 27.9529 59.0945C27.669 60.0022 27.509 60.2873 27.2785 60.2873C27.0744 60.2873 27.0395 60.2443 27.0395 59.9678C27.0395 59.2758 26.3829 59.2758 25.8949 59.9585C25.6025 60.3912 25.2924 61.359 25.0441 62.647C24.973 63.036 24.8577 63.3555 24.8044 63.3727C24.618 63.425 23.6961 63.511 23.6961 63.4852L23.6691 63.4713ZM28.9281 63.3813C28.8129 63.2602 28.8748 62.9149 29.478 60.4428L29.7263 59.4227H29.3713C29.1764 59.4227 29.0164 59.3969 29.0164 59.3711C29.0164 59.2242 29.2561 58.9477 29.3806 58.9477C29.6374 58.9477 30.1254 58.4978 30.3381 58.0745C30.5686 57.6081 30.6575 57.53 31.0032 57.53C31.2337 57.53 31.2515 57.5644 31.1896 57.8409C31.154 58.0142 31.0921 58.3166 31.0565 58.5071L30.994 58.861H31.482C31.9785 58.861 32.0496 58.9391 31.9074 59.2844C31.8632 59.3969 31.7039 59.4405 31.3489 59.4405C30.7635 59.4405 30.861 59.25 30.4 61.3332C30.0628 62.8627 30.0806 63.0009 30.6482 62.8541C31.127 62.733 31.1626 62.7423 31.127 62.9837C31.1007 63.1484 30.9676 63.2344 30.5686 63.3555C29.9298 63.5546 29.1231 63.5804 28.9637 63.4078L28.9281 63.3813ZM33.1579 63.2602C32.3953 62.5173 32.9452 60.3826 34.1688 59.3883C34.6653 58.9821 35.4457 58.6712 35.9514 58.6712C36.2794 58.6712 36.9886 58.9735 37.0953 59.1547C37.2639 59.4405 37.2106 60.1232 36.9979 60.4428C36.5632 61.0997 35.6057 61.523 34.5679 61.523H33.9561V62.0245C33.9561 63.0009 34.4085 63.1656 35.5787 62.647C35.9514 62.4829 36.2794 62.3619 36.3064 62.3877C36.3327 62.4135 36.3683 62.5173 36.3946 62.6212C36.4216 62.7767 36.2794 62.8805 35.659 63.1657C34.9847 63.4766 34.7898 63.5196 34.1602 63.5196C33.5129 63.5196 33.4062 63.4938 33.1849 63.2781L33.1579 63.2602ZM35.0025 60.9356C35.5609 60.7715 35.9422 60.4772 36.1108 60.1146C36.253 59.8117 36.253 59.7601 36.0667 59.5351C35.7829 59.1898 35.499 59.1812 35.0644 59.5265C34.7279 59.7945 34.1602 60.6849 34.1602 60.9442C34.1602 61.0825 34.5593 61.0739 35.0025 60.9356ZM74.3316 63.4508C74.19 63.3211 74.2783 62.7595 74.784 60.8231C75.4669 58.1955 75.8304 56.6396 75.8304 56.3888C75.8304 56.2076 75.7863 56.1904 75.4669 56.242C75.139 56.2942 75.1034 56.277 75.1034 56.0693C75.1034 55.8358 75.3695 55.7233 76.4066 55.5421C76.948 55.4554 77.0988 55.5163 77.0988 55.8272C77.0988 55.9741 76.753 57.4698 76.3184 59.1633C75.8838 60.8575 75.5288 62.3877 75.5288 62.5603V62.8805L76.0076 62.8283C76.46 62.7767 76.487 62.7853 76.4514 62.9837C76.4244 63.1484 76.2914 63.2344 75.8482 63.3555C75.2628 63.5282 74.4738 63.5804 74.3494 63.468L74.3316 63.4508ZM78.2782 63.3985C78.1537 63.2086 78.2249 62.8025 78.6681 61.2121C78.9078 60.3912 79.0764 59.639 79.0586 59.5523C79.0138 59.3883 78.9874 59.3797 78.535 59.4749C78.296 59.5265 78.2426 59.5093 78.2426 59.3453C78.2426 59.1203 78.6951 58.9219 79.5103 58.775C80.0958 58.6798 80.344 58.7314 80.344 58.9477C80.344 59.0251 80.1313 59.8983 79.8745 60.8833C79.617 61.869 79.4306 62.7244 79.4754 62.7767C79.5195 62.8369 79.7237 62.8541 80.0075 62.8197C80.4507 62.7681 80.4771 62.7767 80.4415 62.9751C80.4152 63.1398 80.2821 63.2259 79.8297 63.3469C79.156 63.546 78.4112 63.5718 78.3045 63.4078L78.2782 63.3985ZM82.1445 63.3555C82.1089 63.2688 82.1353 62.9579 82.2064 62.6728C82.4461 61.7222 82.9512 59.5265 82.9512 59.4835C82.9512 59.4577 82.8096 59.4405 82.6324 59.4405C82.18 59.4405 82.2683 59.1726 82.8004 58.9219C83.1198 58.775 83.3061 58.5845 83.563 58.1353C83.8646 57.6253 83.9535 57.5472 84.211 57.5472H84.5034L84.3611 58.1439C84.2814 58.472 84.2195 58.7658 84.2195 58.8094C84.2195 58.8438 84.45 58.8782 84.7424 58.8782C85.2923 58.8782 85.3101 58.8868 85.204 59.2328C85.1507 59.4227 85.071 59.4491 84.6008 59.4491H84.0602L83.7052 61.0481C83.5103 61.9292 83.3773 62.7158 83.4128 62.8025C83.4655 62.9235 83.5458 62.9407 83.8204 62.8627C84.2992 62.7423 84.3262 62.7509 84.3262 63.0009C84.3262 63.1915 84.2373 63.2516 83.7138 63.3813C82.9071 63.589 82.2505 63.589 82.1623 63.3813L82.1445 63.3555ZM86.4632 63.3039C86.2057 63.1048 86.153 62.9923 86.1174 62.4565C86.0377 61.2637 86.6403 59.9155 87.5359 59.293C88.529 58.6103 89.611 58.5243 90.2142 59.0687C90.498 59.3281 90.5244 59.3969 90.4717 59.8289C90.3736 60.7715 89.3805 61.4542 88.0147 61.5144C87.1638 61.5581 87.0749 61.6527 87.2435 62.3182C87.4299 63.0446 87.7578 63.122 88.8043 62.6728C89.4957 62.3791 89.6557 62.3791 89.6557 62.6728C89.6557 62.9751 88.4052 63.468 87.5004 63.511C86.8352 63.546 86.7292 63.5282 86.4632 63.3125V63.3039ZM88.6798 60.7629C89.3364 60.46 89.6202 59.7944 89.2475 59.4227C88.7779 58.9563 87.9172 59.5702 87.4826 60.6763L87.3324 61.0825L87.802 61.0223C88.1064 60.9741 88.4042 60.8899 88.689 60.7715L88.6798 60.7629ZM113.714 63.4852C113.714 63.468 113.9 62.733 114.131 61.8518C114.361 60.97 114.557 60.0624 114.557 59.8289V59.4141L114.14 59.4749C113.767 59.5265 113.723 59.5179 113.723 59.3453C113.723 59.1203 113.909 59.0251 114.76 58.8266C115.497 58.654 115.719 58.7228 115.719 59.1203V59.3453L116.091 59.1203C116.747 58.7228 117.146 58.6454 117.616 58.8352C117.846 58.9305 118.024 59.0337 118.024 59.0601C118.024 59.0945 117.927 59.3883 117.794 59.7085C117.598 60.2006 117.518 60.3045 117.323 60.3045C117.129 60.3045 117.084 60.2529 117.084 59.985C117.084 59.3367 116.472 59.2844 116.011 59.8983C115.665 60.3654 115.487 60.8747 115.195 62.2058C115.071 62.8111 114.938 63.3297 114.903 63.3555C114.84 63.4164 113.741 63.5546 113.741 63.5024L113.714 63.4852ZM125.792 63.3727C125.713 63.1742 125.81 62.5861 126.209 60.9098L126.555 59.4835L126.262 59.4577C125.917 59.4227 125.854 59.1117 126.183 59.0165C126.555 58.9133 126.981 58.5243 127.184 58.1002C127.415 57.6339 127.504 57.5558 127.85 57.5558C128.08 57.5558 128.098 57.5909 128.036 57.8674C128 58.04 127.938 58.3424 127.903 58.5329L127.841 58.8868H128.328C128.825 58.8868 128.896 58.9649 128.754 59.3109C128.71 59.4227 128.55 59.4663 128.195 59.4663C127.619 59.4663 127.708 59.2758 127.247 61.359C126.91 62.8891 126.928 63.0274 127.495 62.8805C127.974 62.7595 128.01 62.7681 127.974 63.0102C127.947 63.1742 127.814 63.2602 127.415 63.3813C126.723 63.5976 125.917 63.6062 125.828 63.4078L125.792 63.3727ZM130.022 63.2781C129.233 62.5603 129.783 60.4084 131.016 59.4055C131.512 58.9993 132.293 58.6884 132.798 58.6884C133.126 58.6884 133.836 58.9907 133.942 59.1726C134.11 59.4577 134.057 60.1404 133.844 60.4686C133.401 61.1341 132.452 61.5489 131.406 61.5489H130.785L130.838 62.137C130.918 63.0618 131.29 63.1914 132.434 62.6728C132.807 62.5087 133.135 62.3877 133.161 62.4135C133.188 62.4393 133.224 62.5431 133.25 62.647C133.286 62.8025 133.135 62.9063 132.514 63.1915C131.849 63.5024 131.645 63.546 131.042 63.546C130.43 63.546 130.306 63.5196 130.067 63.3039L130.022 63.2781ZM132.222 60.8059C132.958 60.4772 133.286 59.7171 132.825 59.3969C132.523 59.1898 132.301 59.2242 131.902 59.5437C131.566 59.8117 130.998 60.7021 130.998 60.97C130.998 61.1255 131.716 61.0309 132.213 60.8059H132.222ZM135.405 63.4508C135.405 63.4078 135.601 62.6384 135.831 61.7394C136.07 60.8403 136.248 59.9678 136.23 59.8031C136.203 59.5265 136.177 59.5093 135.813 59.5265C135.52 59.5351 135.423 59.5007 135.379 59.3625C135.343 59.2156 135.432 59.1461 135.867 58.9993C136.172 58.8986 136.483 58.8149 136.798 58.7486C137.205 58.6798 137.196 58.6712 137.454 59.2328C137.462 59.2414 137.737 59.1203 138.075 58.9649C138.802 58.6361 138.917 58.6189 139.36 58.8696L139.697 59.0515L139.475 59.6648C139.289 60.1834 139.209 60.2873 139.014 60.2873C138.819 60.2873 138.775 60.2357 138.775 59.9764C138.775 59.1461 137.906 59.3109 137.436 60.2271C137.321 60.4514 137.081 61.2465 136.913 61.9901C136.744 62.733 136.584 63.3469 136.567 63.3641C136.478 63.4336 135.432 63.4938 135.432 63.4336L135.405 63.4508ZM140.646 63.4508C140.646 63.4078 140.815 62.7767 141.028 62.0503C141.249 61.2551 141.409 60.4686 141.417 60.071L141.435 59.4055L141.063 59.4405C140.77 59.4663 140.673 59.4313 140.637 59.293C140.593 59.1461 140.682 59.0859 141.116 58.9649C142.065 58.697 142.287 58.6798 142.473 58.8524C142.574 58.9542 142.634 59.0895 142.642 59.2328C142.642 59.3539 142.659 59.4577 142.686 59.4577C142.703 59.4577 143.014 59.3281 143.377 59.1726C144.22 58.8094 145.337 58.6189 145.674 58.7836C145.887 58.8868 145.905 58.9391 145.843 59.3797C145.799 59.639 145.63 60.374 145.461 61.0044C145.293 61.6355 145.142 62.301 145.124 62.4829C145.098 62.8111 145.098 62.8111 145.533 62.8025C145.834 62.7939 145.994 62.8369 146.029 62.9321C146.109 63.1306 146.011 63.1914 145.355 63.3641C144.61 63.5632 143.918 63.5632 143.839 63.3641C143.803 63.2781 143.963 62.4565 144.193 61.523C144.654 59.6562 144.681 59.4405 144.459 59.3711C144.229 59.293 143.431 59.6476 142.952 60.0366C142.553 60.3561 142.509 60.46 142.26 61.3934C142.118 61.9557 141.967 62.6126 141.923 62.8627C141.879 63.1134 141.79 63.3383 141.728 63.3555C141.409 63.4422 140.611 63.4852 140.611 63.4164L140.646 63.4508ZM147.829 63.3813C147.793 63.2953 147.98 62.4221 148.246 61.4285C148.512 60.4428 148.707 59.5788 148.672 59.5007C148.636 59.4055 148.539 59.3969 148.273 59.4663C148.15 59.5025 148.025 59.5341 147.9 59.5609C147.891 59.5609 147.874 59.4663 147.874 59.3453C147.874 59.1633 147.971 59.1031 148.424 58.9821C149.665 58.6454 150.046 58.7056 149.922 59.207C149.895 59.3367 149.673 60.1576 149.443 61.0395C149.212 61.9206 149.044 62.7072 149.079 62.7853C149.124 62.8891 149.257 62.9149 149.621 62.8627C150.064 62.8111 150.09 62.8197 150.064 63.0188C149.993 63.425 147.989 63.7789 147.838 63.4164L147.829 63.3813ZM151.784 63.3813C151.714 63.2172 151.802 62.7681 152.21 61.1169C152.662 59.293 152.662 59.4577 152.281 59.4577C151.82 59.4577 151.899 59.1984 152.431 58.9477C152.742 58.8008 152.928 58.6103 153.176 58.1869C153.451 57.7291 153.567 57.6167 153.797 57.5909C154.117 57.5558 154.117 57.5823 153.895 58.6017L153.833 58.9133H154.383C154.844 58.9133 154.923 58.9391 154.87 59.0601C154.834 59.1513 154.814 59.2475 154.808 59.3453C154.808 59.4491 154.666 59.4835 154.25 59.4835H153.691L153.345 61.0825C153.158 61.9643 153.035 62.7509 153.07 62.8369C153.124 62.9665 153.203 62.9751 153.487 62.9063C153.966 62.7853 153.992 62.7939 153.992 63.0446C153.992 63.2431 153.904 63.2953 153.38 63.425C152.582 63.632 151.917 63.632 151.829 63.425L151.784 63.3813ZM156.094 63.3125C155.801 63.079 155.793 63.0532 155.793 62.137C155.793 61.2465 155.81 61.1691 156.192 60.4772C156.662 59.6304 157.185 59.1726 158.045 58.8868C159.535 58.386 160.599 59.2414 159.943 60.4084C159.57 61.0739 158.586 61.5489 157.575 61.5489C156.972 61.5489 156.928 61.5667 156.865 61.7996C156.777 62.1198 156.892 62.5947 157.096 62.8111C157.336 63.0618 157.743 63.0188 158.479 62.6728C159.029 62.4221 159.145 62.3963 159.224 62.5087C159.411 62.7767 159.322 62.8805 158.622 63.1829C158.08 63.425 157.735 63.5024 157.176 63.5282C156.502 63.5632 156.404 63.546 156.13 63.3297L156.094 63.3125ZM158.382 60.7537C159.091 60.3998 159.331 59.6906 158.834 59.3969C158.648 59.2844 158.506 59.2672 158.284 59.3367C157.921 59.4405 157.389 60.0624 157.176 60.6419L157.008 61.0911L157.495 61.0309C157.761 60.9958 158.165 60.8747 158.395 60.7537H158.382ZM0.00851855 63.251C0.026299 63.1584 0.134958 63.0697 0.248226 63.0499C0.558396 62.9976 0.824445 62.7469 1.03781 62.3182C1.31242 61.748 2.18169 57.7893 2.20803 56.9684C2.22581 56.2684 2.22581 56.2598 1.88864 56.0693C1.2413 55.6975 1.4191 55.6373 3.2281 55.6373C4.66437 55.6373 4.90408 55.6631 4.90408 55.7842C4.90408 55.8709 4.77105 55.9569 4.58469 55.9913C3.91957 56.1123 3.66274 56.709 3.03252 59.6476C2.44774 62.3963 2.44774 62.3447 2.71379 62.5861C2.91727 62.7681 3.02396 62.7853 3.83988 62.7509C4.93964 62.6986 5.33871 62.5345 5.72 61.9557C6.02096 61.5058 6.03874 61.4972 6.2521 61.6183C6.37591 61.6878 6.36735 61.7824 6.2251 62.1628C6.11779 62.4582 5.98123 62.7421 5.81747 63.0102L5.57776 63.3899L2.77569 63.4164C0.150763 63.4336 -0.0263839 63.425 0.00851855 63.2688V63.251ZM52.9713 63.2794C52.9713 63.2053 53.1491 63.0671 53.3704 62.9712C53.6456 62.8501 53.832 62.6682 53.9914 62.3692C54.293 61.8121 55.1972 57.7695 55.2149 56.9154C55.2327 56.2711 55.2242 56.2499 54.8962 56.0614C54.1955 55.6552 54.3549 55.6294 57.5475 55.6294C60.474 55.6294 60.5359 55.6347 60.474 55.8173C60.4385 55.9119 60.3496 56.2923 60.2791 56.6468C60.1724 57.1913 60.1191 57.2952 59.9241 57.321C59.7378 57.3468 59.6937 57.3038 59.6937 57.096C59.6937 56.4649 59.2854 56.2837 57.8135 56.2837H56.8027L56.5188 57.4936C56.41 57.9527 56.2976 58.411 56.1817 58.8683C56.1376 59.0152 56.2265 59.0324 57.0595 59.0324C58.1059 59.0324 58.4167 58.9285 58.7177 58.4879C58.993 58.0903 59.3479 58.0645 59.2676 58.4357L59.0285 59.5682C58.8863 60.2595 58.8066 60.4414 58.6736 60.4414C58.5676 60.4414 58.4786 60.3376 58.4345 60.1556C58.399 60.0002 58.2659 59.8189 58.1329 59.7581C57.8847 59.637 56.235 59.5768 56.1198 59.6893C56.0487 59.7495 55.7385 61.1155 55.6055 61.9709C55.5436 62.3771 55.5613 62.4294 55.8004 62.5762C56.0131 62.7059 56.2528 62.7231 56.989 62.6973C58.0796 62.645 58.4694 62.4896 58.9186 61.9107C59.1135 61.66 59.2998 61.5131 59.3822 61.5475C59.5863 61.6163 59.5633 61.7896 59.2544 62.4552C58.7934 63.4488 59.0503 63.38 55.8405 63.38C53.4902 63.38 53.0293 63.3542 53.0293 63.2417L52.9713 63.2794ZM106.171 63.2814C106.171 63.206 106.33 63.0962 106.516 63.0393C107.181 62.8342 107.403 62.2931 108.059 59.2209C108.627 56.5761 108.618 56.1527 107.953 55.9602C107.837 55.9258 107.758 55.8484 107.784 55.7875C107.819 55.7101 108.635 55.6711 110.737 55.6526C113.593 55.6268 113.646 55.6268 113.575 55.8087C113.54 55.9119 113.451 56.2837 113.38 56.6382C113.273 57.1827 113.22 57.2866 113.025 57.3124C112.83 57.3382 112.795 57.2952 112.795 57.0444C112.795 56.4391 112.289 56.2493 110.861 56.2923L110.037 56.3181L109.744 57.5459C109.584 58.22 109.451 58.8332 109.451 58.8941C109.451 59.0668 111.048 59.0496 111.429 58.8683C111.588 58.7902 111.784 58.6004 111.854 58.4357C111.935 58.2544 112.068 58.1419 112.183 58.1419C112.431 58.1419 112.431 58.0731 112.156 59.3519C111.97 60.2509 111.899 60.4236 111.739 60.4236C111.624 60.4236 111.553 60.3548 111.553 60.2509C111.553 59.8103 110.577 59.4729 109.673 59.6112L109.274 59.6721L109.061 60.7352C108.689 62.602 108.707 62.7747 109.274 62.9824C109.904 63.2153 109.54 63.3019 107.864 63.3277C106.489 63.3542 106.223 63.3363 106.223 63.2153L106.171 63.2814ZM44.7422 61.2399C44.272 61.0467 43.8644 60.4507 43.8644 59.9638C43.8644 59.2096 44.6 58.5355 45.4251 58.5382C46.4096 58.5415 47.0122 59.084 47.0122 59.9585C47.0214 61.0739 45.8947 61.7136 44.7508 61.2465L44.7422 61.2399ZM98.0475 61.2849C97.8697 61.2128 97.5858 60.9958 97.4265 60.8006C97.1868 60.5129 97.1341 60.3561 97.1426 59.9539C97.1604 59.0826 97.7544 58.5448 98.7126 58.5448C99.1914 58.5448 99.3507 58.5924 99.6701 58.8299C100.397 59.3572 100.512 60.239 99.9362 60.8608C99.4574 61.3835 98.7304 61.5469 98.0653 61.2849H98.0475ZM35.4365 57.9097C35.2323 57.704 35.2145 57.7252 36.4025 56.4973L36.8036 56.0826L37.3996 56.2036C37.7275 56.2711 37.9962 56.3538 37.9962 56.3882C37.9962 56.4524 35.7526 58.0983 35.667 58.0983C35.6399 58.0983 35.5339 58.0143 35.4272 57.9104L35.4365 57.9097ZM88.7075 57.9097L88.4743 57.7404L89.2633 56.9227C89.6979 56.4729 90.0884 56.105 90.1417 56.105C90.3986 56.105 91.2942 56.3379 91.2764 56.3988C91.2501 56.461 89.2988 57.8833 89.0506 58.0235C88.9887 58.0546 88.8378 58.0037 88.714 57.9111L88.7075 57.9097ZM158.317 57.9111L158.065 57.7384L158.884 56.9214C159.334 56.4722 159.74 56.105 159.786 56.105C159.999 56.105 160.938 56.3333 160.93 56.3816C160.93 56.4332 158.952 57.8793 158.695 58.0195C158.633 58.0539 158.464 58.0063 158.329 57.9111H158.317ZM8.87505 57.4235C8.44964 57.0385 8.86452 56.2949 9.50461 56.2949C9.95176 56.2949 10.1836 56.5066 10.1836 56.9128C10.1836 57.5465 9.36303 57.8674 8.87439 57.4228L8.87505 57.4235ZM79.5419 57.491C79.2845 57.315 79.2996 56.7282 79.5683 56.4841C79.999 56.0951 80.8241 56.3545 80.8241 56.8817C80.8241 57.4526 80.0345 57.8323 79.5472 57.5042L79.5419 57.491ZM149.087 57.4235C148.653 57.0312 149.079 56.2949 149.735 56.2949C150.391 56.2949 150.675 56.9604 150.196 57.3911C149.87 57.6828 149.38 57.698 149.079 57.4235H149.087ZM57.34 54.7099C57.18 54.5491 57.2156 54.4909 57.9729 53.7447L58.7803 52.9489L59.3789 53.0785C59.7068 53.148 59.9729 53.226 59.9729 53.2604C59.9636 53.3557 57.8623 54.8164 57.6759 54.8594C57.5784 54.8852 57.4276 54.825 57.3394 54.7297L57.34 54.7099Z" fill="black"/>
<path d="M92.1589 49.3594L92.4039 48.7878C92.8181 47.7532 93.2462 46.9639 93.8672 46.0967C94.5231 45.1791 95.9686 43.8269 96.5691 43.5689C97.308 43.2507 98.2254 43.1389 99.3627 43.2282C100.338 43.3063 103.332 43.7495 104.541 43.9976C105.462 44.1842 106.81 44.202 107.444 44.0346C108.665 43.7131 109.388 43.09 109.732 42.0659C109.996 41.2793 109.993 40.5616 109.725 40.0866C109.365 39.4469 109.426 39.2742 110.302 38.522C110.733 38.1417 111.087 37.7957 111.088 37.7527C111.088 37.4934 110.485 36.4819 110.334 36.4733C110.236 36.4733 110.05 36.3873 109.917 36.292L109.669 36.1107L110.183 35.8686C110.892 35.5398 111.416 35.0298 111.416 34.6673C111.416 34.5118 111.265 34.1314 111.079 33.8198C110.724 33.2238 110.635 32.6529 110.83 32.3162C110.955 32.0912 111.185 31.9966 112.285 31.7108C113.207 31.4694 113.544 31.2187 113.677 30.6828C113.783 30.2244 113.73 29.9306 113.429 29.3776C113.181 28.9278 111.567 26.6891 111.106 26.1447C110.475 25.4104 109.704 24.1395 109.482 23.4568C109.261 22.7827 109.252 22.7397 109.42 21.8751C109.766 20.034 109.562 18.5132 108.578 15.5481C107.842 13.3353 107.647 12.7994 107.425 12.3847C107.008 11.6418 107.062 11.4684 107.913 10.838C108.321 10.535 108.693 10.2155 108.747 10.1202C109.004 9.68823 108.711 8.85006 108.232 8.61654C107.922 8.46968 107.753 8.57288 107.443 9.09152C107.203 9.48911 107.106 9.55857 106.857 9.55857C106.441 9.55857 106.37 9.40311 106.636 9.08292C106.937 8.70254 106.92 8.64234 106.432 8.58214C106.069 8.53848 105.882 8.40882 105.093 7.68311C104.046 6.71462 103.337 6.26543 101.936 5.67798C101.289 5.41006 101.067 5.2804 101.297 5.3148C101.502 5.3406 102.211 5.3922 102.885 5.42726C104.827 5.51326 105.297 5.2804 105.749 4.00958C106.051 3.14495 106.202 2.74737 105.492 2.14272L102.957 0H161.048V49.3594H92.1589Z" fill="#E2011C"/>
<path d="M42.6218 49.3594C42.201 49.3197 41.8355 49.3025 41.8098 49.2793C41.765 49.2396 42.2412 48.9618 44.4222 47.7578C45.1229 47.3708 45.41 47.1637 45.3126 47.1161C45.2329 47.0777 44.6231 47.0175 43.9553 46.9811C42.9642 46.9289 42.6771 46.9428 42.386 47.0652C42.1885 47.1472 41.4035 47.3622 40.6409 47.5434C38.743 47.9933 38.1135 48.3029 37.5017 49.065L37.2712 49.3587H0V0H73.9635L72.5305 0.846769C71.7416 1.20334 70.8243 1.69685 70.493 1.94492C69.3682 2.78309 67.853 4.69494 67.475 5.75208C67.3334 6.14106 67.2089 6.28528 66.7835 6.54989C66.1269 6.95277 65.3466 7.72015 64.6992 8.59471C63.8214 9.78217 62.1454 12.4581 61.8175 13.1997C61.3032 14.3514 61.3473 15.2286 62.1013 18.6693C62.4293 20.1842 62.7842 21.7236 62.8902 22.0894C62.9969 22.4553 63.1122 23.0751 63.1477 23.4661C63.2096 24.1667 63.263 24.3175 63.7154 25.1762C63.8392 25.411 63.9366 25.677 63.9366 25.7689C63.9366 25.8602 64.0256 25.9879 64.1408 26.054C64.2011 26.0925 64.2511 26.1452 64.2867 26.2074C64.3222 26.2696 64.3422 26.3396 64.3449 26.4113C64.3449 26.5753 64.584 26.8882 65.1075 27.4095C66.3047 28.6023 67.1733 29.7203 67.1733 30.0742C67.1733 30.3646 66.7038 30.4394 65.9412 30.27C65.0542 30.0716 64.3272 29.6442 63.2096 28.6592C62.7309 28.2398 62.3496 27.9593 62.3496 28.0334C62.3496 28.1074 62.669 28.4978 63.068 28.898C63.857 29.6978 63.9814 29.9161 63.8128 30.2052C63.662 30.4599 63.2985 30.534 62.802 30.4103C62.2251 30.2674 61.8972 30.4665 61.9861 30.8919C62.0394 31.1598 62.0302 31.1856 61.8616 31.134C61.5422 31.0215 60.833 30.8919 60.2034 30.831C59.618 30.7794 59.5738 30.7536 59.2281 30.3124C58.9621 29.9756 58.7494 29.8202 58.4741 29.7507C57.4369 29.4914 54.8475 29.0766 53.1182 28.9039C50.0672 28.601 49.3316 28.5752 47.8684 28.7399C46.7423 28.8603 46.4407 28.9383 45.8282 29.2149C44.7377 29.7163 42.849 31.2894 42.849 31.6956C42.849 31.8855 43.2658 31.8253 43.7354 31.5574C45.1723 30.7536 50.112 29.6124 52.5328 29.5258C53.73 29.4828 53.6681 29.535 52.2226 29.7765C51.8235 29.846 50.8831 30.0623 50.1298 30.2694C49.3757 30.4771 48.0718 30.788 47.2388 30.9693C46.4051 31.1426 45.4561 31.3754 45.146 31.4793L44.5691 31.6698L45.4561 31.6784C49.9967 31.7214 55.1577 33.0266 57.2683 34.66C58.1725 35.3606 58.5011 35.4466 59.8307 35.3169C61.6574 35.1442 64.0163 34.3577 65.0542 33.5711C65.5066 33.2337 65.8701 33.0954 65.8701 33.2774C65.8701 33.5883 65.2761 35.2567 65.0186 35.6629C64.7348 36.1293 64.717 36.1901 64.8678 36.294C64.9567 36.3542 65.0101 36.4322 64.9745 36.458C64.9389 36.4924 65.0101 36.5447 65.1339 36.5791C65.4796 36.683 65.3913 36.7776 64.8415 36.8986C64.3094 37.0283 63.8833 37.2446 63.8833 37.3915C63.8833 37.4431 63.9544 37.4867 64.0433 37.4867C64.3094 37.4867 64.1144 37.6594 63.7595 37.7282C63.5198 37.7805 63.4757 37.8149 63.5824 37.8757C63.6884 37.9359 63.6884 37.9617 63.5909 37.9617C63.5198 37.9617 63.4579 38.057 63.4579 38.178C63.4579 38.3249 63.3519 38.4288 63.1385 38.5148C62.6156 38.7311 62.7572 38.8436 63.4757 38.7827C63.8392 38.7483 64.0611 38.7483 63.9722 38.7827C63.8833 38.8092 63.2985 39.0506 62.669 39.3185C62.0302 39.5779 61.2057 39.898 60.833 40.0191C60.4075 40.1574 60.1415 40.2956 60.1145 40.3995C60.0796 40.5636 60.2745 40.555 60.7711 40.3823C60.86 40.3472 60.9396 40.3644 60.9396 40.4081C60.9396 40.4511 59.8484 41.0213 58.5182 41.6782C57.1794 42.3352 55.9381 43.0093 55.7431 43.174C55.5476 43.3466 55.3085 43.4849 55.1933 43.4849C55.0866 43.4849 54.945 43.5974 54.8739 43.727C54.6697 44.1332 54.7053 44.1848 55.1933 44.1074C55.9111 43.995 56.2482 44.0036 56.293 44.1332C56.3194 44.202 56.2482 44.2543 56.133 44.2543C56.0103 44.2577 55.8934 44.307 55.805 44.3925C55.7339 44.4699 55.5568 44.548 55.406 44.5566C55.2196 44.5824 55.051 44.6949 54.9094 44.894C54.7942 45.058 54.6078 45.2221 54.4926 45.2479C54.3773 45.2737 54.5393 45.283 54.8561 45.2565C59.5646 44.937 60.4431 44.7815 62.343 43.9083C63.9623 43.1654 65.6423 42.05 66.8395 40.9439C67.1852 40.6238 67.5046 40.3644 67.5487 40.3644C67.7107 40.3644 67.6225 40.8917 67.3828 41.3673C66.9659 42.1797 66.0973 42.9233 64.3054 44.0036C63.4013 44.548 62.426 45.0666 62.1369 45.1447C61.2373 45.4034 59.7865 45.6806 58.2614 45.879C53.3013 46.5273 51.4027 47.0202 49.5226 48.1521C49.2052 48.334 48.8753 48.4809 48.787 48.4636C48.6981 48.455 48.4591 48.5668 48.2635 48.723C47.705 49.1636 48.1127 49.0855 49.2835 48.541C50.4893 47.9794 51.0484 47.8927 50.0995 48.4114C48.9378 49.0511 48.06 49.4573 47.1907 49.4573H42.5658L42.6218 49.3594ZM36.4605 43.854C36.6482 43.7819 37.2712 43.4651 37.8441 43.1502C38.4177 42.8359 39.098 42.49 39.3574 42.3834L40.9807 41.7179C42.3077 41.1755 44.2569 40.6634 44.3682 40.8282C44.4077 40.8851 44.6988 40.9492 45.0156 40.9691C45.4561 40.9962 45.5332 41.0227 45.3521 41.0809C45.223 41.1219 45.1163 41.1933 45.1163 41.2403C45.1163 41.4116 46.0962 41.3614 46.5085 41.1669C46.6711 41.0888 47.0366 41.0028 47.3211 40.9678C47.6754 40.9248 47.8387 40.8646 47.8387 40.7693C47.8387 40.6568 47.9296 40.6396 48.2483 40.6912C48.6895 40.7607 49.6352 40.5966 52.1857 40.0171C53.9111 39.6195 55.2189 39.222 56.3674 38.747L57.1978 38.401L56.3674 37.9167C54.3411 36.7412 52.3056 36.0155 47.8387 34.8829C47.061 34.6845 46.3781 34.4767 46.3208 34.4251C46.2516 34.3643 46.2852 34.3557 46.4255 34.3993C46.8713 34.5462 47.2111 34.572 47.2111 34.4595C47.2111 34.3213 46.874 34.2088 46.2108 34.1228C45.605 34.0448 45.2138 33.8807 45.6346 33.8807C46.2859 33.8807 45.1664 33.5003 43.9119 33.3098C42.984 33.1629 42.9306 33.1285 43.3179 32.9559C43.655 32.809 44.0186 32.2467 43.9237 32.0224C43.844 31.8233 43.7466 31.8491 43.2408 32.1521C42.2741 32.7395 41.3877 33.7074 40.8912 34.7103C40.6073 35.2805 40.7048 35.3328 42.1681 35.393C43.3738 35.4366 43.3916 35.4452 43.0815 35.5921C42.8339 35.6954 42.5747 35.7678 42.3097 35.8078C41.4582 35.9202 40.9886 36.292 41.414 36.5083C41.5385 36.5685 41.4937 36.6201 41.1836 36.759C40.8378 36.9059 40.82 36.9403 40.9794 37.0177C41.0861 37.07 41.3877 37.0958 41.6537 37.0786C42.0258 37.0528 42.1944 37.0872 42.3716 37.2254L42.6027 37.4067L42.1411 37.666C41.8842 37.8129 41.6004 38.0722 41.5029 38.2369C41.4055 38.401 41.0591 38.7986 40.7226 39.1181C40.394 39.4383 40.1194 39.7664 40.1194 39.8531C40.1194 39.9311 39.6406 40.3545 39.0466 40.7779C37.4589 41.9276 36.7674 42.5667 36.7674 42.8697C36.7674 43.0337 36.6785 43.172 36.5191 43.2673C36.0226 43.561 35.7651 43.8977 36.0404 43.8977C36.1023 43.8977 36.3064 43.8375 36.4921 43.7687L36.4605 43.854ZM48.71 42.744C49.1018 42.6964 49.5568 42.5859 49.7188 42.4986L50.0152 42.3398L49.5094 42.1116L49.0043 41.8833L48.5005 42.0686C48.2226 42.1704 47.8387 42.3074 47.6471 42.3735C46.874 42.6388 46.7739 42.9954 47.4983 42.8975C47.9018 42.8454 48.3057 42.7963 48.71 42.7499V42.744ZM30.9802 38.4241C33.3121 36.2113 34.9597 34.8981 37.0499 33.5843C37.7598 33.1378 38.2616 32.8798 38.2867 32.9473C38.3538 33.1285 38.6587 33.0769 39.1539 32.7918C39.7229 32.463 40.0074 32.1263 40.718 30.9679C41.4542 29.758 41.7341 29.455 42.7976 28.7121C43.3027 28.3661 44.0304 27.8389 44.4295 27.5537C45.0057 27.139 45.1387 27.0695 45.0946 27.2342C45.059 27.3546 45.0854 27.4413 45.1651 27.4413C45.4048 27.4413 46.5309 27.0007 46.5664 26.8968C46.6283 26.7242 45.493 26.5508 44.6507 26.6031C44.0034 26.6375 43.7821 26.707 42.9748 27.0953C41.0947 28.0201 39.7295 29.0144 37.1309 31.3741C35.26 33.0683 33.7875 34.2088 33.0427 34.529C32.803 34.6322 32.6173 34.8571 32.3243 35.393C31.7566 36.4475 30.728 37.9604 29.7619 39.1876C28.8485 40.3459 28.6529 40.7435 29.3628 39.9999C29.9058 39.4572 30.4555 38.9213 31.0118 38.3924L30.9802 38.4241ZM54.3312 48.8169C57.1333 48.2877 57.4435 48.248 59.4099 48.1706C61.6179 48.0819 61.8998 48.0303 63.2281 47.4641C63.6541 47.2828 63.8207 47.2497 63.88 47.3344C63.9827 47.4839 64.7045 47.1273 66.1124 46.2323C66.6887 45.8671 67.502 45.3987 67.9214 45.193C68.5536 44.8814 68.7459 44.8298 69.0508 44.8814C69.3755 44.9363 69.4723 44.8986 69.8865 44.5705C71.0357 43.6516 72.0162 43.2276 72.9961 43.2249C73.2892 43.2249 73.3893 43.2626 73.3893 43.3758C73.3893 43.473 73.4466 43.5094 73.546 43.4743C73.8391 43.3711 73.706 43.4829 72.9553 43.993C72.0867 44.5725 72.1664 44.7537 73.0528 44.1921C73.9043 43.6562 73.9135 43.6562 73.9135 43.8719C73.9135 43.993 73.5849 44.3046 72.9909 44.7537C71.6343 45.7738 70.6768 46.6206 69.2221 48.0813L67.9188 49.3521H51.3454L54.3293 48.8076L54.3312 48.8169ZM54.3576 29.4801C54.459 29.4563 54.6236 29.4563 54.7237 29.4801C54.8251 29.5046 54.7415 29.5238 54.5413 29.5238C54.3391 29.5238 54.2575 29.5046 54.3576 29.4801Z" fill="#003189"/>
<path d="M103.205 25.8694C102.748 25.8053 102.983 25.6511 103.538 25.6511C104.093 25.6511 104.385 25.458 104.385 25.0915C104.385 24.9181 104.35 24.891 104.173 24.942C104.022 24.985 103.915 24.9486 103.809 24.8183C103.72 24.6972 103.49 24.6105 103.153 24.5702C102.559 24.4981 101.592 23.9755 101.76 23.818C101.822 23.7644 102.133 23.7003 102.443 23.6771C102.993 23.6354 103.029 23.6169 103.135 23.3126C103.224 23.085 103.339 22.9752 103.534 22.9322C103.694 22.8991 103.933 22.7741 104.075 22.653C104.226 22.532 104.695 22.2211 105.122 21.9703C105.849 21.5377 106.301 21.0799 106.141 20.933C105.972 20.7776 104.403 20.6129 103.658 20.6651C102.798 20.7253 101.317 21.0111 100.705 21.2268C100.075 21.4431 100.253 21.2526 101.131 20.7862C102.31 20.1465 104.58 19.559 105.831 19.559C106.319 19.559 107.95 19.9043 108.146 20.0512C108.527 20.3363 108.11 21.3392 107.409 21.8407L107.116 22.0477L107.596 22.5148L107.347 22.696C107.214 22.7913 107.028 22.878 106.939 22.878C106.85 22.878 106.62 23.0076 106.434 23.1717C106.15 23.4224 106.115 23.4998 106.194 23.6989C106.256 23.8458 106.256 23.9927 106.177 24.1223C106.105 24.2434 106.088 24.5113 106.132 24.8222C106.221 25.4533 106.097 25.6783 105.583 25.8079C105.21 25.9025 103.827 25.9204 103.224 25.8337L103.205 25.8694Z" fill="#7F7F7F"/>
<path d="M193.026 33.1944C193.026 33.1944 195.769 33.1944 201.253 33.1944C201.59 36.712 203.509 38.4708 207.009 38.4708C208.713 38.4708 210.089 37.9936 211.137 37.0394C212.204 36.0852 212.737 34.8409 212.737 33.3067C212.737 31.4169 212.035 29.9388 210.632 28.8723C209.995 28.4045 209.331 28.021 208.638 27.7216C207.964 27.4222 206.233 26.758 203.443 25.7289C200.579 24.6624 198.38 23.1375 196.845 21.1542C195.329 19.1709 194.571 16.8414 194.571 14.1659C194.571 10.798 195.769 7.94462 198.165 5.60581C200.561 3.267 203.49 2.0976 206.953 2.0976C208.994 2.0976 210.912 2.52794 212.709 3.38862C214.506 4.23059 215.976 5.40935 217.118 6.9249C217.885 7.97268 218.456 9.05789 218.83 10.1805C219.223 11.2844 219.457 12.6129 219.532 14.1659H211.362C211.249 12.7439 210.8 11.6399 210.014 10.8541C209.228 10.0683 208.179 9.67534 206.869 9.67534C205.577 9.67534 204.529 10.0776 203.724 10.8822C202.919 11.6867 202.517 12.7251 202.517 13.9975C202.517 15.5878 203.341 16.8882 204.988 17.8986C205.343 18.1418 206.878 18.7593 209.593 19.7509C211.708 20.5555 213.224 21.2103 214.141 21.7155C215.077 22.202 215.957 22.8288 216.781 23.5959C219.308 25.8973 220.571 28.8442 220.571 32.4366C220.571 36.2723 219.261 39.5092 216.64 42.1474C214.038 44.7668 210.828 46.0766 207.009 46.0766C204.67 46.0766 202.489 45.5994 200.467 44.6452C198.464 43.691 196.845 42.3625 195.61 40.6599C194.786 39.5373 194.178 38.4146 193.785 37.292C193.391 36.1694 193.139 34.8035 193.026 33.1944Z" fill="#373C42"/>
<path d="M226.802 45.3188C226.802 45.3188 226.802 34.7006 226.802 13.4642C226.802 13.4642 229.347 13.4642 234.439 13.4642C234.439 13.4642 234.439 24.0824 234.439 45.3188C234.439 45.3188 231.893 45.3188 226.802 45.3188ZM226.802 10.0402C226.802 10.0402 226.802 7.64525 226.802 2.85537C226.802 2.85537 229.347 2.85537 234.439 2.85537C234.439 2.85537 234.439 5.25031 234.439 10.0402C234.439 10.0402 231.893 10.0402 226.802 10.0402Z" fill="#373C42"/>
<path d="M266.866 13.4642C266.866 13.4642 269.3 13.4642 274.167 13.4642C274.167 13.4642 274.167 22.071 274.167 39.2847C274.167 42.4467 273.886 45.0662 273.324 47.1431C272.781 49.2386 271.892 51.0255 270.657 52.5036C267.624 56.1896 263.291 58.0326 257.656 58.0326C253.763 58.0326 250.384 57.1438 247.52 55.3663C244.656 53.5888 242.578 51.1003 241.287 47.9008H249.963C251.086 49.1357 252.256 50.0058 253.473 50.5109C254.69 51.0348 256.187 51.2968 257.965 51.2968C260.811 51.2968 262.973 50.4548 264.451 48.7709C265.93 47.0869 266.735 44.533 266.866 41.1089C265.369 42.8677 263.806 44.14 262.177 44.9259C260.567 45.693 258.639 46.0766 256.393 46.0766C253.398 46.0766 250.702 45.3562 248.306 43.9155C245.929 42.4748 244.076 40.4728 242.747 37.9094C241.418 35.3274 240.753 32.4179 240.753 29.181C240.753 24.466 242.241 20.5461 245.218 17.4215C248.194 14.2968 251.938 12.7345 256.449 12.7345C261.016 12.7345 264.489 14.3249 266.866 17.5057V13.4642ZM257.207 19.7509C254.587 19.7509 252.471 20.649 250.862 22.4452C249.27 24.2227 248.475 26.5802 248.475 29.5178C248.475 32.4179 249.28 34.738 250.89 36.4781C252.518 38.1995 254.699 39.0601 257.432 39.0601C260.202 39.0601 262.411 38.1901 264.058 36.45C265.706 34.6912 266.529 32.3431 266.529 29.4055C266.529 26.5241 265.668 24.1947 263.946 22.4172C262.243 20.6397 259.996 19.7509 257.207 19.7509Z" fill="#373C42"/>
<path d="M281.997 45.3188C281.997 45.3188 281.997 34.7006 281.997 13.4642C281.997 13.4642 284.346 13.4642 289.045 13.4642C289.045 13.4642 289.045 14.4839 289.045 16.5234C290.449 15.1575 291.834 14.1846 293.2 13.6045C294.567 13.0245 296.177 12.7345 298.03 12.7345C302.672 12.7345 306.06 14.3623 308.194 17.6179C308.962 18.8528 309.495 20.2468 309.795 21.7997C310.113 23.3527 310.272 25.5044 310.272 28.2548V45.3188H302.635C302.635 45.3188 302.635 40.1266 302.635 29.7423C302.635 25.626 302.092 22.9224 301.006 21.6313C299.977 20.3777 298.489 19.7509 296.542 19.7509C293.921 19.7509 292.021 20.78 290.842 22.8382C290.374 23.5679 290.056 24.4753 289.887 25.5605C289.719 26.6457 289.635 28.2268 289.635 30.3036V45.3188C289.635 45.3188 287.089 45.3188 281.997 45.3188Z" fill="#373C42"/>
<path d="M350.084 13.4642C350.084 13.4642 350.084 24.0824 350.084 45.3188C350.084 45.3188 347.754 45.3188 343.093 45.3188C343.093 45.3188 343.093 43.9436 343.093 41.1931C341.558 42.9332 339.966 44.1868 338.319 44.9539C336.691 45.7024 334.753 46.0766 332.507 46.0766C329.437 46.0766 326.676 45.3749 324.224 43.9716C321.79 42.5496 319.881 40.5757 318.496 38.0498C317.129 35.5239 316.446 32.6799 316.446 29.5178C316.446 26.3183 317.139 23.4462 318.524 20.9016C319.909 18.3383 321.837 16.3363 324.308 14.8956C326.779 13.4549 329.568 12.7345 332.675 12.7345C334.978 12.7345 336.962 13.1368 338.628 13.9413C340.294 14.7272 341.782 15.9901 343.093 17.7302V13.4642H350.084ZM333.349 19.7509C330.691 19.7509 328.492 20.6865 326.751 22.5575C325.029 24.4285 324.168 26.8048 324.168 29.6862C324.168 32.4741 325.038 34.738 326.779 36.4781C328.539 38.1995 330.813 39.0601 333.602 39.0601C336.372 39.0601 338.6 38.1807 340.285 36.422C341.988 34.6632 342.84 32.3618 342.84 29.5178C342.84 26.6364 341.951 24.2882 340.172 22.4733C338.413 20.6584 336.138 19.7509 333.349 19.7509Z" fill="#373C42"/>
<path d="M357.915 45.3188C357.915 45.3188 357.915 31.1643 357.915 2.85537C357.915 2.85537 360.461 2.85537 365.552 2.85537C365.552 2.85537 365.552 17.0098 365.552 45.3188C365.552 45.3188 363.006 45.3188 357.915 45.3188Z" fill="#373C42"/>
<path d="M405.055 33.4751C405.055 33.4751 408.144 33.4751 414.321 33.4751C412.655 37.3481 410.053 40.4166 406.515 42.6806C402.996 44.9446 399.056 46.0766 394.694 46.0766C392.654 46.0766 390.66 45.8146 388.714 45.2907C386.785 44.7668 385.007 44.0278 383.379 43.0735C381.75 42.1193 380.243 40.9686 378.858 39.6215C377.492 38.2556 376.331 36.7681 375.376 35.159C374.422 33.5312 373.673 31.7631 373.13 29.8546C372.606 27.9274 372.344 25.9534 372.344 23.9327C372.344 20.9765 372.924 18.1512 374.085 15.4569C375.245 12.7626 376.799 10.4425 378.746 8.49658C380.692 6.55069 383.014 4.99772 385.709 3.83767C388.405 2.67762 391.231 2.0976 394.189 2.0976C396.866 2.0976 399.439 2.54665 401.91 3.44475C404.4 4.32414 406.637 5.59645 408.621 7.26169C409.969 8.42174 411.055 9.56307 411.878 10.6857C412.702 11.8083 413.516 13.2584 414.321 15.0359H405.504C404.063 13.1648 402.463 11.8083 400.703 10.9664C398.943 10.1057 396.828 9.67534 394.357 9.67534C389.921 9.67534 386.392 11.2283 383.772 14.3342C382.686 15.5878 381.825 17.0753 381.189 18.7967C380.571 20.5181 380.262 22.2488 380.262 23.9888C380.262 26.5896 380.898 29.0033 382.171 31.2298C383.444 33.4564 385.176 35.2245 387.366 36.5342C389.556 37.8252 391.943 38.4708 394.526 38.4708C396.566 38.4708 398.391 38.0872 400.001 37.3201C401.63 36.5529 403.314 35.2713 405.055 33.4751Z" fill="#373C42"/>
<path d="M436.668 12.7345C439.701 12.7345 442.508 13.4829 445.092 14.9798C447.675 16.4766 449.715 18.516 451.213 21.0981C452.71 23.6614 453.459 26.4493 453.459 29.4617C453.459 32.4553 452.701 35.2338 451.185 37.7972C449.687 40.3418 447.637 42.3625 445.035 43.8594C442.434 45.3375 439.607 46.0766 436.556 46.0766C433.486 46.0766 430.641 45.3375 428.02 43.8594C425.418 42.3625 423.359 40.3418 421.843 37.7972C420.327 35.2338 419.568 32.4553 419.568 29.4617C419.568 27.179 420.008 25.0086 420.888 22.9504C421.787 20.8736 422.994 19.0961 424.51 17.6179C426.045 16.1211 427.87 14.933 429.986 14.0536C432.101 13.1742 434.328 12.7345 436.668 12.7345ZM436.359 19.7509C433.888 19.7509 431.754 20.7052 429.957 22.6136C428.179 24.5034 427.29 26.7674 427.29 29.4055C427.29 32.0624 428.189 34.3357 429.986 36.2255C431.783 38.1153 433.945 39.0601 436.472 39.0601C439.017 39.0601 441.198 38.1246 443.014 36.2536C444.83 34.3638 445.737 32.0998 445.737 29.4617C445.737 26.7299 444.83 24.4285 443.014 22.5575C441.198 20.6865 438.98 19.7509 436.359 19.7509Z" fill="#373C42"/>
<path d="M459.745 45.3188C459.745 45.3188 459.745 34.7006 459.745 13.4642C459.745 13.4642 462.095 13.4642 466.793 13.4642C466.793 13.4642 466.793 14.4839 466.793 16.5234C468.197 15.1575 469.582 14.1846 470.949 13.6045C472.315 13.0245 473.925 12.7345 475.778 12.7345C480.42 12.7345 483.809 14.3623 485.942 17.6179C486.71 18.8528 487.243 20.2468 487.543 21.7997C487.861 23.3527 488.02 25.5044 488.02 28.2548V45.3188H480.383C480.383 45.3188 480.383 40.1266 480.383 29.7423C480.383 25.626 479.84 22.9224 478.754 21.6313C477.725 20.3777 476.237 19.7509 474.29 19.7509C471.669 19.7509 469.769 20.78 468.59 22.8382C468.122 23.5679 467.804 24.4753 467.635 25.5605C467.467 26.6457 467.383 28.2268 467.383 30.3036V45.3188C467.383 45.3188 464.837 45.3188 459.745 45.3188Z" fill="#373C42"/>
<path d="M493.464 35.2151C493.464 35.2151 496.029 35.2151 501.158 35.2151C501.532 36.5623 502.056 37.5446 502.73 38.162C503.404 38.7608 504.303 39.0601 505.426 39.0601C506.437 39.0601 507.26 38.7701 507.897 38.1901C508.552 37.5914 508.879 36.8429 508.879 35.9448C508.879 34.8971 508.393 34.0738 507.419 33.4751C507.007 33.2318 506.605 33.026 506.212 32.8576C505.819 32.6892 504.902 32.3618 503.46 31.8753C500.278 30.8088 498.004 29.5552 496.637 28.1145C495.289 26.6738 494.616 24.784 494.616 22.4452C494.616 19.7135 495.626 17.4121 497.648 15.5411C499.688 13.67 502.206 12.7345 505.201 12.7345C506.848 12.7345 508.402 13.0619 509.862 13.7168C511.341 14.3717 512.586 15.2885 513.596 16.4672C514.289 17.2905 514.785 18.1418 515.085 19.0212C515.403 19.9006 515.59 20.9858 515.646 22.2768H508.177C507.84 20.5929 506.848 19.7509 505.201 19.7509C504.377 19.7509 503.675 20.0129 503.095 20.5368C502.534 21.042 502.253 21.6781 502.253 22.4452C502.253 23.4182 502.749 24.1292 503.741 24.5782C504.284 24.8028 505.594 25.2425 507.672 25.8973C510.892 26.889 513.166 28.0864 514.495 29.4897C515.843 30.893 516.517 32.8015 516.517 35.2151C516.517 38.2649 515.412 40.8376 513.203 42.9332C510.995 45.0288 508.299 46.0766 505.117 46.0766C503.151 46.0766 501.298 45.6649 499.557 44.8417C497.835 43.9997 496.469 42.8771 495.458 41.4738C494.859 40.6131 494.41 39.7244 494.11 38.8075C493.811 37.8907 493.595 36.6933 493.464 35.2151Z" fill="#373C42"/>
<path d="M538.106 12.7345C541.138 12.7345 543.946 13.4829 546.529 14.9798C549.112 16.4766 551.153 18.516 552.65 21.0981C554.148 23.6614 554.897 26.4493 554.897 29.4617C554.897 32.4553 554.138 35.2338 552.622 37.7972C551.125 40.3418 549.075 42.3625 546.473 43.8594C543.871 45.3375 541.045 46.0766 537.993 46.0766C534.924 46.0766 532.078 45.3375 529.458 43.8594C526.856 42.3625 524.797 40.3418 523.28 37.7972C521.764 35.2338 521.006 32.4553 521.006 29.4617C521.006 27.179 521.446 25.0086 522.326 22.9504C523.224 20.8736 524.432 19.0961 525.948 17.6179C527.483 16.1211 529.308 14.933 531.423 14.0536C533.538 13.1742 535.766 12.7345 538.106 12.7345ZM537.797 19.7509C535.326 19.7509 533.192 20.7052 531.395 22.6136C529.617 24.5034 528.728 26.7674 528.728 29.4055C528.728 32.0624 529.626 34.3357 531.423 36.2255C533.22 38.1153 535.382 39.0601 537.909 39.0601C540.455 39.0601 542.636 38.1246 544.451 36.2536C546.267 34.3638 547.175 32.0998 547.175 29.4617C547.175 26.7299 546.267 24.4285 544.451 22.5575C542.636 20.6865 540.418 19.7509 537.797 19.7509Z" fill="#373C42"/>
</svg>
