<?xml version="1.0" encoding="utf-8"?>
<!-- Generator: Adobe Illustrator 23.0.1, SVG Export Plug-In . SVG Version: 6.00 Build 0)  -->
<svg version="1.1" xmlns="http://www.w3.org/2000/svg" x="0px" y="0px"
     viewBox="0 0 255 255" style="enable-background:new 0 0 255 255;" xml:space="preserve">
<style type="text/css">
	.st0{opacity:0.4;fill:url(#SVGID_1_);}
	.st1{opacity:0.6;fill:url(#SVGID_2_);}
	.st2{opacity:0.6;fill:url(#SVGID_3_);}
	.st3{opacity:0.6;fill:url(#SVGID_4_);}
	.st4{opacity:0.6;fill:url(#SVGID_5_);}
	.st5{opacity:0.6;fill:url(#SVGID_6_);}
	.st6{fill:#1F2B50;}
	.st7{fill:none;stroke:#1F2B50;stroke-width:3;stroke-miterlimit:10;}
	.st8{opacity:0.4;fill:url(#SVGID_7_);}
	.st9{opacity:0.4;fill:url(#SVGID_8_);}
	.st10{opacity:0.6;fill:url(#SVGID_9_);}
	.st11{opacity:0.6;fill:url(#SVGID_10_);}
	.st12{opacity:0.4;fill:url(#SVGID_11_);}
	.st13{opacity:0.4;fill:url(#SVGID_12_);}
	.st14{opacity:0.4;fill:url(#SVGID_13_);}
	.st15{opacity:0.4;fill:url(#SVGID_14_);}
	.st16{opacity:0.4;fill:url(#SVGID_15_);}
	.st17{opacity:0.4;fill:url(#SVGID_16_);}
	.st18{opacity:0.4;fill:url(#SVGID_17_);}
	.st19{fill:url(#SVGID_18_);}
	.st20{fill:url(#SVGID_19_);}
	.st21{fill:url(#SVGID_20_);}
	.st22{opacity:0.6;fill:url(#SVGID_21_);}
	.st23{opacity:0.6;fill:url(#SVGID_22_);}
	.st24{opacity:0.6;fill:url(#SVGID_23_);}
	.st25{opacity:0.6;fill:url(#SVGID_24_);}
	.st26{opacity:0.6;fill:url(#SVGID_25_);}
	.st27{opacity:0.6;fill:url(#SVGID_26_);}
	.st28{opacity:0.6;fill:url(#SVGID_27_);}
	.st29{opacity:0.6;fill:url(#SVGID_28_);}
	.st30{fill:url(#SVGID_29_);}
	.st31{fill:url(#SVGID_30_);}
	.st32{fill:#EA9001;}
	.st33{fill:#407EA7;}
	.st34{opacity:0.5;fill:#FFFFFF;}
	.st35{fill:none;stroke:#EA9001;stroke-width:2;stroke-miterlimit:10;}
	.st36{fill:#BECBCC;}
	.st37{fill:#FFFFFF;}
	.st38{fill:#979B9B;}
	.st39{fill:none;stroke:#407EA7;stroke-width:3;stroke-miterlimit:10;}
	.st40{fill:none;stroke:#407EA7;stroke-width:3.0377;stroke-miterlimit:10;}
	.st41{fill:none;stroke:#407EA7;stroke-width:2.8985;stroke-miterlimit:10;}
	.st42{fill:none;stroke:#407EA7;stroke-width:2.933;stroke-miterlimit:10;}
	.st43{fill:none;stroke:#EA9001;stroke-width:1.8227;stroke-miterlimit:10;}
	.st44{fill:#AAB2B2;}
	.st45{fill:none;stroke:#407EA7;stroke-width:3.0142;stroke-miterlimit:10;}
	.st46{fill:none;stroke:#407EA7;stroke-width:3.0512;stroke-miterlimit:10;}
	.st47{fill:#D3DDDD;}
	.st48{fill:none;stroke:#1F2B50;stroke-miterlimit:10;}
	.st49{fill:#BECBCC;stroke:#1F2B50;stroke-width:0.75;stroke-miterlimit:10;}
	.st50{fill:url(#SVGID_31_);}
	.st51{fill:none;stroke:#407EA7;stroke-width:2.8066;stroke-linecap:round;stroke-miterlimit:10;}
	.st52{fill:none;stroke:#407EA7;stroke-width:2.7511;stroke-linecap:round;stroke-miterlimit:10;}
	.st53{fill:url(#SVGID_32_);}
	.st54{fill:none;stroke:#EA9001;stroke-width:0.8;stroke-miterlimit:10;}
	.st55{fill:none;stroke:#407EA7;stroke-width:1.2;stroke-miterlimit:10;}
	.st56{fill:none;stroke:#407EA7;stroke-width:1.2151;stroke-miterlimit:10;}
	.st57{fill:none;stroke:#407EA7;stroke-width:1.1594;stroke-miterlimit:10;}
	.st58{fill:none;stroke:#407EA7;stroke-width:1.1732;stroke-miterlimit:10;}
	.st59{fill:url(#SVGID_33_);}
	.st60{fill:none;stroke:#1F2B50;stroke-width:0.4;stroke-miterlimit:10;}
	.st61{fill:#BECBCC;stroke:#1F2B50;stroke-width:0.3;stroke-miterlimit:10;}
	.st62{fill:none;stroke:#407EA7;stroke-width:1.1226;stroke-linecap:round;stroke-miterlimit:10;}
	.st63{fill:none;stroke:#407EA7;stroke-width:1.1004;stroke-linecap:round;stroke-miterlimit:10;}
	.st64{fill:url(#SVGID_34_);}
	.st65{fill:url(#SVGID_35_);}
</style>
<g id="Calque_2">
</g>
<g id="Calque_1">
	
		<linearGradient id="SVGID_1_" gradientUnits="userSpaceOnUse" x1="614.2704" y1="1107.4805" x2="818.6704" y2="1107.4805" gradientTransform="matrix(0.6517 0.7585 -0.7585 0.6517 496.2307 -1134.6102)">
		<stop  offset="0" style="stop-color:#E0E8F0"/>
		<stop  offset="1" style="stop-color:#F8D5CA"/>
	</linearGradient>
	<circle style="fill:url(#SVGID_1_);" cx="123.1" cy="130.6" r="102.2"/>
	<g id="_x34_5AZ2S.tif_3_">
		<g>
			<path class="st6" d="M138.7,105.5c0.4,0.2,0.8,0.4,1.2,0.6c1,0.5,2,0.9,3,1.5c0.4,0.2,0.9,0.6,1.2,1c0.8,0.9,1.8,1.5,2.9,2
				c3.7,1.8,7.5,3.5,11.1,5.4c2.4,1.3,4.9,2.4,7.3,3.7c3.7,2.2,6.2,5.4,7.3,9.6c0.6,2.3,1.1,4.6,1.6,6.9c0.4,1.6,0.9,3.1,1.2,4.7
				c0.6,2.8,1.1,5.6,1.7,8.3c0.4,1.9,1,3.7,1.5,5.5c0.1,0.4,0.3,0.6,0.8,0.6c3.9-0.1,7.9-0.1,11.8-0.1c1.5,0,3-0.2,4.4-0.3
				c2.5-0.1,4.9-0.1,7.4-0.2c4.9-0.1,9.9-0.2,14.8-0.3c1.2,0,2.4,0,3.5,0c0.4,0,0.6,0.1,0.8,0.6c0.3,0.7,0.3,1.4,0.2,2
				c0,0.4-0.1,0.8-0.2,1.1c-1.1,2.8-2.2,5.6-3.2,8.4c-2.3,6.4-4.6,12.8-6.9,19.3c-0.9,2.6-1.7,5.2-2.5,7.8c-1.1,3.2-2.1,6.3-3.2,9.5
				c-0.2,0.7-0.5,1.3-0.8,2c-0.1,0.2-0.3,0.3-0.5,0.3c-0.1,0-0.3-0.3-0.4-0.5c-0.4,0-0.9,0.1-1.4,0.2c-3.7,0.4-7.4,0.9-11.1,1.3
				c-1.8,0.2-3.6,0.2-5.4,0.3c-2.8,0.2-5.5,0.6-8.3,0.8c-3.1,0.2-6.2,0.7-9.3,0.7c-2.7,0-5.4,0.3-8.2,0.5c-2.9,0.2-5.7,0.4-8.6,0.6
				c-3.1,0.2-6.1,0.4-9.2,0.6c-1.5,0.1-2.9,0.1-4.4,0.1c-0.2,0-0.4,0.1-0.6,0.1c-0.3,0-0.7,0-1,0c-1.5-0.3-3-0.8-4.4-1.1
				c-2.8-0.6-5.7-1.1-8.5-1.7c-3.9-0.9-7.8-1.7-11.7-2.9c-2.1-0.7-4.3-0.9-6.5-1.4c-1.1-0.2-2.2-0.5-3.3-0.7
				c-0.4-0.1-0.8-0.2-1.3-0.2c-0.4-0.1-0.8,0-1.2,0.4c-0.7,0.7-1.4,1.3-2.2,1.9c-1.4,1-3,0.9-4.5,0.3c-0.2-0.1-0.4-0.1-0.6-0.1
				c-3.5,0-7,0-10.5-0.1c-3.3-0.1-6.6-0.3-9.9-0.4c-1.2,0-2.4,0-3.6,0c-2.2-0.1-4.3-0.2-6.5-0.4c-2.6-0.3-5.3-0.7-7.9-1
				c-3.6-0.5-7.2-0.9-10.8-1.4c-1.1-0.1-2.1-0.5-3.1-0.8c-0.8-0.2-1.6-0.5-2.4-0.7c-1.7-0.4-3.3-1.1-5-1.8c-1.4-0.6-2.4-1.5-3.4-2.7
				c-1.5-1.8-2.1-3.9-2.2-6.1c-0.2-3.7,0.4-7.4,1.5-10.9c0.7-2.1,1.3-4.2,2.1-6.3c0.7-2.1,1.8-4.1,3-6.1c1.6-2.7,3.2-5.3,4.9-8
				c1.7-2.6,3.3-5.2,5.1-7.8c2-2.9,4.2-5.7,6.2-8.5c2.9-4.1,6.1-8,9.4-11.9c1.2-1.5,2.3-3.1,3.5-4.6c2.7-3.2,5.5-6.5,8.3-9.6
				c0.8-1,1.8-1.9,2.8-2.7c0.6-0.5,1.3-0.8,2-1.1c1.3-0.4,2.6-0.8,3.9-1.1c1.1-0.2,2.1-0.5,3.1-0.9c2.1-0.8,4.2-1.5,6.4-2.2
				c1.4-0.5,2.9-1,4.3-1.5c1.2-0.4,2.3-0.8,3.5-1.2c1-0.3,2-0.6,3-1c0.5-0.2,0.9-0.5,1.3-0.8c0.3-0.3,0.6-0.6,0.9-0.9
				c1.4-1.4,3.2-1.5,5-1.3c0.1,0,0.2,0,0.4,0c0-0.2,0-0.3,0-0.4c0-1.5,0-3,0-4.5c0-0.1-0.1-0.3-0.2-0.4c-1.9-1.1-3.3-2.6-4.1-4.6
				c-1.1-2.7-1.9-5.4-2.4-8.3c-0.8-4.4-0.5-8.7,0.3-13c0.4-2.2,1.3-4.3,2.2-6.3c0.9-2.2,1.9-4.4,3.2-6.4c1.2-1.9,2.9-3.3,4.7-4.5
				c3.8-2.6,8.1-4.2,12.7-4.6c4.2-0.4,8.3,0.4,12,2.6c2.4,1.5,4.5,3.4,6.3,5.5c1.3,1.5,2.1,3.3,2.7,5.1c0.5,1.3,1,2.7,1.1,4.1
				c0.3,3.7,0.4,7.4-0.3,11.1c0,0.1,0,0.2,0,0.3c1.1,0.4,1.3,0.6,1.3,1.8c0.1,2.3,0.1,4.6-0.7,6.9c-0.2,0.7-0.5,1.4-0.8,2.1
				c-0.4,0.7-0.9,1.2-1.9,1.1c-0.5,3-1.2,5.9-2.1,8.8C141.5,100.1,140.2,102.8,138.7,105.5z M100.5,104.9c-1.9,0.6-3.7,1.3-5.5,1.9
				c-1.6,0.6-3.1,1.2-4.7,1.7c-2.3,0.7-4.7,1.5-6.9,2.5c-0.7,0.3-1.5,0.5-2.3,0.7c-1.3,0.4-2.6,0.6-3.9,1.1
				c-0.6,0.2-1.3,0.5-1.8,0.9c-0.9,0.8-1.9,1.7-2.7,2.6c-2.8,3.2-5.6,6.4-8.3,9.7c-1.6,1.9-3.1,3.9-4.6,5.9
				c-2.5,3.1-5.1,6.2-7.4,9.4c-2.4,3.3-4.8,6.6-7.2,10c-1.6,2.3-3.2,4.7-4.7,7.1c-1.7,2.7-3.3,5.4-4.9,8.1c-1.3,2.1-2.4,4.3-3.2,6.6
				c-0.6,1.8-1.2,3.7-1.8,5.6c-1.1,3.4-1.8,6.9-1.5,10.5c0.1,2.1,0.7,4.1,2.1,5.7c0.8,1,1.8,1.8,2.9,2.3c1.5,0.7,3.1,1.3,4.7,1.7
				c0.9,0.2,1.7,0.5,2.6,0.7c1,0.3,2,0.6,3,0.8c3.6,0.5,7.2,0.9,10.8,1.4c2.3,0.3,4.6,0.7,6.9,0.9c2.7,0.3,5.4,0.6,8.2,0.5
				c0.9,0,1.8,0,2.7,0c3.5,0.1,6.9,0.3,10.4,0.4c3,0.1,6,0,9,0c0.1,0,0.3,0,0.4,0c-0.2-0.4-0.5-0.7-0.6-1.1
				c-0.7-1.6-0.8-3.4-0.6-5.1c0.4-2.5,1.1-4.8,2.4-7c1.1-2.1,2.3-4.1,4.4-5.4c-0.1,0-0.2-0.1-0.3-0.1c-1.2-0.6-2.5-0.8-3.8-1.1
				c-2.4-0.4-4.9-1-7.3-1.4c-1.8-0.3-3.5-0.4-5.3-0.6c-3-0.4-6-0.9-9.1-1.4c-1.6-0.2-3.2-0.3-4.8-0.6c-2.9-0.6-5.8-1.3-8.7-2
				c-0.3-0.1-0.6-0.1-1,0.1c-0.3,0.2-0.6,0.2-0.7-0.2c-0.1-0.3-0.3-0.3-0.5-0.4c-0.6-0.1-1.3-0.1-1.9-0.2c-0.9-0.2-1.8-0.5-2.7-0.8
				c-0.1,0-0.2-0.3-0.3-0.5c0.2,0,0.4-0.1,0.5-0.1c1.4,0.5,2.9,0.6,4.3,0.8c1,0.2,1.7-0.1,2.2-0.9c0.2-0.2,0.3-0.4,0.5-0.6
				c0.8-1.2,1.5-2.3,2.3-3.5c3.1-4.6,6.2-9.2,9.4-13.7c0.8-1.1,1.5-2.2,2.3-3.3c0.1-0.1,0.1-0.2,0.2-0.3c0.2-0.1,0.4-0.2,0.6-0.2
				c0,0.2,0.1,0.4,0,0.6c0,0.1-0.1,0.3-0.2,0.4c-0.9,1.4-1.8,2.8-2.7,4.2c-0.2,0.3-0.3,0.6-0.3,0.9c-0.1,1.7-0.1,3.4-0.1,5.1
				c0.1,3.3,0.2,6.6,0.3,9.8c0.1,1.4,0.2,2.8,0.3,4.3c0.3,0,0.7,0.1,1,0.1c2.8,0.4,5.7,0.9,8.5,1.3c1.8,0.3,3.7,0.3,5.5,0.6
				c2.2,0.3,4.4,0.8,6.6,1.2c1.4,0.3,2.9,0.6,4.3,1c0.7,0.2,1.4,0.5,2,0.7c0.4,0.2,0.8,0.4,1.2,0.5c0.2,0.1,0.3,0.3,0.5,0.3
				c1.6,0.2,3.2,0.3,4.7,0.2c1.2-0.1,2.4-0.3,3.6-0.7c1.4-0.5,2.7-1,4-1.6c2.3-1,4.5-2.1,6.7-3.2c0.5-0.2,0.5-0.5,0.3-0.9
				c-1.7-4.1-3.4-8.2-5-12.3c-1.5-3.7-2.8-7.3-4.4-11c-1.3-2.9-2.7-5.8-4.1-8.6c-0.8-1.6-1.9-3.2-2.7-4.8c-1.3-2.7-2.6-5.4-3.9-8
				c-0.5-1-0.5-2,0.1-3c0.5-0.8,0.9-1.7,1.3-2.6c-0.2-0.1-0.3-0.2-0.5-0.3c-1.8-1.1-3.6-2.3-5.4-3.4c-0.5-0.3-0.9-0.8-1.4-1.2
				c-0.7-0.6-0.9-1.4-0.7-2.3c0.8-3.6,2-7,3.6-10.3C98.5,109,99.5,107,100.5,104.9z M222,155.3c-0.2,0-0.4-0.1-0.6-0.1
				c-1.2,0-2.4,0-3.6,0c-3.7,0.1-7.3,0.2-11,0.3c-2.5,0-5.1,0-7.6,0c-3.6,0.1-7.1,0.3-10.7,0.4c-8.5,0.1-17,0-25.5,0
				c-0.5,0-1,0.1-1.4,0.2c-0.1,0-0.2,0-0.4,0c-0.2,0-0.4-0.1-0.6-0.1c-1.7,0-3.4,0-5.2,0c-0.3,0-0.4,0.1-0.5,0.3
				c-0.3,1.1-0.8,2.2-1.1,3.3c-1.2,4.6-2.7,9.1-4.3,13.6c-1.1,3.2-2.2,6.3-3.2,9.5c-0.9,2.7-1.7,5.4-2.5,8.1
				c-1.1,3.5-2.2,7.1-3.4,10.6c-0.5,1.4-0.7,2.9-1.3,4.3c-0.4,1.1-0.8,2.2-1.3,3.4c0.3,0,0.6,0.1,0.9,0c1.3-0.1,2.6-0.1,4-0.2
				c3.1-0.2,6.2-0.4,9.3-0.6c1.7-0.1,3.4-0.2,5-0.3c4-0.3,8-0.6,12-0.9c1.4-0.1,2.9-0.1,4.3-0.2c1-0.1,2-0.3,3-0.4
				c1.6-0.1,3.1-0.2,4.7-0.3c3.6-0.3,7.3-0.6,10.9-0.9c2.5-0.2,5.1-0.5,7.6-0.8c1.8-0.2,3.6-0.6,5.5-0.7c0.6-0.1,0.8-0.3,0.9-0.8
				c0,0,0-0.1,0-0.1c1-3.2,2.1-6.4,3.1-9.6c1.3-4,2.5-8.1,3.9-12.1c2-5.6,4-11.2,6-16.9c0.7-2,1.4-3.9,2.3-5.8
				C221.9,157.5,222,156.5,222,155.3z M146.8,77.8c0,0-0.1-0.1-0.1-0.1c-0.2,0.2-0.4,0.3-0.6,0.5c-0.5,0.8-0.9,1.6-1,2.5
				c-0.1,0.7-0.2,0.9-0.6,0.9c-0.4,0-0.5-0.3-0.5-1c0-3.1,0.1-6.3,0.1-9.4c0-2.4-0.2-4.8-1.5-6.9c-0.4-0.6-0.8-1.2-1.3-1.6
				c-2.1-1.5-4.4-1.8-6.7-0.6c-1.3,0.7-2.7,1.1-4.2,1.5c-1.9,0.4-3.7,0.3-5.4-0.7c-0.9-0.5-1.8-0.9-2.9-1c-0.7,0-1.3-0.1-2,0
				c-2.2,0.2-4,1-5.5,2.7c-1.6,1.9-2.2,4.1-2.5,6.5c-0.2,1.5-0.1,2.9-0.2,4.4c-0.1,1.8-0.2,3.5-0.3,5.3c0,0.6-0.3,0.9-1,0.8
				c-0.7-0.1-0.9-0.2-1-0.9c-0.2-1.1-0.5-2.2-1.3-3.1c-0.6-0.6-1-0.6-1.4,0.1c-0.2,0.4-0.4,0.9-0.5,1.3c-0.1,1.5-0.2,2.9-0.2,4.4
				c0,0.8,0.1,1.6,0.5,2.3c0.2,0.3,0.4,0.4,0.7,0.3c0.4-0.1,0.7-0.2,1-0.4c0.3-0.2,0.6-0.4,0.8-0.2c0.2,0.2,0.3,0.5,0.3,0.8
				c-0.1,2.9,0.1,5.8,0.7,8.6c0.6,3,1.5,5.9,2.8,8.7c0.9,2,1.9,3.9,3.6,5.4c1.4,1.2,3,2.2,4.7,2.8c2.8,0.9,5.7,0.5,8.5-0.3
				c1.6-0.4,2.7-1.5,4-2.5c1.6-1.3,3-2.8,4-4.6c0.7-1.4,1.3-2.8,2-4.2c1.4-2.7,2-5.6,2.7-8.4c0.5-2.1,0.8-4.3,1.2-6.5
				c0-0.2,0.2-0.3,0.3-0.4c0.1,0.1,0.3,0.2,0.4,0.4c0.1,0.1,0.1,0.3,0.1,0.4c0,0.4-0.1,0.8-0.1,1.3c0,0.1,0.1,0.2,0.1,0.4
				c0.1,0,0.3-0.1,0.4-0.2c0.1-0.1,0.3-0.3,0.4-0.5c0.2-0.5,0.5-1.1,0.6-1.6c0.7-2.1,0.7-4.3,0.7-6.5
				C146.9,78.3,146.8,78.1,146.8,77.8z M147,111.3C147,111.3,146.9,111.4,147,111.3c0,0.2,0.1,0.3,0.1,0.4c0.8,1,1.3,2.2,1.7,3.5
				c0.5,1.7,0.8,3.5,1,5.3c0.2,2.7,0.3,5.3,0,8c0,0.4-0.2,0.8-0.5,1.1c-1.1,1.1-2.3,2.2-3.5,3.4c-0.6,0.6-1.3,1.2-1.9,1.7
				c0.8,1.7,1.4,3.2,2.2,4.8c0.8,1.7,1,3.3,0.6,5.1c-0.5,1.8-0.8,3.7-1.2,5.5c-0.7,3.4-1.3,6.9-2.1,10.3c-1,4.2-2.2,8.3-3.3,12.5
				c-0.3,1.1-0.7,2.1-1,3.1c2.5,1.1,4.7,2.7,6.9,4.5c0.1-0.2,0.1-0.3,0.1-0.3c1.2-3.3,2.4-6.7,3.5-10c0.8-2.2,1.5-4.4,2.2-6.6
				c0.7-2.4,1.3-4.8,2.3-7.1c0-0.1,0-0.3,0-0.4c-0.2-0.3,0-0.5,0.2-0.6c0.2-0.1,0.4-0.1,0.6-0.1c1,0,2,0,3,0c0.9,0,1.9-0.1,2.9-0.1
				c0-0.7,0-1.4,0-2.1c0.1-2.9,0.2-5.8,0.3-8.6c0-0.4,0.1-0.7,0.2-1.1c0-0.1,0.2-0.3,0.4-0.3c0.1,0,0.2,0.2,0.3,0.3
				c0.1,0.1,0,0.2,0,0.4c-0.1,3.7-0.1,7.4-0.2,11.1c0,0.1,0,0.3,0,0.4c5.4,0,10.7,0,16,0c-0.2-0.4-0.4-0.8-0.5-1.2
				c-0.4-1.5-0.9-3-1.2-4.6c-0.6-2.8-1.1-5.6-1.7-8.4c-0.3-1.6-0.8-3.1-1.2-4.7c-0.5-2.2-1-4.4-1.5-6.5c-0.6-2.5-1.8-4.7-3.6-6.6
				c-1.5-1.5-3.2-2.6-5.1-3.6c-1.3-0.6-2.6-1.2-3.9-1.9c-2.5-1.3-5.1-2.7-7.6-4c-0.6-0.3-1.2-0.6-1.8-0.9
				C148.9,112.3,147.9,111.8,147,111.3z M144,186.5c0.5-1.7,1.1-3.2,1.6-4.8c0-0.1-0.1-0.3-0.1-0.4c-1.6-1.4-3.4-2.6-5.2-3.7
				c-0.4-0.2-0.8-0.4-1.3-0.6c-2.3-0.7-4.6-0.5-6.9,0c-2,0.4-3.9,0.9-6,1c-0.8,0-1.6,0.1-2.3,0.8c-0.9,0.8-1.8,1.6-3,2.2
				c-0.9,0.4-1.7,1-2.6,1.4c-2.6,1.1-5.3,2.2-7.9,3.2c-1.2,0.4-2.5,0.6-3.8,0.9c-0.9,0.2-1.8,0.3-2.8,0.2c-1.2-0.2-2.5-0.2-3.7-0.6
				c-0.9-0.2-1.5-0.1-2.1,0.5c-0.2,0.2-0.4,0.3-0.5,0.5c-1.9,2.3-3.3,4.7-4.1,7.6c-0.5,1.9-1,3.8-0.6,5.8c0.1,0.4,0.2,0.5,0.6,0.6
				c1.2,0.3,2.5,0.3,3.7,0.4c2,0,4,0,6-0.1c0.5,0,0.9-0.1,1.4,0c2.5,0.1,5,0,7.5,0.3c2.8,0.4,5.6,0.2,8.3,0.3
				c1.8,0.1,3.6-0.4,5.4-0.6c2.6-0.3,5.2-0.7,7.8-1c1.9-0.2,3.8-0.2,5.6-0.8c0.2,0,0.3,0,0.5,0c0.4,0.1,0.7,0,0.8-0.4
				c0.3-1,0.6-2,0.9-3c0-0.1,0-0.3,0.1-0.4c-4.2,0.2-8.2-0.3-12.1-1c-0.3,0.9-0.6,1.7-1,2.5c-0.1,0.3-0.3,0.5-0.7,0.3
				c-0.3-0.2-0.3-0.5-0.1-0.7c0.7-1.3,1-2.7,1.3-4.1c0.3-1.3,0.3-2.6,0.4-3.8c0.1-0.6,0.2-1.3,0.3-1.9c-0.2,0-0.4,0-0.6,0
				c-1.7,0.1-3.4,0.2-5.1,0.1c-1.4-0.1-2.2,0.5-2.8,1.6c0,0.1-0.1,0.2-0.2,0.2c-1.6,2.5-3.5,4.8-6,6.5c-0.2,0.2-0.5,0.3-0.7,0.4
				c-0.1,0-0.3-0.1-0.5-0.2c0.1-0.2,0.1-0.4,0.2-0.5c2.7-1.7,4.6-4.1,6.3-6.8c0.3-0.5,0.8-1,1.2-1.5c0.4-0.5,0.9-0.6,1.5-0.7
				c2.1,0,4.2-0.1,6.3-0.2c0.8,0,1.5,0.1,2.1,0.5c1.3,0.7,2.5,1.4,3.8,2.2c0.5,0.3,1.1,0.5,1.9,0.5c-0.1-0.3-0.1-0.6-0.2-0.8
				c-0.8-1.1-1.6-2.3-2.5-3.3c-0.5-0.6-1.2-1-1.8-1.6c-0.6-0.6-1.2-0.9-2-0.9c-1.4-0.1-2.7-0.2-4.1-0.3c-0.6-0.1-1.3-0.1-1.9-0.2
				c-0.2,0-0.4-0.3-0.5-0.5c0-0.1,0.1-0.4,0.3-0.5c0.1-0.1,0.3-0.1,0.5-0.1c1.6,0.1,3.2,0.2,4.8,0.3c1.4,0.1,2.8,0.4,3.8,1.6
				c0.1,0.1,0.2,0.2,0.4,0.3c0.8,0.5,1.4,1.2,1.9,2c0.5,0.7,1,1.4,1.5,2.1c0.4,0.5,0.7,0.9,0.7,1.6c0,0.1,0.1,0.3,0.2,0.4
				c0.8,1.2,1.7,2.4,2.5,3.6c0.4,0.6,0.8,1.1,1.2,1.8c0.5-1.7,1-3.4,1.5-4.8c-0.3-0.6-0.6-1-0.9-1.5c-0.9-1.6-1.7-3.2-2.6-4.8
				c-0.6-1-1.1-2-2.3-2.3c-0.1,0-0.2-0.1-0.2-0.2c-0.5-0.2-0.9-0.5-1.4-0.6c-1.6-0.5-3.2-1-4.8-1.6c-0.1,0-0.3-0.3-0.3-0.4
				c0-0.3,0.3-0.3,0.5-0.2c1.1,0.4,2.3,0.8,3.4,1.1c1.3,0.3,2.5,0.7,3.7,1.3c0.7,0.4,1.3,0.7,1.7,1.4c0.3,0.5,0.7,1,1.1,1.5
				c0.6,0.7,1.3,1.2,2,1.9C143.2,185.8,143.6,186.2,144,186.5z M145,77.7c0,0,0.1,0,0.1,0.1c0.2-0.3,0.6-0.6,0.6-1
				c0.2-1.8,0.5-3.7,0.5-5.5c0-2-0.2-4-0.4-6c-0.2-2.3-1.2-4.4-2.2-6.4c-0.6-1.3-1.4-2.4-2.5-3.4c-0.7-0.7-1.5-1.3-2.2-2
				c-1.4-1.3-3-2.2-4.7-3c-3.3-1.4-6.7-1.7-10.2-1.3c-4.1,0.5-7.9,2.1-11.3,4.4c-2.1,1.4-3.9,3.2-5.2,5.5c-1.1,1.8-1.7,3.8-2.6,5.7
				c-0.8,1.7-1.3,3.5-1.8,5.3c-0.8,3.4-1,6.9-0.7,10.3c0.2,1.7,0.6,3.5,1,5.2c0.5,2.1,1.1,4.2,2.2,6.1c0.5,0.9,1.3,1.6,2,2.3
				c0.2,0.2,0.5,0.2,0.8,0.2c0.1,0,0.3-0.4,0.3-0.6c0-1.9,0-3.7,0-5.6c0-0.6-0.2-0.7-0.8-0.6c-0.6,0.1-1.2,0.1-1.6-0.4
				c-0.4-0.6-0.7-1.2-0.8-1.9c-0.3-1.8-0.2-3.6-0.1-5.4c0.1-0.9,0.3-1.8,0.9-2.5c0.6-0.9,1.8-1,2.6-0.2c0.5,0.6,0.9,1.3,1.2,2
				c0.2,0.6,0.2,1.3,0.4,1.9c0,0.1,0.1,0.2,0.2,0.3c0.1-0.1,0.2-0.2,0.2-0.3c0-0.5,0-1,0.1-1.5c0.3-3.3-0.1-6.6,0.5-9.8
				c0.6-3.2,2.8-7.1,7.2-8c2.2-0.5,4.5-0.5,6.6,0.7c0.8,0.5,1.7,0.8,2.6,0.9c2.1,0.1,4.1-0.4,6-1.4c1.8-1,3.7-1.3,5.7-0.7
				c1.7,0.5,3.1,1.5,4,3.1c0.9,1.8,1.3,3.7,1.4,5.7c0.1,2,0.1,3.9,0.1,5.9C145,76.1,145,76.9,145,77.7z M127.3,176.8
				c0.2,0,0.2,0,0.3,0c1.3-0.3,2.6-0.5,3.9-0.8c0.1,0,0.1-0.1,0.2-0.1c0.1-0.4,0.3-0.7,0.4-1.1c0.3-1.8,0.5-3.6,0.8-5.5
				c0.3-1.9,0.6-3.7,0.8-5.6c0.5-3.7,0.9-7.4,1.4-11.1c0.5-3.4,1-6.7,1.6-10.1c0.5-3.2,1-6.4,1.5-9.6c0.5-2.9,1-5.7,1.2-8.6
				c0-0.4,0-0.8,0-1.2c-0.2,0.2-0.2,0.3-0.3,0.5c-1.2,2.4-2.4,4.8-3.6,7.1c-0.2,0.4-0.6,0.5-0.9,0.2c-0.2-0.2-0.3-0.3-0.5-0.5
				c-1.2-1.8-2.8-3.2-4.3-4.8c-0.1-0.1-0.2-0.2-0.4-0.4c-0.3,1-0.7,1.9-0.9,2.9c-0.5,2.4-0.9,4.8-1.4,7.2c-0.1,0.3-0.2,0.5-0.3,0.8
				c-0.1,0.2-0.2,0.4-0.2,0.6c0,2.1,0,4.1,0.1,6.2c0.1,4.4,0.2,8.9,0.4,13.3c0,1.2,0,2.5,0,3.7c0.1,4.8,0.3,9.6,0.4,14.4
				C127.3,175.1,127.3,175.9,127.3,176.8z M109,119.6c-0.1,0.1-0.1,0.1-0.2,0.2c-2.6,3.8-5.1,7.7-7.2,11.8c-0.4,0.9-0.5,1.6,0,2.4
				c0.7,1.2,1.3,2.5,1.9,3.8c0.9,1.8,1.6,3.6,2.6,5.3c2.1,3.5,3.9,7.2,5.6,10.9c1.3,2.8,2.4,5.7,3.5,8.6c2.1,5.2,4.2,10.5,6.3,15.7
				c0.1,0.2,0.2,0.4,0.3,0.6c0.9-0.7,1.7-1.3,2.6-2c0-0.3-0.1-0.6-0.2-1c-0.9-3.5-1.8-6.9-2.8-10.4c-1.4-5-2.8-10.1-4.2-15.1
				c-1.3-4.8-3-9.5-4.1-14.4c-1-4.4-2.3-8.8-3.4-13.3C109.3,121.9,109.2,120.8,109,119.6z M125.2,177c0.2,0,0.5-0.1,0.8-0.1
				c0.3,0,0.4-0.1,0.4-0.4c0-2.1,0-4.3-0.1-6.4c-0.1-4.6-0.3-9.2-0.4-13.8c0-1.5,0-3-0.1-4.4c-0.1-4.8-0.1-9.6-0.2-14.4
				c0-0.8,0-1.5-0.1-2.3c-0.6-2.6-1.1-5.2-1.7-7.8c-0.2-1-0.5-2-0.8-3.1c-0.1,0.1-0.2,0.2-0.2,0.2c-1.1,1.4-2.3,2.7-3.4,4.1
				c-0.9,1-1.7,2.1-2.6,3.1c-0.4,0.4-0.7,0.5-1.2,0.2c-0.4-0.2-0.7-0.6-1-0.9c-0.8-0.9-1.6-1.8-2.3-2.7c-0.1-0.1-0.2-0.2-0.4-0.4
				c0,0.2,0.1,0.3,0.1,0.4c1.2,4.5,2.3,9,3.5,13.4c1.1,4.1,2.4,8.2,3.6,12.3c1.3,4.6,2.6,9.2,3.8,13.8
				C123.7,170.8,124.4,173.9,125.2,177z M138.3,175.7c0-0.1,0-0.3,0-0.4c0.4-1.5,0.8-3,1.2-4.5c0.9-3.5,2-7,2.8-10.6
				c0.8-3.4,1.3-6.8,2-10.1c0.5-2.3,1-4.5,1.4-6.8c0.1-0.6,0.1-1.4-0.1-1.9c-0.4-1.2-1-2.5-1.6-3.6c-1-2.1-2.1-4.1-3.1-6.1
				c-0.4-0.7-0.7-1.4-1.1-2.2c-0.1,0.2-0.1,0.4-0.1,0.6c-0.7,4.1-1.3,8.3-2,12.4c-0.5,3-1,5.9-1.4,8.9c-0.5,3.4-0.9,6.9-1.4,10.3
				c-0.3,2.4-0.7,4.8-1,7.2c-0.3,2-0.6,4-0.9,6c-0.1,0.4-0.2,0.7-0.2,1C134.6,175.7,136.4,175.7,138.3,175.7z M136,108.8
				c-0.3,0.2-0.5,0.4-0.8,0.6c-1,0.7-1.9,1.6-2.9,2.2c-1.5,1-3.2,1.3-4.9,1.5c-1.9,0.3-3.8,0.3-5.8-0.2c-1.4-0.3-2.7-1.1-3.9-1.9
				c-1.1-0.7-2.2-1.5-3-2.6c-0.7-1-1.4-2-2-3.1c-1.3-2.6-2.2-5.3-3-8.1c-0.2-0.6-0.3-1.1-0.4-1.7c-0.1,0.2-0.1,0.3-0.1,0.5
				c0,1.3,0.1,2.7,0.1,4c0,1.2-0.1,2.5-0.2,3.7c0,0.8-0.3,1.5-0.1,2.2c0.2,1.1,0.6,2.3,1.2,3.2c1.1,1.9,2.3,3.9,4,5.4
				c0.3,0.3,0.6,0.6,0.9,0.9c0.8,0.7,1.6,1.4,2.4,2.1c0.5,0.5,1.1,0.9,1.7,1.4c0.8,0.6,1.6,1.3,2.4,1.9c0.6,0.5,1.2,0.9,1.8,1.3
				c0.3,0.3,0.5,0.6,0.3,1c-0.1,0.2-0.1,0.5,0,0.7c0.6,2.1,1.2,4.1,1.7,6.1c0.2,0.9,0.4,1.8,0.6,2.8c0.1-0.3,0.1-0.5,0.1-0.6
				c0.3-1.5,0.6-3,1-4.4c0.3-1.3,0.8-2.5,1.3-3.8c0.2-0.5,0.6-0.5,1-0.1c0.1,0.1,0.1,0.2,0.3,0.3c0.5-0.4,1-0.8,1.4-1.2
				c1.4-1.2,2.4-2.7,3.1-4.3C135.8,115.6,135.9,112.2,136,108.8z M108.3,102c-1.5-0.2-2.9-0.3-4.1,0.6c-0.2,0.1-0.3,0.4-0.5,0.5
				c-1.2,0.8-2,2-2.7,3.2c-0.9,1.8-1.7,3.6-2.6,5.3c-1.6,3.1-2.7,6.4-3.4,9.8c-0.2,0.7,0,1.2,0.5,1.7c1.8,1.6,3.9,2.8,6,4.1
				c0.3,0.2,0.7,0.3,1,0.5c0.1-0.1,0.2-0.2,0.2-0.3c1.8-2.8,3.4-5.8,5.6-8.4c0.3-0.4,0.5-0.9,0.4-1.5c-0.6-2.6-0.9-5.3-1-8.1
				C107.6,107,107.6,104.5,108.3,102z M143.2,133.7c0.8-0.7,1.6-1.4,2.4-2.1c0.5-0.5,1-0.9,1.5-1.4c0.4-0.4,0.8-0.7,1.2-1.2
				c0.2-0.2,0.3-0.5,0.3-0.8c0.2-3.4,0.3-6.7-0.3-10.1c-0.4-2.2-0.8-4.3-2.4-6.1c-1.3-1.5-2.6-3.1-4.4-4c-0.9-0.5-1.8-0.9-2.8-1.4
				c-0.7-0.3-0.7-0.3-1,0.4c1.1,1.2,1.4,1.5,1.6,2.7c0.1,0.6,0.2,1.1,0.3,1.7c0.2,1.9,0.5,3.7,0.6,5.6c0.1,1.3,0.2,2.6,0.2,3.9
				c0,0.7,0,1.4-0.1,2.2c-0.2,1.5-0.3,3-0.4,4.6c0,0.1,0,0.3,0.1,0.4c0.9,1.7,1.9,3.5,2.8,5.2C143,133.3,143.1,133.5,143.2,133.7z
				 M108.7,107.1c-0.1,0-0.1,0-0.2,0c0.2,2.2,0.2,4.4,0.5,6.6c0.6,4,1.2,8,2.3,11.9c0.1,0.3,0.2,0.5,0.4,0.8
				c1.2,1.3,2.4,2.6,3.6,3.9c0.2,0.2,0.4,0.4,0.6,0.7c2.3-2.7,4.5-5.4,6.7-8.1c0,0-0.1-0.1-0.1-0.1c-1.8-1.2-3.4-2.6-5-4
				c-1.2-1.1-2.5-2.1-3.6-3.3C111.6,113.1,109.6,110.5,108.7,107.1C108.7,107.1,108.7,107.1,108.7,107.1z M70.2,161.1
				c-3.7,5.4-7.3,10.6-10.9,15.9c1.3,0.6,9.7,2.5,11.3,2.3C70.2,173.3,69.8,167.3,70.2,161.1z M106,202.2c0,0,0.2,0,0.3,0.1
				c3.3,0.5,6.5,1.1,9.6,2.3c0.2,0.1,0.5,0.1,0.7,0.2c3.4,0.8,6.8,1.6,10.2,2.3c2.9,0.6,5.9,1.1,8.8,1.7c0.5,0.1,0.9,0.2,1.4,0.4
				c0.5-1.3,0.9-2.5,1.4-3.7c-0.3-0.1-0.5-0.2-0.7-0.2c-0.8-0.2-1.5-0.3-2.3-0.5c-2.4-0.5-4.8-0.9-7.1-1.4c-0.7-0.1-1.5-0.1-2.2-0.5
				c-0.9-0.4-1.8-0.3-2.7-0.2c-0.9,0.1-1.8,0.3-2.8,0.3c-1.6,0-3.1-0.1-4.7-0.2c-2.1-0.1-4.1,0-6.2-0.4
				C108.6,201.9,107.2,202.2,106,202.2z M137.2,107.8c-0.1,0-0.1,0-0.2,0.1c0,0.2-0.1,0.4-0.1,0.6c0,0.6,0.2,1.1,0.1,1.7
				c0,2.4-0.3,4.7-0.9,6.9c-0.7,2.3-1.7,4.5-3.5,6.2c-0.6,0.6-1.4,1.2-2.1,1.7c1.5,1.6,2.9,3.3,4.5,5c0.3-0.6,0.6-1.2,0.9-1.8
				c1-2.2,1.9-4.3,2.9-6.5c0.3-0.7,0.5-1.4,0.4-2.1c-0.1-1.4-0.3-2.9-0.3-4.3c0-2.1-0.4-4.2-1.1-6.1
				C137.7,108.6,137.4,108.2,137.2,107.8z M130.2,187.1c-0.1,0.5-0.3,1-0.4,1.4c-0.2,1.6-0.3,3.3-0.5,4.9c0,0.3,0.1,0.5,0.4,0.5
				c0.7,0.1,1.5,0.3,2.2,0.4c2,0.2,4,0.3,6,0.5c0.9,0.1,1.8,0,2.8,0c-1.2-1.7-2.2-3.3-3.3-4.8c-1.1,0.4-2.1,0-3.1-0.5
				c-1.3-0.7-2.5-1.5-3.7-2.2C130.5,187.2,130.4,187.2,130.2,187.1z M139.9,200c0,0-0.1,0-0.1-0.1c-0.3,0.1-0.5,0.4-0.8,0.4
				c-0.8,0.2-1.5,0.5-2.3,0.6c-2.2,0.2-4.4,0.4-6.5,0.6c-1.2,0.1-2.4,0.3-3.6,0.5c0,0,0,0,0,0.1c4,0.7,8,1.4,12.1,2.1
				C139.1,202.9,139.5,201.5,139.9,200z M93.1,202c0.3,0.8,1.3,1.8,2.3,2c1.4,0.3,3-0.4,3.8-1.6C97.2,202.3,95.2,202.2,93.1,202z
				 M141.5,185.3c0.6,1,1.3,2.1,1.9,3.2c0.1-0.2,0.2-0.4,0.2-0.6c0-0.2,0.1-0.6,0-0.7C142.9,186.6,142.2,185.9,141.5,185.3z"/>
			<path class="st6" d="M203.1,125.2c-0.8,3.6-2.1,7-3.4,10.5c-0.5,1.2-0.8,2.5-1.3,3.8c-0.2,0.5-0.4,1-0.6,1.4
				c-0.2,0.4-0.5,0.6-0.9,0.6c-0.5,0-0.7-0.3-0.8-0.7c-0.3-1.3-0.6-2.6-0.7-3.9c-0.2-2.3-0.3-4.7-0.5-7c-0.1-1.6-0.2-3.1-0.4-4.7
				c0-0.1-0.3-0.3-0.5-0.4c-1.1-0.3-2.2-0.4-3.2-0.7c-2.3-0.5-4.5-1.1-6.8-1.6c-2.3-0.6-4.3-1.7-6.3-2.8c-1.6-0.9-3.2-1.9-4.5-3.3
				c-1.8-2-3.5-4.1-4.2-6.7c-0.4-1.5-0.5-3-0.6-4.5c-0.6-7.9,0.4-15.7,2.4-23.4c0.7-2.6,1.3-5.2,2.3-7.7c1.2-2.8,2.6-5.5,4.6-7.8
				c3-3.5,6.8-5.8,11.4-6.7c1.9-0.4,3.8-0.6,5.7-0.6c2.3,0,4.5,0.1,6.8,0c3.3-0.1,6.5,0.4,9.6,1.3c2.6,0.8,5.1,1.7,7.6,2.6
				c0.3,0.1,0.5,0.2,0.8,0.3c2.5,0.7,4.6,2.2,6.5,3.9c0.9,0.8,1.7,1.6,2.5,2.5c0.6,0.6,1,1.4,1.5,2.1c0.1,0.2,0.2,0.5,0.4,0.7
				c1.1,1.5,1.5,3.3,1.8,5.2c0.8,3.8,0.8,7.6,0.5,11.5c-0.1,1.9-0.5,3.7-0.8,5.6c-0.2,1.6-0.4,3.3-0.7,4.9c-1,4.5-2.2,8.9-3.9,13.2
				c-1,2.5-2.4,4.7-4.3,6.6c-2,2-4.4,3.4-7,4.2c-2,0.6-4.1,1.1-6.2,1.5C207.6,125.4,205.4,125.5,203.1,125.2z M196.9,139.9
				c0.1,0,0.1,0,0.2,0c0.1-0.3,0.2-0.6,0.3-0.8c0.9-2.6,1.9-5.1,2.8-7.7c0.7-2.2,1.5-4.3,1.9-6.6c0.1-0.6,0.5-0.9,1.1-0.7
				c0.3,0.1,0.7,0.2,1,0.2c1.6-0.1,3.3,0,4.8-0.3c2.3-0.4,4.5-0.9,6.7-1.6c2.5-0.7,4.7-2,6.5-3.9c1.7-1.7,3-3.7,3.9-5.9
				c1.9-4.5,3.2-9.2,4.2-14c0.4-1.9,0.5-3.9,0.8-5.8c0.2-1.5,0.6-2.9,0.6-4.4c0.1-2.5,0.1-4.9-0.1-7.4c-0.1-1.5-0.5-3-0.7-4.6
				c-0.3-2.2-1.6-3.8-2.6-5.6c-0.1-0.2-0.3-0.4-0.5-0.5c-0.9-0.9-1.7-1.7-2.6-2.6c-1.4-1.3-2.9-2.4-4.7-3.1c-1.8-0.7-3.6-1.3-5.3-2
				c-2.9-1.1-5.9-2.1-9-2.4c-0.9-0.1-1.7-0.3-2.6-0.3c-0.7,0-1.3,0.1-2,0.1c-2.3,0-4.5,0-6.8-0.1c-1.7,0-3.4,0.2-5.1,0.5
				c-4.6,0.8-8.5,3-11.5,6.6c-2,2.5-3.6,5.3-4.6,8.4c-0.8,2.5-1.5,5.1-2.2,7.6c-1.4,5.4-2.1,10.8-2.2,16.4c-0.1,2.5,0,5,0.3,7.5
				c0.1,1.3,0.4,2.6,1,3.9c0.9,1.7,2,3.3,3.4,4.7c1.2,1.3,2.7,2.2,4.2,3.1c1.8,1,3.6,2.1,5.7,2.6c2.7,0.7,5.4,1.3,8,1.9
				c0.9,0.2,1.8,0.4,2.8,0.6c0.7,0.2,0.8,0.5,0.8,1.1c0,0.4,0,0.8,0.1,1.2c0.1,1.5,0.3,2.9,0.4,4.4c0.2,2.2,0.3,4.4,0.5,6.6
				C196.5,138,196.8,139,196.9,139.9z"/>
			<path class="st33" d="M100.5,104.9c-1,2.1-2,4.1-3,6.2c-1.7,3.3-2.9,6.7-3.6,10.3c-0.2,0.9,0,1.7,0.7,2.3
				c0.5,0.4,0.9,0.9,1.4,1.2c1.8,1.2,3.6,2.3,5.4,3.4c0.2,0.1,0.3,0.2,0.5,0.3c-0.4,0.9-0.8,1.8-1.3,2.6c-0.6,1-0.6,2-0.1,3
				c1.3,2.7,2.5,5.4,3.9,8c0.8,1.6,1.9,3.2,2.7,4.8c1.4,2.8,2.9,5.7,4.1,8.6c1.6,3.6,2.9,7.3,4.4,11c1.7,4.1,3.3,8.2,5,12.3
				c0.2,0.5,0.2,0.7-0.3,0.9c-2.2,1-4.4,2.2-6.7,3.2c-1.3,0.6-2.7,1.1-4,1.6c-1.1,0.4-2.3,0.6-3.6,0.7c-1.6,0.2-3.2,0-4.7-0.2
				c-0.2,0-0.3-0.2-0.5-0.3c-0.4-0.2-0.8-0.4-1.2-0.5c-0.7-0.3-1.4-0.5-2-0.7c-1.4-0.4-2.9-0.7-4.3-1c-2.2-0.4-4.4-0.9-6.6-1.2
				c-1.8-0.3-3.7-0.4-5.5-0.6c-2.8-0.4-5.7-0.9-8.5-1.3c-0.3,0-0.7-0.1-1-0.1c-0.1-1.4-0.3-2.9-0.3-4.3c-0.1-3.3-0.2-6.5-0.3-9.8
				c0-1.7,0.1-3.4,0.1-5.1c0-0.3,0.1-0.6,0.3-0.9c0.9-1.4,1.8-2.8,2.7-4.2c0.1-0.1,0.2-0.3,0.2-0.4c0-0.2,0-0.4,0-0.6
				c-0.2,0.1-0.4,0.1-0.6,0.2c-0.1,0.1-0.2,0.2-0.2,0.3c-0.8,1.1-1.5,2.2-2.3,3.3c-3.1,4.6-6.2,9.1-9.4,13.7
				c-0.8,1.1-1.5,2.3-2.3,3.5c-0.1,0.2-0.3,0.4-0.5,0.6c-0.5,0.8-1.2,1.1-2.2,0.9c-1.5-0.2-2.9-0.3-4.3-0.8c-0.1-0.1-0.3,0-0.5,0.1
				c0.1,0.2,0.2,0.4,0.3,0.5c0.9,0.3,1.8,0.6,2.7,0.8c0.6,0.1,1.3,0.2,1.9,0.2c0.2,0,0.4,0.1,0.5,0.4c0.1,0.4,0.5,0.4,0.7,0.2
				c0.3-0.3,0.6-0.2,1-0.1c2.9,0.7,5.8,1.4,8.7,2c1.6,0.3,3.2,0.4,4.8,0.6c3,0.4,6,1,9.1,1.4c1.8,0.2,3.5,0.3,5.3,0.6
				c2.5,0.4,4.9,0.9,7.3,1.4c1.3,0.2,2.6,0.5,3.8,1.1c0.1,0,0.2,0.1,0.3,0.1c-2.1,1.3-3.3,3.3-4.4,5.4c-1.2,2.2-2,4.6-2.4,7
				c-0.3,1.7-0.1,3.4,0.6,5.1c0.2,0.4,0.4,0.7,0.6,1.1c-0.2,0-0.3,0-0.4,0c-3,0-6,0.1-9,0c-3.5-0.1-6.9-0.3-10.4-0.4
				c-0.9,0-1.8,0-2.7,0c-2.8,0.1-5.5-0.2-8.2-0.5c-2.3-0.3-4.6-0.7-6.9-0.9c-3.6-0.5-7.2-0.9-10.8-1.4c-1-0.1-2-0.5-3-0.8
				c-0.9-0.2-1.7-0.5-2.6-0.7c-1.6-0.4-3.2-1-4.7-1.7c-1.2-0.6-2.1-1.3-2.9-2.3c-1.4-1.6-2-3.6-2.1-5.7c-0.2-3.6,0.5-7.1,1.5-10.5
				c0.6-1.9,1.2-3.7,1.8-5.6c0.8-2.3,1.9-4.5,3.2-6.6c1.7-2.7,3.3-5.4,4.9-8.1c1.5-2.4,3-4.8,4.7-7.1c2.3-3.4,4.8-6.6,7.2-10
				c2.3-3.3,4.9-6.3,7.4-9.4c1.6-1.9,3-3.9,4.6-5.9c2.7-3.3,5.5-6.5,8.3-9.7c0.8-0.9,1.7-1.8,2.7-2.6c0.5-0.4,1.1-0.7,1.8-0.9
				c1.3-0.4,2.6-0.7,3.9-1.1c0.8-0.2,1.6-0.3,2.3-0.7c2.2-1,4.6-1.7,6.9-2.5c1.6-0.5,3.1-1.1,4.7-1.7
				C96.8,106.2,98.7,105.5,100.5,104.9z M84.2,140.9c0.1,0.3,0.2,0.5,0.2,0.8c0.1,2.4,0.3,4.8,0.4,7.2c0,1.2,0,1.2-1.2,1.2
				c-1,0-2,0.2-3,0.3c-0.6,0.1-0.7,0.5-0.4,0.9c0.1,0.2,0.1,0.4,0.1,0.6c-0.5,4.9-0.7,9.9-0.7,14.9c0,0.3,0,0.5,0.2,0.8
				c1.5,2.4,3.1,4.8,4.8,7.1c0.5,0.6,1,0.9,1.8,0.9c2.2-0.1,4.4-0.1,6.6-0.1c0.6,0,1.2-0.1,1.8-0.1c0.8-0.1,1.7-0.3,2.5-0.3
				c0.6,0,1-0.3,1.2-0.8c0.5-1.1,1.1-2.2,1.6-3.3c0.6-1.2,1.2-2.3,1.8-3.5c0.2-0.5,0.3-1,0.3-1.5c0-1.1-0.1-2.3-0.2-3.4
				c-0.1-1.6-0.2-3.1-0.3-4.7c-0.1-1.9-0.3-3.9-0.4-5.8c0-0.3-0.1-0.7-0.1-1c-0.1-0.5-0.4-0.7-0.9-0.8c-1.7-0.2-3.4-0.4-5.1-0.6
				c0-0.1-0.1-0.2-0.1-0.2c0-2,0-4,0-6c0-0.7,0.1-1.4,0-2.1c-0.4-1.6-0.8-3.3-1.5-4.8c-0.2-0.3-0.3-0.7-0.7-0.7
				c-0.4,0-0.6,0.3-0.7,0.7c-0.4,1.2-0.8,2.4-1.1,3.6c0,0.1-0.2,0.2-0.2,0.4c-0.1,0.2-0.3,0.5-0.3,0.7c0.1,2.2,0.2,4.3,0.3,6.5
				c0,0.5,0.1,1.1,0.1,1.6c-0.7,0-1.4,0-2,0c-0.1-1.4-0.2-2.8-0.3-4.2c-0.1-1.1-0.2-2.1-0.2-3.2c0-0.9,0-1.8,0-2.7
				c0-0.4-0.1-0.8-0.1-1.3c-0.1-1-0.1-2.1-0.2-3.1c0-0.3-0.1-0.7-0.6-0.7c-0.8,0-1.5,0.1-2.3,0.2c-1.5,0.3-1.6,0.3-1.5,1.9
				c0,0.2,0,0.4-0.3,0.4c-0.8,0.2-1.4,0.8-1.8,1.6c-0.6,1.1,0,2.5,1.4,2.5C83.5,140.8,83.8,140.9,84.2,140.9z"/>
			<path class="st36" d="M222,155.3c0,1.2-0.1,2.2-0.6,3.3c-0.9,1.9-1.6,3.8-2.3,5.8c-2,5.6-4.1,11.2-6,16.9
				c-1.4,4-2.6,8.1-3.9,12.1c-1,3.2-2.1,6.4-3.1,9.6c0,0,0,0.1,0,0.1c-0.1,0.5-0.3,0.7-0.9,0.8c-1.8,0.2-3.6,0.5-5.5,0.7
				c-2.5,0.3-5.1,0.6-7.6,0.8c-3.6,0.3-7.2,0.6-10.9,0.9c-1.6,0.1-3.1,0.2-4.7,0.3c-1,0.1-2,0.3-3,0.4c-1.4,0.1-2.9,0.1-4.3,0.2
				c-4,0.3-8,0.6-12,0.9c-1.7,0.1-3.4,0.2-5,0.3c-3.1,0.2-6.2,0.4-9.3,0.6c-1.3,0.1-2.6,0.2-4,0.2c-0.3,0-0.6,0-0.9,0
				c0.4-1.2,0.8-2.3,1.3-3.4c0.6-1.4,0.8-2.9,1.3-4.3c1.2-3.5,2.3-7.1,3.4-10.6c0.9-2.7,1.7-5.4,2.5-8.1c1-3.2,2.2-6.4,3.2-9.5
				c1.5-4.5,3.1-9,4.3-13.6c0.3-1.1,0.7-2.2,1.1-3.3c0.1-0.3,0.2-0.3,0.5-0.3c1.7,0,3.4,0,5.2,0c0.2,0,0.4,0.1,0.6,0.1
				c0.1,0,0.2,0.1,0.4,0c0.5,0,1-0.2,1.4-0.2c8.5,0,17,0,25.5,0c3.6,0,7.1-0.3,10.7-0.4c2.5-0.1,5.1,0,7.6,0c3.7-0.1,7.3-0.2,11-0.3
				c1.2,0,2.4,0,3.6,0C221.6,155.2,221.8,155.3,222,155.3z M184.9,180.5c1.7,0,3-1.2,3-2.7c0-0.7-0.3-1.1-0.9-1.3
				c-0.7-0.2-1.4-0.2-2.1,0.2c-0.1,0.1-0.2,0.1-0.3,0.1c-0.9,0.1-1.5,0.7-1.7,1.6c-0.2,0.8,0.1,1.4,0.9,1.7
				C184.1,180.4,184.5,180.4,184.9,180.5z"/>
			<path class="st32" d="M146.8,77.8c0,0.2,0.1,0.5,0.1,0.7c0.1,2.2,0,4.4-0.7,6.5c-0.2,0.6-0.4,1.1-0.6,1.6
				c-0.1,0.2-0.2,0.4-0.4,0.5c-0.1,0.1-0.2,0.1-0.4,0.2c0-0.1-0.1-0.2-0.1-0.4c0-0.4,0-0.8,0.1-1.3c0-0.1,0-0.3-0.1-0.4
				c-0.1-0.2-0.3-0.3-0.4-0.4c-0.1,0.1-0.2,0.3-0.3,0.4c-0.4,2.2-0.7,4.3-1.2,6.5c-0.7,2.9-1.4,5.8-2.7,8.4c-0.7,1.4-1.3,2.8-2,4.2
				c-1,1.8-2.4,3.4-4,4.6c-1.2,1-2.4,2-4,2.5c-2.8,0.8-5.7,1.2-8.5,0.3c-1.8-0.6-3.3-1.6-4.7-2.8c-1.7-1.5-2.7-3.4-3.6-5.4
				c-1.2-2.8-2.2-5.7-2.8-8.7c-0.6-2.8-0.8-5.7-0.7-8.6c0-0.3-0.1-0.6-0.3-0.8c-0.3-0.2-0.6,0-0.8,0.2c-0.3,0.2-0.7,0.3-1,0.4
				c-0.3,0.1-0.5,0-0.7-0.3c-0.5-0.7-0.5-1.5-0.5-2.3c0-1.5,0.1-2.9,0.2-4.4c0-0.5,0.2-0.9,0.5-1.3c0.4-0.8,0.9-0.8,1.4-0.1
				c0.8,0.9,1.1,1.9,1.3,3.1c0.1,0.7,0.3,0.9,1,0.9c0.6,0.1,0.9-0.2,1-0.8c0.1-1.8,0.2-3.5,0.3-5.3c0.1-1.5,0-2.9,0.2-4.4
				c0.3-2.4,0.9-4.6,2.5-6.5c1.5-1.7,3.3-2.5,5.5-2.7c0.7-0.1,1.3,0,2,0c1,0.1,2,0.4,2.9,1c1.7,1,3.5,1.1,5.4,0.7
				c1.4-0.3,2.8-0.7,4.2-1.5c2.3-1.3,4.6-1,6.7,0.6c0.5,0.4,0.9,1.1,1.3,1.6c1.3,2.1,1.5,4.5,1.5,6.9c0,3.1-0.1,6.3-0.1,9.4
				c0,0.7,0.1,1,0.5,1c0.4,0,0.5-0.2,0.6-0.9c0.1-0.9,0.4-1.8,1-2.5c0.1-0.2,0.4-0.3,0.6-0.5C146.7,77.8,146.7,77.8,146.8,77.8z
				 M127.9,94.2C127.9,94.2,127.9,94.2,127.9,94.2c0.1,0,0.3,0,0.4,0c1.6-0.1,2.3-0.5,2.7-2.1c0.2-0.9,0.5-1.8,0.6-2.8
				c0.3-2.3,0.5-4.6,0.8-6.9c0.1-0.5-0.1-0.9-0.5-0.9c-0.3,0-0.5,0.3-0.6,0.8c-0.2,2.2-0.4,4.4-0.7,6.6c-0.1,1.1-0.4,2.1-0.6,3.1
				c-0.1,0.4-0.2,0.8-0.7,0.9c-0.7,0.1-1.4,0.2-2.1,0.2c-0.7,0-1-0.4-1-1.1c0-0.3,0.1-0.6,0.1-0.9c0-0.2-0.2-0.3-0.3-0.4
				c-0.1,0.1-0.3,0.2-0.4,0.3c-0.1,0.4-0.2,0.8-0.2,1.2c-0.1,0.9,0.4,1.7,1.2,1.9C127,94.2,127.5,94.2,127.9,94.2z M126.2,102.3
				C126.3,102.3,126.3,102.3,126.2,102.3c0.1,0,0.3,0,0.4,0c0.5-0.1,0.9-0.3,1.1-0.8c0.2-0.4,0.2-0.9-0.1-1.4
				c-0.5-0.7-2.2-0.8-2.8,0c-0.6,0.8-0.3,1.7,0.6,2C125.7,102.3,126,102.3,126.2,102.3z M121.8,76.4c0.1,0,0.3,0,0.4,0
				c0.2-0.1,0.4-0.2,0.6-0.3c-0.1-0.2-0.3-0.4-0.4-0.5c-1.2-0.4-2.2-0.1-3,0.7c-0.4,0.4-0.5,0.8-0.3,1c0.4,0.3,0.6,0,0.9-0.2
				C120.5,76.7,121,76.3,121.8,76.4z M137.6,76.5c-0.1,0-0.3,0-0.5,0.1c-0.2,0.1-0.3,0.3-0.4,0.5c0.2,0.1,0.3,0.4,0.5,0.4
				c0.6,0,1.1,0.3,1.6,0.7c0.1,0.1,0.3,0.1,0.5,0c0.1-0.1,0.3-0.3,0.2-0.4c0-0.2-0.1-0.4-0.3-0.6C138.8,76.7,138.3,76.5,137.6,76.5z
				 M138.1,82.1c0-0.6-0.1-0.8-0.5-0.8c-0.4,0-0.7,0.2-0.7,0.7c-0.1,0.7,0.1,1.1,0.5,1.1C137.9,83.2,138.1,82.8,138.1,82.1z
				 M120.2,80.6C120.2,80.7,120.2,80.7,120.2,80.6c0.1,0.3,0.2,0.7,0.4,0.9c0.2,0.3,0.7,0.2,0.7-0.2c0.1-0.4,0.1-0.8,0-1.2
				c0-0.2-0.4-0.4-0.5-0.4c-0.2,0-0.3,0.3-0.5,0.4C120.2,80.3,120.2,80.5,120.2,80.6z"/>
			<path class="st33" d="M147,111.3c1,0.5,1.9,1,2.9,1.5c0.6,0.3,1.2,0.6,1.8,0.9c2.5,1.3,5.1,2.7,7.6,4c1.3,0.7,2.6,1.3,3.9,1.9
				c1.9,0.9,3.7,2,5.1,3.6c1.8,1.9,3,4.1,3.6,6.6c0.5,2.2,1,4.4,1.5,6.5c0.4,1.6,0.9,3.1,1.2,4.7c0.6,2.8,1.1,5.6,1.7,8.4
				c0.3,1.5,0.8,3,1.2,4.6c0.1,0.4,0.3,0.8,0.5,1.2c-5.3,0-10.7,0-16,0c0-0.1,0-0.3,0-0.4c0.1-3.7,0.1-7.4,0.2-11.1
				c0-0.1,0-0.3,0-0.4c-0.1-0.1-0.2-0.3-0.3-0.3c-0.1,0-0.3,0.2-0.4,0.3c-0.1,0.3-0.2,0.7-0.2,1.1c-0.1,2.9-0.2,5.8-0.3,8.6
				c0,0.7,0,1.4,0,2.1c-1,0-1.9,0.1-2.9,0.1c-1,0-2,0-3,0c-0.2,0-0.4,0-0.6,0.1c-0.2,0.1-0.4,0.3-0.2,0.6c0.1,0.1,0.1,0.3,0,0.4
				c-1,2.3-1.6,4.7-2.3,7.1c-0.7,2.2-1.5,4.4-2.2,6.6c-1.2,3.3-2.3,6.7-3.5,10c0,0.1-0.1,0.2-0.1,0.3c-2.2-1.8-4.4-3.4-6.9-4.5
				c0.3-1,0.7-2,1-3.1c1.1-4.1,2.3-8.3,3.3-12.5c0.8-3.4,1.4-6.8,2.1-10.3c0.4-1.9,0.7-3.7,1.2-5.5c0.4-1.8,0.3-3.5-0.6-5.1
				c-0.8-1.5-1.4-3.1-2.2-4.8c0.6-0.5,1.2-1.1,1.9-1.7c1.2-1.1,2.4-2.2,3.5-3.4c0.3-0.3,0.4-0.7,0.5-1.1c0.3-2.7,0.2-5.3,0-8
				c-0.1-1.8-0.5-3.6-1-5.3c-0.4-1.3-0.9-2.4-1.7-3.5C147,111.6,147,111.5,147,111.3C146.9,111.4,147,111.3,147,111.3z"/>
			<path class="st32" d="M144,186.5c-0.4-0.4-0.8-0.7-1.2-1c-0.7-0.6-1.4-1.2-2-1.9c-0.4-0.4-0.8-0.9-1.1-1.5c-0.4-0.7-1-1-1.7-1.4
				c-1.2-0.7-2.4-1-3.7-1.3c-1.1-0.3-2.3-0.7-3.4-1.1c-0.2-0.1-0.5-0.1-0.5,0.2c0,0.1,0.1,0.4,0.3,0.4c1.6,0.5,3.2,1,4.8,1.6
				c0.5,0.2,1,0.4,1.4,0.6c0.1,0,0.2,0.1,0.2,0.2c1.2,0.3,1.7,1.4,2.3,2.3c0.9,1.6,1.7,3.2,2.6,4.8c0.3,0.5,0.5,0.9,0.9,1.5
				c-0.4,1.4-0.9,3.1-1.5,4.8c-0.4-0.7-0.8-1.2-1.2-1.8c-0.8-1.2-1.7-2.4-2.5-3.6c-0.1-0.1-0.2-0.2-0.2-0.4c0-0.7-0.4-1.1-0.7-1.6
				c-0.5-0.7-1-1.4-1.5-2.1c-0.5-0.8-1.1-1.5-1.9-2c-0.1-0.1-0.3-0.2-0.4-0.3c-1-1.2-2.4-1.4-3.8-1.6c-1.6-0.1-3.2-0.2-4.8-0.3
				c-0.2,0-0.4,0-0.5,0.1c-0.1,0.1-0.3,0.4-0.3,0.5c0.1,0.2,0.3,0.5,0.5,0.5c0.6,0.1,1.3,0.2,1.9,0.2c1.4,0.1,2.7,0.2,4.1,0.3
				c0.7,0.1,1.4,0.4,2,0.9c0.6,0.6,1.3,1,1.8,1.6c0.9,1.1,1.7,2.2,2.5,3.3c0.1,0.2,0.2,0.5,0.2,0.8c-0.8,0-1.4-0.2-1.9-0.5
				c-1.3-0.7-2.5-1.5-3.8-2.2c-0.6-0.3-1.4-0.5-2.1-0.5c-2.1,0.1-4.2,0.1-6.3,0.2c-0.6,0-1.1,0.2-1.5,0.7c-0.4,0.5-0.8,1-1.2,1.5
				c-1.7,2.6-3.6,5-6.3,6.8c-0.1,0.1-0.1,0.3-0.2,0.5c0.2,0.1,0.4,0.2,0.5,0.2c0.3-0.1,0.5-0.2,0.7-0.4c2.5-1.7,4.3-4,6-6.5
				c0.1-0.1,0.1-0.2,0.2-0.2c0.6-1.1,1.4-1.7,2.8-1.6c1.7,0.1,3.4-0.1,5.1-0.1c0.2,0,0.4,0,0.6,0c-0.1,0.7-0.2,1.3-0.3,1.9
				c-0.1,1.3-0.1,2.6-0.4,3.8c-0.3,1.4-0.6,2.8-1.3,4.1c-0.2,0.3-0.2,0.6,0.1,0.7c0.3,0.2,0.6,0,0.7-0.3c0.3-0.8,0.7-1.7,1-2.5
				c3.9,0.8,8,1.2,12.1,1c0,0.1,0,0.3-0.1,0.4c-0.3,1-0.6,2-0.9,3c-0.1,0.4-0.4,0.5-0.8,0.4c-0.2,0-0.4-0.1-0.5,0
				c-1.8,0.6-3.7,0.6-5.6,0.8c-2.6,0.3-5.2,0.6-7.8,1c-1.8,0.2-3.6,0.7-5.4,0.6c-2.8-0.1-5.6,0-8.3-0.3c-2.5-0.3-5-0.3-7.5-0.3
				c-0.5,0-0.9,0-1.4,0c-2,0-4,0.1-6,0.1c-1.3,0-2.5,0-3.7-0.4c-0.4-0.1-0.5-0.3-0.6-0.6c-0.4-2,0.1-3.9,0.6-5.8
				c0.8-2.8,2.2-5.3,4.1-7.6c0.2-0.2,0.3-0.4,0.5-0.5c0.6-0.5,1.2-0.7,2.1-0.5c1.2,0.3,2.5,0.4,3.7,0.6c0.9,0.1,1.8,0,2.8-0.2
				c1.3-0.3,2.6-0.4,3.8-0.9c2.7-1,5.3-2.1,7.9-3.2c0.9-0.4,1.7-0.9,2.6-1.4c1.1-0.6,2-1.4,3-2.2c0.7-0.6,1.5-0.7,2.3-0.8
				c2.1,0,4-0.6,6-1c2.3-0.5,4.6-0.7,6.9,0c0.4,0.1,0.9,0.3,1.3,0.6c1.8,1.1,3.6,2.3,5.2,3.7c0.1,0.1,0.2,0.3,0.1,0.4
				C145.1,183.3,144.6,184.9,144,186.5z"/>
			<path class="st6" d="M145,77.7c0-0.8,0-1.6,0-2.4c0-2,0-3.9-0.1-5.9c-0.1-2-0.5-3.9-1.4-5.7c-0.9-1.6-2.3-2.6-4-3.1
				c-2-0.6-3.9-0.3-5.7,0.7c-1.9,1-3.9,1.4-6,1.4c-0.9,0-1.8-0.4-2.6-0.9c-2.1-1.2-4.4-1.2-6.6-0.7c-4.3,1-6.6,4.8-7.2,8
				c-0.6,3.3-0.3,6.6-0.5,9.8c0,0.5,0,1-0.1,1.5c0,0.1-0.1,0.2-0.2,0.3c-0.1-0.1-0.1-0.2-0.2-0.3c-0.1-0.6-0.1-1.3-0.4-1.9
				c-0.3-0.7-0.7-1.4-1.2-2c-0.7-0.8-1.9-0.7-2.6,0.2c-0.5,0.7-0.8,1.6-0.9,2.5c-0.1,1.8-0.3,3.6,0.1,5.4c0.1,0.7,0.5,1.3,0.8,1.9
				c0.4,0.6,1,0.5,1.6,0.4c0.6-0.1,0.8,0,0.8,0.6c0,1.9,0,3.7,0,5.6c0,0.2-0.2,0.6-0.3,0.6c-0.2,0.1-0.6,0-0.8-0.2
				c-0.7-0.7-1.5-1.4-2-2.3c-1-1.9-1.7-4-2.2-6.1c-0.4-1.7-0.8-3.4-1-5.2c-0.3-3.5-0.1-6.9,0.7-10.3c0.4-1.8,0.9-3.6,1.8-5.3
				c0.9-1.9,1.6-3.9,2.6-5.7c1.3-2.3,3-4,5.2-5.5c3.5-2.3,7.2-3.8,11.3-4.4c3.5-0.5,6.9-0.2,10.2,1.3c1.7,0.8,3.4,1.7,4.7,3
				c0.7,0.7,1.5,1.4,2.2,2c1.1,1,1.9,2.2,2.5,3.4c1,2,2,4.1,2.2,6.4c0.2,2,0.4,4,0.4,6c0,1.8-0.2,3.7-0.5,5.5c0,0.4-0.4,0.7-0.6,1
				C145.1,77.7,145.1,77.7,145,77.7z"/>
			<path class="st37" d="M127.3,176.8c0-0.9,0-1.7,0-2.5c-0.1-4.8-0.3-9.6-0.4-14.4c0-1.2,0-2.5,0-3.7c-0.1-4.4-0.2-8.9-0.4-13.3
				c-0.1-2.1-0.1-4.1-0.1-6.2c0-0.2,0.2-0.4,0.2-0.6c0.1-0.3,0.3-0.5,0.3-0.8c0.5-2.4,0.9-4.8,1.4-7.2c0.2-0.9,0.6-1.9,0.9-2.9
				c0.2,0.2,0.3,0.3,0.4,0.4c1.5,1.6,3.1,3,4.3,4.8c0.1,0.2,0.3,0.4,0.5,0.5c0.4,0.3,0.7,0.3,0.9-0.2c1.2-2.4,2.4-4.8,3.6-7.1
				c0.1-0.2,0.2-0.3,0.3-0.5c0,0.4,0,0.8,0,1.2c-0.2,2.9-0.7,5.8-1.2,8.6c-0.5,3.2-1,6.4-1.5,9.6c-0.5,3.4-1.1,6.7-1.6,10.1
				c-0.5,3.7-0.9,7.4-1.4,11.1c-0.2,1.9-0.5,3.7-0.8,5.6c-0.3,1.8-0.5,3.6-0.8,5.5c-0.1,0.4-0.3,0.7-0.4,1.1c0,0.1-0.1,0.1-0.2,0.1
				c-1.3,0.3-2.6,0.5-3.9,0.8C127.5,176.8,127.4,176.8,127.3,176.8z"/>
			<path class="st33" d="M109,119.6c0.2,1.2,0.4,2.2,0.6,3.3c1.1,4.4,2.3,8.8,3.4,13.3c1.1,4.9,2.8,9.6,4.1,14.4
				c1.4,5,2.8,10.1,4.2,15.1c0.9,3.5,1.9,6.9,2.8,10.4c0.1,0.3,0.1,0.7,0.2,1c-0.9,0.7-1.7,1.3-2.6,2c-0.1-0.2-0.2-0.4-0.3-0.6
				c-2.1-5.2-4.2-10.5-6.3-15.7c-1.2-2.9-2.2-5.8-3.5-8.6c-1.7-3.7-3.5-7.4-5.6-10.9c-1-1.7-1.7-3.5-2.6-5.3
				c-0.6-1.3-1.3-2.5-1.9-3.8c-0.4-0.8-0.4-1.5,0-2.4c2.1-4.1,4.6-8,7.2-11.8C108.8,119.8,108.9,119.8,109,119.6z"/>
			<path class="st37" d="M125.2,177c-0.8-3.1-1.5-6.1-2.3-9.2c-1.2-4.6-2.5-9.2-3.8-13.8c-1.2-4.1-2.5-8.2-3.6-12.3
				c-1.2-4.5-2.3-9-3.5-13.4c0-0.1,0-0.1-0.1-0.4c0.2,0.2,0.3,0.3,0.4,0.4c0.8,0.9,1.5,1.8,2.3,2.7c0.3,0.3,0.6,0.6,1,0.9
				c0.5,0.3,0.8,0.3,1.2-0.2c0.9-1,1.7-2,2.6-3.1c1.1-1.4,2.3-2.7,3.4-4.1c0.1-0.1,0.1-0.1,0.2-0.2c0.3,1.1,0.6,2.1,0.8,3.1
				c0.6,2.6,1.1,5.2,1.7,7.8c0.2,0.8,0.1,1.5,0.1,2.3c0,4.8,0.1,9.6,0.2,14.4c0,1.5,0,3,0.1,4.4c0.1,4.6,0.3,9.2,0.4,13.8
				c0.1,2.1,0,4.3,0.1,6.4c0,0.3-0.1,0.4-0.4,0.4C125.7,176.9,125.4,177,125.2,177z M122.9,146.4c0.2,0,0.5,0,0.6-0.1
				c0.7-0.4,0.9-1.1,0.9-1.8c0-0.7-0.3-1.2-0.9-1.4c-0.1,0-0.2-0.1-0.3-0.2c-0.5-0.4-0.7-0.4-1.1,0c-0.5,0.6-0.6,1.3-0.7,2
				C121.4,145.9,121.9,146.4,122.9,146.4z M125.4,158.8c-0.1-1.1-0.4-1.4-1.4-1.4c-0.1,0-0.2,0-0.3-0.1c-0.3-0.4-0.5-0.1-0.6,0.1
				c-0.3,0.7-0.5,1.4-0.4,2.2c0.1,0.3,0.3,0.7,0.6,1c0.7,0.5,1.4,0.3,1.7-0.5C125.2,159.6,125.3,159.2,125.4,158.8z"/>
			<path class="st33" d="M138.3,175.7c-1.8,0-3.6,0-5.5,0c0.1-0.3,0.2-0.7,0.2-1c0.3-2,0.6-4,0.9-6c0.4-2.4,0.7-4.8,1-7.2
				c0.5-3.4,0.9-6.9,1.4-10.3c0.4-3,0.9-5.9,1.4-8.9c0.7-4.1,1.3-8.3,2-12.4c0-0.2,0.1-0.3,0.1-0.6c0.4,0.8,0.8,1.5,1.1,2.2
				c1,2,2.1,4.1,3.1,6.1c0.6,1.2,1.1,2.4,1.6,3.6c0.2,0.6,0.2,1.3,0.1,1.9c-0.4,2.3-0.9,4.5-1.4,6.8c-0.7,3.4-1.2,6.8-2,10.1
				c-0.8,3.6-1.8,7.1-2.8,10.6c-0.4,1.5-0.8,3-1.2,4.5C138.3,175.4,138.3,175.5,138.3,175.7z"/>
			<path class="st32" d="M136,108.8c-0.1,3.4-0.3,6.8-1.7,9.9c-0.7,1.7-1.7,3.1-3.1,4.3c-0.5,0.4-0.9,0.8-1.4,1.2
				c-0.1-0.1-0.2-0.2-0.3-0.3c-0.4-0.4-0.8-0.4-1,0.1c-0.5,1.2-0.9,2.5-1.3,3.8c-0.4,1.5-0.6,3-1,4.4c0,0.2-0.1,0.3-0.1,0.6
				c-0.2-1-0.4-1.9-0.6-2.8c-0.6-2.1-1.2-4.1-1.7-6.1c-0.1-0.2,0-0.5,0-0.7c0.2-0.5,0-0.8-0.3-1c-0.6-0.5-1.2-0.9-1.8-1.3
				c-0.8-0.6-1.6-1.3-2.4-1.9c-0.6-0.5-1.1-0.9-1.7-1.4c-0.8-0.7-1.6-1.4-2.4-2.1c-0.3-0.3-0.6-0.6-0.9-0.9c-1.7-1.5-2.9-3.4-4-5.4
				c-0.6-1-0.9-2.1-1.2-3.2c-0.2-0.7,0.1-1.5,0.1-2.2c0.1-1.2,0.1-2.5,0.2-3.7c0-1.3,0-2.7-0.1-4c0-0.2,0-0.3,0.1-0.5
				c0.1,0.6,0.2,1.2,0.4,1.7c0.8,2.8,1.7,5.5,3,8.1c0.6,1.1,1.3,2.1,2,3.1c0.8,1.1,1.9,1.9,3,2.6c1.2,0.8,2.4,1.5,3.9,1.9
				c1.9,0.5,3.8,0.5,5.8,0.2c1.7-0.2,3.4-0.6,4.9-1.5c1-0.7,2-1.5,2.9-2.2C135.5,109.2,135.8,109,136,108.8z"/>
			<path class="st33" d="M108.3,102c-0.7,2.5-0.8,5-0.7,7.4c0.1,2.7,0.3,5.4,1,8.1c0.1,0.6-0.1,1.1-0.4,1.5
				c-2.1,2.6-3.7,5.6-5.6,8.4c-0.1,0.1-0.1,0.2-0.2,0.3c-0.3-0.2-0.7-0.3-1-0.5c-2-1.3-4.2-2.4-6-4.1c-0.5-0.5-0.7-1-0.5-1.7
				c0.7-3.4,1.9-6.7,3.4-9.8c0.9-1.8,1.7-3.6,2.6-5.3c0.6-1.3,1.4-2.4,2.7-3.2c0.2-0.1,0.3-0.4,0.5-0.5
				C105.4,101.7,106.9,101.8,108.3,102z"/>
			<path class="st33" d="M143.2,133.7c-0.1-0.2-0.2-0.4-0.3-0.6c-0.9-1.7-1.9-3.5-2.8-5.2c-0.1-0.1-0.1-0.3-0.1-0.4
				c0.1-1.5,0.2-3.1,0.4-4.6c0.1-0.7,0.2-1.4,0.1-2.2c-0.1-1.3-0.1-2.6-0.2-3.9c-0.2-1.9-0.4-3.7-0.6-5.6c-0.1-0.6-0.1-1.1-0.3-1.7
				c-0.2-1.1-0.4-1.5-1.6-2.7c0.4-0.7,0.4-0.7,1-0.4c0.9,0.5,1.8,0.9,2.8,1.4c1.8,0.9,3.1,2.5,4.4,4c1.5,1.7,2,3.9,2.4,6.1
				c0.6,3.3,0.5,6.7,0.3,10.1c0,0.3-0.2,0.6-0.3,0.8c-0.4,0.4-0.8,0.8-1.2,1.2c-0.5,0.5-1,0.9-1.5,1.4
				C144.9,132.2,144.1,132.9,143.2,133.7z"/>
			<path class="st37" d="M108.7,107.1C108.7,107.1,108.7,107.1,108.7,107.1c0.9,3.4,2.9,6,5.2,8.5c1.1,1.2,2.4,2.2,3.6,3.3
				c1.6,1.4,3.3,2.7,5,4c0,0,0.1,0.1,0.1,0.1c-2.2,2.7-4.4,5.3-6.7,8.1c-0.2-0.3-0.4-0.5-0.6-0.7c-1.2-1.3-2.4-2.6-3.6-3.9
				c-0.2-0.2-0.4-0.5-0.4-0.8c-1.1-3.9-1.7-7.9-2.3-11.9c-0.3-2.2-0.4-4.4-0.5-6.6C108.6,107.1,108.6,107.1,108.7,107.1z"/>
			<path class="st36" d="M106,202.2c1.2,0,2.6-0.2,3.9,0c2.1,0.4,4.1,0.4,6.2,0.4c1.6,0,3.1,0.2,4.7,0.2c0.9,0,1.8-0.1,2.8-0.3
				c0.9-0.1,1.8-0.2,2.7,0.2c0.6,0.3,1.4,0.3,2.2,0.5c2.4,0.5,4.8,0.9,7.1,1.4c0.8,0.1,1.5,0.3,2.3,0.5c0.2,0,0.4,0.1,0.7,0.2
				c-0.5,1.3-0.9,2.5-1.4,3.7c-0.5-0.1-0.9-0.3-1.4-0.4c-2.9-0.6-5.9-1.1-8.8-1.7c-3.4-0.7-6.8-1.5-10.2-2.3
				c-0.2-0.1-0.5-0.1-0.7-0.2c-3.1-1.1-6.4-1.7-9.6-2.3C106.1,202.2,106,202.2,106,202.2z"/>
			<path class="st37" d="M137.2,107.8c0.2,0.4,0.5,0.8,0.7,1.3c0.8,2,1.1,4,1.1,6.1c0,1.4,0.2,2.9,0.3,4.3c0.1,0.8-0.1,1.4-0.4,2.1
				c-1,2.1-2,4.3-2.9,6.5c-0.3,0.6-0.6,1.2-0.9,1.8c-1.5-1.7-3-3.3-4.5-5c0.7-0.6,1.4-1.1,2.1-1.7c1.8-1.7,2.8-3.8,3.5-6.2
				c0.7-2.3,0.9-4.6,0.9-6.9c0-0.6-0.1-1.1-0.1-1.7c0-0.2,0-0.4,0.1-0.6C137,107.8,137.1,107.8,137.2,107.8z"/>
			<path class="st33" d="M130.2,187.1c0.2,0.1,0.4,0.1,0.5,0.2c1.2,0.7,2.4,1.5,3.7,2.2c0.9,0.5,1.9,0.9,3.1,0.5
				c1.1,1.6,2.1,3.1,3.3,4.8c-1.1,0-1.9,0-2.8,0c-2-0.1-4-0.3-6-0.5c-0.7-0.1-1.5-0.3-2.2-0.4c-0.3-0.1-0.4-0.2-0.4-0.5
				c0.2-1.6,0.3-3.3,0.5-4.9C129.8,188.1,130,187.6,130.2,187.1z"/>
			<path class="st38" d="M139.9,200c-0.4,1.4-0.9,2.8-1.3,4.2c-4.1-0.7-8.1-1.4-12.1-2.1c0,0,0,0,0-0.1c1.2-0.2,2.4-0.4,3.6-0.5
				c2.2-0.2,4.4-0.4,6.5-0.6c0.8-0.1,1.5-0.4,2.3-0.6c0.3-0.1,0.5-0.3,0.8-0.4C139.9,200,139.9,200,139.9,200z"/>
			<path class="st6" d="M93.1,202c2.1,0.1,4.1,0.3,6.1,0.4c-0.9,1.3-2.4,1.9-3.8,1.6C94.4,203.8,93.4,202.9,93.1,202z"/>
			<path class="st33" d="M141.5,185.3c0.7,0.6,1.4,1.2,2.1,1.9c0.1,0.1,0,0.5,0,0.7c0,0.2-0.1,0.4-0.2,0.6
				C142.8,187.4,142.1,186.3,141.5,185.3z"/>
			<path class="st34" d="M196.9,139.9c-0.2-0.9-0.4-1.9-0.5-2.8c-0.2-2.2-0.3-4.4-0.5-6.6c-0.1-1.5-0.3-2.9-0.4-4.4
				c0-0.4,0-0.8-0.1-1.2c0-0.7-0.2-1-0.8-1.1c-0.9-0.2-1.8-0.4-2.8-0.6c-2.7-0.6-5.4-1.3-8-1.9c-2-0.5-3.9-1.5-5.7-2.6
				c-1.5-0.9-3-1.8-4.2-3.1c-1.3-1.4-2.5-3-3.4-4.7c-0.6-1.2-0.9-2.5-1-3.9c-0.3-2.5-0.4-5-0.3-7.5c0.2-5.5,0.8-11,2.2-16.4
				c0.7-2.6,1.3-5.1,2.2-7.6c1-3.1,2.6-5.9,4.6-8.4c3-3.6,6.9-5.8,11.5-6.6c1.7-0.3,3.4-0.5,5.1-0.5c2.3,0,4.5,0.1,6.8,0.1
				c0.7,0,1.3-0.1,2-0.1c0.9,0.1,1.7,0.2,2.6,0.3c3.1,0.3,6.1,1.3,9,2.4c1.8,0.7,3.6,1.3,5.3,2c1.8,0.7,3.3,1.8,4.7,3.1
				c0.9,0.8,1.8,1.7,2.6,2.6c0.2,0.2,0.4,0.3,0.5,0.5c1,1.8,2.3,3.5,2.6,5.6c0.2,1.5,0.6,3,0.7,4.6c0.1,2.5,0.1,4.9,0.1,7.4
				c-0.1,1.5-0.4,2.9-0.6,4.4c-0.3,1.9-0.4,3.9-0.8,5.8c-1,4.8-2.3,9.5-4.2,14c-0.9,2.2-2.2,4.2-3.9,5.9c-1.8,1.8-4.1,3.1-6.5,3.9
				c-2.2,0.7-4.4,1.2-6.7,1.6c-1.6,0.3-3.2,0.2-4.8,0.3c-0.3,0-0.7-0.1-1-0.2c-0.6-0.1-1,0.1-1.1,0.7c-0.3,2.3-1.1,4.4-1.9,6.6
				c-0.9,2.6-1.8,5.2-2.8,7.7c-0.1,0.3-0.2,0.6-0.3,0.8C197,139.9,197,139.9,196.9,139.9z M199.4,100.5
				C199.4,100.5,199.4,100.5,199.4,100.5c1.4,0,2.9-0.1,4.3-0.2c0.8-0.1,1-0.3,1.1-1c0.1-0.7,0.3-1.5,0.4-2.2c0.3-2.2,0.6-4.5,1-6.7
				c1.1-5.1,2.4-10.1,2.7-15.3c0.1-1.2,0.3-2.4,0.3-3.6c0.1-0.7-0.3-1-0.9-1.1c-2.4-0.2-4.7-0.1-7,0.6c-0.6,0.2-1.2,0.4-1.3,1.2
				c-0.1,0.9-0.3,1.7-0.4,2.6c-0.3,2.5-0.6,4.9-0.8,7.4c-0.2,1.4-0.2,2.8-0.4,4.2c-0.4,3-1,5.9-1.1,8.9c-0.1,1.4-0.2,2.8-0.3,4.2
				c-0.1,0.8,0.2,1.1,0.9,1.1C198.5,100.5,198.9,100.5,199.4,100.5z M198.8,106.8c0,0,0-0.1,0-0.1c-0.6,0.2-1.2,0.3-1.7,0.5
				c-1.1,0.5-1.8,1.5-2.1,2.7c-0.4,1.2-0.4,2.3,0.4,3.3c0.7,1,1.7,1.4,2.9,1.5c2,0.2,3.6-0.5,4.7-2.2c0.8-1.2,0.7-2.7-0.2-3.8
				C201.8,107.3,200.4,106.7,198.8,106.8z"/>
			<path class="st6" d="M84.2,140.9c-0.3,0-0.6,0-0.9,0c-1.4,0-2-1.4-1.4-2.5c0.4-0.7,1-1.3,1.8-1.6c0.3-0.1,0.3-0.2,0.3-0.4
				c-0.1-1.5,0-1.6,1.5-1.9c0.7-0.1,1.5-0.1,2.3-0.2c0.4,0,0.6,0.3,0.6,0.7c0.1,1,0.1,2.1,0.2,3.1c0,0.4,0.1,0.8,0.1,1.3
				c0,0.9-0.1,1.8,0,2.7c0,1.1,0.1,2.1,0.2,3.2c0.1,1.4,0.2,2.8,0.3,4.2c0.6,0,1.3,0,2,0c0-0.5-0.1-1.1-0.1-1.6
				c-0.1-2.2-0.2-4.3-0.3-6.5c0-0.2,0.2-0.5,0.3-0.7c0.1-0.1,0.2-0.2,0.2-0.4c0.4-1.2,0.8-2.4,1.1-3.6c0.1-0.4,0.3-0.7,0.7-0.7
				c0.4,0,0.6,0.4,0.7,0.7c0.7,1.5,1.1,3.2,1.5,4.8c0.1,0.7,0,1.4,0,2.1c0,2,0,4,0,6c0,0.1,0,0.2,0.1,0.2c1.7,0.2,3.4,0.4,5.1,0.6
				c0.6,0.1,0.8,0.2,0.9,0.8c0.1,0.3,0.1,0.7,0.1,1c0.1,1.9,0.3,3.9,0.4,5.8c0.1,1.6,0.2,3.1,0.3,4.7c0.1,1.1,0.2,2.3,0.2,3.4
				c0,0.5-0.1,1-0.3,1.5c-0.5,1.2-1.2,2.3-1.8,3.5c-0.6,1.1-1.1,2.2-1.6,3.3c-0.3,0.5-0.6,0.8-1.2,0.8c-0.8,0-1.7,0.2-2.5,0.3
				c-0.6,0.1-1.2,0.1-1.8,0.1c-2.2,0.1-4.4,0.1-6.6,0.1c-0.8,0-1.3-0.3-1.8-0.9c-1.7-2.3-3.3-4.7-4.8-7.1c-0.1-0.2-0.2-0.5-0.2-0.8
				c-0.1-5,0.2-9.9,0.7-14.9c0-0.2,0-0.4-0.1-0.6c-0.3-0.5-0.1-0.9,0.4-0.9c1-0.1,2-0.2,3-0.3c1.2-0.1,1.3,0,1.2-1.2
				c-0.1-2.4-0.2-4.8-0.4-7.2C84.4,141.4,84.2,141.2,84.2,140.9z M80.4,161.6c0,1.7,0,3.3,0,4.9c0,0.2,0,0.3,0.1,0.5
				c0.3,0.5,0.7,1,1,1.5c1.3,1.9,2.6,3.8,3.9,5.7c0.2,0.3,0.4,0.4,0.7,0.4c0.9-0.1,1.7-0.1,2.6-0.1c2.8,0,5.6,0,8.4-0.6
				c0.2,0,0.4-0.1,0.4-0.3c1-1.9,2-3.9,3.1-5.8c0.5-0.9,0.6-1.9,0.6-2.9c-0.2-2.6-0.3-5.2-0.5-7.8c-0.1-1.8-0.2-3.5-0.4-5.3
				c0-0.2-0.1-0.4-0.3-0.4c-2.8-0.2-5.6-0.5-8.4-0.7c-2.1-0.1-4.2-0.2-6.2,0.4c-0.6,0.2-1.3,0.2-2,0.3c-0.7,0.1-1.4,0.2-2.2,0.2
				c-0.3,0-0.4,0.1-0.4,0.4C80.7,155.1,80.6,158.4,80.4,161.6z M91.6,141.7c0,0,0,0.1,0,0.1c0.1,2.4,0.1,4.9,0.2,7.3
				c0,0.1,0.1,0.3,0.2,0.3c0.7,0.1,1.4,0.1,2.2,0.1c0-2.5,0-5,0-7.5c0-0.3-0.2-0.3-0.5-0.3C93.1,141.7,92.4,141.7,91.6,141.7z
				 M87.9,149.3c-0.1-2.6-0.3-5.1-0.4-7.7c-0.8,0-1.6,0-2.3,0c0.2,2.7,0.3,5.4,0.5,8.1C86.4,149.6,87.2,149.5,87.9,149.3z
				 M87.3,135.4c-0.4,0-0.9-0.1-1.3,0c-1.2,0.2-1,0-1,1.2c0,0.1,0,0.1,0,0.2c0,1.1,0,2.1,0,3.2c0,0.6,0.2,0.8,0.8,0.8
				c0.5,0,1-0.1,1.5-0.2c0.3,0,0.4-0.2,0.4-0.5C87.6,138.5,87.5,137,87.3,135.4z M84,139.8c0-0.7,0-1.4,0-2.2
				c-0.7,0.3-1.1,0.8-1.3,1.3c-0.2,0.5,0,0.8,0.5,0.8C83.5,139.8,83.8,139.8,84,139.8z M92.2,139.5c-0.1,0.4-0.2,0.7-0.4,1.1
				c0.7,0,1.4,0,2.1,0c-0.1-0.4-0.2-0.8-0.3-1.1c-0.3,0-0.5,0.1-0.7,0.1C92.7,139.5,92.5,139.5,92.2,139.5z"/>
			<path class="st6" d="M184.9,180.5c-0.4-0.1-0.8-0.1-1.2-0.3c-0.8-0.3-1-0.9-0.9-1.7c0.2-0.9,0.8-1.5,1.7-1.6
				c0.1,0,0.2-0.1,0.3-0.1c0.7-0.5,1.4-0.4,2.1-0.2c0.6,0.2,0.9,0.6,0.9,1.3C187.9,179.3,186.6,180.5,184.9,180.5z M184.2,177.8
				c-0.1,0.1-0.2,0.2-0.3,0.3c-0.5,0.7-0.2,1.3,0.6,1.4c0.3,0,0.6,0,0.8,0c0.9-0.1,1.6-0.9,1.6-1.6c0-0.2-0.2-0.4-0.3-0.4
				c-0.5-0.1-1-0.1-1.4,0.3C184.8,178.3,184.6,178.3,184.2,177.8z"/>
			<path class="st6" d="M127.9,94.2c-0.4,0-0.9,0-1.3-0.2c-0.9-0.2-1.4-1-1.2-1.9c0-0.4,0.1-0.8,0.2-1.2c0-0.1,0.2-0.2,0.4-0.3
				c0.1,0.1,0.3,0.3,0.3,0.4c0,0.3,0,0.6-0.1,0.9c0,0.7,0.3,1.1,1,1.1c0.7,0,1.4-0.1,2.1-0.2c0.5-0.1,0.6-0.5,0.7-0.9
				c0.2-1,0.5-2.1,0.6-3.1c0.3-2.2,0.5-4.4,0.7-6.6c0.1-0.5,0.3-0.8,0.6-0.8c0.4,0,0.5,0.4,0.5,0.9c-0.3,2.3-0.5,4.6-0.8,6.9
				c-0.1,0.9-0.3,1.9-0.6,2.8c-0.4,1.6-1.1,2-2.7,2.1C128.2,94.2,128,94.2,127.9,94.2C127.9,94.2,127.9,94.2,127.9,94.2z"/>
			<path class="st6" d="M126.2,102.3c-0.3-0.1-0.6-0.1-0.8-0.2c-0.9-0.3-1.2-1.3-0.6-2c0.6-0.7,2.2-0.7,2.8,0
				c0.3,0.4,0.3,0.9,0.1,1.4c-0.2,0.4-0.6,0.7-1.1,0.8C126.5,102.3,126.4,102.3,126.2,102.3C126.3,102.3,126.3,102.3,126.2,102.3z
				 M126.1,100.4c-0.7,0-0.9,0.1-0.9,0.5c0,0.5,0.3,0.6,0.7,0.7c0.2,0,0.4,0,0.6,0c0.3-0.1,0.5-0.3,0.5-0.6c0-0.3-0.2-0.5-0.5-0.5
				C126.4,100.5,126.2,100.4,126.1,100.4z"/>
			<path class="st6" d="M121.8,76.4c-0.8-0.1-1.3,0.3-1.9,0.8c-0.3,0.2-0.5,0.5-0.9,0.2c-0.2-0.2-0.1-0.6,0.3-1
				c0.9-0.8,1.9-1.2,3-0.7c0.2,0.1,0.3,0.3,0.4,0.5c-0.2,0.1-0.4,0.2-0.6,0.3C122.1,76.4,121.9,76.4,121.8,76.4z"/>
			<path class="st6" d="M137.6,76.5c0.6,0,1.2,0.2,1.6,0.6c0.1,0.1,0.2,0.4,0.3,0.6c0,0.1-0.1,0.3-0.2,0.4c-0.1,0.1-0.4,0-0.5,0
				c-0.5-0.4-1-0.6-1.6-0.7c-0.2,0-0.3-0.2-0.5-0.4c0.1-0.2,0.3-0.4,0.4-0.5C137.3,76.4,137.5,76.5,137.6,76.5z"/>
			<path class="st6" d="M138.1,82.1c0,0.7-0.2,1.1-0.7,1c-0.5-0.1-0.7-0.4-0.5-1.1c0.1-0.5,0.4-0.8,0.7-0.7
				C138,81.3,138.1,81.5,138.1,82.1z"/>
			<path class="st6" d="M120.2,80.6c0-0.1,0-0.3,0.1-0.4c0.1-0.2,0.3-0.4,0.5-0.4c0.2,0,0.5,0.2,0.5,0.4c0.1,0.4,0.1,0.8,0,1.2
				c0,0.3-0.5,0.5-0.7,0.2C120.4,81.3,120.3,81,120.2,80.6C120.2,80.7,120.2,80.7,120.2,80.6z"/>
			<path class="st6" d="M122.9,146.4c-1.1,0-1.5-0.5-1.5-1.5c0-0.7,0.2-1.4,0.7-2c0.4-0.5,0.7-0.5,1.1,0c0.1,0.1,0.2,0.1,0.3,0.2
				c0.6,0.3,0.9,0.8,0.9,1.4c0,0.8-0.2,1.4-0.9,1.8C123.4,146.4,123.2,146.4,122.9,146.4z M122.3,144.9c0,0.5,0.2,0.7,0.7,0.7
				c0.4,0,0.7-0.4,0.7-1c0-0.5-0.2-0.8-0.5-0.8C122.8,143.8,122.3,144.4,122.3,144.9z"/>
			<path class="st6" d="M125.4,158.8c-0.1,0.4-0.2,0.9-0.4,1.3c-0.3,0.8-1,1-1.7,0.5c-0.3-0.2-0.5-0.6-0.6-1c-0.1-0.8,0-1.5,0.4-2.2
				c0.1-0.2,0.3-0.6,0.6-0.1c0,0.1,0.2,0.1,0.3,0.1C125,157.3,125.3,157.7,125.4,158.8z M124.6,158.9c0-0.2,0-0.4-0.1-0.6
				c-0.1-0.1-0.3-0.2-0.4-0.2c-0.4,0.1-0.9,1.1-0.7,1.4c0.1,0.2,0.4,0.4,0.7,0.5c0.1,0,0.3-0.3,0.4-0.5
				C124.6,159.4,124.6,159.1,124.6,158.9z"/>
			<path class="st6" d="M199.4,100.5c-0.5,0-1,0-1.5,0c-0.8,0-1-0.3-0.9-1.1c0.1-1.4,0.3-2.8,0.3-4.2c0.1-3,0.7-5.9,1.1-8.9
				c0.2-1.4,0.3-2.8,0.4-4.2c0.3-2.5,0.5-4.9,0.8-7.4c0.1-0.9,0.3-1.7,0.4-2.6c0.1-0.8,0.7-1,1.3-1.2c2.3-0.6,4.6-0.8,7-0.6
				c0.6,0.1,1,0.4,0.9,1.1c-0.1,1.2-0.3,2.4-0.3,3.6c-0.3,5.2-1.7,10.2-2.7,15.3c-0.5,2.2-0.7,4.4-1,6.7c-0.1,0.7-0.3,1.5-0.4,2.2
				c-0.1,0.7-0.3,0.9-1.1,1C202.3,100.4,200.9,100.5,199.4,100.5C199.4,100.5,199.4,100.5,199.4,100.5z M208.3,71.5
				c-0.2,0-0.4,0-0.5,0c-1.8-0.1-3.7,0-5.5,0.4c-0.9,0.2-1,0.2-1.1,1.1c-0.4,2.4-0.8,4.8-1.1,7.2c-0.2,1.3-0.2,2.7-0.3,4
				c-0.3,2.2-0.6,4.4-0.9,6.6c-0.3,2.4-0.4,4.8-0.6,7.2c0,0.4-0.1,0.9-0.1,1.4c0.2,0,0.4,0,0.6,0c1.3,0,2.7-0.1,4-0.1
				c1.1,0,1.1,0,1.3-1c0-0.1,0-0.2,0.1-0.3c0.3-2.1,0.5-4.2,0.9-6.3c0.4-2.4,1-4.8,1.5-7.2c0.9-4,1.3-8,1.7-12
				C208.2,72.2,208.2,71.9,208.3,71.5z"/>
			<path class="st6" d="M198.8,106.8c1.6,0,3,0.6,4,1.9c0.9,1.1,1,2.6,0.2,3.8c-1.1,1.7-2.7,2.4-4.7,2.2c-1.2-0.1-2.2-0.5-2.9-1.5
				c-0.8-1-0.8-2.2-0.4-3.3c0.4-1.2,1-2.2,2.1-2.7c0.5-0.2,1.1-0.3,1.7-0.5C198.8,106.7,198.8,106.7,198.8,106.8z M198.7,113.6
				c1.4,0,2.5-0.6,3.3-1.7c0.4-0.7,0.5-1.4,0.2-2.1c-0.5-1-1.3-1.6-2.4-1.8c-2-0.4-3.2,0.3-3.8,2.1c-0.1,0.2-0.1,0.4-0.2,0.6
				c-0.2,1.5,0.5,2.5,1.9,2.8C198.1,113.6,198.4,113.6,198.7,113.6z"/>
			<path class="st33" d="M80.4,161.6c0.2-3.2,0.3-6.5,0.5-9.8c0-0.3,0.1-0.4,0.4-0.4c0.7-0.1,1.4-0.1,2.2-0.2c0.7-0.1,1.4-0.1,2-0.3
				c2.1-0.6,4.1-0.5,6.2-0.4c2.8,0.2,5.6,0.5,8.4,0.7c0.3,0,0.3,0.2,0.3,0.4c0.1,1.8,0.3,3.5,0.4,5.3c0.2,2.6,0.3,5.2,0.5,7.8
				c0.1,1-0.1,2-0.6,2.9c-1.1,1.9-2,3.9-3.1,5.8c-0.1,0.1-0.3,0.2-0.4,0.3c-2.8,0.6-5.6,0.5-8.4,0.6c-0.9,0-1.7,0.1-2.6,0.1
				c-0.3,0-0.6-0.1-0.7-0.4c-1.3-1.9-2.6-3.8-3.9-5.7c-0.3-0.5-0.7-1-1-1.5c-0.1-0.1-0.1-0.3-0.1-0.5
				C80.4,164.8,80.4,163.2,80.4,161.6z"/>
			<path class="st32" d="M91.6,141.7c0.7,0,1.5,0,2.2,0c0.2,0,0.5,0,0.5,0.3c0,2.5,0,5,0,7.5c-0.8,0-1.5-0.1-2.2-0.1
				c-0.1,0-0.2-0.2-0.2-0.3c-0.1-2.4-0.1-4.9-0.2-7.3C91.6,141.8,91.6,141.8,91.6,141.7z"/>
			<path class="st37" d="M87.9,149.3c-0.8,0.1-1.5,0.3-2.2,0.4c-0.2-2.7-0.3-5.4-0.5-8.1c0.7,0,1.5,0,2.3,0
				C87.7,144.2,87.8,146.7,87.9,149.3z"/>
			<path class="st37" d="M87.3,135.4c0.2,1.6,0.3,3.1,0.5,4.7c0,0.3-0.1,0.5-0.4,0.5c-0.5,0.1-1,0.1-1.5,0.2c-0.6,0-0.8-0.1-0.8-0.8
				c0-1.1,0-2.1,0-3.2c0-0.1,0-0.1,0-0.2c0-1.1-0.2-1,1-1.2C86.4,135.3,86.9,135.4,87.3,135.4z"/>
			<path class="st33" d="M84,139.8c-0.3,0-0.5,0-0.8,0c-0.5,0-0.7-0.3-0.5-0.8c0.2-0.6,0.7-1,1.3-1.3C84,138.4,84,139.1,84,139.8z"
				/>
			<path class="st37" d="M92.2,139.5c0.3,0,0.5,0.1,0.7,0.1c0.2,0,0.4,0,0.7-0.1c0.1,0.4,0.2,0.7,0.3,1.1c-0.7,0-1.4,0-2.1,0
				C91.9,140.2,92.1,139.8,92.2,139.5z"/>
			<path class="st37" d="M184.2,177.8c0.4,0.6,0.6,0.6,1.1,0.1c0.4-0.4,0.9-0.4,1.4-0.3c0.1,0,0.3,0.3,0.3,0.4
				c0,0.7-0.8,1.5-1.6,1.6c-0.3,0-0.6,0-0.8,0c-0.9-0.1-1.1-0.7-0.6-1.4C184,178,184.1,177.9,184.2,177.8z"/>
			<path class="st37" d="M126.1,100.4c0.1,0,0.2,0,0.4,0.1c0.3,0,0.5,0.2,0.5,0.5c0,0.4-0.2,0.6-0.5,0.6c-0.2,0-0.4,0-0.6,0
				c-0.4-0.1-0.7-0.2-0.7-0.7C125.3,100.5,125.4,100.4,126.1,100.4z"/>
			<path class="st37" d="M122.3,144.9c0-0.5,0.5-1.1,0.9-1c0.4,0,0.6,0.3,0.5,0.8c0,0.6-0.3,1-0.7,1
				C122.4,145.6,122.3,145.4,122.3,144.9z"/>
			<path class="st37" d="M124.6,158.9c0,0.2,0,0.5-0.1,0.7c-0.1,0.2-0.4,0.5-0.4,0.5c-0.3-0.1-0.5-0.3-0.7-0.5
				c-0.2-0.3,0.4-1.4,0.7-1.4c0.1,0,0.3,0.1,0.4,0.2C124.6,158.5,124.6,158.7,124.6,158.9z"/>
			<path class="st32" d="M208.3,71.5c0,0.4-0.1,0.7-0.1,1c-0.4,4-0.8,8.1-1.7,12c-0.5,2.4-1.1,4.8-1.5,7.2c-0.4,2.1-0.6,4.2-0.9,6.3
				c0,0.1,0,0.2-0.1,0.3c-0.2,1-0.2,1-1.3,1c-1.3,0-2.7,0.1-4,0.1c-0.2,0-0.3,0-0.6,0c0-0.5,0.1-0.9,0.1-1.4
				c0.2-2.4,0.3-4.8,0.6-7.2c0.2-2.2,0.6-4.4,0.9-6.6c0.2-1.3,0.2-2.7,0.3-4c0.3-2.4,0.7-4.8,1.1-7.2c0.1-0.9,0.2-0.9,1.1-1.1
				c1.8-0.4,3.6-0.5,5.5-0.4C207.9,71.5,208,71.5,208.3,71.5z"/>
			<path class="st32" d="M198.7,113.6c-0.3,0-0.7,0-1-0.1c-1.5-0.3-2.2-1.4-1.9-2.8c0-0.2,0.1-0.4,0.2-0.6c0.6-1.9,1.8-2.5,3.8-2.1
				c1.1,0.2,1.9,0.9,2.4,1.8c0.4,0.7,0.3,1.5-0.2,2.1C201.3,113,200.2,113.7,198.7,113.6z"/>
		</g>
	</g>
</g>
<g id="Calque_3">
</g>
</svg>
