<?xml version="1.0" encoding="utf-8"?>
<!-- Generator: Adobe Illustrator 23.0.1, SVG Export Plug-In . SVG Version: 6.00 Build 0)  -->
<svg version="1.1" xmlns="http://www.w3.org/2000/svg" x="0px" y="0px"
     viewBox="0 0 255 255" style="enable-background:new 0 0 255 255;" xml:space="preserve">
<style type="text/css">
	.st0{opacity:0.4;fill:url(#SVGID_1_);}
	.st1{opacity:0.6;fill:url(#SVGID_2_);}
	.st2{opacity:0.6;fill:url(#SVGID_3_);}
	.st3{opacity:0.6;fill:url(#SVGID_4_);}
	.st4{opacity:0.6;fill:url(#SVGID_5_);}
	.st5{opacity:0.6;fill:url(#SVGID_6_);}
	.st6{fill:#1F2B50;}
	.st7{fill:none;stroke:#1F2B50;stroke-width:3;stroke-miterlimit:10;}
	.st8{opacity:0.4;fill:url(#SVGID_7_);}
	.st9{opacity:0.4;fill:url(#SVGID_8_);}
	.st10{opacity:0.6;fill:url(#SVGID_9_);}
	.st11{opacity:0.6;fill:url(#SVGID_10_);}
	.st12{opacity:0.4;fill:url(#SVGID_11_);}
	.st13{opacity:0.4;fill:url(#SVGID_12_);}
	.st14{opacity:0.4;fill:url(#SVGID_13_);}
	.st15{opacity:0.4;fill:url(#SVGID_14_);}
	.st16{opacity:0.4;fill:url(#SVGID_15_);}
	.st17{opacity:0.4;fill:url(#SVGID_16_);}
	.st18{opacity:0.4;fill:url(#SVGID_17_);}
	.st19{fill:url(#SVGID_18_);}
	.st20{fill:url(#SVGID_19_);}
	.st21{fill:url(#SVGID_20_);}
	.st22{opacity:0.6;fill:url(#SVGID_21_);}
	.st23{opacity:0.6;fill:url(#SVGID_22_);}
	.st24{opacity:0.6;fill:url(#SVGID_23_);}
	.st25{opacity:0.6;fill:url(#SVGID_24_);}
	.st26{opacity:0.6;fill:url(#SVGID_25_);}
	.st27{opacity:0.6;fill:url(#SVGID_26_);}
	.st28{opacity:0.6;fill:url(#SVGID_27_);}
	.st29{opacity:0.6;fill:url(#SVGID_28_);}
	.st30{fill:url(#SVGID_29_);}
	.st31{fill:url(#SVGID_30_);}
	.st32{fill:#EA9001;}
	.st33{fill:#407EA7;}
	.st34{opacity:0.5;fill:#FFFFFF;}
	.st35{fill:none;stroke:#EA9001;stroke-width:2;stroke-miterlimit:10;}
	.st36{fill:#BECBCC;}
	.st37{fill:#FFFFFF;}
	.st38{fill:#979B9B;}
	.st39{fill:none;stroke:#407EA7;stroke-width:3;stroke-miterlimit:10;}
	.st40{fill:none;stroke:#407EA7;stroke-width:3.0377;stroke-miterlimit:10;}
	.st41{fill:none;stroke:#407EA7;stroke-width:2.8985;stroke-miterlimit:10;}
	.st42{fill:none;stroke:#407EA7;stroke-width:2.933;stroke-miterlimit:10;}
	.st43{fill:none;stroke:#EA9001;stroke-width:1.8227;stroke-miterlimit:10;}
	.st44{fill:#AAB2B2;}
	.st45{fill:none;stroke:#407EA7;stroke-width:3.0142;stroke-miterlimit:10;}
	.st46{fill:none;stroke:#407EA7;stroke-width:3.0512;stroke-miterlimit:10;}
	.st47{fill:#D3DDDD;}
	.st48{fill:none;stroke:#1F2B50;stroke-miterlimit:10;}
	.st49{fill:#BECBCC;stroke:#1F2B50;stroke-width:0.75;stroke-miterlimit:10;}
	.st50{fill:url(#SVGID_31_);}
	.st51{fill:none;stroke:#407EA7;stroke-width:2.8066;stroke-linecap:round;stroke-miterlimit:10;}
	.st52{fill:none;stroke:#407EA7;stroke-width:2.7511;stroke-linecap:round;stroke-miterlimit:10;}
	.st53{fill:url(#SVGID_32_);}
	.st54{fill:none;stroke:#EA9001;stroke-width:0.8;stroke-miterlimit:10;}
	.st55{fill:none;stroke:#407EA7;stroke-width:1.2;stroke-miterlimit:10;}
	.st56{fill:none;stroke:#407EA7;stroke-width:1.2151;stroke-miterlimit:10;}
	.st57{fill:none;stroke:#407EA7;stroke-width:1.1594;stroke-miterlimit:10;}
	.st58{fill:none;stroke:#407EA7;stroke-width:1.1732;stroke-miterlimit:10;}
	.st59{fill:url(#SVGID_33_);}
	.st60{fill:none;stroke:#1F2B50;stroke-width:0.4;stroke-miterlimit:10;}
	.st61{fill:#BECBCC;stroke:#1F2B50;stroke-width:0.3;stroke-miterlimit:10;}
	.st62{fill:none;stroke:#407EA7;stroke-width:1.1226;stroke-linecap:round;stroke-miterlimit:10;}
	.st63{fill:none;stroke:#407EA7;stroke-width:1.1004;stroke-linecap:round;stroke-miterlimit:10;}
	.st64{fill:url(#SVGID_34_);}
	.st65{fill:url(#SVGID_35_);}
</style>
<g id="Calque_2">
</g>
<g id="Calque_1">
</g>
<g id="Calque_3">
	
		<linearGradient id="SVGID_1_" gradientUnits="userSpaceOnUse" x1="212.5164" y1="1289.1887" x2="416.9164" y2="1289.1887" gradientTransform="matrix(0.6517 0.7585 -0.7585 0.6517 898.2255 -950.0089)">
		<stop  offset="0" style="stop-color:#E0E8F0"/>
		<stop  offset="1" style="stop-color:#F8D5CA"/>
	</linearGradient>
	<circle style="fill:url(#SVGID_1_);" cx="125.5" cy="128.9" r="102.2"/>
	<path class="st36" d="M212.7,47.8c2.4-2.8,3.8-6.4,3.8-10.4c0-8.9-7.3-16.2-16.4-16.2c-2.6,0-5,0.6-7.2,1.6
		c-2.9-4.4-8-7.2-13.6-7.2c-9.1,0-16.4,7.3-16.4,16.2c0,0.2,0,0.3,0,0.5c-1-0.2-2.1-0.3-3.2-0.3c-9.1,0-16.4,7.3-16.4,16.2
		c0,4.4,1.8,8.4,4.7,11.3c-0.9,2-1.5,4.3-1.5,6.7c0,8.9,7.3,16.2,16.4,16.2c2.1,0,4.1-0.4,5.9-1.1c3,4.1,7.8,6.7,13.3,6.7
		c7.4,0,13.6-4.8,15.7-11.4c2.3,1.2,4.8,1.8,7.5,1.8c9.1,0,16.4-7.3,16.4-16.2C221.7,55.9,218,50.5,212.7,47.8z"/>
	<g id="I5Eo0T.tif_5_">
		<g>
			<path class="st37" d="M167.7,53.6C167.7,53.6,167.7,53.6,167.7,53.6c0,2.7,0,5.5,0.1,8.2c0,1.7,0,3.3,0.1,5c0,1.7,0.1,3.3,0.1,5
				c0,0.5,0.3,0.7,0.8,0.6c0.3-0.1,0.6-0.1,0.8-0.1c2,0,4,0.1,6,0.2c2.1,0,4.1,0.1,6.2,0.1c2,0,4.1-0.1,6.1,0c3,0.1,5.9,0.3,8.9,0.2
				c0.1,0,0.3,0,0.4,0c0.2-0.1,0.3-0.2,0.2-0.4c-0.1-0.2-0.1-0.3-0.1-0.5c0-1.6,0-3.3,0-4.9c0-0.9,0-1.8,0-2.7
				c0.1-2.6,0.2-5.3,0.2-7.9c0.1-2.7,0.1-5.3,0.1-8c0-4.4,0-8.8,0-13.2c0-1.1,0.1-2.2,0.1-3.3c0-0.2-0.1-0.4-0.4-0.3
				c-0.2,0-0.3,0.1-0.5,0.1c-3.3,0-6.6,0.1-9.9,0.1c-2.5,0-4.9-0.1-7.4-0.1c-3.6,0-7.1,0.1-10.7,0.2c-0.3,0-0.5,0-0.8,0
				c-0.1,0-0.2,0.2-0.2,0.2c0,0.4,0,0.8,0,1.2c-0.1,2.6-0.3,5.1-0.2,7.7C167.7,44.9,167.7,49.2,167.7,53.6z"/>
			<path class="st6" d="M167.7,53.6c-0.1-4.3-0.1-8.7-0.2-13c-0.1-2.6,0.2-5.1,0.2-7.7c0-0.4,0-0.8,0-1.2c0-0.1,0.1-0.2,0.2-0.2
				c0.3,0,0.5,0,0.8,0c3.6-0.1,7.1-0.1,10.7-0.2c2.5,0,4.9,0.1,7.4,0.1c3.3,0,6.6,0,9.9-0.1c0.2,0,0.3,0,0.5-0.1
				c0.3-0.1,0.4,0.1,0.4,0.3c0,1.1-0.1,2.2-0.1,3.3c0,4.4,0,8.8,0,13.2c0,2.7-0.1,5.3-0.1,8c-0.1,2.6-0.1,5.3-0.2,7.9
				c0,0.9,0,1.8,0,2.7c0,1.6,0,3.3,0,4.9c0,0.2,0.1,0.4,0.1,0.5c0.1,0.2,0,0.3-0.2,0.4c-0.1,0-0.3,0-0.4,0c-3,0.1-5.9-0.1-8.9-0.2
				c-2-0.1-4.1,0-6.1,0c-2.1,0-4.1,0-6.2-0.1c-2,0-4-0.1-6-0.2c-0.3,0-0.6,0-0.8,0.1c-0.5,0.1-0.8-0.1-0.8-0.6c0-1.7-0.1-3.3-0.1-5
				c0-1.7,0-3.3-0.1-5C167.8,59.1,167.7,56.3,167.7,53.6C167.7,53.6,167.7,53.6,167.7,53.6z M168.3,31.8c0,0.5,0,1,0,1.5
				c-0.1,1.4-0.2,2.7-0.2,4.1c0,3.6,0.1,7.2,0.1,10.8c0,2.5,0,5.1,0,7.6c0,1.4,0.1,2.8,0.1,4.3c0,2.3,0,4.7,0.1,7
				c0,1.5,0.1,3,0.2,4.4c0,0.3,0.1,0.4,0.4,0.3c0.3-0.1,0.6,0,1,0c3.5,0.1,7,0.3,10.5,0.2c2.9,0,5.9-0.2,8.8-0.1
				c2.4,0.1,4.7,0.1,7.1,0.2c0.1,0,0.3,0,0.4,0c0.2-13.5,0.7-26.9,0.3-40.3c-0.1,0-0.2,0-0.4,0c-3.5,0-7.1,0.1-10.6,0.1
				c-2.2,0-4.4-0.2-6.6-0.2c-3.5,0-7,0.1-10.5,0.2C168.7,31.8,168.5,31.8,168.3,31.8z"/>
			<path class="st37" d="M168.3,31.8c0.3,0,0.5,0,0.7,0c3.5-0.1,7-0.1,10.5-0.2c2.2,0,4.4,0.2,6.6,0.2c3.5,0,7.1,0,10.6-0.1
				c0.1,0,0.3,0,0.4,0c0.3,13.5-0.1,26.9-0.3,40.3c-0.1,0-0.2,0-0.4,0c-2.4-0.1-4.7-0.1-7.1-0.2c-2.9-0.1-5.9,0-8.8,0.1
				c-3.5,0-7-0.1-10.5-0.2c-0.3,0-0.7,0-1,0c-0.3,0.1-0.4,0-0.4-0.3c-0.1-1.5-0.2-3-0.2-4.4c-0.1-2.3-0.1-4.7-0.1-7
				c0-1.4-0.1-2.8-0.1-4.3c0-2.5,0-5.1,0-7.6c0-3.6-0.1-7.2-0.1-10.8c0-1.4,0.2-2.7,0.2-4.1C168.3,32.9,168.3,32.4,168.3,31.8z
				 M184.4,61.5C184.4,61.5,184.4,61.5,184.4,61.5c2.7,0,5.3,0,8,0c0.9,0,1.9,0,2.8-0.1c0.2,0,0.4-0.1,0.4-0.3
				c0-0.3-0.2-0.2-0.4-0.2c0,0-0.1,0-0.1,0c-2.2,0-4.5,0.1-6.7,0.1c-1.9,0-3.7-0.1-5.6-0.1c-4.2,0-8.4,0.1-12.5,0.3
				c-0.1,0-0.2,0-0.2,0c-0.1,0-0.1,0.1-0.2,0.1c0.1,0.1,0.1,0.2,0.2,0.2c0.2,0,0.3,0,0.5,0c1.4,0,2.8-0.1,4.2-0.1
				C177.9,61.5,181.1,61.5,184.4,61.5z M183.6,54.1C183.6,54.1,183.6,54.1,183.6,54.1c3.4-0.1,6.9-0.2,10.3-0.3c0.3,0,0.7,0,1-0.1
				c0.1,0,0.2-0.2,0.3-0.2c-0.1-0.1-0.2-0.2-0.3-0.2c-1.2,0-2.4,0-3.6,0.1c-2.8,0.1-5.6,0.2-8.3,0.2c-3.6,0-7.3-0.2-10.9-0.3
				c-0.5,0-1.1,0-1.6,0c-0.1,0-0.3,0.1-0.4,0.2c0.1,0.1,0.2,0.2,0.4,0.2c1.2,0.1,2.5,0.1,3.7,0.2c1.4,0,2.8,0.1,4.2,0.1
				C180.1,54,181.9,54.1,183.6,54.1z M170.2,40.8c0,0,0,0.1,0,0.1c0.1,0,0.2,0.1,0.3,0.1c1.2,0,2.4,0,3.6,0c6.9,0,13.8,0,20.7,0
				c0.1,0,0.2,0,0.3,0c0.1,0,0.2-0.1,0.2-0.2c0-0.1-0.1-0.2-0.2-0.2c-0.1,0-0.2,0-0.2,0c-2.5,0-5,0.1-7.5,0.1c-4.1,0-8.2,0-12.3,0
				c-1.3,0-2.6,0-3.9,0C170.8,40.6,170.5,40.7,170.2,40.8z M176.5,36.4c0.3-0.1,0.7-0.2,1-0.4c0.6-0.4,0.6-1.3-0.1-1.6
				c-0.3-0.1-0.6-0.2-0.9-0.3c-0.3,0-0.7,0-1,0c-0.2,0-0.3,0.1-0.3,0.3c0,0.6-0.1,1.2-0.1,1.9c0,0.5,0.1,0.9,0.1,1.4
				c0,0.2,0,0.4,0.3,0.4c0.1,0,0.2-0.2,0.2-0.4c0-0.3,0-0.6,0.1-1c0.2,0.1,0.3,0.2,0.5,0.3c0.4,0.4,0.8,0.8,1.2,1.2
				c0.1,0.1,0.3,0.1,0.4,0.1c0-0.1,0.1-0.3,0.1-0.4c-0.1-0.2-0.2-0.3-0.3-0.5C177.2,37.1,176.8,36.7,176.5,36.4z M183.5,38
				c-0.2,0.2-0.5,0.5-0.3,0.8c0.2,0.2,0.4,0.4,0.7,0.6c-0.2,0.1-0.4,0.2-0.6,0.3c-0.1,0.1-0.1,0.3-0.2,0.4c0.1,0,0.3,0.1,0.4,0
				c0.2-0.1,0.3-0.2,0.5-0.3c0.5-0.3,0.5-0.6,0-0.9c-0.2-0.1-0.3-0.2-0.5-0.3c0.3-0.3,0.5-0.5,0.9-0.6c0.5-0.1,1-0.3,1.5-0.5
				c0.2-0.1,0.3-0.3,0.2-0.4c-0.1-0.1-0.3-0.1-0.5,0c-0.1,0-0.2,0.1-0.3,0.1c-0.5,0.3-1.1,0.4-1.7,0.3c-0.6-0.1-0.8-0.3-0.7-0.9
				c0.1-0.8,0.6-1.4,1.3-1.8c0.4-0.2,0.6-0.2,1,0.2c0.1,0.1,0.2,0.1,0.3,0.1c0-0.1,0.1-0.3,0-0.4c-0.2-0.5-0.8-0.7-1.4-0.4
				c-1,0.4-1.8,1.5-1.8,2.6c0,0.5,0.2,0.8,0.6,1C183.2,37.9,183.3,38,183.5,38z M193.4,56.6c0.2-0.3,0.3-0.5,0.1-0.7
				c-0.2-0.2-0.5-0.3-0.7-0.3c-0.5,0-0.8,0.3-1.1,0.6c-0.3,0.4-0.6,0.8-1.1,0.7c0,0-0.1,0.1-0.2,0.1c0.1,0,0.1,0.1,0.2,0.1
				c0.1,0,0.3,0,0.4,0c0,0.3-0.2,0.3-0.4,0.3c-0.1,0-0.2,0.1-0.2,0.1c0.1,0.1,0.1,0.1,0.2,0.2c0.1,0,0.2,0,0.3,0
				c0.1,0.9,0.5,1.3,1.4,1.4c0.8,0.1,1.5-0.1,2.2-0.4c0.1,0,0.1-0.2,0.2-0.3c-0.1,0-0.3-0.1-0.4-0.1c-0.4,0.1-0.8,0.3-1.1,0.3
				c-0.5,0-0.9,0-1.4-0.1c-0.3-0.1-0.5-0.4-0.3-0.8c0.4,0,0.8,0,1.1,0c0.1,0,0.2-0.1,0.3-0.1c-0.1-0.1-0.1-0.2-0.2-0.2
				c-0.1,0-0.2,0-0.3,0c-0.3,0-0.5,0-0.8,0c0,0,0-0.1,0-0.1c0.1-0.1,0.2-0.2,0.3-0.2c0.3,0,0.5,0.1,0.8,0.1c0.1,0,0.3,0,0.4-0.1
				c-0.1-0.1-0.2-0.2-0.3-0.3c-0.3-0.1-0.5-0.1-0.8-0.2c0,0,0-0.1-0.1-0.1c0.3-0.2,0.6-0.6,0.9-0.7
				C193.1,55.9,193.4,56.1,193.4,56.6z M179.5,36.6c0.6,0,1,0,1.5-0.1c0.1,0,0.2-0.2,0.3-0.3c-0.1-0.1-0.2-0.2-0.4-0.2
				c-0.3,0-0.5,0-0.8,0.1c-0.6,0-0.6,0-0.6-0.6c0-0.6,0.1-0.7,0.7-0.7c0.3,0,0.5,0,0.8,0c0.1,0,0.1-0.2,0.2-0.2
				c-0.1-0.1-0.2-0.2-0.3-0.2c-0.3,0-0.6-0.1-1-0.1c-0.7,0-1,0.3-1,1c0,0.6-0.1,1.2-0.1,1.8c0,0.8,0.3,1.1,1.1,1
				c0.3,0,0.6-0.1,0.9-0.1c0.2,0,0.5,0,0.5-0.2c0-0.3-0.2-0.3-0.4-0.3c-0.4,0-0.8,0-1.2,0.1c-0.2,0-0.4,0-0.3-0.3
				C179.5,36.9,179.5,36.7,179.5,36.6z M174.9,46.3C174.9,46.3,174.9,46.3,174.9,46.3c-0.5,0-1,0-1.4,0c-1,0-1.9-0.1-2.9-0.1
				c-0.1,0-0.2,0.1-0.4,0.2c0.1,0.1,0.2,0.2,0.3,0.2c0.4,0.1,0.8,0.1,1.2,0.1c1.7,0.1,3.5,0.1,5.3,0.1c0.8,0,1.5,0,2.3,0
				c0.2,0,0.4-0.1,0.3-0.3c0-0.1-0.2-0.2-0.3-0.2C177.8,46.3,176.4,46.3,174.9,46.3z M173.5,43.8C173.5,43.8,173.5,43.9,173.5,43.8
				c-0.8,0.1-1.6,0-2.4,0.1c-0.2,0-0.6-0.2-0.6,0.2c0,0.3,0.4,0.3,0.6,0.3c1.4,0,2.9,0.1,4.3,0.1c1,0,2-0.1,3-0.1
				c0.2,0,0.4-0.1,0.4-0.3c0-0.3-0.2-0.3-0.4-0.2c-0.2,0-0.5,0.1-0.7,0.1C176.2,43.8,174.8,43.8,173.5,43.8z M174.2,50.8
				C174.2,50.8,174.2,50.8,174.2,50.8c-1.2,0-2.4,0-3.6,0c-0.1,0-0.3,0.1-0.4,0.2c0.1,0.1,0.2,0.2,0.4,0.2c0.3,0,0.5,0,0.8,0
				c2.1,0,4.3,0.1,6.4,0.1c0.3,0,0.7-0.1,1-0.2c0.1,0,0.2-0.2,0.2-0.3c0-0.1-0.2-0.2-0.3-0.2c-0.1,0-0.3,0-0.4,0
				c-0.3,0-0.6,0.1-0.9,0.1C176.4,50.8,175.3,50.8,174.2,50.8z M174.1,48.4C174.1,48.4,174.1,48.4,174.1,48.4c-1.1,0-2.3,0-3.4,0
				c-0.1,0-0.2,0-0.3,0c-0.1,0-0.1,0.1-0.1,0.1c0,0.1,0.1,0.1,0.1,0.2c0.1,0,0.2,0.1,0.4,0.1c1.8,0.1,3.6,0.1,5.4,0.1
				c0.9,0,1.8,0,2.7,0c0.2,0,0.4-0.1,0.4-0.3c0-0.2-0.2-0.2-0.4-0.2c-0.8,0-1.6,0.1-2.3,0.1C175.7,48.4,174.9,48.4,174.1,48.4z
				 M187.6,35.6c0,0.6,0,1.1,0.3,1.6c0.5,0.8,1.5,0.9,2,0.1c0.4-0.6,0.5-1.3,0.3-1.9c0-0.2-0.1-0.3-0.2-0.4
				c-0.1-0.1-0.2-0.1-0.3-0.1c-0.1,0-0.1,0.2-0.1,0.3c0,0.1,0.1,0.2,0.1,0.2c0.2,0.5,0.1,1-0.1,1.5c-0.3,0.6-1,0.7-1.3,0
				c-0.2-0.3-0.2-0.7-0.3-1.1c-0.1-0.3,0-0.7,0-1c0-0.1-0.1-0.1-0.1-0.2c0,0.1-0.1,0.1-0.1,0.2C187.6,35.1,187.6,35.4,187.6,35.6z
				 M178.8,58.6c0.1,0.1,0.1,0.2,0.1,0.3c0.1,0.2,0.2,0.4,0.5,0.3c0.3-0.1,0.1-0.3,0-0.5c-0.1-0.2-0.2-0.4-0.2-0.7
				c0.1-0.5-0.2-0.9-0.7-0.9c-0.6,0-1.2,0.5-1.3,1.1c0,0.3,0,0.5,0.3,0.7c0.3,0.2,0.6,0.2,0.9,0C178.5,58.8,178.6,58.7,178.8,58.6z
				 M170.8,57.1c-0.1,0-0.3,0-0.4,0c-0.1,0-0.2,0.1-0.2,0.1c0,0.1,0.1,0.2,0.1,0.3c0,0,0.1,0.1,0.2,0.1c0.3,0,0.3,0.1,0.3,0.4
				c0,0.3,0,0.5,0,0.8c0,0.1,0.1,0.2,0.2,0.3c0.1-0.1,0.2-0.2,0.3-0.3c0-0.1,0-0.3,0-0.4c0-0.2,0-0.4,0-0.6c0.4-0.1,0.7-0.1,1-0.2
				c0.1,0,0.1-0.2,0.2-0.3c-0.1,0-0.2-0.1-0.3-0.1c-0.3,0-0.6,0-0.9,0c0-0.4,0-0.7-0.1-1c0-0.1-0.1-0.2-0.2-0.2
				c-0.1,0.1-0.1,0.2-0.1,0.2C170.9,56.5,170.9,56.8,170.8,57.1z M186.2,64c0,0.8,0,1.6,0,2.4c0.3,0,0.6,0,1,0c0-0.8,0-1.6,0-2.4
				C186.9,64,186.6,64,186.2,64z M173.9,59.1c0.6,0,1-0.4,1-0.9c0-0.5-0.6-1.1-1.2-1.1c-0.5,0-0.8,0.4-0.8,1.1
				C172.8,58.7,173.2,59.1,173.9,59.1z M194.9,51c0.1-0.1,0.2-0.1,0.2-0.3c0-0.1-0.1-0.3-0.3-0.3c-0.3-0.1-0.6-0.1-1-0.1
				c-0.3,0-0.6,0-0.9,0.1c-0.6,0.1-1.2,0.1-1.7,0.2c-0.1,0-0.2,0.1-0.3,0.2c0.1,0.1,0.2,0.2,0.3,0.2c0.1,0,0.3,0,0.4,0
				C192.7,51,193.7,50.7,194.9,51z M177.5,64c-0.2,0-0.5,0-0.7,0c-0.1,0-0.2,0.1-0.2,0.2c0,0.7,0,1.5,0,2.2c0.3,0,0.6,0,0.9,0
				C177.5,65.6,177.5,64.8,177.5,64z M193.5,46.5C193.5,46.5,193.5,46.5,193.5,46.5c0.4,0,0.7,0.1,1.1,0c0.2,0,0.4-0.1,0.4-0.3
				c0-0.1-0.2-0.2-0.4-0.2c-0.5,0-1,0-1.6,0c-0.6,0-1.2,0.1-1.8,0.2c-0.1,0-0.2,0.2-0.3,0.2c0.1,0.1,0.2,0.2,0.3,0.2
				c0.2,0,0.4,0,0.6,0C192.4,46.6,193,46.6,193.5,46.5z M192.2,44.4C192.2,44.4,192.2,44.4,192.2,44.4c0.8,0,1.6,0,2.4,0
				c0.1,0,0.3-0.1,0.3-0.2c0-0.1-0.1-0.3-0.2-0.3c-0.3-0.1-0.7-0.1-1-0.1c-0.8,0-1.7,0.1-2.5,0.2c-0.1,0-0.2,0.1-0.3,0.1
				c0.1,0.1,0.2,0.2,0.3,0.2C191.5,44.4,191.9,44.4,192.2,44.4z M192.8,48.9c0.5,0,1,0,1.5,0c0.1,0,0.4-0.2,0.4-0.3
				c0-0.3-0.2-0.3-0.4-0.3c-0.8,0-1.5,0-2.3,0c-0.2,0-0.5,0-0.7,0.1c-0.1,0-0.2,0.2-0.3,0.3c0.1,0.1,0.3,0.2,0.4,0.2
				C191.8,48.9,192.3,48.9,192.8,48.9z M176.1,57.6c0.3,0,0.5,0.1,0.6,0c0.1,0,0.2-0.1,0.2-0.2c0-0.1-0.1-0.2-0.2-0.2
				c0,0-0.1,0-0.2-0.1c-0.3,0-0.5-0.2-0.5-0.6c0-0.1,0-0.2,0-0.3c0-0.1-0.1-0.1-0.1-0.1c0,0-0.1,0.1-0.1,0.1c0,0.1,0,0.2,0,0.2
				c0,0.3,0,0.6-0.5,0.5c-0.1,0-0.2,0.1-0.3,0.2c0.1,0.1,0.2,0.2,0.3,0.2c0.1,0,0.2,0,0.3,0c0,0.4,0,0.7,0,1.1
				c0,0.1,0.2,0.2,0.3,0.3c0.1-0.1,0.1-0.2,0.2-0.4C176.1,58.2,176.1,57.9,176.1,57.6z M183.3,64c0,0.8-0.1,1.6-0.1,2.3
				c0.3,0,0.4,0,0.7,0c0.1-0.8,0.1-1.6,0.2-2.3C183.7,64,183.5,64,183.3,64z M181.6,66.4c0-0.8,0-1.6,0-2.3c-0.2,0-0.4,0-0.6,0
				c-0.1,0.8-0.1,1.6-0.2,2.3C181.1,66.4,181.3,66.4,181.6,66.4z M180.4,57.3c0,0.5,0.1,1,0.1,1.5c0,0.1,0.2,0.3,0.3,0.3
				c0.2,0,0.2-0.2,0.2-0.4c-0.1-0.4-0.1-0.8-0.1-1.2c0-0.5-0.1-1-0.1-1.5c0-0.1-0.1-0.2-0.2-0.3c-0.1,0.1-0.1,0.2-0.1,0.3
				C180.4,56.5,180.4,56.9,180.4,57.3z M173.3,66.4c0-0.8,0-1.6,0-2.3c-0.2,0-0.3,0-0.5,0c0,0.8,0,1.6,0,2.3
				C172.9,66.4,173.1,66.4,173.3,66.4z M193.2,64.1c-0.2,0-0.4,0-0.6,0c0,0.8,0,1.6,0,2.3c0.2,0,0.4,0,0.6,0
				C193.2,65.6,193.2,64.8,193.2,64.1z M171.4,66.4c0-0.8,0-1.6,0-2.4c-0.2,0-0.3,0-0.5,0c0,0.8,0,1.6,0,2.4
				C171,66.4,171.2,66.4,171.4,66.4z M193.9,66.4c0-0.7,0-1.4,0-2.1c0-0.3-0.1-0.3-0.4-0.2c0,0.8,0,1.5,0,2.3
				C193.6,66.4,193.7,66.4,193.9,66.4z M189.7,66.4c-0.1-0.8-0.1-1.6-0.1-2.3c-0.1,0-0.2,0-0.3,0c0,0.8,0,1.6,0,2.3
				C189.4,66.4,189.5,66.4,189.7,66.4z M179.8,64.1c0,0.8,0,1.6,0,2.3c0.1,0,0.2,0,0.4,0c0-0.8,0-1.6,0-2.3
				C180.1,64.1,180,64.1,179.8,64.1z M173.9,64c0,0.8-0.1,1.6-0.1,2.4c0.2,0,0.3,0,0.5,0c0-0.8,0-1.6,0-2.3
				C174.1,64,174,64,173.9,64z M182.3,66.4c0-0.8,0-1.6,0-2.3c-0.1,0-0.2,0-0.4,0c0,0.8,0,1.6,0,2.3
				C182.1,66.4,182.2,66.4,182.3,66.4z M184.5,66.4c0-0.8,0-1.6,0-2.3c0,0-0.1,0-0.1-0.1c-0.1,0.1-0.2,0.2-0.2,0.2
				c0,0.7,0,1.4,0,2.2C184.3,66.4,184.4,66.4,184.5,66.4z M176.1,64.1c-0.2-0.1-0.3,0-0.3,0.2c0,0.5-0.1,1-0.1,1.4
				c0,0.2,0,0.5,0,0.7c0.2,0,0.3,0,0.4,0C176.1,65.6,176.1,64.8,176.1,64.1z M192.2,66.4c0-0.8,0-1.6,0-2.3c0,0-0.1,0-0.1-0.1
				c-0.1,0.1-0.2,0.1-0.2,0.2c0,0.7,0,1.5,0,2.2C192,66.4,192.1,66.4,192.2,66.4z M175.1,66.4c0-0.8,0-1.6,0-2.5
				c-0.2,0.1-0.3,0.2-0.3,0.3c-0.1,0.7-0.1,1.5-0.1,2.2C174.8,66.4,174.9,66.4,175.1,66.4z M185.9,66.4c0-0.8,0-1.6,0-2.3
				c0,0-0.1,0-0.1-0.1c-0.1,0.1-0.2,0.1-0.2,0.2c-0.1,0.7-0.1,1.5-0.1,2.2C185.6,66.4,185.7,66.4,185.9,66.4z M188.7,64.1
				C188.7,64.1,188.7,64,188.7,64.1c-0.1,0-0.3,0-0.3,0.1c-0.1,0.7-0.1,1.5-0.1,2.2c0.2,0,0.3,0,0.4,0
				C188.7,65.6,188.7,64.8,188.7,64.1z M178.7,66.4c0,0,0.1,0.1,0.1,0.1c0.1-0.1,0.3-0.1,0.3-0.2c0.1-0.7,0.1-1.5,0.2-2.2
				c0,0-0.1,0-0.1-0.1c-0.1,0.1-0.2,0.1-0.2,0.2C178.9,64.9,178.8,65.6,178.7,66.4z M172,64C172,64,172,64,172,64
				c-0.1,0.8-0.1,1.6-0.1,2.4c0.1,0,0.3,0,0.4,0c0-0.7-0.1-1.4-0.1-2.1C172.2,64.2,172.1,64.1,172,64z M187.8,66.5
				c0,0,0.1-0.1,0.1-0.1c-0.1-0.8-0.1-1.5-0.2-2.3c0,0-0.1,0-0.1,0c-0.1,0.1-0.2,0.2-0.2,0.3c0,0.6,0,1.3,0.1,1.9
				C187.5,66.3,187.7,66.4,187.8,66.5z M178.5,64.1c-0.2-0.1-0.3,0-0.3,0.2c0,0.7-0.1,1.4-0.1,2.1c0,0,0,0,0,0.1c0.1,0,0.2,0,0.3,0
				C178.5,65.6,178.5,64.8,178.5,64.1z M185.2,66.4c0-0.7,0-1.4,0-2.1c0-0.1-0.1-0.1-0.1-0.2c-0.1,0.1-0.1,0.1-0.1,0.2
				c-0.1,0.7-0.1,1.4-0.1,2.2C184.9,66.4,185,66.4,185.2,66.4z M182.6,64c0,0.8,0,1.6,0,2.4c0.1,0,0.2,0,0.3,0c0-0.8,0-1.6,0-2.3
				C182.8,64,182.7,64,182.6,64z M190.6,64c-0.1,0-0.2,0-0.2,0c-0.1,0.8-0.1,1.5-0.2,2.3c0.2,0,0.3,0,0.4,0
				C190.6,65.6,190.6,64.8,190.6,64z M191.4,66.5c0.2-1.3,0.1-2.3-0.1-2.5c0,0.8-0.1,1.5-0.1,2.3C191.1,66.3,191.2,66.4,191.4,66.5z
				"/>
			<path class="st6" d="M184.4,61.5c-3.2,0-6.5,0-9.7,0c-1.4,0-2.8,0.1-4.2,0.1c-0.2,0-0.3,0-0.5,0c-0.1,0-0.1-0.1-0.2-0.2
				c0.1-0.1,0.1-0.1,0.2-0.1c0.1,0,0.2,0,0.2,0c4.2-0.2,8.4-0.3,12.5-0.3c1.9,0,3.7,0.1,5.6,0.1c2.2,0,4.5-0.1,6.7-0.1
				c0,0,0.1,0,0.1,0c0.2-0.1,0.4-0.1,0.4,0.2c0,0.2-0.2,0.3-0.4,0.3c-0.9,0-1.9,0.1-2.8,0.1C189.7,61.5,187,61.5,184.4,61.5
				C184.4,61.5,184.4,61.5,184.4,61.5z"/>
			<path class="st6" d="M183.6,54.1c-1.7,0-3.5-0.1-5.2-0.1c-1.4,0-2.8-0.1-4.2-0.1c-1.2,0-2.5-0.1-3.7-0.2c-0.1,0-0.2-0.1-0.4-0.2
				c0.1-0.1,0.3-0.2,0.4-0.2c0.5,0,1.1,0,1.6,0c3.6,0.1,7.3,0.2,10.9,0.3c2.8,0,5.6-0.1,8.3-0.2c1.2,0,2.4,0,3.6-0.1
				c0.1,0,0.2,0.1,0.3,0.2c-0.1,0.1-0.2,0.2-0.3,0.2c-0.3,0-0.7,0.1-1,0.1C190.4,53.9,187,54,183.6,54.1
				C183.6,54.1,183.6,54.1,183.6,54.1z"/>
			<path class="st6" d="M170.2,40.8c0.3-0.1,0.7-0.1,1-0.2c1.3,0,2.6,0,3.9,0c4.1,0,8.2,0,12.3,0c2.5,0,5-0.1,7.5-0.1
				c0.1,0,0.2,0,0.2,0c0.1,0,0.2,0.1,0.2,0.2c0,0.1-0.1,0.2-0.2,0.2c-0.1,0-0.2,0-0.3,0c-6.9,0-13.8,0-20.7,0c-1.2,0-2.4,0-3.6,0
				c-0.1,0-0.2,0-0.3-0.1C170.2,40.9,170.2,40.8,170.2,40.8z"/>
			<path class="st6" d="M176.5,36.4c0.4,0.3,0.7,0.7,1.1,1.1c0.1,0.1,0.3,0.3,0.3,0.5c0,0.1-0.1,0.3-0.1,0.4c-0.1,0-0.3-0.1-0.4-0.1
				c-0.4-0.4-0.8-0.8-1.2-1.2c-0.1-0.1-0.3-0.2-0.5-0.3c0,0.4,0,0.7-0.1,1c0,0.1-0.1,0.3-0.2,0.4c-0.2,0-0.2-0.2-0.3-0.4
				c0-0.5-0.1-0.9-0.1-1.4c0-0.6,0-1.2,0.1-1.9c0-0.2,0.1-0.3,0.3-0.3c0.3,0,0.7,0,1,0c0.3,0,0.6,0.1,0.9,0.3
				c0.7,0.4,0.7,1.2,0.1,1.6C177.2,36.2,176.8,36.2,176.5,36.4z M175.7,35.9c0.5-0.1,1-0.2,1.4-0.3c0.4-0.2,0.3-0.5,0-0.7
				c-0.4-0.2-0.8-0.2-1.2-0.1c0,0-0.1,0.1-0.1,0.2C175.7,35.1,175.7,35.4,175.7,35.9z"/>
			<path class="st6" d="M183.5,38c-0.2-0.1-0.4-0.1-0.5-0.2c-0.4-0.2-0.6-0.5-0.6-1c0-1.1,0.8-2.2,1.8-2.6c0.5-0.2,1.1,0,1.4,0.4
				c0,0.1,0,0.2,0,0.4c-0.1,0-0.2-0.1-0.3-0.1c-0.3-0.3-0.6-0.4-1-0.2c-0.7,0.4-1.2,1-1.3,1.8c-0.1,0.6,0.1,0.8,0.7,0.9
				c0.6,0.1,1.2-0.1,1.7-0.3c0.1,0,0.2-0.1,0.3-0.1c0.2,0,0.4,0,0.5,0c0.2,0.2,0,0.4-0.2,0.4c-0.5,0.2-1,0.4-1.5,0.5
				c-0.4,0.1-0.6,0.3-0.9,0.6c0.2,0.1,0.3,0.2,0.5,0.3c0.5,0.3,0.5,0.6,0,0.9c-0.2,0.1-0.3,0.2-0.5,0.3c-0.1,0-0.3,0-0.4,0
				c0-0.1,0.1-0.3,0.2-0.4c0.2-0.1,0.4-0.2,0.6-0.3c-0.2-0.2-0.5-0.3-0.7-0.6C183,38.5,183.3,38.3,183.5,38z"/>
			<path class="st6" d="M193.4,56.6c0-0.6-0.3-0.8-0.8-0.5c-0.3,0.2-0.6,0.5-0.9,0.7c0,0,0,0.1,0.1,0.1c0.3,0.1,0.5,0.1,0.8,0.2
				c0.1,0,0.2,0.2,0.3,0.3c-0.1,0-0.3,0.1-0.4,0.1c-0.3,0-0.5-0.1-0.8-0.1c-0.1,0-0.2,0.1-0.3,0.2c0,0,0,0.1,0,0.1
				c0.3,0,0.5,0,0.8,0c0.1,0,0.2,0,0.3,0c0.1,0,0.1,0.2,0.2,0.2c-0.1,0.1-0.2,0.1-0.3,0.1c-0.4,0-0.8,0-1.1,0
				c-0.1,0.4,0,0.7,0.3,0.8c0.4,0.1,0.9,0.2,1.4,0.1c0.4,0,0.8-0.2,1.1-0.3c0.1,0,0.3,0.1,0.4,0.1c-0.1,0.1-0.1,0.3-0.2,0.3
				c-0.7,0.3-1.5,0.5-2.2,0.4c-0.9-0.1-1.3-0.5-1.4-1.4c-0.1,0-0.2,0-0.3,0c-0.1,0-0.1-0.1-0.2-0.2c0.1-0.1,0.2-0.1,0.2-0.1
				c0.2,0,0.4,0,0.4-0.3c-0.1,0-0.3,0-0.4,0c-0.1,0-0.1-0.1-0.2-0.1c0.1-0.1,0.1-0.2,0.2-0.1c0.6,0.1,0.8-0.4,1.1-0.7
				c0.3-0.3,0.6-0.6,1.1-0.6c0.3,0,0.5,0.1,0.7,0.3C193.7,56.1,193.7,56.4,193.4,56.6z"/>
			<path class="st6" d="M179.5,36.6c0,0.1,0,0.3,0,0.5c0,0.3,0.1,0.3,0.3,0.3c0.4,0,0.8-0.1,1.2-0.1c0.2,0,0.4,0,0.4,0.3
				c0,0.3-0.3,0.2-0.5,0.2c-0.3,0-0.6,0-0.9,0.1c-0.8,0.1-1.1-0.1-1.1-1c0-0.6,0.1-1.2,0.1-1.8c0-0.7,0.4-1,1-1c0.3,0,0.7,0,1,0.1
				c0.1,0,0.2,0.1,0.3,0.2c-0.1,0.1-0.1,0.2-0.2,0.2c-0.3,0-0.5,0-0.8,0c-0.6,0-0.7,0.1-0.7,0.7c0,0.6,0,0.6,0.6,0.6
				c0.3,0,0.5-0.1,0.8-0.1c0.1,0,0.2,0.1,0.4,0.2c-0.1,0.1-0.2,0.3-0.3,0.3C180.5,36.5,180,36.6,179.5,36.6z"/>
			<path class="st6" d="M174.9,46.3c1.5,0,2.9,0,4.4,0c0.1,0,0.3,0.1,0.3,0.2c0,0.2-0.1,0.3-0.3,0.3c-0.8,0-1.5,0-2.3,0
				c-1.8,0-3.5-0.1-5.3-0.1c-0.4,0-0.8-0.1-1.2-0.1c-0.1,0-0.2-0.1-0.3-0.2c0.1-0.1,0.3-0.2,0.4-0.2c1,0,1.9,0.1,2.9,0.1
				C173.9,46.3,174.4,46.3,174.9,46.3C174.9,46.3,174.9,46.3,174.9,46.3z"/>
			<path class="st6" d="M173.5,43.8c1.4,0,2.7,0,4.1,0c0.2,0,0.5-0.1,0.7-0.1c0.2,0,0.4,0,0.4,0.2c0,0.3-0.2,0.3-0.4,0.3
				c-1,0-2,0.1-3,0.1c-1.4,0-2.9,0-4.3-0.1c-0.2,0-0.6,0-0.6-0.3c0-0.3,0.4-0.2,0.6-0.2C171.8,43.9,172.6,43.9,173.5,43.8
				C173.5,43.9,173.5,43.8,173.5,43.8z"/>
			<path class="st6" d="M174.2,50.8c1.1,0,2.2,0,3.3,0c0.3,0,0.6-0.1,0.9-0.1c0.2,0,0.3-0.1,0.4,0c0.1,0,0.2,0.1,0.3,0.2
				c0,0.1-0.1,0.3-0.2,0.3c-0.3,0.1-0.7,0.2-1,0.2c-2.1,0-4.3,0-6.4-0.1c-0.3,0-0.5,0-0.8,0c-0.1,0-0.3-0.1-0.4-0.2
				c0.1-0.1,0.3-0.2,0.4-0.2C171.8,50.8,173,50.8,174.2,50.8C174.2,50.8,174.2,50.8,174.2,50.8z"/>
			<path class="st6" d="M174.1,48.4c0.8,0,1.5,0,2.3,0c0.8,0,1.6-0.1,2.3-0.1c0.2,0,0.4-0.1,0.4,0.2c0,0.3-0.2,0.3-0.4,0.3
				c-0.9,0-1.8,0-2.7,0c-1.8,0-3.6-0.1-5.4-0.1c-0.1,0-0.3,0-0.4-0.1c0,0-0.1-0.1-0.1-0.2c0,0,0.1-0.1,0.1-0.1c0.1,0,0.2,0,0.3,0
				C171.8,48.4,173,48.4,174.1,48.4C174.1,48.4,174.1,48.4,174.1,48.4z"/>
			<path class="st6" d="M187.6,35.6c0-0.3,0-0.5,0.1-0.8c0-0.1,0.1-0.1,0.1-0.2c0,0.1,0.1,0.1,0.1,0.2c0,0.3,0,0.7,0,1
				c0.1,0.4,0.1,0.7,0.3,1.1c0.3,0.6,1,0.6,1.3,0c0.3-0.5,0.3-1,0.1-1.5c0-0.1-0.1-0.2-0.1-0.2c0-0.1,0-0.3,0.1-0.3
				c0.1,0,0.3,0,0.3,0.1c0.1,0.1,0.2,0.3,0.2,0.4c0.1,0.7,0.1,1.4-0.3,1.9c-0.6,0.8-1.5,0.7-2-0.1C187.6,36.7,187.6,36.2,187.6,35.6
				z"/>
			<path class="st6" d="M178.8,58.6c-0.2,0.1-0.3,0.3-0.5,0.4c-0.3,0.2-0.6,0.2-0.9,0c-0.3-0.2-0.3-0.4-0.3-0.7
				c0.1-0.7,0.7-1.2,1.3-1.1c0.5,0,0.7,0.4,0.7,0.9c0,0.2,0.1,0.4,0.2,0.7c0.1,0.2,0.2,0.4,0,0.5c-0.2,0.1-0.4-0.1-0.5-0.3
				C178.9,58.8,178.9,58.7,178.8,58.6z M178.6,57.5c-0.4,0-0.8,0.3-0.9,0.7c0,0.1,0,0.3,0.1,0.4c0.1,0,0.3,0,0.4-0.1
				C178.5,58.2,178.6,57.9,178.6,57.5z"/>
			<path class="st6" d="M170.8,57.1c0-0.4,0.1-0.7,0.1-1c0-0.1,0.1-0.2,0.1-0.2c0.1,0.1,0.2,0.2,0.2,0.2c0,0.3,0,0.6,0.1,1
				c0.3,0,0.6,0,0.9,0c0.1,0,0.2,0.1,0.3,0.1c-0.1,0.1-0.1,0.3-0.2,0.3c-0.3,0.1-0.6,0.1-1,0.2c0,0.2,0,0.4,0,0.6c0,0.1,0,0.3,0,0.4
				c0,0.1-0.2,0.2-0.3,0.3c-0.1-0.1-0.2-0.2-0.2-0.3c0-0.3,0-0.5,0-0.8c0-0.2,0-0.4-0.3-0.4c-0.1,0-0.2,0-0.2-0.1
				c-0.1-0.1-0.1-0.2-0.1-0.3c0,0,0.2-0.1,0.2-0.1C170.6,57.1,170.7,57.1,170.8,57.1z"/>
			<path class="st6" d="M186.2,64c0.4,0,0.7,0,1,0c0,0.8,0,1.6,0,2.4c-0.3,0-0.6,0-1,0C186.2,65.6,186.2,64.8,186.2,64z"/>
			<path class="st6" d="M173.9,59.1c-0.6,0-1.1-0.4-1.1-1c0-0.7,0.3-1.1,0.8-1.1c0.6,0,1.2,0.6,1.2,1.1
				C174.8,58.7,174.4,59.1,173.9,59.1z M173.2,58c0,0.4,0.2,0.7,0.6,0.7c0.3,0,0.5-0.2,0.5-0.5c0-0.3-0.4-0.7-0.7-0.7
				C173.3,57.5,173.2,57.7,173.2,58z"/>
			<path class="st6" d="M194.9,51c-1.1-0.2-2.2,0-3.2,0c-0.1,0-0.3,0-0.4,0c-0.1,0-0.2-0.2-0.3-0.2c0.1-0.1,0.2-0.2,0.3-0.2
				c0.6-0.1,1.2-0.1,1.7-0.2c0.3,0,0.6-0.1,0.9-0.1c0.3,0,0.6,0.1,1,0.1c0.1,0,0.3,0.2,0.3,0.3C195.1,50.8,194.9,50.9,194.9,51z"/>
			<path class="st6" d="M177.5,64c0,0.8,0,1.6,0,2.4c-0.3,0-0.6,0-0.9,0c0-0.7,0-1.4,0-2.2c0-0.1,0.1-0.2,0.2-0.2
				C177.1,64,177.3,64,177.5,64z"/>
			<path class="st6" d="M193.5,46.5c-0.6,0.1-1.1,0.1-1.7,0.2c-0.2,0-0.4,0-0.6,0c-0.1,0-0.2-0.1-0.3-0.2c0.1-0.1,0.2-0.2,0.3-0.2
				c0.6-0.1,1.2-0.2,1.8-0.2c0.5,0,1,0,1.6,0c0.1,0,0.4,0.1,0.4,0.2c0.1,0.2-0.2,0.3-0.4,0.3C194.3,46.6,193.9,46.6,193.5,46.5
				C193.5,46.5,193.5,46.5,193.5,46.5z"/>
			<path class="st6" d="M192.2,44.4c-0.3,0-0.7,0-1-0.1c-0.1,0-0.2-0.2-0.3-0.2c0.1,0,0.2-0.1,0.3-0.1c0.8-0.1,1.7-0.1,2.5-0.2
				c0.3,0,0.7,0,1,0.1c0.1,0,0.2,0.2,0.2,0.3c0,0.1-0.2,0.2-0.3,0.2C193.8,44.4,193,44.4,192.2,44.4
				C192.2,44.4,192.2,44.4,192.2,44.4z"/>
			<path class="st6" d="M192.8,48.9c-0.5,0-1,0-1.5,0c-0.1,0-0.3-0.1-0.4-0.2c0.1-0.1,0.2-0.2,0.3-0.3c0.2-0.1,0.5-0.1,0.7-0.1
				c0.8,0,1.5,0,2.3,0c0.2,0,0.4,0,0.4,0.3c0,0.1-0.3,0.3-0.4,0.3C193.8,48.9,193.3,48.9,192.8,48.9z"/>
			<path class="st6" d="M176.1,57.6c0,0.3,0,0.6,0,0.9c0,0.1-0.1,0.2-0.2,0.4c-0.1-0.1-0.3-0.2-0.3-0.3c0-0.3,0-0.7,0-1.1
				c-0.1,0-0.2,0-0.3,0c-0.1,0-0.2-0.1-0.3-0.2c0.1-0.1,0.2-0.2,0.3-0.2c0.4,0,0.5-0.2,0.5-0.5c0-0.1,0-0.2,0-0.2
				c0,0,0.1-0.1,0.1-0.1c0.1,0,0.1,0.1,0.1,0.1c0,0.1,0.1,0.2,0,0.3c0,0.4,0.2,0.5,0.5,0.6c0.1,0,0.2,0,0.2,0.1
				c0.1,0.1,0.2,0.2,0.2,0.2c0,0.1-0.1,0.2-0.2,0.2C176.6,57.7,176.4,57.6,176.1,57.6z"/>
			<path class="st6" d="M183.3,64c0.3,0,0.5,0,0.8,0c-0.1,0.8-0.1,1.6-0.2,2.3c-0.2,0-0.4,0-0.7,0C183.2,65.6,183.2,64.8,183.3,64z"
				/>
			<path class="st6" d="M181.6,66.4c-0.3,0-0.5,0-0.8,0c0.1-0.8,0.1-1.5,0.2-2.3c0.2,0,0.4,0,0.6,0
				C181.6,64.8,181.6,65.6,181.6,66.4z"/>
			<path class="st6" d="M180.4,57.3c0-0.4,0-0.8,0-1.2c0-0.1,0.1-0.2,0.1-0.3c0.1,0.1,0.2,0.2,0.2,0.3c0.1,0.5,0.1,1,0.1,1.5
				c0,0.4,0.1,0.8,0.1,1.2c0,0.2,0,0.4-0.2,0.4c-0.1,0-0.3-0.2-0.3-0.3C180.4,58.3,180.4,57.8,180.4,57.3z"/>
			<path class="st6" d="M173.3,66.4c-0.2,0-0.3,0-0.5,0c0-0.8,0-1.6,0-2.3c0.2,0,0.4,0,0.5,0C173.3,64.8,173.3,65.6,173.3,66.4z"/>
			<path class="st6" d="M193.2,64.1c0,0.8,0,1.5,0,2.3c-0.2,0-0.4,0-0.6,0c0-0.8,0-1.5,0-2.3C192.8,64.1,193,64.1,193.2,64.1z"/>
			<path class="st6" d="M171.4,66.4c-0.2,0-0.4,0-0.5,0c0-0.8,0-1.6,0-2.4c0.2,0,0.3,0,0.5,0C171.4,64.8,171.4,65.6,171.4,66.4z"/>
			<path class="st6" d="M193.9,66.4c-0.1,0-0.3,0-0.4,0c0-0.8,0-1.6,0-2.3c0.3-0.1,0.4,0,0.4,0.2C193.9,65,193.9,65.7,193.9,66.4z"
				/>
			<path class="st6" d="M189.7,66.4c-0.2,0-0.3,0-0.5,0c0-0.8,0-1.6,0-2.3c0.1,0,0.2,0,0.3,0C189.6,64.8,189.7,65.6,189.7,66.4z"/>
			<path class="st6" d="M179.8,64.1c0.2,0,0.3,0,0.4,0c0,0.8,0,1.5,0,2.3c-0.2,0-0.3,0-0.4,0C179.8,65.6,179.8,64.8,179.8,64.1z"/>
			<path class="st6" d="M173.9,64c0.1,0,0.2,0,0.3,0c0,0.8,0,1.6,0,2.3c-0.2,0-0.3,0-0.5,0C173.8,65.6,173.8,64.8,173.9,64z"/>
			<path class="st6" d="M182.3,66.4c-0.2,0-0.3,0-0.4,0c0-0.8,0-1.5,0-2.3c0.1,0,0.3,0,0.4,0C182.3,64.8,182.3,65.6,182.3,66.4z"/>
			<path class="st6" d="M184.5,66.4c-0.1,0-0.2,0-0.3,0c0-0.7,0-1.5,0-2.2c0-0.1,0.1-0.2,0.2-0.2c0,0,0.1,0,0.1,0.1
				C184.5,64.8,184.5,65.6,184.5,66.4z"/>
			<path class="st6" d="M176.1,64.1c0,0.8,0,1.5,0,2.3c-0.2,0-0.3,0-0.4,0c0-0.2,0-0.5,0-0.7c0-0.5,0.1-1,0.1-1.4
				C175.8,64.1,175.9,64,176.1,64.1z"/>
			<path class="st6" d="M192.2,66.4c-0.1,0-0.2,0-0.3,0c0-0.7,0-1.5,0-2.2c0-0.1,0.1-0.1,0.2-0.2c0,0,0.1,0,0.1,0.1
				C192.2,64.8,192.2,65.6,192.2,66.4z"/>
			<path class="st6" d="M175.1,66.4c-0.1,0-0.3,0-0.4,0c0-0.8,0.1-1.5,0.1-2.2c0-0.1,0.2-0.1,0.3-0.3
				C175.1,64.8,175.1,65.6,175.1,66.4z"/>
			<path class="st6" d="M185.9,66.4c-0.1,0-0.2,0-0.4,0c0-0.7,0.1-1.5,0.1-2.2c0-0.1,0.1-0.1,0.2-0.2c0,0,0.1,0,0.1,0.1
				C185.9,64.8,185.9,65.6,185.9,66.4z"/>
			<path class="st6" d="M188.7,64.1c0,0.8,0,1.5,0,2.3c-0.1,0-0.3,0-0.4,0c0-0.7,0.1-1.5,0.1-2.2C188.4,64.1,188.6,64.1,188.7,64.1
				C188.7,64,188.7,64.1,188.7,64.1z"/>
			<path class="st6" d="M178.7,66.4c0.1-0.7,0.1-1.5,0.2-2.2c0-0.1,0.2-0.1,0.2-0.2c0,0,0.1,0,0.1,0.1c-0.1,0.7-0.1,1.5-0.2,2.2
				c0,0.1-0.2,0.1-0.3,0.2C178.8,66.4,178.8,66.4,178.7,66.4z"/>
			<path class="st6" d="M172,64c0.1,0.1,0.2,0.2,0.2,0.3c0,0.7,0.1,1.4,0.1,2.1c-0.2,0-0.3,0-0.4,0C171.9,65.6,171.9,64.8,172,64
				C172,64,172,64,172,64z"/>
			<path class="st6" d="M187.8,66.5c-0.1-0.1-0.2-0.2-0.2-0.2c0-0.6-0.1-1.3-0.1-1.9c0-0.1,0.1-0.2,0.2-0.3c0,0,0.1,0,0.1,0
				c0.1,0.8,0.1,1.5,0.2,2.3C187.9,66.4,187.8,66.4,187.8,66.5z"/>
			<path class="st6" d="M178.5,64.1c0,0.8,0,1.5,0,2.3c-0.1,0-0.2,0-0.3,0c0,0,0-0.1,0-0.1c0-0.7,0.1-1.4,0.1-2.1
				C178.3,64.1,178.3,64,178.5,64.1z"/>
			<path class="st6" d="M185.2,66.4c-0.1,0-0.3,0-0.4,0c0-0.7,0.1-1.4,0.1-2.2c0-0.1,0.1-0.1,0.1-0.2c0,0.1,0.1,0.1,0.1,0.2
				C185.2,65,185.2,65.7,185.2,66.4z"/>
			<path class="st6" d="M182.6,64c0.1,0,0.2,0,0.3,0c0,0.8,0,1.6,0,2.3c-0.1,0-0.2,0-0.3,0C182.6,65.6,182.6,64.8,182.6,64z"/>
			<path class="st6" d="M190.6,64c0,0.8,0,1.5,0,2.3c-0.1,0-0.2,0-0.4,0c0.1-0.8,0.1-1.6,0.2-2.3C190.4,64.1,190.5,64.1,190.6,64z"
				/>
			<path class="st6" d="M191.4,66.5c-0.1-0.1-0.2-0.2-0.2-0.2c0-0.7,0.1-1.5,0.1-2.3C191.5,64.2,191.5,65.2,191.4,66.5z"/>
			<path class="st37" d="M175.7,35.9c0-0.4,0-0.8,0-1.1c0-0.1,0.1-0.2,0.1-0.2c0.4,0,0.8-0.1,1.2,0.1c0.3,0.2,0.4,0.6,0,0.7
				C176.7,35.7,176.2,35.7,175.7,35.9z"/>
			<path class="st37" d="M178.6,57.5c0,0.4-0.1,0.8-0.4,1c-0.1,0.1-0.3,0.1-0.4,0.1c-0.1,0-0.1-0.3-0.1-0.4
				C177.8,57.8,178.1,57.5,178.6,57.5z"/>
			<path class="st37" d="M173.2,58c0-0.3,0.2-0.5,0.4-0.5c0.3,0,0.7,0.4,0.7,0.7c0,0.3-0.2,0.5-0.5,0.5
				C173.4,58.7,173.2,58.4,173.2,58z"/>
		</g>
	</g>
	<path class="st60" d="M212.7,47.8c2.4-2.8,3.8-6.4,3.8-10.4c0-8.9-7.3-16.2-16.4-16.2c-2.6,0-5,0.6-7.2,1.6
		c-2.9-4.4-8-7.2-13.6-7.2c-9.1,0-16.4,7.3-16.4,16.2c0,0.2,0,0.3,0,0.5c-1-0.2-2.1-0.3-3.2-0.3c-9.1,0-16.4,7.3-16.4,16.2
		c0,4.4,1.8,8.4,4.7,11.3c-0.9,2-1.5,4.3-1.5,6.7c0,8.9,7.3,16.2,16.4,16.2c2.1,0,4.1-0.4,5.9-1.1c3,4.1,7.8,6.7,13.3,6.7
		c7.4,0,13.6-4.8,15.7-11.4c2.3,1.2,4.8,1.8,7.5,1.8c9.1,0,16.4-7.3,16.4-16.2C221.7,55.9,218,50.5,212.7,47.8z"/>
	<circle class="st61" cx="146.9" cy="99.1" r="2.6"/>
	<circle class="st61" cx="154.5" cy="89.9" r="3.4"/>
	<g id="_x33_EyIQA.tif_5_">
		<g>
			<path class="st6" d="M122.3,97.2c0.1,0.5,0.1,1,0.2,1.4c0.2,1.2,0.3,2.5,0.6,3.7c0.3,1.8,0.7,3.6,1,5.4c0.2,0.9,0.7,1.4,1.5,1.8
				c1.2,0.6,2.5,1,3.8,1.3c3.3,0.6,6.6,0.8,9.9,1c1.4,0.1,2.8,0.2,4.1,0.5c1.6,0.3,3.3,0.7,4.8,1.3c2.3,0.9,4.5,2.1,5.9,4.4
				c0.8,1.3,1.8,2.4,2.2,3.9c0.6,2.2,1.1,4.4,1.2,6.7c0.3,4.2,0.5,8.3,0.5,12.5c0,4.3-0.4,8.7-1,13c-0.4,2.8-0.8,5.7-1.3,8.5
				c-0.4,2.5-0.9,5-1.5,7.4c-1,4.2-2.2,8.3-4.1,12.2c-0.9,1.8-1.8,3.6-3,5.1c-1.1,1.3-2.4,2.4-3.9,3.1c0,0-0.1,0.1-0.1,0.1
				c-0.8,0-0.9,0.6-1,1.1c-0.7,3.2-1.1,6.4-1.3,9.7c-0.2,3.1-0.3,6.2-0.4,9.3c-0.1,1.8-0.1,3.5-0.1,5.3c0,2.9,0.2,5.9,0.5,8.8
				c0.2,2,0.4,4,0.6,6c0,0.4,0.1,0.8,0.2,1.2c0,0.1,0.1,0.3,0.2,0.4c0.3,0.4,0.3,1-0.1,1.3c-0.4,0.4-0.8,0.7-1.3,1
				c-1.4,0.9-2.8,1.8-4.3,2.7c-1,0.6-2,1.1-3,1.4c-4.1,1.3-8.3,2.5-12.7,3.1c-1.5,0.2-3.1,0.2-4.6,0.3c-1,0.1-2,0.1-3,0.2
				c-1.1,0.1-2.2,0.2-3.4,0.2c-2.7,0-5.4,0-8.1-0.3c-2-0.2-4-0.7-6-1c-2-0.4-4-0.7-6-1.1c-2.1-0.4-4-1.3-5.9-2.2
				c-0.8-0.4-1.7-0.9-2.5-1.3c-1-0.5-1.9-1.1-2.7-1.9c-0.4-0.4-0.9-0.9-1.4-1.2c-1.4-1-2.1-2.5-2.7-4c-0.1-0.3-0.1-0.7,0-1.1
				c0.6-2.6,1.2-5.2,1.8-7.9c1.1-5.1,2.4-10.1,3.3-15.2c1.1-6,1.8-12.2,1.7-18.3c0-1.2-0.1-2.4-0.2-3.6c-0.8,0.3-1.6,0.5-2.4,0.8
				c-1.9,0.6-3.8,0.8-5.8,0.8c-2.6-0.1-5-0.9-7.3-2.1c-0.3-0.2-0.6-0.4-0.9-0.6c-2-1.5-3.2-3.4-3.5-6c-0.4-3-0.2-5.9-0.3-8.9
				c-0.1-5.2,0.4-10.4,1.3-15.5c0.7-4.4,2-8.7,3.3-12.9c1.2-3.9,2.6-7.9,3.8-11.8c0.3-0.9,0.5-1.9,0.8-2.8c1-3.2,2.8-5.9,5.2-8.3
				c1.5-1.5,3.2-2.7,5.5-3c0.3,0,0.6,0,0.9-0.1c0.3-0.1,0.6-0.2,0.9-0.3c0.2-0.1,0.3-0.1,0.5-0.2c3.8-0.4,7.5-0.7,11.3-1.1
				c2.3-0.2,4.6-0.6,6.9-0.9c-0.7-3.3-0.3-6.7-0.5-9.9c-0.8,0.2-1.5,0.4-2.3,0.5c-2.6,0.5-5.3,0.3-7.9,0.2c-1.9-0.1-3.8-0.4-5.7-0.9
				c-0.8-0.2-1.5-0.5-2.2-0.9c-0.4-0.2-0.6-0.6-0.8-1c-1.3-2.5-1.6-5.3-1.8-8.1c-0.4-4-0.3-8,0.1-12c0.6-6.3,2.7-12.1,6.2-17.4
				c0.9-1.4,2-2.7,3.2-3.8c1.6-1.6,3.3-3.1,5-4.5c3.2-2.6,7-4,11.1-4.4c1.3-0.1,2.6-0.2,4,0c0.7,0.1,1.4,0,2,0.1
				c1.6,0.2,3.1,0.9,4.5,1.6c3.7,1.8,6.8,4.4,9.7,7.2c3.1,3,5.2,6.8,6.8,10.7c0.8,2,1.7,4.1,2.4,6.1c1.3,3.7,2.2,7.6,2.6,11.5
				c0.2,1.7,0.2,3.5,0.3,5.3c0,0.5-0.1,0.9-0.6,1.2c-0.8,0.4-1.6,0.9-2.4,1.4c-1.1,0.6-2.2,1.3-3.3,1.9c-2.6,1.3-5.4,2.2-8.4,1.9
				C122.8,97.2,122.6,97.2,122.3,97.2z M113.1,124.1c0,0,0,0.1,0,0.1c0.1,0.1,0.1,0.2,0.2,0.2c0.3,0.2,0.3,0.5,0.2,0.9
				c-0.2,0.5-0.4,1-0.6,1.6c-0.4,1.4-0.6,2.9-1.1,4.3c-1,2.9-2.2,5.8-3.3,8.7c-1.4,3.9-3.1,7.8-4.9,11.6c-2.4,5-4.9,10-7.4,15
				c-0.1,0.1-0.1,0.2-0.1,0.3c0.6,0.2,1.2,0.4,1.7,0.6c0.2,0.1,0.5,0.1,0.7,0.1c0.3,0,0.7-0.1,1,0c1.5,0.4,3,0.9,4.5,1.3
				c1.3,0.4,2.7,0.8,4,1c2.5,0.4,5.1,0.7,7.7,1c2.2,0.3,4.5,0.7,6.7,1c1.3,0.2,2.7,0.2,4,0.5c1.8,0.3,3.6,0.8,5.4,1.2
				c1.3,0.3,1.3,0.2,1.8-1c0.9-2.4,1.7-4.9,2.5-7.4c1.1-3.7,2-7.5,2.4-11.4c0.4-3.8,0.8-7.7,1.2-11.5c0.2-2.1,0.3-4.2,0.4-6.3
				c0-0.2,0.2-0.3,0.3-0.5c0.1,0.2,0.3,0.3,0.3,0.5c0,0.6,0.1,1.3,0,1.9c-0.3,3.2-0.5,6.4-0.8,9.7c-0.4,4-0.6,8-1.5,11.9
				c-0.7,3-1.5,5.9-2.3,8.9c-0.5,1.9-1.3,3.7-2,5.5c0.3,0.1,0.7,0.1,1.1,0.2c2.4,0.4,4.6,1.3,6.8,2.4c0.1,0.1,0.3,0.4,0.2,0.5
				c-0.1,0.1-0.3,0.2-0.5,0.2c-0.2,0-0.3-0.1-0.5-0.2c-2-1-4.1-1.8-6.3-2.2c-1.5-0.3-3.1-0.5-4.6-0.8c-2.5-0.5-5.1-1.2-7.7-1.4
				c-1.6-0.1-3.1-0.5-4.6-0.7c-4.1-0.6-8.2-0.8-12.2-1.8c-1.3-0.4-2.7-0.8-4-1.2c-0.9-0.2-1.8-0.5-2.7-0.7c-1.1,4.5-2.4,8.8-4.1,13
				c0.2,0.1,0.5,0.2,0.7,0.3c1.1,0.5,2.3,0.9,3.4,1.4c2,0.8,4,1.5,6,2.3c0.3,0.1,0.6,0.2,0.9,0.2c0.5,0.1,1,0.3,1.5,0.4
				c3.2,0.8,6.3,1.7,9.5,2.5c2.9,0.7,5.9,1.1,9,1.4c3.2,0.3,6.4,0.7,9.6,0.9c1.8,0.1,3.6,0.4,5.3-0.2c0.6-0.2,1.3-0.2,1.9-0.5
				c1.4-0.6,2.6-1.6,3.6-2.8c1.2-1.5,2.1-3.3,3-5c1.9-3.9,3.1-8,4.1-12.2c0.9-4.2,1.7-8.4,2.4-12.6c0.7-4.1,1.3-8.3,1.3-12.4
				c0.1-3,0.1-5.9,0-8.9c-0.1-2.5-0.3-4.9-0.4-7.4c-0.1-2.2-0.6-4.4-1.3-6.5c-0.4-1.3-1.3-2.3-2-3.4c-1.3-2.1-3.4-3.2-5.5-4.1
				c-1.2-0.5-2.6-0.8-3.9-1.1c-0.1,0-0.3,0-0.4,0c-0.4,0.4-0.9,0.7-1.3,1.1c-1.6,1.4-3.4,2.6-5.3,3.6c-5,2.7-10.2,4.8-15.9,5.7
				c-2.4,0.4-4.7,0.6-7.1,0.3C113.7,124.1,113.4,124.1,113.1,124.1z M141.1,233.2c-0.1-0.2-0.1-0.3-0.2-0.4
				c-0.2-1.1-0.3-2.2-0.4-3.2c-0.2-1.8-0.4-3.6-0.6-5.3c-0.2-2.7-0.4-5.4-0.5-8c-0.1-2.1,0-4.1,0.1-6.2c0.1-2.8,0.2-5.6,0.3-8.3
				c0.1-2.7,0.4-5.5,1-8.2c0.1-0.7,0.3-1.3,0.5-2c-0.1,0-0.3,0-0.4,0c-2.2,0-4.5,0-6.7-0.1c-3-0.2-6-0.7-9-0.9
				c-3.2-0.3-6.4-0.8-9.6-1.6c-3.4-0.8-6.8-1.8-10.2-2.7c-2-0.6-4-1.4-6.1-2.1c0,0-0.1,0-0.1-0.1c-0.9-0.4-1.7-0.7-2.6-1.1
				c-0.8-0.3-1.5-0.6-2.3-0.9c-0.6-0.3-0.6-0.6-0.3-1.1c0.4-0.8,0.7-1.6,1-2.3c-0.9-0.3-1.6-0.5-2.4-0.7c-0.4-0.1-0.7-0.2-1.1-0.3
				c-0.8-0.1-1.6-0.2-2.4-0.8c-2.1,2.8-4.6,5.1-7.9,6.4c0.1,1,0.3,1.9,0.3,2.8c0.1,4.7,0,9.4-0.8,14.1c-0.5,3.4-0.9,6.9-1.7,10.3
				c-0.9,3.9-1.8,7.8-2.7,11.6c-0.5,2.2-1,4.4-1.5,6.6c-0.1,0.3,0,0.8,0.1,1.1c0.7,1.4,1.4,2.8,2.8,3.6c0.2,0.1,0.4,0.3,0.5,0.5
				c1.1,1.3,2.4,2.1,3.9,2.7c0.3,0.1,0.6,0.3,0.8,0.4c3.2,1.8,6.6,2.8,10.1,3.4c1.6,0.3,3.1,0.4,4.7,0.7c1.6,0.2,3.2,0.6,4.9,0.7
				c1.6,0.1,3.3,0.1,4.9,0.1c1.7,0,3.4-0.1,5.1-0.2c0.9,0,1.8-0.1,2.7-0.2c1.6-0.1,3.2,0,4.7-0.3c3.1-0.6,6.2-1.4,9.3-2.1
				c2-0.5,4.1-1.1,5.9-2.1c1.6-0.9,3.1-1.9,4.6-2.9C140.4,233.7,140.7,233.4,141.1,233.2z M99.2,120.8c-0.2,0.5-0.3,1-0.5,1.4
				c-1.4,2.9-2.7,5.9-4.2,8.7c-1.8,3.3-3.6,6.7-6,9.7c-0.1,0.1-0.2,0.2-0.2,0.4c-2.1,3.2-4.2,6.5-6.3,9.7c-1.2,1.8-2.5,3.7-3.5,5.6
				c-1.3,2.5-2.6,5.1-3.5,7.8c-0.5,1.6-1,3.1-1.5,4.7c-0.1,0.2-0.2,0.5-0.3,0.7c-0.1,0.1-0.3,0.2-0.4,0.1c-0.1,0-0.1-0.3-0.1-0.4
				c0-0.2,0.1-0.3,0.2-0.6c-0.2,0.1-0.4,0.2-0.6,0.2c-0.8,0.3-1.5,0.7-2.3,1c-0.8,0.4-1.4,0.1-1.5-0.8c0,0,0,0-0.1-0.1
				c-0.8,0-1.2-0.3-1.2-0.8c0-0.5,0.2-1,0.3-1.6c-0.3,0-0.6,0.1-0.9,0.1c-0.5,0-0.8-0.3-0.8-0.8c0-0.5,0.2-0.9,0.6-1.2
				c1-0.9,2.1-1.8,3.4-2.1c1.7-0.4,3.4-0.9,5-1.4c0.2,0,0.4-0.1,0.4-0.2c0.4-0.9,0.8-1.8,1.2-2.8c-0.6-0.4-0.7-1.1-0.8-1.7
				c-0.9-3.8-0.6-7.5,0.2-11.2c0.6-2.9,2-5.5,3.3-8.2c0.6-1.2,1.1-2.5,1.6-3.8c0.1-0.2,0.2-0.3,0.3-0.4c0.1,0,0.1,0,0.2,0
				c0,0.2,0.1,0.4,0,0.6c-0.2,0.8-0.4,1.7-0.7,2.5c-0.7,1.6-1.4,3.2-2.2,4.7c-2.4,5-2.9,10.1-1.9,15.5c0.1,0.4,0.2,0.8,0.4,1.2
				c0.2-0.2,0.3-0.3,0.4-0.5c0.8-1.5,1.5-3,2.4-4.4c1.5-2.3,3.1-4.4,4.5-6.7c2.7-4.3,5.7-8.5,8.3-13c1.9-3.2,3.4-6.5,5.1-9.7
				c0.2-0.4,0.4-0.9,0.6-1.3c-1-0.1-2-0.2-3-0.4c-2.3-0.5-4.4-1.2-6.5-2.2c-1.6-0.8-3.2-1.7-4.4-3.1c-0.7-0.8-1.4-1.8-2.1-2.7
				c-0.2,0-0.5,0.1-0.8,0.2c-0.9,0.3-1.9,0.4-2.7,0.8c-1.9,1-3.5,2.3-4.7,4.1c-0.4,0.5-0.7,1.1-1.1,1.6c-0.9,1.3-1.7,2.7-2.1,4.2
				c-1,3.2-1.9,6.5-3,9.7c-1.5,4.4-2.9,8.8-4,13.3c-1.2,4.6-1.7,9.3-2,13.9c-0.2,3.4-0.1,6.9-0.2,10.4c0,1.8,0.1,3.5,0.4,5.2
				c0.1,0.7,0.3,1.4,0.6,2c0.5,1.2,1.5,2,2.5,2.8c0.3,0.2,0.5,0.4,0.8,0.5c1,0.4,2,0.9,3,1.2c2.1,0.7,4.3,0.9,6.5,0.6
				c1.3-0.2,2.5-0.5,3.7-0.9c2.4-0.8,4.7-1.9,6.6-3.7c0.9-0.9,1.8-1.9,2.6-2.8c2.7-2.8,4.8-6.1,6.5-9.5c3.1-6,6-12,8.9-18.1
				c1-2.2,2-4.4,2.9-6.6c0.8-2,1.6-4,2.3-6c0.9-2.4,1.8-4.8,2.6-7.2c0.5-1.4,0.6-3,1.4-4.4c-0.3-0.2-0.6-0.4-0.9-0.4
				c-1.8-0.3-3.5-0.6-5.3-0.8c-1.2-0.1-2.3-0.3-3.3-1c-0.2-0.1-0.4-0.2-0.7-0.3C101.6,121.8,100.4,121.3,99.2,120.8z M117.1,71.8
				c0.2-0.3,0.2-0.5,0.4-0.7c0.2-0.2,0.3-0.4,0.5-0.6c0.8-0.7,1.8-0.6,2.4,0.2c0.8,1.1,1.2,2.3,1.2,3.6c0,1.2-0.5,1.9-1.7,2.1
				c0,0,0,0.1,0,0.1c0.1,1,0.2,2.1,0.2,3.1c0.1,1.7,0.1,3.3,0.1,5c0,2.8,0.3,5.6-0.4,8.4c-0.2,0.7-0.3,1.3-0.4,2
				c0,0.2-0.1,0.4-0.1,0.7c0.1,0,0.2,0.1,0.3,0.1c1,0.2,1.9,0.4,2.9,0.5c1.3,0.2,2.5,0.3,3.8,0c1.9-0.5,3.7-1,5.4-2
				c0.5-0.3,0.9-0.5,1.4-0.7c1.2-0.7,2.3-1.5,3.4-2.2c0.3-0.2,0.4-0.5,0.3-0.8c-0.1-0.6-0.2-1.3-0.2-2c0-4.7-1.1-9.1-2.5-13.5
				c-1.2-3.8-2.8-7.4-4.6-10.9c-0.8-1.6-1.8-3.1-3-4.4c-3.5-4-7.5-7.3-12.4-9.5c-1.6-0.7-3.2-1.2-4.9-1.3c-1.5-0.1-2.9,0.1-4.4,0.2
				c-3.3,0.3-6.4,1.5-9.1,3.3c-2.5,1.6-4.6,3.7-6.6,5.8c-0.9,1-1.8,2-2.5,3.1c-3.2,4.8-5.2,10.1-6,15.9c-0.7,5.2-0.8,10.4-0.1,15.6
				c0.2,1.2,0.4,2.5,0.7,3.7c0.4,1.3,1,2.4,2.4,2.9c0.7,0.2,1.4,0.4,2.1,0.6c0.6,0.1,1.1,0.3,1.7,0.4c1.3,0.1,2.5,0.2,3.8,0.3
				c2.3,0.1,4.5,0.2,6.8-0.2c0.7-0.1,1.4-0.3,2.1-0.5c-0.1-0.6-0.1-1.2-0.2-1.8c0-0.2-0.2-0.5-0.3-0.6c-0.6-0.6-1.3-1.1-1.9-1.8
				c-2-2.2-3.6-4.8-4.6-7.6c-1.7-4.4-2.4-9-1.9-13.7c0.2-1.9,0.4-3.9,1.2-5.7c0.8-1.8,1.7-3.6,3.2-5c0.2-0.2,0.6-0.5,0.9-0.3
				c0.2,0.2,0.3,0.5,0.3,0.8c0.1,2.2-0.1,4.3-1,6.4c0,0.1,0,0.2-0.1,0.4c0.3-0.1,0.4-0.2,0.6-0.3c2.7-1.5,5.2-3.4,7.6-5.3
				c2.4-1.9,3.6-4.6,4.5-7.4c0.1-0.4,0.3-0.5,0.6-0.4c0.2,0,0.5,0.1,0.7,0.3c0.3,0.2,0.5,0.5,0.8,0.8c1.2,1.1,2.1,2.4,2.8,3.8
				c1.4,2.8,2.7,5.7,3.4,8.7C117,71.3,117.1,71.5,117.1,71.8z M99.8,97c0.1-0.1,0.2-0.1,0.2-0.2c0-0.3,0-0.7-0.1-1
				c-0.1-1-0.3-2.1-0.4-3.1c0-0.4,0.1-0.8,0.5-1c0.5-0.2,0.8,0.1,1.1,0.5c0.3,0.4,0.6,0.9,0.8,1.4c0.8,1.7,1.6,3.5,2.3,5.3
				c0.4,0.9,0.9,1.6,1.6,2.3c0.5,0.5,1.3,0.6,1.9,0.3c0.9-0.4,1.5-1.2,2.1-2c0.4-0.6,0.8-1.1,1.2-1.7c2.2-3,3.9-6.4,5.9-9.6
				c0.3-0.5,0.5-0.9,0.9-1.3c0.2-0.2,0.6-0.3,0.8-0.2c0.2,0.1,0.4,0.4,0.4,0.7c0,0.7,0,1.4-0.1,2.1c-0.4,2.6-1.5,5.1-2.4,7.6
				c-0.4,1.1-0.8,2.1-1.3,3.3c0.6-0.2,1.1,0,1.4,0.5c1.2-1.2,2-2.5,2.7-3.9c-0.8-0.3-0.9-0.5-0.8-1.3c0.2-0.8,0.3-1.6,0.5-2.3
				c0.2-1,0.5-1.9,0.5-2.9c0-3.8-0.1-7.5-0.2-11.3c0-0.9-0.2-1.7-0.3-2.6c0-0.2,0-0.4,0-0.7c0.2,0,0.5,0,0.7,0
				c0.4,0.1,0.6,0.1,0.8-0.2c0.2-0.2,0.3-0.6,0.3-0.8c0-1.1-0.4-2.2-0.9-3.1c-0.5-0.8-1.1-0.8-1.7-0.2c-0.6,0.6-0.8,1.4-0.8,2.3
				c0,0.2-0.1,0.4-0.2,0.6c-0.2-0.1-0.4-0.3-0.4-0.5c-0.2-0.7-0.4-1.5-0.6-2.2c-1.2-4-2.6-7.9-5.2-11.3c-0.5-0.6-1-1.2-1.5-1.7
				c-0.1-0.1-0.2-0.1-0.3-0.2c-0.3,0.7-0.6,1.3-0.8,2c-0.5,1.6-1.3,3-2.4,4.2c-3.1,3.2-6.7,5.7-10.6,7.6c-0.1,0.1-0.4,0.1-0.5,0
				c-0.1-0.1-0.1-0.4,0-0.5c1-1.7,1.3-3.6,1.4-5.6c0-0.5,0-1,0-1.5c0,0-0.1,0-0.1,0c-0.3,0.3-0.6,0.7-0.9,1c-1.6,2.2-2.6,4.6-3,7.3
				c-0.8,4.9-0.2,9.7,1.3,14.4c1,3.1,2.7,5.8,4.8,8.3C98.9,96,99.4,96.5,99.8,97z M100.5,92.3c-0.1,0-0.1,0-0.2,0.1
				c0,0.2,0,0.4,0,0.6c0.2,1.4,0.3,2.8,0.5,4.1c0.3,2.3,0.6,4.6,0.5,7c-0.1,2.5,0.1,5,0.5,7.5c0.5,3.2,0.3,6.2-1.1,9.1
				c1.4,0.6,2.7,1.3,4.1,1.9c0.3,0.1,0.6,0.2,0.9,0.2c1.8,0.3,3.6,0.5,5.5,0.8c0.4,0.1,0.5,0,0.7-0.4c0.4-0.9,0.7-1.8,1.2-2.7
				c1.3-2.6,2.7-5.1,4.1-7.7c0.6-1.1,1.2-2.3,1.6-3.5c0.5-1.2,0.8-2.4,0.6-3.7c-0.1-0.7-0.2-0.7-0.9-0.5c-0.1,0.1-0.4,0.1-0.5,0
				c-0.1-0.1-0.1-0.3-0.1-0.5c0-0.3,0.1-0.5,0.1-0.8c0-0.8-0.2-0.9-0.9-0.6c-0.4,0.1-0.5,0-0.5-0.4c0-0.4,0-0.7,0-1.1
				c0-1.1-0.3-1.3-1.3-1c-0.3,0.1-0.5,0-0.5-0.4c0-0.3,0.1-0.6,0.2-0.9c0.8-2.2,1.7-4.3,2.4-6.5c0.5-1.4,0.8-2.8,1.2-4.2
				c0.1-0.4,0.1-0.9,0.1-1.4c0,0-0.1,0-0.1,0c-0.2,0.3-0.3,0.6-0.5,0.9c-1.4,2.3-2.7,4.7-4.1,7c-1,1.6-2.1,3-3.1,4.5
				c-0.6,0.8-1.3,1.6-2.2,2c-1,0.5-2.2,0.4-3-0.4c-0.8-0.8-1.4-1.7-1.8-2.7c-0.7-1.7-1.5-3.4-2.3-5.1
				C101.1,93.2,100.8,92.7,100.5,92.3z M142.8,113.2c0-0.1,0-0.1,0-0.2c-0.6-0.1-1.2-0.2-1.8-0.3c-3-0.2-6.1-0.4-9.1-0.7
				c-2.3-0.2-4.5-0.6-6.5-1.7c-1-0.6-1.7-1.3-2-2.4c-1-3.3-1.1-6.8-1.6-10.2c-0.1-0.8-0.2-0.9-1-0.9c-0.4,0-0.6,0.2-0.8,0.5
				c-0.7,1.3-1.5,2.6-2.7,3.6c-0.1,0.1-0.1,0.2-0.1,0.2c0,0.4,0,0.8,0.1,1.2c1.3,0.1,1.3,0.1,1.5,1.8c0.9,0,1.3,0.3,1.4,1.2
				c0,0.3,0.1,0.6,0.1,0.9c-0.2,1.1-0.3,2.2-0.7,3.2c-0.7,1.7-1.6,3.3-2.4,4.9c-1.3,2.6-2.7,5.2-4,7.8c-0.2,0.4-0.4,0.7-0.6,1.2
				c0.6,0,1.1,0,1.6,0c2.2,0.1,4.4,0.1,6.5-0.3c2.6-0.5,5.3-1,7.8-2c3.4-1.3,6.8-2.7,9.9-4.7C139.7,115.5,141.3,114.3,142.8,113.2z
				 M101,111c-5.9,1.4-11.9,1.4-17.9,2.3c0,0,0,0.1,0,0.1c0.7,1.4,1.7,2.5,2.9,3.4c1.5,1.1,3.1,2,4.8,2.6c2.3,0.8,4.5,1.6,7,1.7
				c0.3,0,0.6-0.1,0.6-0.4c0-0.1,0.1-0.2,0.1-0.3c0.2-0.4,0.5-0.5,0.9-0.2c0.1,0.1,0.3,0.2,0.5,0.3C101.4,118.1,101.7,114.7,101,111
				z M89.7,176.3c1.9,0.5,3.7,1,5.6,1.5c1.2-3.2,2.1-6.4,2.8-9.7c-0.7-0.2-1.4-0.4-2.1-0.6c-0.3-0.1-0.5,0-0.6,0.3
				c-1.7,2.8-3.4,5.6-5.4,8.1C89.8,176.1,89.8,176.2,89.7,176.3z M74.8,161.9c-0.2,0-0.3,0-0.4,0.1c-1.6,0.5-3.3,0.9-4.9,1.4
				c-1.2,0.3-2,1.2-2.9,1.9c-0.1,0.1-0.1,0.2-0.2,0.2c-0.1,0.3-0.1,0.6,0.3,0.5c0.5-0.1,1.1-0.1,1.6-0.4c0.9-0.5,1.7-1.1,2.6-1.6
				c1.1-0.6,2.2-1.1,3.3-1.6C74.5,162.4,74.8,162.4,74.8,161.9z M74.5,163c-0.1,0-0.1,0-0.1,0c-1.7,1-3.4,1.9-5.1,2.9
				c-0.7,0.4-1.2,0.9-1.4,1.7c0,0.1,0,0.3,0.1,0.4c0.1,0.1,0.3,0.1,0.4,0.1c0.4-0.1,0.6-0.3,0.8-0.6c0.3-0.4,0.6-0.7,0.9-1
				c0.9-0.8,2.1-1.3,3.3-1.6c0.2-0.1,0.5-0.2,0.5-0.3C74.2,164.1,74.3,163.6,74.5,163z M73.7,165.6c-1.4,0.1-4.4,1.7-4.5,3.7
				c0.2,0,0.4-0.1,0.6-0.1c0.8-0.4,1.7-0.7,2.5-1.1c0.3-0.1,0.7-0.3,0.8-0.6C73.3,166.9,73.5,166.2,73.7,165.6z"/>
			<path class="st37" d="M113.1,124.1c0.3,0,0.7,0,1,0.1c2.4,0.3,4.7,0.1,7.1-0.3c5.7-0.9,10.9-3,15.9-5.7c1.9-1,3.6-2.3,5.3-3.6
				c0.4-0.4,0.9-0.7,1.3-1.1c0.1-0.1,0.3-0.1,0.4,0c1.3,0.4,2.7,0.6,3.9,1.1c2.1,0.9,4.2,2,5.5,4.1c0.7,1.1,1.6,2.1,2,3.4
				c0.6,2.1,1.1,4.3,1.3,6.5c0.1,2.5,0.4,4.9,0.4,7.4c0.1,3,0.1,5.9,0,8.9c-0.1,4.2-0.7,8.3-1.3,12.4c-0.7,4.2-1.5,8.4-2.4,12.6
				c-0.9,4.2-2.2,8.3-4.1,12.2c-0.9,1.8-1.7,3.5-3,5c-1,1.2-2.2,2.2-3.6,2.8c-0.6,0.3-1.3,0.2-1.9,0.5c-1.8,0.6-3.6,0.4-5.3,0.2
				c-3.2-0.2-6.4-0.6-9.6-0.9c-3-0.2-6-0.7-9-1.4c-3.2-0.8-6.3-1.7-9.5-2.5c-0.5-0.1-1-0.3-1.5-0.4c-0.3-0.1-0.6-0.1-0.9-0.2
				c-2-0.7-4-1.5-6-2.3c-1.1-0.4-2.3-0.9-3.4-1.4c-0.2-0.1-0.4-0.2-0.7-0.3c1.7-4.2,3-8.6,4.1-13c0.9,0.3,1.8,0.5,2.7,0.7
				c1.3,0.4,2.7,0.8,4,1.2c4,1.1,8.1,1.2,12.2,1.8c1.5,0.2,3.1,0.6,4.6,0.7c2.6,0.1,5.1,0.8,7.7,1.4c1.5,0.3,3.1,0.5,4.6,0.8
				c2.2,0.4,4.3,1.1,6.3,2.2c0.2,0.1,0.3,0.2,0.5,0.2c0.2,0,0.4-0.1,0.5-0.2c0-0.1-0.1-0.4-0.2-0.5c-2.2-1.1-4.4-2-6.8-2.4
				c-0.4-0.1-0.8-0.2-1.1-0.2c0.7-1.8,1.4-3.7,2-5.5c0.9-2.9,1.6-5.9,2.3-8.9c1-3.9,1.2-7.9,1.5-11.9c0.3-3.2,0.6-6.4,0.8-9.7
				c0-0.6,0-1.2,0-1.9c0-0.2-0.2-0.4-0.3-0.5c-0.1,0.2-0.3,0.3-0.3,0.5c-0.2,2.1-0.2,4.2-0.4,6.3c-0.4,3.8-0.8,7.7-1.2,11.5
				c-0.4,3.9-1.3,7.7-2.4,11.4c-0.7,2.5-1.6,4.9-2.5,7.4c-0.4,1.2-0.5,1.2-1.8,1c-1.8-0.4-3.6-0.9-5.4-1.2c-1.3-0.2-2.7-0.3-4-0.5
				c-2.2-0.3-4.5-0.7-6.7-1c-2.5-0.4-5.1-0.6-7.7-1c-1.4-0.2-2.7-0.7-4-1c-1.5-0.4-3-0.9-4.5-1.3c-0.3-0.1-0.7,0-1,0
				c-0.2,0-0.5,0-0.7-0.1c-0.6-0.2-1.1-0.4-1.7-0.6c0-0.1,0.1-0.2,0.1-0.3c2.5-5,4.9-10,7.4-15c1.8-3.8,3.5-7.6,4.9-11.6
				c1.1-2.9,2.2-5.8,3.3-8.7c0.5-1.4,0.7-2.8,1.1-4.3c0.1-0.5,0.4-1.1,0.6-1.6c0.2-0.4,0.1-0.6-0.2-0.9c-0.1-0.1-0.1-0.2-0.2-0.2
				C113,124.2,113,124.2,113.1,124.1z"/>
			<path class="st37" d="M141.1,233.2c-0.4,0.3-0.7,0.6-1.1,0.8c-1.5,1-3,1.9-4.6,2.9c-1.8,1.1-3.8,1.7-5.9,2.1
				c-3.1,0.7-6.1,1.5-9.3,2.1c-1.5,0.3-3.1,0.2-4.7,0.3c-0.9,0.1-1.8,0.1-2.7,0.2c-1.7,0.1-3.4,0.1-5.1,0.2c-1.6,0-3.3,0-4.9-0.1
				c-1.6-0.1-3.3-0.5-4.9-0.7c-1.6-0.2-3.1-0.4-4.7-0.7c-3.5-0.6-6.9-1.6-10.1-3.4c-0.3-0.1-0.5-0.3-0.8-0.4
				c-1.5-0.6-2.8-1.5-3.9-2.7c-0.2-0.2-0.3-0.4-0.5-0.5c-1.4-0.8-2.1-2.2-2.8-3.6c-0.1-0.3-0.2-0.7-0.1-1.1c0.5-2.2,1-4.4,1.5-6.6
				c0.9-3.9,1.8-7.8,2.7-11.6c0.8-3.4,1.2-6.9,1.7-10.3c0.7-4.7,0.9-9.4,0.8-14.1c0-0.9-0.2-1.8-0.3-2.8c3.3-1.3,5.7-3.6,7.9-6.4
				c0.8,0.5,1.6,0.7,2.4,0.8c0.4,0,0.8,0.2,1.1,0.3c0.8,0.2,1.5,0.5,2.4,0.7c-0.3,0.7-0.6,1.5-1,2.3c-0.3,0.6-0.2,0.9,0.3,1.1
				c0.7,0.3,1.5,0.6,2.3,0.9c0.9,0.4,1.7,0.7,2.6,1.1c0,0,0.1,0,0.1,0.1c2,0.7,4,1.5,6.1,2.1c3.4,1,6.8,1.9,10.2,2.7
				c3.1,0.8,6.3,1.3,9.6,1.6c3,0.2,6,0.7,9,0.9c2.2,0.2,4.5,0.1,6.7,0.1c0.1,0,0.2,0,0.4,0c-0.2,0.7-0.3,1.4-0.5,2
				c-0.6,2.7-0.8,5.4-1,8.2c-0.1,2.8-0.3,5.6-0.3,8.3c-0.1,2.1-0.2,4.1-0.1,6.2c0.1,2.7,0.3,5.4,0.5,8c0.1,1.8,0.4,3.6,0.6,5.3
				c0.1,1.1,0.3,2.2,0.4,3.2C141,232.9,141,233,141.1,233.2z"/>
			<path class="st37" d="M99.2,120.8c1.2,0.5,2.4,1,3.6,1.4c0.2,0.1,0.5,0.2,0.7,0.3c1,0.7,2.1,0.9,3.3,1c1.8,0.2,3.5,0.5,5.3,0.8
				c0.3,0.1,0.6,0.3,0.9,0.4c-0.9,1.4-1,3-1.4,4.4c-0.8,2.4-1.7,4.8-2.6,7.2c-0.7,2-1.5,4.1-2.3,6c-0.9,2.2-1.9,4.4-2.9,6.6
				c-2.9,6.1-5.8,12.1-8.9,18.1c-1.8,3.4-3.9,6.6-6.5,9.5c-0.9,0.9-1.7,1.9-2.6,2.8c-1.9,1.8-4.1,2.9-6.6,3.7
				c-1.2,0.4-2.4,0.7-3.7,0.9c-2.2,0.3-4.4,0.1-6.5-0.6c-1-0.3-2-0.8-3-1.2c-0.3-0.1-0.6-0.3-0.8-0.5c-1-0.8-2-1.6-2.5-2.8
				c-0.3-0.6-0.5-1.3-0.6-2c-0.3-1.7-0.5-3.5-0.4-5.2c0.1-3.5,0-6.9,0.2-10.4c0.3-4.7,0.8-9.4,2-13.9c1.2-4.5,2.5-8.9,4-13.3
				c1.1-3.2,2-6.4,3-9.7c0.5-1.5,1.2-2.9,2.1-4.2c0.4-0.5,0.7-1.1,1.1-1.6c1.2-1.7,2.8-3.1,4.7-4.1c0.8-0.4,1.8-0.6,2.7-0.8
				c0.3-0.1,0.6-0.1,0.8-0.2c0.7,0.9,1.4,1.9,2.1,2.7c1.2,1.4,2.8,2.3,4.4,3.1c2.1,1,4.2,1.8,6.5,2.2c1,0.2,1.9,0.3,3,0.4
				c-0.2,0.4-0.3,0.9-0.6,1.3c-1.7,3.2-3.2,6.6-5.1,9.7c-2.6,4.4-5.5,8.6-8.3,13c-1.4,2.3-3.1,4.4-4.5,6.7c-0.9,1.4-1.6,2.9-2.4,4.4
				c-0.1,0.2-0.2,0.3-0.4,0.5c-0.1-0.4-0.3-0.8-0.4-1.2c-1.1-5.4-0.5-10.5,1.9-15.5c0.7-1.6,1.5-3.1,2.2-4.7
				c0.3-0.8,0.5-1.6,0.7-2.5c0-0.2,0-0.4,0-0.6c-0.1,0-0.1,0-0.2,0c-0.1,0.1-0.2,0.3-0.3,0.4c-0.5,1.3-1.1,2.5-1.6,3.8
				c-1.2,2.7-2.7,5.3-3.3,8.2c-0.8,3.7-1.1,7.5-0.2,11.2c0.1,0.6,0.2,1.3,0.8,1.7c-0.4,0.9-0.8,1.9-1.2,2.8
				c-0.1,0.1-0.3,0.2-0.4,0.2c-1.7,0.5-3.3,0.9-5,1.4c-1.4,0.3-2.4,1.2-3.4,2.1c-0.4,0.3-0.6,0.7-0.6,1.2c0,0.5,0.3,0.8,0.8,0.8
				c0.3,0,0.7,0,0.9-0.1c-0.1,0.5-0.3,1-0.3,1.6c0,0.6,0.4,0.8,1.2,0.8c0,0,0.1,0,0.1,0.1c0.1,0.8,0.6,1.1,1.5,0.8
				c0.8-0.3,1.5-0.7,2.3-1c0.2-0.1,0.3-0.1,0.6-0.2c-0.1,0.2-0.2,0.4-0.2,0.6c0,0.1,0,0.4,0.1,0.4c0.1,0,0.3,0,0.4-0.1
				c0.1-0.2,0.2-0.4,0.3-0.7c0.5-1.5,1-3.1,1.5-4.7c0.9-2.7,2.1-5.3,3.5-7.8c1-2,2.3-3.8,3.5-5.6c2.1-3.2,4.2-6.5,6.3-9.7
				c0.1-0.1,0.1-0.2,0.2-0.4c2.3-3,4.1-6.4,6-9.7c1.6-2.8,2.8-5.8,4.2-8.7C98.9,121.8,99,121.3,99.2,120.8z"/>
			<path class="st6" d="M117.1,71.8c-0.1-0.3-0.2-0.5-0.2-0.8c-0.7-3.1-2-5.9-3.4-8.7c-0.7-1.4-1.6-2.7-2.8-3.8
				c-0.3-0.2-0.5-0.5-0.8-0.8c-0.2-0.1-0.4-0.2-0.7-0.3c-0.3,0-0.5,0-0.6,0.4c-0.8,2.9-2.1,5.5-4.5,7.4c-2.4,2-4.8,3.8-7.6,5.3
				c-0.2,0.1-0.4,0.2-0.6,0.3c0.1-0.2,0.1-0.3,0.1-0.4c0.9-2,1.1-4.2,1-6.4c0-0.3-0.1-0.7-0.3-0.8c-0.3-0.2-0.6,0.1-0.9,0.3
				c-1.5,1.4-2.4,3.2-3.2,5c-0.8,1.8-1,3.8-1.2,5.7c-0.5,4.7,0.2,9.3,1.9,13.7c1.1,2.8,2.6,5.3,4.6,7.6c0.6,0.6,1.3,1.2,1.9,1.8
				c0.2,0.2,0.3,0.4,0.3,0.6c0.1,0.5,0.1,1.1,0.2,1.8c-0.7,0.2-1.4,0.4-2.1,0.5c-2.3,0.4-4.5,0.4-6.8,0.2c-1.3-0.1-2.5-0.2-3.8-0.3
				c-0.6-0.1-1.2-0.2-1.7-0.4c-0.7-0.2-1.4-0.3-2.1-0.6c-1.4-0.4-2.1-1.6-2.4-2.9c-0.3-1.2-0.6-2.4-0.7-3.7
				c-0.7-5.2-0.6-10.4,0.1-15.6c0.7-5.8,2.8-11.1,6-15.9c0.7-1.1,1.6-2.1,2.5-3.1c2-2.1,4.2-4.2,6.6-5.8c2.8-1.8,5.8-3,9.1-3.3
				c1.5-0.1,2.9-0.3,4.4-0.2c1.7,0.1,3.4,0.5,4.9,1.3c4.8,2.3,8.9,5.5,12.4,9.5c1.2,1.3,2.2,2.8,3,4.4c1.7,3.5,3.4,7.1,4.6,10.9
				c1.4,4.4,2.5,8.8,2.5,13.5c0,0.7,0.1,1.3,0.2,2c0,0.4,0,0.6-0.3,0.8c-1.1,0.8-2.3,1.5-3.4,2.2c-0.4,0.3-0.9,0.5-1.4,0.7
				c-1.7,1-3.5,1.5-5.4,2c-1.3,0.3-2.5,0.2-3.8,0c-1-0.1-1.9-0.4-2.9-0.5c-0.1,0-0.1,0-0.3-0.1c0-0.2,0.1-0.4,0.1-0.7
				c0.1-0.7,0.3-1.4,0.4-2c0.8-2.8,0.5-5.6,0.4-8.4c0-1.7-0.1-3.3-0.1-5c0-1-0.2-2.1-0.2-3.1c0,0,0-0.1,0-0.1
				c1.2-0.2,1.7-0.9,1.7-2.1c0-1.3-0.5-2.5-1.2-3.6c-0.6-0.9-1.6-0.9-2.4-0.2c-0.2,0.2-0.4,0.4-0.5,0.6
				C117.4,71.3,117.3,71.5,117.1,71.8z"/>
			<path class="st32" d="M99.8,97c-0.4-0.5-0.9-1-1.3-1.5c-2.1-2.5-3.8-5.2-4.8-8.3c-1.6-4.7-2.1-9.5-1.3-14.4
				c0.4-2.7,1.4-5.1,3-7.3c0.3-0.4,0.6-0.7,0.9-1c0,0,0.1,0,0.1,0c0,0.5,0,1,0,1.5c-0.1,2-0.5,3.9-1.4,5.6c-0.1,0.1-0.1,0.4,0,0.5
				c0.1,0.1,0.4,0.1,0.5,0c4-1.9,7.5-4.4,10.6-7.6c1.2-1.2,1.9-2.6,2.4-4.2c0.2-0.7,0.5-1.3,0.8-2c0.1,0,0.2,0.1,0.3,0.2
				c0.5,0.6,1,1.1,1.5,1.7c2.6,3.4,4,7.3,5.2,11.3c0.2,0.7,0.4,1.5,0.6,2.2c0.1,0.2,0.3,0.3,0.4,0.5c0.1-0.2,0.2-0.4,0.2-0.6
				c0-0.9,0.2-1.6,0.8-2.3c0.6-0.7,1.2-0.6,1.7,0.2c0.6,1,1,2,0.9,3.1c0,0.3-0.1,0.6-0.3,0.8c-0.2,0.3-0.4,0.4-0.8,0.2
				c-0.2-0.1-0.5,0-0.7,0c0,0.2,0,0.4,0,0.7c0.1,0.9,0.3,1.7,0.3,2.6c0.1,3.8,0.2,7.5,0.2,11.3c0,1-0.3,1.9-0.5,2.9
				c-0.1,0.8-0.3,1.6-0.5,2.3c-0.2,0.8-0.1,1,0.8,1.3c-0.7,1.4-1.5,2.7-2.7,3.9c-0.3-0.5-0.8-0.7-1.4-0.5c0.5-1.1,0.9-2.2,1.3-3.3
				c0.9-2.5,2-4.9,2.4-7.6c0.1-0.7,0.1-1.4,0.1-2.1c0-0.2-0.2-0.6-0.4-0.7c-0.2-0.1-0.6,0.1-0.8,0.2c-0.4,0.4-0.6,0.9-0.9,1.3
				c-1.9,3.2-3.6,6.6-5.9,9.6c-0.4,0.6-0.8,1.1-1.2,1.7c-0.6,0.8-1.2,1.5-2.1,2c-0.6,0.3-1.4,0.2-1.9-0.3c-0.7-0.7-1.3-1.4-1.6-2.3
				c-0.8-1.8-1.5-3.5-2.3-5.3c-0.2-0.5-0.5-0.9-0.8-1.4c-0.3-0.4-0.6-0.6-1.1-0.5c-0.5,0.2-0.6,0.6-0.5,1c0.1,1,0.2,2.1,0.4,3.1
				c0,0.3,0,0.7,0.1,1C100,96.9,99.9,96.9,99.8,97z M108.9,93c0.7,0,1.2-0.2,1.5-0.7c0.4-0.7,0.8-1.3,1.1-2.1c0.2-0.6,0-0.9-0.6-1
				c-1.6-0.4-3.4,0.9-3.4,2.6c0,0.3,0.2,0.7,0.4,0.8C108.2,92.9,108.6,92.9,108.9,93z M103.9,84.4c-0.2-1.1-0.4-2.1-0.6-3.1
				c-0.2-1.3-0.4-2.6-0.7-3.8c0-0.1-0.2-0.3-0.3-0.4c-0.1,0.2-0.2,0.3-0.2,0.5c0,0.1,0,0.1,0,0.2c0.1,0.8,0.2,1.7,0.3,2.5
				c0.3,1.4,0.6,2.9,0.9,4.3c0.1,0.5,0.4,0.6,0.8,0.3c0.5-0.3,0.9-0.6,1.4-1c0.1-0.1,0.2-0.3,0.2-0.5c-0.2,0-0.4-0.1-0.6,0
				c-0.2,0.1-0.5,0.3-0.7,0.5C104.4,84,104.2,84.2,103.9,84.4z M108.6,65.2c-0.4,0.2-0.9,0.2-1.3,0.5c-0.9,0.5-1.4,1.3-1.5,2.3
				c0,0.1,0.1,0.3,0.2,0.4c0.1-0.1,0.2-0.2,0.3-0.3c0.1-0.1,0.1-0.2,0.1-0.3c0.1-0.6,0.5-1,1-1.4c0.7-0.5,1.4-0.5,2.2,0
				c0.1,0.1,0.2,0.2,0.4,0.2c0.2,0,0.4,0,0.5-0.1c0.1-0.1,0.1-0.4,0-0.5C109.8,65.6,109.3,65.2,108.6,65.2z M93.8,77.6
				c0.1-0.2,0.1-0.3,0.2-0.5c0.2-1,0.7-1.4,1.7-1.2c0.1,0,0.3-0.1,0.5-0.2c-0.1-0.2-0.1-0.4-0.2-0.5c-0.6-0.4-1.2-0.3-1.8,0.2
				c-0.6,0.6-0.9,1.4-0.6,2C93.6,77.6,93.7,77.6,93.8,77.6z M108.2,73.8c0,0.6,0.3,0.9,0.7,0.9c0.4,0,0.6-0.3,0.5-0.9
				c0-0.2-0.1-0.4-0.2-0.5c-0.1-0.1-0.3-0.3-0.5-0.3c-0.2,0-0.4,0.2-0.5,0.3C108.2,73.5,108.2,73.7,108.2,73.8z M97.2,79.9
				c0-0.6-0.3-1.1-0.7-1C96,78.9,96,79.3,96,79.6c0,0.5,0.3,0.9,0.7,0.9C97.1,80.5,97.2,80.2,97.2,79.9z"/>
			<path class="st32" d="M100.5,92.3c0.3,0.4,0.6,0.9,0.8,1.3c0.8,1.7,1.5,3.4,2.3,5.1c0.4,1,1,1.9,1.8,2.7c0.8,0.8,2,1,3,0.4
				c0.9-0.5,1.6-1.2,2.2-2c1.1-1.5,2.2-3,3.1-4.5c1.4-2.3,2.8-4.7,4.1-7c0.2-0.3,0.3-0.6,0.5-0.9c0,0,0.1,0,0.1,0
				c0,0.5,0,0.9-0.1,1.4c-0.4,1.4-0.7,2.9-1.2,4.2c-0.8,2.2-1.6,4.3-2.4,6.5c-0.1,0.3-0.2,0.6-0.2,0.9c0,0.4,0.1,0.5,0.5,0.4
				c1-0.3,1.3-0.1,1.3,1c0,0.4,0,0.7,0,1.1c0,0.4,0.2,0.5,0.5,0.4c0.7-0.3,0.9-0.2,0.9,0.6c0,0.3-0.1,0.5-0.1,0.8
				c0,0.2,0,0.4,0.1,0.5c0.1,0.1,0.3,0.1,0.5,0c0.6-0.3,0.8-0.2,0.9,0.5c0.2,1.3-0.1,2.5-0.6,3.7c-0.5,1.2-1,2.3-1.6,3.5
				c-1.3,2.6-2.7,5.1-4.1,7.7c-0.5,0.9-0.8,1.8-1.2,2.7c-0.1,0.3-0.3,0.4-0.7,0.4c-1.8-0.3-3.6-0.5-5.5-0.8c-0.3,0-0.6-0.1-0.9-0.2
				c-1.4-0.6-2.7-1.3-4.1-1.9c1.3-2.8,1.5-5.9,1.1-9.1c-0.4-2.5-0.6-5-0.5-7.5c0.1-2.3-0.2-4.7-0.5-7c-0.2-1.4-0.3-2.8-0.5-4.1
				c0-0.2,0-0.4,0-0.6C100.4,92.3,100.4,92.3,100.5,92.3z"/>
			<path class="st32" d="M142.8,113.2c-1.6,1.1-3.1,2.3-4.7,3.4c-3.1,2.1-6.5,3.4-9.9,4.7c-2.5,1-5.2,1.5-7.8,2
				c-2.2,0.4-4.3,0.5-6.5,0.3c-0.5,0-1,0-1.6,0c0.2-0.5,0.4-0.8,0.6-1.2c1.3-2.6,2.7-5.2,4-7.8c0.8-1.6,1.7-3.3,2.4-4.9
				c0.4-1,0.5-2.1,0.7-3.2c0.1-0.3,0-0.6-0.1-0.9c-0.2-1-0.5-1.2-1.4-1.2c-0.2-1.8-0.2-1.8-1.5-1.8c0-0.4-0.1-0.8-0.1-1.2
				c0-0.1,0.1-0.2,0.1-0.2c1.2-1,2-2.3,2.7-3.6c0.2-0.4,0.4-0.5,0.8-0.5c0.8,0,0.8,0.1,1,0.9c0.6,3.4,0.7,6.9,1.6,10.2
				c0.3,1.1,1,1.9,2,2.4c2,1.1,4.3,1.5,6.5,1.7c3,0.3,6.1,0.5,9.1,0.7c0.6,0,1.2,0.2,1.8,0.3C142.8,113.1,142.8,113.2,142.8,113.2z"
				/>
			<path class="st32" d="M101,111c0.8,3.7,0.4,7.1-1,9.4c-0.2-0.1-0.3-0.2-0.5-0.3c-0.4-0.3-0.7-0.3-0.9,0.2
				c-0.1,0.1-0.1,0.2-0.1,0.3c-0.1,0.4-0.3,0.4-0.6,0.4c-2.4-0.1-4.7-0.9-7-1.7c-1.7-0.6-3.3-1.5-4.8-2.6c-1.2-0.9-2.2-2-2.9-3.4
				c0,0,0-0.1,0-0.1C89,112.4,95.1,112.5,101,111z"/>
			<path class="st32" d="M89.7,176.3c0.1-0.1,0.1-0.2,0.2-0.3c2.1-2.5,3.7-5.3,5.4-8.1c0.2-0.3,0.3-0.4,0.6-0.3
				c0.7,0.2,1.4,0.4,2.1,0.6c-0.6,3.3-1.6,6.5-2.8,9.7C93.4,177.3,91.6,176.8,89.7,176.3z"/>
			<path class="st32" d="M74.8,161.9c0,0.5-0.3,0.5-0.6,0.7c-1.1,0.5-2.2,1-3.3,1.6c-0.9,0.5-1.7,1.1-2.6,1.6
				c-0.5,0.2-1.1,0.3-1.6,0.4c-0.4,0.1-0.5-0.2-0.3-0.5c0-0.1,0.1-0.2,0.2-0.2c0.9-0.8,1.7-1.6,2.9-1.9c1.6-0.5,3.3-0.9,4.9-1.4
				C74.5,161.9,74.7,161.9,74.8,161.9z"/>
			<path class="st32" d="M74.5,163c-0.2,0.6-0.4,1.1-0.6,1.7c-0.1,0.2-0.3,0.3-0.5,0.3c-1.2,0.3-2.3,0.8-3.3,1.6
				c-0.3,0.3-0.7,0.6-0.9,1c-0.2,0.3-0.5,0.5-0.8,0.6c-0.1,0-0.3,0-0.4-0.1c-0.1-0.1-0.1-0.3-0.1-0.4c0.2-0.8,0.8-1.3,1.4-1.7
				c1.7-1,3.4-2,5.1-2.9C74.4,163,74.4,163,74.5,163z"/>
			<path class="st32" d="M73.7,165.6c-0.2,0.6-0.3,1.3-0.6,1.8c-0.1,0.3-0.5,0.5-0.8,0.6c-0.8,0.4-1.7,0.8-2.5,1.1
				c-0.2,0.1-0.4,0.1-0.6,0.1C69.3,167.3,72.3,165.7,73.7,165.6z"/>
			<path class="st6" d="M108.9,93c-0.3-0.1-0.7-0.1-1-0.3c-0.2-0.2-0.4-0.5-0.4-0.8c0-1.7,1.8-3.1,3.4-2.6c0.6,0.2,0.8,0.4,0.6,1
				c-0.3,0.7-0.7,1.4-1.1,2.1C110.1,92.8,109.6,93,108.9,93z M110.6,90.6c-0.8,0.5-1.6,1-2.4,1.5C109.5,92.6,110.2,92.2,110.6,90.6z
				 M108,91.5c0.9-0.6,1.7-1.1,2.5-1.7C109.4,89.6,108.1,90.5,108,91.5z"/>
			<path class="st6" d="M103.9,84.4c0.3-0.2,0.5-0.4,0.7-0.5c0.2-0.2,0.4-0.4,0.7-0.5c0.2-0.1,0.4,0,0.6,0c-0.1,0.2-0.1,0.4-0.2,0.5
				c-0.4,0.4-0.9,0.7-1.4,1c-0.4,0.3-0.7,0.2-0.8-0.3c-0.3-1.4-0.7-2.9-0.9-4.3c-0.2-0.8-0.2-1.7-0.3-2.5c0-0.1,0-0.1,0-0.2
				c0.1-0.2,0.1-0.3,0.2-0.5c0.1,0.1,0.3,0.2,0.3,0.4c0.2,1.3,0.4,2.6,0.7,3.8C103.5,82.3,103.7,83.3,103.9,84.4z"/>
			<path class="st6" d="M108.6,65.2c0.7,0.1,1.3,0.5,1.7,1c0.1,0.1,0.1,0.4,0,0.5c-0.1,0.1-0.3,0.1-0.5,0.1c-0.1,0-0.2-0.1-0.4-0.2
				c-0.7-0.5-1.4-0.5-2.2,0c-0.5,0.3-0.9,0.8-1,1.4c0,0.1,0,0.2-0.1,0.3c-0.1,0.1-0.2,0.2-0.3,0.3c-0.1-0.1-0.2-0.3-0.2-0.4
				c0.1-1,0.6-1.8,1.5-2.3C107.6,65.4,108.1,65.3,108.6,65.2z"/>
			<path class="st6" d="M93.8,77.6c-0.1-0.1-0.2-0.1-0.2-0.1c-0.3-0.5,0-1.4,0.6-2c0.5-0.5,1.2-0.6,1.8-0.2c0.1,0.1,0.1,0.3,0.2,0.5
				c-0.2,0.1-0.3,0.2-0.5,0.2c-1-0.2-1.6,0.2-1.7,1.2C93.9,77.3,93.9,77.5,93.8,77.6z"/>
			<path class="st6" d="M108.2,73.8c0-0.1,0-0.3,0.1-0.4c0.1-0.2,0.3-0.3,0.5-0.3c0.1,0,0.3,0.1,0.5,0.3c0.1,0.1,0.2,0.3,0.2,0.5
				c0.1,0.5-0.1,0.9-0.5,0.9C108.5,74.8,108.2,74.4,108.2,73.8z"/>
			<path class="st6" d="M97.2,79.9c0,0.3-0.1,0.6-0.5,0.6c-0.4,0-0.7-0.3-0.7-0.9c0-0.3,0-0.7,0.4-0.8
				C96.8,78.8,97.2,79.3,97.2,79.9z"/>
			<path class="st32" d="M110.6,90.6c-0.4,1.6-1.2,2-2.4,1.5C109.1,91.6,109.8,91.2,110.6,90.6z"/>
			<path class="st32" d="M108,91.5c0.1-1,1.4-1.9,2.5-1.7C109.7,90.4,108.9,91,108,91.5z"/>
		</g>
	</g>
	<path class="st62" d="M97.9,162.6c0,0,15.5,5.4,38.3,1.2"/>
	<path class="st62" d="M99.8,159.1c0,0,14.3,5,37.2,0.8"/>
	<path class="st62" d="M101.3,155.6c0,0,13.6,4.7,36.4,0.4"/>
	<path class="st62" d="M103.3,152.1c0,0,13.2,3.5,34.9,0"/>
	<path class="st63" d="M77.1,145.2c0,0,3.3,1.5,6.7,2.2"/>
	<path class="st63" d="M76.3,148.3c0,0,2.2,0.7,5.6,1.9"/>
	<path class="st63" d="M75.9,154.5c0,0,2.6,1.1,3,1.1"/>
	<path class="st63" d="M75.9,151c0,0,3,1.5,4.5,1.9"/>
</g>
</svg>
