<?xml version="1.0" encoding="utf-8"?>
<!-- Generator: Adobe Illustrator 23.0.1, SVG Export Plug-In . SVG Version: 6.00 Build 0)  -->
<svg version="1.1" xmlns="http://www.w3.org/2000/svg" xmlns:xlink="http://www.w3.org/1999/xlink" x="0px" y="0px"
	 viewBox="0 0 255 255" style="enable-background:new 0 0 255 255;" xml:space="preserve">
<style type="text/css">
	.st0{opacity:0.4;fill:url(#SVGID_1_);}
	.st1{opacity:0.6;fill:url(#SVGID_2_);}
	.st2{opacity:0.6;fill:url(#SVGID_3_);}
	.st3{opacity:0.6;fill:url(#SVGID_4_);}
	.st4{opacity:0.6;fill:url(#SVGID_5_);}
	.st5{opacity:0.6;fill:url(#SVGID_6_);}
	.st6{fill:#1F2B50;}
	.st7{fill:none;stroke:#1F2B50;stroke-width:3;stroke-miterlimit:10;}
	.st8{opacity:0.4;fill:url(#SVGID_7_);}
	.st9{opacity:0.4;fill:url(#SVGID_8_);}
	.st10{opacity:0.6;fill:url(#SVGID_9_);}
	.st11{opacity:0.6;fill:url(#SVGID_10_);}
	.st12{opacity:0.4;fill:url(#SVGID_11_);}
	.st13{opacity:0.4;fill:url(#SVGID_12_);}
	.st14{opacity:0.4;fill:url(#SVGID_13_);}
	.st15{opacity:0.4;fill:url(#SVGID_14_);}
	.st16{opacity:0.4;fill:url(#SVGID_15_);}
	.st17{opacity:0.4;fill:url(#SVGID_16_);}
	.st18{opacity:0.4;fill:url(#SVGID_17_);}
	.st19{fill:url(#SVGID_18_);}
	.st20{fill:url(#SVGID_19_);}
	.st21{fill:url(#SVGID_20_);}
	.st22{opacity:0.6;fill:url(#SVGID_21_);}
	.st23{opacity:0.6;fill:url(#SVGID_22_);}
	.st24{opacity:0.6;fill:url(#SVGID_23_);}
	.st25{opacity:0.6;fill:url(#SVGID_24_);}
	.st26{opacity:0.6;fill:url(#SVGID_25_);}
	.st27{opacity:0.6;fill:url(#SVGID_26_);}
	.st28{opacity:0.6;fill:url(#SVGID_27_);}
	.st29{opacity:0.6;fill:url(#SVGID_28_);}
	.st30{fill:url(#SVGID_29_);}
	.st31{fill:url(#SVGID_30_);}
	.st32{fill:#EA9001;}
	.st33{fill:#407EA7;}
	.st34{opacity:0.5;fill:#FFFFFF;}
	.st35{fill:none;stroke:#EA9001;stroke-width:2;stroke-miterlimit:10;}
	.st36{fill:#BECBCC;}
	.st37{fill:#FFFFFF;}
	.st38{fill:#979B9B;}
	.st39{fill:none;stroke:#407EA7;stroke-width:3;stroke-miterlimit:10;}
	.st40{fill:none;stroke:#407EA7;stroke-width:3.0377;stroke-miterlimit:10;}
	.st41{fill:none;stroke:#407EA7;stroke-width:2.8985;stroke-miterlimit:10;}
	.st42{fill:none;stroke:#407EA7;stroke-width:2.933;stroke-miterlimit:10;}
	.st43{fill:none;stroke:#EA9001;stroke-width:1.8227;stroke-miterlimit:10;}
	.st44{fill:#AAB2B2;}
	.st45{fill:none;stroke:#407EA7;stroke-width:3.0142;stroke-miterlimit:10;}
	.st46{fill:none;stroke:#407EA7;stroke-width:3.0512;stroke-miterlimit:10;}
	.st47{fill:#D3DDDD;}
	.st48{fill:none;stroke:#1F2B50;stroke-miterlimit:10;}
	.st49{fill:#BECBCC;stroke:#1F2B50;stroke-width:0.75;stroke-miterlimit:10;}
	.st50{fill:url(#SVGID_31_);}
	.st51{fill:none;stroke:#407EA7;stroke-width:2.8066;stroke-linecap:round;stroke-miterlimit:10;}
	.st52{fill:none;stroke:#407EA7;stroke-width:2.7511;stroke-linecap:round;stroke-miterlimit:10;}
	.st53{fill:url(#SVGID_32_);}
	.st54{fill:none;stroke:#EA9001;stroke-width:0.8;stroke-miterlimit:10;}
	.st55{fill:none;stroke:#407EA7;stroke-width:1.2;stroke-miterlimit:10;}
	.st56{fill:none;stroke:#407EA7;stroke-width:1.2151;stroke-miterlimit:10;}
	.st57{fill:none;stroke:#407EA7;stroke-width:1.1594;stroke-miterlimit:10;}
	.st58{fill:none;stroke:#407EA7;stroke-width:1.1732;stroke-miterlimit:10;}
	.st59{fill:url(#SVGID_33_);}
	.st60{fill:none;stroke:#1F2B50;stroke-width:0.4;stroke-miterlimit:10;}
	.st61{fill:#BECBCC;stroke:#1F2B50;stroke-width:0.3;stroke-miterlimit:10;}
	.st62{fill:none;stroke:#407EA7;stroke-width:1.1226;stroke-linecap:round;stroke-miterlimit:10;}
	.st63{fill:none;stroke:#407EA7;stroke-width:1.1004;stroke-linecap:round;stroke-miterlimit:10;}
	.st64{fill:url(#SVGID_34_);}
	.st65{fill:url(#SVGID_35_);}
</style>
<g id="Calque_2">
</g>
<g id="Calque_1">
</g>
<g id="Calque_3">
	
		<linearGradient id="SVGID_1_" gradientUnits="userSpaceOnUse" x1="810.8516" y1="1012.9776" x2="1015.2516" y2="1012.9776" gradientTransform="matrix(0.6517 0.7585 -0.7585 0.6517 293.7163 -1227.6075)">
		<stop  offset="0" style="stop-color:#E0E8F0"/>
		<stop  offset="1" style="stop-color:#F8D5CA"/>
	</linearGradient>
	<circle style="fill:url(#SVGID_1_);" cx="120.4" cy="125.1" r="102.2"/>
	<g>
		<g id="XHtLJe.tif_3_">
			<g>
				<path class="st6" d="M189.8,193c0.1-0.4,0.3-0.7,0.4-1.1c0.3-0.8,0.7-1.5,1.3-2.1c0.2-0.2,0.5-0.3,0.8-0.2
					c0.3,0.1,0.3,0.3,0.3,0.6c0.1,1.1,0,2.2-0.5,3.2c-0.1,0.2-0.2,0.4-0.2,0.7c0.2-0.3,0.5-0.7,0.7-1c0.4-0.6,0.7-1.3,1.1-1.9
					c0.2-0.4,0.6-0.7,1-0.8c0.4-0.1,0.5,0.1,0.6,0.4c0.2,1.6-0.5,2.9-1.1,4.2c-0.1,0.3-0.3,0.6-0.4,0.9c0.2-0.2,0.4-0.5,0.6-0.7
					c0.5-0.6,1-1.2,1.5-1.8c0.3-0.3,0.6-0.4,1-0.4c0.4,0,0.6,0.1,0.6,0.5c0.2,0.9-0.1,1.8-0.6,2.6c-0.6,1.2-1.5,2.2-2.5,3.1
					c-0.2,0.2-0.4,0.3-0.6,0.4c-1.1,0.6-2.3,1.2-3.6,1.4c-0.1,0-0.1,0-0.2,0c-0.6,0.1-0.6,0.2-0.5,0.8c0.1,1.4,0.3,2.8,0.3,4.2
					c0.1,1.6,0,3.3,0,4.9c0,0.3,0,0.7-0.1,1c0,0.1-0.2,0.2-0.3,0.3c-0.2,0.1-0.4,0.2-0.6,0.3c-0.1,0.1-0.3,0.2-0.4,0.2
					c-2.1,0.9-4.3,1.8-6.5,2.4c-2.3,0.6-4.5,1.1-6.8,1.6c-0.9,0.2-1.8,0.2-2.7,0.3c-1.8,0.1-3.7,0-5.5-0.3c-0.7-0.1-1.4-0.2-2.1-0.4
					c-0.1,0-0.3-0.1-0.4-0.2c-2.1-2.4-3.6-5.1-4.7-8c-0.8-2-1.6-4.1-1.9-6.3c-0.1-0.5-0.3-1-0.4-1.5c0,0-0.1,0-0.1,0
					c-0.2,0.5-0.4,1.1-0.6,1.6c-0.8,2-1.6,4.1-2.4,6.1c-0.4,1.1-0.9,2.1-1.3,3.2c-0.1,0.2-0.2,0.4-0.2,0.6c-0.4,1.6-1.1,3-1.9,4.5
					c0.2,0,0.3,0,0.5-0.1c-0.3,0.3-0.7,0.5-1,0.5c-0.7,0.1-1.3,0.2-2,0.3c-1.4,0.1-2.7,0.3-4.1,0.4c0,0,0,0-0.1,0
					c-3,0-5.9,0.1-8.9-0.3c-1.2-0.2-2.4-0.4-3.6-0.7c-0.2,0-0.4-0.1-0.6-0.2c-0.7-0.2-1.3-0.3-2-0.5c-0.3-0.1-0.5-0.1-0.8-0.2
					c-0.9-0.4-1.8-0.8-2.7-1.1c-0.3-0.1-0.7-0.3-1.1-0.3c-0.8-0.1-1.5-0.5-2-1.1c-0.3-0.3-0.7-0.5-1.1-0.5c-0.3,0-0.3-0.2-0.4-0.4
					c0-0.4,0-0.7,0-1.1c0.1-3.5,0.6-6.9,1.3-10.4c0.2-0.8,0.5-1.5,0.7-2.3c0.5-1.6,1-3.2,1.4-4.8c0.3-1.3,0.8-2.6,1.4-3.9
					c0.7-1.7,1.4-3.5,1.8-5.4c0.2-0.8,0.2-0.7-0.6-1c-2.1-0.8-4.1-1.6-6.1-2.4c-2.1-0.8-4.1-1.6-6.2-2.4c-1.7-0.6-3.3-1.4-4.9-2.3
					c-0.8-0.5-1.5-1-2.3-1.5c-0.1-0.1-0.2-0.1-0.2-0.1c-0.9-0.1-1-0.8-1.3-1.4c-0.6-1.4-0.6-2.9-0.4-4.3c0.3-2.8,0.8-5.5,1.2-8.3
					c0.4-2.6,0.7-5.2,1.4-7.8c0.6-2.4,1.3-4.8,1.8-7.2c0.5-2,0.9-4,1.4-6c0.7-2.5,1.4-4.9,2.1-7.4c0.7-2.4,1.5-4.8,2.1-7.3
					c0.4-1.6,0.9-3.2,1.4-4.7c0.6-1.6,1.3-3.1,2-4.7c0.6-1.4,1.4-2.6,2.4-3.8c1.8-2.2,4.1-3.6,6.7-4.5c2.4-0.8,4.8-1.4,7.2-2.2
					c1.6-0.5,3.2-1.1,4.8-1.7c0.2-0.1,0.3-0.1,0.5-0.2c1.6-0.4,3.1-1.2,4.7-1.8c0.5-0.2,1-0.5,1.4-0.8c0.8-0.5,1.6-1,2.2-1.7
					c0.1-0.2,0.2-0.3,0.2-0.6c0-1-0.1-2.1-0.1-3.1c0-0.1,0-0.2,0-0.2c-1.2-2.8-2-5.7-2.9-8.6c-0.3-1-0.5-2.1-0.8-3.1
					c0,0,0-0.1,0-0.1c-0.9,0.6-1.7,0.3-2-0.8c-0.2-0.7-0.4-1.3-0.4-2.1c0.1-1.1,0.1-2.2,0.1-3.3c0-0.1,0-0.2,0.1-0.3
					c0.3-0.6,0.2-1.2,0.2-1.8c0-1.6,0-3.2,0.1-4.8c0.1-1.6,0.4-3.2,1-4.7c0.2-0.5,0.4-1.1,0.6-1.6c1.5-3.8,4-6.6,7.5-8.6
					c1.7-1,3.6-1.5,5.5-1.8c0.3-0.1,0.7,0,1,0c1,0,2,0.1,3,0.1c1.2,0.1,2.4,0.1,3.5,0.3c0.9,0.1,1.8,0.5,2.5,1
					c0.7,0.6,1.4,1.1,2.1,1.6c1.2,1,2,2.3,2.8,3.7c1.1,2.1,1.9,4.2,2.6,6.5c0.3,1.1,0.6,2.2,0.8,3.3c0.3,1.7,0.4,3.5,0.1,5.3
					c-0.1,0.5-0.1,0.9-0.2,1.4c-0.1,0.2-0.3,0.4-0.3,0.7c0,0.4,0,0.8,0,1.1c0,0.2,0,0.3,0,0.5c-0.1,0.5-0.1,1-0.2,1.5
					c0,0.2-0.1,0.5-0.1,0.7c-0.2,1-0.8,1.6-1.8,1.8c-0.2,0-0.4,0.3-0.4,0.5c-0.2,1.5-0.3,3.1-0.4,4.6c-0.1,1.2,0.1,2.3,0.7,3.4
					c0.4,0.7,0.7,1.5,1.2,2.1c0.5,0.7,1.1,1.3,1.7,1.9c0.4,0.4,0.8,0.9,1.2,1.2c0.5,0.4,1.1,0.7,1.7,1.1c0.7,0.4,1.4,0.8,2,1.3
					c0.5,0.4,0.9,0.9,1.4,1.3c1.5,1.3,2.1,3,2.2,4.9c0,0.1,0,0.2,0,0.2c0.4,0.1,0.8,0.2,1.3,0.3c1.6,0.4,3,1.2,4.4,2.2
					c0.3,0.2,0.7,0.5,1,0.9c1.3,1.5,2.4,3,3.3,4.7c0.8,1.4,1.6,2.8,2.5,4.2c1,1.7,1.9,3.4,2.9,5c0.7,1.2,1.5,2.4,2.2,3.7
					c0.4,0.6,0.7,1.2,1.1,1.8c0.4,0.6,0.7,1.2,1.1,1.7c1.6,2.1,3,4.3,4.5,6.6c1,1.7,2.1,3.3,3.1,5c0.9,1.4,1.5,3,2.1,4.5
					c0.2,0.5,0.3,1.1,0.3,1.7c0,1,0,2-0.1,3c-0.1,0.7-0.2,1.3-0.8,1.8c0,0,0,0.1-0.1,0.1c-1.2,2.7-3,5.1-4.7,7.4
					c-1,1.3-2,2.5-3.1,3.7c-1.5,1.8-3,3.5-4.5,5.4c-1.7,2.2-3.6,4.3-5.4,6.4c-2.1,2.4-4,4.9-6,7.4c-0.6,0.7-1.2,1.5-1.8,2.3
					c-0.2,0.3-0.2,0.7-0.1,1c0.4,1.5,0.7,2.9,1.1,4.4C189.4,191.5,189.6,192.2,189.8,193z M180.9,172.9c-0.1,0-0.1,0-0.2,0
					c0.7,2.1,1.4,4.1,2.1,6.2c0.6,1.7,1.4,3.3,2.1,5c0,0.1,0.1,0.2,0.2,0.2c0.7,0.3,1.5,0.5,2.2,0.8c0.2,0.1,0.3,0,0.4-0.2
					c0.4-0.5,0.9-1.1,1.3-1.6c1.4-1.8,2.8-3.6,4.2-5.3c1.9-2.3,3.9-4.6,5.9-6.9c1.2-1.4,2.3-2.8,3.5-4.3c0.9-1.1,1.8-2.3,2.8-3.4
					c1.9-1.9,3.3-4.1,4.8-6.3c0.1-0.1,0.1-0.2,0.2-0.3c0.6-0.9,1.2-1.8,1.8-2.7c0.5-0.7,1-1.4,1.1-2.3c0-0.2,0.1-0.5,0.3-0.6
					c0.3-0.2,0.3-0.5,0.3-0.8c0-0.1,0-0.3,0.1-0.5c0-1.3,0.2-2.6-0.3-3.8c-0.4-1.1-0.9-2.2-1.5-3.2c-0.6-1.2-1.4-2.3-2.1-3.4
					c-1.5-2.4-3-4.7-4.5-7.1c-0.4-0.6-0.8-1.1-1.2-1.7c-0.5-0.8-1.1-1.5-1.6-2.3c-0.4-0.6-0.7-1.2-1-1.7c-0.8-1.2-1.5-2.5-2.3-3.7
					c-1-1.7-1.9-3.4-2.9-5c-0.8-1.4-1.7-2.8-2.4-4.2c-0.9-1.6-2-3.2-3.2-4.6c-0.3-0.3-0.6-0.6-0.9-0.8c-1.4-1.1-3-1.9-4.6-2.4
					c-0.2-0.1-0.4-0.1-0.6-0.1c0,0.1-0.1,0.2-0.1,0.3c-0.4,1.8-1.3,3.4-2.9,4.5c-0.2,0.2-0.4,0.4-0.6,0.6c-0.3,0.4-0.3,0.4,0.1,0.7
					c0.9,0.7,1.4,1.6,1.8,2.6c0.8,2.1,1.2,4.2,1.1,6.4c-0.1,0.9-0.3,1.8-0.8,2.5c-0.6,0.8-1.3,1.6-2.4,2c-0.1,0-0.2,0.2-0.2,0.3
					c-0.1,0.7,0,1.5-0.2,2.2c-0.4,1.9-0.9,3.8-1.4,5.7c-0.4,1.4-1,2.8-1.5,4.2c-1,2.7-2.1,5.4-3.1,8c-0.5,1.3-1.2,2.6-1.7,4
					c-1.1,2.6-2.3,5-3.9,7.3c-0.3,0.4-0.5,0.8-0.6,1.3c-0.5,2.3-1,4.5-1.4,6.8c-0.4,1.9-0.8,3.7-1.1,5.6c0,0.1,0,0.2,0.1,0.3
					c0.7,0.5,1.3,0.9,2,1.4c0.3,0.2,0.4,0.4,0.4,0.7c0.1,0.7-0.2,1.2-0.7,1.6c-0.1,0.1-0.2,0.1-0.2,0.2c0,0.3,0,0.7,0.1,1
					c0.2,0.6,0,1.2-0.1,1.8c0,0.1-0.1,0.2-0.2,0.2c-0.2,0.1-0.1,0.2-0.1,0.4c0.1,0.4,0.3,0.9,0.4,1.3c0.1,0.4,0,0.7-0.3,1.1
					c-0.2,0.2-0.4,0.5-0.6,0.7c-0.3,0.2-0.4,0.5-0.3,0.9c0,0.1,0,0.3,0,0.4c-0.2,0.6-0.2,1.1-0.5,1.7c-0.3,0.5-0.5,0.8-1,1.1
					c-0.2,0.1-0.2,0.2-0.2,0.4c0.2,1-0.3,1.8-1.1,2.3c-0.3,0.2-0.6,0.3-0.9,0.5c-0.1,0-0.1,0.2-0.2,0.3c0,0.1,0,0.2,0,0.3
					c-0.3,1.3-0.6,2.5-0.9,3.8c-0.2,0.6-0.3,0.7-0.9,0.8c-0.6,0-1.3,0.1-1.9,0.1c-0.2,0-0.4,0-0.4,0.3c-0.1,1.6-0.3,3.1-0.5,4.6
					c0,0.3,0.1,0.6,0.1,0.9c0.2,0.6,0.5,1.1,0.6,1.7c0.5,2.2,1.3,4.2,2.1,6.3c0.9,2.4,2.3,4.7,3.8,6.8c0.3,0.5,0.7,0.9,1.3,0.9
					c0.4,0,0.7,0.1,1.1,0.2c2.3,0.4,4.6,0.4,7,0.2c0.2,0,0.4,0,0.6-0.1c1.8-0.4,3.6-0.8,5.3-1.2c1.6-0.4,3.2-0.8,4.8-1.4
					c1.3-0.4,2.5-0.9,3.7-1.5c0.7-0.3,1.2-0.8,1.1-1.7c-0.1-2.3-0.1-4.6-0.2-6.9c-0.1-1.6-0.3-3.3-0.8-4.9c-0.3-0.9-0.5-1.9-0.7-2.9
					c-0.3-1.1-0.6-2.1-0.9-3.2c-0.5-2.1-1-4.2-1.7-6.3c-0.2-0.5-0.6-0.7-1.1-0.8c-0.7-0.1-1.4-0.1-2.1-0.1c-2.2,0-4.3,0-6.5,0.3
					c-0.7,0.1-1.4,0.1-2.1,0.1c-0.6,0-0.7-0.2-0.9-0.7c-0.3-0.8-0.5-1.6-1-2.2c-0.1-0.1-0.2-0.3-0.3-0.5c-0.2-0.4-0.3-0.8-0.5-1.1
					c-0.2-0.4-0.1-0.6,0.3-0.7c0.1,0,0.2,0,0.3-0.1c0.5-0.2,0.9-0.3,1.4-0.5c0.8-0.3,1.5-0.5,2.4-0.5c2,0,4.1,0,6.1,0
					c0.3,0,0.7,0,1.1,0c-0.1-0.2-0.1-0.3-0.1-0.4c-0.5-1.5-1-3-1.5-4.5c-0.4-1.4-0.8-2.7-0.8-4.2c-0.1-2.4,0.1-4.7,0.5-7
					c0.3-2,0.8-3.9,1.3-5.9c0.7-3.2,1.7-6.4,2.6-9.5c0.7-2.2,1.2-4.4,1.9-6.6c0.6-2.1,0.9-4.2,1.2-6.4c0.2-1.7,0.3-3.3,0.5-5
					c0.1-0.6,0.2-1.2,0.3-1.8c0-0.1,0.2-0.2,0.2-0.3c0.1,0.1,0.2,0.2,0.2,0.3c0,0.3,0,0.6,0,0.9c-0.2,0.9-0.1,1.9-0.4,2.8
					c-0.1,0.5-0.1,1-0.1,1.5c-0.1,1.3-0.2,2.5-0.4,3.8c0,0.3,0.1,0.4,0.2,0.6c0.4,0.5,0.8,0.9,1.1,1.4c0.2,0.3,0.4,0.7,0.7,0.9
					c0.9,0.8,1.5,1.8,2.1,2.7c0.2,0.2,0.4,0.5,0.5,0.7c1.5,1.7,2.9,3.5,4,5.5c0.4,0.7,0.8,1.4,1.2,2.2c0.1,0.3,0.1,0.5-0.2,0.6
					c-0.1,0-0.2,0.1-0.2,0.2c-0.9,1.7-2,3.3-3.2,4.8c-1.2,1.4-2.3,2.8-3.4,4.2c-1.7,2.1-3.3,4.2-5,6.3c-1.4,1.8-2.7,3.5-4.1,5.3
					C181.1,172.7,181,172.8,180.9,172.9z M131.2,112.4c-0.1,0.6-0.1,1.1-0.2,1.6c-0.3,1.7-0.7,3.4-1.1,5.1c-0.6,2.8-1.1,5.5-1.7,8.3
					c-0.6,2.9-1.2,5.8-1.8,8.8c-0.3,1.3-0.5,2.6-0.7,3.9c-0.3,1.6-0.4,3.2-0.7,4.8c-0.5,2.8-1,5.5-1.5,8.3c-0.6,3.2-1.2,6.3-1.6,9.5
					c0,0.4,0,0.5,0.4,0.7c1,0.4,2,0.9,3,1.3c0.4,0.2,0.8,0.4,1.3,0.5c2.4,0.6,4.8,1.2,7.2,1.7c3.6,0.7,7.3,1.3,11,1.5
					c1.7,0.1,3.3,0.2,5,0.4c0.7,0.1,1.5,0.2,2.2,0.4c0.4,0.1,0.8,0.1,1.2-0.1c0.5-0.2,1-0.6,1.6-0.8c0.4-0.2,0.8-0.3,1.2-0.3
					c1.7-0.1,3.5,0.1,5.2,0.3c0.2,0,0.4,0,0.4-0.2c0.4-1.3,0.8-2.7,1.1-4c0.4-1.6,0.7-3.2,1-4.7c0.6-3,1.1-6.1,1.7-9.1
					c0.6-3.4,1.2-6.8,1.8-10.2c0.6-3.2,1.4-6.5,2.1-9.7c0.1-0.6,0.1-0.7-0.5-0.9c-1.3-0.6-2.7-1.3-4-1.9c-2-0.9-4-1.7-6-2.5
					c-2.8-1.1-5.6-2.2-8.4-3.4c-3-1.3-5.9-2.7-8.9-4c-0.6-0.3-1.2-0.6-1.9-0.9c-1.1-0.5-2.1-1.1-3.2-1.6c-1.5-0.8-3-1.6-4.6-2.4
					C131.6,112.5,131.5,112.5,131.2,112.4z M146.1,101.5c-0.1,0-0.1,0.1-0.2,0.1c-1.2,0.6-2.4,1.2-3.7,1.7c-1.5,0.6-3,1.1-4.6,1.6
					c-2.6,0.8-5.1,1.6-7.7,2.5c-1.5,0.5-2.9,1-4.3,1.7c-2.4,1.2-4.1,3.1-5.4,5.4c-1.3,2.4-2.5,4.8-3.1,7.5c-0.3,1.3-0.9,2.5-1.2,3.8
					c-0.4,2-1.1,4-1.7,5.9c-0.7,2.4-1.5,4.7-2.1,7c-1.2,4.7-2.3,9.5-3.5,14.2c-0.5,1.9-0.8,3.8-1.1,5.7c-0.3,2.1-0.6,4.2-0.9,6.2
					c-0.4,2.1-0.6,4.2-0.5,6.3c0.1,1.2,0.4,2.4,1.5,3.2c1.8,1.2,3.6,2.2,5.6,3c1.7,0.7,3.5,1.3,5.2,2c3,1.1,5.9,2.3,8.9,3.4
					c1.9,0.7,3.8,1.3,5.7,1.9c1.2,0.4,2.5,0.8,3.7,1.2c1.2,0.4,2.3,0.7,3.5,1c3,0.6,5.9,1.3,9,1.8c0.3,0,0.6,0.1,1,0.1
					c-0.2-0.4-0.3-0.6-0.5-0.9c-0.5-1.3-0.7-2.6-0.7-3.9c0-1.7,0.1-3.4,0.3-5.1c0.1-1.4,0.3-2.9,0.6-4.2c0.4-1.5,1.1-2.9,1.6-4.4
					c0-0.1,0.1-0.2,0.2-0.4c-0.2-0.1-0.5-0.2-0.7-0.2c-1.5-0.2-2.9-0.3-4.4-0.4c-1.3-0.1-2.6-0.1-3.8-0.2c-2.2-0.3-4.5-0.6-6.7-0.9
					c-1.8-0.3-3.5-0.7-5.3-1c-3.1-0.5-6-1.6-8.9-2.9c-0.2-0.1-0.4-0.1-0.6-0.2c-0.1,0-0.2-0.1-0.2-0.2c-0.1-0.1-0.3-0.3-0.4-0.4
					c-0.3-0.2-0.7-0.4-1-0.6c-0.4-0.3-0.8-0.5-1.3-0.8c-0.1-0.1-0.2-0.2-0.3-0.4c0.5,0,0.9,0.1,1.3,0.4c0.6,0.4,1.2,0.7,1.9,1
					c0.1-0.8,0.2-1.5,0.3-2.1c0.3-2.1,0.7-4.1,1-6.2c0.7-3.8,1.5-7.7,2-11.6c0.3-2.6,0.8-5.3,1.3-7.9c0.3-1.5,0.7-3,1-4.5
					c0.6-2.7,1.1-5.3,1.6-8c0.7-3.6,1.5-7.1,2.3-10.7c0.6,0,1.1,0,1.5,0.1c1.7,0.5,3.4,1,5,1.7c1.8,0.7,3.7,1.3,5.6,1.9
					c0.1,0,0.2,0.1,0.3,0.1c0.5-0.2,0.9-0.5,1.3-0.7c-0.4-0.4-0.7-0.8-1.1-1.3c-0.3-0.4-0.7-0.8-1-1.1c-0.4-0.5-0.9-0.9-1.3-1.3
					c-0.3-0.4-0.4-0.8-0.2-1.3c0.8-2.1,1.8-4.1,3.1-5.9C144.7,103.2,145.4,102.4,146.1,101.5z M128,183.6c0,0.3,0,0.6-0.1,0.8
					c-0.2,1.7-0.8,3.4-1.4,5c-0.5,1.4-1.1,2.8-1.5,4.3c-0.6,2.2-1.3,4.3-1.9,6.4c-0.8,3.2-1.4,6.4-1.4,9.7c0,0.6-0.1,1.2-0.1,1.8
					c0,0.2,0,0.4,0.3,0.4c0.3,0.1,0.6,0.2,0.9,0.4c0.6,0.4,1.2,0.8,2,0.9c0.3,0,0.7,0.2,1,0.3c1.4,0.5,2.8,1.4,4.4,1.4
					c0.1,0,0.2,0,0.3,0.1c1,0.4,2,0.5,3,0.7c1.1,0.1,2.2,0.5,3.3,0.5c2.8,0.2,5.5,0.3,8.3,0c1.5-0.1,2.9-0.3,4.4-0.4
					c0.8,0,1.2-0.5,1.5-1.1c0.3-0.5,0.5-1,0.7-1.5c0.3-0.9,0.6-1.8,1-2.7c0.4-1.1,0.9-2.2,1.3-3.3c0.9-2.4,1.9-4.8,2.8-7.2
					c0.2-0.4,0.4-0.9,0.4-1.3c0.1-1.1,0.2-2.1,0.3-3.2c0-0.5,0.1-1,0.2-1.6c-0.1,0-0.2,0-0.3,0c-0.6,0.1-1.3,0.3-1.7-0.4
					c0,0-0.1-0.1-0.1-0.1c-0.8-0.5-1.6-1.1-2.4-1.6c-0.5-0.3-1-0.7-1.5-0.9c-0.8-0.4-1.5-1-2.3-1.5c-0.6-0.4-1.1-0.9-1.8-1
					c-1.5-0.3-3-0.6-4.4-0.9c-1.5-0.3-2.9-0.6-4.4-1c-1-0.3-2-0.6-3-1c-2.2-0.7-4.4-1.3-6.5-2C128.8,183.9,128.4,183.8,128,183.6z
					 M143.4,79.4c0,0.3,0,0.8,0,1.2c0.1,0.6,0.2,1.1,0.4,1.7c0.2,0.6,0.7,0.6,1,0.1c0.1-0.1,0.1-0.3,0.3-0.4
					c0.1-0.1,0.3-0.2,0.5-0.3c0.1,0.2,0.2,0.3,0.2,0.5c0.1,0.6,0.1,1.2,0.3,1.7c0.4,1.6,0.9,3.2,1.4,4.8c0.7,2.5,1.5,5,2.8,7.3
					c0.5,0.8,1,1.6,1.5,2.3c0.4,0.5,0.9,1,1.4,1.4c0.7,0.6,1.6,1,2.5,1.4c0.3,0.1,0.5,0.2,0.8,0.2c1.3,0.2,2.5,0.2,3.8,0.1
					c1-0.1,1.9-0.5,2.8-0.9c1.6-0.7,3.1-1.6,4.2-2.9c0.6-0.6,1.1-1.4,1.6-2.1c0.6-0.9,1.1-1.9,1.4-3c0-0.1,0.1-0.2,0.1-0.3
					c0.8-1.2,1.3-2.6,1.6-4c0.4-1.5,0.6-3.1,0.8-4.6c0.1-0.3,0-0.7,0-1c0-0.5,0.2-0.6,0.6-0.6c0.1,0,0.3,0,0.4-0.1
					c0.7-0.2,1-0.8,1.1-1.5c0.2-1.1,0.2-2.2,0.1-3.3c-0.1-0.7-0.2-1.3-0.6-1.9c-0.2-0.3-0.3-0.4-0.5-0.1c-0.3,0.3-0.5,0.7-0.7,1
					c-0.1,0.2-0.1,0.4-0.2,0.7c0,0.1-0.2,0.2-0.2,0.3c-0.1-0.1-0.2-0.2-0.3-0.3c-0.1-0.4-0.2-0.7-0.3-1.1c-0.2-0.6-0.4-1.1-0.6-1.7
					c-0.8-2.8-1.9-5.4-3.8-7.6c-1.1-1.2-2.2-2.4-3.8-3c-1.2-0.5-2.2-1.3-3.5-1.4c-0.4,0-0.8-0.2-1.2-0.3c-0.1,0-0.2,0-0.3,0
					c-0.3,0.1-0.7,0.2-1,0.3c-1,0.5-2.1,1-3.1,1.5c-1.8,1-3.3,2.4-4.5,4.1c-1.4,2.1-2.3,4.5-2.9,7c-0.3,1.2-0.5,2.4-0.8,3.6
					c0,0.2-0.2,0.4-0.4,0.4c-0.1,0-0.4-0.2-0.5-0.3c-0.3-0.4-0.5-0.9-0.7-1.3c-0.3-0.4-0.6-0.8-0.9-1.2c-0.2-0.2-0.3-0.2-0.4,0.1
					c-0.1,0.4-0.3,0.7-0.3,1.1C143.4,77.9,143.4,78.6,143.4,79.4z M173.8,131.9c1.5-0.1,2.9-1.2,3.5-2.2c0.4-0.5,0.6-1.1,0.5-1.8
					c-0.1-0.5-0.1-1-0.2-1.5c0-0.7,0.1-0.8,0.8-0.9c1.1,0,2.1-0.3,2.9-0.9c1.2-0.8,2-1.8,2.2-3.3c0.2-1.7,0-3.4-0.5-5
					c-0.3-1.1-0.6-2.2-1.4-3.1c-0.3-0.4-0.7-0.7-1-1c-0.4-0.4-0.5-0.7-0.1-1.2c0.3-0.4,0.7-0.8,1.1-1.1c1.4-1.1,2.3-2.6,2.5-4.3
					c0.2-1.8-0.5-3.5-1.9-4.8c-0.5-0.5-1-1-1.5-1.4c-0.3-0.3-0.6-0.4-1-0.6c-0.4-0.2-0.8-0.4-1.3-0.6c-0.1-0.1-0.3-0.1-0.4-0.1
					c-0.1-0.2-0.2-0.3-0.4-0.5c-0.2-0.2-0.4-0.3-0.6-0.5c-0.4-0.4-0.7-0.8-1.1-1.2c-1.1-1-2.1-2.2-2.8-3.6c-0.4-0.7-0.8-1.3-0.8-2.1
					c0-0.3-0.1-0.5-0.2-0.9c-0.1,0.2-0.2,0.4-0.2,0.5c-0.3,0.8-0.6,1.7-0.9,2.5c-0.7,1.4-1.4,2.8-2.1,4.2c-0.1,0.1-0.1,0.2-0.1,0.4
					c0.3,1.5,0.6,3,0.6,4.5c0,2.7-1.3,4.7-3.1,6.4c-0.1,0.1-0.3,0.2-0.4,0.3c-0.8,0.5-1.6,1-2.3,1.5c-2.3,1.6-3.3,4.9-1.7,7.5
					c0.2,0.3,0.4,0.7,0.5,1c0.2,0.4,0.1,0.6-0.3,0.9c-0.2,0.2-0.4,0.4-0.6,0.7c-0.3,0.7-0.5,1.4-0.4,2.1c0,0.3,0.1,0.6,0.4,0.7
					c2,0.8,4.1,1.6,6.1,2.5c1.5,0.6,3,1.3,4.5,1.9c0.7,0.3,1.4,0.6,2,1.1c0.2,0.2,0.3,0.4,0.1,0.5c-0.2,0.1-0.2,0.3-0.2,0.5
					c0,0.2,0,0.3,0,0.5C173.9,130.3,173.9,131.1,173.8,131.9z M164.8,171.1c-0.1-0.1-0.2-0.1-0.2-0.2c-0.7-0.5-1.5-1.1-2.2-1.6
					c-0.5-0.4-1.1-0.6-1.8-0.6c-0.3,0-0.7,0-1,0c-1.2-0.1-2.3-0.1-3.5-0.2c-0.5,0-1,0.1-1.5,0.3c-0.6,0.3-1.2,0.6-1.9,0.9
					c-0.3,0.1-0.5,0.3-0.6,0.7c-0.5,1.4-1,2.8-1.5,4.2c-0.1,0.3-0.2,0.7-0.2,1.1c-0.2,1.4-0.3,2.8-0.5,4.3c-0.2,1.9-0.3,3.9,0,5.8
					c0,0.2,0.1,0.4,0.4,0.5c0.4,0.2,0.8,0.3,1.1,0.5c1,0.6,2,1.2,3.2,1.6c1.3,0.4,2.5,0.9,3.9,0.8c1.7-0.1,3.3-0.3,4.8-1.2
					c0.6-0.4,0.9-1,0.8-1.7c-0.1,0-0.2,0.1-0.4,0.1c-0.7,0.1-1.3,0.2-2,0.3c-0.2,0-0.4,0-0.4-0.3c0-0.3,0.2-0.3,0.4-0.3
					c0.7-0.1,1.3-0.2,2-0.4c0.7-0.2,1.4-0.5,1.6-1.3c0-0.1,0.1-0.1,0.2-0.2c0.1-0.2,0.2-0.3,0.2-0.5c0.1-0.2,0.1-0.4,0.1-0.6
					c0-0.2,0-0.3,0.1-0.5c-0.2,0.1-0.4,0.1-0.6,0.2c-0.9,0.5-1.9,0.5-2.9,0.6c-0.2,0-0.4,0-0.4-0.2c0-0.2,0.2-0.3,0.4-0.3
					c1.1,0,2.2-0.6,3.2-0.8c0.6-0.2,1-0.8,1.3-1.2c0.3-0.3,0.1-0.7,0-1c0-0.1,0-0.3-0.1-0.4c0-0.1-0.1-0.3-0.1-0.4
					c-0.6,0.1-1.2,0.2-1.8,0.3c-0.7,0.1-1.3,0.3-2,0.5c-0.1,0-0.3-0.1-0.4-0.2c0.1-0.1,0.2-0.3,0.3-0.3c0.8-0.2,1.6-0.4,2.4-0.6
					c0.6-0.1,1.2-0.4,1.7-0.7c0.1,0,0.1-0.1,0.1-0.2c0.3-0.8,0-1.5,0-2.3c-0.8,0.2-1.6,0.2-2.4,0c-0.6-0.2-1.2-0.4-1.7-0.6
					c0,0-0.1,0-0.1,0c-0.5-0.3-1-0.6-1.5-0.9c-0.1-0.1-0.3-0.2-0.4-0.2c-0.7-0.2-1.3-0.3-2-0.4c-0.2-0.1-0.5-0.1-0.8-0.1
					c-0.1,0-0.2-0.2-0.3-0.3c0.1-0.1,0.2-0.2,0.3-0.3c0,0,0.1,0,0.2,0c0.9,0.1,1.9,0.2,2.8,0.6c0.2,0.1,0.4,0.2,0.6,0.3
					c0.6,0.4,1.2,0.8,1.9,0.9c0.1,0,0.3,0.1,0.4,0.2c0.4,0.1,0.7,0.3,1.1,0.4c0.7,0.2,1.5,0.1,2.1-0.4c0.3-0.2,0.5-0.6,0.5-1
					c0-0.3-0.2-0.3-0.4-0.2c-0.3,0.1-0.6,0.3-0.9,0.4c-0.8,0.2-1.6,0.2-2.2-0.6c-0.1-0.2-0.3-0.4-0.3-0.6
					C164.1,171.9,164.3,171.4,164.8,171.1z M180.6,172.4c0.1-0.1,0.1-0.2,0.2-0.2c0.9-1.2,1.9-2.4,2.8-3.6c1.6-2,3.2-4.1,4.8-6.1
					c1.7-2.2,3.5-4.3,5.2-6.5c1.2-1.5,2.2-3.1,3-4.8c0-0.1,0.1-0.3,0-0.3c-0.5-0.8-0.9-1.7-1.4-2.5c-1-1.6-2.1-3.1-3.3-4.4
					c-0.4-0.5-0.8-1-1.2-1.6c-0.2-0.3-0.4-0.7-0.7-1c-0.7-0.7-1.3-1.5-1.8-2.3c-0.2-0.3-0.5-0.6-0.7-1c-0.1,0.5-0.1,0.9-0.2,1.3
					c-0.5,1.8-1,3.6-1.5,5.4c-0.6,2.1-1.3,4.2-1.9,6.4c-0.6,2-1.1,4-1.7,6.1c-0.5,1.8-0.9,3.7-1.3,5.6c-0.4,2.5-0.7,5.1-0.6,7.6
					C180.4,171,180.5,171.7,180.6,172.4z M168.5,97.3c-0.1,0.2-0.2,0.2-0.3,0.3c-0.5,0.5-0.9,1.1-1.4,1.6c-0.6,0.6-1.3,1.1-2,1.6
					c-0.2,0.1-0.3,0.3-0.5,0.4c-0.9,0.5-1.9,0.8-2.9,1c-2.3,0.4-4.6,0.5-6.8-0.6c-0.5-0.3-1.1-0.6-1.6-0.9c-0.9-0.6-1.6-1.4-2.2-2.3
					c-0.4-0.6-0.8-1.2-1.3-1.9c0,0.1,0,0.1,0,0.2c0,2.5,0,4.9,0,7.4c0,1.3,0.2,2.5,0.6,3.7c0.8,2.4,1.5,4.9,2.3,7.3
					c0.1,0.3,0.3,0.6,0.6,0.7c0.3,0.2,0.5,0.4,0.8,0.5c0.5,0.2,0.9,0.5,1.4,0.6c0.7,0.2,1.4,0.3,2.1,0.5c1.2,0.3,2.5,0.2,3.8,0.2
					c0.1,0,0.2-0.1,0.3-0.1c-0.1-0.1-0.1-0.2-0.2-0.3c-0.8-1.4-0.8-2.9-0.4-4.5c0.6-1.9,1.9-3.2,3.5-4.1c0.9-0.5,1.8-1,2.4-1.9
					c0.1-0.2,0.3-0.3,0.4-0.5c0.7-0.8,1.2-1.7,1.4-2.6c0.3-1.2,0.3-2.4,0.2-3.6C168.8,99,168.7,98.2,168.5,97.3z M173.6,128.7
					c0,0-0.1,0-0.1-0.1c-1.2,0.3-2.4,0.6-3.6,0.9c-0.1,0-0.2,0.2-0.2,0.3c-0.1,0.6-0.2,1.1-0.3,1.7c-0.6,2.9-1.3,5.8-1.9,8.7
					c-0.5,2.6-1,5.2-1.5,7.8c-0.6,3.4-1.2,6.9-1.9,10.3c-0.3,1.6-0.7,3.2-1,4.8c-0.2,1.1-0.5,2.1-0.8,3.1c-0.2,0.7-0.4,1.4-0.5,2
					c1.2,0.9,2.4,1.7,3.6,2.6c0.1-0.2,0.1-0.5,0.2-0.8c0.4-1.9,0.8-3.9,1.2-5.8c0.1-0.4,0.2-0.8,0.3-1.2c0.4-1.9,0.7-3.7,1.1-5.6
					c0.2-1.2,0.6-2.5,0.8-3.7c0.6-2.7,1.1-5.4,1.7-8.2c0.4-1.9,0.7-3.9,1.1-5.9c0.3-1.7,0.7-3.5,1-5.2c0.2-0.8,0.2-1.7,0.3-2.5
					C173.3,130.9,173.4,129.8,173.6,128.7z M175.5,76.3c0.1-0.4,0.1-0.8,0.2-1.2c0.1-1.6,0.3-3.2-0.1-4.7c-0.3-1.1-0.5-2.3-0.9-3.4
					c-0.7-2.2-1.4-4.4-2.6-6.4c-0.6-1-1.2-2.1-2-2.9c-0.9-0.9-2-1.6-3-2.4c-0.1-0.1-0.3-0.2-0.5-0.3c-1-0.4-2-0.6-3-0.6
					c-1-0.1-2-0.1-3-0.2c-0.3,0-0.6,0-0.9,0c0,0.6,0,1.1,0,1.6c0,1.8,0.1,3.6,0.1,5.4c0,0.3,0.1,0.4,0.4,0.4
					c1.2,0.1,2.4,0.4,3.4,1.1c0.2,0.1,0.3,0.2,0.5,0.3c1,0.5,2.1,1,2.9,1.8c0.3,0.4,0.7,0.7,1,1.1c1.5,1.6,2.7,3.4,3.4,5.5
					c0.4,1.1,0.7,2.2,1.1,3.3c0.1,0.3,0.2,0.7,0.4,1c0.3-0.3,0.5-0.6,0.7-0.8c0.6-0.5,1.1-0.4,1.5,0.3
					C175.1,75.5,175.3,75.9,175.5,76.3z M146.3,77.8c0-0.2,0.1-0.4,0.1-0.5c0.4-2.6,1.2-5.1,2.3-7.5c0.5-1.1,1.1-2.3,2-3.2
					c1.3-1.5,2.8-2.8,4.6-3.7c1.2-0.6,2.3-1.2,3.6-1.5c0.2,0,0.3-0.2,0.3-0.4c0-2.2,0-4.4,0.1-6.7c0-0.2-0.1-0.3-0.3-0.3
					c-0.6,0-1.1,0-1.7,0.1c-1.4,0.2-2.7,0.6-4,1.3c-1.7,1-3.4,2-4.7,3.5c-1.3,1.5-2.3,3.1-3.1,5c-0.2,0.6-0.5,1.2-0.7,1.9
					c-0.5,1.3-0.8,2.7-0.9,4c-0.1,1.7-0.1,3.5-0.1,5.2c0,0.1,0,0.2,0,0.2C145.2,75.6,145.6,76.8,146.3,77.8z M169,156.2
					c0,0,0.1,0,0.1,0c0.5-0.9,1-1.8,1.5-2.7c0.8-1.7,1.6-3.4,2.4-5.2c0.9-2.1,1.8-4.3,2.7-6.4c0.9-2.3,1.7-4.7,2.6-7
					c0.5-1.4,0.9-2.9,1.2-4.3c0.3-1.1,0.5-2.1,0.7-3.2c0.1-0.5,0.1-1,0.1-1.5c-0.7,0.1-1.4,0.2-2,0.3c0,0.3,0.1,0.6,0.1,0.8
					c0.3,1.5-0.1,2.8-1.3,3.9c-0.9,0.8-1.9,1.4-3.1,1.6c-0.4,0.1-0.5,0.3-0.5,0.6c-0.3,1.9-0.6,3.8-1,5.7c-0.3,1.8-0.7,3.7-1.1,5.5
					c-0.4,1.9-0.7,3.8-1.1,5.6c-0.3,1.6-0.8,3.3-1.1,4.9C169.1,155.3,169.1,155.8,169,156.2z M149,99.4c-0.1,0.1-0.2,0.1-0.2,0.2
					c-2.1,2.1-4,4.2-5.4,6.9c-0.6,1.2-1.2,2.5-1.8,3.7c-0.1,0.2-0.2,0.5,0,0.7c0.3,0.3,0.6,0.7,0.9,1c0.3,0.4,0.7,0.7,1.1,1
					c0.5,0.5,0.8,1.2,1.5,1.6c0.2,0.1,0.4,0.2,0.6,0c0.7-0.5,1.4-0.9,2.2-1.3c0.9-0.4,1.8-0.9,2.5-1.6c0.2-0.2,0.2-0.3,0.2-0.5
					c-0.4-1.2-0.8-2.4-1.1-3.7c-0.2-0.6-0.4-1.3-0.4-2c-0.1-1.6-0.1-3.1-0.1-4.7C148.9,100.4,149,100,149,99.4z M134.3,113.3
					C134.3,113.3,134.2,113.4,134.3,113.3c0.6,0.4,1.3,0.7,1.9,1c1.3,0.7,2.6,1.3,4,2c1.2,0.6,2.5,1.2,3.7,1.7
					c2.8,1.3,5.7,2.5,8.6,3.7c2.7,1.1,5.4,2.1,8,3.3c2.1,0.9,4.2,1.9,6.3,2.8c0.9,0.4,1.8,0.8,2.7,1.2c0.1,0,0.2,0,0.3,0
					c0.9-0.3,1.9-0.5,2.8-0.8c0.2-0.1,0.4-0.1,0.7-0.2c-0.4-0.2-0.7-0.4-1-0.6c-1.3-0.6-2.6-1.1-3.9-1.6c-1.5-0.6-2.9-1.2-4.4-1.8
					c-1.9-0.7-3.8-1.4-5.7-2.2c-2.1-0.8-4.1-1.5-6.2-2.3c-2-0.7-4-1.4-6-2.1c-1.4-0.5-2.9-1-4.3-1.5c-2-0.7-3.9-1.5-5.9-2.2
					C135.2,113.6,134.7,113.5,134.3,113.3z M184.4,184.7c0,0,0-0.1,0-0.1c-0.6-1.5-1.3-3.1-1.9-4.6c0-0.1-0.2-0.2-0.3-0.2
					c-1.2,0-2.3,0-3.5,0c-0.8,0-1.7,0-2.5,0c-1.7-0.1-3.3,0.4-4.9,1c0.2,0.5,0.3,1.1,0.7,1.5c0.5,0.7,0.8,1.4,1,2.1
					c0.1,0.4,0.3,0.5,0.7,0.5c1.6-0.1,3.1-0.2,4.7-0.3C180.3,184.5,182.4,184.6,184.4,184.7z M189.4,200.6c0.4-0.1,0.8-0.1,1.2-0.2
					c0.4-0.1,0.9-0.2,1.3-0.4c1.3-0.5,2.5-1.1,3.3-2.3c0,0,0.1-0.1,0.1-0.1c0.6-0.6,1.1-1.4,1.4-2.2c0.2-0.3,0.3-0.7,0.3-1.1
					c0-0.2-0.1-0.5-0.1-0.8c-0.3,0.1-0.6,0.2-0.7,0.4c-0.5,0.5-0.9,1-1.3,1.6c-0.4,0.5-0.7,1-1.3,1.2c-1.1,0.4-2.3,0.6-3.5,0.3
					c-0.5-0.1-0.6-0.2-0.7-0.7c-0.1-0.8-0.2-1.7-0.4-2.5c-0.3-1.6-0.6-3.1-0.9-4.7c-0.2-1.1-0.5-2.1-0.8-3.1c0-0.1-0.1-0.1-0.2-0.2
					c-0.5-0.2-1-0.4-1.6-0.6c-0.1-0.1-0.3-0.1-0.5-0.2c0.1,0.2,0.2,0.4,0.2,0.5c0.2,0.5,0.5,1,0.6,1.5c0.6,2.3,1.2,4.7,1.8,7
					c0.3,1.1,0.6,2.2,0.8,3.3c0.2,0.9,0.5,1.7,0.7,2.6C189.4,200.1,189.4,200.4,189.4,200.6z M150.8,111.9c-0.1,0.1-0.2,0.2-0.4,0.3
					c-0.6,0.6-1.3,1-2.1,1.4c-0.3,0.2-0.7,0.4-1,0.6c-1,0.6-2,1.2-3,1.8c-0.1,0-0.2,0.1-0.3,0.2c2.8,1,5.5,2,8.2,3
					C152.2,117.2,151.4,113.3,150.8,111.9z M152.7,116.1c0,0.1,0,0.2,0,0.3c0.1,0.9,0.2,1.8,0.3,2.7c0,0.3,0.1,0.4,0.4,0.5
					c1.8,0.6,3.6,1.3,5.4,1.9c0.6,0.2,1.2,0.4,1.9,0.6c0-0.2,0-0.3,0-0.4c0.1-0.6,0.1-1.2,0.3-1.7c0.1-0.4,0.4-0.9,0.7-1.2
					c0.3-0.4,0.4-0.4,0.1-0.8c-0.2,0-0.5,0.1-0.7,0.1c-0.7,0-1.5,0-2.2,0c-0.9-0.1-1.9-0.3-2.8-0.4c-1.1-0.2-2.1-0.6-2.9-1.3
					C152.9,116.3,152.8,116.2,152.7,116.1z M156.4,193.8c0.1,0,0.2,0,0.3,0c0.1,0,0.2,0,0.2,0c1.2-0.3,2.4-0.4,3.7-0.4
					c0.2,0,0.3-0.1,0.3-0.2c0.2-0.9,0.5-1.7,0.7-2.6c0.1-0.4,0.2-0.9,0.3-1.4c-1.7,0.6-3.3,0.4-4.9,0.5
					C156.8,191.1,156.6,192.5,156.4,193.8z M152.3,188.2c0,0.1-0.1,0.2-0.1,0.3c-0.2,0.7-0.5,0.9-1.2,0.8c-0.6-0.1-1.3-0.1-1.9-0.2
					c0.4,0.3,5.9,3.9,6.7,4.2c0.2-1.3,0.5-2.5,0.7-3.7C155,189.3,153.6,189,152.3,188.2z M194.8,190.9c0,0-0.1-0.1-0.1-0.1
					c-0.2,0.2-0.4,0.4-0.5,0.6c-0.6,0.9-1.1,1.9-1.7,2.8c0,0.1-0.1,0.2-0.1,0.2c-0.1,0.2-0.2,0.4-0.3,0.5c-0.6,0.3-1.2,0.6-1.9,0.8
					c-0.1,0.5,0,0.7,0.6,0.7c0.2,0,0.4,0,0.7,0c0.3,0,0.6-0.1,0.9-0.1c0.3,0,0.6-0.1,0.8-0.4c0.7-1.2,1.4-2.5,1.7-3.8
					C194.8,191.7,194.8,191.3,194.8,190.9z M190,195.2c0.4-0.2,0.8-0.1,1-0.6c0.3-0.7,0.6-1.3,0.8-2c0.3-0.8,0.3-1.6,0.2-2.5
					c-0.6,0.6-1,1.2-1.3,1.9c-0.2,0.6-0.5,1.1-0.8,1.7c-0.1,0.1-0.1,0.3-0.1,0.4C189.9,194.4,189.9,194.8,190,195.2z M165.1,171.3
					c-0.2,0.3-0.3,0.6-0.4,0.9c0,0.1,0,0.3,0,0.3c0.3,0.3,0.7,0.6,1.2,0.5c0.3-0.1,0.6-0.1,0.8-0.1c0.1,0,0.2-0.1,0.3-0.2
					C166.4,172.3,165.8,171.8,165.1,171.3z M150.2,186.8c0.1,0.6,0.2,1.1,0.6,1.5c0.2,0.2,0.4,0.3,0.6,0.4c0.1-0.3,0.3-0.5,0.4-0.8
					c0-0.1,0-0.2-0.1-0.2C151.2,187.4,150.7,187.1,150.2,186.8z"/>
				<path class="st38" d="M180.9,172.9c0.1-0.1,0.3-0.2,0.4-0.4c1.4-1.8,2.7-3.5,4.1-5.3c1.7-2.1,3.3-4.2,5-6.3
					c1.1-1.4,2.3-2.8,3.4-4.2c1.2-1.5,2.3-3.1,3.2-4.8c0-0.1,0.1-0.2,0.2-0.2c0.3-0.1,0.4-0.3,0.2-0.6c-0.4-0.7-0.8-1.5-1.2-2.2
					c-1.1-2-2.4-3.8-4-5.5c-0.2-0.2-0.4-0.4-0.5-0.7c-0.6-1-1.3-1.9-2.1-2.7c-0.3-0.3-0.4-0.6-0.7-0.9c-0.4-0.5-0.8-0.9-1.1-1.4
					c-0.2-0.2-0.2-0.3-0.2-0.6c0.1-1.3,0.3-2.5,0.4-3.8c0-0.5,0-1,0.1-1.5c0.3-0.9,0.2-1.9,0.4-2.8c0.1-0.3,0.1-0.6,0-0.9
					c0-0.1-0.1-0.2-0.2-0.3c-0.1,0.1-0.2,0.2-0.2,0.3c-0.1,0.6-0.3,1.2-0.3,1.8c-0.2,1.7-0.3,3.3-0.5,5c-0.3,2.1-0.6,4.3-1.2,6.4
					c-0.7,2.2-1.3,4.4-1.9,6.6c-1,3.2-1.9,6.3-2.6,9.5c-0.4,1.9-0.9,3.9-1.3,5.9c-0.4,2.3-0.6,4.7-0.5,7c0.1,1.4,0.4,2.8,0.8,4.2
					c0.5,1.5,1,3,1.5,4.5c0,0.1,0.1,0.2,0.1,0.4c-0.4,0-0.7,0-1.1,0c-2,0-4.1,0-6.1,0c-0.8,0-1.6,0.2-2.4,0.5
					c-0.5,0.2-0.9,0.3-1.4,0.5c-0.1,0-0.2,0-0.3,0.1c-0.4,0.1-0.5,0.4-0.3,0.7c0.2,0.4,0.3,0.8,0.5,1.1c0.1,0.2,0.1,0.4,0.3,0.5
					c0.5,0.6,0.7,1.4,1,2.2c0.2,0.6,0.3,0.7,0.9,0.7c0.7,0,1.4,0,2.1-0.1c2.2-0.3,4.3-0.3,6.5-0.3c0.7,0,1.4,0,2.1,0.1
					c0.4,0.1,0.9,0.2,1.1,0.8c0.8,2,1.2,4.2,1.7,6.3c0.3,1.1,0.6,2.1,0.9,3.2c0.3,1,0.4,1.9,0.7,2.9c0.5,1.6,0.7,3.2,0.8,4.9
					c0.1,2.3,0.1,4.6,0.2,6.9c0,0.9-0.4,1.4-1.1,1.7c-1.2,0.5-2.4,1.1-3.7,1.5c-1.6,0.5-3.2,1-4.8,1.4c-1.8,0.4-3.6,0.8-5.3,1.2
					c-0.2,0-0.4,0.1-0.6,0.1c-2.3,0.1-4.6,0.1-7-0.2c-0.4-0.1-0.7-0.1-1.1-0.2c-0.6,0-1-0.5-1.3-0.9c-1.6-2.1-2.9-4.4-3.8-6.8
					c-0.8-2.1-1.6-4.1-2.1-6.3c-0.1-0.6-0.4-1.1-0.6-1.7c-0.1-0.3-0.2-0.6-0.1-0.9c0.1-1.6,0.3-3.1,0.5-4.6c0-0.3,0.2-0.3,0.4-0.3
					c0.6-0.1,1.3-0.1,1.9-0.1c0.7,0,0.8-0.1,0.9-0.8c0.3-1.3,0.6-2.5,0.9-3.8c0-0.1,0-0.2,0-0.3c0-0.1,0.1-0.2,0.2-0.3
					c0.3-0.2,0.6-0.3,0.9-0.5c0.9-0.5,1.3-1.3,1.1-2.3c0-0.2,0-0.3,0.2-0.4c0.4-0.2,0.7-0.6,1-1.1c0.3-0.5,0.4-1.1,0.5-1.7
					c0-0.1,0.1-0.3,0-0.4c-0.1-0.4,0-0.6,0.3-0.9c0.2-0.2,0.4-0.5,0.6-0.7c0.2-0.3,0.3-0.7,0.3-1.1c-0.1-0.4-0.2-0.9-0.4-1.3
					c-0.1-0.2-0.1-0.3,0.1-0.4c0.1-0.1,0.2-0.1,0.2-0.2c0.1-0.6,0.3-1.2,0.1-1.8c-0.1-0.3-0.1-0.7-0.1-1c0-0.1,0.1-0.1,0.2-0.2
					c0.5-0.4,0.8-0.9,0.7-1.6c0-0.3-0.2-0.5-0.4-0.7c-0.7-0.5-1.3-0.9-2-1.4c-0.1,0-0.1-0.2-0.1-0.3c0.4-1.9,0.7-3.7,1.1-5.6
					c0.5-2.3,1-4.5,1.4-6.8c0.1-0.5,0.3-0.9,0.6-1.3c1.6-2.3,2.8-4.7,3.9-7.3c0.5-1.3,1.2-2.6,1.7-4c1.1-2.7,2.1-5.3,3.1-8
					c0.5-1.4,1.1-2.8,1.5-4.2c0.6-1.9,1-3.8,1.4-5.7c0.2-0.7,0.1-1.5,0.2-2.2c0-0.1,0.1-0.3,0.2-0.3c1-0.4,1.7-1.2,2.4-2
					c0.6-0.8,0.8-1.6,0.8-2.5c0.1-2.2-0.2-4.4-1.1-6.4c-0.4-1-1-1.9-1.8-2.6c-0.4-0.3-0.4-0.3-0.1-0.7c0.2-0.2,0.4-0.4,0.6-0.6
					c1.6-1.1,2.5-2.7,2.9-4.5c0-0.1,0-0.2,0.1-0.3c0.2,0,0.4,0.1,0.6,0.1c1.7,0.6,3.2,1.4,4.6,2.4c0.3,0.2,0.6,0.5,0.9,0.8
					c1.2,1.4,2.3,2.9,3.2,4.6c0.8,1.4,1.6,2.8,2.4,4.2c1,1.7,1.9,3.4,2.9,5c0.7,1.3,1.5,2.5,2.3,3.7c0.3,0.6,0.7,1.2,1,1.7
					c0.5,0.8,1,1.5,1.6,2.3c0.4,0.6,0.8,1.1,1.2,1.7c1.5,2.4,3,4.7,4.5,7.1c0.7,1.1,1.4,2.2,2.1,3.4c0.6,1,1,2.1,1.5,3.2
					c0.5,1.2,0.3,2.5,0.3,3.8c0,0.2,0,0.3-0.1,0.5c0,0.3,0,0.6-0.3,0.8c-0.1,0.1-0.2,0.4-0.3,0.6c-0.1,0.9-0.7,1.6-1.1,2.3
					c-0.6,0.9-1.2,1.8-1.8,2.7c-0.1,0.1-0.1,0.2-0.2,0.3c-1.5,2.2-2.9,4.4-4.8,6.3c-1,1-1.9,2.2-2.8,3.4c-1.2,1.4-2.3,2.9-3.5,4.3
					c-1.9,2.3-4,4.5-5.9,6.9c-1.4,1.7-2.8,3.6-4.2,5.3c-0.4,0.5-0.9,1.1-1.3,1.6c-0.1,0.2-0.3,0.2-0.4,0.2c-0.7-0.3-1.5-0.5-2.2-0.8
					c-0.1,0-0.1-0.1-0.2-0.2c-0.7-1.6-1.4-3.3-2.1-5c-0.8-2-1.4-4.1-2.1-6.2C180.7,172.9,180.8,172.9,180.9,172.9z"/>
				<path class="st33" d="M131.2,112.4c0.2,0.1,0.4,0.1,0.6,0.2c1.5,0.8,3,1.6,4.6,2.4c1.1,0.5,2.1,1.1,3.2,1.6
					c0.6,0.3,1.2,0.6,1.9,0.9c3,1.3,5.9,2.7,8.9,4c2.8,1.2,5.6,2.3,8.4,3.4c2,0.8,4,1.6,6,2.5c1.4,0.6,2.7,1.2,4,1.9
					c0.5,0.3,0.6,0.3,0.5,0.9c-0.7,3.2-1.4,6.4-2.1,9.7c-0.7,3.4-1.2,6.8-1.8,10.2c-0.5,3-1.1,6.1-1.7,9.1c-0.3,1.6-0.6,3.2-1,4.7
					c-0.3,1.4-0.7,2.7-1.1,4c-0.1,0.2-0.2,0.3-0.4,0.2c-1.7-0.2-3.5-0.4-5.2-0.3c-0.4,0-0.8,0.1-1.2,0.3c-0.5,0.2-1,0.5-1.6,0.8
					c-0.4,0.2-0.7,0.2-1.2,0.1c-0.7-0.2-1.4-0.3-2.2-0.4c-1.7-0.2-3.3-0.3-5-0.4c-3.7-0.2-7.4-0.8-11-1.5c-2.4-0.4-4.8-1.1-7.2-1.7
					c-0.4-0.1-0.9-0.3-1.3-0.5c-1-0.4-2-0.9-3-1.3c-0.3-0.1-0.4-0.3-0.4-0.7c0.4-3.2,1-6.4,1.6-9.5c0.6-2.7,1.1-5.5,1.5-8.3
					c0.3-1.6,0.4-3.2,0.7-4.8c0.2-1.3,0.5-2.6,0.7-3.9c0.6-2.9,1.2-5.8,1.8-8.8c0.6-2.8,1.1-5.5,1.7-8.3c0.4-1.7,0.7-3.4,1.1-5.1
					C131.1,113.5,131.2,113,131.2,112.4z"/>
				<path class="st38" d="M146.1,101.5c-0.7,0.9-1.4,1.8-2,2.7c-1.2,1.9-2.3,3.8-3.1,5.9c-0.2,0.5-0.1,0.9,0.2,1.3
					c0.4,0.5,0.9,0.9,1.3,1.3c0.4,0.4,0.7,0.8,1,1.1c0.4,0.4,0.7,0.9,1.1,1.3c-0.4,0.2-0.9,0.5-1.3,0.7c-0.1,0-0.2,0-0.3-0.1
					c-1.9-0.6-3.8-1.2-5.6-1.9c-1.6-0.7-3.3-1.1-5-1.7c-0.5-0.1-1-0.1-1.5-0.1c-0.8,3.6-1.5,7.2-2.3,10.7c-0.6,2.7-1.1,5.3-1.6,8
					c-0.3,1.5-0.7,3-1,4.5c-0.5,2.6-0.9,5.2-1.3,7.9c-0.5,3.9-1.3,7.7-2,11.6c-0.4,2-0.7,4.1-1,6.2c-0.1,0.7-0.2,1.3-0.3,2.1
					c-0.7-0.4-1.3-0.7-1.9-1c-0.4-0.2-0.7-0.3-1.3-0.4c0.1,0.2,0.2,0.3,0.3,0.4c0.4,0.3,0.8,0.6,1.3,0.8c0.3,0.2,0.7,0.4,1,0.6
					c0.2,0.1,0.3,0.3,0.4,0.4c0.1,0.1,0.2,0.1,0.2,0.2c0.2,0.1,0.4,0.1,0.6,0.2c2.8,1.4,5.8,2.4,8.9,2.9c1.8,0.3,3.5,0.7,5.3,1
					c2.2,0.4,4.5,0.7,6.7,0.9c1.3,0.1,2.6,0.1,3.8,0.2c1.5,0.1,2.9,0.3,4.4,0.4c0.2,0,0.5,0.2,0.7,0.2c-0.1,0.1-0.1,0.2-0.2,0.4
					c-0.6,1.5-1.2,2.9-1.6,4.4c-0.4,1.4-0.5,2.8-0.6,4.2c-0.2,1.7-0.3,3.4-0.3,5.1c0,1.3,0.2,2.6,0.7,3.9c0.1,0.3,0.3,0.6,0.5,0.9
					c-0.3,0-0.6-0.1-1-0.1c-3-0.4-6-1.1-9-1.8c-1.2-0.3-2.3-0.6-3.5-1c-1.2-0.4-2.5-0.8-3.7-1.2c-1.9-0.6-3.8-1.2-5.7-1.9
					c-3-1.1-5.9-2.3-8.9-3.4c-1.7-0.7-3.5-1.3-5.2-2c-2-0.8-3.8-1.9-5.6-3c-1.1-0.7-1.5-1.9-1.5-3.2c-0.1-2.1,0.2-4.2,0.5-6.3
					c0.4-2.1,0.6-4.2,0.9-6.2c0.3-1.9,0.6-3.8,1.1-5.7c1.2-4.7,2.3-9.5,3.5-14.2c0.6-2.4,1.4-4.7,2.1-7c0.6-2,1.3-3.9,1.7-5.9
					c0.3-1.3,0.8-2.5,1.2-3.8c0.7-2.7,1.8-5.1,3.1-7.5c1.3-2.3,3-4.2,5.4-5.4c1.4-0.7,2.8-1.2,4.3-1.7c2.6-0.9,5.1-1.6,7.7-2.5
					c1.5-0.5,3.1-1,4.6-1.6c1.3-0.5,2.5-1.1,3.7-1.7C146,101.5,146,101.5,146.1,101.5z"/>
				<path class="st38" d="M128,183.6c0.4,0.1,0.8,0.3,1.2,0.4c2.2,0.7,4.4,1.3,6.5,2c1,0.3,2,0.7,3,1c1.4,0.4,2.9,0.7,4.4,1
					c1.5,0.3,3,0.6,4.4,0.9c0.7,0.1,1.2,0.6,1.8,1c0.7,0.5,1.5,1.1,2.3,1.5c0.5,0.3,1,0.6,1.5,0.9c0.8,0.5,1.6,1.1,2.4,1.6
					c0,0,0.1,0,0.1,0.1c0.4,0.7,1.1,0.5,1.7,0.4c0.1,0,0.2,0,0.3,0c-0.1,0.5-0.2,1-0.2,1.6c-0.1,1.1-0.2,2.1-0.3,3.2
					c-0.1,0.4-0.3,0.9-0.4,1.3c-0.9,2.4-1.9,4.8-2.8,7.2c-0.4,1.1-0.9,2.2-1.3,3.3c-0.3,0.9-0.6,1.8-1,2.7c-0.2,0.5-0.4,1-0.7,1.5
					c-0.3,0.6-0.8,1-1.5,1.1c-1.5,0.1-2.9,0.3-4.4,0.4c-2.8,0.3-5.6,0.1-8.3,0c-1.1-0.1-2.2-0.4-3.3-0.5c-1-0.1-2-0.3-3-0.7
					c-0.1,0-0.2-0.1-0.3-0.1c-1.6-0.1-2.9-0.9-4.4-1.4c-0.3-0.1-0.7-0.3-1-0.3c-0.8-0.1-1.4-0.5-2-0.9c-0.3-0.2-0.6-0.3-0.9-0.4
					c-0.3-0.1-0.3-0.3-0.3-0.4c0-0.6,0.1-1.2,0.1-1.8c0.1-3.3,0.6-6.5,1.4-9.7c0.6-2.2,1.3-4.3,1.9-6.4c0.4-1.5,1-2.9,1.5-4.3
					c0.6-1.6,1.2-3.3,1.4-5C128,184.2,128,183.9,128,183.6z"/>
				<path class="st32" d="M143.4,79.4c0-0.8,0.1-1.5,0.1-2.1c0-0.4,0.2-0.7,0.3-1.1c0.1-0.3,0.3-0.3,0.4-0.1
					c0.3,0.4,0.6,0.8,0.9,1.2c0.3,0.4,0.5,0.9,0.7,1.3c0.1,0.2,0.3,0.3,0.5,0.3c0.1,0,0.3-0.3,0.4-0.4c0.3-1.2,0.5-2.4,0.8-3.6
					c0.6-2.5,1.5-4.9,2.9-7c1.1-1.7,2.6-3.1,4.5-4.1c1-0.5,2.1-1,3.1-1.5c0.3-0.1,0.7-0.2,1-0.3c0.1,0,0.2,0,0.3,0
					c0.4,0.1,0.8,0.2,1.2,0.3c1.3,0.1,2.3,0.9,3.5,1.4c1.6,0.7,2.7,1.8,3.8,3c2,2.2,3.1,4.8,3.8,7.6c0.2,0.6,0.4,1.1,0.6,1.7
					c0.1,0.4,0.2,0.7,0.3,1.1c0,0.1,0.2,0.2,0.3,0.3c0.1-0.1,0.2-0.2,0.2-0.3c0.1-0.2,0.1-0.5,0.2-0.7c0.2-0.4,0.4-0.7,0.7-1
					c0.2-0.3,0.3-0.2,0.5,0.1c0.4,0.6,0.5,1.2,0.6,1.9c0.1,1.1,0.1,2.2-0.1,3.3c-0.1,0.7-0.4,1.3-1.1,1.5c-0.1,0-0.2,0.1-0.4,0.1
					c-0.4,0-0.6,0.2-0.6,0.6c0,0.3,0,0.7,0,1c-0.3,1.5-0.5,3.1-0.8,4.6c-0.3,1.4-0.8,2.7-1.6,4c0,0.1-0.1,0.2-0.1,0.3
					c-0.3,1.1-0.8,2.1-1.4,3c-0.5,0.7-1,1.4-1.6,2.1c-1.2,1.3-2.6,2.2-4.2,2.9c-0.9,0.4-1.8,0.8-2.8,0.9c-1.3,0.1-2.6,0.1-3.8-0.1
					c-0.3,0-0.5-0.1-0.8-0.2c-0.9-0.4-1.8-0.8-2.5-1.4c-0.5-0.4-1-0.9-1.4-1.4c-0.6-0.7-1-1.5-1.5-2.3c-1.3-2.3-2.1-4.8-2.8-7.3
					c-0.5-1.6-0.9-3.2-1.4-4.8c-0.1-0.6-0.2-1.2-0.3-1.7c0-0.2-0.2-0.3-0.2-0.5c-0.2,0.1-0.3,0.2-0.5,0.3c-0.1,0.1-0.2,0.2-0.3,0.4
					c-0.3,0.5-0.8,0.4-1-0.1c-0.2-0.5-0.3-1.1-0.4-1.7C143.3,80.2,143.4,79.7,143.4,79.4z M155.5,93.7c0.1,0.1,0.2,0.2,0.3,0.3
					c0.1,0.1,0.2,0.1,0.3,0.2c0.2,0.2,0.3,0.4,0.5,0.6c0.5,0.5,1.1,1,1.8,1c1.1,0.1,2.3,0,3.3-0.6c0.6-0.3,1.1-0.7,1.6-1.1
					c0.4-0.3,0.6-0.7,1.2-0.8c0.1,0,0.3-0.2,0.3-0.3c0-0.1-0.1-0.3-0.3-0.3c-0.1-0.1-0.3,0-0.4,0c-0.8,0-1.7-0.1-2.5-0.1
					c-0.5,0-1.1,0-1.6,0c-0.4,0-0.8,0-1.1-0.1c-0.5-0.1-0.8-0.1-1.3,0c-0.7,0.2-1.3,0.6-2.1,0.5c-0.2,0-0.5,0-0.6,0.3
					C155,93.5,155.3,93.6,155.5,93.7z M158.3,84.4C158.3,84.4,158.2,84.4,158.3,84.4c0-0.2,0-0.5,0-0.7c0-0.5-0.1-0.9-0.1-1.3
					c0-0.1-0.2-0.1-0.2-0.2c0,0.1-0.1,0.2-0.1,0.3c0,0.1,0,0.3,0,0.4c0,0.9-0.1,1.7-0.2,2.6c-0.1,0.9-0.1,1.8-0.2,2.7
					c0,0.6,0.5,1.1,1.1,1.1c0.7,0,1.3-0.3,2-0.4c0.8-0.2,1-0.8,1.3-1.5c0-0.1-0.1-0.3-0.1-0.4c-0.1,0-0.3,0-0.4,0.1
					c-0.1,0.2-0.2,0.4-0.3,0.6c-0.1,0.1-0.2,0.3-0.3,0.4c-0.6,0.2-1.2,0.4-1.8,0.6c-0.6,0.1-0.8-0.1-0.8-0.7
					C158.2,86.7,158.2,85.5,158.3,84.4z M155.3,77c0.1-0.1,0.2-0.2,0.3-0.3c0-0.1-0.1-0.3-0.2-0.4c-0.4-0.2-0.8-0.4-1.2-0.5
					c-1.4-0.3-2.8-0.1-4.1,0.2c-0.1,0-0.2,0.1-0.2,0.2c0,0.1,0.1,0.2,0.2,0.3c0.1,0.1,0.2,0.1,0.3,0c0.5,0,1-0.1,1.5-0.1
					c1-0.1,2-0.2,2.9,0.4C154.9,76.9,155.1,77,155.3,77z M166.9,76c-0.9,0.1-1.7,0.2-2.5,0.3c-0.4,0-0.7,0.1-1.1,0.1
					c-0.1,0-0.2,0.2-0.3,0.3c0.1,0.1,0.2,0.2,0.3,0.3c0.3,0,0.7,0,1,0c1.3-0.1,2.6-0.6,3.9,0c0.2,0.1,0.4,0,0.5-0.2
					c0-0.1-0.2-0.3-0.3-0.4C167.9,76.2,167.4,76.1,166.9,76z M166.7,79.4C166.7,79.4,166.7,79.4,166.7,79.4
					c-0.1-0.1-0.1-0.2-0.1-0.2c0-0.2-0.1-0.5-0.3-0.5c-0.2,0-0.4,0.1-0.5,0.3c-0.1,0.2-0.2,0.5-0.2,0.8c0,0.1,0.2,0.3,0.4,0.4
					c0.1,0,0.4-0.1,0.5-0.2C166.6,79.8,166.7,79.6,166.7,79.4z M153.6,78.9c0,0,0-0.2,0-0.3c-0.1-0.3-0.3-0.3-0.5-0.2
					c-0.4,0.2-0.6,0.8-0.5,1.2c0.1,0.2,0.3,0.3,0.5,0.2C153.5,79.6,153.6,79.5,153.6,78.9z"/>
				<path class="st6" d="M173.8,131.9c0.1-0.8,0.2-1.6,0.3-2.3c0-0.2,0-0.3,0-0.5c0-0.2,0-0.4,0.2-0.5c0.2-0.1,0.1-0.3-0.1-0.5
					c-0.6-0.5-1.3-0.8-2-1.1c-1.5-0.6-3-1.3-4.5-1.9c-2-0.8-4.1-1.6-6.1-2.5c-0.3-0.1-0.4-0.4-0.4-0.7c0-0.7,0.1-1.5,0.4-2.1
					c0.1-0.3,0.3-0.5,0.6-0.7c0.3-0.3,0.4-0.5,0.3-0.9c-0.1-0.4-0.3-0.7-0.5-1c-1.7-2.6-0.7-5.9,1.7-7.5c0.8-0.5,1.5-1,2.3-1.5
					c0.1-0.1,0.3-0.2,0.4-0.3c1.8-1.8,3.2-3.8,3.1-6.4c0-1.5-0.3-3-0.6-4.5c0-0.1,0-0.3,0.1-0.4c0.7-1.4,1.5-2.8,2.1-4.2
					c0.4-0.8,0.6-1.7,0.9-2.5c0.1-0.1,0.1-0.3,0.2-0.5c0.1,0.4,0.1,0.6,0.2,0.9c0,0.8,0.4,1.5,0.8,2.1c0.7,1.3,1.7,2.5,2.8,3.6
					c0.4,0.4,0.7,0.8,1.1,1.2c0.2,0.2,0.4,0.3,0.6,0.5c0.1,0.1,0.3,0.3,0.4,0.5c0.1,0,0.3,0,0.4,0.1c0.4,0.2,0.8,0.4,1.3,0.6
					c0.3,0.2,0.7,0.4,1,0.6c0.5,0.4,1,0.9,1.5,1.4c1.4,1.3,2,3,1.9,4.8c-0.1,1.8-1,3.2-2.5,4.3c-0.4,0.3-0.8,0.7-1.1,1.1
					c-0.4,0.5-0.4,0.7,0.1,1.2c0.4,0.3,0.7,0.7,1,1c0.8,0.9,1.1,2,1.4,3.1c0.5,1.6,0.6,3.3,0.5,5c-0.1,1.5-1,2.5-2.2,3.3
					c-0.9,0.6-1.9,0.8-2.9,0.9c-0.7,0-0.8,0.2-0.8,0.9c0,0.5,0.1,1,0.2,1.5c0.1,0.7-0.1,1.3-0.5,1.8
					C176.6,130.7,175.2,131.7,173.8,131.9z"/>
				<path class="st32" d="M164.8,171.1c-0.4,0.4-0.7,0.8-0.7,1.3c0,0.2,0.1,0.4,0.3,0.6c0.6,0.7,1.4,0.8,2.2,0.6
					c0.3-0.1,0.6-0.2,0.9-0.4c0.2-0.1,0.4,0,0.4,0.2c0,0.4-0.1,0.8-0.5,1c-0.6,0.4-1.3,0.6-2.1,0.4c-0.4-0.1-0.8-0.3-1.1-0.4
					c-0.1-0.1-0.3-0.1-0.4-0.2c-0.7-0.1-1.3-0.5-1.9-0.9c-0.2-0.1-0.4-0.3-0.6-0.3c-0.9-0.3-1.8-0.5-2.8-0.6c-0.1,0-0.2,0-0.2,0
					c-0.1,0.1-0.2,0.2-0.3,0.3c0.1,0.1,0.2,0.2,0.3,0.3c0.2,0.1,0.5,0.1,0.8,0.1c0.7,0.1,1.3,0.3,2,0.4c0.2,0,0.3,0.1,0.4,0.2
					c0.5,0.3,1,0.6,1.5,0.9c0,0,0.1,0,0.1,0c0.6,0.2,1.2,0.4,1.7,0.6c0.8,0.3,1.6,0.3,2.4,0c0,0.8,0.3,1.6,0,2.3
					c0,0.1-0.1,0.1-0.1,0.2c-0.5,0.3-1.1,0.6-1.7,0.7c-0.8,0.1-1.6,0.4-2.4,0.6c-0.1,0-0.2,0.2-0.3,0.3c0.1,0.1,0.3,0.2,0.4,0.2
					c0.7-0.1,1.3-0.3,2-0.5c0.6-0.1,1.2-0.2,1.8-0.3c0,0.1,0.1,0.2,0.1,0.4c0,0.1,0,0.3,0.1,0.4c0.1,0.3,0.3,0.7,0,1
					c-0.4,0.5-0.7,1.1-1.3,1.2c-1.1,0.3-2.1,0.8-3.2,0.8c-0.2,0-0.4,0.1-0.4,0.3c0,0.2,0.2,0.3,0.4,0.2c1-0.1,2-0.1,2.9-0.6
					c0.2-0.1,0.3-0.1,0.6-0.2c0,0.2,0,0.4-0.1,0.5c0,0.2-0.1,0.4-0.1,0.6c-0.1,0.2-0.1,0.3-0.2,0.5c0,0.1-0.1,0.1-0.2,0.2
					c-0.2,0.8-1,1.1-1.6,1.3c-0.6,0.2-1.3,0.3-2,0.4c-0.2,0-0.4,0.1-0.4,0.3c0,0.3,0.2,0.3,0.4,0.3c0.7-0.1,1.3-0.2,2-0.3
					c0.1,0,0.2-0.1,0.4-0.1c0.1,0.8-0.2,1.4-0.8,1.7c-1.5,0.9-3.1,1.1-4.8,1.2c-1.4,0.1-2.6-0.4-3.9-0.8c-1.1-0.4-2.2-0.9-3.2-1.6
					c-0.3-0.2-0.7-0.4-1.1-0.5c-0.2-0.1-0.3-0.2-0.4-0.5c-0.3-1.9-0.2-3.9,0-5.8c0.1-1.4,0.3-2.8,0.5-4.3c0-0.4,0.1-0.7,0.2-1.1
					c0.5-1.4,1-2.8,1.5-4.2c0.1-0.3,0.3-0.5,0.6-0.7c0.6-0.3,1.3-0.6,1.9-0.9c0.5-0.3,1-0.4,1.5-0.3c1.2,0.1,2.3,0.1,3.5,0.2
					c0.3,0,0.7,0,1,0c0.6,0,1.2,0.2,1.8,0.6c0.7,0.5,1.5,1.1,2.2,1.6C164.6,170.9,164.7,171,164.8,171.1z"/>
				<path class="st32" d="M168.5,97.3c0.1,0.9,0.3,1.7,0.4,2.5c0.1,1.2,0.1,2.4-0.2,3.6c-0.3,1-0.7,1.9-1.4,2.6
					c-0.1,0.2-0.3,0.3-0.4,0.5c-0.6,0.9-1.5,1.4-2.4,1.9c-1.7,0.9-3,2.2-3.5,4.1c-0.5,1.5-0.4,3,0.4,4.5c0.1,0.1,0.1,0.2,0.2,0.3
					c-0.1,0-0.2,0.1-0.3,0.1c-1.3,0-2.5,0.1-3.8-0.2c-0.7-0.1-1.4-0.3-2.1-0.5c-0.5-0.1-1-0.4-1.4-0.6c-0.3-0.1-0.6-0.3-0.8-0.5
					c-0.3-0.2-0.5-0.4-0.6-0.7c-0.7-2.4-1.5-4.9-2.3-7.3c-0.4-1.2-0.6-2.4-0.6-3.7c0-2.5,0-4.9,0-7.4c0,0,0-0.1,0-0.2
					c0.4,0.6,0.9,1.2,1.3,1.9c0.6,0.9,1.3,1.7,2.2,2.3c0.5,0.3,1,0.7,1.6,0.9c2.2,1.1,4.5,1,6.8,0.6c1-0.2,2-0.5,2.9-1
					c0.2-0.1,0.3-0.2,0.5-0.4c0.7-0.5,1.4-1,2-1.6c0.5-0.5,1-1,1.4-1.6C168.3,97.5,168.4,97.5,168.5,97.3z"/>
				<path class="st33" d="M173.6,128.7c-0.2,1.1-0.3,2.2-0.5,3.3c-0.1,0.8-0.2,1.7-0.3,2.5c-0.3,1.7-0.7,3.5-1,5.2
					c-0.4,2-0.7,3.9-1.1,5.9c-0.5,2.7-1.1,5.4-1.7,8.2c-0.3,1.2-0.6,2.5-0.8,3.7c-0.4,1.9-0.7,3.7-1.1,5.6c-0.1,0.4-0.2,0.8-0.3,1.2
					c-0.4,1.9-0.8,3.9-1.2,5.8c-0.1,0.3-0.1,0.5-0.2,0.8c-1.2-0.9-2.4-1.7-3.6-2.6c0.2-0.6,0.4-1.3,0.5-2c0.3-1,0.6-2.1,0.8-3.1
					c0.4-1.6,0.7-3.2,1-4.8c0.6-3.4,1.2-6.9,1.9-10.3c0.5-2.6,1-5.2,1.5-7.8c0.6-2.9,1.2-5.8,1.9-8.7c0.1-0.6,0.2-1.1,0.3-1.7
					c0-0.1,0.1-0.2,0.2-0.3c1.2-0.3,2.4-0.6,3.6-0.9C173.5,128.7,173.6,128.7,173.6,128.7z"/>
				<path class="st6" d="M175.5,76.3c-0.2-0.4-0.4-0.8-0.6-1.1c-0.4-0.7-0.9-0.8-1.5-0.3c-0.2,0.2-0.4,0.5-0.7,0.8
					c-0.1-0.4-0.2-0.7-0.4-1c-0.4-1.1-0.7-2.2-1.1-3.3c-0.8-2-1.9-3.9-3.4-5.5c-0.3-0.3-0.7-0.7-1-1.1c-0.8-0.9-1.9-1.3-2.9-1.8
					c-0.2-0.1-0.3-0.2-0.5-0.3c-1-0.7-2.2-1-3.4-1.1c-0.3,0-0.4-0.1-0.4-0.4c0-1.8-0.1-3.6-0.1-5.4c0-0.5,0-1,0-1.6
					c0.3,0,0.6-0.1,0.9,0c1,0.1,2,0.1,3,0.2c1,0.1,2.1,0.2,3,0.6c0.2,0.1,0.4,0.1,0.5,0.3c1,0.8,2.1,1.5,3,2.4
					c0.8,0.8,1.5,1.9,2,2.9c1.1,2,1.9,4.2,2.6,6.4c0.3,1.1,0.6,2.3,0.9,3.4c0.4,1.6,0.2,3.2,0.1,4.7
					C175.6,75.5,175.5,75.9,175.5,76.3z"/>
				<path class="st6" d="M146.3,77.8c-0.7-1-1-2.2-2.4-2.6c0,0,0-0.1,0-0.2c0-1.7,0-3.5,0.1-5.2c0.1-1.4,0.4-2.7,0.9-4
					c0.2-0.6,0.4-1.3,0.7-1.9c0.7-1.8,1.8-3.5,3.1-5c1.3-1.5,3-2.6,4.7-3.5c1.2-0.7,2.6-1,4-1.3c0.5-0.1,1.1-0.1,1.7-0.1
					c0.2,0,0.3,0.1,0.3,0.3c0,2.2,0,4.4-0.1,6.7c0,0.2-0.1,0.3-0.3,0.4c-1.3,0.3-2.4,0.9-3.6,1.5c-1.8,0.9-3.3,2.2-4.6,3.7
					c-0.8,1-1.4,2.1-2,3.2c-1.1,2.4-1.9,4.9-2.3,7.5C146.3,77.5,146.3,77.6,146.3,77.8z"/>
				<path class="st38" d="M169,156.2c0.1-0.5,0.1-0.9,0.2-1.4c0.4-1.6,0.8-3.2,1.1-4.9c0.4-1.9,0.7-3.7,1.1-5.6
					c0.4-1.8,0.7-3.7,1.1-5.5c0.3-1.9,0.7-3.8,1-5.7c0.1-0.3,0.1-0.5,0.5-0.6c1.2-0.2,2.2-0.8,3.1-1.6c1.1-1.1,1.6-2.3,1.3-3.9
					c-0.1-0.3-0.1-0.5-0.1-0.8c0.7-0.1,1.3-0.2,2-0.3c0,0.5,0,1-0.1,1.5c-0.2,1.1-0.4,2.1-0.7,3.2c-0.4,1.5-0.7,2.9-1.2,4.3
					c-0.9,2.3-1.7,4.7-2.6,7c-0.8,2.2-1.7,4.3-2.7,6.4c-0.8,1.7-1.6,3.5-2.4,5.2c-0.4,0.9-1,1.8-1.5,2.7
					C169.1,156.2,169.1,156.2,169,156.2z"/>
				<path class="st38" d="M149,99.4c0,0.5-0.1,1-0.1,1.4c0,1.6,0,3.1,0.1,4.7c0,0.7,0.2,1.3,0.4,2c0.4,1.2,0.7,2.4,1.1,3.7
					c0.1,0.2,0,0.3-0.2,0.5c-0.8,0.7-1.6,1.1-2.5,1.6c-0.8,0.4-1.5,0.8-2.2,1.3c-0.2,0.2-0.4,0.1-0.6,0c-0.7-0.4-1-1.1-1.5-1.6
					c-0.4-0.4-0.7-0.7-1.1-1c-0.3-0.3-0.6-0.7-0.9-1c-0.2-0.2-0.1-0.5,0-0.7c0.6-1.2,1.1-2.5,1.8-3.7c1.3-2.6,3.3-4.8,5.4-6.9
					C148.8,99.6,148.9,99.5,149,99.4z"/>
				<path class="st33" d="M134.3,113.3c0.5,0.2,1,0.3,1.4,0.5c2,0.7,3.9,1.5,5.9,2.2c1.4,0.5,2.9,1,4.3,1.5c2,0.7,4,1.4,6,2.1
					c2.1,0.8,4.1,1.5,6.2,2.3c1.9,0.7,3.8,1.4,5.7,2.2c1.5,0.6,3,1.2,4.4,1.8c1.3,0.5,2.6,1.1,3.9,1.6c0.3,0.1,0.6,0.3,1,0.6
					c-0.3,0.1-0.5,0.2-0.7,0.2c-0.9,0.3-1.9,0.5-2.8,0.8c-0.1,0-0.2,0.1-0.3,0c-0.9-0.4-1.8-0.8-2.7-1.2c-2.1-1-4.2-1.9-6.3-2.8
					c-2.7-1.1-5.4-2.1-8-3.3c-2.9-1.2-5.7-2.5-8.6-3.7c-1.3-0.6-2.5-1.1-3.7-1.7c-1.3-0.6-2.6-1.3-4-2
					C135.5,114,134.9,113.7,134.3,113.3C134.2,113.4,134.3,113.3,134.3,113.3z"/>
				<path class="st38" d="M184.4,184.7c-2.1-0.2-4.1-0.2-6.2-0.1c-1.6,0.1-3.1,0.2-4.7,0.3c-0.4,0-0.6-0.1-0.7-0.5
					c-0.2-0.8-0.5-1.5-1-2.1c-0.3-0.4-0.4-1-0.7-1.5c1.6-0.6,3.2-1.1,4.9-1c0.8,0,1.7,0,2.5,0c1.2,0,2.3,0,3.5,0
					c0.1,0,0.3,0.1,0.3,0.2c0.7,1.5,1.3,3.1,1.9,4.6C184.4,184.6,184.4,184.7,184.4,184.7z"/>
				<path class="st32" d="M189.4,200.6c0-0.2,0-0.5-0.1-0.7c-0.2-0.9-0.5-1.7-0.7-2.6c-0.3-1.1-0.6-2.2-0.8-3.3
					c-0.6-2.3-1.2-4.7-1.8-7c-0.1-0.5-0.4-1-0.6-1.5c-0.1-0.1-0.1-0.3-0.2-0.5c0.2,0.1,0.4,0.1,0.5,0.2c0.5,0.2,1,0.4,1.6,0.6
					c0.1,0,0.2,0.1,0.2,0.2c0.3,1,0.5,2.1,0.8,3.1c0.3,1.5,0.6,3.1,0.9,4.7c0.1,0.8,0.2,1.7,0.4,2.5c0.1,0.5,0.2,0.6,0.7,0.7
					c1.2,0.3,2.4,0,3.5-0.3c0.6-0.2,0.9-0.7,1.3-1.2c0.4-0.5,0.8-1.1,1.3-1.6c0.2-0.2,0.5-0.3,0.7-0.4c0,0.3,0.1,0.5,0.1,0.8
					c-0.1,0.4-0.2,0.7-0.3,1.1c-0.4,0.8-0.8,1.5-1.4,2.2c0,0-0.1,0.1-0.1,0.1c-0.8,1.2-2,1.8-3.3,2.3c-0.4,0.2-0.9,0.3-1.3,0.4
					C190.2,200.4,189.8,200.5,189.4,200.6z"/>
				<path class="st38" d="M150.8,111.9c0.6,1.4,1.5,5.3,1.6,7.2c-2.7-1-5.5-2-8.2-3c0.1-0.1,0.2-0.1,0.3-0.2c1-0.6,2-1.2,3-1.8
					c0.3-0.2,0.7-0.4,1-0.6c0.8-0.4,1.5-0.8,2.1-1.4C150.5,112.1,150.6,112,150.8,111.9z"/>
				<path class="st37" d="M152.7,116.1c0.1,0.1,0.3,0.1,0.4,0.2c0.9,0.7,1.8,1.1,2.9,1.3c0.9,0.1,1.9,0.3,2.8,0.4
					c0.7,0.1,1.5,0,2.2,0c0.2,0,0.5-0.1,0.7-0.1c0.3,0.4,0.3,0.4-0.1,0.8c-0.3,0.4-0.6,0.8-0.7,1.2c-0.2,0.6-0.2,1.2-0.3,1.7
					c0,0.1,0,0.2,0,0.4c-0.7-0.2-1.3-0.4-1.9-0.6c-1.8-0.6-3.6-1.3-5.4-1.9c-0.3-0.1-0.4-0.2-0.4-0.5c-0.1-0.9-0.2-1.8-0.3-2.7
					C152.6,116.3,152.7,116.3,152.7,116.1z"/>
				<path class="st33" d="M156.4,193.8c0.2-1.4,0.4-2.7,0.6-4.2c1.5,0,3.2,0.1,4.9-0.5c-0.1,0.5-0.1,1-0.3,1.4
					c-0.2,0.9-0.5,1.7-0.7,2.6c0,0.2-0.1,0.2-0.3,0.2c-1.2,0-2.5,0.1-3.7,0.4c-0.1,0-0.2,0-0.2,0
					C156.6,193.9,156.5,193.8,156.4,193.8z"/>
				<path class="st33" d="M152.3,188.2c1.3,0.8,2.7,1.1,4.2,1.5c-0.2,1.2-0.5,2.5-0.7,3.7c-0.7-0.4-6.3-3.9-6.7-4.2
					c0.6,0.1,1.3,0.1,1.9,0.2c0.7,0.1,1-0.1,1.2-0.8C152.3,188.4,152.3,188.3,152.3,188.2z"/>
				<path class="st32" d="M194.8,190.9c0,0.4,0.1,0.8,0,1.2c-0.3,1.4-0.9,2.6-1.7,3.8c-0.2,0.3-0.5,0.4-0.8,0.4
					c-0.3,0-0.6,0.1-0.9,0.1c-0.2,0-0.4,0-0.7,0c-0.6-0.1-0.7-0.2-0.6-0.7c0.7-0.3,1.3-0.5,1.9-0.8c0.2-0.1,0.2-0.3,0.3-0.5
					c0.1-0.1,0.1-0.2,0.1-0.2c0.6-0.9,1.1-1.9,1.7-2.8c0.1-0.2,0.3-0.4,0.5-0.6C194.7,190.9,194.7,190.9,194.8,190.9z"/>
				<path class="st32" d="M190,195.2c-0.1-0.4-0.1-0.8-0.2-1.1c0-0.1,0-0.3,0.1-0.4c0.2-0.6,0.5-1.1,0.8-1.7
					c0.3-0.7,0.7-1.3,1.3-1.9c0.1,0.9,0.1,1.7-0.2,2.5c-0.2,0.7-0.5,1.3-0.8,2C190.8,195,190.4,195,190,195.2z"/>
				<path class="st32" d="M165.1,171.3c0.7,0.5,1.3,0.9,2,1.4c-0.1,0.1-0.2,0.2-0.3,0.2c-0.3,0.1-0.6,0.1-0.8,0.1
					c-0.5,0.1-0.9-0.2-1.2-0.5c-0.1-0.1-0.1-0.2,0-0.3C164.7,171.9,164.9,171.7,165.1,171.3z"/>
				<path class="st38" d="M150.2,186.8c0.5,0.3,1,0.6,1.5,0.9c0.1,0,0.1,0.2,0.1,0.2c-0.1,0.3-0.2,0.5-0.4,0.8
					c-0.2-0.1-0.4-0.3-0.6-0.4C150.4,187.9,150.3,187.4,150.2,186.8z"/>
				<path class="st6" d="M155.5,93.7c-0.2-0.1-0.5-0.2-0.5-0.3c0-0.3,0.3-0.3,0.6-0.3c0.8,0.1,1.4-0.3,2.1-0.5
					c0.4-0.1,0.8-0.2,1.3,0c0.3,0.1,0.7,0.1,1.1,0.1c0.5,0,1.1,0,1.6,0c0.8,0,1.7,0,2.5,0.1c0.1,0,0.3,0,0.4,0
					c0.1,0.1,0.2,0.2,0.3,0.3c0,0.1-0.2,0.2-0.3,0.3c-0.5,0.1-0.8,0.5-1.2,0.8c-0.5,0.4-1.1,0.8-1.6,1.1c-1,0.6-2.1,0.7-3.3,0.6
					c-0.8-0.1-1.3-0.5-1.8-1c-0.2-0.2-0.3-0.4-0.5-0.6c-0.1-0.1-0.2-0.1-0.3-0.2C155.7,93.9,155.6,93.8,155.5,93.7z M162.5,93.5
					c0,0,0-0.1,0-0.1c-0.3,0-0.6-0.1-1-0.1c-0.5-0.1-0.9-0.1-1.4,0c-0.5,0.1-1,0.1-1.5-0.1c-0.2-0.1-0.5-0.1-0.7,0
					c-0.4,0.1-0.8,0.3-1.2,0.4c-0.1,0-0.1,0.1-0.2,0.1C158.5,93.9,160.5,94,162.5,93.5z M162,94.3c-0.6,0.1-1.2,0.1-1.7,0.1
					c-0.5,0-1.1,0-1.6,0c-0.5,0-1-0.1-1.7-0.1C158.4,95.8,160.9,95.2,162,94.3z"/>
				<path class="st6" d="M158.3,84.4c-0.1,1.1-0.1,2.3-0.2,3.4c0,0.6,0.2,0.8,0.8,0.7c0.6-0.1,1.2-0.3,1.8-0.6
					c0.1,0,0.2-0.2,0.3-0.4c0.1-0.2,0.2-0.4,0.3-0.6c0.1-0.1,0.3-0.2,0.4-0.1c0.1,0,0.2,0.3,0.1,0.4c-0.2,0.6-0.5,1.3-1.3,1.5
					c-0.7,0.2-1.3,0.5-2,0.4c-0.6,0-1.1-0.5-1.1-1.1c0-0.9,0.1-1.8,0.2-2.7c0.1-0.9,0.1-1.7,0.2-2.6c0-0.1,0-0.3,0-0.4
					c0-0.1,0.1-0.2,0.1-0.3c0.1,0.1,0.2,0.1,0.2,0.2c0.1,0.4,0.1,0.9,0.1,1.3C158.3,83.9,158.2,84.1,158.3,84.4
					C158.2,84.4,158.3,84.4,158.3,84.4z"/>
				<path class="st6" d="M155.3,77c-0.2-0.1-0.4-0.1-0.5-0.2c-0.9-0.5-1.9-0.4-2.9-0.4c-0.5,0-1,0.1-1.5,0.1c-0.1,0-0.2,0-0.3,0
					c-0.1,0-0.2-0.2-0.2-0.3c0-0.1,0.1-0.2,0.2-0.2c1.4-0.3,2.8-0.5,4.1-0.2c0.4,0.1,0.8,0.3,1.2,0.5c0.1,0,0.2,0.2,0.2,0.4
					C155.6,76.9,155.4,76.9,155.3,77z"/>
				<path class="st6" d="M166.9,76c0.4,0.1,1,0.2,1.5,0.4c0.1,0,0.3,0.3,0.3,0.4c0,0.2-0.3,0.3-0.5,0.2c-1.3-0.5-2.6-0.1-3.9,0
					c-0.3,0-0.7,0-1,0c-0.1,0-0.2-0.2-0.3-0.3c0.1-0.1,0.2-0.3,0.3-0.3c0.3-0.1,0.7-0.1,1.1-0.1C165.2,76.3,166,76.2,166.9,76z"/>
				<path class="st6" d="M166.7,79.4c-0.1,0.2-0.1,0.4-0.3,0.6c-0.1,0.1-0.3,0.2-0.5,0.2c-0.2,0-0.4-0.2-0.4-0.4
					c0-0.3,0-0.6,0.2-0.8c0.1-0.1,0.3-0.3,0.5-0.3c0.3,0,0.3,0.2,0.3,0.5C166.7,79.2,166.7,79.3,166.7,79.4
					C166.7,79.4,166.7,79.4,166.7,79.4z"/>
				<path class="st6" d="M153.6,78.9c0,0.6-0.1,0.8-0.5,0.9c-0.3,0.1-0.4,0-0.5-0.2c-0.2-0.4,0-1,0.5-1.2c0.3-0.1,0.4,0,0.5,0.2
					C153.7,78.7,153.6,78.8,153.6,78.9z"/>
				<path class="st32" d="M162.5,93.5c-2,0.5-4,0.4-6,0.1c0.1,0,0.1-0.1,0.2-0.1c0.4-0.1,0.8-0.3,1.2-0.4c0.2-0.1,0.5-0.1,0.7,0
					c0.5,0.2,1,0.2,1.5,0.1c0.5-0.1,0.9-0.1,1.4,0c0.3,0.1,0.6,0.1,1,0.1C162.5,93.4,162.5,93.5,162.5,93.5z"/>
				<path class="st32" d="M162,94.3c-1.1,0.9-3.6,1.5-5,0c0.6,0,1.1,0.1,1.7,0.1c0.5,0,1.1,0,1.6,0C160.9,94.4,161.4,94.4,162,94.3z
					"/>
			</g>
		</g>
		<g id="Ma1erF.tif_3_">
			<g>
				<path class="st6" d="M94.2,217c-0.2,0.4-0.3,0.8-0.5,1.1c-0.3,0.6-0.7,1.2-1,1.7c-0.4,0.6-1,0.9-1.7,1c-0.5,0-1-0.1-1.5-0.1
					c-0.3,0-0.6,0-0.9,0c-3.1,0-6.1,0-9.2-0.1c-1.1,0-2.2-0.2-3.3-0.4c-1.7-0.2-3.4-0.5-5.1-0.8c-2.3-0.4-4.7-0.7-7-1
					c-0.5-0.1-1-0.2-1.5-0.4c-1.2-0.3-2.5-0.7-3.7-0.9c-1-0.2-2-0.6-2.9-1.2c-0.5-0.3-1-0.5-1.5-0.8c-0.6-0.3-1.1-0.6-1.7-1
					c-0.1-0.1-0.1-0.4-0.2-0.6c0-0.1,0-0.3,0-0.3c-0.7-0.8-0.8-1.8-0.9-2.9c-0.3-3.2-0.2-6.4-0.1-9.7c0-3,0.2-5.9,0.3-8.9
					c0-0.8,0-1.6,0-2.3c0-5.4,0.1-10.7,0-16.1c0-3.1-0.1-6.1-0.4-9.2c-0.2-2.8-0.7-5.6-1.3-8.3c-0.3-1.3-0.5-2.7-1-4
					c0-0.1-0.1-0.2-0.2-0.4c-0.1,0.2-0.1,0.4-0.2,0.5c-0.8,2.5-1.6,5-2.9,7.2c-0.7,1.4-1.6,2.6-2.8,3.6c-1,0.8-1.9,1.6-3,2.1
					c-2.3,0.9-4.5,1.9-6.9,2.4c-1.6,0.3-3.1,0.4-4.7,0.4c-0.7,0-1.3-0.3-1.9-0.6c-1.9-1-3-2.6-3.9-4.5c-0.5-1-1-2.1-1.5-3.1
					c-0.8-1.6-1.2-3.3-1.4-5.1c-0.2-1.8-0.2-3.6,0-5.4c0.2-1.8,0.9-3.4,1.6-5.1c0.9-2,2.1-3.8,3.5-5.6c0.7-0.9,1.5-1.8,2.2-2.7
					c0,0,0.1-0.1,0.1-0.1c0.1-1,0.7-1.8,1.1-2.7c1.2-2.8,2.5-5.6,3.6-8.5c0.7-1.8,1.6-3.6,2.3-5.4c1.1-2.6,2.2-5.2,3.4-7.8
					c1.1-2.4,2.4-4.8,3.6-7.2c0.8-1.6,2.1-2.7,3.7-3.6c1.7-1,3.5-1.7,5.4-2.1c0.9-0.2,1.9-0.5,2.8-0.7c1.2-0.3,2.4-0.4,3.6-0.7
					c0.8-0.1,1.4-0.5,2-1c1.3-1,2.6-2,3.9-2.9c0.5-0.3,1.2-0.5,1.8-0.6c1.3-0.3,2.7-0.4,4-0.7c0.3-0.1,0.6-0.2,0.9-0.3
					c1-0.4,2-0.8,2.9-1.2c0.3-0.1,0.5-0.3,0.7-0.5c0.1,0,0.1-0.2,0.1-0.3c-0.1-2.3-0.1-4.7-0.2-7c0-0.6,0-1.2-0.1-1.7
					c-0.2-0.8-0.4-1.7-0.6-2.5c-0.5-1.8-0.9-3.6-1.3-5.5c0-0.1-0.1-0.2-0.1-0.3c-0.3,0.1-0.5,0.3-0.8,0.4c-0.5,0.1-0.9-0.1-1.2-0.4
					c-0.6-0.5-1-1.1-1.1-1.9c-0.4-1.8-0.5-3.5-0.3-5.3c0.1-0.4,0.2-0.9,0.3-1.3c0-0.1,0-0.1,0-0.2c-0.1-0.3-0.2-0.6-0.2-0.9
					c0-2.5,0-5.1,0.2-7.6c0.1-1.6,0.3-3.3,0.6-4.9c0.3-1.6,1.2-2.9,2.2-4.1c1.3-1.6,2.8-3.1,4.4-4.4c0.3-0.3,0.7-0.5,1.1-0.8
					c0.2-0.2,0.5-0.4,0.7-0.6c0.6-0.3,1.2-0.5,1.8-0.8c0.3-0.1,0.6-0.2,0.9-0.3c2.6-1,5.4-1.4,8.2-1.6c1.8-0.1,3.6,0.2,5.3,0.6
					c1,0.3,2,0.6,2.8,1.3c0.6,0.5,1.2,0.8,1.8,1.3c1,0.9,1.8,1.9,2.4,3.2c1.3,3,2.1,6.1,2.5,9.3c0.2,1.8,0.3,3.5,0.3,5.3
					c0,0.6,0,1.3,0,1.9c0.2,0,0.3,0,0.4,0c0.2,0.3,0.3,0.5,0.4,0.7c0.4,0.6,0.6,1.2,0.6,1.9c0,1-0.1,2-0.2,3
					c-0.1,0.9-0.3,1.7-0.5,2.6c-0.2,0.9-0.5,1.6-1.3,2.1c-0.2,0.1-0.5,0.2-0.8,0.3c-0.2,0.9-0.3,2-0.5,3c-0.5,2.9-1.2,5.8-2,8.6
					c-0.5,1.9-1.3,3.8-2.2,5.6c-0.1,0.2-0.1,0.4-0.2,0.6c-0.1,0.9-0.1,1.8-0.2,2.6c0,0.2,0,0.4,0.3,0.4c0.2,0,0.4,0.1,0.5,0.2
					c0.8,0.5,1.5,1,2.3,1.5c0,0,0.1,0.1,0.1,0.1c0.2,0.4,0.6,0.3,0.9,0.3c1.6-0.1,3.2-0.1,4.8-0.2c0.4,0,0.5,0.1,0.5,0.5
					c0.1,1,0.2,2,0.3,2.9c0,0.1,0.2,0.2,0.3,0.3c0.2,0.1,0.5,0.2,0.7,0.4c0.5,0.3,1,0.7,1.7,0.6c0.1,0,0.1,0,0.2,0
					c0.7,0.3,1.4,0.6,2.1,1c0.5,0.2,1,0.4,1.5,0.6c0.9,0.4,1.7,0.9,2.6,1.3c1.2,0.7,2.3,1.4,3.5,2.1c1.1,0.7,1.9,1.6,2.4,2.8
					c0.4,1.1,0.8,2.2,1,3.3c0.3,1.2,0.4,2.4,0.6,3.5c0.5,4.3,0.4,8.6,0.3,12.9c-0.1,3.9,0,7.8-0.2,11.8c-0.1,2.7-0.1,5.4-0.4,8.1
					c-0.3,2.4-0.5,4.9-0.7,7.3c-0.2,2.6-0.7,5.1-1,7.6c-0.5,3.5-1.4,7-2.5,10.4c-0.9,2.8-1.9,5.6-2.9,8.4c-0.3,0.8-0.3,1.7-0.4,2.5
					c-0.2,3.1-0.3,6.3-0.6,9.4c-0.3,3.3-0.6,6.7-0.9,10c-0.1,0.8-0.2,1.6-0.2,2.3c0.1,0.5-0.2,0.8-0.4,1.2c-0.7,1.4-1.5,2.6-2.6,3.8
					c-2.1,2.3-4.5,4.2-7.1,5.8c-1.6,1-3.2,2-4.8,2.9c-0.9,0.5-1.8,0.9-2.9,0.8c-0.5-0.1-1-0.3-1.1-0.8
					C94.5,218.1,94.4,217.6,94.2,217z M53.3,213.8c0.5,0.3,0.9,0.6,1.4,0.8c0.5,0.3,1.1,0.5,1.7,0.9c0.8,0.5,1.7,0.8,2.6,1
					c0.4,0.1,0.8,0.1,1.1,0.2c1.2,0.3,2.5,0.7,3.7,1c2,0.4,4.1,0.6,6.1,1c2.1,0.3,4.3,0.7,6.4,1c1.1,0.2,2.2,0.3,3.4,0.4
					c1.9,0.1,3.8,0,5.8,0.1c1.4,0,2.9-0.2,4.3,0.2c0.3,0.1,0.6,0,0.9,0c0.6,0,1.2-0.3,1.6-0.8c0.7-1,1.2-2.1,1.6-3.2
					c0.1-0.2,0.1-0.4,0.1-0.6c0-3.1,0.1-6.3,0.1-9.4c0-5.8,0.1-11.5,0.1-17.3c0-2,0.1-4,0.1-6.1c0-1.5,0-3,0.1-4.5
					c0.1-3.2,0.1-6.4,0.2-9.7c0-0.3-0.1-0.5-0.3-0.7c-0.8-0.7-1.5-1.3-2.2-2.1c-0.8-0.8-1.5-1.6-2.2-2.4c-2.7-2.9-5.1-6-7.4-9.3
					c-1.6-2.4-3.2-4.8-4.6-7.3c-1.1-2-2.3-4-3.3-6.1c-1.2-2.4-2.2-4.9-3.2-7.4c-0.7-1.6-1.2-3.3-1.7-4.9c-0.1-0.2-0.2-0.4-0.3-0.6
					c-0.3-0.7-0.5-1.4-0.8-2.1c-0.2-0.6-0.3-1.1-0.5-1.8c-0.2,0.7-0.8,0.9-1.4,0.8c-0.6-0.1-1-0.5-1.4-0.9c-0.3-0.4-0.8-0.7-1.1-1
					c-0.1,0.2-0.1,0.4-0.2,0.6c-0.6,1.2-1.5,2.2-2.6,3c-0.6,0.4-1.1,0.8-1.7,1.1c-1.2,0.6-2.4,1.1-3.6,1.6c-1,0.4-1.9,0.8-2.8,1.3
					c-0.5,0.3-1,0.7-1.4,1.2c-1,1.1-1.8,2.5-2.4,3.9c-0.1,0.1,0,0.3,0,0.5c0.1,0.3,0.3,0.6,0.3,1c0.1,0.6,0.1,1.2,0.1,1.8
					c0.1,1.6,0.3,3.3,0.3,4.9c0.1,2.2-0.3,4.3-0.8,6.5c-0.1,0.3,0,0.6,0.1,0.9c0.2,0.5,0.4,1,0.6,1.5c0.6,1.6,0.9,3.4,1.1,5.1
					c0.4,2.3,0.8,4.6,1,6.9c0.2,3.1,0.3,6.2,0.3,9.3c0,4.5,0,9,0,13.4c0,3.4-0.1,6.7-0.2,10.1c-0.1,3.8-0.2,7.6-0.1,11.4
					c0,0.8,0.1,1.6,0.2,2.4c0.1,0.6,0.2,1.3,0.8,1.7C53.4,213.2,53.6,213.5,53.3,213.8z M95,169c0,0.3,0,0.5,0,0.7
					c0,0.9,0.1,1.9,0.1,2.8c0,0.5-0.1,1-0.1,1.6c-0.1,3.4-0.1,6.9-0.2,10.3c0,2.5-0.1,5-0.1,7.5c0,4.4,0,8.8,0,13.3
					c0,3.2-0.1,6.4-0.1,9.7c0,0.1,0,0.3,0.1,0.4c0.1,0.2,0.1,0.5,0.2,0.7c0.1,0.8,0.3,1.6,0.4,2.4c0.1,0.4,0.3,0.5,0.7,0.5
					c0.6,0.1,1.1-0.1,1.7-0.3c0.9-0.4,1.8-0.9,2.6-1.3c2.2-1.2,4.3-2.6,6.3-4.1c2.2-1.7,4.2-3.7,5.7-6.1c0.5-0.8,0.7-1.6,0.8-2.5
					c0.2-0.9,0.2-1.9,0.2-2.9c0.3-3.1,0.6-6.1,0.8-9.2c0.2-3.1,0.4-6.1,0.6-9.2c0-0.3-0.1-0.5-0.1-0.8c0-0.1,0-0.2,0-0.3
					c0.1-0.6,0.2-1.2,0.3-1.8c0.1-2.6,0.2-5.1,0.3-7.7c0.1-2.2,0.3-4.5,0.4-6.7c0.1-1.3,0.2-2.5,0.3-3.8c0.2-2.2,0.5-4.4,0.7-6.6
					c0.2-2.2,0.4-4.4,0.6-6.6c0.2-2.7,0.5-5.3,0.7-8c0.2-1.8,0.3-3.6,0.5-5.3c0.2-2.6,0.5-5.3,0.7-7.9c0.1-2.9,0.2-5.8,0.2-8.7
					c0-0.7-0.1-1.4-0.2-2.1c-0.2-1.5-0.2-3-0.2-4.5c0-0.1,0.1-0.3,0.2-0.4c0.1,0.1,0.2,0.3,0.2,0.4c0.1,1.3,0.2,2.7,0.3,4
					c0.1,1,0.2,2,0.3,3.1c0.1,3.3,0,6.6-0.3,9.8c-0.1,1.8-0.3,3.7-0.5,5.5c-0.2,2-0.4,4-0.6,6c-0.1,1.5-0.2,3.1-0.4,4.6
					c-0.2,1.9-0.4,3.9-0.5,5.8c-0.2,1.9-0.3,3.8-0.5,5.7c-0.2,2.5-0.5,5-0.7,7.5c-0.2,2.3-0.3,4.6-0.5,6.9c-0.1,2.5-0.3,5-0.4,7.5
					c0,0.1,0,0.2,0,0.4c0.1-0.1,0.1-0.1,0.2-0.2c0.3-0.9,0.6-1.8,0.9-2.7c1-2.8,2-5.7,2.7-8.6c0.4-1.9,0.8-3.8,1.1-5.7
					c0.3-1.9,0.6-3.7,0.8-5.6c0.3-2.8,0.6-5.6,0.8-8.4c0.1-1.4,0.4-2.9,0.3-4.3c0-0.3,0-0.6,0-0.9c0.1-1.5,0.2-3,0.2-4.5
					c0-1.7,0-3.4,0-5.1c0.1-4.3,0.2-8.6,0.2-12.9c0-2.9-0.3-5.8-0.8-8.7c-0.2-1.3-0.6-2.5-1.1-3.7c-0.4-1.1-1.1-2-2.1-2.6
					c-0.9-0.6-1.9-1.2-2.8-1.7c-1-0.6-2-1.3-3.2-1.7c-0.9-0.3-1.7-0.7-2.6-1c-0.1-0.1-0.3-0.1-0.4-0.2c-0.3-0.2-0.7-0.3-1.1-0.4
					c-0.3,0-0.7-0.2-1-0.4c-0.4-0.2-0.7-0.5-1.1-0.8c0,0,0,0.1,0,0.1c0.4,0.4,0.7,0.8,1.1,1.2c0.5,0.6,0.9,1.2,1.2,1.9
					c0.2,0.4,0.5,0.9,0.7,1.3c0.4,0.9,0.9,1.9,1.3,2.8c0.2,0.3,0,0.6-0.3,0.8c-0.6,0.4-1.1,0.8-1.7,1.2c-0.2,0.1-0.3,0.3-0.6,0.5
					c0.9,0.3,1.8,0.5,2.6,0.8c0.5,0.2,1.1,0.4,1.6,0.6c0.4,0.1,0.5,0.4,0.5,0.8c0,1,0,2,0,3c-0.1,1.5-0.3,2.9-0.3,4.3
					c0.1,2-0.3,3.9-0.5,5.9c-0.3,2.7-0.7,5.5-1.3,8.2c-0.4,2.3-0.8,4.6-1.6,6.8c-0.1,0.3-0.2,0.6-0.3,0.9c-0.8,2.6-1.5,5.2-2.3,7.7
					c-1,2.9-2.1,5.7-3.2,8.5c-0.7,1.7-1.3,3.3-2.2,4.9c-0.9,1.4-1.8,2.9-2.7,4.3c-0.6,0.9-1,1.8-1.8,2.5
					C96.4,168.6,95.8,168.9,95,169z M101.8,71.2c0.7-0.4,1-0.9,1.2-1.6c0.5-1.9,0.7-3.7,0.7-5.7c0-0.6-0.1-1.1-0.4-1.6
					c-0.1-0.2-0.3-0.3-0.5-0.1c-0.3,0.3-0.6,0.7-0.7,1.2c0,0.3,0,0.7-0.1,1c0,0.1-0.2,0.2-0.3,0.3c-0.1-0.1-0.2-0.2-0.2-0.3
					c0-0.1,0-0.2,0-0.3c0-0.4,0-0.8-0.1-1.2c0-0.1-0.1-0.2-0.1-0.3c-0.3-0.1-0.5-0.4-0.5-0.7c-0.1-0.8-0.3-1.6-0.3-2.4
					c-0.1-2.2-0.7-4.1-1.9-6c-0.3-0.6-0.9-1-1.6-1c-1.5-0.2-3.1-0.1-4.6,0.3c-2.3,0.6-4.6,1.3-6.9,2c-1.2,0.3-2.4,0.5-3.6,0.5
					c-0.2,0-0.5,0-0.6-0.2c-0.1-0.3,0.1-0.4,0.3-0.5c1.1-0.8,2.1-1.7,3-2.7c0.2-0.2,0.2-0.4-0.1-0.4c-0.6-0.1-1.3-0.1-1.9,0
					c-1.4,0.3-2.7,0.8-4,1.4c-1.8,0.9-3.4,2-4.9,3.4c-1.1,1.1-1.7,2.4-1.9,3.9c-0.2,1.8-0.3,3.6-0.4,5.5c0,0.3,0,0.6-0.1,0.9
					c0,0.1-0.1,0.2-0.2,0.2c-0.1,0-0.2-0.1-0.3-0.2c-0.1-0.1-0.1-0.2-0.1-0.3c-0.1-0.4-0.2-0.9-0.4-1.3c-0.2-0.4-0.5-0.8-0.8-1.1
					c-0.1-0.2-0.3-0.2-0.5,0.1c-0.4,0.8-0.8,1.5-0.8,2.4c-0.1,1.5,0,3,0.3,4.5c0.1,0.7,0.5,1.4,1.1,1.9c0.5,0.4,0.9,0.2,1.1-0.3
					c0.1-0.2,0.1-0.5,0.2-0.7c0.1-0.1,0.3-0.3,0.4-0.3c0.1,0,0.3,0.2,0.3,0.4c0.1,0.4,0.1,0.7,0.2,1.1c0.4,2.2,0.9,4.4,1.6,6.6
					c0.9,2.9,1.9,5.7,3.7,8.3c0.8,1.1,1.7,2,2.8,2.7c1.5,0.9,3,1.8,4.6,2.4c0.6,0.2,1.3,0.4,1.9,0.6c0.8,0.2,1.6,0.3,2.4,0.1
					c1.5-0.3,2.9-0.7,4.2-1.4c0.8-0.4,1.5-1,2.2-1.6c0.7-0.6,1.2-1.4,1.6-2.3c0.5-1.2,1.1-2.3,1.5-3.5c0.7-2.5,1.4-5.1,2-7.6
					c0.5-2.4,0.9-4.8,1.3-7.2c0-0.2,0-0.3,0.1-0.5c0-0.1,0.1-0.1,0.2-0.2c0.1,0.1,0.2,0.1,0.2,0.2c0,0.2,0,0.4,0,0.7
					C101.9,70.3,101.9,70.7,101.8,71.2z M59,108.9c0,0,0,0.1,0,0.1c-0.7,0-1.3,0-2,0c-0.2,0-0.4-0.1-0.4-0.3c0-0.3,0.2-0.3,0.4-0.3
					c0.1,0,0.1,0,0.2,0c1.9,0.1,3.7,0.1,5.6,0.2c1.3,0.1,2.6,0.2,3.9,0.7c0.5,0.2,0.9,0.5,1.4,0.7c0.9,0.4,1.5,1.1,1.9,2
					c0.5,1,1,2,1.6,2.9c0.4,0.8,1,1.4,2.1,1.1c0.7-0.2,1.2-0.6,1.2-1.4c0-0.6-0.1-1.2-0.1-1.7c-0.1-0.5-0.2-0.9-0.3-1.4
					c-0.2-0.7-0.5-1.5-0.8-2.2c-0.3-0.7-0.7-1.4-1.2-2c-0.4-0.6-1-1.1-1.5-1.7c-0.8-0.9-1.5-1.8-2.3-2.6c-0.2-0.2-0.7-0.5-1-0.4
					c-1.6,0-3.3,0.2-4.9,0.3c-0.4,0-0.9,0.2-1.3,0.2c-1.6,0.1-3.2,0.1-4.7,0.5c-1.7,0.4-3.5,0.8-5.2,1.3c-0.8,0.2-1.6,0.6-2.4,1
					c-1.6,0.7-3.1,1.7-3.7,3.5c-0.1,0.1-0.1,0.2-0.2,0.4c-0.6,1.1-1.2,2.1-1.7,3.2c-1.4,2.9-2.8,5.9-4.3,8.8c-1.5,3-3.1,5.9-5,8.7
					c-0.6,0.9-1.1,1.9-1.7,2.9c-0.3,0.5-0.5,1-0.5,1.6c0,1.2,0.3,2.2,0.7,3.3c0.4,1.1,0.8,2.1,1.7,2.9c0.9,0.8,1.8,1.7,3,2
					c0.8,0.2,1.5,0.3,2.3,0.4c0.8,0.1,1.6,0.1,2.3-0.2c1.3-0.5,2.6-1,3.7-1.9c0.7-0.6,1.3-1.1,1.6-2c0.5-1.5,1.2-3,1.9-4.4
					c0.6-1.2,1.3-2.3,2.1-3.3c0.5-0.5,1-1,1.5-1.4c0.9-0.5,1.8-1,2.8-1.3c1.6-0.6,3.2-1.2,4.6-2.1c1.4-0.9,2.6-2,3.5-3.4
					c0.1-0.2,0.2-0.4,0.2-0.6c0-0.1,0-0.2-0.1-0.2c-0.9-0.9-2-1.6-3.2-1.9c-1.8-0.4-3.7-0.6-5.5-0.1c-0.8,0.2-1.4,0.6-1.8,1.3
					c-0.5,0.9-1.1,1.7-1.7,2.6c-0.1,0.1-0.2,0.1-0.3,0.1c0-0.1,0-0.3,0-0.4c0.6-1,1.2-2.1,1.7-3.1c0.2-0.4,0.6-0.7,1-0.9
					c0.6-0.2,1.3-0.5,1.9-0.5c2.1-0.2,4.1-0.1,6.1,0.8c1,0.5,1.8,1.2,2.7,1.9c0.5,0.4,0.8,0.9,1.3,1.4c0.2,0.2,0.5,0.4,0.8,0.5
					c0.2,0.1,0.5,0.2,0.7-0.1c0.3-0.5,0.5-0.9,0.4-1.5c-0.1-1.1-0.1-2.1-0.2-3.2c0-0.2-0.1-0.5-0.3-0.7c-0.5-0.5-1-0.9-1.6-1.3
					c-1.1-0.7-2.2-1.4-3.4-2.2c-0.2-0.1-0.4-0.2-0.6-0.3c-0.3-0.2-0.6-0.3-0.9-0.5c-0.5-0.3-1-0.6-1.7-0.6c-0.8,0-1.6,0.1-2.4,0.2
					c-1.1,0.1-2.2,0.2-3.2,0.2c-0.1,0-0.2-0.1-0.4-0.2c0.1-0.1,0.2-0.2,0.4-0.2c1.5-0.2,3-0.4,4.6-0.5c0.7-0.1,1.5-0.1,2.2,0.2
					c0.7,0.3,1.4,0.7,2.1,1.1c0.1,0.1,0.3,0.2,0.4,0.3c0.3,0.2,0.7,0.5,1,0.7c1.3,0.7,2.5,1.5,3.6,2.5c0.3,0.3,0.6,0.6,0.6,1
					c0.1,1,0.2,2,0.2,3.1c0,0.5,0.3,0.7,0.5,1.1c0,0,0.1,0.1,0.1,0.1c0.5-0.1,1-0.1,1.4-0.4c0.6-0.4,0.9-1.2,1.2-1.9
					c0,0,0-0.1,0-0.1c0-0.6,0-1.2,0-1.7c-0.1-1-0.2-2.1-0.3-3.1c0-0.1-0.1-0.3-0.1-0.4c-0.6-1.1-1.3-2.1-1.9-3.3
					c-0.4-0.8-0.9-1.6-1.8-2c-0.2-0.1-0.3-0.2-0.5-0.3c-0.6-0.2-1.1-0.6-1.7-0.7C63.3,109.2,61.1,109.1,59,108.9z M105.6,95.4
					c-0.5,0-0.9,0-1.3,0c-3,0.2-6.1,0.4-9.1,0.6c-1.9,0.1-3.8,0.1-5.7,0.1c-2.8,0-5.5-0.1-8.3-0.1c-0.9,0-1.9-0.2-2.8,0.2
					c0,0-0.1,0-0.1,0c-1.4,0.1-2.7,0.3-4.1,0.4c-0.1,0-0.2,0.1-0.4,0.1c0,0.7,0,1.5,0,2.2c-0.1,1.2-0.2,2.3-0.3,3.5
					c-0.1,1.4-0.3,2.8-0.4,4.2c0,0.1,0,0.3,0.1,0.5c0.4,0.8,0.8,1.6,1.2,2.4c0.3,0.7,0.5,1.4,0.7,2.1c0.3,1.2,0.5,2.5,0.3,3.8
					c0.9,0,1.9,0,2.8,0c0.8,0,1.5-0.1,2.3-0.1c0.8,0,1.5-0.1,2.3-0.1c1.6-0.1,3.2-0.1,4.8-0.3c2.1-0.1,4.2-0.3,6.3-0.5
					c1.6-0.1,3.1-0.2,4.7-0.3c0.7,0,1.4-0.2,2.1-0.2c1.5-0.1,3.1-0.1,4.6-0.2c0.4,0,0.8,0,1.2-0.1
					C106.2,107.6,106.3,101.5,105.6,95.4z M29.4,134.9C29.4,134.9,29.3,134.9,29.4,134.9c-0.3,0.1-0.5,0.2-0.7,0.4
					c-0.8,0.8-1.5,1.6-2.2,2.4c-1.7,2.1-3.4,4.2-4.4,6.8c-0.7,1.7-1.4,3.3-1.6,5.1c-0.1,1.2-0.1,2.5-0.1,3.7c0.1,2,0.4,4,1.3,5.8
					c0.6,1.3,1.1,2.5,1.8,3.8c0.8,1.6,1.8,3.1,3.5,3.9c0.5,0.3,1.1,0.5,1.7,0.5c1.5,0,2.9,0,4.4-0.4c2.4-0.5,4.6-1.5,6.8-2.4
					c1.1-0.4,2-1.3,2.9-2c1.2-0.9,2-2.1,2.7-3.4c0.9-1.8,1.7-3.6,2.3-5.6c0.5-1.6,0.9-3.1,1.2-4.7c0.2-1.3,0.4-2.6,0.5-4
					c0.1-1.1-0.1-2.2-0.1-3.2c0,0-0.1,0-0.1,0c0,0.1-0.1,0.2-0.1,0.2c-0.6,2-1.7,3.8-2.7,5.6c-0.3,0.6-0.8,1-1.2,1.5
					c-1.4,1.8-2.9,3.4-4.9,4.4c-1.2,0.6-2.4,1-3.7,1c-0.6,0-1.3-0.2-1.9-0.3c-0.5-0.1-1.1-0.3-1.5-0.6c-0.9-0.5-1.7-1.1-2.3-2.1
					c-0.1-0.2-0.3-0.4-0.4-0.5c-1-1.2-1.6-2.6-1.9-4c-0.5-2-0.7-4-0.7-6c0-2,0.5-3.9,1.3-5.8C29.3,135.1,29.3,135,29.4,134.9z
					 M101.7,62.2c0.6-0.3,0.7-0.8,0.6-1.4c0,0,0-0.1,0-0.1c-0.1-2.2-0.1-4.5-0.4-6.7c-0.4-3.1-1.2-6-2.4-8.8c-0.5-1.1-1.3-2-2.1-2.8
					c-0.6-0.5-1.3-0.9-1.9-1.4c-0.7-0.6-1.6-0.9-2.5-1.1c-2.4-0.7-4.8-0.8-7.2-0.6c-2.5,0.2-4.9,0.9-7.3,1.9c-1,0.4-2,0.9-2.8,1.6
					c-1.7,1.4-3.3,2.9-4.6,4.6c-0.9,1.1-1.7,2.4-2,3.8c-0.3,1.3-0.5,2.6-0.6,3.9c-0.1,2.7-0.2,5.5-0.2,8.2c0,0.1,0,0.2,0,0.2
					c0.1-0.1,0.2-0.3,0.3-0.4c0.1-0.1,0.3-0.2,0.4-0.2c0.4,0.1,0.9,0.2,1.1,0.6c0.3,0.4,0.5,0.7,0.8,1.1c0-0.1,0-0.2,0-0.2
					c0.1-1.4,0.1-2.9,0.3-4.3c0.2-1.4,0.6-2.6,1.5-3.7c1.3-1.4,2.8-2.5,4.3-3.5c0.2-0.1,0.4-0.2,0.6-0.3c0.6-0.3,1.2-0.6,1.8-0.9
					c1.1-0.6,2.3-0.8,3.4-1c0.7-0.2,1.4-0.1,2.1,0.2c0.6,0.3,0.8,0.9,0.3,1.3c-0.8,0.8-1.7,1.6-2.5,2.3c0,0-0.1,0.1-0.1,0.2
					c0.1,0,0.2,0,0.3,0c2.1-0.2,4-0.9,6-1.5c2.4-0.7,4.8-1.5,7.4-1.4c1.4,0.1,2.5,0.6,3.2,1.8c0.2,0.4,0.4,0.8,0.6,1.2
					c0.7,1.6,1.1,3.2,1.1,5c0,0.6,0.2,1.3,0.3,1.9C101.5,61.8,101.6,62,101.7,62.2z M95.6,166.2c0.1-0.4,0.3-0.6,0.3-0.9
					c0.4-1.6,0.8-3.2,1.1-4.8c0.2-1,0.5-2,0.6-3c0.2-1,0.6-1.9,0.4-3c-0.1-0.4,0-0.8,0-1.1c-0.2-2.2-0.5-4.4-0.7-6.6
					c-0.2-1.7-0.4-3.3-0.5-5c-0.2-2-0.3-4.1-0.5-6.1c-0.2-2.7-0.5-5.4-0.7-8.1c-0.2-2.4-0.5-4.9-0.7-7.3c-0.1-1.3-0.3-2.5-0.5-3.8
					c-0.1-0.5-0.1-1-0.2-1.5c-2.6,0.2-5.2,0.4-7.8,0.6c0,0.3,0,0.7,0,1c0.1,1.2,0.2,2.3,0.2,3.5c0.1,2.3,0.2,4.6,0.3,6.9
					c0.2,3,0.3,6,0.5,9c0.2,2.5,0.5,5,0.7,7.6c0.2,2.2,0.5,4.3,0.8,6.5c0.2,1.3,0.4,2.6,0.6,3.9c0,0.1,0,0.2,0,0.2
					c-0.3,0.3-0.1,0.6,0,0.9c0.3,0.6,0.7,1.3,1,1.9c1.3,2.8,2.8,5.5,4.4,8.2C95.2,165.5,95.3,165.8,95.6,166.2z M95.3,168.5
					c0.1,0,0.2,0,0.2-0.1c0.8-0.3,1.3-0.9,1.7-1.6c0.9-1.4,1.8-2.9,2.7-4.3c0.6-1,1.3-2,1.7-3c1.1-2.5,2.1-5.1,3.1-7.6
					c1.4-3.6,2.6-7.3,3.6-11c0.4-1.4,0.9-2.8,1.2-4.3c0.4-1.8,0.7-3.7,1.1-5.5c0.2-1.1,0.4-2.2,0.6-3.3c0.3-1.9,0.4-3.8,0.7-5.7
					c0.2-1.3,0.3-2.5,0.3-3.8c0-0.1,0-0.2,0-0.3c0.1-2.1,0.2-4.2,0.3-6.2c0-0.8-0.1-0.9-0.9-1.2c-0.2-0.1-0.3-0.1-0.5-0.1
					c-0.3-0.1-0.7-0.1-1-0.2c-0.8-0.3-1.6-0.6-2.4-0.9c-0.3-0.1-0.6-0.2-0.9-0.4c0,0.2,0,0.4,0,0.5c0,0.6,0.1,1.3,0.1,1.9
					c0,0.9,0,1.8,0,2.7c0,0.5-0.1,0.6-0.6,0.4c-0.1,0-0.1,0-0.2,0c-0.4,0-0.9,0-1.3,0c-0.4,0-0.7,0-1.1,0.1c0,1.1,0,2.1,0,3.2
					c0,0.2,0,0.3,0,0.5c0,0.7-0.1,1.5-0.1,2.2c0.1,3.9-0.3,7.8-0.8,11.7c-0.4,3.4-1,6.7-1.5,10c-0.4,2.2-0.8,4.4-1.3,6.5
					c-0.3,1.4-0.6,2.8-0.9,4.3c-0.7,3.4-1.5,6.8-2.1,10.2c-0.4,1.8-0.9,3.5-1.7,5.1C95.4,168.2,95.3,168.3,95.3,168.5z M68.6,123.7
					c0.1,0.5,0.2,0.8,0.3,1.2c0.4,1.1,0.6,2.2,1.2,3.2c0.1,0.1,0.1,0.2,0.1,0.3c0.4,1.3,0.8,2.6,1.3,3.8c1.2,2.9,2.4,5.7,3.6,8.5
					c0.2,0.4,0.4,0.8,0.6,1.1c0.3,0.5,0.6,1,0.9,1.6c2,4,4.3,7.9,7,11.5c0.9,1.2,1.6,2.4,2.6,3.5c2.5,3,5,6,7.8,8.7
					c0.2,0.2,0.5,0.4,0.8,0.7c0.2-0.3,0.3-0.6,0.4-0.9c0-0.1,0-0.2,0-0.2c-1.1-1.9-2.3-3.8-3.3-5.7c-1-1.9-2-3.8-2.9-5.7
					c-1.3-2.7-2.6-5.4-3.8-8.1c-1.3-2.9-2.6-5.9-3.7-8.9c-1.9-4.8-3.1-9.7-4.1-14.7c-0.2-1-0.3-2.1-0.5-3.2
					c-1.5,0.1-2.9,0.2-4.4,0.3c-0.1,0.3-0.1,0.6-0.2,0.9c-0.2,0.4-0.4,0.8-0.7,1.2c-0.4,0.5-0.8,0.9-1.5,1.1
					C69.6,124,69.1,124,68.6,123.7z M98.5,152.7C98.6,152.7,98.6,152.7,98.5,152.7c0.2-0.6,0.4-1.2,0.6-1.9c0.3-1.4,0.5-2.9,0.7-4.3
					c0.4-2.2,0.9-4.4,1.2-6.6c0.5-3.1,1-6.2,1.4-9.3c0.5-3.5,0.7-6.9,0.7-10.4c0-0.4,0-0.9,0-1.3c0.1-1.3,0.1-2.6,0.2-3.9
					c0-0.5,0-0.5-0.5-0.5c-1.2,0.1-2.5,0.2-3.7,0.3c-1.2,0.1-2.4,0.2-3.7,0.2c-0.3,0-0.5,0-0.8,0c0,0.4,0,0.7,0.1,1
					c0.2,1.3,0.4,2.5,0.6,3.8c0.3,2.5,0.6,5,0.9,7.5c0.2,2.2,0.5,4.4,0.6,6.7c0.3,3,0.5,6,0.7,8.9C97.8,146.2,98.2,149.4,98.5,152.7
					z M88.8,153.4c-0.7-6.3-1.6-12.5-2.1-18.8c-0.4-6.3-0.6-12.6-0.9-19c-1.1,0.1-2.2,0.1-3.3,0.2c-0.5,3-2.4,4.3-5.2,4.7
					c0.1,0.4,0.1,0.8,0.2,1.2c0.4,1.9,0.9,3.9,1.3,5.8c0.9,4.2,2.2,8.2,3.8,12.1c0.5,1.2,1,2.3,1.5,3.5c1.1,2.5,2.1,4.9,3.2,7.3
					C87.8,151.5,88.3,152.4,88.8,153.4z M31.5,133.5C31.5,133.5,31.4,133.5,31.5,133.5c-0.3,0-0.5,0.1-0.6,0.3
					c-0.3,0.3-0.6,0.7-0.8,1c-1.1,1.9-1.6,4-1.6,6.2c0,2,0.2,3.9,0.7,5.8c0.3,1.2,0.8,2.4,1.6,3.4c0.3,0.4,0.6,0.8,1,1.2
					c0.3,0.3,0.6,0.6,0.8,0.9c1,1,2.4,1.2,3.7,1.4c0.4,0.1,0.8,0.1,1.2,0c2-0.4,3.7-1.3,5.2-2.7c1.3-1.2,2.4-2.6,3.3-4.2
					c0.1-0.2,0.2-0.5,0.3-0.7c0.3-1.3,0.6-2.7,0.8-4c0.1-0.5,0.1-1,0.2-1.5c-0.6,0.5-1.2,1-1.9,1.5c-1.1,0.8-2.4,1.1-3.6,1.7
					c-0.1,0-0.1,0-0.2,0c-1.3,0.3-2.5,0.1-3.8-0.1c-1.3-0.2-2.4-0.8-3.3-1.7c-1-1-2-2-2.4-3.4c0-0.1-0.1-0.2-0.1-0.3
					c-0.6-1.3-0.8-2.7-0.6-4.1C31.5,134,31.5,133.7,31.5,133.5z M28.3,134.8C28.3,134.8,28.3,134.8,28.3,134.8
					c0.8-0.5,1.6-1.1,2.4-1.7c0.4-0.3,0.8-0.5,1.2-0.8c0.1-0.1,0.3-0.2,0.4-0.4c0.4-0.6,0.7-1.3,1.1-1.9c2.1-3.2,3.9-6.6,5.6-10.1
					c0.7-1.5,1.6-3,2.3-4.6c1.1-2.5,2.5-4.9,3.8-7.4c0.3-0.5,0.6-0.9,1-1.2c0.8-0.7,1.6-1.3,2.6-1.6c0.8-0.3,1.5-0.8,2.1-1.5
					c0.6-0.8,1.3-1.5,1.9-2.2c0.9-1,1.9-1.7,3-2.5c0.4-0.3,0.9-0.7,1.3-1c-0.9,0.1-1.8,0.2-2.6,0.4c-1.2,0.3-2.4,0.7-3.6,1
					c-2.3,0.5-4.4,1.3-6.3,2.7c-1,0.7-1.9,1.6-2.5,2.8c-1.3,2.4-2.5,4.9-3.7,7.3c-0.6,1.2-1,2.4-1.5,3.6c-1.6,3.6-3.3,7.2-4.7,10.9
					c-0.9,2.3-2,4.5-2.9,6.8C28.8,133.8,28.5,134.3,28.3,134.8z M51.3,104c0.8-0.2,1.6-0.4,2.5-0.6c2.1-0.5,4.1-0.9,6.3-1
					c0.7,0,1.4-0.1,2.1-0.2c0.1,0,0.2-0.1,0.3-0.2c0.3-0.4,0.5-0.8,0.8-1.1c0.6-0.7,1.3-1.3,1.9-2c0.7-0.8,1.6-1.2,2.6-1.4
					c0.8-0.2,1.5-0.3,2.3-0.6c2-0.6,4.1-0.9,6.1-1.2c0.4-0.1,0.9-0.1,1.4-0.1c0.9,0,1.7-0.3,2.4-0.8c0.4-0.2,0.4-0.4,0.1-0.7
					c-0.5-0.6-1-1.1-1.8-1.2c-0.2,0-0.4-0.1-0.6-0.2c-0.8-0.2-1.6-0.4-2.4-0.3c-1,0.1-2,0.1-3,0.2c-1,0.1-2,0.1-3,0.2
					c-1.5,0.1-3,0.3-4.4,0.7c-0.6,0.2-1.2,0.2-1.6,0.5c-1.4,0.9-2.7,2-4.1,3c-1.1,0.8-2.1,1.7-3.1,2.5c-1.2,1-2.6,1.8-3.5,3.2
					C52.1,103.1,51.7,103.5,51.3,104z M80,95.5c0.2,0,0.4,0,0.5,0c4.7-0.1,9.4-0.1,14.2-0.2c1.2,0,1.2-0.1,1.3-1.2
					c0.1-1.1,0.2-2.2,0.3-3.3c0-0.3,0-0.5,0.1-0.8c-0.3,0.3-0.7,0.5-0.9,0.8c-0.6,0.6-1.3,1.1-2,1.5c-0.3,0.1-0.5,0.3-0.8,0.5
					c-1.7,0.8-3.5,1.2-5.4,1.1c-0.6,0-1.1-0.2-1.7-0.4c-1-0.3-1.9-0.6-2.8-1c-1-0.5-2-1.1-3-1.7c-1.7-1-3-2.5-4-4.2
					c-0.6-0.9-0.8-2-1.5-2.8c-0.2-0.2-0.2-0.6-0.3-0.9c-0.1-0.3-0.2-0.5-0.2-0.7c0.1,3.1,0.3,6.2,0.4,9.4c0.1,0,0.3,0,0.4,0
					c1.5-0.1,2.9,0.2,4.3,0.6c0.9,0.3,1.5,0.9,2,1.6c0.3,0.5,0.2,1-0.3,1.3C80.3,95.3,80.2,95.4,80,95.5z M73.3,96.8
					c-0.6,0.1-1.2,0.3-1.8,0.4c-1.3,0.3-2.4,0.8-3.7,1c-0.8,0.1-1.5,0.5-2.1,1.1c-0.8,0.9-1.6,1.8-2.4,2.6c0,0,0,0,0,0
					c1.4-0.1,2.9-0.1,4.3-0.1c0.6,0,1.1,0.2,1.5,0.7c1.1,1.3,2.2,2.6,3.3,3.8c0,0,0.1,0,0.1,0C72.8,103.2,73,100,73.3,96.8z
					 M72.5,120.2c0.7-0.1,1.3-0.2,2-0.2c0.9-0.1,1.7-0.2,2.6-0.2c1.9-0.1,3.4-0.7,4.4-2.4c0.3-0.5,0.4-1,0.5-1.5c-0.7,0-1.3,0-1.9,0
					c-1.6,0-3.2,0.2-4.9,0c-0.1,0-0.2,0.1-0.3,0.1c-0.3,0.3-0.7,0.5-1.2,0.5c-0.5,0-1,0-1.5,0C72.2,117.7,72.3,119,72.5,120.2z
					 M106.7,100.1c0,0.4,0.1,0.8,0.1,1.2c0.1,2.2,0.1,4.4,0.2,6.5c0,0.1,0.1,0.3,0.2,0.4c0.2,0.1,0.5,0.2,0.8,0.3c0.1,0,0.2,0,0.3,0
					c0.6-0.6,1.3-1.1,1.9-1.7c0.2-0.2,0.3-0.3,0.2-0.6c-0.2-0.4-0.3-0.7-0.5-1.1c-0.2-0.5-0.5-1-0.8-1.4c-0.2-0.3-0.4-0.7-0.5-1
					C108.1,101.7,107.4,100.9,106.7,100.1z M48.9,136.6c-0.3,1.1-1.1,2-1,3.2c0.1,0.9-0.1,1.8-0.3,2.7c-0.1,0.7-0.3,1.4-0.4,2.1
					c0,0,0.1,0,0.1,0C48.6,142.1,49.7,139.6,48.9,136.6z M96.7,93.2c-0.1,0.7-0.1,1.4-0.2,2.1c1-0.1,1.9-0.2,2.9-0.3
					C98.5,94.4,97.6,93.8,96.7,93.2z M71.1,91.9c0.6,0,1.3,0,2,0c0.2,0,0.3-0.1,0.3-0.3c0-0.3,0-0.6,0-0.8
					C72.6,91.2,71.8,91.6,71.1,91.9z"/>
				<path class="st36" d="M53.3,213.8c0.2-0.3,0.1-0.6-0.1-0.8c-0.6-0.4-0.7-1.1-0.8-1.7c-0.1-0.8-0.2-1.6-0.2-2.4
					c-0.2-3.8-0.1-7.6,0.1-11.4c0.1-3.4,0.2-6.7,0.2-10.1c0-4.5,0.1-9,0-13.4c0-3.1-0.1-6.2-0.3-9.3c-0.2-2.3-0.6-4.6-1-6.9
					c-0.3-1.7-0.6-3.4-1.1-5.1c-0.2-0.5-0.4-1-0.6-1.5c-0.1-0.3-0.1-0.6-0.1-0.9c0.4-2.1,0.8-4.3,0.8-6.5c0-1.6-0.2-3.3-0.3-4.9
					c0-0.6,0-1.2-0.1-1.8c0-0.3-0.2-0.6-0.3-1c0-0.1-0.1-0.3,0-0.5c0.6-1.4,1.4-2.8,2.4-3.9c0.4-0.4,0.9-0.9,1.4-1.2
					c0.9-0.5,1.9-0.9,2.8-1.3c1.2-0.5,2.4-1,3.6-1.6c0.6-0.3,1.2-0.7,1.7-1.1c1.1-0.8,2-1.8,2.6-3c0.1-0.2,0.2-0.4,0.2-0.6
					c0.3,0.3,0.7,0.6,1.1,1c0.4,0.4,0.8,0.8,1.4,0.9c0.6,0.2,1.2,0,1.4-0.8c0.2,0.6,0.3,1.2,0.5,1.8c0.2,0.7,0.5,1.4,0.8,2.1
					c0.1,0.2,0.2,0.4,0.3,0.6c0.6,1.6,1.1,3.3,1.7,4.9c1,2.5,2,4.9,3.2,7.4c1,2.1,2.2,4.1,3.3,6.1c1.4,2.5,2.9,5,4.6,7.3
					c2.3,3.3,4.7,6.4,7.4,9.3c0.7,0.8,1.4,1.6,2.2,2.4c0.7,0.7,1.5,1.4,2.2,2.1c0.2,0.2,0.3,0.4,0.3,0.7c-0.1,3.2-0.1,6.4-0.2,9.7
					c0,1.5,0,3-0.1,4.5c0,2-0.1,4-0.1,6.1c0,5.8-0.1,11.5-0.1,17.3c0,3.1-0.1,6.3-0.1,9.4c0,0.2,0,0.4-0.1,0.6
					c-0.4,1.1-0.9,2.2-1.6,3.2c-0.4,0.5-0.9,0.8-1.6,0.8c-0.3,0-0.6,0.1-0.9,0c-1.4-0.4-2.8-0.1-4.3-0.2c-1.9-0.1-3.8,0-5.8-0.1
					c-1.1,0-2.2-0.2-3.4-0.4c-2.2-0.3-4.3-0.7-6.4-1c-2-0.3-4.1-0.6-6.1-1c-1.3-0.2-2.5-0.7-3.7-1c-0.4-0.1-0.7-0.2-1.1-0.2
					c-0.9-0.2-1.8-0.5-2.6-1c-0.5-0.3-1.1-0.6-1.7-0.9C54.3,214.4,53.8,214.1,53.3,213.8z"/>
				<path class="st36" d="M95,169c0.8-0.1,1.3-0.4,1.9-0.9c0.8-0.7,1.2-1.7,1.8-2.5c0.9-1.4,1.8-2.9,2.7-4.3
					c0.9-1.5,1.6-3.2,2.2-4.9c1.1-2.8,2.2-5.6,3.2-8.5c0.9-2.5,1.6-5.2,2.3-7.7c0.1-0.3,0.1-0.6,0.3-0.9c0.8-2.2,1.2-4.5,1.6-6.8
					c0.5-2.7,1-5.4,1.3-8.2c0.2-2,0.6-3.9,0.5-5.9c0-1.4,0.2-2.9,0.3-4.3c0-1,0-2,0-3c0-0.4-0.1-0.7-0.5-0.8
					c-0.5-0.2-1.1-0.4-1.6-0.6c-0.8-0.3-1.7-0.5-2.6-0.8c0.2-0.2,0.4-0.4,0.6-0.5c0.6-0.4,1.1-0.8,1.7-1.2c0.3-0.2,0.4-0.5,0.3-0.8
					c-0.4-0.9-0.9-1.9-1.3-2.8c-0.2-0.4-0.5-0.9-0.7-1.3c-0.3-0.7-0.7-1.3-1.2-1.9c-0.4-0.4-0.7-0.8-1.1-1.2c0,0,0-0.1,0-0.1
					c0.4,0.3,0.7,0.6,1.1,0.8c0.3,0.2,0.6,0.3,1,0.4c0.4,0.1,0.8,0.2,1.1,0.4c0.1,0.1,0.3,0.1,0.4,0.2c0.9,0.3,1.7,0.7,2.6,1
					c1.1,0.4,2.1,1.1,3.2,1.7c1,0.6,1.9,1.1,2.8,1.7c1,0.6,1.7,1.5,2.1,2.6c0.5,1.2,0.9,2.5,1.1,3.7c0.6,2.9,0.8,5.8,0.8,8.7
					c0,4.3-0.1,8.6-0.2,12.9c0,1.7,0,3.4,0,5.1c0,1.5-0.1,3-0.2,4.5c0,0.3,0,0.6,0,0.9c0.1,1.4-0.2,2.9-0.3,4.3
					c-0.3,2.8-0.5,5.6-0.8,8.4c-0.2,1.9-0.5,3.7-0.8,5.6c-0.3,1.9-0.7,3.8-1.1,5.7c-0.7,2.9-1.7,5.8-2.7,8.6
					c-0.3,0.9-0.6,1.8-0.9,2.7c0,0.1-0.1,0.1-0.2,0.2c0-0.1,0-0.2,0-0.4c0.1-2.5,0.2-5,0.4-7.5c0.1-2.3,0.3-4.6,0.5-6.9
					c0.2-2.5,0.5-5,0.7-7.5c0.2-1.9,0.4-3.8,0.5-5.7c0.2-1.9,0.4-3.9,0.5-5.8c0.1-1.5,0.2-3.1,0.4-4.6c0.2-2,0.4-4,0.6-6
					c0.2-1.8,0.3-3.7,0.5-5.5c0.2-3.3,0.4-6.6,0.3-9.8c0-1-0.2-2-0.3-3.1c-0.1-1.3-0.2-2.7-0.3-4c0-0.1-0.1-0.3-0.2-0.4
					c-0.1,0.1-0.2,0.3-0.2,0.4c-0.1,1.5-0.1,3,0.2,4.5c0.1,0.7,0.2,1.4,0.2,2.1c0,2.9-0.1,5.8-0.2,8.7c-0.1,2.6-0.4,5.3-0.7,7.9
					c-0.2,1.8-0.3,3.6-0.5,5.3c-0.2,2.7-0.5,5.3-0.7,8c-0.2,2.2-0.4,4.4-0.6,6.6c-0.2,2.2-0.5,4.4-0.7,6.6c-0.1,1.2-0.2,2.5-0.3,3.8
					c-0.2,2.2-0.3,4.5-0.4,6.7c-0.1,2.6-0.2,5.1-0.3,7.7c0,0.6-0.2,1.2-0.3,1.8c0,0.1,0,0.2,0,0.3c0,0.3,0.1,0.5,0.1,0.8
					c-0.2,3.1-0.3,6.1-0.6,9.2c-0.2,3.1-0.5,6.1-0.8,9.2c-0.1,1-0.1,1.9-0.2,2.9c-0.1,0.9-0.3,1.7-0.8,2.5c-1.5,2.4-3.5,4.3-5.7,6.1
					c-2,1.6-4.1,2.9-6.3,4.1c-0.8,0.5-1.7,0.9-2.6,1.3c-0.5,0.2-1.1,0.4-1.7,0.3c-0.4,0-0.6-0.2-0.7-0.5c-0.2-0.8-0.3-1.6-0.4-2.4
					c0-0.2-0.1-0.5-0.2-0.7c0-0.1-0.1-0.3-0.1-0.4c0-3.2,0.1-6.4,0.1-9.7c0-4.4,0-8.8,0-13.3c0-2.5,0.1-5,0.1-7.5
					c0.1-3.4,0.1-6.9,0.2-10.3c0-0.5,0.1-1,0.1-1.6c0-0.9-0.1-1.9-0.1-2.8C95,169.5,95,169.3,95,169z M96.6,179.1
					C96.7,179.1,96.7,179.1,96.6,179.1c0.1,0.8,0.6,1.3,1.3,1.2c1,0,1.9-1.3,1.6-2.3c0-0.1,0-0.1-0.1-0.2c-0.6-0.9-2-0.9-2.4,0
					C96.9,178.2,96.8,178.6,96.6,179.1z M99.7,191.9C99.7,191.9,99.7,191.9,99.7,191.9c0-0.3,0-0.7-0.2-0.9
					c-0.3-0.4-0.8-0.3-1.2-0.4c-0.1,0-0.1,0-0.2,0.1c-0.9,0.7-1.1,2.1-0.6,2.8c0.4,0.5,1.1,0.6,1.6,0.2
					C99.6,193.2,99.7,192.6,99.7,191.9z M99.8,205.3c0-0.2,0-0.3,0-0.5c0-0.3-0.2-0.6-0.5-0.7c-0.6-0.3-1-0.2-1.3,0.3
					c-0.3,0.5-0.6,1-0.6,1.6c0,0.4,0.2,0.8,0.6,1c0.4,0.2,0.7,0.1,1.1-0.1C99.7,206.5,99.9,206,99.8,205.3z"/>
				<path class="st32" d="M101.8,71.2c0.1-0.5,0.1-1,0.2-1.4c0-0.2,0-0.4,0-0.7c0-0.1-0.1-0.1-0.2-0.2c-0.1,0.1-0.2,0.1-0.2,0.2
					c0,0.2,0,0.3-0.1,0.5c-0.4,2.4-0.8,4.8-1.3,7.2c-0.6,2.6-1.2,5.1-2,7.6c-0.4,1.2-1,2.4-1.5,3.5c-0.4,0.9-0.9,1.6-1.6,2.3
					c-0.6,0.6-1.3,1.2-2.2,1.6c-1.3,0.7-2.8,1.1-4.2,1.4c-0.8,0.2-1.6,0.1-2.4-0.1c-0.6-0.2-1.3-0.4-1.9-0.6
					c-1.7-0.6-3.2-1.5-4.6-2.4c-1.1-0.7-2.1-1.6-2.8-2.7c-1.8-2.5-2.8-5.4-3.7-8.3c-0.7-2.2-1.2-4.4-1.6-6.6
					c-0.1-0.4-0.1-0.7-0.2-1.1c0-0.1-0.2-0.3-0.3-0.4c-0.1,0-0.3,0.1-0.4,0.3c-0.1,0.2-0.1,0.5-0.2,0.7c-0.2,0.6-0.6,0.7-1.1,0.3
					c-0.6-0.5-0.9-1.1-1.1-1.9c-0.3-1.5-0.4-3-0.3-4.5c0.1-0.9,0.5-1.6,0.8-2.4c0.1-0.2,0.3-0.2,0.5-0.1c0.3,0.4,0.6,0.7,0.8,1.1
					c0.2,0.4,0.3,0.9,0.4,1.3c0,0.1,0.1,0.2,0.1,0.3c0.1,0.1,0.2,0.2,0.3,0.2c0.1,0,0.2-0.1,0.2-0.2c0-0.3,0.1-0.6,0.1-0.9
					c0.1-1.8,0.2-3.6,0.4-5.5c0.2-1.5,0.8-2.8,1.9-3.9c1.5-1.4,3.1-2.5,4.9-3.4c1.3-0.6,2.6-1.1,4-1.4c0.6-0.1,1.3,0,1.9,0
					c0.3,0,0.4,0.2,0.1,0.4c-1,1-1.9,1.9-3,2.7c-0.2,0.1-0.4,0.3-0.3,0.5c0.1,0.3,0.3,0.2,0.6,0.2c1.2,0,2.4-0.2,3.6-0.5
					c2.3-0.7,4.6-1.4,6.9-2c1.5-0.4,3-0.5,4.6-0.3c0.7,0.1,1.3,0.5,1.6,1c1.1,1.8,1.8,3.8,1.9,6c0,0.8,0.2,1.6,0.3,2.4
					c0.1,0.3,0.2,0.6,0.5,0.7c0.1,0,0.1,0.2,0.1,0.3c0,0.4,0.1,0.8,0.1,1.2c0,0.1,0,0.2,0,0.3c0,0.1,0.1,0.2,0.2,0.3
					c0.1-0.1,0.2-0.2,0.3-0.3c0.1-0.3,0.1-0.6,0.1-1c0-0.5,0.3-0.8,0.7-1.2c0.2-0.2,0.3-0.1,0.5,0.1c0.3,0.5,0.4,1,0.4,1.6
					c0,1.9-0.2,3.8-0.7,5.7C102.8,70.3,102.5,70.9,101.8,71.2z M89,73.1c0.1,1.3-0.3,2.9-0.4,4.6c-0.1,0.5-0.3,0.6-0.7,0.6
					c-0.2,0-0.3-0.1-0.5-0.1c-0.4-0.1-0.7-0.2-1.1-0.2c-0.1,0-0.3,0.2-0.4,0.3c0,0.2,0.2,0.3,0.4,0.3c0.4,0.1,0.7,0.1,1.1,0.3
					c0.9,0.3,1.7-0.1,1.9-1c0.1-0.4,0.1-0.9,0.2-1.3c0.6-3.1,0.2-6.2-0.4-9.3c0-0.1-0.1-0.1-0.2-0.2c-0.1,0.1-0.2,0.2-0.2,0.3
					c0,0.3,0,0.5,0,0.8C88.9,69.6,89,71.2,89,73.1z M95.2,62.5C95.2,62.5,95.2,62.5,95.2,62.5c-0.3,0-0.6,0-0.9,0
					c-1,0.1-1.9,0.5-2.6,1.1c-0.1,0.1-0.3,0.3-0.1,0.5c0.1,0.1,0.3,0,0.4-0.1c1.3-1,2.8-1,4.4-0.8c0.1,0,0.3-0.1,0.4-0.2
					c0-0.1,0-0.3-0.1-0.4c-0.1-0.1-0.3-0.1-0.4-0.2C95.9,62.5,95.6,62.5,95.2,62.5z M78.9,64.2c-0.7,0-1.4,0-2.1,0.3
					c-0.1,0.1-0.2,0.2-0.3,0.4c0.2,0.1,0.3,0.1,0.5,0.2c0.1,0,0.2,0,0.2-0.1c0.4-0.1,0.8-0.2,1.2-0.2c0.8,0,1.7,0.1,2.5,0.1
					c0.2,0,0.5,0,0.5-0.3c0-0.3-0.2-0.3-0.5-0.4C80.3,64.3,79.6,64.3,78.9,64.2z M86.7,85.1c0.7-0.1,1.2-0.1,1.8-0.2
					c0.2,0,0.4-0.2,0.3-0.4c0-0.1-0.2-0.2-0.4-0.3c0,0-0.1,0-0.2,0c-1,0.2-2,0.3-3-0.1c0,0,0,0,0,0c-0.1,0-0.3,0.1-0.3,0.2
					c0,0.1,0,0.3,0.1,0.3c0.1,0.1,0.2,0.2,0.4,0.2C85.8,85,86.3,85.1,86.7,85.1z M81,68.1c0-0.3-0.1-0.7-0.2-1.1
					c0-0.1-0.2-0.3-0.4-0.4c-0.1,0-0.4,0.1-0.4,0.2c-0.1,0.4-0.2,0.9-0.1,1.4c0,0.2,0.4,0.4,0.6,0.6c0.2,0.1,0.4,0,0.4-0.3
					C81,68.4,81,68.3,81,68.1z M94.9,66.7c0-0.2,0-0.4,0-0.5c-0.1-0.4-0.5-0.5-0.8-0.2c-0.3,0.2-0.4,1-0.3,1.3
					c0.1,0.3,0.4,0.4,0.7,0.4c0.3,0,0.3-0.3,0.4-0.5C94.9,67,94.9,66.8,94.9,66.7z"/>
				<path class="st32" d="M59,108.9c2.1,0.2,4.2,0.4,6.3,0.6c0.6,0.1,1.2,0.4,1.7,0.7c0.2,0.1,0.3,0.2,0.5,0.3
					c0.9,0.4,1.4,1.1,1.8,2c0.6,1.1,1.2,2.2,1.9,3.3c0.1,0.1,0.1,0.2,0.1,0.4c0.1,1,0.2,2.1,0.3,3.1c0,0.6,0,1.2,0,1.7
					c0,0,0,0.1,0,0.1c-0.3,0.7-0.6,1.5-1.2,1.9c-0.4,0.2-0.9,0.3-1.4,0.4c0,0-0.1,0-0.1-0.1c-0.2-0.3-0.5-0.6-0.5-1.1
					c0-1,0-2-0.2-3.1c0-0.4-0.3-0.7-0.6-1c-1.1-1-2.3-1.7-3.6-2.5c-0.4-0.2-0.7-0.5-1-0.7c-0.1-0.1-0.3-0.2-0.4-0.3
					c-0.7-0.4-1.4-0.8-2.1-1.1c-0.7-0.3-1.5-0.2-2.2-0.2c-1.5,0.1-3,0.3-4.6,0.5c-0.1,0-0.2,0.1-0.4,0.2c0.1,0.1,0.3,0.2,0.4,0.2
					c1.1-0.1,2.2-0.1,3.2-0.2c0.8-0.1,1.6-0.1,2.4-0.2c0.6,0,1.2,0.3,1.7,0.6c0.3,0.2,0.6,0.3,0.9,0.5c0.2,0.1,0.4,0.2,0.6,0.3
					c1.1,0.7,2.3,1.4,3.4,2.2c0.6,0.4,1.1,0.8,1.6,1.3c0.2,0.2,0.3,0.4,0.3,0.7c0.1,1.1,0.1,2.1,0.2,3.2c0,0.5-0.2,1-0.4,1.5
					c-0.2,0.3-0.5,0.2-0.7,0.1c-0.3-0.1-0.5-0.3-0.8-0.5c-0.4-0.4-0.8-1-1.3-1.4c-0.8-0.7-1.6-1.4-2.7-1.9c-1.9-0.9-4-1-6.1-0.8
					c-0.6,0.1-1.3,0.3-1.9,0.5c-0.5,0.1-0.8,0.5-1,0.9c-0.6,1-1.2,2.1-1.7,3.1c-0.1,0.1,0,0.2,0,0.4c0.1,0,0.3,0,0.3-0.1
					c0.6-0.8,1.2-1.7,1.7-2.6c0.4-0.7,1-1.1,1.8-1.3c1.9-0.5,3.7-0.3,5.5,0.1c1.2,0.3,2.3,1,3.2,1.9c0,0,0.1,0.1,0.1,0.2
					c-0.1,0.2-0.1,0.4-0.2,0.6c-0.9,1.4-2.1,2.5-3.5,3.4c-1.5,0.9-3,1.5-4.6,2.1c-1,0.4-1.9,0.8-2.8,1.3c-0.6,0.3-1.1,0.9-1.5,1.4
					c-0.9,1-1.6,2.1-2.1,3.3c-0.7,1.4-1.4,2.9-1.9,4.4c-0.3,0.9-0.9,1.4-1.6,2c-1.1,0.9-2.4,1.3-3.7,1.9c-0.7,0.3-1.5,0.3-2.3,0.2
					c-0.8-0.1-1.5-0.2-2.3-0.4c-1.2-0.3-2.1-1.2-3-2c-0.9-0.8-1.3-1.9-1.7-2.9c-0.4-1.1-0.7-2.2-0.7-3.3c0-0.6,0.1-1.1,0.5-1.6
					c0.6-0.9,1.1-1.9,1.7-2.9c1.9-2.8,3.4-5.7,5-8.7c1.5-2.9,2.9-5.9,4.3-8.8c0.5-1.1,1.1-2.1,1.7-3.2c0.1-0.1,0.2-0.2,0.2-0.4
					c0.7-1.8,2.1-2.7,3.7-3.5c0.8-0.4,1.6-0.8,2.4-1c1.7-0.5,3.5-0.9,5.2-1.3c1.6-0.4,3.2-0.4,4.7-0.5c0.4,0,0.9-0.2,1.3-0.2
					c1.6-0.1,3.3-0.2,4.9-0.3c0.3,0,0.8,0.2,1,0.4c0.8,0.8,1.6,1.7,2.3,2.6c0.5,0.6,1,1.1,1.5,1.7c0.4,0.6,0.8,1.3,1.2,2
					c0.3,0.7,0.6,1.5,0.8,2.2c0.1,0.5,0.3,0.9,0.3,1.4c0.1,0.6,0.1,1.2,0.1,1.7c0,0.8-0.5,1.2-1.2,1.4c-1.1,0.3-1.6-0.3-2.1-1.1
					c-0.6-1-1-1.9-1.6-2.9c-0.5-0.8-1-1.6-1.9-2c-0.5-0.2-0.9-0.5-1.4-0.7c-1.2-0.5-2.6-0.6-3.9-0.7c-1.9-0.1-3.7-0.1-5.6-0.2
					c-0.1,0-0.1,0-0.2,0c-0.2,0-0.4,0.1-0.4,0.3c0,0.3,0.2,0.3,0.4,0.3c0.7,0,1.3,0,2,0C59,108.9,59,108.9,59,108.9z"/>
				<path class="st37" d="M105.6,95.4c0.6,6.1,0.6,12.2,0.8,18.3c-0.4,0-0.8,0.1-1.2,0.1c-1.5,0.1-3.1,0.1-4.6,0.2
					c-0.7,0-1.4,0.2-2.1,0.2c-1.6,0.1-3.1,0.2-4.7,0.3c-2.1,0.1-4.2,0.3-6.3,0.5c-1.6,0.1-3.2,0.2-4.8,0.3c-0.8,0-1.5,0.1-2.3,0.1
					c-0.8,0-1.5,0.1-2.3,0.1c-0.9,0-1.9,0-2.8,0c0.2-1.3,0.1-2.6-0.3-3.8c-0.2-0.7-0.4-1.4-0.7-2.1c-0.4-0.8-0.8-1.6-1.2-2.4
					c-0.1-0.1-0.1-0.3-0.1-0.5c0.1-1.4,0.3-2.8,0.4-4.2c0.1-1.2,0.2-2.3,0.3-3.5c0-0.7,0-1.5,0-2.2c0.2,0,0.3-0.1,0.4-0.1
					c1.4-0.1,2.7-0.3,4.1-0.4c0,0,0.1,0,0.1,0c0.9-0.4,1.9-0.2,2.8-0.2c2.8,0,5.5,0.1,8.3,0.1c1.9,0,3.8,0,5.7-0.1
					c3-0.2,6.1-0.4,9.1-0.6C104.7,95.3,105.2,95.4,105.6,95.4z"/>
				<path class="st36" d="M29.4,134.9c0,0.1-0.1,0.2-0.1,0.3c-0.9,1.8-1.3,3.7-1.3,5.8c0,2,0.2,4,0.7,6c0.3,1.5,0.9,2.9,1.9,4
					c0.1,0.2,0.3,0.3,0.4,0.5c0.5,0.9,1.4,1.6,2.3,2.1c0.5,0.3,1,0.4,1.5,0.6c0.6,0.2,1.3,0.3,1.9,0.3c1.3,0.1,2.5-0.4,3.7-1
					c2.1-1,3.6-2.6,4.9-4.4c0.4-0.5,0.9-1,1.2-1.5c1-1.8,2.2-3.6,2.7-5.6c0-0.1,0.1-0.2,0.1-0.2c0,0,0.1,0,0.1,0
					c0,1.1,0.2,2.2,0.1,3.2c-0.1,1.3-0.3,2.7-0.5,4c-0.3,1.6-0.7,3.2-1.2,4.7c-0.6,1.9-1.4,3.8-2.3,5.6c-0.7,1.3-1.5,2.5-2.7,3.4
					c-0.9,0.7-1.8,1.5-2.9,2c-2.2,0.9-4.4,1.9-6.8,2.4c-1.5,0.3-2.9,0.4-4.4,0.4c-0.6,0-1.1-0.2-1.7-0.5c-1.7-0.8-2.7-2.3-3.5-3.9
					c-0.6-1.2-1.2-2.5-1.8-3.8c-0.9-1.8-1.2-3.8-1.3-5.8c0-1.2,0-2.5,0.1-3.7c0.2-1.8,0.9-3.5,1.6-5.1c1.1-2.5,2.7-4.6,4.4-6.8
					c0.7-0.9,1.5-1.6,2.2-2.4C28.9,135.2,29.1,135,29.4,134.9C29.3,134.9,29.4,134.9,29.4,134.9z"/>
				<path class="st6" d="M101.7,62.2c-0.1-0.2-0.2-0.4-0.3-0.6c-0.1-0.6-0.3-1.3-0.3-1.9c0-1.8-0.4-3.4-1.1-5
					c-0.2-0.4-0.3-0.8-0.6-1.2c-0.7-1.2-1.8-1.7-3.2-1.8c-2.6-0.1-5,0.7-7.4,1.4c-2,0.6-3.9,1.3-6,1.5c-0.1,0-0.1,0-0.3,0
					c0.1-0.1,0.1-0.1,0.1-0.2c0.8-0.8,1.7-1.6,2.5-2.3c0.4-0.4,0.3-1.1-0.3-1.3c-0.7-0.3-1.4-0.3-2.1-0.2c-1.2,0.3-2.3,0.5-3.4,1
					c-0.6,0.3-1.2,0.6-1.8,0.9c-0.2,0.1-0.4,0.2-0.6,0.3c-1.6,1-3.1,2.1-4.3,3.5c-1,1.1-1.3,2.4-1.5,3.7c-0.2,1.4-0.2,2.8-0.3,4.3
					c0,0.1,0,0.2,0,0.2c-0.3-0.4-0.5-0.8-0.8-1.1c-0.3-0.4-0.7-0.5-1.1-0.6c-0.1,0-0.3,0.1-0.4,0.2c-0.1,0.1-0.2,0.3-0.3,0.4
					c0-0.1,0-0.2,0-0.2c0.1-2.7,0.1-5.5,0.2-8.2c0.1-1.3,0.3-2.6,0.6-3.9c0.3-1.4,1.1-2.7,2-3.8c1.4-1.7,3-3.2,4.6-4.6
					c0.8-0.7,1.8-1.2,2.8-1.6c2.3-1,4.8-1.6,7.3-1.9c2.4-0.2,4.9-0.2,7.2,0.6c0.9,0.3,1.7,0.6,2.5,1.1c0.6,0.5,1.3,0.9,1.9,1.4
					c0.8,0.8,1.6,1.7,2.1,2.8c1.3,2.8,2,5.8,2.4,8.8c0.3,2.2,0.3,4.5,0.4,6.7c0,0,0,0.1,0,0.1C102.5,61.4,102.4,61.9,101.7,62.2z"/>
				<path class="st33" d="M95.6,166.2c-0.2-0.4-0.4-0.7-0.6-1c-1.6-2.7-3.1-5.4-4.4-8.2c-0.3-0.7-0.7-1.3-1-1.9
					c-0.1-0.3-0.3-0.6,0-0.9c0-0.1,0-0.2,0-0.2c-0.2-1.3-0.4-2.6-0.6-3.9c-0.3-2.2-0.6-4.3-0.8-6.5c-0.3-2.5-0.5-5-0.7-7.6
					c-0.2-3-0.4-6-0.5-9c-0.1-2.3-0.2-4.6-0.3-6.9c-0.1-1.2-0.2-2.3-0.2-3.5c0-0.3,0-0.7,0-1c2.6-0.2,5.2-0.4,7.8-0.6
					c0.1,0.5,0.1,1,0.2,1.5c0.2,1.3,0.3,2.5,0.5,3.8c0.3,2.4,0.5,4.9,0.7,7.3c0.3,2.7,0.5,5.4,0.7,8.1c0.2,2,0.3,4.1,0.5,6.1
					c0.2,1.7,0.3,3.3,0.5,5c0.2,2.2,0.5,4.4,0.7,6.6c0,0.4-0.1,0.8,0,1.1c0.2,1-0.3,2-0.4,3c-0.2,1-0.4,2-0.6,3
					c-0.4,1.6-0.8,3.2-1.1,4.8C95.8,165.6,95.7,165.8,95.6,166.2z"/>
				<path class="st36" d="M95.3,168.5c0-0.1,0.1-0.3,0.1-0.4c0.8-1.6,1.4-3.3,1.7-5.1c0.7-3.4,1.4-6.8,2.1-10.2
					c0.3-1.4,0.6-2.8,0.9-4.3c0.4-2.2,0.9-4.3,1.3-6.5c0.6-3.3,1.1-6.7,1.5-10c0.5-3.9,0.9-7.8,0.8-11.7c0-0.7,0.1-1.5,0.1-2.2
					c0-0.2,0-0.3,0-0.5c0-1,0-2.1,0-3.2c0.4,0,0.7,0,1.1-0.1c0.4,0,0.9,0,1.3,0c0.1,0,0.1,0,0.2,0c0.5,0.1,0.6,0.1,0.6-0.4
					c0-0.9,0-1.8,0-2.7c0-0.6-0.1-1.3-0.1-1.9c0-0.1,0-0.3,0-0.5c0.3,0.1,0.6,0.2,0.9,0.4c0.8,0.3,1.6,0.6,2.4,0.9
					c0.3,0.1,0.7,0.2,1,0.2c0.2,0,0.3,0.1,0.5,0.1c0.8,0.3,0.9,0.4,0.9,1.2c-0.1,2.1-0.2,4.2-0.3,6.2c0,0.1,0,0.2,0,0.3
					c0,1.3-0.1,2.5-0.3,3.8c-0.3,1.9-0.5,3.8-0.7,5.7c-0.2,1.1-0.4,2.2-0.6,3.3c-0.3,1.8-0.7,3.7-1.1,5.5c-0.3,1.4-0.8,2.9-1.2,4.3
					c-1,3.7-2.2,7.4-3.6,11c-1,2.5-2,5.1-3.1,7.6c-0.5,1.1-1.1,2-1.7,3c-0.9,1.4-1.7,2.9-2.7,4.3c-0.4,0.6-0.9,1.3-1.7,1.6
					C95.5,168.4,95.4,168.4,95.3,168.5z"/>
				<path class="st36" d="M68.6,123.7c0.5,0.3,1,0.3,1.5,0.2c0.7-0.1,1.1-0.5,1.5-1.1c0.3-0.4,0.5-0.8,0.7-1.2
					c0.1-0.3,0.2-0.6,0.2-0.9c1.4-0.1,2.9-0.2,4.4-0.3c0.2,1.1,0.3,2.2,0.5,3.2c1.1,5,2.3,10,4.1,14.7c1.2,3,2.4,5.9,3.7,8.9
					c1.2,2.7,2.5,5.4,3.8,8.1c0.9,1.9,1.9,3.8,2.9,5.7c1.1,1.9,2.2,3.8,3.3,5.7c0,0.1,0.1,0.2,0,0.2c-0.1,0.3-0.2,0.5-0.4,0.9
					c-0.3-0.3-0.5-0.5-0.8-0.7c-2.9-2.7-5.3-5.7-7.8-8.7c-0.9-1.1-1.7-2.3-2.6-3.5c-2.7-3.6-5-7.5-7-11.5c-0.3-0.5-0.6-1-0.9-1.6
					c-0.2-0.4-0.4-0.7-0.6-1.1c-1.2-2.8-2.5-5.7-3.6-8.5c-0.5-1.2-0.9-2.5-1.3-3.8c0-0.1-0.1-0.2-0.1-0.3c-0.6-1-0.8-2.1-1.2-3.2
					C68.8,124.5,68.7,124.2,68.6,123.7z"/>
				<path class="st37" d="M98.5,152.7c-0.3-3.3-0.7-6.5-1-9.8c-0.3-3-0.5-6-0.7-8.9c-0.2-2.2-0.4-4.4-0.6-6.7
					c-0.3-2.5-0.6-5-0.9-7.5c-0.2-1.3-0.4-2.5-0.6-3.8c0-0.3,0-0.6-0.1-1c0.3,0,0.6,0,0.8,0c1.2-0.1,2.4-0.2,3.7-0.2
					c1.2-0.1,2.5-0.2,3.7-0.3c0.5,0,0.5,0,0.5,0.5c0,1.3-0.1,2.6-0.2,3.9c0,0.4-0.1,0.9,0,1.3c0.1,3.5-0.2,7-0.7,10.4
					c-0.4,3.1-0.9,6.2-1.4,9.3c-0.4,2.2-0.8,4.4-1.2,6.6c-0.3,1.4-0.5,2.9-0.7,4.3C99,151.4,98.8,152.1,98.5,152.7
					C98.6,152.7,98.6,152.7,98.5,152.7z"/>
				<path class="st37" d="M88.8,153.4c-0.5-1-1-2-1.5-3c-1.1-2.4-2.2-4.9-3.2-7.3c-0.5-1.2-1-2.3-1.5-3.5c-1.6-3.9-2.9-8-3.8-12.1
					c-0.4-1.9-0.9-3.9-1.3-5.8c-0.1-0.4-0.1-0.8-0.2-1.2c2.8-0.4,4.8-1.7,5.2-4.7c1.1-0.1,2.2-0.1,3.3-0.2c0.3,6.3,0.4,12.7,0.9,19
					C87.1,140.9,88.1,147.2,88.8,153.4z"/>
				<path class="st37" d="M31.5,133.5c0,0.2-0.1,0.5-0.1,0.7c-0.2,1.4,0.1,2.8,0.6,4.1c0,0.1,0.1,0.2,0.1,0.3
					c0.4,1.4,1.3,2.4,2.4,3.4c1,0.9,2.1,1.5,3.3,1.7c1.3,0.2,2.5,0.5,3.8,0.1c0.1,0,0.1,0,0.2,0c1.2-0.5,2.5-0.9,3.6-1.7
					c0.6-0.5,1.2-1,1.9-1.5c-0.1,0.5-0.1,1-0.2,1.5c-0.3,1.3-0.5,2.7-0.8,4c-0.1,0.2-0.1,0.5-0.3,0.7c-0.9,1.5-2,2.9-3.3,4.2
					c-1.4,1.4-3.2,2.3-5.2,2.7c-0.4,0.1-0.8,0.1-1.2,0c-1.3-0.2-2.7-0.4-3.7-1.4c-0.3-0.3-0.6-0.6-0.8-0.9c-0.3-0.4-0.6-0.8-1-1.2
					c-0.8-1-1.3-2.2-1.6-3.4c-0.4-1.9-0.7-3.9-0.7-5.8c0-2.2,0.5-4.3,1.6-6.2c0.2-0.4,0.5-0.7,0.8-1C31,133.6,31.2,133.6,31.5,133.5
					C31.4,133.5,31.5,133.5,31.5,133.5z"/>
				<path class="st36" d="M28.3,134.8c0.2-0.5,0.5-1,0.7-1.5c1-2.3,2.1-4.5,2.9-6.8c1.4-3.7,3.1-7.3,4.7-10.9
					c0.5-1.2,0.9-2.4,1.5-3.6c1.2-2.5,2.5-4.9,3.7-7.3c0.6-1.1,1.4-2,2.5-2.8c1.9-1.3,4-2.2,6.3-2.7c1.2-0.3,2.4-0.7,3.6-1
					c0.9-0.2,1.7-0.3,2.6-0.4c-0.4,0.3-0.9,0.7-1.3,1c-1,0.8-2.1,1.5-3,2.5c-0.6,0.7-1.3,1.4-1.9,2.2c-0.6,0.7-1.2,1.2-2.1,1.5
					c-1,0.4-1.8,1-2.6,1.6c-0.4,0.3-0.8,0.8-1,1.2c-1.3,2.4-2.6,4.8-3.8,7.4c-0.7,1.6-1.6,3.1-2.3,4.6c-1.7,3.5-3.5,6.9-5.6,10.1
					c-0.4,0.6-0.7,1.3-1.1,1.9c-0.1,0.1-0.2,0.3-0.4,0.4c-0.4,0.3-0.9,0.5-1.2,0.8C29.9,133.6,29.1,134.2,28.3,134.8
					C28.3,134.8,28.3,134.8,28.3,134.8z"/>
				<path class="st32" d="M51.3,104c0.4-0.4,0.8-0.9,1.2-1.3c0.9-1.3,2.3-2.2,3.5-3.2c1-0.8,2.1-1.7,3.1-2.5c1.3-1,2.7-2.1,4.1-3
					c0.5-0.3,1.1-0.4,1.6-0.5c1.5-0.4,2.9-0.5,4.4-0.7c1-0.1,2-0.1,3-0.2c1-0.1,2-0.1,3-0.2c0.8-0.1,1.6,0.1,2.4,0.3
					c0.2,0,0.4,0.1,0.6,0.2c0.8,0.1,1.3,0.6,1.8,1.2c0.3,0.3,0.2,0.5-0.1,0.7c-0.7,0.5-1.5,0.8-2.4,0.8c-0.5,0-0.9,0.1-1.4,0.1
					C74.1,96,72,96.3,70,96.9c-0.7,0.2-1.5,0.4-2.3,0.6c-1,0.2-1.9,0.6-2.6,1.4c-0.6,0.7-1.3,1.3-1.9,2c-0.3,0.3-0.6,0.7-0.8,1.1
					c-0.1,0.1-0.2,0.2-0.3,0.2c-0.7,0.1-1.4,0.2-2.1,0.2c-2.1,0.1-4.2,0.5-6.3,1C52.9,103.6,52.1,103.8,51.3,104z"/>
				<path class="st32" d="M80,95.5c0.2-0.1,0.3-0.2,0.3-0.3c0.5-0.4,0.6-0.8,0.3-1.3c-0.5-0.7-1.1-1.3-2-1.6
					c-1.4-0.4-2.8-0.7-4.3-0.6c-0.1,0-0.3,0-0.4,0c-0.1-3.2-0.3-6.4-0.4-9.4c0.1,0.2,0.1,0.4,0.2,0.7c0.1,0.3,0.1,0.7,0.3,0.9
					c0.7,0.8,0.9,1.9,1.5,2.8c1.1,1.7,2.3,3.2,4,4.2c1,0.6,2,1.2,3,1.7c0.9,0.4,1.9,0.7,2.8,1c0.5,0.2,1.1,0.4,1.7,0.4
					c1.9,0.1,3.7-0.3,5.4-1.1c0.3-0.1,0.5-0.3,0.8-0.5c0.8-0.4,1.4-0.9,2-1.5c0.3-0.3,0.6-0.5,0.9-0.8c0,0.3,0,0.5-0.1,0.8
					c-0.1,1.1-0.2,2.2-0.3,3.3c-0.1,1.2-0.1,1.2-1.3,1.2c-4.7,0.1-9.4,0.1-14.2,0.2C80.4,95.5,80.3,95.5,80,95.5z"/>
				<path class="st36" d="M73.3,96.8c-0.3,3.3-0.5,6.4-0.8,9.6c0,0-0.1,0-0.1,0c-1.1-1.3-2.2-2.6-3.3-3.8c-0.4-0.5-0.9-0.7-1.5-0.7
					c-1.4,0-2.9,0.1-4.3,0.1c0,0,0,0,0,0c0.8-0.9,1.6-1.8,2.4-2.6c0.6-0.6,1.3-1,2.1-1.1c1.3-0.2,2.5-0.7,3.7-1
					C72.1,97,72.6,96.9,73.3,96.8z"/>
				<path class="st32" d="M72.5,120.2c-0.1-1.3-0.3-2.5-0.4-3.7c0.5,0,1,0,1.5,0c0.4,0,0.8-0.2,1.2-0.5c0.1-0.1,0.2-0.2,0.3-0.1
					c1.6,0.2,3.2,0,4.9,0c0.6,0,1.3,0,1.9,0c-0.1,0.5-0.2,1-0.5,1.5c-1,1.7-2.6,2.3-4.4,2.4c-0.9,0-1.7,0.1-2.6,0.2
					C73.8,120.1,73.1,120.2,72.5,120.2z"/>
				<path class="st36" d="M106.7,100.1c0.7,0.8,1.5,1.5,1.8,2.6c0.1,0.4,0.4,0.7,0.5,1c0.3,0.5,0.5,1,0.8,1.4
					c0.2,0.4,0.3,0.7,0.5,1.1c0.1,0.2,0.1,0.4-0.2,0.6c-0.7,0.5-1.3,1.1-1.9,1.7c-0.1,0.1-0.2,0.1-0.3,0c-0.3-0.1-0.5-0.1-0.8-0.3
					c-0.1-0.1-0.2-0.3-0.2-0.4c-0.1-2.2-0.1-4.4-0.2-6.5C106.7,100.9,106.7,100.5,106.7,100.1z"/>
				<path class="st38" d="M48.9,136.6c0.8,2.9-0.3,5.5-1.5,8c0,0-0.1,0-0.1,0c0.1-0.7,0.3-1.4,0.4-2.1c0.1-0.9,0.3-1.8,0.3-2.7
					C47.8,138.6,48.6,137.7,48.9,136.6z"/>
				<path class="st36" d="M96.7,93.2c0.9,0.6,1.8,1.2,2.7,1.8c-1,0.1-2,0.2-2.9,0.3C96.6,94.6,96.6,94,96.7,93.2z"/>
				<path class="st36" d="M71.1,91.9c0.8-0.4,1.5-0.8,2.3-1.1c0,0.2,0,0.5,0,0.8c0,0.2-0.1,0.3-0.3,0.3
					C72.4,91.9,71.7,91.9,71.1,91.9z"/>
				<path class="st6" d="M96.6,179.1c0.2-0.4,0.3-0.9,0.5-1.3c0.4-0.9,1.8-0.9,2.4,0c0,0.1,0.1,0.1,0.1,0.2c0.3,1-0.6,2.3-1.6,2.3
					C97.2,180.3,96.7,179.8,96.6,179.1C96.7,179.1,96.7,179.1,96.6,179.1z M97.4,178.9c0,0.6,0.3,0.8,0.9,0.7
					c0.5-0.2,0.6-0.6,0.7-1.1c0.1-0.3-0.1-0.5-0.3-0.7c-0.3-0.1-0.6-0.2-0.8,0C97.6,178.2,97.3,178.5,97.4,178.9z"/>
				<path class="st6" d="M99.7,191.9c0,0.7-0.1,1.2-0.6,1.7c-0.5,0.4-1.2,0.3-1.6-0.2c-0.5-0.7-0.3-2.1,0.6-2.8
					c0.1,0,0.1-0.1,0.2-0.1c0.4,0.1,0.9,0.1,1.2,0.4C99.6,191.2,99.7,191.6,99.7,191.9C99.7,191.9,99.7,191.9,99.7,191.9z M99,192
					c0-0.2,0-0.3,0-0.4c-0.1-0.1-0.2-0.3-0.3-0.3c-0.2-0.1-0.5-0.1-0.7,0c-0.4,0.3-0.4,1.3-0.2,1.7c0.2,0.3,0.5,0.3,0.7,0.1
					C99,192.8,99,192.4,99,192z"/>
				<path class="st6" d="M99.8,205.3c0.1,0.7-0.1,1.2-0.7,1.6c-0.3,0.2-0.7,0.3-1.1,0.1c-0.4-0.2-0.5-0.5-0.6-1
					c-0.1-0.6,0.2-1.2,0.6-1.6c0.4-0.5,0.7-0.6,1.3-0.3c0.3,0.2,0.5,0.4,0.5,0.7C99.8,205,99.8,205.2,99.8,205.3z M99.2,205.4
					c0-0.2,0-0.4,0-0.5c-0.1-0.1-0.2-0.2-0.3-0.3c-0.1,0-0.4,0-0.4,0.1c-0.2,0.4-0.5,0.9-0.4,1.4c0.1,0.3,0.3,0.4,0.6,0.2
					C99.1,206.2,99.2,205.8,99.2,205.4z"/>
				<path class="st6" d="M89,73.1c0-1.9-0.1-3.5-0.4-5.1c0-0.2,0-0.5,0-0.8c0-0.1,0.1-0.2,0.2-0.3c0.1,0.1,0.2,0.1,0.2,0.2
					c0.6,3.1,1,6.1,0.4,9.3c-0.1,0.4-0.1,0.9-0.2,1.3c-0.2,0.9-1,1.4-1.9,1c-0.4-0.1-0.7-0.2-1.1-0.3c-0.2,0-0.4-0.1-0.4-0.3
					c0-0.1,0.2-0.3,0.4-0.3c0.4,0,0.7,0.1,1.1,0.2c0.2,0,0.3,0.1,0.5,0.1c0.5,0,0.7-0.1,0.7-0.6C88.8,76,89.1,74.4,89,73.1z"/>
				<path class="st6" d="M95.2,62.5c0.3,0,0.7,0,1,0c0.2,0,0.3,0.1,0.4,0.2c0.1,0.1,0.2,0.3,0.1,0.4c0,0.1-0.2,0.2-0.4,0.2
					c-1.5-0.2-3-0.1-4.4,0.8c-0.1,0.1-0.4,0.1-0.4,0.1c-0.2-0.2,0-0.3,0.1-0.5c0.8-0.7,1.6-1,2.6-1.1C94.7,62.5,95,62.5,95.2,62.5
					C95.2,62.5,95.2,62.5,95.2,62.5z"/>
				<path class="st6" d="M78.9,64.2c0.7,0.1,1.4,0.1,2,0.2c0.2,0,0.5,0.1,0.5,0.4c0,0.3-0.3,0.3-0.5,0.3c-0.8,0-1.7-0.1-2.5-0.1
					c-0.4,0-0.8,0.1-1.2,0.2c-0.1,0-0.2,0.1-0.2,0.1c-0.2,0-0.3-0.1-0.5-0.2c0.1-0.1,0.2-0.3,0.3-0.4C77.5,64.2,78.2,64.2,78.9,64.2
					z"/>
				<path class="st6" d="M86.7,85.1c-0.4-0.1-0.9-0.2-1.3-0.3c-0.1,0-0.3-0.1-0.4-0.2c-0.1-0.1-0.1-0.2-0.1-0.3
					c0-0.1,0.2-0.1,0.3-0.2c0,0,0,0,0,0c1,0.4,2,0.3,3,0.1c0.1,0,0.1,0,0.2,0c0.1,0.1,0.3,0.1,0.4,0.3c0.1,0.2-0.1,0.4-0.3,0.4
					C87.9,85,87.4,85.1,86.7,85.1z"/>
				<path class="st6" d="M81,68.1c0,0.2,0,0.4,0,0.5c-0.1,0.2-0.2,0.4-0.4,0.3c-0.2-0.1-0.6-0.4-0.6-0.6c-0.1-0.4,0-0.9,0.1-1.4
					c0-0.1,0.3-0.3,0.4-0.2c0.1,0,0.3,0.2,0.4,0.4C80.9,67.4,80.9,67.8,81,68.1z"/>
				<path class="st6" d="M94.9,66.7c0,0.1,0,0.3,0,0.4c0,0.2-0.1,0.5-0.4,0.5c-0.3,0-0.6-0.1-0.7-0.4c-0.1-0.3,0-1.1,0.3-1.3
					c0.3-0.3,0.7-0.1,0.8,0.2C94.9,66.3,94.9,66.5,94.9,66.7z"/>
				<path class="st37" d="M97.4,178.9c-0.1-0.4,0.2-0.7,0.5-1c0.2-0.2,0.5-0.2,0.8,0c0.3,0.1,0.4,0.3,0.3,0.7
					c-0.1,0.4-0.2,0.9-0.7,1.1C97.7,179.8,97.4,179.6,97.4,178.9z"/>
				<path class="st37" d="M99,192c0,0.3,0,0.8-0.4,1.1c-0.2,0.2-0.5,0.2-0.7-0.1c-0.3-0.4-0.2-1.5,0.2-1.7c0.1-0.1,0.5,0,0.7,0
					c0.1,0,0.2,0.2,0.3,0.3C99.1,191.7,99,191.8,99,192z"/>
				<path class="st37" d="M99.2,205.4c0.1,0.4-0.1,0.8-0.5,1c-0.3,0.2-0.5,0.1-0.6-0.2c-0.1-0.5,0.1-1,0.4-1.4
					c0-0.1,0.3-0.1,0.4-0.1c0.1,0,0.3,0.2,0.3,0.3C99.2,205,99.2,205.2,99.2,205.4z"/>
			</g>
		</g>
	</g>
	
		<image style="overflow:visible;" width="184" height="76" xlink:href="../travaux/2020/SignalConso/illustrations-pictos/sources/logo-DGCCRF.jpg"  transform="matrix(0.1567 0 0 0.1567 74.0628 97.3649)">
	</image>
</g>
</svg>
