<?xml version="1.0" encoding="utf-8"?>
<!-- Generator: Adobe Illustrator 23.0.1, SVG Export Plug-In . SVG Version: 6.00 Build 0)  -->
<svg version="1.1" xmlns="http://www.w3.org/2000/svg" x="0px" y="0px"
     viewBox="0 0 255 255" style="enable-background:new 0 0 255 255;" xml:space="preserve">
<style type="text/css">
	.st0{opacity:0.4;fill:url(#SVGID_1_);}
	.st1{opacity:0.6;fill:url(#SVGID_2_);}
	.st2{opacity:0.6;fill:url(#SVGID_3_);}
	.st3{opacity:0.6;fill:url(#SVGID_4_);}
	.st4{opacity:0.6;fill:url(#SVGID_5_);}
	.st5{opacity:0.6;fill:url(#SVGID_6_);}
	.st6{fill:#1F2B50;}
	.st7{fill:none;stroke:#1F2B50;stroke-width:3;stroke-miterlimit:10;}
	.st8{opacity:0.4;fill:url(#SVGID_7_);}
	.st9{opacity:0.4;fill:url(#SVGID_8_);}
	.st10{opacity:0.6;fill:url(#SVGID_9_);}
	.st11{opacity:0.6;fill:url(#SVGID_10_);}
	.st12{opacity:0.4;fill:url(#SVGID_11_);}
	.st13{opacity:0.4;fill:url(#SVGID_12_);}
	.st14{opacity:0.4;fill:url(#SVGID_13_);}
	.st15{opacity:0.4;fill:url(#SVGID_14_);}
	.st16{opacity:0.4;fill:url(#SVGID_15_);}
	.st17{opacity:0.4;fill:url(#SVGID_16_);}
	.st18{opacity:0.4;fill:url(#SVGID_17_);}
	.st19{fill:url(#SVGID_18_);}
	.st20{fill:url(#SVGID_19_);}
	.st21{fill:url(#SVGID_20_);}
	.st22{opacity:0.6;fill:url(#SVGID_21_);}
	.st23{opacity:0.6;fill:url(#SVGID_22_);}
	.st24{opacity:0.6;fill:url(#SVGID_23_);}
	.st25{opacity:0.6;fill:url(#SVGID_24_);}
	.st26{opacity:0.6;fill:url(#SVGID_25_);}
	.st27{opacity:0.6;fill:url(#SVGID_26_);}
	.st28{opacity:0.6;fill:url(#SVGID_27_);}
	.st29{opacity:0.6;fill:url(#SVGID_28_);}
	.st30{fill:url(#SVGID_29_);}
	.st31{fill:url(#SVGID_30_);}
	.st32{fill:#EA9001;}
	.st33{fill:#407EA7;}
	.st34{opacity:0.5;fill:#FFFFFF;}
	.st35{fill:none;stroke:#EA9001;stroke-width:2;stroke-miterlimit:10;}
	.st36{fill:#BECBCC;}
	.st37{fill:#FFFFFF;}
	.st38{fill:#979B9B;}
	.st39{fill:none;stroke:#407EA7;stroke-width:3;stroke-miterlimit:10;}
	.st40{fill:none;stroke:#407EA7;stroke-width:3.0377;stroke-miterlimit:10;}
	.st41{fill:none;stroke:#407EA7;stroke-width:2.8985;stroke-miterlimit:10;}
	.st42{fill:none;stroke:#407EA7;stroke-width:2.933;stroke-miterlimit:10;}
	.st43{fill:none;stroke:#EA9001;stroke-width:1.8227;stroke-miterlimit:10;}
	.st44{fill:#AAB2B2;}
	.st45{fill:none;stroke:#407EA7;stroke-width:3.0142;stroke-miterlimit:10;}
	.st46{fill:none;stroke:#407EA7;stroke-width:3.0512;stroke-miterlimit:10;}
	.st47{fill:#D3DDDD;}
	.st48{fill:none;stroke:#1F2B50;stroke-miterlimit:10;}
	.st49{fill:#BECBCC;stroke:#1F2B50;stroke-width:0.75;stroke-miterlimit:10;}
	.st50{fill:url(#SVGID_31_);}
	.st51{fill:none;stroke:#407EA7;stroke-width:2.8066;stroke-linecap:round;stroke-miterlimit:10;}
	.st52{fill:none;stroke:#407EA7;stroke-width:2.7511;stroke-linecap:round;stroke-miterlimit:10;}
	.st53{fill:url(#SVGID_32_);}
	.st54{fill:none;stroke:#EA9001;stroke-width:0.8;stroke-miterlimit:10;}
	.st55{fill:none;stroke:#407EA7;stroke-width:1.2;stroke-miterlimit:10;}
	.st56{fill:none;stroke:#407EA7;stroke-width:1.2151;stroke-miterlimit:10;}
	.st57{fill:none;stroke:#407EA7;stroke-width:1.1594;stroke-miterlimit:10;}
	.st58{fill:none;stroke:#407EA7;stroke-width:1.1732;stroke-miterlimit:10;}
	.st59{fill:url(#SVGID_33_);}
	.st60{fill:none;stroke:#1F2B50;stroke-width:0.4;stroke-miterlimit:10;}
	.st61{fill:#BECBCC;stroke:#1F2B50;stroke-width:0.3;stroke-miterlimit:10;}
	.st62{fill:none;stroke:#407EA7;stroke-width:1.1226;stroke-linecap:round;stroke-miterlimit:10;}
	.st63{fill:none;stroke:#407EA7;stroke-width:1.1004;stroke-linecap:round;stroke-miterlimit:10;}
	.st64{fill:url(#SVGID_34_);}
	.st65{fill:url(#SVGID_35_);}
</style>
<g id="Calque_2">
</g>
<g id="Calque_1">
</g>
<g id="Calque_3">
	
		<linearGradient id="SVGID_1_" gradientUnits="userSpaceOnUse" x1="425.4254" y1="1175.5712" x2="629.8254" y2="1175.5712" gradientTransform="matrix(0.6517 0.7585 -0.7585 0.6517 698.745 -1041.613)">
		<stop  offset="0" style="stop-color:#E0E8F0"/>
		<stop  offset="1" style="stop-color:#F8D5CA"/>
	</linearGradient>
	<circle style="fill:url(#SVGID_1_);" cx="150.9" cy="124.7" r="102.2"/>
	<path class="st34" d="M99.6,80.1H8c-4,0-7.2,3.2-7.2,7.2v46.7c0,4,3.2,7.2,7.2,7.2h71.9l9.3,9.6v-9.6h10.4c4,0,7.2-3.2,7.2-7.2
		V87.3C106.8,83.3,103.5,80.1,99.6,80.1z"/>
	<g>
		<path class="st6" d="M24.7,109.9c0,1.2-0.3,2.3-1,3.2c-0.6,0.9-1.5,1.6-2.7,2.1c-1.1,0.5-2.4,0.7-3.9,0.7c-0.4,0-0.9,0-1.5-0.1
			c-0.6-0.1-1.4-0.2-2.4-0.4c-1-0.2-2-0.6-3.1-1.1v-4.9c1,0.6,2,1.1,3,1.5s2,0.6,3.1,0.6c1,0,1.7-0.2,2-0.5c0.3-0.3,0.5-0.7,0.5-1
			c0-0.5-0.3-1-0.8-1.4c-0.5-0.4-1.3-0.7-2.3-1.1c-1.1-0.5-2-1-2.9-1.5c-0.8-0.5-1.5-1.2-2-2c-0.5-0.8-0.8-1.8-0.8-2.9
			c0-1.1,0.3-2,0.8-2.9c0.5-0.9,1.3-1.6,2.4-2.1s2.4-0.8,4-0.8c1.1,0,2.1,0.1,3.1,0.3c0.9,0.2,1.7,0.5,2.3,0.7
			c0.6,0.3,1,0.5,1.3,0.6v4.7c-0.8-0.6-1.7-1.1-2.7-1.6c-1-0.5-2.1-0.7-3.2-0.7c-0.7,0-1.3,0.1-1.6,0.4c-0.3,0.3-0.5,0.6-0.5,1.1
			c0,0.4,0.2,0.7,0.5,1c0.3,0.3,0.9,0.6,1.8,1c1.5,0.7,2.8,1.4,3.7,1.9c0.9,0.6,1.6,1.2,2.2,2C24.4,107.8,24.7,108.8,24.7,109.9z"/>
		<path class="st6" d="M53.2,104.2h-2.6c0.9,0.8,1.3,1.7,1.3,2.9c0,0.6-0.1,1.2-0.4,1.7c-0.3,0.6-0.6,1-1.1,1.5
			c-0.5,0.4-1.1,0.8-1.8,1.1c-0.7,0.3-1.5,0.4-2.5,0.5c-1.2,0-1.8,0.4-1.8,1c0,0.2,0.1,0.4,0.2,0.5s0.4,0.2,0.7,0.2s0.9,0.1,1.7,0.2
			c0.9,0.1,1.7,0.2,2.5,0.4c0.8,0.2,1.5,0.6,2.1,1.2c0.7,0.6,1,1.5,1,2.6c0,0.9-0.2,1.7-0.7,2.4s-1.3,1.2-2.4,1.6
			c-1.1,0.4-2.6,0.6-4.4,0.6c-2.6,0-4.5-0.3-5.7-1c-1.2-0.7-1.8-1.6-1.8-2.8c0-0.3,0.1-0.7,0.2-1.1s0.5-0.8,1-1.2
			c0.5-0.4,1.3-0.6,2.2-0.8c-0.3-0.1-0.6-0.4-0.9-0.7c-0.2-0.4-0.4-0.7-0.4-1.1c0-0.5,0.2-1,0.5-1.5c0.3-0.5,0.9-0.8,1.7-1
			c-1.1-0.3-2-0.8-2.8-1.6c-0.8-0.8-1.2-1.8-1.2-3.1c0-1,0.2-1.8,0.6-2.5c0.4-0.7,0.9-1.3,1.5-1.8s1.4-0.8,2.3-1
			c0.9-0.2,1.8-0.3,2.8-0.3h8V104.2z M48.5,118.4c0-0.6-0.3-1.1-1-1.2c-0.7-0.2-1.4-0.3-2.1-0.3c-1.2,0-2.1,0.1-2.6,0.4
			c-0.5,0.3-0.8,0.7-0.8,1.2c0,1.1,1.1,1.6,3.3,1.6c1,0,1.8-0.1,2.4-0.4C48.3,119.4,48.5,119,48.5,118.4z M47.5,106.7
			c0-0.7-0.3-1.3-0.8-1.8c-0.5-0.4-1.1-0.7-1.7-0.7c-0.8,0-1.4,0.3-1.9,0.8c-0.5,0.5-0.7,1.1-0.7,1.7c0,0.4,0.1,0.8,0.3,1.1
			c0.2,0.4,0.5,0.6,0.8,0.9c0.4,0.2,0.8,0.3,1.3,0.3c0.7,0,1.4-0.2,1.9-0.7C47.3,107.9,47.5,107.3,47.5,106.7z"/>
		<path class="st6" d="M71.3,115.7h-5.2v-7.9c0-0.8-0.1-1.5-0.4-2.1c-0.3-0.6-0.8-0.9-1.7-0.9c-0.4,0-0.8,0.1-1.1,0.2
			c-0.3,0.2-0.6,0.4-0.9,0.6c-0.3,0.2-0.5,0.5-0.6,0.7c-0.2,0.2-0.3,0.5-0.5,0.7v8.6h-5.2v-14.6h5.2v2.1c0.8-0.9,1.6-1.5,2.4-1.8
			s1.7-0.5,2.7-0.5c3.5,0,5.3,2.1,5.3,6.3V115.7z"/>
		<path class="st6" d="M89.6,115c-0.8,0.3-1.5,0.5-2.1,0.7c-0.6,0.2-1.4,0.3-2.3,0.3c-0.9,0-1.4-0.2-1.8-0.5
			c-0.3-0.3-0.6-0.7-0.7-1.1c-0.6,0.4-1.2,0.8-1.9,1.1c-0.7,0.3-1.6,0.4-2.7,0.4c-1.1,0-1.9-0.2-2.6-0.6c-0.7-0.4-1.1-0.8-1.4-1.4
			s-0.4-1.1-0.4-1.7c0-0.9,0.2-1.6,0.7-2.2c0.5-0.6,1.1-1.1,1.8-1.4c0.8-0.4,1.8-0.8,3-1.2c0.7-0.2,1.3-0.4,1.6-0.5
			c0.4-0.1,0.6-0.2,0.8-0.3c0.2-0.1,0.4-0.2,0.6-0.3c0-0.7-0.1-1.3-0.4-1.7c-0.3-0.4-0.9-0.6-1.9-0.6c-1.1,0-2.2,0.2-3.1,0.7
			c-1,0.5-1.9,1.1-2.7,1.9v-4c0.6-0.5,1.3-0.8,2.1-1.1c0.7-0.3,1.5-0.5,2.3-0.7c0.8-0.1,1.6-0.2,2.5-0.2c2.1,0,3.7,0.4,4.8,1.2
			s1.6,1.9,1.6,3.4v5.6c0,0.5,0.1,0.9,0.2,1.2s0.3,0.4,0.6,0.4c0.3,0,0.8-0.1,1.3-0.4V115z M82.4,112.2v-3.5
			c-1.2,0.5-2.1,0.9-2.7,1.3s-0.8,0.9-0.8,1.6c0,0.5,0.1,0.9,0.4,1.1c0.3,0.3,0.6,0.4,1,0.4c0.4,0,0.7-0.1,1.1-0.3
			S82,112.4,82.4,112.2z"/>
		<path class="st6" d="M96.6,115.7h-5.2V95.8h5.2V115.7z"/>
		<circle class="st32" cx="32.3" cy="98" r="2.4"/>
		<g>
			<g>
				
					<rect x="31.4" y="90.1" transform="matrix(0.11 -0.9939 0.9939 0.11 -60.7854 113.6585)" class="st6" width="3.3" height="1.3"/>
				<rect x="36.3" y="92" transform="matrix(0.7806 -0.625 0.625 0.7806 -49.5646 44.0469)" class="st6" width="3.3" height="1.3"/>
				
					<rect x="27.2" y="89.8" transform="matrix(0.7806 -0.625 0.625 0.7806 -51.0735 37.5118)" class="st6" width="1.3" height="3.3"/>
			</g>
		</g>
		<g>
			<g>
				<path class="st33" d="M63.5,126.8c-0.4,0.2-0.8,0.4-1.2,0.5c-0.4,0.1-0.8,0.2-1.3,0.3c-0.4,0.1-0.9,0.1-1.3,0.1
					c-0.8,0-1.6-0.1-2.3-0.3c-0.7-0.2-1.3-0.6-1.8-1c-0.5-0.5-0.9-1-1.1-1.6c-0.3-0.6-0.4-1.3-0.4-2c0-0.8,0.1-1.6,0.4-2.2
					c0.3-0.6,0.7-1.2,1.2-1.6c0.5-0.4,1.1-0.7,1.8-0.9c0.7-0.2,1.4-0.3,2.1-0.3c1.1,0,2.4,0.2,3.8,0.7l0,2.6c-0.5-0.3-1-0.5-1.4-0.7
					c-0.5-0.2-1-0.3-1.7-0.3c-0.6,0-1.1,0.1-1.6,0.4c-0.5,0.2-0.9,0.6-1.2,1c-0.3,0.4-0.4,0.9-0.4,1.5c0,0.5,0.1,0.9,0.4,1.3
					c0.3,0.4,0.6,0.7,1.1,1c0.5,0.2,1,0.4,1.6,0.3c0.5,0,0.9-0.1,1.3-0.2c0.4-0.1,0.8-0.2,1.1-0.4c0.3-0.1,0.6-0.3,0.9-0.5
					L63.5,126.8z"/>
				<path class="st33" d="M72.9,123.9c0,0.7-0.1,1.3-0.4,1.9c-0.3,0.6-0.8,1-1.4,1.3c-0.6,0.3-1.4,0.5-2.2,0.5
					c-0.9,0-1.6-0.1-2.3-0.5c-0.6-0.3-1.1-0.8-1.4-1.3c-0.3-0.6-0.5-1.2-0.5-1.9c0-0.5,0.1-1,0.2-1.5c0.2-0.4,0.4-0.8,0.8-1.2
					c0.3-0.3,0.8-0.6,1.3-0.8s1.1-0.3,1.8-0.3c0.7,0,1.3,0.1,1.8,0.3c0.5,0.2,0.9,0.4,1.3,0.8c0.3,0.3,0.6,0.7,0.8,1.2
					C72.8,122.8,72.9,123.3,72.9,123.9z M70.2,123.9c0-0.6-0.1-1-0.4-1.3c-0.2-0.3-0.6-0.5-1.1-0.5c-0.5,0-0.8,0.2-1.1,0.5
					c-0.2,0.3-0.4,0.8-0.4,1.3c0,0.6,0.1,1,0.4,1.3c0.3,0.3,0.6,0.5,1.1,0.5c0.5,0,0.8-0.2,1.1-0.5
					C70.1,124.9,70.2,124.5,70.2,123.9z"/>
				<path class="st33" d="M81.9,127.4l-2.5,0l0-3.9c0-0.4-0.1-0.7-0.2-1c-0.1-0.3-0.4-0.4-0.8-0.4c-0.2,0-0.4,0-0.5,0.1
					c-0.2,0.1-0.3,0.2-0.4,0.3c-0.1,0.1-0.2,0.2-0.3,0.4c-0.1,0.1-0.2,0.2-0.3,0.4l0,4.2l-2.5,0l-0.1-7.1l2.5,0l0,1
					c0.4-0.4,0.8-0.7,1.2-0.9c0.4-0.2,0.8-0.3,1.3-0.3c1.7,0,2.6,1,2.6,3.1L81.9,127.4z"/>
				<path class="st33" d="M88.9,125.2c0,0.7-0.2,1.2-0.7,1.6c-0.5,0.4-1.2,0.6-2.1,0.6c-0.5,0-1,0-1.4-0.1c-0.4-0.1-0.9-0.2-1.3-0.4
					l0-1.8c0.4,0.2,0.8,0.4,1.1,0.5c0.3,0.1,0.7,0.2,1,0.2c0.6,0,0.9-0.2,0.9-0.5c0-0.1,0-0.2-0.1-0.3c-0.1-0.1-0.3-0.2-0.5-0.3
					c-0.2-0.1-0.5-0.2-0.9-0.4c-0.5-0.2-0.9-0.5-1.2-0.8c-0.3-0.3-0.5-0.8-0.5-1.3c0-0.4,0.1-0.7,0.3-1c0.2-0.3,0.5-0.6,1-0.8
					c0.4-0.2,1-0.3,1.6-0.3c0.1,0,0.3,0,0.6,0c0.2,0,0.5,0.1,0.9,0.2c0.4,0.1,0.7,0.2,1,0.4l0,1.7c-0.2-0.1-0.3-0.2-0.4-0.2
					c-0.1-0.1-0.2-0.1-0.4-0.2c-0.2-0.1-0.4-0.1-0.6-0.2c-0.2-0.1-0.5-0.1-0.7-0.1c-0.3,0-0.5,0.1-0.6,0.2c-0.1,0.1-0.2,0.2-0.2,0.3
					c0,0.1,0.1,0.2,0.2,0.3c0.1,0.1,0.4,0.2,0.8,0.4c0.6,0.2,1,0.4,1.4,0.7c0.3,0.2,0.6,0.5,0.7,0.7S88.9,124.9,88.9,125.2z"/>
				<path class="st33" d="M98.2,123.7c0,0.7-0.1,1.3-0.4,1.9c-0.3,0.6-0.8,1-1.4,1.3c-0.6,0.3-1.4,0.5-2.2,0.5
					c-0.9,0-1.6-0.1-2.3-0.5s-1.1-0.8-1.4-1.3c-0.3-0.6-0.5-1.2-0.5-1.9c0-0.5,0.1-1,0.2-1.5c0.2-0.4,0.4-0.8,0.8-1.2
					c0.3-0.3,0.8-0.6,1.3-0.8c0.5-0.2,1.1-0.3,1.8-0.3c0.7,0,1.3,0.1,1.8,0.3c0.5,0.2,0.9,0.4,1.3,0.8c0.3,0.3,0.6,0.7,0.8,1.2
					C98.1,122.6,98.2,123.1,98.2,123.7z M95.5,123.7c0-0.6-0.1-1-0.4-1.3c-0.2-0.3-0.6-0.5-1.1-0.5c-0.5,0-0.8,0.2-1.1,0.5
					c-0.2,0.3-0.4,0.8-0.4,1.3c0,0.6,0.1,1,0.4,1.3c0.3,0.3,0.6,0.5,1.1,0.5c0.5,0,0.8-0.2,1.1-0.5
					C95.4,124.7,95.5,124.2,95.5,123.7z"/>
			</g>
		</g>
		<path class="st6" d="M37.6,101.4c0.8-1.2,1.6-3.3,1.3-5.2l-2.3,0.3c0.1,0.4,0.1,0.8,0.1,1.2c-0.2,2.6-2.2,4.6-4.5,4.5
			c-2.3-0.1-4-2.3-3.8-5c0-0.7,0.2-1.3,0.5-1.8l-2.2-0.9c0,0-0.5,1-0.5,3.3c0,2.6,1,3.9,1.3,4.6c0.8,1.5,1.1,2,1.3,2.9
			c0.4,1.6,0,2.8-0.3,4.4c-0.4,2,0,4.3,1,6H32c-1.3-3.3-1-5.6-0.7-6.5c0.1-0.4,0.3-0.7,0.7-0.7c0.7,0,0.9,0.7,1,1
			c0.7,2.3,0.5,5,0,7.5h2.6c0.9-2.3,0.7-4.2,0.3-6.9c-0.3-2.4-0.7-3.6,0-5.9C36.3,103.1,36.9,102.4,37.6,101.4z"/>
	</g>
	<path class="st54" d="M99.6,80.1H8c-4,0-7.2,3.2-7.2,7.2v46.7c0,4,3.2,7.2,7.2,7.2h71.9l9.3,9.6v-9.6h10.4c4,0,7.2-3.2,7.2-7.2
		V87.3C106.8,83.3,103.5,80.1,99.6,80.1z"/>
	<g id="cbWt9W.tif_6_">
		<g>
			<path class="st6" d="M143.9,97.5c-0.3-2.5-1-4.9-2.1-7.2c-0.3,0.1-0.7,0.2-1,0.4c-2.1,1-4.4,1-6.6,0.7c-1.5-0.2-3-0.4-4.4-0.8
				c-1.8-0.5-3.5-1.4-5-2.5c-0.5-0.3-1-0.7-1.4-1c-0.2-0.2-0.3-0.4-0.5-0.7c-1.2-2.4-1.9-5.1-2.6-7.7c-1-4.2-1.1-8.4-1-12.7
				c0.1-4.9,1-9.5,3-14c1.9-4.4,4.5-8.4,8.1-11.6c2.3-2.1,5-3.6,8.1-4.3c2.8-0.6,5.6-0.8,8.4-1c2.4-0.2,4.7,0.5,7,1.3
				c3,1,5.6,2.7,8.2,4.5c2,1.4,3.8,3,5.6,4.7c4.9,4.4,8.5,9.6,10.5,15.9c0.8,2.5,1.9,4.9,2.2,7.6c0.2,1.6,0.3,3.2,0.5,4.8
				c0.1,0.9-0.2,1.6-0.7,2.3c-1.9,3.1-4.6,5.3-7.9,6.7c-2.3,1-4.8,1.8-7.4,1.7c-0.6,0-1.2-0.2-1.8-0.3c-0.4-0.1-0.7-0.2-1.1-0.3
				c1.1,3.7,2.2,7.3,3.3,11c1.2,0,2.4,0,3.6,0c6,0.2,11.9,0.6,17.7,1.7c2.3,0.4,4.5,1.1,6.8,1.8c3.2,1,5.6,3,7.5,5.7
				c2.1,2.9,3.4,6.2,4.3,9.6c2.1,7.9,3.9,16,5.4,24.1c0.7,3.8,1.6,7.5,2.1,11.3c0.7,4.5,1.8,9,2.6,13.5c0.7,3.8,1.5,7.7,1.7,11.6
				c0.1,1.4,0,2.7-0.1,4.1c-0.2,2-1.2,3.6-2.7,5c-2.2,1.9-4.7,3.4-7.2,4.9c-4.5,2.7-9.3,5-14,7.4c-2.7,1.4-5.4,2.8-8.1,4.2
				c0,0-0.1,0.1-0.2,0.2c1.1,0,2,0,2.9,0c4,0,8.1,0,12.1,0c1.1,0,2.1-0.1,3.2-0.1c0.3,0,0.4,0.1,0.4,0.4c0,0.3,0,0.6,0,0.9
				c0,1.5,0,3,0,4.5c0,0.2-0.1,0.5-0.2,0.6c-3.9,4.3-7.8,8.6-11.8,12.8c-2.6,2.8-5.5,5.3-8.2,8c-1.3,1.3-2.6,2.6-3.8,4
				c-1.9,2.1-3.8,4.2-5.7,6.2c-0.3,0.3-1,0.5-1.4,0.5c-2.7,0.1-5.3,0.1-8,0.1c-2.1,0-4.2,0-6.3-0.1c-4.3-0.2-8.7-0.5-13-0.7
				c-4.4-0.2-8.8-0.1-13.1-0.5c-5.6-0.4-11.2-0.2-16.8-0.4c-4.7-0.1-9.5-0.4-14.2-0.6c-3.5-0.1-7-0.3-10.5-0.4
				c-4.3-0.1-8.6-0.2-12.9-0.3c-1.5,0-2.9,0.1-4.4,0.1c-0.2,0-0.4,0-0.6,0c-0.1-1-0.1-2-0.1-2.9c-0.1-3.4-0.1-6.9-0.2-10.3
				c-0.1-2.2-0.3-4.4-0.4-6.7c-0.2-4.6-0.4-9.3-0.4-13.9c0-4.6,0.3-9.2,0.4-13.8c0.1-3.6,0.1-7.2,0-10.8c-0.1-4.9-0.3-9.8-0.4-14.7
				c0-1.2,0-2.3,0-3.5c0-0.1,0-0.2,0-0.5c0.5,0,0.9,0.1,1.4,0.1c3.7-0.1,7.4-0.2,11.1-0.3c5.6-0.1,11.2,0,16.8-0.1
				c1.8,0,3.6-0.1,5.5-0.1c0.3,0,0.4-0.1,0.4-0.4c0.3-2,0.5-4.1,0.8-6.1c0.9-5.8,1.7-11.6,2.8-17.3c0.9-4.7,2-9.4,3.1-14.1
				c0.5-2.4,1.1-4.8,1.8-7.1c1-3.2,2.2-6.4,4.1-9.2c0.5-0.8,1.3-1.4,2.1-1.9c1.7-1.2,3.7-1.3,5.7-1.8c1.5-0.3,3-0.7,4.5-1
				c1.8-0.3,3.7-0.6,5.5-0.8c1.5-0.2,3.1-0.3,4.6-0.4C142.2,97.4,143,97.5,143.9,97.5z M73,229.1c0.3,0,0.4,0,0.6,0
				c1.6,0,3.1,0.1,4.7,0.1c3.6,0.1,7.2,0.2,10.8,0.3c4.3,0.1,8.6,0,12.9,0.3c5.2,0.3,10.4,0.4,15.5,0.6c4.4,0.2,8.8,0.3,13.2,0.5
				c5.4,0.2,10.8,0.3,16.3,0.4c5.5,0.1,11,0.2,16.5,0.4c3,0.1,6,0.2,9.1,0.3c0.2,0,0.3,0,0.6,0c0-1.6,0-3.2,0-4.8
				c0.1-6.5,0.2-13,0.4-19.5c0.2-5.8,0.6-11.7,0.8-17.5c0.1-3.7,0.1-7.4,0.1-11.1c0-4-0.1-8.1-0.1-12.1c0-2.1,0.1-4.1,0.1-6.2
				c0-0.5,0-0.9,0-1.4c-0.2,0-0.4,0-0.6,0c-1.7,0-3.4-0.1-5.1-0.2c-2.3-0.1-4.5-0.4-6.8-0.4c-4.8-0.1-9.7,0-14.5-0.3
				c-2.1-0.1-4.2,0-6.2,0c-5.7-0.1-11.4-0.2-17.1-0.2c-2.9,0-5.8,0.1-8.7,0.1c-5.4,0.1-10.7,0.2-16.1,0.3c-2.2,0-4.4-0.1-6.7-0.1
				c-6.2,0.1-12.4,0.1-18.6,0.2c-0.6,0-1.2,0-1.9,0c0,0.2,0,0.4,0,0.6c0.1,3.4,0.1,6.8,0.2,10.2c0,2.2,0.1,4.3,0.1,6.5
				c0,4.8,0,9.5,0,14.3c0,3.9-0.2,7.7-0.3,11.6c0,2.4,0.1,4.8,0.2,7.2c0.1,2.3,0.2,4.5,0.3,6.8c0.1,2.6,0.3,5.1,0.3,7.7
				c0,1.1,0,2.2,0,3.4C73,227.7,73,228.4,73,229.1z M175.3,182.9c0.3-0.2,0.4-0.3,0.6-0.4c0.6-0.4,1.1-0.9,1.7-1.2
				c2-1.2,4-2.4,6-3.6c1.7-1,3.4-2,5.2-2.8c1.1-0.5,1.4-1.1,1.4-2.2c-0.1-3.1-0.1-6.2,0.1-9.3c0.1-2.6,0.4-5.1,0.6-7.7
				c0.2-2.5,0.6-5,0.9-7.4c0-0.4,0-0.7-0.1-1.1c-0.3-1.3-0.7-2.6-1-3.9c-0.8-3.3-1.6-6.6-2.3-9.9c-0.7-3.2-1.4-6.4-2.7-9.4
				c-0.1-0.1-0.1-0.3-0.1-0.5c0-0.1,0.2-0.3,0.3-0.4c0.1,0.1,0.3,0.2,0.3,0.3c0.2,0.4,0.4,0.9,0.5,1.3c0.5,1.5,1.2,3,1.6,4.5
				c1,3.9,2,7.8,2.9,11.7c1,4.2,2.2,8.3,2.9,12.5c0.9,5.5,1.5,11,2.2,16.5c0,0.4,0,0.9,0.2,1.1c0.2,0.3,0.7,0.3,1.1,0.4
				c2.2,0.6,4,1.8,5.8,3.2c0.3,0.2,0.6,0.5,0.3,0.9c-0.3,0.4-0.6,0-0.9-0.2c-1.9-1.5-3.9-2.8-6.3-3.4c-0.1,0-0.3,0-0.4,0.1
				c-0.9,0.8-1.9,1.3-3,1.7c-2.5,1-5,2.1-7.3,3.5c-1.2,0.7-2.5,1.4-3.7,2.2c-1.8,1.1-3.6,2.3-5.4,3.4c-0.4,0.2-0.8,0.5-1.2,0.7
				c-0.2,6.5-0.4,13.1-0.6,19.7c0.2-0.1,0.4-0.2,0.6-0.2c2.9-1.3,5.7-2.6,8.6-3.9c0.8-0.3,1.6-0.7,2.3-1.1c3.8-1.9,7.6-4,11.5-5.8
				c4.2-2,8.3-4.3,12.3-6.8c2.1-1.3,3.9-3,5.3-5c0.3-0.4,0.5-0.9,0.6-1.4c0.4-1.7,0.5-3.5,0.2-5.3c-0.5-3.7-1.1-7.4-1.7-11.1
				c-0.5-3-1.3-5.9-1.8-8.9c-0.9-5.1-1.7-10.2-2.8-15.2c-1.7-8.3-3.3-16.6-5.6-24.8c-0.8-3-1.9-5.9-3.7-8.5
				c-1.5-2.2-3.3-3.8-5.5-5.2c-0.2-0.1-0.5-0.2-0.7-0.1c-0.7,0.2-1.3,0.5-2,0.8c-3.2,1.6-6.6,3-9.9,4.3c-2.1,0.8-4.1,1.7-6.2,2.4
				c-2.6,0.8-5.1,1.5-7.8,2.2c-4.6,1.1-9.3,1.6-14,1.4c-2.3-0.1-4.7,0-6.9-0.3c-3.6-0.5-7.1-1.3-10.7-2c-3.9-0.8-7.7-2.1-11-4.5
				c-1.2-0.8-2.3-1.7-3.5-2.6c-0.1-0.1-0.3-0.1-0.5,0c-0.9,0.4-1.5,1.1-2.1,1.9c-1.7,2.6-2.9,5.5-3.9,8.5c-0.8,2.6-1.4,5.2-2,7.9
				c-1.2,5.1-2.3,10.2-3.4,15.3c-0.6,3-1.1,5.9-1.6,8.9c-0.6,3.5-1,7-1.5,10.4c-0.1,0.9-0.2,1.8-0.4,2.8c6.1-0.1,12.1-0.3,18.1-0.4
				c-0.1-0.2-0.1-0.4-0.1-0.6c-0.7-2.7-1.4-5.4-2.1-8c-0.8-2.7-1.4-5.5-1.5-8.2c-0.3-4.3,0.1-8.7,1.1-12.9c0.5-2.1,1-4.3,1.5-6.5
				c0.1-0.3,0-0.7,0.4-0.7c0.4,0,0.4,0.5,0.4,0.8c-0.1,0.7-0.2,1.4-0.3,2.1c-0.8,3.8-1.9,7.5-2.1,11.4c-0.1,2.3-0.2,4.6,0.1,6.9
				c0.4,3,1.1,5.9,1.9,8.9c0.6,2.2,1.2,4.4,1.8,6.6c0.1,0.3,0.2,0.5,0.6,0.5c6.4,0,12.8,0.1,19.1,0.2c1.8,0,3.5,0.2,5.3,0.2
				c2.8,0.1,5.5,0,8.3,0.1c3,0.1,5.9,0.3,8.9,0.4c1.9,0.1,3.9,0.1,5.8,0.1c1.1,0,1.2,0,1.2,1.1c0,1-0.1,2-0.1,3.1
				c0,6.6,0,13.3,0,19.9C175.3,182.5,175.3,182.6,175.3,182.9z M135.8,55.9c0.2-0.1,0.3-0.1,0.4-0.2c1.4-0.7,2.8-1.4,4.1-2.1
				c2.9-1.6,5.3-3.6,7.4-6.1c0.8-1,1.4-2,1.5-3.3c0-0.1,0-0.3,0.1-0.4c0.1-0.1,0.3-0.1,0.3-0.1c0.5,0.4,1.1,0.7,1.5,1.1
				c1.2,1.5,2.4,2.9,3.3,4.6c1.5,2.5,2.6,5.2,3.3,8c0.2,0.7,0.4,1.4,0.7,2.2c0.2-0.2,0.3-0.4,0.4-0.5c0.8-0.9,1.8-0.9,2.6,0.1
				c0.2,0.3,0.4,0.6,0.6,0.9c1.1,2.3,1.6,4.8,1.4,7.4c0,0.4-0.1,0.7-0.2,1.1c-0.3,0.8-0.9,1-1.7,0.7c-0.1-0.1-0.3-0.1-0.4-0.2
				c0.1,1,0.2,2,0.2,2.9c0.1,3.4-0.2,6.8-0.7,10.1c-0.1,0.4,0,0.5,0.4,0.6c0.8,0.2,1.5,0.3,2.3,0.5c1.3,0.4,2.6,0.3,3.9,0
				c0.7-0.2,1.3-0.4,1.9-0.5c4.4-1.2,7.9-3.6,10.2-7.6c0.1-0.2,0.2-0.6,0.2-0.9c0.1-1.9-0.2-3.7-0.5-5.5c-0.5-2.9-1.6-5.6-2.7-8.3
				c-1.7-4.5-4.1-8.6-7.7-12c-0.8-0.8-1.5-1.6-2.3-2.3c-1.9-1.6-3.6-3.3-5.7-4.6c-1.7-1.1-3.3-2.4-5.2-3.1c-1.1-0.4-2.2-0.9-3.3-1.3
				c-2-0.6-4-1.1-6.1-0.8c-0.8,0.1-1.5,0.2-2.3,0.2c-1.4,0-2.7,0.1-4.1,0.4c-3.3,0.6-6.2,2.1-8.7,4.3c-2.9,2.7-5.2,5.9-6.9,9.4
				c-1.8,3.6-2.8,7.4-3.4,11.3c-0.3,2.3-0.3,4.7-0.3,7c0,6,1.1,11.8,3.5,17.3c0.1,0.1,0.2,0.3,0.3,0.4c1.2,0.8,2.5,1.6,3.9,2.2
				c3,1.3,6.1,1.7,9.3,1.6c1.4,0,2.6-0.6,3.9-1.2c-0.1-0.1-0.2-0.2-0.3-0.4c-1.1-1.4-2.3-2.7-3.3-4.1c-1.1-1.6-2.2-3.3-3-5.1
				c-2.3-5.2-3.8-10.6-5.1-16.2c-0.1-0.4-0.2-0.7-0.3-1.1c-0.1-0.7-0.4-1.5-0.3-2.2c0.2-1.4,0.6-2.9,1.5-4.1c0.8-1,1.7-2,2.5-2.9
				c1.4-1.6,2.8-3.1,3.5-5.2c0.1-0.2,0.4-0.4,0.5-0.4c0.3,0,0.4,0.3,0.4,0.6c-0.1,0.8-0.1,1.6-0.2,2.3
				C136.9,52.3,136.3,54.1,135.8,55.9z M136.5,50.7c-0.1,0-0.2-0.1-0.2-0.1c0,0.1,0,0.1-0.1,0.2c-1.2,1.5-2.4,3-3.7,4.4
				c-1.2,1.3-2.1,2.7-2.4,4.5c-0.1,0.6-0.2,1.3,0,1.9c0.4,1.8,0.9,3.6,1.4,5.4c1,3.2,2,6.4,3,9.5c1,2.9,2.6,5.5,4.2,8
				c1.6,2.4,3.4,4.4,5.9,5.9c1.7,1,3.6,1.5,5.6,1.6c1,0,1.9-0.1,2.8-0.5c0.7-0.4,1.4-0.8,2.1-1.2c2.4-1.5,3.7-3.8,4.4-6.5
				c0.8-3.3,1-6.6,1-10c0-2.2-0.2-4.4-0.5-6.5c-0.1-0.3,0-0.6,0.4-0.7c0.4-0.1,0.6,0.1,0.7,0.4c0,0.1,0,0.2,0.1,0.2
				c0.3,0.4,0.6,0.8,0.9,1.2c0.2,0.3,0.5,0.2,0.5-0.2c0.1-0.2,0.1-0.5,0.1-0.8c0.2-2.3-0.3-4.5-1.3-6.5c-0.1-0.3-0.3-0.6-0.5-0.8
				c-0.3-0.5-0.7-0.5-1-0.1c-0.3,0.3-0.5,0.7-0.6,1.1c-0.2,0.4-0.1,0.9-0.7,0.9c-0.6,0-0.5-0.5-0.7-0.9c-0.5-1.7-0.9-3.4-1.5-5.1
				c-1.2-3.2-2.7-6.3-4.9-8.9c-0.5-0.6-1-1.2-1.5-1.8c-0.4,0.9-0.8,1.7-1.2,2.4c-1,1.4-2.2,2.7-3.6,3.8c-3,2.5-6.4,4.3-10,5.8
				c-0.2,0.1-0.5,0-0.6-0.1c-0.1-0.1-0.1-0.4,0-0.6C135.2,54.5,135.8,52.6,136.5,50.7z M123,101.5c0.1,0.1,0.2,0.2,0.4,0.3
				c2.4,1.4,4.7,2.9,7.1,4.3c0.5,0.3,1.1,0.5,1.7,0.7c4.9,1.5,9.9,2.5,14.9,3.3c4,0.6,8,0.4,12,0.2c6.3-0.3,12.3-1.9,18.2-4
				c3.2-1.1,6.2-2.5,9.3-3.8c2.3-1,4.5-2.1,6.8-3.1c0,0-0.1,0-0.2-0.1c-3.7-1.1-7.4-1.9-11.2-2.4c-4.4-0.5-8.8-0.8-13.1-1
				c-1,0-1.9,0-3,0c0,0.2,0,0.4,0.1,0.6c0.2,0.7,0.4,1.3,0.5,2c0.1,0.5-0.1,0.8-0.5,0.8c-0.4,0-0.6-0.2-0.7-0.6
				c-0.2-0.8-0.4-1.6-0.6-2.4c-1.1-4.1-2.2-8.1-3.3-12.2c-0.1-0.4-0.3-0.7-0.8-0.8c0,0.1-0.1,0.3-0.1,0.4c-0.4,1.9-1.3,3.6-2.5,5.2
				c-0.8,1-1.7,1.7-2.7,2.4c-2.9,2.1-5.9,2-9.1,0.9c-1.2-0.4-2.3-1-3.3-1.9c-0.1-0.1-0.2-0.1-0.4-0.2c0.3,0.7,0.6,1.2,0.9,1.8
				c0.9,2,1.3,4.2,1.7,6.4c0.3,1.5,0.5,3,0.8,4.4c0.1,0.4,0,0.7-0.4,0.8c-0.4,0.1-0.6-0.1-0.7-0.5c0-0.1-0.1-0.2-0.1-0.3
				c-0.1-0.6-0.2-1.3-0.3-1.9c-0.1-0.9-0.3-1.8-0.4-2.7C141.4,97.8,125.6,100.3,123,101.5z M173.9,231.1c0.1,0,0.1,0.1,0.2,0.1
				c0.1-0.1,0.1-0.3,0.2-0.4c1.1-1.2,2.2-2.4,3.3-3.6c2.7-2.7,5.4-5.5,8.1-8.2c3.9-3.9,7.6-8,11.1-12.2c1.2-1.3,2.4-2.6,3.6-4
				c0.5-0.6,1.1-1.1,1.6-1.7c0.1-0.1,0.1-0.2,0.2-0.3c-0.1,0-0.2,0-0.2,0c-6.2-0.1-12.3-0.2-18.5-0.2c-0.2,0-0.5,0-0.7,0.1
				c-2.6,1.2-5.3,2.5-7.9,3.7c-0.2,0.1-0.3,0.3-0.4,0.5c-0.1,1.3-0.2,2.6-0.2,3.8c-0.2,6.8-0.3,13.6-0.5,20.4
				C173.9,229.9,173.9,230.5,173.9,231.1z M73.2,234c0.3,0,0.5,0,0.7,0c2.5,0,5.1,0,7.6,0c2.9,0,5.9,0.1,8.8,0.2
				c1.2,0,2.4,0.1,3.6,0.1c3.9,0.2,7.7,0.4,11.6,0.5c4.5,0.2,9,0.3,13.5,0.4c3.4,0.1,6.7,0.1,10.1,0.2c1,0,2,0.1,3.1,0.2
				c6.2,0.2,12.3,0.4,18.5,0.6c3.7,0.1,7.4,0.4,11.1,0.5c3.4,0.1,6.7,0,10.1,0c0.4,0,0.8-0.1,1.1-0.1c0-1.3,0-2.6,0-3.8
				c-0.1,0-0.1,0-0.2,0c-3.1-0.1-6.2-0.2-9.3-0.3c-2.2-0.1-4.3-0.1-6.5-0.2c-4.4-0.1-8.9-0.3-13.3-0.4c-3.4-0.1-6.7-0.1-10.1-0.1
				c-3.3-0.1-6.5-0.2-9.8-0.3c-2.9-0.1-5.8-0.3-8.6-0.4c-2.1-0.1-4.1-0.1-6.2-0.2c-1.4,0-2.8-0.1-4.2-0.1c-2.4-0.1-4.9-0.3-7.3-0.3
				c-2.6-0.1-5.2,0-7.8-0.1c-2.3,0-4.7-0.2-7-0.2c-3-0.1-6-0.1-9-0.1c-0.5,0-0.6,0.1-0.5,0.6c0,0.8,0,1.6,0.1,2.4
				C73.1,233.3,73.2,233.6,73.2,234z M173.9,236.2c0.2-0.2,0.4-0.4,0.5-0.5c1-1.2,1.9-2.3,3-3.5c1.6-1.8,3.2-3.6,5-5.3
				c3.6-3.5,7.2-6.8,10.5-10.5c2.9-3.2,5.9-6.5,8.9-9.7c0.6-0.6,0.9-1.2,0.8-2.1c0-0.6,0.1-1.3,0.1-1.9c0-0.3,0-0.6,0-0.9
				c-0.1,0.1-0.2,0.2-0.3,0.2c-1.9,2-3.8,4-5.6,6.2c-3.7,4.4-7.6,8.6-11.7,12.6c-3.5,3.5-7.1,7-10.5,10.6c-0.6,0.7-0.8,1.3-0.8,2.1
				C173.9,234.3,173.9,235.2,173.9,236.2z M192.2,150.3c-0.8,7.8-1.5,15.7-1.2,23.7c1.1-0.5,2.2-0.9,3.2-1.4c0.7-0.4,1.1-0.9,1-1.8
				c-0.3-2.3-0.5-4.6-0.8-6.9c-0.5-3.5-1-7-1.5-10.5C192.7,152.3,192.4,151.3,192.2,150.3z"/>
			<path class="st36" d="M73,229.1c0-0.7,0-1.4,0-2.1c0-1.1,0-2.2,0-3.4c-0.1-2.6-0.2-5.1-0.3-7.7c-0.1-2.3-0.2-4.5-0.3-6.8
				c-0.1-2.4-0.2-4.8-0.2-7.2c0-3.9,0.2-7.7,0.3-11.6c0.1-4.8,0-9.5,0-14.3c0-2.2-0.1-4.3-0.1-6.5c-0.1-3.4-0.1-6.8-0.2-10.2
				c0-0.2,0-0.4,0-0.6c0.7,0,1.3,0,1.9,0c6.2-0.1,12.4-0.2,18.6-0.2c2.2,0,4.4,0.1,6.7,0.1c5.4-0.1,10.7-0.2,16.1-0.3
				c2.9,0,5.8-0.2,8.7-0.1c5.7,0,11.4,0.2,17.1,0.2c2.1,0,4.2-0.1,6.2,0c4.8,0.3,9.7,0.2,14.5,0.3c2.3,0,4.5,0.3,6.8,0.4
				c1.7,0.1,3.4,0.1,5.1,0.2c0.2,0,0.3,0,0.6,0c0,0.5,0,1,0,1.4c0,2.1-0.1,4.1-0.1,6.2c0,4,0.1,8.1,0.1,12.1c0,3.7,0,7.4-0.1,11.1
				c-0.2,5.8-0.6,11.7-0.8,17.5c-0.2,6.5-0.3,13-0.4,19.5c0,1.6,0,3.2,0,4.8c-0.2,0-0.4,0-0.6,0c-3-0.1-6-0.2-9.1-0.3
				c-5.5-0.1-11-0.2-16.5-0.4c-5.4-0.1-10.8-0.2-16.3-0.4c-4.4-0.1-8.8-0.3-13.2-0.5c-5.2-0.2-10.4-0.3-15.5-0.6
				c-4.3-0.3-8.6-0.1-12.9-0.3c-3.6-0.1-7.2-0.2-10.8-0.3c-1.6,0-3.1-0.1-4.7-0.1C73.4,229.1,73.2,229.1,73,229.1z M120.5,190.4
				c0.1-1.6-1.4-3.2-3.2-2.8c-1.9,0.4-2.9,1.6-2.9,3.5c0,0.4,0,0.8,0.1,1.1c0.5,1,1.3,1.6,2.4,1.6c1.2,0,2.2-0.4,3-1.4
				c0.1-0.1,0.1-0.2,0.2-0.3C120.2,191.6,120.3,191,120.5,190.4z"/>
			<path class="st37" d="M175.3,182.9c0-0.3,0-0.4,0-0.6c0-6.6,0-13.3,0-19.9c0-1,0.1-2,0.1-3.1c0-1.1-0.1-1.1-1.2-1.1
				c-1.9,0-3.9,0-5.8-0.1c-3-0.1-5.9-0.3-8.9-0.4c-2.8-0.1-5.5,0-8.3-0.1c-1.8,0-3.5-0.2-5.3-0.2c-6.4-0.1-12.8-0.1-19.1-0.2
				c-0.4,0-0.5-0.2-0.6-0.5c-0.6-2.2-1.2-4.4-1.8-6.6c-0.8-2.9-1.5-5.8-1.9-8.9c-0.3-2.3-0.2-4.6-0.1-6.9c0.2-3.9,1.3-7.6,2.1-11.4
				c0.1-0.7,0.3-1.4,0.3-2.1c0-0.3,0.1-0.8-0.4-0.8c-0.4,0-0.3,0.4-0.4,0.7c-0.5,2.2-0.9,4.3-1.5,6.5c-1.1,4.2-1.4,8.6-1.1,12.9
				c0.2,2.8,0.8,5.5,1.5,8.2c0.7,2.7,1.4,5.3,2.1,8c0,0.2,0.1,0.4,0.1,0.6c-6,0.1-12,0.3-18.1,0.4c0.1-1,0.2-1.9,0.4-2.8
				c0.5-3.5,1-7,1.5-10.4c0.5-3,1-6,1.6-8.9c1.1-5.1,2.2-10.2,3.4-15.3c0.6-2.6,1.2-5.3,2-7.9c0.9-3,2.2-5.9,3.9-8.5
				c0.5-0.8,1.2-1.5,2.1-1.9c0.1-0.1,0.4-0.1,0.5,0c1.2,0.8,2.3,1.7,3.5,2.6c3.3,2.3,7,3.7,11,4.5c3.6,0.7,7.1,1.5,10.7,2
				c2.3,0.3,4.6,0.2,6.9,0.3c4.7,0.2,9.4-0.3,14-1.4c2.6-0.6,5.2-1.3,7.8-2.2c2.1-0.7,4.1-1.6,6.2-2.4c3.4-1.3,6.7-2.7,9.9-4.3
				c0.6-0.3,1.3-0.6,2-0.8c0.2-0.1,0.5,0,0.7,0.1c2.2,1.4,4,3,5.5,5.2c1.8,2.6,2.8,5.5,3.7,8.5c2.2,8.2,3.9,16.5,5.6,24.8
				c1.1,5.1,1.8,10.2,2.8,15.2c0.5,3,1.3,5.9,1.8,8.9c0.7,3.7,1.2,7.4,1.7,11.1c0.3,1.8,0.2,3.5-0.2,5.3c-0.1,0.5-0.3,1-0.6,1.4
				c-1.4,2-3.2,3.7-5.3,5c-4,2.4-8.1,4.7-12.3,6.8c-3.9,1.9-7.6,3.9-11.5,5.8c-0.8,0.4-1.5,0.7-2.3,1.1c-2.9,1.3-5.7,2.6-8.6,3.9
				c-0.2,0.1-0.4,0.1-0.6,0.2c0.2-6.6,0.4-13.2,0.6-19.7c0.4-0.3,0.8-0.5,1.2-0.7c1.8-1.1,3.6-2.3,5.4-3.4c1.2-0.7,2.5-1.4,3.7-2.2
				c2.3-1.4,4.8-2.4,7.3-3.5c1.1-0.4,2.1-0.9,3-1.7c0.1-0.1,0.3-0.1,0.4-0.1c2.4,0.6,4.4,1.9,6.3,3.4c0.3,0.2,0.6,0.6,0.9,0.2
				c0.3-0.4,0-0.7-0.3-0.9c-1.7-1.4-3.6-2.6-5.8-3.2c-0.4-0.1-0.9-0.1-1.1-0.4c-0.2-0.2-0.1-0.7-0.2-1.1c-0.7-5.5-1.3-11-2.2-16.5
				c-0.7-4.2-1.9-8.4-2.9-12.5c-0.9-3.9-1.9-7.8-2.9-11.7c-0.4-1.5-1.1-3-1.6-4.5c-0.2-0.4-0.3-0.9-0.5-1.3
				c-0.1-0.1-0.2-0.2-0.3-0.3c-0.1,0.1-0.2,0.3-0.3,0.4c0,0.1,0,0.3,0.1,0.5c1.3,3,2,6.2,2.7,9.4c0.8,3.3,1.5,6.6,2.3,9.9
				c0.3,1.3,0.7,2.6,1,3.9c0.1,0.4,0.1,0.7,0.1,1.1c-0.3,2.5-0.6,4.9-0.9,7.4c-0.3,2.6-0.5,5.1-0.6,7.7c-0.1,3.1-0.1,6.2-0.1,9.3
				c0,1.1-0.3,1.7-1.4,2.2c-1.8,0.8-3.5,1.8-5.2,2.8c-2,1.2-4,2.4-6,3.6c-0.6,0.4-1.1,0.8-1.7,1.2
				C175.7,182.6,175.5,182.7,175.3,182.9z"/>
			<path class="st6" d="M135.8,55.9c0.5-1.9,1-3.7,1.5-5.5c0.2-0.8,0.2-1.6,0.2-2.3c0-0.3-0.1-0.6-0.4-0.6c-0.2,0-0.5,0.2-0.5,0.4
				c-0.6,2.1-2.1,3.7-3.5,5.2c-0.9,1-1.7,1.9-2.5,2.9c-1,1.2-1.3,2.6-1.5,4.1c-0.1,0.7,0.2,1.5,0.3,2.2c0.1,0.4,0.2,0.7,0.3,1.1
				c1.3,5.5,2.8,11,5.1,16.2c0.8,1.8,1.9,3.5,3,5.1c1,1.5,2.2,2.8,3.3,4.1c0.1,0.1,0.2,0.2,0.3,0.4c-1.3,0.5-2.5,1.2-3.9,1.2
				c-3.2,0.1-6.3-0.3-9.3-1.6c-1.4-0.6-2.6-1.4-3.9-2.2c-0.1-0.1-0.2-0.2-0.3-0.4c-2.4-5.5-3.6-11.3-3.5-17.3c0-2.3,0-4.7,0.3-7
				c0.6-4,1.6-7.8,3.4-11.3c1.8-3.5,4-6.7,6.9-9.4c2.5-2.3,5.4-3.7,8.7-4.3c1.4-0.2,2.7-0.4,4.1-0.4c0.8,0,1.5-0.1,2.3-0.2
				c2.1-0.3,4.1,0.2,6.1,0.8c1.1,0.3,2.2,0.8,3.3,1.3c1.9,0.8,3.5,2,5.2,3.1c2.1,1.3,3.8,3.1,5.7,4.6c0.8,0.7,1.5,1.6,2.3,2.3
				c3.6,3.3,6,7.4,7.7,12c1,2.7,2.2,5.4,2.7,8.3c0.3,1.8,0.7,3.7,0.5,5.5c0,0.3-0.1,0.6-0.2,0.9c-2.4,3.9-5.9,6.3-10.2,7.6
				c-0.6,0.2-1.3,0.4-1.9,0.5c-1.3,0.3-2.6,0.4-3.9,0c-0.7-0.2-1.5-0.4-2.3-0.5c-0.3-0.1-0.5-0.2-0.4-0.6c0.6-3.4,0.8-6.7,0.7-10.1
				c0-1-0.1-1.9-0.2-2.9c0.2,0.1,0.3,0.1,0.4,0.2c0.8,0.3,1.4,0.1,1.7-0.7c0.1-0.3,0.2-0.7,0.2-1.1c0.2-2.6-0.3-5.1-1.4-7.4
				c-0.2-0.3-0.3-0.6-0.6-0.9c-0.8-0.9-1.8-1-2.6-0.1c-0.1,0.1-0.2,0.3-0.4,0.5c-0.2-0.8-0.5-1.5-0.7-2.2c-0.7-2.8-1.9-5.5-3.3-8
				c-0.9-1.6-2.2-3.1-3.3-4.6c-0.4-0.5-1-0.8-1.5-1.1c-0.1,0-0.3,0-0.3,0.1c-0.1,0.1-0.1,0.3-0.1,0.4c-0.1,1.3-0.7,2.3-1.5,3.3
				c-2,2.5-4.5,4.5-7.4,6.1c-1.4,0.7-2.8,1.4-4.1,2.1C136.1,55.8,136,55.9,135.8,55.9z"/>
			<path class="st32" d="M136.5,50.7c-0.7,1.9-1.3,3.8-2,5.7c-0.1,0.2-0.1,0.5,0,0.6c0.1,0.1,0.4,0.2,0.6,0.1c3.6-1.4,7-3.3,10-5.8
				c1.4-1.1,2.6-2.4,3.6-3.8c0.5-0.7,0.8-1.5,1.2-2.4c0.5,0.6,1,1.2,1.5,1.8c2.2,2.7,3.7,5.7,4.9,8.9c0.6,1.7,1,3.4,1.5,5.1
				c0.1,0.4,0.1,0.9,0.7,0.9c0.6,0,0.5-0.5,0.7-0.9c0.2-0.4,0.4-0.8,0.6-1.1c0.4-0.4,0.7-0.4,1,0.1c0.2,0.3,0.4,0.5,0.5,0.8
				c1,2.1,1.4,4.2,1.3,6.5c0,0.3-0.1,0.5-0.1,0.8c-0.1,0.4-0.3,0.4-0.5,0.2c-0.3-0.4-0.6-0.8-0.9-1.2c0-0.1-0.1-0.1-0.1-0.2
				c-0.1-0.3-0.3-0.5-0.7-0.4c-0.4,0.1-0.4,0.4-0.4,0.7c0.3,2.2,0.5,4.3,0.5,6.5c0,3.4-0.3,6.7-1,10c-0.6,2.7-2,5-4.4,6.5
				c-0.7,0.4-1.4,0.8-2.1,1.2c-0.9,0.5-1.8,0.6-2.8,0.5c-2-0.1-3.9-0.5-5.6-1.6c-2.4-1.5-4.3-3.6-5.9-5.9c-1.7-2.5-3.3-5.1-4.2-8
				c-1-3.2-2-6.3-3-9.5c-0.5-1.8-1-3.6-1.4-5.4c-0.1-0.6-0.1-1.3,0-1.9c0.3-1.8,1.2-3.2,2.4-4.5c1.3-1.4,2.5-2.9,3.7-4.4
				c0,0,0.1-0.1,0.1-0.2C136.3,50.6,136.4,50.6,136.5,50.7z M145.8,74.3c-0.1-0.2-0.2-0.3-0.2-0.4c-0.5-1.8-1-3.6-1.5-5.4
				c-0.1-0.4-0.2-0.9-0.3-1.3c0-0.2-0.2-0.3-0.3-0.4c-0.1,0.2-0.3,0.3-0.3,0.5c0,0.2,0,0.4,0.1,0.6c0.3,1.2,0.6,2.4,1,3.7
				c0.2,0.9,0.5,1.8,0.8,2.7c0.2,0.6,0.6,0.9,1.1,0.6c0.6-0.3,1.2-0.8,1.8-1.2c0.1-0.1,0.1-0.3,0-0.5c0-0.1-0.3-0.1-0.4-0.1
				c-0.1,0-0.3,0.2-0.4,0.3C146.6,73.7,146.2,74,145.8,74.3z M149.8,79.4c-0.9,0-1.8,0.6-2.1,1.5c-0.1,0.2,0,0.6,0.1,0.7
				c0.5,0.6,1.2,0.9,2.1,0.8c0.8-0.1,1.1-0.6,1.3-1.3c0.3-1.1,0-1.6-1.2-1.7C150,79.4,149.9,79.4,149.8,79.4z M134.7,66
				c0.1,0,0.2,0,0.3-0.1c1-0.3,1.9-0.5,2.9-0.8c0.2,0,0.3-0.3,0.4-0.5c-0.2-0.1-0.4-0.3-0.5-0.3c-0.8,0.2-1.6,0.4-2.4,0.7
				c-0.3,0.1-0.5,0.2-0.7,0.4c-0.1,0.1-0.1,0.2-0.1,0.3C134.5,65.9,134.7,65.9,134.7,66z M149.8,60.1c-1.2,0.1-2,0.6-2.9,1.2
				c-0.1,0.1-0.2,0.3-0.2,0.5c0.2,0,0.4,0,0.5,0c0.8-0.4,1.6-0.8,2.5-0.8c0.3,0,0.7,0,0.7-0.4C150.5,60.3,150,60.2,149.8,60.1z
				 M137.3,69.4c0.1,0.2,0.2,0.5,0.4,0.8c0.3,0.4,0.8,0.2,0.9-0.3c0.1-0.3,0-0.7-0.1-1c-0.1-0.4-0.3-0.7-0.7-0.6
				C137.3,68.5,137.3,68.9,137.3,69.4z M150.9,64.4c0-0.2-0.1-0.4-0.1-0.6c-0.1-0.3-0.2-0.6-0.6-0.5c-0.4,0-0.6,0.3-0.6,0.7
				c0,0.3,0.1,0.7,0.3,1c0.2,0.4,0.6,0.3,0.9,0C150.8,64.8,150.8,64.6,150.9,64.4z"/>
			<path class="st32" d="M123,101.5c2.7-1.2,18.4-3.7,21-3.4c0.1,0.9,0.3,1.8,0.4,2.7c0.1,0.6,0.2,1.3,0.3,1.9c0,0.1,0,0.2,0.1,0.3
				c0.1,0.3,0.3,0.6,0.7,0.5c0.4-0.1,0.5-0.4,0.4-0.8c-0.3-1.5-0.6-3-0.8-4.4c-0.4-2.2-0.8-4.3-1.7-6.4c-0.3-0.6-0.5-1.1-0.9-1.8
				c0.2,0.1,0.3,0.2,0.4,0.2c1,0.8,2.1,1.4,3.3,1.9c3.2,1.1,6.2,1.2,9.1-0.9c1-0.7,2-1.4,2.7-2.4c1.2-1.6,2-3.3,2.5-5.2
				c0-0.1,0.1-0.3,0.1-0.4c0.5,0.1,0.7,0.4,0.8,0.8c1.1,4.1,2.2,8.1,3.3,12.2c0.2,0.8,0.4,1.6,0.6,2.4c0.1,0.4,0.3,0.6,0.7,0.6
				c0.3,0,0.6-0.4,0.5-0.8c-0.1-0.7-0.3-1.3-0.5-2c0-0.2-0.1-0.4-0.1-0.6c1,0,2,0,3,0c4.4,0.2,8.8,0.5,13.1,1
				c3.8,0.5,7.5,1.3,11.2,2.4c0.1,0,0.1,0.1,0.2,0.1c-2.2,1-4.5,2.1-6.8,3.1c-3.1,1.3-6.1,2.7-9.3,3.8c-5.9,2.1-11.9,3.7-18.2,4
				c-4,0.2-8,0.3-12-0.2c-5-0.7-10-1.8-14.9-3.3c-0.6-0.2-1.2-0.4-1.7-0.7c-2.4-1.4-4.7-2.8-7.1-4.3
				C123.2,101.7,123.1,101.6,123,101.5z"/>
			<path class="st38" d="M173.9,231.1c0-0.6,0-1.2,0-1.8c0.1-6.8,0.3-13.6,0.5-20.4c0-1.3,0.1-2.6,0.2-3.8c0-0.2,0.2-0.5,0.4-0.5
				c2.6-1.3,5.3-2.5,7.9-3.7c0.2-0.1,0.4-0.1,0.7-0.1c6.2,0.1,12.3,0.1,18.5,0.2c0.1,0,0.1,0,0.2,0c-0.1,0.1-0.2,0.2-0.2,0.3
				c-0.5,0.6-1.1,1.1-1.6,1.7c-1.2,1.3-2.4,2.6-3.6,4c-3.6,4.2-7.2,8.3-11.1,12.2c-2.7,2.7-5.4,5.4-8.1,8.2
				c-1.1,1.2-2.2,2.4-3.3,3.6c-0.1,0.1-0.2,0.3-0.2,0.4C174,231.2,174,231.1,173.9,231.1z"/>
			<path class="st36" d="M73.2,234c0-0.4-0.1-0.7-0.1-1.1c0-0.8,0-1.6-0.1-2.4c0-0.4,0.1-0.6,0.5-0.6c3,0.1,6,0.1,9,0.1
				c2.3,0.1,4.7,0.2,7,0.2c2.6,0.1,5.2,0,7.8,0.1c2.4,0.1,4.9,0.2,7.3,0.3c1.4,0.1,2.8,0.1,4.2,0.1c2.1,0.1,4.1,0.1,6.2,0.2
				c2.9,0.1,5.8,0.3,8.6,0.4c3.3,0.1,6.5,0.2,9.8,0.3c3.4,0.1,6.8,0,10.1,0.1c4.4,0.1,8.9,0.3,13.3,0.4c2.2,0.1,4.3,0.1,6.5,0.2
				c3.1,0.1,6.2,0.2,9.3,0.3c0,0,0.1,0,0.2,0c0,1.2,0,2.5,0,3.8c-0.3,0-0.7,0.1-1.1,0.1c-3.4,0-6.7,0.1-10.1,0
				c-3.7-0.1-7.4-0.3-11.1-0.5c-6.2-0.2-12.3-0.4-18.5-0.6c-1,0-2-0.2-3.1-0.2c-3.4-0.1-6.7-0.1-10.1-0.2c-4.5-0.1-9-0.2-13.5-0.4
				c-3.9-0.1-7.7-0.4-11.6-0.5c-1.2-0.1-2.4-0.1-3.6-0.1c-2.9-0.1-5.9-0.2-8.8-0.2c-2.5,0-5.1,0-7.6,0C73.7,234,73.5,234,73.2,234z"
				/>
			<path class="st38" d="M173.9,236.2c0-1,0-1.8,0-2.7c0-0.8,0.2-1.5,0.8-2.1c3.4-3.6,6.9-7.1,10.5-10.6c4.1-4,8-8.3,11.7-12.6
				c1.8-2.1,3.7-4.1,5.6-6.2c0.1-0.1,0.1-0.1,0.3-0.2c0,0.4,0,0.6,0,0.9c0,0.6-0.1,1.3-0.1,1.9c0,0.8-0.3,1.5-0.8,2.1
				c-3,3.2-6,6.4-8.9,9.7c-3.3,3.7-7,7.1-10.5,10.5c-1.7,1.7-3.4,3.5-5,5.3c-1,1.1-2,2.3-3,3.5C174.2,235.8,174.1,235.9,173.9,236.2
				z"/>
			<path class="st6" d="M120.5,190.4c-0.1,0.6-0.3,1.2-0.4,1.8c0,0.1-0.1,0.2-0.2,0.3c-0.8,1-1.8,1.4-3,1.4c-1.1,0-1.9-0.7-2.4-1.6
				c-0.2-0.3-0.2-0.7-0.1-1.1c0.1-2,1-3.1,2.9-3.5C119.1,187.2,120.6,188.8,120.5,190.4z M119.3,190.5c0-0.9-0.3-1.5-1-1.7
				c-1-0.4-1.8-0.2-2.3,0.5c-0.6,0.7-0.6,1.6-0.6,2.5c0,0.1,0,0.1,0.1,0.2c0.4,0.7,1.4,1.1,2.2,0.9
				C118.8,192.4,119.2,192.1,119.3,190.5z"/>
			<path class="st6" d="M145.8,74.3c0.4-0.3,0.8-0.6,1.2-1c0.1-0.1,0.3-0.2,0.4-0.3c0.1,0,0.4,0,0.4,0.1c0.1,0.1,0.1,0.4,0,0.5
				c-0.6,0.4-1.1,0.9-1.8,1.2c-0.5,0.3-0.9,0-1.1-0.6c-0.3-0.9-0.5-1.8-0.8-2.7c-0.3-1.2-0.6-2.4-1-3.7c0-0.2-0.1-0.4-0.1-0.6
				c0-0.2,0.2-0.3,0.3-0.5c0.1,0.1,0.3,0.2,0.3,0.4c0.1,0.4,0.2,0.9,0.3,1.3c0.5,1.8,1,3.6,1.5,5.4C145.6,74,145.7,74.1,145.8,74.3z
				"/>
			<path class="st6" d="M149.8,79.4c0.1,0,0.2,0,0.3,0c1.2,0.1,1.5,0.6,1.2,1.7c-0.2,0.7-0.5,1.2-1.3,1.3c-0.9,0.1-1.5-0.2-2.1-0.8
				c-0.1-0.2-0.2-0.5-0.1-0.7C148,80,148.9,79.4,149.8,79.4z M150.6,80.8c-0.6,0.2-1.2,0.4-1.8,0.6c0.4,0.4,0.8,0.4,1.2,0.3
				C150.4,81.6,150.5,81.3,150.6,80.8z M148.5,80.8c0.6-0.2,1.2-0.4,1.8-0.6C149.5,79.9,149,80.1,148.5,80.8z"/>
			<path class="st6" d="M134.7,66c-0.1,0-0.2-0.1-0.2-0.2c0-0.1,0-0.3,0.1-0.3c0.2-0.2,0.5-0.3,0.7-0.4c0.8-0.3,1.6-0.5,2.4-0.7
				c0.1,0,0.4,0.2,0.5,0.3c-0.1,0.2-0.2,0.4-0.4,0.5c-0.9,0.3-1.9,0.5-2.9,0.8C134.9,65.9,134.9,65.9,134.7,66z"/>
			<path class="st6" d="M149.8,60.1c0.2,0.1,0.6,0.3,0.7,0.4c0,0.4-0.4,0.4-0.7,0.4c-0.9,0-1.7,0.4-2.5,0.8c-0.1,0.1-0.3,0-0.5,0
				c0.1-0.2,0.1-0.4,0.2-0.5C147.8,60.7,148.7,60.1,149.8,60.1z"/>
			<path class="st6" d="M137.3,69.4c0.1-0.5,0.1-0.9,0.5-1c0.4-0.1,0.6,0.2,0.7,0.6c0.1,0.3,0.1,0.7,0.1,1c-0.1,0.5-0.6,0.6-0.9,0.3
				C137.5,70,137.4,69.6,137.3,69.4z"/>
			<path class="st6" d="M150.9,64.4c-0.1,0.2-0.1,0.4-0.2,0.6c-0.2,0.4-0.6,0.4-0.9,0c-0.2-0.3-0.3-0.7-0.3-1c0-0.4,0.2-0.6,0.6-0.7
				c0.4,0,0.5,0.2,0.6,0.5C150.8,64,150.8,64.2,150.9,64.4z"/>
			<path class="st37" d="M119.3,190.5c-0.1,1.7-0.4,1.9-1.6,2.3c-0.8,0.2-1.8-0.2-2.2-0.9c0-0.1-0.1-0.1-0.1-0.2
				c-0.1-0.9,0-1.7,0.6-2.5c0.6-0.7,1.3-0.8,2.3-0.5C118.9,189,119.3,189.6,119.3,190.5z"/>
			<path class="st32" d="M150.6,80.8c-0.1,0.5-0.2,0.8-0.6,0.9c-0.4,0.1-0.8,0.1-1.2-0.3C149.4,81.2,150,81,150.6,80.8z"/>
			<path class="st32" d="M148.5,80.8c0.5-0.7,1-0.9,1.8-0.6C149.7,80.4,149.2,80.5,148.5,80.8z"/>
		</g>
	</g>
	<path class="st55" d="M122.6,130.6c0,0,30.8,9.3,65.1-0.9"/>
	<path class="st56" d="M121.8,134.6c0,0,31.5,9.3,66.8-0.9"/>
	<path class="st57" d="M121.8,139.3c0,0,31.9,8.3,67.6-0.9"/>
	<path class="st58" d="M121.8,143.3c0,0,32.7,8.3,69.2-0.9"/>
</g>
</svg>
