<?xml version="1.0" encoding="utf-8"?>
<!-- Generator: Adobe Illustrator 23.0.1, SVG Export Plug-In . SVG Version: 6.00 Build 0)  -->
<svg version="1.1" xmlns="http://www.w3.org/2000/svg" x="0px" y="0px"
     viewBox="0 0 72 72" style="enable-background:new 0 0 72 72;" xml:space="preserve">
<style type="text/css">
	.st0{opacity:0.4;fill:url(#SVGID_1_);}
	.st1{opacity:0.6;fill:url(#SVGID_2_);}
	.st2{opacity:0.6;fill:url(#SVGID_3_);}
	.st3{opacity:0.6;fill:url(#SVGID_4_);}
	.st4{opacity:0.6;fill:url(#SVGID_5_);}
	.st5{opacity:0.6;fill:url(#SVGID_6_);}
	.st6{fill:#1F2B50;}
	.st7{fill:none;stroke:#1F2B50;stroke-width:3;stroke-miterlimit:10;}
	.st8{opacity:0.4;fill:url(#SVGID_7_);}
	.st9{opacity:0.4;fill:url(#SVGID_8_);}
	.st10{opacity:0.6;fill:url(#SVGID_9_);}
	.st11{opacity:0.6;fill:url(#SVGID_10_);}
	.st12{opacity:0.4;fill:url(#SVGID_11_);}
	.st13{opacity:0.4;fill:url(#SVGID_12_);}
	.st14{opacity:0.4;fill:url(#SVGID_13_);}
	.st15{opacity:0.4;fill:url(#SVGID_14_);}
	.st16{opacity:0.4;fill:url(#SVGID_15_);}
	.st17{opacity:0.4;fill:url(#SVGID_16_);}
	.st18{opacity:0.4;fill:url(#SVGID_17_);}
	.st19{fill:url(#SVGID_18_);}
	.st20{fill:url(#SVGID_19_);}
	.st21{fill:url(#SVGID_20_);}
	.st22{opacity:0.6;fill:url(#SVGID_21_);}
	.st23{opacity:0.6;fill:url(#SVGID_22_);}
	.st24{opacity:0.6;fill:url(#SVGID_23_);}
	.st25{opacity:0.6;fill:url(#SVGID_24_);}
	.st26{opacity:0.6;fill:url(#SVGID_25_);}
	.st27{opacity:0.6;fill:url(#SVGID_26_);}
	.st28{opacity:0.6;fill:url(#SVGID_27_);}
	.st29{opacity:0.6;fill:url(#SVGID_28_);}
	.st30{fill:url(#SVGID_29_);}
	.st31{fill:url(#SVGID_30_);}
	.st32{fill:#EA9001;}
	.st33{fill:#407EA7;}
	.st34{opacity:0.5;fill:#FFFFFF;}
	.st35{fill:none;stroke:#EA9001;stroke-width:2;stroke-miterlimit:10;}
	.st36{fill:#BECBCC;}
	.st37{fill:#FFFFFF;}
	.st38{fill:#979B9B;}
	.st39{fill:none;stroke:#407EA7;stroke-width:3;stroke-miterlimit:10;}
	.st40{fill:none;stroke:#407EA7;stroke-width:3.0377;stroke-miterlimit:10;}
	.st41{fill:none;stroke:#407EA7;stroke-width:2.8985;stroke-miterlimit:10;}
	.st42{fill:none;stroke:#407EA7;stroke-width:2.933;stroke-miterlimit:10;}
	.st43{fill:none;stroke:#EA9001;stroke-width:1.8227;stroke-miterlimit:10;}
	.st44{fill:#AAB2B2;}
	.st45{fill:none;stroke:#407EA7;stroke-width:3.0142;stroke-miterlimit:10;}
	.st46{fill:none;stroke:#407EA7;stroke-width:3.0512;stroke-miterlimit:10;}
	.st47{fill:#D3DDDD;}
	.st48{fill:none;stroke:#1F2B50;stroke-miterlimit:10;}
	.st49{fill:#BECBCC;stroke:#1F2B50;stroke-width:0.75;stroke-miterlimit:10;}
	.st50{fill:url(#SVGID_31_);}
	.st51{fill:none;stroke:#407EA7;stroke-width:2.8066;stroke-linecap:round;stroke-miterlimit:10;}
	.st52{fill:none;stroke:#407EA7;stroke-width:2.7511;stroke-linecap:round;stroke-miterlimit:10;}
	.st53{fill:url(#SVGID_32_);}
	.st54{fill:none;stroke:#EA9001;stroke-width:0.8;stroke-miterlimit:10;}
	.st55{fill:none;stroke:#407EA7;stroke-width:1.2;stroke-miterlimit:10;}
	.st56{fill:none;stroke:#407EA7;stroke-width:1.2151;stroke-miterlimit:10;}
	.st57{fill:none;stroke:#407EA7;stroke-width:1.1594;stroke-miterlimit:10;}
	.st58{fill:none;stroke:#407EA7;stroke-width:1.1732;stroke-miterlimit:10;}
	.st59{fill:url(#SVGID_33_);}
	.st60{fill:none;stroke:#1F2B50;stroke-width:0.4;stroke-miterlimit:10;}
	.st61{fill:#BECBCC;stroke:#1F2B50;stroke-width:0.3;stroke-miterlimit:10;}
	.st62{fill:none;stroke:#407EA7;stroke-width:1.1226;stroke-linecap:round;stroke-miterlimit:10;}
	.st63{fill:none;stroke:#407EA7;stroke-width:1.1004;stroke-linecap:round;stroke-miterlimit:10;}
	.st64{fill:url(#SVGID_34_);}
	.st65{fill:url(#SVGID_35_);}
</style>
<g id="Calque_2">
</g>
<g id="Calque_1">
	<g id="tS0hd8.tif_5_">
		<g>
			<path class="st6" d="M5.8,16.5c0-0.6,0-1.2,0-1.7c0.1,0,0.1-0.1,0.1-0.1c0.4-0.1,1,0,1.2-0.2c0.2-0.3,0.2-0.8,0.2-1.3
				c0.4,0,0.7,0,1.2,0c0-0.4-0.1-0.8-0.1-1.2c1,0.1,2,0.1,2.9,0.2c0.8,0,1.5,0.1,2.3,0.1c0.2,0,0.4-0.2,0.5-0.3
				c0.2-0.6,0.6-1.1,1.3-1.1c1-0.1,2.1-0.1,3.1-0.1c2.4,0.1,4.8,0.2,7.1,0.4c2.4,0.2,4.9,0.5,7.3,0.7c1.8,0.2,3.6,0.3,5.4,0.3
				c1,0,2-0.3,2.4-1.5c0.2-0.6,0.7-0.9,1.3-1c0.4-0.1,0.8-0.1,1.2-0.1c2.4,0.1,4.8,0.2,7.3,0.4c3.6,0.2,7.3,0.4,10.9,0.7
				c2.1,0.2,4.1,0.4,6.2,0.8c2.2,0.5,2.5,1.4,2.7,3.3c0.3,3-0.2,5.9-0.5,8.8c-0.4,3.5-0.6,7.1-1,10.6c-0.4,3.4-0.8,6.8-1.2,10.2
				c-0.4,3.6-0.8,7.3-1.3,10.9c-0.5,3.6-1,7.2-1.6,10.8c-0.2,1.2-0.8,2.2-2,2.5c-0.4,0.1-0.9,0-1.3-0.1c-1.8-0.5-3.6-0.9-5.4-1.4
				c-1.6-0.5-3.2-1.1-4.8-1.6c-2.4-0.7-4.8-1.2-7.2-1.9c-2.6-0.7-5.1-1.4-7.7-2.1c-4.1-1.2-8.3-2.4-12.4-3.7
				c-4.6-1.4-9.2-2.8-13.8-4.2c-0.7-0.2-1.4-0.4-2.2-0.6c-0.4-0.1-0.7-0.3-0.8-0.8c-0.2-1.1-0.4-2.1-0.6-3.2c-0.7-3.5-1.3-7-2-10.6
				c-0.6-2.8-1.2-5.7-1.7-8.5c-0.6-3-1.1-5.9-1.6-8.9c-0.2-1-0.1-2.1,0-3.1c0.1-1,0.6-1.4,1.7-1.5c0.8,0,1.6,0,2.4,0
				C5.3,16.5,5.5,16.5,5.8,16.5z M62.1,68.1c-0.2-1.1-0.3-2-0.4-2.9c-0.8-5.9-1.5-11.8-2.3-17.7c-0.3-2.5-0.6-5.1-1-7.6
				c-0.3-2.1-0.5-4.2-0.9-6.3c-0.3-1.6-1.2-2.7-2.9-3.2c-2.7-0.8-5.5-1-8.3-1.5c-3-0.5-6-0.9-9-1.4c-2.4-0.4-4.7-1-7.1-1.4
				c-1.3-0.3-2-1-2.4-2.3c-0.1-0.3-0.2-0.6-0.3-0.9c-0.5-1-0.9-2-1.7-2.6c-1-0.8-2.2-1.1-3.4-1.3c-2-0.3-4-0.6-6-0.9
				c-1.6-0.2-3.3-0.4-5-0.6c-1.2-0.1-2.4-0.2-3.6-0.2C6.2,17,4.5,17,2.7,17c-0.8,0-1.1,0.3-1.1,1c-0.1,0.9-0.2,1.8,0,2.7
				C2,23.2,2.5,25.7,3,28.3c0.7,3.8,1.5,7.6,2.2,11.3c0.6,3.1,1.2,6.3,1.7,9.4c0.2,1,0.3,1.9,0.5,2.9c0,0.2,0.3,0.5,0.5,0.5
				c0.8,0.3,1.5,0.5,2.3,0.8c4,1.2,8.1,2.4,12.1,3.6c5.1,1.5,10.1,3,15.2,4.5c2.2,0.6,4.4,1.2,6.6,1.8c2.2,0.6,4.4,1.1,6.6,1.7
				c3,0.9,6,1.8,9,2.7C60.5,67.7,61.2,67.9,62.1,68.1z M6.2,15c0,0.3,0,0.5,0,0.7c0,0.7,0.1,0.8,0.8,0.8c0.6,0,1.2,0.1,1.9,0.1
				c1.5,0.1,3.1,0.2,4.6,0.3c2.1,0.2,4.1,0.5,6.1,0.9c1.5,0.3,3.1,0.5,4.6,0.9c1.1,0.3,2.2,0.9,2.8,2c0.5,0.9,0.9,1.9,1.4,2.9
				c0.1,0.2,0.2,0.5,0.3,0.7c0.1,0,0.1,0,0.2-0.1c-0.1-1.1-0.3-2.3-0.4-3.4c0.2,0.1,0.2,0.2,0.3,0.3c0.1,1.1,0.3,2.2,0.4,3.3
				c0,0.3,0.2,0.6,0.4,0.7c0.5,0.2,1,0.3,1.7,0.6c-0.2-1.7-0.4-3.2-0.6-4.7c0.1,0,0.1,0,0.2,0c0.1,0.3,0.2,0.5,0.3,0.8
				c0.1,1.1,0.3,2.2,0.4,3.2c0.1,0.8,0.1,0.9,1.1,0.8c-0.1-1.6-0.3-3.3-0.4-4.9c0.1,0,0.1,0,0.2,0c0.1,0.3,0.1,0.5,0.1,0.8
				c0.1,1.3,0.2,2.5,0.3,3.8c0,0.2,0.1,0.5,0.3,0.6c0.3,0.2,0.7,0.2,1.1,0.3c0-0.5,0-0.9,0-1.3c0,0,0.1,0,0.1,0
				c0,0.3,0.1,0.6,0.1,0.9c0,0.2,0.1,0.4,0.2,0.4c0.7,0.1,1.5,0.2,2.2,0.3c0-0.6,0-1.1-0.1-1.6c0.1,0,0.1,0,0.2,0
				c0.1,0.6,0.1,1.1,0.2,1.7c0.6,0.1,1.1,0.2,1.8,0.3c-0.1-1.9-0.5-3.7-0.4-5.5c0.2,0.2,0.3,0.5,0.3,0.8c0.2,1.4,0.3,2.9,0.5,4.3
				c0,0.2,0.1,0.5,0.2,0.5c0.8,0.2,1.7,0.3,2.6,0.4c-0.1-2-0.3-3.9-0.4-5.8c0.1,0,0.2,0,0.2,0c0,0.2,0.1,0.3,0.1,0.5
				c0.1,1.5,0.2,3,0.2,4.5c0,0.9,0.1,1,1,0.9c0.2-1.9-0.4-3.8,0-5.7c0.1,0.2,0.2,0.4,0.2,0.6c0.1,1.5,0.1,2.9,0.1,4.4
				c0,0.8,0.1,0.9,1.1,0.8c0-0.5,0-1.1,0-1.6c0.1,0,0.1,0,0.2,0c0,0.5,0.1,0.9,0.1,1.4c0,0.2,0.1,0.4,0.2,0.4
				c0.3,0.1,0.6,0.1,0.9,0.1c0.1-0.2,0.1-0.4,0.2-0.6c0.3,0.7,0.6,0.9,1.6,0.8c0-0.5,0-1,0-1.6c0.1,0,0.1,0,0.2,0
				c0,0.4,0.1,0.8,0.1,1.1c0,0.6,0.1,0.7,0.8,0.6c0-1.8,0-3.5,0-5.3c0.1,0,0.1,0,0.2,0c0,1.8,0,3.6,0,5.5c0.4,0.1,0.7,0.1,1.1,0.1
				c0-1.9-0.2-3.7,0-5.4c0.1,0,0.2,0,0.3,0c0.1,1.8,0.1,3.7,0.2,5.4c1.3,0.3,2.6,0.6,3.9,0.9c2.1,0.5,3.2,2,3.5,4
				c0.4,2.2,0.7,4.4,0.9,6.7c0.4,3.4,0.9,6.8,1.3,10.1c0.2,1.2,0.3,2.4,0.5,3.6c0.1,0,0.1,0,0.2,0c-0.2-1.5-0.4-2.9-0.5-4.4
				c-0.2-2.3-0.3-4.6-0.5-6.9c-0.3-3.1-0.6-6.2-0.9-9.4c-0.2-3.2-0.3-6.4-0.5-9.6c-0.1-1.1-0.2-2.2-0.3-3.3c-0.3,0-0.6-0.1-0.8-0.1
				c-1.3-0.1-2.6-0.1-3.9-0.3c-2.2-0.2-4.3-0.6-6.4-0.8c-3.2-0.4-6.5-0.7-9.7-1.1c-5.4-0.6-10.8-1.4-16.1-2C18.7,16,16,16,13.4,15.8
				c-1.5-0.1-2.9-0.3-4.4-0.4C8.1,15.3,7.2,15.1,6.2,15z M62.6,68.1c0.3-0.2,0.7-0.3,0.8-0.5c0.4-0.6,0.8-1.2,0.9-1.9
				c0.4-2.1,0.7-4.3,1-6.4c0.4-2.5,0.7-5,1-7.5c0.3-2.4,0.5-4.9,0.8-7.3c0.5-4.6,1.1-9.2,1.5-13.8c0.3-2.4,0.4-4.7,0.7-7.1
				c0.3-2.9,0.8-5.8,0.5-8.8c-0.1-0.8-0.1-1.8-0.9-2.3c-0.7-0.4-1.5-0.9-2.2-1c-3.5-0.4-7-0.7-10.5-1c-2.5-0.2-4.9-0.3-7.4-0.5
				c-2-0.1-4.1-0.1-6.2-0.1c-0.7,0-1.2,0.4-1.5,1.1c-0.1,0.3-0.4,0.6-0.7,0.8c-0.7,0.5-1.5,0.7-2.4,0.7c-1.4-0.1-2.8-0.1-4.2-0.2
				c-2.5-0.2-4.9-0.5-7.4-0.7c-2.8-0.2-5.6-0.4-8.4-0.5c-0.8,0-1.6,0-2.4,0.1c-0.2,0-0.5,0.1-0.6,0.2c-0.2,0.2-0.3,0.4-0.4,0.6
				c0.2,0.1,0.4,0.2,0.6,0.2c3.2,0.2,6.5,0.4,9.7,0.7c3.9,0.3,7.7,0.8,11.6,1.2c3.2,0.3,6.5,0.7,9.7,0.9c2.2,0.2,4.4,0.2,6.6,0.4
				c3.2,0.3,6.4,0.6,9.5,0.9c1.3,0.1,2.5,0.3,3.8,0.5c0,0.9,0,1.7-0.1,2.5c-0.4,4.3-0.9,8.5-1.3,12.8c-0.2,2.6-0.4,5.1-0.5,7.7
				c-0.3,5-0.6,10.1-0.9,15.1c-0.1,2.9-0.2,5.8-0.8,8.7C62,65,62.4,66.5,62.6,68.1z M62,62.8c0.1,0,0.1,0,0.2,0
				c0.1-1.3,0.3-2.6,0.4-3.9c0.3-6.4,0.6-12.8,1-19.1c0.3-4.4,0.7-8.8,1.1-13.1c0.3-3,0.5-5.9,0.8-8.9c0-0.4-0.1-0.6-0.5-0.6
				c-4.3-0.4-8.6-0.9-12.9-1.3c-4.3-0.4-8.5-0.6-12.8-1c-2.3-0.2-4.7-0.5-7-0.8c-2.5-0.3-5-0.5-7.5-0.7c-2.5-0.2-4.9-0.4-7.4-0.6
				c-2.3-0.2-4.5-0.2-6.8-0.4c-0.6,0-1.2-0.1-1.9-0.1c0,0.3,0,0.6,0,0.9c0.1,0,0.3,0,0.4,0c2.3,0.1,4.6,0.1,7,0.3
				c3.4,0.2,6.8,0.4,10.2,0.8c4.3,0.4,8.7,0.9,13,1.3c5.8,0.6,11.7,1.2,17.5,1.8c1.2,0.1,2.4,0.2,3.6,0.4c0.2,0,0.5,0.3,0.5,0.4
				c0.1,1.8,0.2,3.6,0.2,5.5c0,4.5,0,9,0.1,13.5c0.1,3.2,0.3,6.5,0.4,9.7c0.1,4.8,0.1,9.6,0.2,14.4C61.9,61.7,62,62.2,62,62.8z
				 M61.4,56.3c0.1,0,0.1,0,0.2,0c0-0.2,0-0.4,0-0.6c-0.2-4.4-0.4-8.8-0.6-13.2c-0.2-7.9-0.3-15.9-0.5-23.8c0-0.5-0.2-0.6-0.6-0.7
				c-0.5,0-1,0-1.4-0.1c-3.6-0.4-7.2-0.8-10.8-1.2c-6-0.6-12-1.2-18-1.8c-3.5-0.3-7.1-0.7-10.6-0.9c-3.6-0.2-7.3-0.4-10.9-0.6
				c-0.1,0-0.3,0-0.5,0c0,0.3,0,0.6-0.1,0.8c0,0.3,0.1,0.5,0.4,0.5c2.1,0.2,4.2,0.4,6.3,0.5c3,0.2,6.1,0.4,9.1,0.7
				c3.6,0.4,7.2,1,10.8,1.4c4,0.5,8,0.8,12,1.4c4,0.6,8,1.1,12.1,1.2c0.1,0,0.3,0.2,0.3,0.3c0.1,1.4,0.3,2.8,0.4,4.2
				c0.2,3,0.3,6,0.5,9.1c0.2,2.4,0.5,4.8,0.7,7.2C60.6,46,61,51.1,61.4,56.3z"/>
			<path class="st32" d="M62.1,68.1c-0.8-0.2-1.6-0.4-2.4-0.6c-3-0.9-6-1.8-9-2.7c-2.2-0.6-4.4-1.1-6.6-1.7
				c-2.2-0.6-4.4-1.1-6.6-1.8c-5.1-1.5-10.1-3-15.2-4.5c-4-1.2-8.1-2.4-12.1-3.6c-0.8-0.2-1.6-0.5-2.3-0.8c-0.2-0.1-0.4-0.3-0.5-0.5
				C7.2,50.9,7.1,50,6.9,49c-0.6-3.1-1.1-6.3-1.7-9.4C4.4,35.8,3.7,32.1,3,28.3c-0.5-2.5-1-5.1-1.4-7.6c-0.1-0.9-0.1-1.8,0-2.7
				c0.1-0.8,0.4-1,1.1-1c1.7,0,3.4,0.1,5.1,0.1c1.2,0,2.4,0.1,3.6,0.2c1.7,0.2,3.3,0.3,5,0.6c2,0.3,4,0.6,6,0.9
				c1.2,0.2,2.4,0.6,3.4,1.3c0.9,0.7,1.3,1.7,1.7,2.6c0.1,0.3,0.2,0.6,0.3,0.9c0.4,1.2,1.1,2,2.4,2.3c2.4,0.5,4.7,1,7.1,1.4
				c3,0.5,6,0.9,9,1.4c2.8,0.5,5.6,0.7,8.3,1.5c1.7,0.5,2.6,1.6,2.9,3.2c0.4,2.1,0.7,4.2,0.9,6.3c0.3,2.5,0.6,5.1,1,7.6
				c0.8,5.9,1.5,11.8,2.3,17.7C61.8,66.2,61.9,67.1,62.1,68.1z"/>
			<path class="st37" d="M6.2,15c1,0.1,2,0.2,2.9,0.3c1.5,0.1,2.9,0.3,4.4,0.4c2.6,0.2,5.2,0.3,7.8,0.6c5.4,0.6,10.8,1.3,16.1,2
				c3.2,0.4,6.5,0.7,9.7,1.1c2.2,0.3,4.3,0.6,6.4,0.8c1.3,0.1,2.6,0.2,3.9,0.3c0.2,0,0.5,0,0.8,0.1c0.1,1.1,0.3,2.2,0.3,3.3
				c0.2,3.2,0.3,6.4,0.5,9.6c0.2,3.1,0.6,6.2,0.9,9.4c0.2,2.3,0.3,4.6,0.5,6.9c0.1,1.5,0.3,2.9,0.5,4.4c-0.1,0-0.1,0-0.2,0
				c-0.2-1.2-0.3-2.4-0.5-3.6c-0.4-3.4-0.9-6.8-1.3-10.1c-0.3-2.2-0.6-4.5-0.9-6.7c-0.3-2-1.4-3.5-3.5-4c-1.3-0.3-2.6-0.6-3.9-0.9
				c-0.1-1.8-0.1-3.6-0.2-5.4c-0.1,0-0.2,0-0.3,0c-0.2,1.8,0.1,3.6,0,5.4c-0.3,0-0.7-0.1-1.1-0.1c0-1.8,0-3.7,0-5.5
				c-0.1,0-0.1,0-0.2,0c0,1.8,0,3.5,0,5.3c-0.8,0.1-0.8,0.1-0.8-0.6c0-0.4-0.1-0.8-0.1-1.1c-0.1,0-0.1,0-0.2,0c0,0.5,0,1.1,0,1.6
				c-1,0.1-1.3-0.1-1.6-0.8c-0.1,0.2-0.1,0.4-0.2,0.6c-0.3,0-0.6,0-0.9-0.1c-0.1,0-0.2-0.3-0.2-0.4c-0.1-0.5-0.1-0.9-0.1-1.4
				c-0.1,0-0.1,0-0.2,0c0,0.6,0,1.1,0,1.6c-1,0.1-1.1,0-1.1-0.8c0-1.5-0.1-2.9-0.1-4.4c0-0.2-0.1-0.4-0.2-0.6
				c-0.3,1.9,0.2,3.8,0,5.7c-0.9,0.1-1,0-1-0.9c-0.1-1.5-0.2-3-0.2-4.5c0-0.2-0.1-0.3-0.1-0.5c-0.1,0-0.2,0-0.2,0
				c0.1,1.9,0.3,3.8,0.4,5.8c-0.9-0.1-1.8-0.3-2.6-0.4c-0.1,0-0.2-0.3-0.2-0.5c-0.2-1.4-0.3-2.9-0.5-4.3c0-0.3-0.1-0.5-0.3-0.8
				c-0.1,1.8,0.3,3.6,0.4,5.5c-0.6-0.1-1.2-0.2-1.8-0.3c-0.1-0.6-0.1-1.2-0.2-1.7c-0.1,0-0.1,0-0.2,0c0,0.5,0,1,0.1,1.6
				c-0.7-0.1-1.5-0.2-2.2-0.3c-0.1,0-0.2-0.3-0.2-0.4c-0.1-0.3-0.1-0.6-0.1-0.9c0,0-0.1,0-0.1,0c0,0.4,0,0.8,0,1.3
				c-0.4-0.1-0.8-0.1-1.1-0.3c-0.2-0.1-0.3-0.4-0.3-0.6c-0.1-1.3-0.2-2.5-0.3-3.8c0-0.3-0.1-0.5-0.1-0.8c-0.1,0-0.1,0-0.2,0
				c0.1,1.6,0.3,3.3,0.4,4.9c-1,0.1-1,0-1.1-0.8c-0.1-1.1-0.2-2.2-0.4-3.2c0-0.3-0.2-0.5-0.3-0.8c-0.1,0-0.1,0-0.2,0
				c0.2,1.5,0.4,3,0.6,4.7c-0.7-0.2-1.2-0.3-1.7-0.6c-0.2-0.1-0.3-0.5-0.4-0.7c-0.2-1.1-0.3-2.2-0.4-3.3c0-0.1-0.1-0.2-0.3-0.3
				c0.1,1.1,0.3,2.3,0.4,3.4c-0.1,0-0.1,0-0.2,0.1c-0.1-0.2-0.2-0.5-0.3-0.7c-0.4-1-0.9-1.9-1.4-2.9c-0.6-1.1-1.7-1.7-2.8-2
				c-1.5-0.4-3.1-0.7-4.6-0.9c-2-0.3-4.1-0.6-6.1-0.9c-1.5-0.2-3.1-0.2-4.6-0.3c-0.6,0-1.2-0.1-1.9-0.1c-0.7,0-0.8-0.1-0.8-0.8
				C6.1,15.5,6.2,15.4,6.2,15z M51.8,27.1c0.4-0.4,0.4-3.1,0-3.7C51.8,24.7,51.8,25.8,51.8,27.1z M46.4,22.9c0,0-0.1,0-0.1,0
				c0,1.3,0,2.6,0,3.9c0.1,0,0.1,0,0.2,0C46.5,25.4,46.7,24.1,46.4,22.9z M40.5,24.8c0.1,0,0.1,0,0.2,0c0.2-0.7,0-2.7-0.5-3.2
				C40.3,22.8,40.4,23.8,40.5,24.8z M34,23.7c0.1,0,0.2,0,0.3,0c-0.1-0.9-0.2-1.7-0.3-2.6c-0.1,0-0.2,0-0.3,0
				C33.9,21.9,33.9,22.8,34,23.7z M36.4,21.4c-0.1,0-0.1,0-0.2,0c-0.2,0.6,0.1,2.1,0.5,2.4C36.7,23,36.6,22.2,36.4,21.4z M44.8,22.4
				c-0.1,0-0.2,0-0.3,0c0,0.9,0.1,1.9,0.1,2.8c0.1,0,0.2,0,0.3,0C44.8,24.3,44.8,23.3,44.8,22.4z M48,23c-0.1,0-0.1,0-0.2,0
				c0,1,0,1.9,0,2.9c0.1,0,0.1,0,0.2,0C48,24.9,48,24,48,23z M40.9,26.1c-0.1,0-0.2,0-0.3,0c0,0.4,0.1,0.8,0.1,1.1
				c0.1,0,0.2,0,0.3,0C40.9,26.8,40.9,26.4,40.9,26.1z"/>
			<path class="st32" d="M62.6,68.1c-0.2-1.6-0.6-3.1-0.3-4.6c0.6-2.9,0.7-5.8,0.8-8.7c0.3-5,0.6-10.1,0.9-15.1
				c0.2-2.6,0.3-5.1,0.5-7.7c0.4-4.3,0.9-8.5,1.3-12.8c0.1-0.8,0.1-1.7,0.1-2.5c-1.3-0.2-2.5-0.4-3.8-0.5c-3.2-0.3-6.4-0.6-9.5-0.9
				c-2.2-0.2-4.4-0.2-6.6-0.4c-3.2-0.3-6.5-0.6-9.7-0.9c-3.9-0.4-7.7-0.8-11.6-1.2c-3.2-0.3-6.4-0.5-9.7-0.7c-0.2,0-0.4-0.1-0.6-0.2
				c0.1-0.2,0.2-0.5,0.4-0.6c0.2-0.1,0.4-0.2,0.6-0.2c0.8,0,1.6-0.1,2.4-0.1c2.8,0.1,5.6,0.3,8.4,0.5c2.5,0.2,4.9,0.5,7.4,0.7
				c1.4,0.1,2.8,0.2,4.2,0.2c0.9,0,1.7-0.2,2.4-0.7c0.3-0.2,0.5-0.5,0.7-0.8c0.3-0.7,0.8-1.1,1.5-1.1c2.1,0,4.1,0.1,6.2,0.1
				c2.5,0.1,5,0.3,7.4,0.5c3.5,0.3,7,0.6,10.5,1c0.8,0.1,1.6,0.5,2.2,1c0.8,0.5,0.8,1.4,0.9,2.3c0.4,3-0.2,5.9-0.5,8.8
				c-0.2,2.4-0.4,4.7-0.7,7.1c-0.5,4.6-1,9.2-1.5,13.8c-0.3,2.4-0.5,4.9-0.8,7.3c-0.3,2.5-0.6,5-1,7.5c-0.3,2.1-0.6,4.3-1,6.4
				c-0.1,0.7-0.6,1.3-0.9,1.9C63.2,67.8,62.9,67.9,62.6,68.1z M41.9,13.1c0.2,0,0.4,0.1,0.6,0.1c1.4,0.1,2.8,0.2,4.2,0.3
				c3.1,0.2,6.1,0.3,9.2,0.5c2.5,0.2,5.1,0.4,7.6,0.6c1.4,0.1,2.8,0.3,4.2,0.3c0.6,0,0.7-0.2,0.7-0.7c-0.1-1.2-0.5-1.7-1.8-1.8
				c-1.7-0.1-3.4-0.2-5.1-0.4c-5.3-0.4-10.7-0.8-16-1.2c-0.7,0-1.4,0-2.1,0c-0.6,0-1,0.3-1.1,0.9C42.1,12.2,42,12.6,41.9,13.1z"/>
			<path class="st37" d="M62,62.8c0-0.6-0.1-1.1-0.1-1.7c-0.1-4.8-0.1-9.6-0.2-14.4c-0.1-3.2-0.3-6.5-0.4-9.7c-0.1-4.5,0-9-0.1-13.5
				c0-1.8-0.1-3.6-0.2-5.5c0-0.1-0.3-0.4-0.5-0.4c-1.2-0.1-2.4-0.2-3.6-0.4c-5.8-0.6-11.7-1.2-17.5-1.8c-4.3-0.5-8.7-0.9-13-1.3
				c-3.4-0.3-6.8-0.6-10.2-0.8c-2.3-0.1-4.6-0.2-7-0.3c-0.1,0-0.3,0-0.4,0c0-0.3,0-0.6,0-0.9c0.6,0,1.2,0.1,1.9,0.1
				c2.3,0.1,4.5,0.2,6.8,0.4c2.5,0.2,4.9,0.4,7.4,0.6c2.5,0.2,5,0.5,7.5,0.7c2.3,0.2,4.7,0.6,7,0.8c4.3,0.4,8.5,0.6,12.8,1
				c4.3,0.4,8.6,0.9,12.9,1.3c0.4,0,0.5,0.2,0.5,0.6c-0.3,3-0.6,5.9-0.8,8.9c-0.4,4.4-0.8,8.8-1.1,13.1c-0.4,6.4-0.6,12.8-1,19.1
				c-0.1,1.3-0.3,2.6-0.4,3.9C62.2,62.8,62.1,62.8,62,62.8z"/>
			<path class="st37" d="M61.4,56.3C61,51.1,60.6,46,60.2,40.8c-0.2-2.4-0.5-4.8-0.7-7.2c-0.2-3-0.3-6-0.5-9.1
				c-0.1-1.4-0.2-2.8-0.4-4.2c0-0.1-0.2-0.3-0.3-0.3c-4.1-0.1-8.1-0.6-12.1-1.2c-4-0.6-8-0.9-12-1.4c-3.6-0.4-7.2-1-10.8-1.4
				c-3-0.3-6.1-0.5-9.1-0.7c-2.1-0.2-4.2-0.4-6.3-0.5c-0.3,0-0.4-0.2-0.4-0.5c0-0.3,0-0.5,0.1-0.8c0.2,0,0.3,0,0.5,0
				c3.6,0.2,7.3,0.3,10.9,0.6c3.6,0.2,7.1,0.6,10.6,0.9c6,0.6,12,1.2,18,1.8c3.6,0.4,7.2,0.8,10.8,1.2C59,18,59.5,18,60,18
				c0.4,0,0.6,0.2,0.6,0.7c0.1,7.9,0.3,15.9,0.5,23.8c0.1,4.4,0.4,8.8,0.6,13.2c0,0.2,0,0.4,0,0.6C61.5,56.3,61.5,56.3,61.4,56.3z"
				/>
			<path class="st6" d="M51.8,27.1c0-1.2,0-2.4,0-3.7C52.2,23.9,52.1,26.6,51.8,27.1z"/>
			<path class="st6" d="M46.4,22.9c0.3,1.3,0,2.6,0.1,3.9c-0.1,0-0.1,0-0.2,0c0-1.3,0-2.6,0-3.9C46.3,22.9,46.4,22.9,46.4,22.9z"/>
			<path class="st6" d="M40.5,24.8c-0.1-1-0.2-2-0.3-3.2c0.5,0.5,0.7,2.4,0.5,3.2C40.6,24.8,40.6,24.8,40.5,24.8z"/>
			<path class="st6" d="M34,23.7c-0.1-0.9-0.2-1.7-0.2-2.6c0.1,0,0.2,0,0.3,0c0.1,0.9,0.2,1.7,0.3,2.6C34.2,23.6,34.1,23.6,34,23.7z
				"/>
			<path class="st6" d="M36.4,21.4c0.1,0.8,0.2,1.6,0.3,2.4c-0.4-0.3-0.7-1.8-0.5-2.4C36.3,21.4,36.4,21.4,36.4,21.4z"/>
			<path class="st6" d="M44.8,22.4c0,0.9,0.1,1.9,0.1,2.8c-0.1,0-0.2,0-0.3,0c0-0.9-0.1-1.9-0.1-2.8C44.6,22.4,44.7,22.4,44.8,22.4z
				"/>
			<path class="st6" d="M48,23c0,1,0,1.9,0,2.9c-0.1,0-0.1,0-0.2,0c0-1,0-1.9,0-2.9C47.9,23,47.9,23,48,23z"/>
			<path class="st6" d="M40.9,26.1c0,0.4,0.1,0.8,0.1,1.1c-0.1,0-0.2,0-0.3,0c0-0.4-0.1-0.8-0.1-1.1C40.7,26.1,40.8,26.1,40.9,26.1z
				"/>
			<path class="st6" d="M41.9,13.1c0.1-0.5,0.2-0.9,0.3-1.2c0.1-0.6,0.5-0.9,1.1-0.9c0.7,0,1.4-0.1,2.1,0c5.3,0.4,10.7,0.8,16,1.2
				c1.7,0.1,3.4,0.2,5.1,0.4c1.2,0.1,1.7,0.6,1.8,1.8c0,0.6-0.1,0.8-0.7,0.7c-1.4-0.1-2.8-0.2-4.2-0.3c-2.5-0.2-5.1-0.4-7.6-0.6
				c-3.1-0.2-6.1-0.3-9.2-0.5c-1.4-0.1-2.8-0.2-4.2-0.3C42.3,13.2,42.1,13.1,41.9,13.1z M67.7,14.4c0.1-1-0.2-1.4-1.2-1.5
				c-1.6-0.1-3.2-0.3-4.9-0.4c-5.5-0.4-11-0.8-16.4-1.2c-0.5,0-1,0-1.5,0c-1,0.1-1.2,0.3-1.3,1.5C50.9,13.3,59.3,13.9,67.7,14.4z"/>
			<path class="st36" d="M67.7,14.4c-8.4-0.5-16.8-1.1-25.3-1.6c0.1-1.2,0.3-1.4,1.3-1.5c0.5,0,1,0,1.5,0c5.5,0.4,11,0.8,16.4,1.2
				c1.6,0.1,3.2,0.2,4.9,0.4C67.6,13,67.9,13.4,67.7,14.4z"/>
		</g>
	</g>
</g>
<g id="Calque_3">
</g>
</svg>
