<?xml version="1.0" encoding="utf-8"?>
<!-- Generator: Adobe Illustrator 23.0.1, SVG Export Plug-In . SVG Version: 6.00 Build 0)  -->
<svg version="1.1" xmlns="http://www.w3.org/2000/svg" x="0px" y="0px"
     viewBox="0 0 72 72" style="enable-background:new 0 0 72 72;" xml:space="preserve">
<style type="text/css">
	.st0{opacity:0.4;fill:url(#SVGID_1_);}
	.st1{opacity:0.6;fill:url(#SVGID_2_);}
	.st2{opacity:0.6;fill:url(#SVGID_3_);}
	.st3{opacity:0.6;fill:url(#SVGID_4_);}
	.st4{opacity:0.6;fill:url(#SVGID_5_);}
	.st5{opacity:0.6;fill:url(#SVGID_6_);}
	.st6{fill:#1F2B50;}
	.st7{fill:none;stroke:#1F2B50;stroke-width:3;stroke-miterlimit:10;}
	.st8{opacity:0.4;fill:url(#SVGID_7_);}
	.st9{opacity:0.4;fill:url(#SVGID_8_);}
	.st10{opacity:0.6;fill:url(#SVGID_9_);}
	.st11{opacity:0.6;fill:url(#SVGID_10_);}
	.st12{opacity:0.4;fill:url(#SVGID_11_);}
	.st13{opacity:0.4;fill:url(#SVGID_12_);}
	.st14{opacity:0.4;fill:url(#SVGID_13_);}
	.st15{opacity:0.4;fill:url(#SVGID_14_);}
	.st16{opacity:0.4;fill:url(#SVGID_15_);}
	.st17{opacity:0.4;fill:url(#SVGID_16_);}
	.st18{opacity:0.4;fill:url(#SVGID_17_);}
	.st19{fill:url(#SVGID_18_);}
	.st20{fill:url(#SVGID_19_);}
	.st21{fill:url(#SVGID_20_);}
	.st22{opacity:0.6;fill:url(#SVGID_21_);}
	.st23{opacity:0.6;fill:url(#SVGID_22_);}
	.st24{opacity:0.6;fill:url(#SVGID_23_);}
	.st25{opacity:0.6;fill:url(#SVGID_24_);}
	.st26{opacity:0.6;fill:url(#SVGID_25_);}
	.st27{opacity:0.6;fill:url(#SVGID_26_);}
	.st28{opacity:0.6;fill:url(#SVGID_27_);}
	.st29{opacity:0.6;fill:url(#SVGID_28_);}
	.st30{fill:url(#SVGID_29_);}
	.st31{fill:url(#SVGID_30_);}
	.st32{fill:#EA9001;}
	.st33{fill:#407EA7;}
	.st34{opacity:0.5;fill:#FFFFFF;}
	.st35{fill:none;stroke:#EA9001;stroke-width:2;stroke-miterlimit:10;}
	.st36{fill:#BECBCC;}
	.st37{fill:#FFFFFF;}
	.st38{fill:#979B9B;}
	.st39{fill:none;stroke:#407EA7;stroke-width:3;stroke-miterlimit:10;}
	.st40{fill:none;stroke:#407EA7;stroke-width:3.0377;stroke-miterlimit:10;}
	.st41{fill:none;stroke:#407EA7;stroke-width:2.8985;stroke-miterlimit:10;}
	.st42{fill:none;stroke:#407EA7;stroke-width:2.933;stroke-miterlimit:10;}
	.st43{fill:none;stroke:#EA9001;stroke-width:1.8227;stroke-miterlimit:10;}
	.st44{fill:#AAB2B2;}
	.st45{fill:none;stroke:#407EA7;stroke-width:3.0142;stroke-miterlimit:10;}
	.st46{fill:none;stroke:#407EA7;stroke-width:3.0512;stroke-miterlimit:10;}
	.st47{fill:#D3DDDD;}
	.st48{fill:none;stroke:#1F2B50;stroke-miterlimit:10;}
	.st49{fill:#BECBCC;stroke:#1F2B50;stroke-width:0.75;stroke-miterlimit:10;}
	.st50{fill:url(#SVGID_31_);}
	.st51{fill:none;stroke:#407EA7;stroke-width:2.8066;stroke-linecap:round;stroke-miterlimit:10;}
	.st52{fill:none;stroke:#407EA7;stroke-width:2.7511;stroke-linecap:round;stroke-miterlimit:10;}
	.st53{fill:url(#SVGID_32_);}
	.st54{fill:none;stroke:#EA9001;stroke-width:0.8;stroke-miterlimit:10;}
	.st55{fill:none;stroke:#407EA7;stroke-width:1.2;stroke-miterlimit:10;}
	.st56{fill:none;stroke:#407EA7;stroke-width:1.2151;stroke-miterlimit:10;}
	.st57{fill:none;stroke:#407EA7;stroke-width:1.1594;stroke-miterlimit:10;}
	.st58{fill:none;stroke:#407EA7;stroke-width:1.1732;stroke-miterlimit:10;}
	.st59{fill:url(#SVGID_33_);}
	.st60{fill:none;stroke:#1F2B50;stroke-width:0.4;stroke-miterlimit:10;}
	.st61{fill:#BECBCC;stroke:#1F2B50;stroke-width:0.3;stroke-miterlimit:10;}
	.st62{fill:none;stroke:#407EA7;stroke-width:1.1226;stroke-linecap:round;stroke-miterlimit:10;}
	.st63{fill:none;stroke:#407EA7;stroke-width:1.1004;stroke-linecap:round;stroke-miterlimit:10;}
	.st64{fill:url(#SVGID_34_);}
	.st65{fill:url(#SVGID_35_);}
</style>
<g id="Calque_2">
</g>
<g id="Calque_1">
	<g id="jk2zPK.tif_2_">
		<g>
			<path class="st6" d="M21.8,25.9c-1-0.1-2-0.1-3-0.2c-0.2,0-0.4-0.1-0.4-0.2c0-0.2,0-0.4,0.2-0.5c0.6-0.5,1.3-1,2-1.5
				c3.7-2.8,7.5-5.6,11.2-8.4c2.1-1.6,4.3-3.1,6.4-4.7c0,0,0.1,0,0.2-0.1c2.3,1.8,4.7,3.7,7,5.5c3.9,2.9,7.8,5.7,11.7,8.5
				c0.4,0.3,0.9,0.6,1.3,0.9c0.1,0.1,0.1,0.3,0.2,0.4c-0.1,0-0.3,0.1-0.4,0.1c-1.1,0-2.2,0-3.3,0c-0.1,0-0.1,0-0.3,0
				c0,0.2,0,0.3,0,0.5c0,3.3-0.1,6.6-0.1,9.8c0,3.6-0.1,7.3-0.2,10.9c0,0.7-0.1,1.3-0.1,2c0,0.3-0.1,0.4-0.4,0.4
				c-0.9,0-1.9,0-2.8,0.1c-5.8,0.1-11.6,0.1-17.4-0.1c-3.7-0.1-7.4,0-11.1,0c-0.1,0-0.3,0-0.4,0c-0.1,0-0.3-0.2-0.3-0.3
				c0-2.9,0.1-5.8,0-8.7c0-4.3-0.1-8.6-0.2-12.9C21.8,27,21.8,26.5,21.8,25.9z M22.4,49c0.1,0,0.2,0,0.3,0c1.1,0,2.1-0.1,3.2-0.1
				c3.6,0,7.2,0.1,10.8,0.1c4.1,0,8.2,0,12.3,0c1.5,0,3,0,4.5,0c0.4,0,0.5-0.2,0.5-0.5c0-0.6,0-1.1,0-1.7c0.1-3.9,0.1-7.8,0.2-11.8
				c0-3.1,0.1-6.3,0.1-9.4c0-0.3,0.1-0.3,0.3-0.3c0.9,0,1.9-0.1,2.8-0.1c0.1,0,0.2,0,0.4-0.1c-0.3-0.3-0.6-0.5-0.9-0.6
				c-0.9-0.6-1.8-1.2-2.6-1.8c-3-2.1-5.9-4.2-8.9-6.4c-2.3-1.7-4.6-3.5-6.8-5.3c-0.4-0.3-0.6-0.3-0.9,0c-1.3,1-2.6,1.9-4,2.8
				c-2,1.5-3.9,3-5.9,4.5c-2.9,2.2-5.8,4.3-8.7,6.5c-0.1,0.1-0.3,0.2-0.5,0.4c0.2,0,0.2,0,0.3,0c0.9,0,1.8,0.1,2.8,0.1
				c0.2,0,0.4,0.1,0.4,0.3c0,1.9,0,3.8,0,5.8c0,5.7,0.1,11.3,0.1,17C22.4,48.7,22.4,48.9,22.4,49z"/>
			<path class="st33" d="M22.4,49c0-0.2,0-0.4,0-0.5c0-5.7-0.1-11.3-0.1-17c0-1.9,0-3.8,0-5.8c0-0.3-0.1-0.3-0.4-0.3
				c-0.9,0-1.8-0.1-2.8-0.1c-0.1,0-0.1,0-0.3,0c0.2-0.2,0.3-0.3,0.5-0.4c2.9-2.2,5.8-4.3,8.7-6.5c2-1.5,3.9-3,5.9-4.5
				c1.3-1,2.6-1.9,4-2.8c0.3-0.3,0.6-0.3,0.9,0c2.3,1.8,4.5,3.6,6.8,5.3c2.9,2.2,5.9,4.3,8.9,6.4c0.9,0.6,1.7,1.2,2.6,1.8
				c0.3,0.2,0.5,0.4,0.9,0.6c-0.2,0-0.3,0.1-0.4,0.1c-0.9,0-1.9,0.1-2.8,0.1c-0.2,0-0.3,0-0.3,0.3c0,3.1,0,6.3-0.1,9.4
				c-0.1,3.9-0.1,7.8-0.2,11.8c0,0.6,0,1.1,0,1.7c0,0.4-0.1,0.5-0.5,0.5c-1.5,0-3,0-4.5,0c-4.1,0-8.2,0-12.3,0
				c-3.6,0-7.2-0.1-10.8-0.1c-1.1,0-2.1,0-3.2,0.1C22.6,49.1,22.5,49.1,22.4,49z"/>
		</g>
	</g>
	<g id="eGX3vZ.tif_2_">
		<g>
			<path class="st6" d="M50,37.8c0.2,1,0.5,1.9,0.7,2.9c0.1,0.2,0.1,0.3-0.2,0.4c-0.3,0.1-0.6,0.1-1,0.2c0,0.1,0,0.2,0,0.4
				c0,0.8,0,1.7-0.1,2.5c0,0.3-0.1,0.7-0.3,0.9c-0.2,0.4-0.7,0.3-0.9,0c-0.1-0.3-0.2-0.6-0.2-0.9c0-0.8,0.1-1.7,0.1-2.5
				c0-0.2,0-0.3-0.1-0.5c-0.1,0-0.1,0-0.2,0c0,0.1-0.1,0.3-0.1,0.4c0,0.7,0,1.4-0.1,2.1c0,0.4-0.2,0.9-0.3,1.3
				c-0.1,0.2-0.3,0.4-0.4,0.3c-0.2,0-0.4-0.2-0.5-0.3c-0.1-0.4-0.2-0.8-0.2-1.3c0-0.8,0-1.5,0.1-2.3c0-0.1,0-0.2,0-0.4
				c-0.3,0-0.6,0.1-0.9,0.1c-0.5,0.1-0.6,0-0.4-0.5c0.3-1,0.6-2,0.9-3c0.1-0.2,0-0.5-0.1-0.6c-0.5-0.9-1-1.7-1.5-2.5
				c-0.9,0.5-1.3,0.3-1.6-0.6c-0.1-0.5-0.2-1-0.2-1.6c0-0.1,0-0.3,0-0.4c0,0-0.1,0-0.1,0c0,0.3-0.1,0.7-0.1,1c0,1.5,0,3-0.1,4.5
				c-0.1,2-0.2,4-0.3,6c0,0.2,0,0.5-0.1,0.7c-0.1,0.4-0.4,0.7-0.7,0.7c-0.4,0-0.6-0.2-0.7-0.5c-0.1-0.4-0.3-0.8-0.3-1.1
				c0-1.5,0-3.1-0.1-4.7c0-0.6,0-1.2,0-1.8c0-0.1-0.1-0.2-0.2-0.3c-0.1,0.1-0.2,0.1-0.2,0.2c-0.1,0.3-0.1,0.6-0.1,0.9
				c-0.1,2-0.1,3.9-0.2,5.9c0,0.3-0.1,0.6-0.1,0.9c-0.1,0.4-0.7,0.7-1.1,0.4c-0.4-0.2-0.5-0.6-0.6-1c0-0.5,0-0.9-0.1-1.4
				c-0.1-2.5-0.2-5-0.1-7.5c0.1-1.1,0-2.1,0-3.2c-0.1,0.2-0.1,0.3-0.2,0.5c-0.2,0.6-0.3,1.3-0.5,1.9c-0.2,0.6-0.7,0.8-1.1,0.3
				c-0.5-0.6-1-1.2-1.4-1.8c-0.1-0.2-0.2-0.3-0.4-0.6c0,0.2,0,0.3,0,0.4c0.3,1.8,0.6,3.7,0.9,5.5c0,0.3,0,0.4-0.3,0.4
				c-0.3,0-0.7,0.1-1,0.1c-0.1,0.7-0.1,1.5-0.2,2.3c-0.1,0.9-0.1,1.8-0.2,2.7c0,0.3-0.1,0.6-0.2,0.9c-0.1,0.3-0.3,0.5-0.6,0.5
				c-0.3,0-0.6-0.1-0.8-0.4c-0.1-0.3-0.2-0.7-0.2-1c0-1,0-2,0-3c0-0.6,0-1.2,0-1.8c0-0.2-0.1-0.4-0.4-0.3c0,0.5-0.1,1-0.1,1.4
				c-0.1,1.2-0.2,2.4-0.3,3.6c0,0.4-0.2,0.8-0.4,1.2c-0.2,0.4-0.6,0.4-0.9,0.1c-0.4-0.4-0.6-0.8-0.6-1.4c0-1.4,0-2.8,0-4.1
				c0-0.8,0-0.8-0.7-0.8c0,0-0.1,0-0.1,0c-0.7-0.1-0.7-0.1-0.6-0.7c0.4-1.9,0.8-3.7,1.1-5.6c0,0,0-0.1,0-0.2
				c-0.4,0.5-0.8,1.1-1.2,1.5c-0.4,0.4-0.9,0.8-1.4,1.2c-0.1,0.1-0.4,0.1-0.5,0c-0.1-0.1-0.2-0.3-0.2-0.5c0-0.2,0.1-0.4,0.2-0.6
				c0.9-1.6,1.9-3.2,2.8-4.9c0.2-0.3,0.4-0.7,0.6-1c0.2-0.4,0.6-0.5,1-0.4c1,0.2,1.9,0.3,2.9,0c0.1,0,0.3,0,0.5,0.1
				c0.5,0.3,0.7,0.7,1,1.2c0.6,1.1,1.1,2.2,1.7,3.3c0-0.2,0-0.3,0-0.4c0.1-0.9,0.3-1.8,0.4-2.7c0.2-0.9,0.8-1.4,1.7-1.4
				c1.3-0.1,2.6-0.2,3.9-0.3c0.1,0,0.3,0,0.4,0c0.8,0.1,1.3,0.5,1.4,1.3c0.1,1.1,0.4,2.1,0.5,3.2c0.1,0.7,0.4,1.2,0.7,1.7
				c0.2,0.2,0.4,0.5,0.5,0.7c0.4,0.5,0.8,0.7,1.4,0.6c0.3,0,0.6,0,1,0c0.4,0,0.8,0.1,1.1,0c0.7-0.1,1,0.2,1.2,0.7
				c0.4,0.9,0.8,1.7,1.3,2.6c0.2,0.5,0.3,0.9,0.2,1.4c0,0.3-0.3,0.4-0.6,0.2c-0.2-0.2-0.4-0.4-0.5-0.7c-0.2-0.3-0.4-0.7-0.5-1
				C50.1,37.8,50.1,37.8,50,37.8z M33.4,31.3c0,0,0.1,0,0.1-0.1c0.1,0.1,0.2,0.2,0.3,0.3c0.4,0.6,0.7,1.2,1.1,1.8
				c0.3,0.5,0.7,0.9,1,1.3c0.1,0.1,0.2,0.1,0.3,0.1c0-0.1,0.1-0.2,0.1-0.3c-0.1-0.5-0.2-0.9-0.4-1.4c-0.7-1.4-1.3-2.8-2-4.2
				c-0.1-0.3-0.4-0.6-0.6-0.8c-0.1-0.1-0.4-0.2-0.6-0.2c-0.8,0.2-1.6,0.2-2.4,0c-0.6-0.1-1-0.1-1.3,0.5c-0.7,1.3-1.4,2.5-2.1,3.8
				c-0.3,0.6-0.7,1.1-1,1.7c-0.1,0.3-0.3,0.5-0.2,0.9c0.2-0.2,0.5-0.3,0.6-0.4c0.9-0.8,1.5-1.7,2.2-2.7c0.1-0.2,0.3-0.3,0.5-0.4
				c0,0.2,0.1,0.4,0.1,0.6c-0.2,1.3-0.5,2.7-0.8,4c-0.2,0.8-0.4,1.6-0.6,2.5c0.4,0,0.7,0,1,0c0.3,0,0.4,0.1,0.4,0.4
				c0,0.4,0,0.8,0,1.2c0,1.2,0,2.4,0,3.5c0,0.4,0.1,0.9,0.5,1.2c0.3,0.3,0.5,0.2,0.6-0.1c0.1-0.3,0.3-0.7,0.3-1.1
				c0.1-1.5,0.3-3.1,0.4-4.6c0-0.3,0.1-0.5,0.4-0.5c0.4,0,0.6,0.1,0.6,0.5c0,0.6,0,1.2,0,1.8c0,1.1-0.1,2.1-0.1,3.2
				c0,0.2,0,0.5,0.1,0.7c0.1,0.2,0.3,0.3,0.5,0.3c0.1,0,0.3-0.2,0.4-0.3c0.1-0.2,0.2-0.5,0.2-0.7c0.1-1.6,0.3-3.2,0.4-4.8
				c0-0.5,0.1-0.6,0.6-0.6c0.1,0,0.2,0,0.3,0c0.5,0,0.5-0.1,0.4-0.6c-0.3-1.7-0.6-3.4-1-5C33.6,32.2,33.5,31.7,33.4,31.3z
				 M36.7,34.1C36.7,34.1,36.8,34.1,36.7,34.1c0.1-0.2,0.1-0.3,0.2-0.5c0.2-0.8,0.4-1.7,0.6-2.5c0-0.1,0.2-0.2,0.2-0.3
				c0.1,0.1,0.2,0.2,0.2,0.3c0,0.5,0,1.1,0,1.6c-0.1,3.4-0.3,6.8,0,10.3c0,0.4,0,0.8,0.1,1.2c0.1,0.3,0.3,0.6,0.6,0.5
				c0.3,0,0.5-0.3,0.5-0.6c0-0.3,0.1-0.5,0.1-0.8c0.1-1.9,0.1-3.9,0.2-5.8c0-0.3,0.1-0.6,0.2-0.9c0.1-0.3,0.3-0.4,0.6-0.3
				c0.1,0.1,0.3,0.3,0.3,0.4c0.1,0.6,0.1,1.3,0.1,1.9c0,1.4,0,2.7,0,4.1c0,0.5,0.1,1,0.2,1.4c0.1,0.2,0.3,0.4,0.5,0.4
				c0.3,0,0.4-0.3,0.4-0.5c0.1-0.5,0.1-1.1,0.1-1.6c0.1-2.9,0.2-5.9,0.3-8.8c0-0.9,0.2-1.8,0.3-2.7c0-0.1,0.1-0.2,0.2-0.3
				c0.1,0.1,0.2,0.2,0.2,0.3c0.1,0.4,0.2,0.8,0.2,1.2c0.1,0.6,0.2,1.2,0.3,1.8c0.1,0.3,0.2,0.6,0.5,0.5c0.4-0.1,0.3-0.4,0.3-0.7
				c-0.1-1.1-0.1-2.2-0.3-3.3c-0.1-0.8-0.3-1.7-0.4-2.5c0-0.1-0.1-0.3-0.2-0.3c-0.3-0.1-0.7-0.3-1.1-0.3c-1.3,0-2.6,0.1-3.9,0.2
				c-0.8,0-1.3,0.5-1.5,1.3c-0.2,1-0.4,2-0.5,2.9c0,0.2-0.1,0.5,0,0.7C36.3,33.1,36.5,33.6,36.7,34.1z M46.9,45.1c0.1,0,0.2,0,0.2,0
				c0.1-0.5,0.3-0.9,0.3-1.4c0.1-0.8,0.1-1.6,0.1-2.4c0-0.3,0.1-0.5,0.4-0.5c0.4,0,0.6,0.2,0.6,0.5c0,0.4-0.1,0.8-0.1,1.2
				c0,0.7,0,1.4,0,2.1c0,0.1,0.1,0.2,0.2,0.3c0.1-0.1,0.2-0.2,0.2-0.3c0.1-0.2,0.1-0.5,0.1-0.7c0-0.9,0.1-1.8,0.1-2.7
				c0-0.3,0.1-0.5,0.5-0.5c0.2,0,0.5,0,0.8,0c-0.1-0.2-0.1-0.2-0.1-0.3c-0.2-1.1-0.4-2.3-0.7-3.4c0-0.1,0.1-0.2,0.1-0.3
				c0.1,0.1,0.2,0.1,0.3,0.2c0.3,0.5,0.7,1.1,1,1.7c0.1,0.1,0.2,0.3,0.3,0.4c0,0,0.1,0,0.1,0c0-0.3,0-0.6-0.1-0.8
				c-0.5-1.1-1-2.1-1.6-3.2c0-0.1-0.2-0.2-0.4-0.2c-0.6,0-1.1,0-1.7-0.1c-0.3,0-0.6,0-0.8,0c-0.6,0.2-1,0-1.4-0.4
				c-0.3-0.4-0.6-0.9-0.9-1.3c0-0.1-0.1-0.1-0.2-0.3c0,0.5,0,0.8,0,1.2c0,0.2,0.1,0.4,0.2,0.5c0.6,0.7,1.3,1.4,1.6,2.3
				c0.1,0.2,0.1,0.4,0.1,0.6c-0.1,0.5-0.2,1-0.4,1.5c-0.2,0.6-0.4,1.2-0.5,1.8c0.1,0,0.1,0.1,0.1,0.1c0.2,0,0.3,0,0.5-0.1
				c0.5-0.1,0.6,0,0.6,0.5c0,0.8,0,1.7,0,2.5C46.7,44.3,46.8,44.7,46.9,45.1z"/>
			<path class="st6" d="M41.9,25c0,0.2-0.1,0.6-0.2,0.9c-0.3,0.7-0.8,1.2-1.5,1.2c-0.9,0-1.5-0.4-1.8-1.1c-0.4-1,0-2.3,0.9-2.8
				c0.6-0.3,1.3-0.4,1.9,0C41.7,23.5,41.9,24.1,41.9,25z M41.5,24.8C41.5,24.8,41.5,24.8,41.5,24.8c0-0.1,0-0.2,0-0.2
				c0-0.5-0.1-1-0.7-1.3c-0.5-0.2-1-0.3-1.5,0.1c-0.7,0.5-1,1.6-0.6,2.4c0.3,0.6,0.8,0.9,1.5,0.9c0.6,0,1-0.4,1.2-1.1
				C41.4,25.4,41.5,25.1,41.5,24.8z"/>
			<path class="st6" d="M29.5,25.1c0-0.8,0.2-1.5,1-2c0.7-0.5,2-0.2,2.4,0.7c0.4,0.9,0.3,1.7-0.2,2.5c-0.5,0.7-1.1,1-2,0.8
				c-0.7-0.2-1.1-0.7-1.2-1.5C29.4,25.4,29.5,25.3,29.5,25.1z M32.8,25c-0.1-0.3-0.1-0.6-0.2-0.9c-0.3-0.7-1.3-1-2-0.6
				c-0.9,0.5-1.2,1.8-0.7,2.8c0.2,0.3,0.4,0.5,0.7,0.6c0.9,0.3,1.7,0,2-0.9C32.7,25.6,32.7,25.3,32.8,25z"/>
			<path class="st6" d="M49.4,32.7c-0.1,0.9-0.6,1.5-1.3,1.5c-0.8,0-1.4-0.8-1.3-1.7c0.1-0.6,0.5-1.2,1.1-1.4c0.3-0.1,1,0.3,1.2,0.6
				C49.2,32.1,49.3,32.4,49.4,32.7z M49,32.8c0-0.2,0-0.3-0.1-0.5c-0.1-0.5-0.4-0.7-0.8-0.7c-0.3,0-0.7,0.3-0.8,0.7
				c-0.2,0.6,0,1.3,0.6,1.5C48.4,34.1,48.9,33.6,49,32.8z"/>
			<path class="st37" d="M33.4,31.3c0.1,0.5,0.2,1,0.2,1.5c0.3,1.7,0.6,3.4,1,5c0.1,0.5,0,0.5-0.4,0.6c-0.1,0-0.2,0-0.3,0
				c-0.5,0-0.6,0-0.6,0.6c-0.1,1.6-0.2,3.2-0.4,4.8c0,0.2-0.1,0.5-0.2,0.7c-0.1,0.1-0.3,0.3-0.4,0.3c-0.2,0-0.4-0.2-0.5-0.3
				c-0.1-0.2-0.2-0.5-0.1-0.7c0-1.1,0.1-2.1,0.1-3.2c0-0.6,0-1.2,0-1.8c0-0.4-0.2-0.5-0.6-0.5c-0.4,0-0.4,0.2-0.4,0.5
				c-0.1,1.5-0.2,3.1-0.4,4.6c0,0.4-0.2,0.7-0.3,1.1c-0.1,0.3-0.3,0.4-0.6,0.1c-0.3-0.3-0.5-0.7-0.5-1.2c0-1.2,0-2.4,0-3.5
				c0-0.4,0-0.8,0-1.2c0-0.3-0.1-0.4-0.4-0.4c-0.3,0-0.6,0-1,0c0.2-0.9,0.4-1.7,0.6-2.5c0.3-1.3,0.5-2.7,0.8-4
				c0-0.2-0.1-0.4-0.1-0.6c-0.2,0.1-0.4,0.2-0.5,0.4c-0.6,1-1.3,1.9-2.2,2.7c-0.2,0.2-0.4,0.3-0.6,0.4c-0.1-0.4,0-0.7,0.2-0.9
				c0.3-0.6,0.7-1.1,1-1.7c0.7-1.2,1.5-2.5,2.1-3.8c0.3-0.6,0.7-0.7,1.3-0.5c0.8,0.2,1.6,0.2,2.4,0c0.2,0,0.5,0,0.6,0.2
				c0.2,0.2,0.4,0.5,0.6,0.8c0.7,1.4,1.4,2.8,2,4.2c0.2,0.4,0.3,0.9,0.4,1.4c0,0.1,0,0.2-0.1,0.3c-0.1,0-0.3,0-0.3-0.1
				c-0.4-0.4-0.7-0.8-1-1.3c-0.4-0.6-0.8-1.2-1.1-1.8c-0.1-0.1-0.2-0.2-0.3-0.3C33.5,31.2,33.4,31.2,33.4,31.3z"/>
			<path class="st37" d="M36.7,34.1c-0.2-0.5-0.4-1-0.6-1.5c-0.1-0.2,0-0.4,0-0.7c0.2-1,0.3-2,0.5-2.9c0.2-0.8,0.7-1.2,1.5-1.3
				c1.3-0.1,2.6-0.2,3.9-0.2c0.4,0,0.7,0.2,1.1,0.3c0.1,0,0.2,0.2,0.2,0.3c0.1,0.8,0.3,1.6,0.4,2.5c0.1,1.1,0.2,2.2,0.3,3.3
				c0,0.2,0.1,0.6-0.3,0.7c-0.3,0-0.5-0.3-0.5-0.5c-0.1-0.6-0.2-1.2-0.3-1.8c-0.1-0.4-0.1-0.8-0.2-1.2c0-0.1-0.1-0.2-0.2-0.3
				c-0.1,0.1-0.2,0.2-0.2,0.3c-0.1,0.9-0.3,1.8-0.3,2.7c-0.1,2.9-0.2,5.9-0.3,8.8c0,0.5-0.1,1.1-0.1,1.6c0,0.3-0.2,0.5-0.4,0.5
				c-0.2,0-0.4-0.2-0.5-0.4c-0.1-0.5-0.2-0.9-0.2-1.4c0-1.4,0-2.7,0-4.1c0-0.6,0-1.3-0.1-1.9c0-0.1-0.2-0.4-0.3-0.4
				c-0.2-0.1-0.5,0-0.6,0.3c-0.1,0.3-0.2,0.6-0.2,0.9c-0.1,1.9-0.1,3.9-0.2,5.8c0,0.3,0,0.5-0.1,0.8c0,0.3-0.2,0.6-0.5,0.6
				c-0.3,0-0.6-0.2-0.6-0.5c-0.1-0.4-0.1-0.8-0.1-1.2c-0.3-3.4-0.1-6.8,0-10.3c0-0.5,0-1.1,0-1.6c0-0.1-0.1-0.2-0.2-0.3
				c-0.1,0.1-0.2,0.2-0.2,0.3c-0.2,0.8-0.4,1.6-0.6,2.5C36.8,33.8,36.8,34,36.7,34.1C36.8,34.1,36.7,34.1,36.7,34.1z"/>
			<path class="st37" d="M46.9,45.1c-0.1-0.4-0.2-0.8-0.2-1.2c0-0.8,0-1.7,0-2.5c0-0.5-0.1-0.6-0.6-0.5c-0.2,0-0.3,0-0.5,0.1
				c0,0-0.1,0-0.1-0.1c0.2-0.6,0.4-1.2,0.5-1.8c0.1-0.5,0.3-1,0.4-1.5c0-0.2,0-0.4-0.1-0.6c-0.4-0.9-1-1.6-1.6-2.3
				c-0.1-0.1-0.2-0.3-0.2-0.5c0-0.4,0-0.7,0-1.2c0.1,0.1,0.1,0.2,0.2,0.3c0.3,0.4,0.6,0.9,0.9,1.3c0.4,0.4,0.8,0.6,1.4,0.4
				c0.3-0.1,0.5,0,0.8,0c0.6,0,1.1,0,1.7,0.1c0.1,0,0.3,0.1,0.4,0.2c0.5,1.1,1.1,2.1,1.6,3.2c0.1,0.2,0.1,0.5,0.1,0.8
				c0,0-0.1,0-0.1,0c-0.1-0.1-0.2-0.3-0.3-0.4c-0.3-0.6-0.6-1.1-1-1.7c-0.1-0.1-0.2-0.1-0.3-0.2c0,0.1-0.1,0.2-0.1,0.3
				c0.2,1.1,0.4,2.3,0.7,3.4c0,0.1,0,0.1,0.1,0.3c-0.3,0-0.5,0-0.8,0c-0.3,0-0.5,0.1-0.5,0.5c0,0.9,0,1.8-0.1,2.7
				c0,0.2-0.1,0.5-0.1,0.7c0,0.1-0.2,0.2-0.2,0.3c-0.1-0.1-0.2-0.2-0.2-0.3c0-0.7,0-1.4,0-2.1c0-0.4,0.1-0.8,0.1-1.2
				c0-0.4-0.2-0.5-0.6-0.5c-0.3,0-0.4,0.2-0.4,0.5c0,0.8,0,1.6-0.1,2.4c0,0.5-0.2,0.9-0.3,1.4C47,45.1,47,45.1,46.9,45.1z"/>
			<path class="st37" d="M41.5,24.8c0,0.3-0.1,0.5-0.1,0.8c-0.2,0.7-0.6,1.1-1.2,1.1c-0.7,0-1.2-0.3-1.5-0.9c-0.3-0.7,0-1.9,0.6-2.4
				c0.5-0.3,1-0.3,1.5-0.1c0.5,0.2,0.7,0.7,0.7,1.3C41.5,24.7,41.5,24.8,41.5,24.8C41.5,24.8,41.5,24.8,41.5,24.8z"/>
			<path class="st37" d="M32.8,25c-0.1,0.3-0.1,0.6-0.2,0.9c-0.3,0.9-1.1,1.2-2,0.9c-0.3-0.1-0.5-0.3-0.7-0.6
				c-0.5-1-0.1-2.3,0.7-2.8c0.7-0.4,1.7-0.1,2,0.6C32.7,24.3,32.7,24.7,32.8,25z"/>
			<path class="st37" d="M49,32.8c0,0.9-0.6,1.3-1.2,1c-0.5-0.3-0.8-0.9-0.6-1.5c0.1-0.4,0.5-0.7,0.8-0.7c0.4,0,0.7,0.3,0.8,0.7
				C48.9,32.4,48.9,32.6,49,32.8z"/>
		</g>
	</g>
	<g id="_x37_WToVs.tif_2_">
		<g>
			<path class="st6" d="M32.8,58.3c0.7,0.2,1.5,0.4,2.2,0.6c1.2,0.3,2.4,0.6,3.5,0.8c1.5,0.2,3,0.3,4.5,0.4c0.5,0,1-0.2,1.4-0.4
				c2.3-1.1,4.6-2.2,6.9-3.2c1.4-0.6,2.8-1.1,4.3-1.1c0.4,0,0.7,0.2,1.1,0.2c0.2,0,0.5,0,0.7,0c0.8-0.2,1.4,0,1.8,0.7
				c0.2,0.3,0.3,0.7,0,0.9c-0.5,0.5-1,1.1-1.6,1.5c-3.5,2.1-7,4.2-10.6,6.3c-1.3,0.7-2.6,1.3-4.1,1.5c-2.8,0.3-5.5,0.7-8.3,1
				c-2.1,0.2-4.3,0.1-6.4,0.1c-0.7,0-1.4-0.2-2.1-0.4c-1.5-0.5-2.3-0.3-3.5,1C22,69,21.3,70,20.5,71c-0.2,0.3-0.4,0.3-0.7,0.1
				c-1.4-0.8-2.6-1.9-3.7-3.1c-1.3-1.3-2.7-2.5-3.7-4c-0.5-0.7-0.5-1,0.1-1.6c1.9-2,3.8-4,5.7-5.9c1.1-1.1,2.5-1.7,4.1-1.8
				c5.1-0.3,10.1-1,15-1.9c1.3-0.2,2.5-0.4,3.8-0.6c0.9-0.1,1.2,0.2,1.2,1.1c0,0.9-0.6,1.5-1.2,2c-0.6,0.6-1.3,0.8-2.1,1
				c-1.8,0.4-3.5,0.7-5.2,1.4c-0.3,0.1-0.6,0.3-1,0.4C32.8,58.2,32.8,58.3,32.8,58.3z M37.9,53.2c-0.2,0-0.4,0.1-0.6,0.1
				c-1.8,0.3-3.6,0.6-5.4,0.8c-3.3,0.4-6.6,0.7-9.8,1c-1.4,0.1-2.6,0.6-3.6,1.6c-2,2-4,4.1-6,6.2c-0.1,0.1-0.1,0.4,0,0.5
				c0.5,0.7,1,1.4,1.6,2c0.8,0.9,1.6,1.7,2.5,2.5c1,0.9,2,1.7,3,2.6c0.3,0.2,0.5,0.2,0.8-0.1c0.6-0.9,1.2-1.8,2-2.6
				c1.3-1.5,2.3-1.8,4.1-1.2c0.6,0.2,1.2,0.4,1.8,0.4c2.2,0.1,4.4,0.1,6.6,0c2-0.1,4-0.4,6.1-0.7c0.9-0.1,1.8-0.2,2.7-0.3
				c1.4-0.2,2.6-0.9,3.8-1.6c2.6-1.5,5.3-3.1,7.9-4.7c0.4-0.2,0.8-0.5,1.1-0.7c-0.2-0.3-0.4-0.6-0.6-0.9c0,0-0.1,0.1-0.2,0.1
				c-1.4,0.8-2.9,1.6-4.3,2.3c-2.1,1.1-4.2,2.2-6.3,3.2c-0.7,0.3-1.4,0.6-2.1,0.7c-3,0.3-6,0.5-9,0.7c-0.1,0-0.3-0.1-0.4-0.1
				c0.1-0.1,0.3-0.2,0.4-0.2c3-0.3,5.9-0.5,8.9-0.8c0.7-0.1,1.4-0.3,2-0.6c2.3-1.2,4.6-2.4,6.9-3.6c0.9-0.4,1.7-0.9,2.6-1.4
				c-0.6-1-0.4-1.6,0.5-2.1c0.2-0.1,0.4-0.2,0.6-0.2c0.4,0,0.9,0,1.3,0c-0.1-0.5-0.5-0.5-0.8-0.5c-1,0.2-2.1,0.3-3.1,0.7
				c-2.6,0.9-5.1,2.1-7.5,3.4c-1,0.5-2,0.8-3.1,0.7c-1.6-0.2-3.2-0.4-4.8-0.7c-1.6-0.3-3.3-0.7-4.8-1.3c-0.2-0.1-0.3-0.2-0.5-0.4
				c0.1-0.1,0.3-0.3,0.4-0.4c1.7-0.8,3.4-1.4,5.3-1.8c1-0.2,2.1-0.4,3-1.1c0.5-0.5,1.2-1,1.1-1.8c0-0.4-0.2-0.5-0.6-0.4
				c-0.1,1-0.7,1.5-1.6,1.7c-1,0.3-1.5,0-1.7-1C37.9,53.4,37.9,53.3,37.9,53.2z M38.4,53.1c0.1,0.9,0.4,1.1,1.2,0.8
				c0.6-0.2,1-0.6,1-1.2C39.8,52.9,39.1,53,38.4,53.1z M58.7,57.2c0.4-0.4,0.4-0.6,0-1c-0.4-0.4-0.9-0.4-1.4-0.3
				c-0.1,0-0.2,0.2-0.2,0.3c-0.1,0.3-0.1,0.6-0.1,0.9C57.5,56.9,58.1,56.8,58.7,57.2z M56.5,56.9c-0.6-0.3-1.4-0.2-1.9,0.2
				c-0.5,0.4-0.2,0.8-0.1,1.3C55.2,57.9,55.8,57.4,56.5,56.9z M58.3,57.7c0-0.1,0-0.1,0-0.2c-0.2,0-0.5-0.1-0.7-0.1
				c-0.4,0.1-0.7,0.3-1.1,0.5c-0.3,0.1-0.2,0.4-0.1,0.6c0.1,0.2,0.3,0.5,0.6,0.2C57.5,58.3,57.9,58,58.3,57.7z"/>
			<path class="st32" d="M37.9,53.2c0,0.1,0.1,0.2,0.1,0.3c0.2,1,0.7,1.3,1.7,1c0.8-0.3,1.5-0.8,1.6-1.7c0.4-0.1,0.6,0,0.6,0.4
				c0,0.9-0.6,1.3-1.1,1.8c-0.8,0.7-1.9,0.9-3,1.1c-1.8,0.4-3.6,1-5.3,1.8c-0.2,0.1-0.3,0.2-0.4,0.4c0.2,0.1,0.3,0.3,0.5,0.4
				c1.5,0.6,3.2,1.1,4.8,1.3c1.6,0.3,3.2,0.5,4.8,0.7c1.1,0.1,2.1-0.2,3.1-0.7c2.4-1.3,4.9-2.5,7.5-3.4c1-0.4,2.1-0.5,3.1-0.7
				c0.3-0.1,0.7,0,0.8,0.5c-0.4,0-0.9,0-1.3,0c-0.2,0-0.4,0.1-0.6,0.2c-0.9,0.4-1.1,1-0.5,2.1c-0.9,0.5-1.7,0.9-2.6,1.4
				c-2.3,1.2-4.6,2.4-6.9,3.6c-0.6,0.3-1.3,0.5-2,0.6c-3,0.3-5.9,0.5-8.9,0.8c-0.1,0-0.3,0.2-0.4,0.2c0.1,0,0.3,0.1,0.4,0.1
				c3-0.2,6-0.4,9-0.7c0.7-0.1,1.5-0.4,2.1-0.7c2.1-1,4.2-2.1,6.3-3.2c1.4-0.8,2.9-1.6,4.3-2.3c0.1,0,0.1-0.1,0.2-0.1
				c0.2,0.3,0.4,0.6,0.6,0.9c-0.4,0.2-0.7,0.5-1.1,0.7c-2.6,1.6-5.2,3.2-7.9,4.7c-1.2,0.7-2.4,1.4-3.8,1.6c-0.9,0.1-1.8,0.2-2.7,0.3
				c-2,0.2-4,0.6-6.1,0.7c-2.2,0.1-4.4,0-6.6,0c-0.6,0-1.2-0.2-1.8-0.4c-1.8-0.7-2.8-0.3-4.1,1.2c-0.7,0.8-1.3,1.7-2,2.6
				c-0.3,0.4-0.5,0.4-0.8,0.1c-1-0.8-2.1-1.7-3-2.6c-0.9-0.8-1.7-1.6-2.5-2.5c-0.6-0.6-1.1-1.3-1.6-2c-0.1-0.1-0.1-0.4,0-0.5
				c2-2.1,4-4.1,6-6.2c1-1,2.2-1.5,3.6-1.6c3.3-0.3,6.6-0.7,9.8-1c1.8-0.2,3.6-0.6,5.4-0.8C37.4,53.3,37.6,53.2,37.9,53.2z"/>
			<path class="st37" d="M38.4,53.1c0.8-0.1,1.5-0.2,2.2-0.4c0,0.6-0.4,1-1,1.2C38.8,54.2,38.5,54,38.4,53.1z"/>
			<path class="st32" d="M58.7,57.2c-0.5-0.5-1.1-0.3-1.7-0.1c0.1-0.3,0.1-0.6,0.1-0.9c0-0.1,0.1-0.2,0.2-0.3c0.5-0.1,1-0.1,1.4,0.3
				C59.1,56.6,59.1,56.8,58.7,57.2z"/>
			<path class="st37" d="M56.5,56.9c-0.7,0.5-1.3,1-1.9,1.5c-0.1-0.5-0.4-0.9,0.1-1.3C55.1,56.7,55.9,56.6,56.5,56.9z"/>
			<path class="st37" d="M58.3,57.7c-0.4,0.3-0.9,0.7-1.3,1c-0.3,0.2-0.5,0-0.6-0.2c-0.1-0.2-0.2-0.4,0.1-0.6
				c0.3-0.2,0.7-0.4,1.1-0.5c0.2-0.1,0.5,0,0.7,0.1C58.3,57.5,58.3,57.6,58.3,57.7z"/>
		</g>
	</g>
	<g id="FuphK1.tif_4_">
		<g>
			<path class="st6" d="M21.6,10.7c-0.1,1.5,0.6,2.7,2,3.1c0.9,0.2,1.8,0.3,2.6-0.2c0.6-0.4,0.9-1,1.2-1.6c0.1-0.2,0.2-0.6,0.4-0.6
				c0.4-0.1,0.9,0,1.3,0c0.1,0,0.2,0.2,0.1,0.3c-0.6,2.4-1.8,3.8-4.1,4c-0.9,0.1-1.8,0-2.6-0.3c-1-0.4-1.7-1.1-2.1-2
				c-0.3-0.7-0.4-1.5-0.6-2.3c-0.1-0.2-0.1-0.4-0.4-0.4c-0.1,0-0.3,0-0.4,0c-0.5,0-0.6-0.1-0.6-0.6c0-0.6,0-0.7,0.7-0.7
				c0.4,0,0.6-0.2,0.5-0.6c0,0,0,0,0,0c0-0.3,0.1-0.7,0-0.9c-0.1-0.1-0.5-0.1-0.8-0.1c-0.1,0-0.1,0-0.1,0c0-0.3-0.1-0.6-0.1-0.9
				c0-0.1,0.2-0.2,0.3-0.3c0,0,0,0,0.1,0c0.3-0.1,0.7,0,0.9-0.2c0.2-0.2,0.1-0.6,0.1-0.9c0.1-1,0.4-1.9,1.1-2.6
				c1-1.2,2.2-1.7,3.7-1.6c1.8,0.1,3.2,0.8,4.2,2.3c0.3,0.5,0.5,1.1,0.5,1.7c0,0.3-0.1,0.5-0.5,0.5c-0.3,0-0.6,0-1,0
				c-0.1,0-0.3-0.1-0.3-0.3c-0.1-0.3-0.2-0.6-0.4-0.9c-0.4-0.7-0.9-1.2-1.7-1.4c-0.8-0.1-1.6-0.1-2.4,0.2c-0.9,0.4-1.7,1.8-1.7,2.9
				c0.3,0,0.6,0,0.9,0.1c0.9,0,1.9,0,2.8,0c0.5,0,0.5,0.1,0.5,0.6c0,0.1,0,0.2,0,0.2c0,0.3-0.2,0.5-0.5,0.5c-1,0-2.1,0-3.1,0
				c-0.2,0-0.3,0-0.5,0c0,0.5,0,0.9,0,1.4c0,0.1,0.2,0.2,0.3,0.2c1.1,0,2.1,0.1,3.2,0.1c0.9,0,0.8,0,0.7,0.8c0,0.4-0.1,0.5-0.5,0.5
				c-1.2,0-2.3,0-3.5,0C21.7,10.7,21.6,10.7,21.6,10.7z M25.3,6.7c-0.4,0-0.8,0-1.2,0c-0.9,0-1.7,0-2.6,0c-0.2,0-0.3-0.1-0.3-0.3
				c0-0.1,0-0.3,0-0.4c0.3-2.3,2-3.4,4.3-3c0.5,0.1,1,0.3,1.4,0.7c0.5,0.5,0.7,1,0.9,1.6c0,0.1,0.2,0.3,0.3,0.3c0.3,0,0.6-0.1,1-0.1
				c-0.3-0.6-0.4-1.2-0.7-1.7c-1.1-1.6-2.7-2.2-4.6-2.1c-1.5,0.1-2.6,0.9-3.2,2.3c-0.3,0.7-0.4,1.4-0.6,2.1
				c-0.1,0.6-0.1,0.6-0.7,0.7c-0.5,0.1-0.6,0.1-0.4,0.7c0.3,0,0.5,0,0.8,0c0.3,0,0.4,0.1,0.4,0.4c0,0.3,0,0.6,0,0.9
				c0,0.9,0,0.9-0.9,1c-0.2,0-0.4,0-0.4,0.3c0,0.3,0.1,0.4,0.4,0.4c0.2,0,0.3,0,0.5,0c0.2,0,0.4,0.1,0.4,0.3
				c0.1,0.6,0.2,1.2,0.4,1.7c0.4,1.3,1.1,2.3,2.5,2.7c1.4,0.5,2.8,0.3,4.1-0.4c1.2-0.7,1.6-1.9,2-3.1c-0.2,0-0.4,0-0.5,0
				c-0.4-0.1-0.6,0.1-0.8,0.5c-0.3,0.8-0.7,1.4-1.5,1.8c-0.6,0.3-1.3,0.3-2,0.2c-1.1-0.1-2.1-0.6-2.5-1.7c-0.2-0.6-0.2-1.2-0.3-1.9
				c0-0.1,0.2-0.2,0.3-0.2c1.1,0,2.2,0,3.3-0.1c0.6,0,0.6,0,0.5-0.7c-0.1,0-0.3,0-0.4,0c-1.1-0.1-2.3-0.1-3.4-0.2
				c-0.3,0-0.4-0.1-0.4-0.4c0-0.4,0-0.8,0-1.2c0-0.4,0.1-0.5,0.5-0.5c1,0,2,0,3.1,0C25.4,7.5,25.4,7.4,25.3,6.7z"/>
			<path class="st32" d="M25.3,6.7c0.1,0.7,0.1,0.8-0.6,0.8c-1,0-2,0-3.1,0c-0.4,0-0.5,0.1-0.5,0.5c0,0.4,0,0.8,0,1.2
				c0,0.3,0.1,0.4,0.4,0.4c1.2,0,2.3,0.1,3.4,0.2c0.2,0,0.3,0,0.4,0c0,0.6,0,0.6-0.5,0.7c-1.1,0-2.2,0-3.3,0.1
				c-0.1,0-0.3,0.1-0.3,0.2c0.1,0.6,0.1,1.3,0.3,1.9c0.4,1.2,1.4,1.6,2.5,1.7c0.7,0.1,1.3,0.1,2-0.2c0.8-0.4,1.2-1.1,1.5-1.8
				c0.2-0.4,0.4-0.6,0.8-0.5c0.1,0,0.3,0,0.5,0c-0.4,1.3-0.8,2.5-2,3.1c-1.3,0.7-2.7,0.9-4.1,0.4c-1.4-0.4-2.1-1.4-2.5-2.7
				c-0.2-0.6-0.3-1.2-0.4-1.7c0-0.3-0.2-0.4-0.4-0.3c-0.2,0-0.3,0-0.5,0c-0.3,0-0.4-0.1-0.4-0.4c0-0.3,0.2-0.3,0.4-0.3
				C20,9.6,20,9.6,20,8.7c0-0.3,0-0.6,0-0.9c0-0.3-0.1-0.4-0.4-0.4c-0.3,0-0.5,0-0.8,0c-0.2-0.5-0.1-0.6,0.4-0.7
				c0.7-0.1,0.6-0.1,0.7-0.7c0.2-0.7,0.3-1.4,0.6-2.1c0.6-1.4,1.7-2.2,3.2-2.3c1.9-0.2,3.5,0.4,4.6,2.1c0.3,0.5,0.5,1.1,0.7,1.7
				c-0.4,0.1-0.7,0.1-1,0.1c-0.1,0-0.2-0.2-0.3-0.3c-0.2-0.6-0.5-1.2-0.9-1.6c-0.4-0.4-0.9-0.6-1.4-0.7c-2.3-0.4-4,0.7-4.3,3
				c0,0.1,0,0.3,0,0.4c0,0.2,0.1,0.3,0.3,0.3c0.9,0,1.7,0,2.6,0C24.5,6.7,24.9,6.7,25.3,6.7z"/>
		</g>
	</g>
</g>
<g id="Calque_3">
</g>
</svg>
