<?xml version="1.0" encoding="utf-8"?>
<!-- Generator: Adobe Illustrator 23.0.1, SVG Export Plug-In . SVG Version: 6.00 Build 0)  -->
<svg version="1.1" xmlns="http://www.w3.org/2000/svg" x="0px" y="0px"
     viewBox="0 0 72 72" style="enable-background:new 0 0 72 72;" xml:space="preserve">
<style type="text/css">
	.st0{opacity:0.4;fill:url(#SVGID_1_);}
	.st1{opacity:0.6;fill:url(#SVGID_2_);}
	.st2{opacity:0.6;fill:url(#SVGID_3_);}
	.st3{opacity:0.6;fill:url(#SVGID_4_);}
	.st4{opacity:0.6;fill:url(#SVGID_5_);}
	.st5{opacity:0.6;fill:url(#SVGID_6_);}
	.st6{fill:#1F2B50;}
	.st7{fill:none;stroke:#1F2B50;stroke-width:3;stroke-miterlimit:10;}
	.st8{opacity:0.4;fill:url(#SVGID_7_);}
	.st9{opacity:0.4;fill:url(#SVGID_8_);}
	.st10{opacity:0.6;fill:url(#SVGID_9_);}
	.st11{opacity:0.6;fill:url(#SVGID_10_);}
	.st12{opacity:0.4;fill:url(#SVGID_11_);}
	.st13{opacity:0.4;fill:url(#SVGID_12_);}
	.st14{opacity:0.4;fill:url(#SVGID_13_);}
	.st15{opacity:0.4;fill:url(#SVGID_14_);}
	.st16{opacity:0.4;fill:url(#SVGID_15_);}
	.st17{opacity:0.4;fill:url(#SVGID_16_);}
	.st18{opacity:0.4;fill:url(#SVGID_17_);}
	.st19{fill:url(#SVGID_18_);}
	.st20{fill:url(#SVGID_19_);}
	.st21{fill:url(#SVGID_20_);}
	.st22{opacity:0.6;fill:url(#SVGID_21_);}
	.st23{opacity:0.6;fill:url(#SVGID_22_);}
	.st24{opacity:0.6;fill:url(#SVGID_23_);}
	.st25{opacity:0.6;fill:url(#SVGID_24_);}
	.st26{opacity:0.6;fill:url(#SVGID_25_);}
	.st27{opacity:0.6;fill:url(#SVGID_26_);}
	.st28{opacity:0.6;fill:url(#SVGID_27_);}
	.st29{opacity:0.6;fill:url(#SVGID_28_);}
	.st30{fill:url(#SVGID_29_);}
	.st31{fill:url(#SVGID_30_);}
	.st32{fill:#EA9001;}
	.st33{fill:#407EA7;}
	.st34{opacity:0.5;fill:#FFFFFF;}
	.st35{fill:none;stroke:#EA9001;stroke-width:2;stroke-miterlimit:10;}
	.st36{fill:#BECBCC;}
	.st37{fill:#FFFFFF;}
	.st38{fill:#979B9B;}
	.st39{fill:none;stroke:#407EA7;stroke-width:3;stroke-miterlimit:10;}
	.st40{fill:none;stroke:#407EA7;stroke-width:3.0377;stroke-miterlimit:10;}
	.st41{fill:none;stroke:#407EA7;stroke-width:2.8985;stroke-miterlimit:10;}
	.st42{fill:none;stroke:#407EA7;stroke-width:2.933;stroke-miterlimit:10;}
	.st43{fill:none;stroke:#EA9001;stroke-width:1.8227;stroke-miterlimit:10;}
	.st44{fill:#AAB2B2;}
	.st45{fill:none;stroke:#407EA7;stroke-width:3.0142;stroke-miterlimit:10;}
	.st46{fill:none;stroke:#407EA7;stroke-width:3.0512;stroke-miterlimit:10;}
	.st47{fill:#D3DDDD;}
	.st48{fill:none;stroke:#1F2B50;stroke-miterlimit:10;}
	.st49{fill:#BECBCC;stroke:#1F2B50;stroke-width:0.75;stroke-miterlimit:10;}
	.st50{fill:url(#SVGID_31_);}
	.st51{fill:none;stroke:#407EA7;stroke-width:2.8066;stroke-linecap:round;stroke-miterlimit:10;}
	.st52{fill:none;stroke:#407EA7;stroke-width:2.7511;stroke-linecap:round;stroke-miterlimit:10;}
	.st53{fill:url(#SVGID_32_);}
	.st54{fill:none;stroke:#EA9001;stroke-width:0.8;stroke-miterlimit:10;}
	.st55{fill:none;stroke:#407EA7;stroke-width:1.2;stroke-miterlimit:10;}
	.st56{fill:none;stroke:#407EA7;stroke-width:1.2151;stroke-miterlimit:10;}
	.st57{fill:none;stroke:#407EA7;stroke-width:1.1594;stroke-miterlimit:10;}
	.st58{fill:none;stroke:#407EA7;stroke-width:1.1732;stroke-miterlimit:10;}
	.st59{fill:url(#SVGID_33_);}
	.st60{fill:none;stroke:#1F2B50;stroke-width:0.4;stroke-miterlimit:10;}
	.st61{fill:#BECBCC;stroke:#1F2B50;stroke-width:0.3;stroke-miterlimit:10;}
	.st62{fill:none;stroke:#407EA7;stroke-width:1.1226;stroke-linecap:round;stroke-miterlimit:10;}
	.st63{fill:none;stroke:#407EA7;stroke-width:1.1004;stroke-linecap:round;stroke-miterlimit:10;}
	.st64{fill:url(#SVGID_34_);}
	.st65{fill:url(#SVGID_35_);}
</style>
<g id="Calque_2">
</g>
<g id="Calque_1">
	<g id="cJwqMS.tif_2_">
		<g>
			<path class="st6" d="M46.3,34.2c-0.1,0.1-0.3,0.2-0.3,0.4c-0.7,5-0.4,9.9,1.3,14.7c0.1,0.3,0.2,0.4,0.5,0.4c1,0,2.1,0,3.1,0.1
				c1,0.1,1.9,0.6,2.7,1.2c0.1,0.1,0.2,0.2,0.3,0.3c1.6,0.7,2.4,2.2,3.3,3.5C58,56,58,57.4,58,58.9c0,0.2-0.3,0.5-0.5,0.7
				c-1.5,1.3-3.1,2.5-4.5,3.9c-2.2,2-4.3,4.1-6.4,6.2c-0.1,0.1-0.2,0.2-0.3,0.3c-0.3,0.3-0.5,0.2-0.8-0.1c-1-1.2-2-2.5-3.2-3.5
				c-1.2-1.1-2.8-1.4-4.4-1.1c-2.8,0.6-5.2,1.9-7.2,3.9c-0.4,0.4-0.8,0.9-1.2,1.3c-0.2,0.2-0.4,0.2-0.5-0.1
				c-1.2-1.9-2.4-3.8-3.7-5.6c-1-1.3-1.8-2.8-3.1-3.8c-0.4-0.3-0.8-0.4-1.2-0.2c-0.5,0.2-0.9,0.3-1.4,0.5c-2.1,1-4.2,2-6.3,3
				c-0.3,0.2-0.8,0.5-1.1,0.1c-0.3-0.4,0.2-0.7,0.5-0.9c0.4-0.4,0.8-0.8,1.3-1.2c1.2-1.1,2.2-2.3,3.1-3.6c1.3-2,2.5-4.1,4.2-5.9
				c1-1,0.9-1.1,2.3-1.5c-0.2-0.1-0.3-0.2-0.4-0.3c-1.3-0.7-2.5-1.5-3.5-2.6c-1.4-1.6-2.7-3.2-3.6-5.1c-0.5-1.1-0.7-2.3-0.6-3.5
				c0.1-1.3,0.3-2.5,0.4-3.8c0.1-2,0-3.9-0.5-5.8c-0.8-3-1.3-6-1-9.1c0.2-2.5,0.8-4.9,1.8-7.2c1.3-3.1,3.4-5.5,5.8-7.6
				c1.7-1.5,3.6-2.6,5.6-3.4C29.6,1.9,31.8,2,34,2.2c2.4,0.3,4.6,1.1,6.8,1.9c0.3,0.1,0.5,0.1,0.7-0.1c0.2-0.2,0.5-0.4,0.8-0.4
				c0.5,0,0.8-0.2,1.2-0.5c1.7-1.5,3.7-1.8,6-1.4C51.5,2,53.3,2.5,55,3.2c3.2,1.3,4.8,3.8,5.3,7.1c0.5,3.6-0.3,6.9-1.9,10.1
				c-1,2.1-2.2,4.1-3.3,6.1c-1.3,2.5-2.6,4.9-3,7.7C52,35.2,52,36.2,52,37.1c0,0.9,0.4,1.7,1,2.3c0.1,0.1,0.1,0.3,0.2,0.4
				c-0.1,0.1-0.3,0.2-0.4,0.2c-2.5-0.2-4.4-1.5-5.6-3.7C46.8,35.7,46.6,35,46.3,34.2z M21.1,49.1c0.4-0.1,0.9-0.2,1.3-0.2
				c1.9,0,3.9,0.1,5.7-0.4c3.8-0.9,7.4-2.4,10.6-4.5c0.4-0.3,0.7-0.6,1.1-1c-0.3-0.3-0.6-0.6-0.8-0.9c-0.3-0.5-0.6-0.4-1.1-0.1
				c-0.7,0.5-1.4,1-2.1,1.3c-2.8,1.3-5.7,2.2-8.7,2.9c-2.5,0.6-5,0.4-7.5-0.2c-0.5-0.1-1.1-0.3-1.6-0.5c0,0-0.1,0.1-0.1,0.1
				c0.6,0.7,1.2,1.4,1.8,2.1C20.3,48.3,20.7,48.7,21.1,49.1c0.1,0.1,0.2,0.2,0.4,0.3c1.2,0.7,2.3,1.4,3.5,2c1,0.5,2.1,0.7,3.2,0.7
				c1.7,0,3.2-0.5,4.7-1c0.8-0.3,1.5-0.6,2.2-1c2.3-1.5,4.2-3.4,5.9-5.5c0.1-0.2,0.2-0.3,0.4-0.5c-0.4-0.3-0.8-0.5-1.2-0.8
				c-0.5,0.4-1,0.9-1.6,1.2c-2.2,1.4-4.6,2.4-7,3.3c-2.6,0.9-5.2,1.6-8,1.4C22.8,49.1,21.9,49.1,21.1,49.1z M20.5,33.5
				c0.2,0,0.4,0,0.5,0c3-0.1,6-0.2,9-0.4c2.8-0.2,5.6-0.5,8.2-1.6c0.3-0.1,0.6-0.3,0.8-0.6c1-1.2,1.9-2.5,2.9-3.7
				c0.3-0.3,0.3-0.6,0.3-1c-0.2-1.8-0.9-3.5-1.7-5.1c-0.9-1.7-2-3.3-3.5-4.6c-1.5-1.3-3.2-2.3-5-3.2c-0.3-0.1-0.6-0.2-0.8-0.3
				C31,13,31,13,31,13.1c0,0.2,0,0.3,0,0.5c0,1.5-0.5,2.7-1.5,3.7c-0.1,0.1-0.3,0.1-0.5,0.2c0-0.2-0.1-0.3-0.1-0.5
				c0-0.5,0.1-1,0-1.5c-0.1-1.6-1.5-2.9-2.9-3c-3.5-0.3-6.6,0.9-9.2,3.2c-0.9,0.8-1.5,1.8-1.8,3c-0.4,2-0.4,3.9-0.3,5.9
				c0,0.6,0.1,1.2,0.2,1.8c0.3-0.3,0.5-0.4,0.7-0.6c0.8-0.6,1.7-0.9,2.7-0.6c0.2,0.1,0.5,0.1,0.4,0.6c-1.3-0.4-2.4,0-3.3,0.9
				c-0.2,0.3-0.3,0.5-0.3,0.9c0.3,1.3,0.6,2.7,0.8,4c0.1,0.5,0.1,1,0.1,1.6c1.1,0.1,2.2,0.1,3.3,0.2c0.4,0,0.5-0.1,0.6-0.4
				c0.1-0.8,0.3-1.7,0.4-2.5c0-0.3,0-0.6,0-0.8c-0.1,0-0.1,0-0.1,0c-0.1,0-0.1,0.1-0.2,0.1c-1.1,0.8-2.2,0.7-3.3,0.3
				c-0.6-0.2-1.1-0.7-1.1-1.3c0-0.6,0.6-0.9,1.1-1.1c1.7-0.7,4.6,0.3,4.1,3.1C20.7,31.6,20.6,32.5,20.5,33.5z M15.8,16.1
				c0.1-0.1,0.1-0.1,0.2-0.2c1.3-1.5,2.9-2.5,4.7-3.3c1.6-0.7,3.3-0.8,5-0.8c1.8,0,3.3,1.2,3.7,3c0.1,0.4,0.1,0.9,0.2,1.4
				c0.1,0,0.1,0,0.1,0c0,0,0.1-0.1,0.1-0.1c0.7-0.9,0.7-2,0.7-3.2c0-0.6,0-0.7,0.7-0.6c1.7,0.5,3.1,1.5,4.6,2.5
				c0.8,0.5,1.6,1.1,2.2,1.8c0.9,1,1.6,2,2.4,3.1c1.2,1.8,2.2,3.8,2.4,6c0,0.1,0.1,0.2,0.1,0.3c0.8-0.6,1.7-1.2,2.4-1.9
				c1-1,2-1.2,3.3-0.9c0.1-0.5,0.3-0.9,0.4-1.4c0.2-0.9,0.5-1.9,0.6-2.8c0.1-2.4-0.3-4.7-1.2-6.9c-0.4-1-0.9-2.1-1.5-3
				c-0.7-1-1.5-2-2.6-2.6c-0.5-0.3-1.1-0.6-1.6-1c-2.4-1.4-5.1-2.1-7.8-2.7c-4-0.9-7.6,0.1-10.9,2.5C22.7,6.1,21.6,7,20.7,8
				c-1,1.1-2,2.2-2.9,3.4C16.8,12.8,16.3,14.5,15.8,16.1z M45.1,37.3c0,0-0.1,0.2-0.1,0.3c-0.4,0.9-0.7,1.8-1.1,2.7
				c-0.4,0.9-0.9,1.7-1.4,2.5c-0.5,0.8-0.9,1.7-1.5,2.4c-0.8,1-1.7,1.9-2.6,2.8c-1.6,1.4-3.2,2.8-5.3,3.5c-1.7,0.5-3.4,1.1-5.3,0.9
				c-0.8-0.1-1.5-0.2-2.3-0.4c0.1,0.5,0.3,1,0.3,1.5c0.3,2.2,0.1,4.5-0.4,6.7c-0.1,0.3,0,0.6,0.1,0.8c0.6,1.3,1.4,2.7,2,4
				c0.6,1.3,1.2,2.6,1.8,4c0.1,0.1,0.1,0.3,0.2,0.4c0.6-0.9,1.1-1.9,1.8-2.8c1.1-1.3,2.4-2.5,3.9-3.4c1.9-1.1,3.9-2.2,5.8-3.3
				c1.9-1.1,3.8-2.1,5.8-3.2c1-0.6,1.9-1.3,2.4-2.4c0.4-0.9,0.2-1.6-0.6-2.1c-0.3-0.2-0.7-0.5-0.8-0.9c-1.3-2.8-2-5.7-2.3-8.7
				C45.2,40.9,45.2,39,45.1,37.3z M43.7,3.7C43.7,3.8,43.7,3.8,43.7,3.7c0.2,0.1,0.3,0.2,0.4,0.2c1.2,0.5,2.1,1.3,2.2,2.6
				c0.1,1,0.5,1.7,1,2.5c1.2,1.9,2,3.8,2.4,6c0.3,1.8,0.5,3.5,0.1,5.3c-0.2,1-0.5,2-0.7,3c0,0.2,0,0.4,0,0.6
				c0.2,0.7,0.4,1.4,0.5,2.2c0.1,1.6-0.3,3.1-0.7,4.6c-0.3,1-0.8,2-1.6,2.8c-0.3,0.3-0.5,0.5-0.3,1.1c0.6,2,1.8,3.4,3.6,4.4
				c0.5,0.3,1.1,0.4,1.6,0.6c-0.3-0.8-0.6-1.5-0.7-2.3c-0.1-1,0-2.1,0.2-3.1c0.4-2.8,1.7-5.4,3.1-7.8c1.1-2.1,2.3-4.1,3.3-6.2
				c1.4-3,2.3-6.2,1.8-9.6c-0.5-3.2-2-5.5-5-6.8c-1.7-0.7-3.5-1.2-5.3-1.5c-1.9-0.3-3.7-0.1-5.3,1.1C44,3.4,43.9,3.6,43.7,3.7z
				 M47.5,50c0.5,0.8,0.5,1.8,1.5,2.2c0.1,0,0.2,0.2,0.3,0.2c0.6,0.7,0.6,1.6,0.1,2.4c-0.7,1.3-1.9,2.2-3.2,2.9
				c-2.8,1.6-5.7,3.1-8.6,4.7c-2.2,1.2-4.3,2.5-5.9,4.4c-0.6,0.6-1,1.3-1.5,2c0,0,0.1,0.1,0.1,0.1c0.1-0.1,0.1-0.1,0.2-0.2
				c2.1-2,4.5-3.4,7.3-3.9c2.1-0.4,4.1,0.1,5.6,1.8c0.9,1,1.8,1.9,2.7,2.9c0.2-0.3,0.5-0.6,0.8-0.8c0.5-0.5,1-1.1,1.5-1.5
				c3-2.6,5.6-5.6,8.8-7.9c0.2-0.1,0.3-0.5,0.3-0.7c0-1.7-0.4-3.2-1.5-4.5c-0.7-0.9-1.3-1.8-2.4-2.3c-0.1-0.1-0.3-0.2-0.4-0.3
				C51.7,49.9,49.6,49.9,47.5,50z M37.1,38.5c-0.5,0.2-1,0.5-1.4,0.7c-1.6,0.5-3.2,1-4.8,1.4c-3.1,0.8-6.1,1.7-9.3,1
				c-1.7-0.3-3.4-0.6-5-1.4c-0.2-0.1-0.4-0.1-0.8-0.2c0.1,0.5,0,1,0.2,1.4c0.3,0.9,0.7,1.8,1.1,2.7c0.3,0.8,0.8,1.3,1.8,1.5
				c1.6,0.3,3.1,0.7,4.7,0.7c0.8,0,1.6,0.1,2.4-0.1c2.7-0.5,5.3-1.4,7.9-2.2c1.7-0.6,3.3-1.5,4.7-2.6C38,40.4,37.6,39.5,37.1,38.5z
				 M16.1,36.1c-0.1,1.2-0.2,2.2-0.3,3.3c0,0.1,0.1,0.2,0.2,0.3c0.9,0.3,1.7,0.7,2.6,1c3.2,0.8,6.5,1.1,9.8,0.2
				c2.5-0.7,5-1.3,7.5-2.1c1.2-0.4,1.1-0.5,0.8-1.6c-0.2-0.7-0.4-1.4-0.5-2.1c-3.3,1-6.6,1.5-9.9,1.7C22.8,36.8,19.5,36.9,16.1,36.1
				z M42.5,28.8c0,0-0.1,0-0.1,0c-0.1,0.1-0.2,0.3-0.3,0.4c-1.1,1.3-2.1,2.8-3.5,3.9c-0.2,0.1-0.3,0.5-0.3,0.7
				c0.1,0.9,0.3,1.9,0.5,2.8c0.3,1.5,1.2,2.8,2.2,3.9c0.3,0.3,0.6,0.5,1,0.9c1.1-2.2,2.2-4.3,2.7-6.6c0,0-0.1-0.1-0.2-0.1
				c-1-0.2-1.4-1-1.6-1.8c0-0.1,0.1-0.3,0.1-0.4c0.1,0.1,0.3,0.1,0.3,0.2c0.1,0.2,0.2,0.4,0.2,0.6c0.3,0.7,0.9,1,1.7,0.8
				c0.9-0.3,1.6-0.8,2.1-1.7c0.8-1.3,1.2-2.8,1.5-4.4c0.2-1.2,0.3-2.4-0.2-3.6c-0.2-0.5-0.7-0.8-1.2-0.8c-1.1-0.1-2.1,0.6-2.4,1.6
				c-0.3,1-0.6,2-0.9,3c-0.2,0.8-0.7,1.4-1.4,1.8c-0.1,0.1-0.3,0.1-0.4,0c-0.1-0.1-0.1-0.2-0.1-0.4C42.4,29.4,42.5,29.1,42.5,28.8z
				 M13.2,63.6c0,0,0,0.1,0.1,0.1c0.2-0.1,0.3-0.1,0.5-0.2c1.8-0.9,3.7-1.8,5.5-2.6c0.6-0.3,1.3-0.5,1.9-0.6c0.3-0.1,0.7,0,0.9,0.2
				c0.5,0.3,1,0.7,1.4,1.2c1,1.3,1.8,2.6,2.7,3.9c0.6,0.9,1.2,1.7,1.8,2.6c0,0,0.1,0,0.1-0.1c-0.1-0.3-0.2-0.7-0.4-1
				c-1.2-2-1.8-4.2-3.1-6.1c-0.2-0.2-0.3-0.5,0.1-0.7c0.1,0,0.1-0.2,0.2-0.3c0.3-1.7,0.6-3.4,0.4-5.1c-0.1-0.9-0.3-1.7-0.4-2.6
				c0-0.1-0.2-0.4-0.3-0.4c-0.8-0.1-1.7-0.3-2.4,0.5c-0.9,1-1.7,2-2.5,3c-0.9,1.3-1.8,2.7-2.7,4c-0.9,1.3-1.9,2.5-3.1,3.5
				C13.7,63,13.5,63.3,13.2,63.6z M38,32.1c-7.2,1.8-14.5,2-21.9,1.4c0.1,0.7,0.1,1.5,0.2,2.3c0.7,0.1,1.5,0.3,2.2,0.3
				c2.3,0.1,4.6,0.1,6.8,0.1c3.1,0,6.2-0.5,9.2-1.3c1-0.3,1.9-0.7,2.9-1c0.1-0.1,0.3-0.2,0.3-0.3C37.9,33.1,37.9,32.6,38,32.1z
				 M36.4,34.8c0.4,1.1,0.7,2.2,1.1,3.3c0.7,1.7,1.5,3.4,2.9,4.6c0.3,0.3,0.7,0.5,1.1,0.8c0.1-0.3,0.2-0.4,0.3-0.6
				c0.4-0.8,0.4-0.9-0.3-1.5c-1.8-1.4-2.9-3.3-3.4-5.5c-0.1-0.6-0.3-1.2-0.4-1.8C37.3,34.4,36.9,34.6,36.4,34.8z M38.3,32.5
				c0.1,0,0.2,0.1,0.3,0.1c0.6-0.6,1.1-1.1,1.7-1.7c1.2-1.5,2.3-3.1,3.7-4.4c0.3-0.3,0.5-0.8,0.7-1.2c-0.1,0-0.1-0.1-0.2-0.1
				c-1,0.8-1.9,1.8-2.8,2.8c-1,1.2-2,2.4-3,3.6C38.4,31.9,38.4,32.2,38.3,32.5z M41.8,4.5c1.4,0.9,2.8,1.8,4.1,2.6
				c0-0.9-0.4-1.7-1.2-2.3C43.8,4.2,42.9,4.1,41.8,4.5z M45.1,34.6c-0.1,0.3-0.1,0.6-0.2,0.8c-0.5,2-1.5,3.8-2.5,5.6
				c-0.3,0.5-0.3,0.5,0.3,0.7c1.2-2.3,2.2-4.7,2.9-7.3C45.4,34.6,45.2,34.6,45.1,34.6z M18.5,28.9c0-0.1,0-0.3-0.1-0.4
				c-0.1-0.3-0.1-0.6-0.5-0.5c-0.3,0-0.6,0.2-0.6,0.6c0,0.1,0,0.2,0,0.3c0,0.4,0.2,0.8,0.7,0.8C18.6,29.7,18.5,29.2,18.5,28.9z
				 M43,29.3c0.5-0.3,1-1.6,0.9-2.3C43.2,27.6,42.7,28.3,43,29.3z M19.1,29.6c0.5-0.1,0.8-0.4,0.9-0.8c0.1-0.3-0.6-0.7-1.1-0.7
				C19,28.6,19.1,29.1,19.1,29.6z M16.8,29.4c0,0,0.1-0.1,0.1-0.1c0-0.4,0-0.8,0-1.2c0,0-0.1-0.1-0.1-0.1c-0.2,0.2-0.5,0.5-0.5,0.7
				C16.2,29,16.6,29.2,16.8,29.4z"/>
			<path class="st32" d="M20.5,33.5c0.1-1,0.3-1.9,0.4-2.8c0.5-2.9-2.4-3.9-4.1-3.1c-0.5,0.2-1.1,0.5-1.1,1.1c0,0.6,0.5,1,1.1,1.3
				c1.2,0.5,2.3,0.5,3.3-0.3c0.1,0,0.1-0.1,0.2-0.1c0,0,0,0,0.1,0c0,0.3,0,0.6,0,0.8c-0.1,0.9-0.3,1.7-0.4,2.5
				c0,0.3-0.2,0.5-0.6,0.4c-1.1-0.1-2.2-0.1-3.3-0.2c0-0.6,0-1.1-0.1-1.6c-0.2-1.4-0.5-2.7-0.8-4c-0.1-0.4,0-0.6,0.3-0.9
				c0.9-1,2-1.3,3.3-0.9c0.1-0.4-0.2-0.5-0.4-0.6c-1-0.3-1.9,0-2.7,0.6c-0.2,0.2-0.4,0.4-0.7,0.6c-0.1-0.7-0.2-1.3-0.2-1.8
				c-0.1-2-0.1-4,0.3-5.9c0.2-1.2,0.9-2.2,1.8-3c2.6-2.4,5.7-3.5,9.2-3.2c1.5,0.1,2.8,1.4,2.9,3c0,0.5,0,1,0,1.5
				c0,0.2,0.1,0.3,0.1,0.5c0.2-0.1,0.4-0.1,0.5-0.2c1-1,1.5-2.3,1.5-3.7c0-0.2,0-0.3,0-0.5c0,0,0-0.1,0.1-0.2
				c0.3,0.1,0.6,0.2,0.8,0.3c1.8,0.9,3.5,1.9,5,3.2c1.5,1.3,2.6,2.9,3.5,4.6c0.9,1.6,1.6,3.2,1.7,5.1c0,0.4,0,0.7-0.3,1
				c-1,1.2-1.9,2.5-2.9,3.7c-0.2,0.2-0.5,0.4-0.8,0.6c-2.6,1.1-5.4,1.4-8.2,1.6c-3,0.2-6,0.3-9,0.4C20.8,33.5,20.7,33.5,20.5,33.5z
				 M29.5,30c1.4,0,2.5-0.4,3.2-1.1c0.3-0.3,0.3-0.6,0-0.8c-0.3-0.2-0.6-0.4-0.9-0.6c-1.6-0.9-3.7-0.5-4.9,0.8
				c-0.2,0.3-0.2,0.5,0.1,0.7C27.9,29.5,28.8,29.9,29.5,30z M33.5,25.4c-0.1-0.1-0.1-0.2-0.2-0.3c-0.3-0.3-0.6-0.6-1-0.8
				c-2.1-1-4.1-0.7-6,0.4c-0.2,0.1-0.3,0.4-0.5,0.6c0.2-0.1,0.5-0.1,0.7-0.2c1.6-0.9,3.4-1.2,5.1-0.5c0.4,0.2,0.8,0.5,1.2,0.8
				c0.1,0.1,0.3,0.1,0.4,0.2C33.4,25.5,33.4,25.4,33.5,25.4z"/>
			<path class="st6" d="M15.8,16.1c0.5-1.7,1.1-3.3,2-4.7c0.9-1.2,1.8-2.4,2.9-3.4c0.9-1,2-1.9,3.1-2.7c3.3-2.4,6.9-3.4,10.9-2.5
				c2.7,0.6,5.4,1.3,7.8,2.7c0.5,0.3,1.1,0.6,1.6,1c1.1,0.6,1.9,1.6,2.6,2.6c0.6,0.9,1.1,1.9,1.5,3c0.9,2.2,1.3,4.5,1.2,6.9
				c0,0.9-0.3,1.9-0.6,2.8c-0.1,0.5-0.3,1-0.4,1.4c-1.3-0.4-2.4-0.1-3.3,0.9c-0.7,0.7-1.6,1.3-2.4,1.9c0-0.1-0.1-0.2-0.1-0.3
				c-0.3-2.2-1.2-4.2-2.4-6c-0.7-1.1-1.5-2.1-2.4-3.1c-0.6-0.7-1.4-1.3-2.2-1.8c-1.5-0.9-2.9-2-4.6-2.5c-0.6-0.2-0.7-0.1-0.7,0.6
				c0.1,1.1,0.1,2.2-0.7,3.2c0,0-0.1,0.1-0.1,0.1c0,0-0.1,0-0.1,0c-0.1-0.5-0.1-0.9-0.2-1.4c-0.4-1.8-1.9-3-3.7-3
				c-1.7,0-3.4,0.1-5,0.8c-1.8,0.8-3.4,1.8-4.7,3.3C15.9,16,15.8,16.1,15.8,16.1z"/>
			<path class="st32" d="M45.1,37.3c0,1.7,0,3.5,0.2,5.3c0.3,3,1.1,6,2.3,8.7c0.2,0.3,0.5,0.7,0.8,0.9c0.8,0.6,1,1.2,0.6,2.1
				c-0.5,1.1-1.4,1.8-2.4,2.4c-1.9,1.1-3.8,2.2-5.8,3.2c-1.9,1.1-3.9,2.1-5.8,3.3c-1.5,0.9-2.8,2.1-3.9,3.4
				c-0.7,0.8-1.2,1.8-1.8,2.8c0-0.1-0.1-0.2-0.2-0.4c-0.6-1.3-1.1-2.7-1.8-4c-0.6-1.3-1.4-2.7-2-4c-0.1-0.2-0.1-0.6-0.1-0.8
				c0.5-2.2,0.7-4.4,0.4-6.7c-0.1-0.5-0.2-1-0.3-1.5c0.8,0.1,1.5,0.3,2.3,0.4c1.8,0.2,3.6-0.4,5.3-0.9c2.1-0.7,3.8-2,5.3-3.5
				c0.9-0.9,1.8-1.8,2.6-2.8c0.6-0.7,1-1.6,1.5-2.4c0.5-0.8,1-1.7,1.4-2.5c0.4-0.9,0.7-1.8,1.1-2.7C45,37.5,45.1,37.4,45.1,37.3z"/>
			<path class="st6" d="M43.7,3.7c0.2-0.1,0.3-0.3,0.5-0.4c1.6-1.2,3.4-1.4,5.3-1.1c1.9,0.3,3.6,0.8,5.3,1.5c3,1.2,4.6,3.6,5,6.8
				c0.5,3.4-0.4,6.6-1.8,9.6c-1,2.1-2.2,4.2-3.3,6.2c-1.4,2.5-2.6,5-3.1,7.8c-0.2,1-0.2,2.1-0.2,3.1c0,0.7,0.4,1.4,0.7,2.3
				c-0.5-0.2-1.1-0.3-1.6-0.6c-1.8-1-3-2.4-3.6-4.4c-0.2-0.6,0-0.8,0.3-1.1c0.8-0.8,1.3-1.8,1.6-2.8c0.5-1.5,0.9-3,0.7-4.6
				c-0.1-0.7-0.3-1.5-0.5-2.2c0-0.2-0.1-0.4,0-0.6c0.2-1,0.5-2,0.7-3c0.4-1.8,0.1-3.5-0.1-5.3c-0.3-2.2-1.2-4.2-2.4-6
				c-0.5-0.8-0.9-1.5-1-2.5c-0.1-1.3-1-2.1-2.2-2.6C44,3.9,43.9,3.9,43.7,3.7C43.7,3.8,43.7,3.8,43.7,3.7z"/>
			<path class="st37" d="M47.5,50c2.2-0.1,4.2-0.1,5.9,1.4c0.1,0.1,0.2,0.2,0.4,0.3c1,0.5,1.7,1.4,2.4,2.3c1,1.4,1.4,2.9,1.5,4.5
				c0,0.2-0.1,0.6-0.3,0.7c-3.2,2.3-5.9,5.3-8.8,7.9c-0.5,0.5-1,1-1.5,1.5c-0.3,0.3-0.5,0.6-0.8,0.8c-0.9-1-1.8-1.9-2.7-2.9
				c-1.5-1.7-3.5-2.2-5.6-1.8c-2.8,0.5-5.2,2-7.3,3.9c-0.1,0.1-0.1,0.1-0.2,0.2c0,0-0.1-0.1-0.1-0.1c0.5-0.7,1-1.4,1.5-2
				c1.7-1.8,3.7-3.2,5.9-4.4c2.9-1.5,5.7-3.1,8.6-4.7c1.3-0.7,2.5-1.5,3.2-2.9c0.5-0.8,0.4-1.7-0.1-2.4c-0.1-0.1-0.2-0.2-0.3-0.2
				C47.9,51.8,47.9,50.8,47.5,50z"/>
			<path class="st33" d="M37.1,38.5c0.5,1,1,1.9,1.4,2.9c-1.5,1.1-3,2-4.7,2.6c-2.6,0.9-5.2,1.8-7.9,2.2c-0.8,0.1-1.6,0.1-2.4,0.1
				c-1.6,0-3.2-0.4-4.7-0.7c-1-0.2-1.4-0.7-1.8-1.5c-0.4-0.9-0.8-1.8-1.1-2.7c-0.1-0.4-0.1-0.8-0.2-1.4c0.3,0.1,0.6,0.1,0.8,0.2
				c1.6,0.9,3.3,1.1,5,1.4c3.2,0.6,6.3-0.3,9.3-1c1.6-0.4,3.2-0.9,4.8-1.4C36.1,39,36.6,38.7,37.1,38.5z"/>
			<path class="st33" d="M16.1,36.1c3.4,0.7,6.7,0.7,10.1,0.5c3.4-0.2,6.7-0.7,9.9-1.7c0.2,0.7,0.3,1.4,0.5,2.1
				c0.4,1.2,0.4,1.3-0.8,1.6c-2.5,0.8-5,1.4-7.5,2.1c-3.3,1-6.5,0.7-9.8-0.2c-0.9-0.2-1.7-0.6-2.6-1c-0.1,0-0.2-0.2-0.2-0.3
				C15.9,38.3,16,37.3,16.1,36.1z"/>
			<path class="st32" d="M42.5,28.8c-0.1,0.3-0.1,0.6-0.1,0.9c0,0.1,0,0.3,0.1,0.4c0.1,0.1,0.3,0,0.4,0c0.7-0.4,1.2-1,1.4-1.8
				c0.3-1,0.6-2,0.9-3c0.4-1.1,1.3-1.7,2.4-1.6c0.5,0,1,0.3,1.2,0.8c0.5,1.2,0.4,2.4,0.2,3.6c-0.2,1.5-0.6,3-1.5,4.4
				c-0.5,0.8-1.2,1.4-2.1,1.7c-0.7,0.2-1.4-0.1-1.7-0.8c-0.1-0.2-0.1-0.4-0.2-0.6c-0.1-0.1-0.2-0.2-0.3-0.2c0,0.1-0.2,0.3-0.1,0.4
				c0.2,0.9,0.6,1.6,1.6,1.8c0.1,0,0.1,0.1,0.2,0.1c-0.5,2.3-1.7,4.4-2.7,6.6c-0.4-0.3-0.8-0.5-1-0.9c-1-1.1-1.8-2.4-2.2-3.9
				c-0.2-0.9-0.4-1.8-0.5-2.8c0-0.2,0.1-0.5,0.3-0.7c1.4-1.1,2.4-2.6,3.5-3.9c0.1-0.1,0.2-0.3,0.3-0.4
				C42.4,28.8,42.5,28.8,42.5,28.8z M45.4,26.9c0.3-0.3,0.5-0.5,0.8-0.7c0.7-0.6,1.3-0.4,1.4,0.6c0.2,1.6-0.2,3.2-1.1,4.6
				c-0.1,0.2-0.3,0.3-0.5,0.5c-0.3,0.2-0.7,0.3-0.8-0.2c0-0.1-0.2-0.1-0.3-0.2c-0.1,0.1-0.2,0.3-0.2,0.4c0,0.5,0.6,0.9,1,0.7
				c0.4-0.2,0.9-0.4,1.1-0.8c1-1.5,1.5-3.2,1.2-5.1c-0.1-0.7-0.6-1.2-1.2-1.2C46.2,25.4,45.5,26,45.4,26.9z M46.5,27.5
				c-0.1,0-0.1,0-0.2,0c0,0.9-0.5,1.7-1,2.4c-0.1,0.1,0,0.3,0,0.4c0.1,0,0.3,0,0.4-0.1c0.3-0.7,0.6-1.4,0.9-2
				C46.6,28,46.5,27.7,46.5,27.5z"/>
			<path class="st37" d="M13.2,63.6c0.3-0.3,0.6-0.5,0.9-0.8c1.2-1,2.2-2.2,3.1-3.5c0.9-1.3,1.7-2.7,2.7-4c0.8-1.1,1.6-2.1,2.5-3
				c0.6-0.7,1.5-0.6,2.4-0.5c0.1,0,0.2,0.2,0.3,0.4c0.2,0.9,0.3,1.7,0.4,2.6c0.2,1.7-0.1,3.4-0.4,5.1c0,0.1-0.1,0.3-0.2,0.3
				c-0.5,0.1-0.3,0.4-0.1,0.7c1.4,1.9,2,4.1,3.1,6.1c0.2,0.3,0.3,0.7,0.4,1c0,0-0.1,0-0.1,0.1c-0.6-0.9-1.2-1.7-1.8-2.6
				c-0.9-1.3-1.8-2.6-2.7-3.9c-0.4-0.5-0.9-0.9-1.4-1.2c-0.2-0.2-0.6-0.3-0.9-0.2c-0.7,0.2-1.3,0.4-1.9,0.6
				c-1.9,0.9-3.7,1.8-5.5,2.6c-0.2,0.1-0.3,0.1-0.5,0.2C13.2,63.7,13.2,63.6,13.2,63.6z"/>
			<path class="st33" d="M21.1,49.1c0.8,0,1.6,0,2.5,0.1c2.8,0.2,5.4-0.4,8-1.4c2.4-0.9,4.8-1.8,7-3.3c0.5-0.4,1-0.8,1.6-1.2
				c0.3,0.2,0.7,0.5,1.2,0.8c-0.1,0.2-0.2,0.3-0.4,0.5c-1.7,2.1-3.6,4-5.9,5.5c-0.7,0.4-1.4,0.8-2.2,1c-1.5,0.5-3.1,1-4.7,1
				c-1.1,0-2.2-0.2-3.2-0.7c-1.2-0.6-2.4-1.3-3.5-2C21.3,49.3,21.2,49.2,21.1,49.1L21.1,49.1z"/>
			<path class="st37" d="M38,32.1c-0.1,0.5-0.1,1-0.2,1.5c0,0.1-0.2,0.3-0.3,0.3c-0.9,0.4-1.9,0.8-2.9,1c-3,0.8-6.1,1.2-9.2,1.3
				c-2.3,0-4.6,0-6.8-0.1c-0.8,0-1.5-0.2-2.2-0.3c-0.1-0.8-0.1-1.6-0.2-2.3C23.5,34.2,30.7,33.9,38,32.1z"/>
			<path class="st33" d="M21.1,49c-0.4-0.4-0.9-0.8-1.3-1.2c-0.6-0.7-1.2-1.4-1.8-2.1c0,0,0.1-0.1,0.1-0.1c0.5,0.2,1.1,0.3,1.6,0.5
				c2.5,0.6,5,0.8,7.5,0.2c3-0.8,5.9-1.6,8.7-2.9c0.8-0.4,1.4-0.9,2.1-1.3c0.4-0.3,0.7-0.3,1.1,0.1c0.2,0.3,0.5,0.5,0.8,0.9
				c-0.4,0.3-0.7,0.7-1.1,1c-3.3,2.1-6.9,3.5-10.6,4.5c-1.9,0.5-3.8,0.4-5.7,0.4C22,48.9,21.5,49,21.1,49C21.1,49.1,21.1,49,21.1,49
				z"/>
			<path class="st37" d="M36.4,34.8c0.5-0.2,0.9-0.4,1.4-0.6c0.1,0.6,0.3,1.2,0.4,1.8c0.5,2.2,1.6,4.1,3.4,5.5
				c0.7,0.6,0.7,0.6,0.3,1.5c-0.1,0.2-0.2,0.3-0.3,0.6c-0.4-0.3-0.8-0.6-1.1-0.8c-1.5-1.2-2.3-2.9-2.9-4.6
				C37.1,37.1,36.8,36,36.4,34.8z"/>
			<path class="st37" d="M38.3,32.5c0.1-0.3,0.1-0.7,0.3-0.9c1-1.2,2-2.4,3-3.6c0.8-1,1.8-2,2.8-2.8c0.1,0,0.1,0.1,0.2,0.1
				c-0.2,0.4-0.4,0.9-0.7,1.2c-1.4,1.4-2.4,3-3.7,4.4c-0.5,0.6-1.1,1.2-1.7,1.7C38.4,32.6,38.4,32.6,38.3,32.5z"/>
			<path class="st37" d="M41.8,4.5c1.1-0.4,2-0.3,2.9,0.3c0.9,0.6,1.2,1.4,1.2,2.3C44.6,6.3,43.2,5.4,41.8,4.5z"/>
			<path class="st37" d="M45.1,34.6c0.1,0,0.3-0.1,0.6-0.1c-0.7,2.6-1.7,4.9-2.9,7.3c-0.6-0.2-0.5-0.2-0.3-0.7
				c0.9-1.8,1.9-3.6,2.5-5.6C45,35.2,45,34.9,45.1,34.6z"/>
			<path class="st33" d="M18.5,28.9c-0.1,0.3,0,0.8-0.5,0.8c-0.4,0-0.7-0.3-0.7-0.8c0-0.1,0-0.2,0-0.3c0-0.4,0.2-0.6,0.6-0.6
				c0.4,0,0.5,0.2,0.5,0.5C18.5,28.6,18.5,28.8,18.5,28.9z"/>
			<path class="st6" d="M43,29.3c-0.3-1,0.2-1.7,0.9-2.3C44,27.6,43.5,29,43,29.3z"/>
			<path class="st37" d="M19.1,29.6c0-0.5-0.1-1-0.1-1.5c0.5,0,1.1,0.4,1.1,0.7C20,29.2,19.6,29.5,19.1,29.6z"/>
			<path class="st37" d="M16.8,29.4c-0.2-0.2-0.5-0.4-0.5-0.7c0-0.2,0.3-0.5,0.5-0.7c0,0,0.1,0.1,0.1,0.1c0,0.4,0,0.8,0,1.2
				C16.9,29.4,16.8,29.4,16.8,29.4z"/>
			<path class="st6" d="M29.5,30c-0.7,0-1.6-0.4-2.4-1c-0.3-0.2-0.3-0.4-0.1-0.7c1.2-1.4,3.3-1.8,4.9-0.8c0.3,0.2,0.6,0.4,0.9,0.6
				c0.4,0.3,0.4,0.5,0,0.8C32,29.6,30.9,30,29.5,30z M30.4,28.5c0-0.2-0.1-0.5-0.2-0.7c-0.1-0.2-0.3-0.4-0.5-0.4
				c-0.2,0-0.5,0.2-0.5,0.4c0,0.5,0,1,0.1,1.4c0.1,0.3,0.8,0.2,0.9-0.1C30.3,28.9,30.3,28.7,30.4,28.5z M32.5,28.5
				c-0.6-0.4-1-0.9-1.6-0.9c0,0.6,0,1.1,0,1.8C31.4,29.1,31.9,28.8,32.5,28.5z M28.6,29.3c0-0.5-0.1-1-0.1-1.5
				c-0.4,0.3-0.7,0.5-1.2,0.8C27.8,28.8,28.2,29,28.6,29.3z"/>
			<path class="st6" d="M33.5,25.4c-0.1,0.1-0.1,0.2-0.2,0.2c-0.1,0-0.3-0.1-0.4-0.2c-0.4-0.3-0.8-0.6-1.2-0.8
				c-1.8-0.6-3.5-0.4-5.1,0.5c-0.2,0.1-0.5,0.1-0.7,0.2c0.1-0.2,0.3-0.5,0.5-0.6c1.9-1.1,4-1.3,6-0.4c0.4,0.2,0.6,0.5,1,0.8
				C33.4,25.1,33.4,25.2,33.5,25.4z"/>
			<path class="st6" d="M45.4,26.9c0.1-0.8,0.8-1.5,1.5-1.5c0.5,0,1.1,0.5,1.2,1.2c0.2,1.8-0.2,3.6-1.2,5.1
				c-0.2,0.4-0.7,0.6-1.1,0.8c-0.5,0.2-1-0.2-1-0.7c0-0.1,0.1-0.3,0.2-0.4c0.1,0.1,0.3,0.1,0.3,0.2c0.1,0.6,0.5,0.5,0.8,0.2
				c0.2-0.1,0.4-0.3,0.5-0.5c0.9-1.4,1.3-2.9,1.1-4.6c-0.1-0.9-0.6-1.1-1.4-0.6C46,26.3,45.8,26.6,45.4,26.9z"/>
			<path class="st6" d="M46.5,27.5c0,0.2,0.1,0.4,0.1,0.6c-0.3,0.7-0.6,1.4-0.9,2c0,0.1-0.3,0.1-0.4,0.1c0-0.1-0.1-0.3,0-0.4
				c0.5-0.7,1-1.5,1-2.4C46.4,27.5,46.5,27.5,46.5,27.5z"/>
			<path class="st33" d="M30.4,28.5c0,0.2,0,0.4-0.1,0.6c-0.1,0.3-0.8,0.4-0.9,0.1c-0.1-0.4-0.2-1-0.1-1.4c0-0.1,0.3-0.4,0.5-0.4
				c0.1,0,0.4,0.2,0.5,0.4C30.3,28,30.3,28.3,30.4,28.5z"/>
			<path class="st37" d="M32.5,28.5c-0.6,0.3-1,0.6-1.6,0.9c0-0.7,0-1.2,0-1.8C31.5,27.6,31.9,28,32.5,28.5z"/>
			<path class="st37" d="M28.6,29.3c-0.4-0.2-0.8-0.4-1.3-0.7c0.5-0.3,0.8-0.6,1.2-0.8C28.6,28.3,28.6,28.7,28.6,29.3z"/>
		</g>
	</g>
</g>
<g id="Calque_3">
</g>
</svg>
