<?xml version="1.0" encoding="utf-8"?>
<!-- Generator: Adobe Illustrator 23.0.1, SVG Export Plug-In . SVG Version: 6.00 Build 0)  -->
<svg version="1.1" xmlns="http://www.w3.org/2000/svg" x="0px" y="0px"
     viewBox="0 0 72 72" style="enable-background:new 0 0 72 72;" xml:space="preserve">
<style type="text/css">
	.st0{opacity:0.4;fill:url(#SVGID_1_);}
	.st1{opacity:0.6;fill:url(#SVGID_2_);}
	.st2{opacity:0.6;fill:url(#SVGID_3_);}
	.st3{opacity:0.6;fill:url(#SVGID_4_);}
	.st4{opacity:0.6;fill:url(#SVGID_5_);}
	.st5{opacity:0.6;fill:url(#SVGID_6_);}
	.st6{fill:#1F2B50;}
	.st7{fill:none;stroke:#1F2B50;stroke-width:3;stroke-miterlimit:10;}
	.st8{opacity:0.4;fill:url(#SVGID_7_);}
	.st9{opacity:0.4;fill:url(#SVGID_8_);}
	.st10{opacity:0.6;fill:url(#SVGID_9_);}
	.st11{opacity:0.6;fill:url(#SVGID_10_);}
	.st12{opacity:0.4;fill:url(#SVGID_11_);}
	.st13{opacity:0.4;fill:url(#SVGID_12_);}
	.st14{opacity:0.4;fill:url(#SVGID_13_);}
	.st15{opacity:0.4;fill:url(#SVGID_14_);}
	.st16{opacity:0.4;fill:url(#SVGID_15_);}
	.st17{opacity:0.4;fill:url(#SVGID_16_);}
	.st18{opacity:0.4;fill:url(#SVGID_17_);}
	.st19{fill:url(#SVGID_18_);}
	.st20{fill:url(#SVGID_19_);}
	.st21{fill:url(#SVGID_20_);}
	.st22{opacity:0.6;fill:url(#SVGID_21_);}
	.st23{opacity:0.6;fill:url(#SVGID_22_);}
	.st24{opacity:0.6;fill:url(#SVGID_23_);}
	.st25{opacity:0.6;fill:url(#SVGID_24_);}
	.st26{opacity:0.6;fill:url(#SVGID_25_);}
	.st27{opacity:0.6;fill:url(#SVGID_26_);}
	.st28{opacity:0.6;fill:url(#SVGID_27_);}
	.st29{opacity:0.6;fill:url(#SVGID_28_);}
	.st30{fill:url(#SVGID_29_);}
	.st31{fill:url(#SVGID_30_);}
	.st32{fill:#EA9001;}
	.st33{fill:#407EA7;}
	.st34{opacity:0.5;fill:#FFFFFF;}
	.st35{fill:none;stroke:#EA9001;stroke-width:2;stroke-miterlimit:10;}
	.st36{fill:#BECBCC;}
	.st37{fill:#FFFFFF;}
	.st38{fill:#979B9B;}
	.st39{fill:none;stroke:#407EA7;stroke-width:3;stroke-miterlimit:10;}
	.st40{fill:none;stroke:#407EA7;stroke-width:3.0377;stroke-miterlimit:10;}
	.st41{fill:none;stroke:#407EA7;stroke-width:2.8985;stroke-miterlimit:10;}
	.st42{fill:none;stroke:#407EA7;stroke-width:2.933;stroke-miterlimit:10;}
	.st43{fill:none;stroke:#EA9001;stroke-width:1.8227;stroke-miterlimit:10;}
	.st44{fill:#AAB2B2;}
	.st45{fill:none;stroke:#407EA7;stroke-width:3.0142;stroke-miterlimit:10;}
	.st46{fill:none;stroke:#407EA7;stroke-width:3.0512;stroke-miterlimit:10;}
	.st47{fill:#D3DDDD;}
	.st48{fill:none;stroke:#1F2B50;stroke-miterlimit:10;}
	.st49{fill:#BECBCC;stroke:#1F2B50;stroke-width:0.75;stroke-miterlimit:10;}
	.st50{fill:url(#SVGID_31_);}
	.st51{fill:none;stroke:#407EA7;stroke-width:2.8066;stroke-linecap:round;stroke-miterlimit:10;}
	.st52{fill:none;stroke:#407EA7;stroke-width:2.7511;stroke-linecap:round;stroke-miterlimit:10;}
	.st53{fill:url(#SVGID_32_);}
	.st54{fill:none;stroke:#EA9001;stroke-width:0.8;stroke-miterlimit:10;}
	.st55{fill:none;stroke:#407EA7;stroke-width:1.2;stroke-miterlimit:10;}
	.st56{fill:none;stroke:#407EA7;stroke-width:1.2151;stroke-miterlimit:10;}
	.st57{fill:none;stroke:#407EA7;stroke-width:1.1594;stroke-miterlimit:10;}
	.st58{fill:none;stroke:#407EA7;stroke-width:1.1732;stroke-miterlimit:10;}
	.st59{fill:url(#SVGID_33_);}
	.st60{fill:none;stroke:#1F2B50;stroke-width:0.4;stroke-miterlimit:10;}
	.st61{fill:#BECBCC;stroke:#1F2B50;stroke-width:0.3;stroke-miterlimit:10;}
	.st62{fill:none;stroke:#407EA7;stroke-width:1.1226;stroke-linecap:round;stroke-miterlimit:10;}
	.st63{fill:none;stroke:#407EA7;stroke-width:1.1004;stroke-linecap:round;stroke-miterlimit:10;}
	.st64{fill:url(#SVGID_34_);}
	.st65{fill:url(#SVGID_35_);}
</style>
<g id="Calque_2">
</g>
<g id="Calque_1">
	<g id="KC1RmV.tif_5_">
		<g>
			<path class="st6" d="M69.3,12.1c0.2,0.5,0.5,0.9,0.5,1.3c0.4,3.2,0.2,6.3-1.6,9.1c-1.9,3-4.6,5-8.4,4.5c-1.4-0.2-2.8-0.5-4.2-0.8
				c-0.4-0.1-0.7,0-1,0.3c-0.9,1-1.8,2.1-2.7,3.1c-1.3,1.5-2.6,2.9-3.9,4.4c-2.5,2.7-5,5.5-7.5,8.2c-2,2.1-3.9,4.3-5.9,6.4
				c-1.5,1.6-2.9,3.2-4.4,4.8c-0.3,0.3-0.3,0.5-0.2,0.9c1,3.2,1.2,6.4-0.1,9.5c-1.1,2.8-3.2,4.5-6.2,5.2c-1.8,0.4-3.6,0.5-5.4,0.1
				c-0.5-0.1-0.9-0.4-1.3-0.6c-0.3-0.1-0.3-0.3-0.1-0.6c0.6-0.6,1.1-1.1,1.7-1.7c1-1,2-1.9,3-2.9c0.1-0.1,0.2-0.4,0.2-0.6
				c-0.4-1.7-0.9-3.4-1.4-5.1c-0.1-0.2-0.4-0.4-0.6-0.4c-1.3-0.2-2.6-0.3-3.8-0.5c-0.7-0.1-1.1,0.1-1.6,0.6
				c-1.1,1.2-2.2,2.3-3.3,3.3c-0.9,0.8-1.2,1-1.5-0.5c-1.1-4.6,1-9.7,5-12C16,47.3,17.5,47,19,47c1.7-0.1,3.5,0.1,5.1,0.7
				c0.2,0.1,0.5-0.1,0.7-0.2c2.2-2.3,4.3-4.6,6.4-6.9c2-2.2,4-4.3,6-6.5c2-2.2,4-4.3,6-6.5c1.9-2.1,3.9-4.2,5.9-6.3
				c0.3-0.3,0.3-0.5,0.1-0.8c-0.8-1.5-0.8-3.2-0.6-4.8c0.2-2,0.7-3.9,1.7-5.7c0.9-1.5,2.2-2.7,3.6-3.7c1.9-1.4,4.2-1.8,6.5-1.9
				c0.6,0,1.1,0.2,1.7,0.4c0.4,0.1,0.5,0.4,0.1,0.7c-1,1.1-2,2.2-3,3.3c-0.5,0.6-1,1.1-1.5,1.7c-0.1,0.1-0.1,0.4-0.1,0.6
				c0.4,1.6,0.9,3.1,1.3,4.6c0.1,0.3,0.2,0.5,0.6,0.6c1.4,0.3,2.8,0.7,4.1,1.1c0.4,0.1,0.7,0,1-0.3C66.1,15.5,67.6,13.9,69.3,12.1z
				 M61.8,5.3c0-0.1,0-0.1,0-0.2c-0.5-0.1-1-0.2-1.4-0.2c-2.1,0.1-4.2,0.4-6,1.7c-1.4,1.1-2.7,2.2-3.6,3.7c-1,1.7-1.4,3.5-1.6,5.4
				c-0.2,1.6,0,3.2,0.7,4.7c0.2,0.4,0.1,0.7-0.2,1c-0.9,0.9-1.9,1.8-2.7,2.8c-2.4,2.6-4.7,5.3-7.1,7.9c-1,1.1-2,2-3,3.1
				c-4,4.3-8,8.6-12,12.9c-0.1,0.1-0.5,0.2-0.6,0.2c-1.6-0.6-3.3-0.8-5-0.8c-2.2,0-4.2,0.6-5.8,2.1c-2.6,2.4-3.7,5.5-3.5,9
				c0,0.6,0.2,1.1,0.4,1.8c0.2-0.1,0.3-0.2,0.4-0.3c1.2-1.3,2.5-2.5,3.7-3.8c0.4-0.4,0.8-0.5,1.3-0.4c0.2,0,0.4,0.1,0.6,0.1
				c1.3,0.2,2.7,0.3,4,0.6c0.2,0,0.6,0.4,0.6,0.6c0.5,1.8,1,3.6,1.5,5.4c0,0.2,0,0.4-0.1,0.6c-1,1.1-2.1,2.1-3.2,3.2
				c-0.5,0.5-1,1-1.7,1.7c0.8,0.2,1.4,0.4,2,0.5c0.7,0.1,1.4,0.1,2.1,0c2.7-0.2,5.1-1.1,6.8-3.3c1.3-1.7,1.7-3.7,1.8-5.7
				c0.1-1.9-0.1-3.8-0.9-5.6c-0.1-0.3-0.1-0.6,0.2-0.9c1.1-1.1,2.2-2.2,3.3-3.4c1.8-2,3.6-4,5.4-6c2.6-2.8,5.2-5.6,7.8-8.4
				c2.9-3.1,5.7-6.3,8.5-9.5c0.3-0.4,0.7-0.5,1.1-0.3c1.1,0.6,2.3,0.6,3.5,0.8c4.3,0.7,7.6-2.1,8.9-4.7c0.9-1.6,1.2-3.4,1.3-5.2
				c0-1-0.1-2.1-0.1-3.1c-0.1,0-0.1,0-0.2,0c-0.2,0.2-0.3,0.3-0.5,0.5c-1.3,1.3-2.6,2.6-3.9,4c-0.3,0.3-0.5,0.4-0.9,0.3
				c-1.6-0.4-3.3-0.8-4.9-1.3c-0.2-0.1-0.4-0.3-0.4-0.5c-0.5-1.7-1-3.5-1.5-5.3c-0.1-0.2,0-0.5,0.1-0.7c0.5-0.6,1-1.2,1.5-1.7
				C59.7,7.5,60.8,6.4,61.8,5.3z"/>
			<path class="st38" d="M61.8,5.3c-1,1.1-2,2.2-3.1,3.3c-0.5,0.6-1.1,1.1-1.5,1.7C57,10.5,57,10.8,57.1,11c0.5,1.8,1,3.5,1.5,5.3
				c0.1,0.2,0.3,0.5,0.4,0.5c1.6,0.5,3.3,0.9,4.9,1.3c0.3,0.1,0.6,0,0.9-0.3c1.3-1.3,2.6-2.6,3.9-4c0.2-0.2,0.3-0.3,0.5-0.5
				c0.1,0,0.1,0,0.2,0c0,1,0.2,2.1,0.1,3.1c-0.1,1.8-0.5,3.6-1.3,5.2c-1.4,2.6-4.7,5.5-8.9,4.7c-1.2-0.2-2.4-0.3-3.5-0.8
				c-0.4-0.2-0.8-0.1-1.1,0.3c-2.8,3.2-5.6,6.4-8.5,9.5c-2.6,2.8-5.2,5.6-7.8,8.4c-1.8,2-3.6,4-5.4,6c-1.1,1.2-2.2,2.3-3.3,3.4
				c-0.3,0.3-0.4,0.6-0.2,0.9c0.7,1.8,0.9,3.7,0.9,5.6c-0.1,2-0.5,4-1.8,5.7c-1.7,2.2-4.1,3.2-6.8,3.3c-0.7,0-1.4,0.1-2.1,0
				c-0.6-0.1-1.2-0.3-2-0.5c0.6-0.7,1.1-1.2,1.7-1.7c1.1-1.1,2.1-2.1,3.2-3.2c0.1-0.1,0.2-0.4,0.1-0.6c-0.5-1.8-0.9-3.6-1.5-5.4
				c-0.1-0.2-0.4-0.6-0.6-0.6c-1.3-0.2-2.7-0.4-4-0.6c-0.2,0-0.4,0-0.6-0.1c-0.5-0.1-0.9,0-1.3,0.4c-1.2,1.3-2.5,2.5-3.7,3.8
				c-0.1,0.1-0.2,0.2-0.4,0.3c-0.1-0.6-0.3-1.2-0.4-1.8c-0.2-3.5,0.8-6.6,3.5-9c1.6-1.5,3.7-2.1,5.8-2.1c1.7,0,3.4,0.1,5,0.8
				c0.2,0.1,0.5,0,0.6-0.2c4-4.3,8-8.6,12-12.9c1-1.1,2.1-2,3-3.1c2.4-2.6,4.7-5.3,7.1-7.9c0.9-1,1.8-1.9,2.7-2.8
				c0.3-0.3,0.4-0.6,0.2-1c-0.8-1.5-0.9-3.1-0.7-4.7c0.2-1.9,0.6-3.7,1.6-5.4c0.9-1.6,2.2-2.7,3.6-3.7c1.8-1.3,3.9-1.6,6-1.7
				c0.5,0,1,0.1,1.4,0.2C61.8,5.2,61.8,5.3,61.8,5.3z"/>
		</g>
	</g>
	<g id="FaPW10.tif_6_">
		<g>
			<path class="st6" d="M24.5,1.5c2.7,0.1,5.3,0.6,7.8,1.7c1.7,0.7,3.4,1.6,5.1,2.4c0.4,0.2,0.7,0.4,1.1,0.7
				c0.1,0.1,0.2,0.3,0.2,0.5c-0.2,0-0.4,0.2-0.5,0.1c-1.2-0.3-2.4-0.6-3.6-0.9c-2.2-0.6-4.4-1-6.7-0.9c-2.1,0-3.7,1.1-4.3,3.2
				c-0.4,1.2,0.1,2.3,0.5,3.3c0.3,0.7,0.8,1.4,1.1,2.1c0.2,0.5,0.3,1,0.5,1.5c0.3,0.6,0.7,1.2,1.1,1.8c2.6,3.6,5.2,7.2,7.8,10.8
				c0.9,1.2,1.8,2.5,2.8,3.7c0.1,0.1,0.4,0.3,0.6,0.2c0.5-0.2,0.8,0,1.1,0.4c2.3,3.1,4.6,6.1,6.9,9.1C51,47.7,56,54.4,61,61.2
				c1,1.3,1.9,2.6,2.9,3.9c0.1,0.1,0.2,0.3,0.3,0.4c0.7,0.8,0.8,1.1,0.3,2c-1.2,2-2.9,3.4-5.2,4c-0.8,0.2-1.4,0-1.9-0.7
				c-3-4.1-6-8.1-8.9-12.1c-2.4-3.3-4.6-6.6-7-10c-2.1-3-4.1-6-6.2-8.9c-0.8-1.1-1.5-2.2-2.2-3.4c-0.3-0.4-0.5-0.8,0-1.3
				c0.1-0.1,0-0.4-0.1-0.6c-2.2-3.2-4.4-6.4-6.7-9.6c-1.5-2.2-3.1-4.3-4.7-6.4c-0.2-0.2-0.5-0.3-0.7-0.4c-0.3-0.2-0.7-0.4-1-0.8
				c-0.9-1.1-2-2-3.2-2.8c-0.7-0.5-1.3-0.5-2.1-0.2c-1.9,0.9-3.5,1.9-4.4,3.9c-0.7,1.4-2,2-3.4,2.2c-0.9,0.1-1.5-0.4-2-1
				c-0.7-0.9-1.4-1.9-1.9-3c-0.5-0.9-0.5-1.8,0.5-2.7c1.1-1,2.1-1.6,3.6-1.6c1.6,0,2.8-1,3.9-2.1c0.7-0.6,1.1-1.3,1.2-2.3
				c0-0.4,0.4-1,0.7-1.2c2.1-1.4,4.1-2.7,6.3-4C20.8,1.6,22.6,1.6,24.5,1.5z M58.6,70.9c0.4-0.1,0.6-0.1,0.8-0.2
				c1.6-0.4,2.7-1.5,3.8-2.6c0.3-0.3,0.5-0.7,0.8-1.1c0.2-0.3,0.2-0.6-0.1-0.9c-1.2-1.6-2.4-3.2-3.6-4.7c-3.3-4.4-6.7-8.8-10-13.3
				c-3.9-5.2-7.7-10.4-11.6-15.6c-0.3-0.5-0.7-0.6-1.2-0.3c-1.5,0.7-2.8,1.8-3.9,3c-0.3,0.3-0.3,0.6,0,1c1,1.4,2,2.9,3,4.4
				c2.1,3,4.2,6.1,6.3,9.1c2.5,3.6,5.1,7.2,7.6,10.8c2.4,3.3,4.8,6.6,7.3,10C58,70.6,58.4,70.8,58.6,70.9z M9.9,17.4
				c0.7-1.5,2-2.4,3.4-3.1c2.2-1.2,3-1.2,4.9,0.5c0.8,0.7,1.5,1.4,2.3,2.2c0.2,0.2,0.5,0.5,0.8,0.3c1.1-0.7,2.2-1.4,3.3-2.1
				c0.4-0.2,0.4-0.5,0.1-0.9c-0.5-0.8-1-1.5-1.3-2.4c-0.5-1.2-0.9-2.4-0.6-3.7c0.6-2.2,2.5-3.7,4.9-3.7c2.4,0,4.7,0.4,6.9,1
				c0.4,0.1,0.8,0.2,1.2,0.3c0,0,0-0.1,0.1-0.1c-0.4-0.2-0.7-0.4-1.1-0.6c-1-0.4-1.9-0.8-2.9-1.2c-2.8-1.1-5.6-1.7-8.6-1.5
				c-1.4,0.1-2.8,0.2-4,0.9c-2.1,1.2-4,2.5-6,3.8c-0.4,0.3-0.6,0.7-0.7,1.2c-0.1,0.4-0.2,0.9-0.4,1.3c-0.8,1.2-1.9,2.1-3.2,2.7
				c-0.8,0.3-1.7,0.5-2.5,0.7C8,14,9.4,15.4,9.9,17.4z M36.9,31.7C33,26.4,29.1,21,25.2,15.6c-1.2,0.7-2.2,1.4-3.3,2.1
				c3.9,5.6,7.9,11.1,11.7,16.5C34.7,33.4,35.8,32.6,36.9,31.7z M7.5,19.8c0.4-0.2,0.8-0.4,1.2-0.6c0.8-0.6,0.9-0.8,0.6-1.8
				c-0.6-1.9-1.9-3.3-3.5-4.3c-0.2-0.1-0.5-0.1-0.7,0c-0.5,0.3-1,0.7-1.5,1.1C5.5,15.6,6.6,17.6,7.5,19.8z M3.3,14.9
				c-0.5,1.5,2.1,5.1,3.4,4.9C6.7,18.6,4.3,15.2,3.3,14.9z"/>
			<path class="st33" d="M58.6,70.9c-0.2-0.1-0.6-0.3-0.7-0.6c-2.4-3.3-4.9-6.6-7.3-10c-2.6-3.6-5.1-7.2-7.6-10.8
				c-2.1-3-4.2-6.1-6.3-9.1c-1-1.5-2-2.9-3-4.4c-0.3-0.4-0.3-0.6,0-1c1.1-1.2,2.4-2.3,3.9-3c0.5-0.2,0.9-0.1,1.2,0.3
				c3.8,5.2,7.7,10.4,11.6,15.6c3.3,4.4,6.7,8.8,10,13.3c1.2,1.6,2.4,3.2,3.6,4.7c0.3,0.3,0.3,0.6,0.1,0.9c-0.2,0.4-0.5,0.8-0.8,1.1
				c-1.1,1.1-2.3,2.2-3.8,2.6C59.2,70.8,59,70.9,58.6,70.9z"/>
			<path class="st32" d="M9.9,17.4c-0.6-2-1.9-3.4-3.4-4.6c0.8-0.2,1.7-0.4,2.5-0.7c1.3-0.6,2.4-1.5,3.2-2.7C12.5,9,12.6,8.5,12.6,8
				c0.1-0.5,0.2-0.9,0.7-1.2c2-1.3,4-2.6,6-3.8c1.2-0.7,2.6-0.8,4-0.9c3-0.2,5.8,0.4,8.6,1.5c1,0.4,1.9,0.8,2.9,1.2
				c0.4,0.2,0.7,0.4,1.1,0.6c0,0,0,0.1-0.1,0.1c-0.4-0.1-0.8-0.2-1.2-0.3c-2.3-0.6-4.6-1-6.9-1c-2.4,0-4.4,1.5-4.9,3.7
				c-0.3,1.3,0.1,2.5,0.6,3.7c0.4,0.8,0.8,1.6,1.3,2.4c0.2,0.4,0.2,0.7-0.1,0.9c-1.1,0.7-2.2,1.4-3.3,2.1c-0.4,0.2-0.6,0-0.8-0.3
				c-0.8-0.7-1.5-1.5-2.3-2.2c-1.9-1.6-2.7-1.7-4.9-0.5C12,15.1,10.7,15.9,9.9,17.4z"/>
			<path class="st36" d="M36.9,31.7c-1.1,0.9-2.2,1.7-3.2,2.5c-3.9-5.4-7.8-10.9-11.7-16.5c1.1-0.7,2.1-1.3,3.3-2.1
				C29.1,21,33,26.4,36.9,31.7z"/>
			<path class="st32" d="M7.5,19.8c-0.9-2.2-2-4.1-3.9-5.7c0.5-0.4,1-0.8,1.5-1.1c0.2-0.1,0.5-0.1,0.7,0c1.6,1.1,2.9,2.5,3.5,4.3
				c0.3,0.9,0.2,1.2-0.6,1.8C8.3,19.4,7.9,19.6,7.5,19.8z"/>
			<path class="st32" d="M3.3,14.9c1,0.3,3.4,3.7,3.4,4.9C5.4,20,2.9,16.3,3.3,14.9z"/>
		</g>
	</g>
</g>
<g id="Calque_3">
</g>
</svg>
