<?xml version="1.0" encoding="utf-8"?>
<!-- Generator: Adobe Illustrator 23.0.1, SVG Export Plug-In . SVG Version: 6.00 Build 0)  -->
<svg version="1.1" xmlns="http://www.w3.org/2000/svg" x="0px" y="0px"
     viewBox="0 0 72 72" style="enable-background:new 0 0 72 72;" xml:space="preserve">
<style type="text/css">
	.st0{opacity:0.4;fill:url(#SVGID_1_);}
	.st1{opacity:0.6;fill:url(#SVGID_2_);}
	.st2{opacity:0.6;fill:url(#SVGID_3_);}
	.st3{opacity:0.6;fill:url(#SVGID_4_);}
	.st4{opacity:0.6;fill:url(#SVGID_5_);}
	.st5{opacity:0.6;fill:url(#SVGID_6_);}
	.st6{fill:#1F2B50;}
	.st7{fill:none;stroke:#1F2B50;stroke-width:3;stroke-miterlimit:10;}
	.st8{opacity:0.4;fill:url(#SVGID_7_);}
	.st9{opacity:0.4;fill:url(#SVGID_8_);}
	.st10{opacity:0.6;fill:url(#SVGID_9_);}
	.st11{opacity:0.6;fill:url(#SVGID_10_);}
	.st12{opacity:0.4;fill:url(#SVGID_11_);}
	.st13{opacity:0.4;fill:url(#SVGID_12_);}
	.st14{opacity:0.4;fill:url(#SVGID_13_);}
	.st15{opacity:0.4;fill:url(#SVGID_14_);}
	.st16{opacity:0.4;fill:url(#SVGID_15_);}
	.st17{opacity:0.4;fill:url(#SVGID_16_);}
	.st18{opacity:0.4;fill:url(#SVGID_17_);}
	.st19{fill:url(#SVGID_18_);}
	.st20{fill:url(#SVGID_19_);}
	.st21{fill:url(#SVGID_20_);}
	.st22{opacity:0.6;fill:url(#SVGID_21_);}
	.st23{opacity:0.6;fill:url(#SVGID_22_);}
	.st24{opacity:0.6;fill:url(#SVGID_23_);}
	.st25{opacity:0.6;fill:url(#SVGID_24_);}
	.st26{opacity:0.6;fill:url(#SVGID_25_);}
	.st27{opacity:0.6;fill:url(#SVGID_26_);}
	.st28{opacity:0.6;fill:url(#SVGID_27_);}
	.st29{opacity:0.6;fill:url(#SVGID_28_);}
	.st30{fill:url(#SVGID_29_);}
	.st31{fill:url(#SVGID_30_);}
	.st32{fill:#EA9001;}
	.st33{fill:#407EA7;}
	.st34{opacity:0.5;fill:#FFFFFF;}
	.st35{fill:none;stroke:#EA9001;stroke-width:2;stroke-miterlimit:10;}
	.st36{fill:#BECBCC;}
	.st37{fill:#FFFFFF;}
	.st38{fill:#979B9B;}
	.st39{fill:none;stroke:#407EA7;stroke-width:3;stroke-miterlimit:10;}
	.st40{fill:none;stroke:#407EA7;stroke-width:3.0377;stroke-miterlimit:10;}
	.st41{fill:none;stroke:#407EA7;stroke-width:2.8985;stroke-miterlimit:10;}
	.st42{fill:none;stroke:#407EA7;stroke-width:2.933;stroke-miterlimit:10;}
	.st43{fill:none;stroke:#EA9001;stroke-width:1.8227;stroke-miterlimit:10;}
	.st44{fill:#AAB2B2;}
	.st45{fill:none;stroke:#407EA7;stroke-width:3.0142;stroke-miterlimit:10;}
	.st46{fill:none;stroke:#407EA7;stroke-width:3.0512;stroke-miterlimit:10;}
	.st47{fill:#D3DDDD;}
	.st48{fill:none;stroke:#1F2B50;stroke-miterlimit:10;}
	.st49{fill:#BECBCC;stroke:#1F2B50;stroke-width:0.75;stroke-miterlimit:10;}
	.st50{fill:url(#SVGID_31_);}
	.st51{fill:none;stroke:#407EA7;stroke-width:2.8066;stroke-linecap:round;stroke-miterlimit:10;}
	.st52{fill:none;stroke:#407EA7;stroke-width:2.7511;stroke-linecap:round;stroke-miterlimit:10;}
	.st53{fill:url(#SVGID_32_);}
	.st54{fill:none;stroke:#EA9001;stroke-width:0.8;stroke-miterlimit:10;}
	.st55{fill:none;stroke:#407EA7;stroke-width:1.2;stroke-miterlimit:10;}
	.st56{fill:none;stroke:#407EA7;stroke-width:1.2151;stroke-miterlimit:10;}
	.st57{fill:none;stroke:#407EA7;stroke-width:1.1594;stroke-miterlimit:10;}
	.st58{fill:none;stroke:#407EA7;stroke-width:1.1732;stroke-miterlimit:10;}
	.st59{fill:url(#SVGID_33_);}
	.st60{fill:none;stroke:#1F2B50;stroke-width:0.4;stroke-miterlimit:10;}
	.st61{fill:#BECBCC;stroke:#1F2B50;stroke-width:0.3;stroke-miterlimit:10;}
	.st62{fill:none;stroke:#407EA7;stroke-width:1.1226;stroke-linecap:round;stroke-miterlimit:10;}
	.st63{fill:none;stroke:#407EA7;stroke-width:1.1004;stroke-linecap:round;stroke-miterlimit:10;}
	.st64{fill:url(#SVGID_34_);}
	.st65{fill:url(#SVGID_35_);}
</style>
<g id="Calque_2">
</g>
<g id="Calque_1">
	<g id="SzFWL3.tif_3_">
		<g>
			<path class="st6" d="M35,41.1c-0.7,0.5-1.4,0.9-2.1,1.4c-1.7,1.1-3.4,2.3-5.2,3.4c-1.4,0.9-1.4,1.3-0.7,2.8
				c0.7,1.5,1.4,3,2.2,4.5c1.4,2.6,2.4,5.4,3.7,8.1c0.2,0.3,0.3,0.6,0.4,1c0,0.2,0,0.4-0.1,0.6c-0.2,0.2-0.1,0.3,0,0.5
				c0.4,0.8,0.3,1.3-0.3,1.8c-1.1,0.9-2.2,1.8-3.3,2.6c-1.1,0.8-2.3,1.6-3.5,2.3c-0.4,0.2-0.9,0.2-1.3,0.3c-0.2,0-0.5-0.2-0.6-0.3
				c-0.1-0.2,0.1-0.5,0.2-0.6c0.6-0.6,1.2-1.1,1.8-1.7c0.5-0.5,1-1,1.5-1.6c0.2-0.2,0.2-0.4,0-0.6c-0.6-0.9-1.2-1.8-1.7-2.7
				c-0.8-1.2-1.5-2.4-2.2-3.7c-1-1.7-1.9-3.5-2.8-5.2c-0.8-1.5-1.3-3.1-2.1-4.6c-0.6-1.2-0.5-2.4,0-3.6c1.3-3,2.9-5.8,5.1-8.2
				c1.2-1.3,2.4-2.6,3.8-3.7c0.1-0.1,0.2-0.1,0.2-0.2c0.1-0.4,0.2-0.9,0.2-1.3c-0.4-0.1-0.9-0.2-1.3-0.3c-1-0.3-1.7-1.1-2.4-1.9
				c-1.3-1.6-2.5-3.4-3.3-5.3c-0.8-1.9-1.7-3.9-2.3-5.9c-0.7-2.3-0.2-4.5,1.1-6.5c0.1-0.1,0.1-0.4,0-0.5c-0.2-0.3-0.3-0.8-0.9-0.7
				c-0.1,0-0.4-0.2-0.4-0.3c-0.2-0.5-0.3-1-0.4-1.5c-0.1-0.3-0.1-0.6-0.1-0.9c-0.1-0.7-0.3-1.4-0.5-2.2c-0.3-1.8,0.7-3.2,1.9-4.4
				c1.4-1.4,3.6-1.2,5.2-0.3c1.3,0.7,2.1,1.8,2.7,3c0.3,0.7,0.9,0.8,1.6,0.4c0.5-0.3,1-0.6,1.5-0.7c0.9-0.2,1.9-0.4,2.8-0.4
				c1.8,0.1,3.5,0.6,4.9,1.7c0.5,0.4,1.1,0.7,1.6,1.1c0.7,0.6,1.5,1.2,2.1,1.8c2.9,3,4.9,6.5,5.9,10.5c0.5,2,0.9,4,1.2,6
				c0.2,1.3,0.1,2.7,0,4c-0.1,1-0.5,1.9-0.7,2.9c-0.4,1.4-0.7,2.9-1.2,4.3c-0.8,2.7-1.7,5.4-3,8c-1.1,2.3-2.2,4.5-3.4,6.8
				c-0.2,0.5-0.5,1-0.7,1.6c-0.2,0.4-0.1,0.6,0.2,1c1.2,1.2,2.3,2.5,3.5,3.7c0.5,0.5,1.2,1,1.7,1.5c0.8,0.8,1.6,1.7,2.4,2.5
				c0.2,0.2,0.3,0.4,0.2,0.8c0,0.1,0,0.2,0.1,0.3c0.2,0.3,0.4,0.6,0.6,1c0.4,0.6,0.3,1.1-0.1,1.6c-0.7,0.8-1.5,1.6-2.2,2.4
				c-1.5,1.6-3.3,2.9-5.2,4c-0.3,0.2-0.6,0.2-1,0.3c-0.2,0-0.4-0.1-0.5-0.2c-0.1-0.1,0-0.4,0.1-0.6c0.4-0.5,0.9-1,1.4-1.5
				c0.6-0.7,1.1-1.4,1.7-2.1c0.2-0.2,0.1-0.3-0.1-0.5c-1-0.9-2-1.8-3-2.8c-1.6-1.7-3.1-3.4-4.6-5.3c-0.9-1.1-1.8-2.4-2.3-3.7
				c-0.4-1-0.3-1.9-0.1-2.9c0.5-2.5,1.1-5.1,1.6-7.6C34.6,43.2,34.8,42.2,35,41.1z M48.2,30.1c-1.6,1.1-3.3,1.7-4.9,2.4
				c-4.6,1.7-9.4,2-14.3,1.3c-0.2,0-0.6,0-0.8,0.2c-1.3,1.3-2.7,2.5-3.9,3.8c-2.2,2.4-3.8,5.1-5,8.1c-0.3,0.8-0.6,1.6-0.2,2.4
				c1,2.2,1.9,4.5,3,6.6c1.4,2.7,3,5.2,4.5,7.8c0.4,0.7,0.9,1.4,1.3,2.1c0.2,0.3,0.4,0.3,0.7,0.2c1.3-0.8,2.6-1.6,3.8-2.3
				c0.3-0.2,0.4-0.4,0.2-0.7c-0.7-1.6-1.4-3.1-2.1-4.7c-0.3-0.7-0.5-1.4-0.9-2.1c-0.7-1.4-1.4-2.7-2.1-4.1c-0.5-1-0.9-1.9-1.3-2.9
				c-0.4-1-0.2-1.7,0.6-2.3c0.9-0.7,1.9-1.4,2.9-2c1.6-1.1,3.3-2.2,4.9-3.3c0.4-0.2,0.6-0.5,0.6-1c0.1-0.8,0.2-1.5,0.3-2.3
				c0-0.1,0.1-0.3,0.1-0.4c0.1,0,0.1,0,0.2,0c0,0.3,0.1,0.6,0.1,0.8c-0.3,2.2-0.6,4.4-1.1,6.6c-0.5,2.6-1.1,5.2-1.7,7.8
				c-0.2,0.8-0.3,1.6,0.1,2.4c0.6,1.4,1.5,2.7,2.5,3.9c1.3,1.6,2.7,3.2,4.1,4.7c0.9,1,2,1.9,2.9,2.8c0.2,0.2,0.4,0.2,0.6,0
				c0.4-0.4,0.9-0.8,1.3-1.2c0.8-0.9,1.7-1.8,2.5-2.7c0.2-0.2,0.2-0.5,0-0.7c-0.9-1-1.8-1.9-2.8-2.9c-0.4-0.4-0.8-0.6-1.2-1
				c-1.2-1.2-2.3-2.5-3.5-3.7c-0.5-0.5-0.6-1-0.3-1.6c1-2.2,2.1-4.4,3.2-6.5c0.9-1.8,1.7-3.7,2.5-5.5c1.1-2.7,1.8-5.6,2.6-8.4
				C47.9,31.3,48,30.7,48.2,30.1z M28.7,5.7c0,0.2,0.1,0.4,0.1,0.6c0,0.4-0.1,0.8-0.3,1.1c-0.1,0.2-0.2,0.3-0.1,0.5
				c0.2,0.9,0.4,1.7,0.6,2.6c0.2,1.4,0.1,2.6-0.8,3.8c-1,1.2-2.5,1.8-4,1.2c-1.2-0.5-2.3-1.2-3.2-2.2c-0.2-0.2-0.4-0.5-0.6-0.7
				c-0.1,0.1-0.2,0.2-0.2,0.3c-0.9,1.8-1.3,3.8-0.8,5.8c0.6,2.5,1.6,4.8,2.7,7.1c0.8,1.5,1.7,3,2.8,4.3c0.6,0.7,1.3,1.3,2.2,1.5
				c0.6,0.1,1.2,0.2,1.8,0.3c3.1,0.4,6.1,0.4,9.1-0.4c1-0.3,1.9-0.6,2.9-1c0.4-0.1,0.6-0.4,0.6-0.8c0-0.7,0-1.5-0.1-2.2
				c0-0.4-0.2-0.7-0.4-1.1c-0.1,0-0.2,0-0.2,0.1c-1.9,1.2-3.9,2-6.1,2.3c-1.5,0.2-3,0.2-4.4-0.4c-2.3-1-4-2.7-5-5
				c-0.4-0.9-0.6-1.8-0.9-2.6c0-0.1,0-0.3,0-0.5c0.1,0.1,0.2,0.1,0.2,0.2c0,0.1,0.1,0.2,0.1,0.2c0.9,2.1,1.6,4.2,3.4,5.7
				c0.8,0.7,1.7,1.2,2.6,1.6c0.2,0.1,0.6,0,0.8-0.1c1.5-1,3-2,4.4-3.2c1.2-1,1.9-2.3,2.2-3.9c0.2-1.5-0.1-2.9-0.5-4.3
				c-0.4-1.6-1-3.2-2-4.5c-0.1-0.1-0.1-0.2-0.1-0.4c0.1,0,0.3-0.1,0.4,0c0.3,0.3,0.6,0.6,0.8,1c1,1.9,1.7,3.9,2,6
				c0.4,2.6-0.4,4.9-2.5,6.6c-0.9,0.7-1.8,1.3-2.7,2c-0.4,0.3-0.8,0.6-1.2,0.9c0.2,0.1,0.4,0.2,0.6,0.2c1-0.1,2-0.1,2.9-0.3
				c1.4-0.2,2.6-0.8,3.9-1.5c0.5-0.3,1-0.6,1.3-1c0.7-0.9,1.2-1.9,1.5-3c0.4-1.4,0.3-2.8,0.3-4.3c-0.2-2.9-0.8-5.6-2.4-8
				c-1.3-2.1-2.8-4-5-5.1c-0.9-0.4-1.8-0.6-2.8-0.5C31.1,4.6,29.8,4.8,28.7,5.7z M43.4,25c0.1-0.1,0.3-0.2,0.4-0.3
				c0.5-0.4,1-0.9,1.5-1.3c0.2-0.1,0.4-0.1,0.6-0.1c0,0.2,0.2,0.5,0.1,0.6c-0.3,0.7,0.1,1.2,0.3,1.8c0.2,0.6,0.3,0.7-0.1,1.2
				c-0.9,1.1-2.1,2-3.5,2.4c-0.4,0.1-0.8,0.3-0.9,0.8c0,0.2-0.2,0.3-0.4,0.4c-0.8,0.6-1.8,0.8-2.8,1.1c-2.3,0.6-4.5,1-6.9,0.8
				c-0.9-0.1-1.9-0.1-2.8-0.2c-0.3,0-0.4,0-0.4,0.3c0,0.2-0.1,0.3-0.1,0.5c0.2,0.1,0.4,0.1,0.6,0.1c0.1,0,0.3,0.1,0.4,0.1
				c2.5,0.2,5,0.4,7.5,0.1c3.6-0.4,6.9-1.6,10-3.2c0.4-0.2,0.8-0.5,1.2-0.8c0.2-0.1,0.3-0.3,0.3-0.5c0.1-0.5,0.2-1.1,0.2-1.6
				c0.1-1.6-0.2-3.3-0.4-4.9c-0.7-3.7-2-7.2-4-10.3c-1-1.5-2.1-2.8-3.5-4.1C40,7.4,39.3,7,38.6,6.5c0.5,0.8,1.1,1.5,1.6,2.3
				c0.7,1,1.3,2.1,1.8,3.2c1.1,2.6,1.4,5.5,1.3,8.3c0,1.4-0.4,2.8-1.2,4.1c0,0.1-0.1,0.2-0.1,0.2c0.4-0.4,0.7-0.8,1-1.2
				c0.1-0.1,0.3-0.2,0.5-0.3c0.1,0.2,0.2,0.4,0.2,0.5C43.7,24.1,43.5,24.5,43.4,25z M28.4,10.9c-0.1-0.9-0.3-2.4-1-3.8
				c-0.6-1-1.2-1.9-2-2.8c-0.8-0.9-1.9-1.3-3.1-0.9c-0.7,0.2-1.3,0.5-2,0.7c-0.6,0.3-1.1,0.7-1.3,1.4c-0.6,1.6-0.6,3.1,0.3,4.6
				c0.2,0.3,0.3,0.6,0.5,0.9c1,1.5,2.1,2.9,3.7,3.7c0.8,0.4,1.7,0.7,2.6,0.3C27.7,14.3,28.5,13.2,28.4,10.9z M47.7,62.6
				c-0.1,0.1-0.2,0.1-0.2,0.2c-0.9,0.9-1.8,1.8-2.7,2.7c-0.4,0.5-1.1,0.8-1.3,1.4c-0.5,1.1-1.3,2-2.1,2.8c-0.3,0.4-0.7,0.8-1,1.1
				c0,0,0.1,0.1,0.1,0.1c0.3-0.1,0.5-0.3,0.8-0.4c1.9-1.2,3.7-2.5,5.2-4.2c0.6-0.6,1.2-1.2,1.7-1.9c0.1-0.1,0.2-0.4,0.2-0.6
				C48.2,63.5,47.9,63.1,47.7,62.6z M18.2,7.5C18.3,7.5,18.3,7.4,18.2,7.5c0-0.2,0-0.3,0.1-0.5c0.1-1.3,0.6-2.5,1.8-3.2
				c0.5-0.3,1.1-0.5,1.7-0.7c2-0.6,3.3-0.1,4.5,1.6C26.6,5,26.8,5.3,27,5.6c0,0,0.1,0,0.1,0c0-0.2,0-0.5-0.1-0.7
				c-0.6-1.2-1.3-2.3-2.5-2.9c-1.3-0.7-2.7-1.1-4.1-0.2C18.5,3,17.6,5.1,18.2,7.5z M24.9,69.7c0,0,0,0.1,0,0.1
				c0.3-0.1,0.6-0.1,0.9-0.3c2.5-1.3,4.5-3.3,6.7-4.9c0.1-0.1,0.3-0.3,0.3-0.4c0-0.3-0.2-0.5-0.3-0.8c-0.2,0.1-0.4,0.1-0.5,0.2
				c-0.8,0.5-1.6,0.9-2.4,1.4c-0.4,0.3-0.9,0.6-1.3,1c-0.7,0.7-1.4,1.5-2,2.2C25.8,68.7,25.4,69.2,24.9,69.7z M45.3,25.2
				C45.3,25.1,45.2,25.1,45.3,25.2c-0.3,0.2-0.6,0.6-0.9,0.9c-0.1,0.1-0.3,0.1-0.4,0.2c0-0.2,0-0.4,0.1-0.5c0.1-0.2,0.2-0.3,0.3-0.5
				c0.2-0.3,0.4-0.6,0.6-0.9c-0.1,0-0.2,0-0.3,0.1c-0.4,0.4-0.9,0.8-1.3,1.1c-0.2,0.1-0.4,0.1-0.6,0.2c0-0.2-0.1-0.4,0-0.6
				c0.1-0.4,0.2-0.7,0.4-1.1c0,0-0.1,0-0.1-0.1c-0.1,0.1-0.2,0.3-0.3,0.4c-0.4,0.5-0.7,1-1.1,1.4c-0.2,0.2-0.2,0.3-0.1,0.5
				c0.2,0.6,0.3,1.1,0.4,1.7c0.1,0.3,0,0.6,0,1c1.3-0.3,2.3-0.9,3.2-1.8c-0.6-0.5,0.1-0.8,0.2-1.3c-0.1,0.1-0.1,0.2-0.2,0.3
				c-0.1,0.1-0.3,0.2-0.5,0.3c0-0.2,0-0.4,0.1-0.5C44.9,25.7,45.1,25.4,45.3,25.2z M28.1,6.8c0.2-0.4,0.1-0.8-0.2-1.1
				c-0.1-0.1-0.2-0.1-0.3-0.1c-0.1,0.1-0.1,0.2-0.2,0.3C27.5,6.3,27.7,6.6,28.1,6.8z M19,10.7c0.1,0,0.1-0.1,0.2-0.1
				c-0.1-0.3-0.2-0.6-0.4-0.9c-0.1,0-0.1,0.1-0.2,0.1C18.8,10.1,18.9,10.4,19,10.7z"/>
			<path class="st33" d="M48.2,30.1c-0.1,0.7-0.3,1.2-0.4,1.8c-0.7,2.8-1.5,5.7-2.6,8.4c-0.8,1.9-1.6,3.7-2.5,5.5
				c-1,2.2-2.1,4.4-3.2,6.5c-0.3,0.6-0.2,1.1,0.3,1.6c1.2,1.2,2.3,2.4,3.5,3.7c0.3,0.4,0.8,0.6,1.2,1c0.9,0.9,1.9,1.9,2.8,2.9
				c0.2,0.2,0.2,0.5,0,0.7c-0.8,0.9-1.7,1.8-2.5,2.7c-0.4,0.4-0.8,0.8-1.3,1.2c-0.2,0.2-0.4,0.2-0.6,0c-1-0.9-2-1.8-2.9-2.8
				c-1.4-1.5-2.8-3.1-4.1-4.7c-1-1.2-1.9-2.5-2.5-3.9c-0.4-0.8-0.2-1.6-0.1-2.4c0.5-2.6,1.2-5.2,1.7-7.8c0.4-2.2,0.7-4.4,1.1-6.6
				c0-0.3-0.1-0.6-0.1-0.8c-0.1,0-0.1,0-0.2,0c-0.1,0.1-0.1,0.3-0.1,0.4c-0.1,0.8-0.3,1.5-0.3,2.3c0,0.5-0.3,0.8-0.6,1
				c-1.6,1.1-3.3,2.2-4.9,3.3c-1,0.7-1.9,1.3-2.9,2c-0.8,0.6-1,1.3-0.6,2.3c0.4,1,0.9,2,1.3,2.9c0.7,1.4,1.4,2.7,2.1,4.1
				c0.3,0.7,0.6,1.4,0.9,2.1c0.7,1.6,1.4,3.1,2.1,4.7c0.2,0.3,0.1,0.5-0.2,0.7c-1.3,0.8-2.6,1.6-3.8,2.3c-0.3,0.2-0.5,0.2-0.7-0.2
				c-0.4-0.7-0.9-1.4-1.3-2.1c-1.5-2.6-3.1-5.2-4.5-7.8c-1.1-2.2-2.1-4.4-3-6.6c-0.3-0.8-0.1-1.6,0.2-2.4c1.2-3,2.8-5.7,5-8.1
				c1.2-1.3,2.6-2.6,3.9-3.8c0.2-0.2,0.5-0.2,0.8-0.2c4.9,0.7,9.6,0.4,14.3-1.3C44.9,31.8,46.6,31.2,48.2,30.1z"/>
			<path class="st36" d="M28.7,5.7c1.2-0.8,2.4-1.1,3.8-1.3c1-0.1,1.9,0,2.8,0.5c2.3,1.1,3.7,3,5,5.1c1.5,2.5,2.2,5.2,2.4,8
				c0.1,1.4,0.1,2.9-0.3,4.3c-0.3,1.1-0.8,2.1-1.5,3c-0.3,0.4-0.8,0.8-1.3,1c-1.2,0.6-2.5,1.3-3.9,1.5c-1,0.2-1.9,0.2-2.9,0.3
				c-0.2,0-0.4,0-0.6-0.2c0.4-0.3,0.8-0.6,1.2-0.9c0.9-0.7,1.8-1.3,2.7-2c2.1-1.7,2.8-4,2.5-6.6c-0.3-2.1-0.9-4.1-2-6
				c-0.2-0.4-0.5-0.7-0.8-1c-0.1-0.1-0.2,0-0.4,0c0,0.1,0,0.3,0.1,0.4c1,1.4,1.6,2.9,2,4.5c0.4,1.4,0.7,2.8,0.5,4.3
				c-0.2,1.6-0.9,2.9-2.2,3.9c-1.4,1.1-2.9,2.1-4.4,3.2c-0.2,0.1-0.6,0.2-0.8,0.1c-1-0.4-1.8-0.9-2.6-1.6c-1.8-1.5-2.6-3.7-3.4-5.7
				c0-0.1-0.1-0.2-0.1-0.2c0,0-0.1-0.1-0.2-0.2c0,0.2-0.1,0.4,0,0.5c0.3,0.9,0.5,1.8,0.9,2.6c1,2.3,2.7,4,5,5
				c1.4,0.6,2.9,0.6,4.4,0.4c2.2-0.3,4.2-1.1,6.1-2.3c0,0,0.1,0,0.2-0.1c0.1,0.4,0.3,0.7,0.4,1.1c0.1,0.7,0.1,1.5,0.1,2.2
				c0,0.4-0.2,0.7-0.6,0.8c-1,0.3-1.9,0.7-2.9,1c-3,0.9-6,0.8-9.1,0.4c-0.6-0.1-1.2-0.1-1.8-0.3c-0.9-0.2-1.6-0.8-2.2-1.5
				c-1.1-1.3-2-2.8-2.8-4.3c-1.1-2.3-2.1-4.6-2.7-7.1c-0.5-2-0.1-4,0.8-5.8c0-0.1,0.1-0.2,0.2-0.3c0.2,0.3,0.4,0.5,0.6,0.7
				c0.8,1.1,1.9,1.8,3.2,2.2c1.5,0.6,3,0,4-1.2c1-1.2,1.1-2.4,0.8-3.8c-0.1-0.9-0.4-1.7-0.6-2.6c-0.1-0.2,0-0.3,0.1-0.5
				c0.2-0.3,0.2-0.7,0.3-1.1C28.8,6,28.7,5.8,28.7,5.7z"/>
			<path class="st36" d="M43.4,25c0.1-0.5,0.3-1,0.3-1.4c0-0.2-0.1-0.3-0.2-0.5c-0.2,0.1-0.4,0.1-0.5,0.3c-0.3,0.4-0.6,0.8-1,1.2
				c0-0.1,0.1-0.2,0.1-0.2c0.8-1.2,1.1-2.6,1.2-4.1c0.1-2.8-0.2-5.7-1.3-8.3c-0.5-1.1-1.2-2.2-1.8-3.2c-0.5-0.8-1.1-1.5-1.6-2.3
				C39.3,7,40,7.4,40.7,8c1.3,1.2,2.5,2.6,3.5,4.1c2.1,3.2,3.3,6.6,4,10.3c0.3,1.6,0.5,3.2,0.4,4.9c0,0.5-0.1,1.1-0.2,1.6
				c0,0.2-0.2,0.4-0.3,0.5c-0.4,0.3-0.7,0.6-1.2,0.8c-3.2,1.6-6.4,2.8-10,3.2c-2.5,0.3-5,0.1-7.5-0.1c-0.1,0-0.3,0-0.4-0.1
				c-0.2,0-0.4-0.1-0.6-0.1c0-0.2,0.1-0.3,0.1-0.5c0-0.3,0.2-0.4,0.4-0.3c0.9,0.1,1.9,0.1,2.8,0.2c2.3,0.2,4.6-0.2,6.9-0.8
				c1-0.2,1.9-0.5,2.8-1.1c0.2-0.1,0.4-0.3,0.4-0.4c0.1-0.5,0.4-0.6,0.9-0.8c1.4-0.4,2.5-1.3,3.5-2.4c0.4-0.5,0.3-0.6,0.1-1.2
				C46,25.2,45.6,24.6,46,24c0.1-0.2-0.1-0.4-0.1-0.6c-0.2,0-0.5,0-0.6,0.1c-0.5,0.4-1,0.8-1.5,1.3C43.6,24.8,43.5,24.9,43.4,25z"/>
			<path class="st32" d="M28.4,10.9c0.1,2.2-0.7,3.3-2.2,4c-0.9,0.4-1.8,0.2-2.6-0.3C22,13.8,20.9,12.5,20,11
				c-0.2-0.3-0.3-0.6-0.5-0.9c-1-1.5-0.9-3-0.3-4.6c0.2-0.6,0.7-1.1,1.3-1.4c0.6-0.3,1.3-0.5,2-0.7c1.2-0.4,2.3,0,3.1,0.9
				c0.7,0.9,1.4,1.8,2,2.8C28.2,8.5,28.4,10,28.4,10.9z M26.2,11.5c0.3,0,0.5,0,0.7,0c0.1,0,0.2-0.2,0.2-0.3
				C27,11.1,26.9,11,26.8,11c-0.1,0-0.3,0-0.4-0.1c-0.5-0.3-0.8-0.1-0.8,0.5c0,0.1,0,0.1,0,0.1c-0.3,0-0.7-0.1-0.9,0
				c-0.2,0.1-0.2,0.5-0.3,0.8c-0.1,0-0.2-0.1-0.3-0.1c-0.2-0.2-0.5-0.3-0.7-0.1c-0.2,0.2-0.2,0.5-0.3,0.7c0,0.1,0.2,0.2,0.2,0.4
				c0.1-0.1,0.1-0.2,0.2-0.4c0-0.1,0.1-0.1,0.1-0.2c0.3,0.1,0.7,0.3,0.9,0.2c0.2-0.1,0.4-0.5,0.5-0.8C25.8,12.3,25.9,12.3,26.2,11.5
				z M22.7,8.1c-0.1,0-0.1,0-0.2,0c0,0.1,0,0.3,0,0.4c0.2,0.7,0.4,1.4,0.7,2c0.1,0.4,0.4,0.4,0.7,0.2c0.2-0.1,0.4-0.2,0.5-0.4
				c0.1-0.1,0.1-0.2,0.1-0.4c-0.1,0-0.3-0.1-0.4-0.1c-0.2,0.1-0.4,0.2-0.6,0.3C23.4,9.4,23.2,8.7,22.7,8.1z M24.4,7.3
				c0.1-0.5,0.4-0.9,0.2-1.3C24.3,6.4,24,7,23.8,7.6c0,0,0.1,0.2,0.2,0.2c0.3,0.1,0.6,0.1,0.9,0.1c0.1,0,0.3-0.1,0.4-0.2
				c-0.1-0.1-0.2-0.3-0.4-0.3C24.8,7.3,24.6,7.3,24.4,7.3z M21.1,8.9C21,9,20.9,9.2,20.8,9.3c0,0.1,0,0.3,0.1,0.4
				c0.1,0,0.3,0,0.3-0.1c0.2-0.2,0.3-0.5,0.4-0.8c0-0.1-0.1-0.4-0.1-0.4c-0.4-0.1-0.8-0.2-1.2-0.2c-0.1,0-0.2,0.1-0.3,0.2
				c0.1,0.1,0.1,0.2,0.2,0.2C20.5,8.7,20.8,8.8,21.1,8.9z"/>
			<path class="st38" d="M47.7,62.6c0.2,0.5,0.5,0.8,0.6,1.3c0.1,0.2,0,0.4-0.2,0.6c-0.6,0.6-1.1,1.2-1.7,1.9
				c-1.5,1.7-3.3,3-5.2,4.2c-0.3,0.2-0.5,0.3-0.8,0.4c0,0-0.1-0.1-0.1-0.1c0.3-0.4,0.7-0.8,1-1.1c0.8-0.9,1.5-1.7,2.1-2.8
				c0.3-0.5,0.9-0.9,1.3-1.4c0.9-0.9,1.8-1.8,2.7-2.7C47.5,62.8,47.6,62.7,47.7,62.6z"/>
			<path class="st6" d="M18.2,7.5c-0.6-2.4,0.2-4.5,2.2-5.7c1.4-0.9,2.7-0.5,4.1,0.2c1.2,0.6,1.9,1.7,2.5,2.9
				C27,5.1,27,5.3,27.1,5.6c0,0-0.1,0-0.1,0c-0.2-0.3-0.4-0.6-0.6-0.9c-1.2-1.7-2.5-2.2-4.5-1.6c-0.6,0.2-1.1,0.4-1.7,0.7
				c-1.3,0.7-1.7,1.9-1.8,3.2C18.3,7.2,18.3,7.3,18.2,7.5C18.3,7.4,18.3,7.5,18.2,7.5z"/>
			<path class="st38" d="M24.9,69.7c0.5-0.5,1-1,1.5-1.5c0.7-0.7,1.3-1.5,2-2.2c0.4-0.4,0.8-0.7,1.3-1c0.8-0.5,1.6-0.9,2.4-1.4
				c0.2-0.1,0.4-0.1,0.5-0.2c0.1,0.3,0.2,0.5,0.3,0.8c0,0.1-0.1,0.3-0.3,0.4c-2.2,1.7-4.2,3.7-6.7,4.9c-0.3,0.1-0.6,0.2-0.9,0.3
				C24.9,69.8,24.9,69.7,24.9,69.7z"/>
			<path class="st32" d="M45.3,25.2c-0.2,0.3-0.4,0.5-0.5,0.8c-0.1,0.1-0.1,0.3-0.1,0.5c0.2-0.1,0.3-0.2,0.5-0.3
				c0.1,0,0.1-0.1,0.2-0.3c0,0.5-0.7,0.8-0.2,1.3c-0.9,0.9-1.9,1.5-3.2,1.8c0-0.4,0-0.7,0-1c-0.1-0.6-0.2-1.1-0.4-1.7
				c-0.1-0.2-0.1-0.4,0.1-0.5c0.4-0.4,0.7-0.9,1.1-1.4c0.1-0.1,0.2-0.3,0.3-0.4c0,0,0.1,0,0.1,0.1c-0.1,0.4-0.3,0.7-0.4,1.1
				c0,0.2,0,0.4,0,0.6c0.2,0,0.5,0,0.6-0.2c0.5-0.3,0.9-0.7,1.3-1.1c0.1-0.1,0.1-0.1,0.3-0.1c-0.2,0.3-0.4,0.6-0.6,0.9
				c-0.1,0.2-0.3,0.3-0.3,0.5C44,25.9,44,26.1,44,26.2c0.1-0.1,0.3-0.1,0.4-0.2C44.7,25.7,45,25.4,45.3,25.2
				C45.2,25.1,45.3,25.1,45.3,25.2z"/>
			<path class="st32" d="M28.1,6.8c-0.4-0.2-0.7-0.5-0.6-0.9c0-0.1,0.1-0.2,0.2-0.3c0,0,0.2,0.1,0.3,0.1C28.2,6,28.3,6.4,28.1,6.8z"
				/>
			<path class="st32" d="M19,10.7c-0.1-0.3-0.2-0.6-0.4-0.9c0.1,0,0.1-0.1,0.2-0.1c0.1,0.3,0.2,0.6,0.4,0.9
				C19.1,10.6,19.1,10.6,19,10.7z"/>
			<path class="st6" d="M26.2,11.5c-0.3,0.8-0.3,0.8-1.1,0.5c-0.2,0.3-0.3,0.7-0.5,0.8c-0.2,0.1-0.6-0.1-0.9-0.2c0,0,0,0.1-0.1,0.2
				c-0.1,0.1-0.1,0.2-0.2,0.4c-0.1-0.1-0.3-0.3-0.2-0.4c0-0.2,0.1-0.5,0.3-0.7c0.2-0.2,0.5-0.1,0.7,0.1c0.1,0.1,0.2,0.1,0.3,0.1
				c0.1-0.3,0.1-0.7,0.3-0.8c0.2-0.1,0.6,0,0.9,0c0,0,0,0,0-0.1c0.1-0.6,0.3-0.7,0.8-0.5c0.1,0.1,0.3,0.1,0.4,0.1
				c0.1,0,0.2,0.1,0.3,0.2c-0.1,0.1-0.1,0.3-0.2,0.3C26.7,11.5,26.4,11.5,26.2,11.5z"/>
			<path class="st6" d="M22.7,8.1c0.5,0.6,0.6,1.3,1,2.1c0.2-0.1,0.4-0.2,0.6-0.3c0.1,0,0.3,0.1,0.4,0.1c0,0.1-0.1,0.3-0.1,0.4
				c-0.2,0.2-0.4,0.3-0.5,0.4c-0.3,0.2-0.6,0.2-0.7-0.2c-0.2-0.7-0.5-1.3-0.7-2c0-0.1,0-0.2,0-0.4C22.6,8.1,22.7,8.1,22.7,8.1z"/>
			<path class="st6" d="M24.4,7.3c0.2,0,0.4,0,0.5,0.1c0.2,0.1,0.3,0.2,0.4,0.3c-0.1,0.1-0.3,0.2-0.4,0.2c-0.3,0-0.6,0-0.9-0.1
				c-0.1,0-0.3-0.2-0.2-0.2C24,7,24.3,6.4,24.6,5.9C24.8,6.4,24.5,6.8,24.4,7.3z"/>
			<path class="st6" d="M21.1,8.9c-0.3-0.1-0.6-0.2-0.8-0.3c-0.1,0-0.1-0.1-0.2-0.2c0.1-0.1,0.2-0.2,0.3-0.2
				c0.4,0.1,0.8,0.1,1.2,0.2c0.1,0,0.2,0.3,0.1,0.4c-0.1,0.3-0.2,0.5-0.4,0.8c-0.1,0.1-0.2,0.1-0.3,0.1c0-0.1-0.1-0.3-0.1-0.4
				C20.9,9.2,21,9,21.1,8.9z"/>
		</g>
	</g>
</g>
<g id="Calque_3">
</g>
</svg>
