<?xml version="1.0" encoding="utf-8"?>
<!-- Generator: Adobe Illustrator 23.0.1, SVG Export Plug-In . SVG Version: 6.00 Build 0)  -->
<svg version="1.1" xmlns="http://www.w3.org/2000/svg" x="0px" y="0px"
     viewBox="0 0 72 72" style="enable-background:new 0 0 72 72;" xml:space="preserve">
<style type="text/css">
	.st0{opacity:0.4;fill:url(#SVGID_1_);}
	.st1{opacity:0.6;fill:url(#SVGID_2_);}
	.st2{opacity:0.6;fill:url(#SVGID_3_);}
	.st3{opacity:0.6;fill:url(#SVGID_4_);}
	.st4{opacity:0.6;fill:url(#SVGID_5_);}
	.st5{opacity:0.6;fill:url(#SVGID_6_);}
	.st6{fill:#1F2B50;}
	.st7{fill:none;stroke:#1F2B50;stroke-width:3;stroke-miterlimit:10;}
	.st8{opacity:0.4;fill:url(#SVGID_7_);}
	.st9{opacity:0.4;fill:url(#SVGID_8_);}
	.st10{opacity:0.6;fill:url(#SVGID_9_);}
	.st11{opacity:0.6;fill:url(#SVGID_10_);}
	.st12{opacity:0.4;fill:url(#SVGID_11_);}
	.st13{opacity:0.4;fill:url(#SVGID_12_);}
	.st14{opacity:0.4;fill:url(#SVGID_13_);}
	.st15{opacity:0.4;fill:url(#SVGID_14_);}
	.st16{opacity:0.4;fill:url(#SVGID_15_);}
	.st17{opacity:0.4;fill:url(#SVGID_16_);}
	.st18{opacity:0.4;fill:url(#SVGID_17_);}
	.st19{fill:url(#SVGID_18_);}
	.st20{fill:url(#SVGID_19_);}
	.st21{fill:url(#SVGID_20_);}
	.st22{opacity:0.6;fill:url(#SVGID_21_);}
	.st23{opacity:0.6;fill:url(#SVGID_22_);}
	.st24{opacity:0.6;fill:url(#SVGID_23_);}
	.st25{opacity:0.6;fill:url(#SVGID_24_);}
	.st26{opacity:0.6;fill:url(#SVGID_25_);}
	.st27{opacity:0.6;fill:url(#SVGID_26_);}
	.st28{opacity:0.6;fill:url(#SVGID_27_);}
	.st29{opacity:0.6;fill:url(#SVGID_28_);}
	.st30{fill:url(#SVGID_29_);}
	.st31{fill:url(#SVGID_30_);}
	.st32{fill:#EA9001;}
	.st33{fill:#407EA7;}
	.st34{opacity:0.5;fill:#FFFFFF;}
	.st35{fill:none;stroke:#EA9001;stroke-width:2;stroke-miterlimit:10;}
	.st36{fill:#BECBCC;}
	.st37{fill:#FFFFFF;}
	.st38{fill:#979B9B;}
	.st39{fill:none;stroke:#407EA7;stroke-width:3;stroke-miterlimit:10;}
	.st40{fill:none;stroke:#407EA7;stroke-width:3.0377;stroke-miterlimit:10;}
	.st41{fill:none;stroke:#407EA7;stroke-width:2.8985;stroke-miterlimit:10;}
	.st42{fill:none;stroke:#407EA7;stroke-width:2.933;stroke-miterlimit:10;}
	.st43{fill:none;stroke:#EA9001;stroke-width:1.8227;stroke-miterlimit:10;}
	.st44{fill:#AAB2B2;}
	.st45{fill:none;stroke:#407EA7;stroke-width:3.0142;stroke-miterlimit:10;}
	.st46{fill:none;stroke:#407EA7;stroke-width:3.0512;stroke-miterlimit:10;}
	.st47{fill:#D3DDDD;}
	.st48{fill:none;stroke:#1F2B50;stroke-miterlimit:10;}
	.st49{fill:#BECBCC;stroke:#1F2B50;stroke-width:0.75;stroke-miterlimit:10;}
	.st50{fill:url(#SVGID_31_);}
	.st51{fill:none;stroke:#407EA7;stroke-width:2.8066;stroke-linecap:round;stroke-miterlimit:10;}
	.st52{fill:none;stroke:#407EA7;stroke-width:2.7511;stroke-linecap:round;stroke-miterlimit:10;}
	.st53{fill:url(#SVGID_32_);}
	.st54{fill:none;stroke:#EA9001;stroke-width:0.8;stroke-miterlimit:10;}
	.st55{fill:none;stroke:#407EA7;stroke-width:1.2;stroke-miterlimit:10;}
	.st56{fill:none;stroke:#407EA7;stroke-width:1.2151;stroke-miterlimit:10;}
	.st57{fill:none;stroke:#407EA7;stroke-width:1.1594;stroke-miterlimit:10;}
	.st58{fill:none;stroke:#407EA7;stroke-width:1.1732;stroke-miterlimit:10;}
	.st59{fill:url(#SVGID_33_);}
	.st60{fill:none;stroke:#1F2B50;stroke-width:0.4;stroke-miterlimit:10;}
	.st61{fill:#BECBCC;stroke:#1F2B50;stroke-width:0.3;stroke-miterlimit:10;}
	.st62{fill:none;stroke:#407EA7;stroke-width:1.1226;stroke-linecap:round;stroke-miterlimit:10;}
	.st63{fill:none;stroke:#407EA7;stroke-width:1.1004;stroke-linecap:round;stroke-miterlimit:10;}
	.st64{fill:url(#SVGID_34_);}
	.st65{fill:url(#SVGID_35_);}
</style>
<g id="Calque_2">
</g>
<g id="Calque_1">
	<g id="MRy7Oq.tif_5_">
		<g>
			<path class="st37" d="M51.2,34.1C51.2,34.1,51.2,34.1,51.2,34.1c0.2-3,0.3-6.1,0.3-9.1c0-6.3,0-12.6-0.1-18.8
				c0-2.5-1.4-4-3.9-4.4c-1-0.2-1.9-0.3-2.9-0.3c-6.7,0.1-13.4,0.2-20.2,0.3c-1.4,0-2.8,0.1-4.1,0.3c-1.1,0.2-2,0.8-2.5,1.8
				c-0.7,1.3-0.8,2.6-0.8,4c0,3.3,0.1,6.5,0.1,9.8C17,28.2,17,38.6,17,49c0,4,0,8,0.1,12c0,2.1-0.1,4.2,0.7,6.3
				c0.2,0.7,0.6,1.3,1.2,1.6c0.5,0.3,1.1,0.6,1.6,0.7c2.3,0.3,4.5,0.6,6.8,0.6c5.6,0.1,11.2,0.1,16.8,0.1c1.4,0,2.8-0.3,4.2-0.6
				c0.3-0.1,0.7-0.3,0.9-0.5c1.2-1.1,1.8-2.5,1.9-4c0.1-1.5,0-3,0-4.5c0-2.3,0.1-4.6,0.1-6.9C51.2,47.2,51.2,40.7,51.2,34.1z"/>
			<path class="st6" d="M51.2,34.1c0,6.6,0,13.1,0,19.7c0,2.3,0,4.6-0.1,6.9c0,1.5,0.1,3,0,4.5c-0.1,1.6-0.7,3-1.9,4
				c-0.3,0.2-0.6,0.4-0.9,0.5c-1.4,0.2-2.8,0.6-4.2,0.6c-5.6,0-11.2,0-16.8-0.1c-2.3,0-4.5-0.4-6.8-0.6c-0.6-0.1-1.1-0.4-1.6-0.7
				c-0.6-0.3-0.9-0.9-1.2-1.6c-0.8-2-0.6-4.2-0.7-6.3C17,57,17,53,17,49C17,38.6,17,28.2,17,17.7c0-3.3-0.1-6.6-0.1-9.8
				c0-1.4,0.1-2.7,0.8-4c0.5-1,1.4-1.7,2.5-1.8c1.4-0.2,2.8-0.3,4.1-0.3c6.7-0.1,13.4-0.2,20.2-0.3c1,0,1.9,0.1,2.9,0.3
				c2.5,0.4,3.8,1.9,3.9,4.4c0.1,6.3,0.1,12.6,0.1,18.8C51.5,28,51.3,31.1,51.2,34.1C51.2,34.1,51.2,34.1,51.2,34.1z M50.5,34.6
				C50.5,34.6,50.5,34.6,50.5,34.6c0.1-4,0.2-8.1,0.2-12.1c0-3.1,0-6.2,0-9.3c0-2.6,0.3-5.1-0.2-7.7c-0.2-1-0.5-1.7-1.4-2.2
				c-1.3-0.8-2.8-0.9-4.3-0.9c-7.1,0.1-14.2,0.2-21.3,0.3c-1,0-2,0.1-3,0.3c-0.9,0.1-1.8,0.6-2.1,1.5c-0.3,1-0.7,2.1-0.7,3.1
				c-0.1,3.4,0,6.8,0,10.1c0,4.5,0,9,0,13.6c0,9,0,17.9-0.1,26.9c0,0.9,0,1.7-0.1,2.5c-0.1,1.9,0,3.9,0.5,5.8
				c0.4,1.4,1.2,2.3,2.6,2.5c2.1,0.3,4.2,0.6,6.2,0.6c5.7,0.1,11.4,0.2,17,0.2c1.3,0,2.5-0.2,3.8-0.4c0.9-0.1,1.6-0.7,1.8-1.5
				c0.3-0.9,0.6-1.8,0.7-2.7c0.1-0.9,0-1.8,0.1-2.7c0-1.7,0.1-3.4,0.1-5.2C50.5,49.5,50.5,42,50.5,34.6z"/>
			<path class="st36" d="M50.5,34.6c0,7.5,0,14.9,0,22.4c0,1.7,0,3.4-0.1,5.2c0,0.9,0.1,1.8-0.1,2.7c-0.1,0.9-0.4,1.8-0.7,2.7
				c-0.3,0.9-0.9,1.4-1.8,1.5c-1.3,0.2-2.5,0.4-3.8,0.4c-5.7,0-11.4,0-17-0.2c-2.1,0-4.2-0.3-6.2-0.6c-1.4-0.2-2.2-1-2.6-2.5
				c-0.5-1.9-0.6-3.8-0.5-5.8c0.1-0.8,0.1-1.7,0.1-2.5c0-9,0.1-17.9,0.1-26.9c0-4.5,0-9,0-13.6c0-3.4-0.1-6.8,0-10.1
				c0-1,0.4-2.1,0.7-3.1c0.3-0.9,1.1-1.4,2.1-1.5c1-0.1,2-0.3,3-0.3c7.1-0.1,14.2-0.2,21.3-0.3c1.5,0,2.9,0.1,4.3,0.9
				c0.9,0.5,1.2,1.3,1.4,2.2c0.5,2.6,0.2,5.1,0.2,7.7c0,3.1,0.1,6.2,0,9.3C50.7,26.5,50.6,30.5,50.5,34.6
				C50.5,34.6,50.5,34.6,50.5,34.6z M19.5,62.3c0.5,0,0.9,0,1.3,0c3.4,0.1,6.7,0.4,10.1,0.4c5.7,0,11.4-0.2,17.1-0.2
				c0.6,0,0.7-0.3,0.7-0.7c0-2.1,0.1-4.3,0.1-6.4c0-1.2-0.1-2.4-0.1-3.5c0.1-5.8,0.1-11.7,0.2-17.5c0.1-4,0.2-7.9,0.2-11.9
				c0-3.8,0.1-7.5,0.1-11.3c0-1.7-0.1-1.8-1.8-1.9c-4.1,0-8.2-0.1-12.3-0.1c-4.9,0-9.8,0-14.7,0c-0.8,0-1.1,0.3-1.1,1.1
				c0,1.4-0.1,2.8-0.1,4.2c0,3.2,0.1,6.4,0.1,9.6c0,11,0,22.1,0,33.1c0,1.4,0,2.8,0,4.2C19.4,61.7,19.5,62,19.5,62.3z M34.3,63.7
				c-1.4,0-2.2,0.9-2.2,2.3c0,1,1,1.8,2.2,1.9c1.2,0,2.2-0.9,2.2-2.1C36.4,64.8,35.8,63.6,34.3,63.7z M34.4,6.2
				C34.4,6.2,34.4,6.3,34.4,6.2c1,0.1,1.9,0.1,2.9,0.1c0.2,0,0.4-0.2,0.6-0.4c-0.2-0.2-0.4-0.4-0.6-0.4c-1.9-0.1-3.7-0.1-5.6-0.1
				c-0.3,0-0.7,0-0.7,0.4c0,0.4,0.3,0.5,0.7,0.5C32.6,6.2,33.5,6.2,34.4,6.2z M29,5.8c0-0.5-0.3-0.8-0.8-0.8c-0.5,0-0.8,0.3-0.8,0.8
				c0,0.4,0.4,0.8,0.9,0.8C28.8,6.6,29,6.3,29,5.8z"/>
			<path class="st6" d="M19.5,62.3c0-0.3-0.1-0.6-0.1-1c0-1.4,0-2.8,0-4.2c0-11,0-22.1,0-33.1c0-3.2-0.1-6.4-0.1-9.6
				c0-1.4,0-2.8,0.1-4.2c0-0.8,0.2-1.1,1.1-1.1c4.9,0,9.8,0,14.7,0c4.1,0,8.2,0,12.3,0.1c1.7,0,1.8,0.1,1.8,1.9
				c0,3.8,0,7.5-0.1,11.3c0,4-0.1,7.9-0.2,11.9c-0.1,5.8-0.1,11.7-0.2,17.5c0,1.2,0.1,2.4,0.1,3.5c0,2.1-0.1,4.3-0.1,6.4
				c0,0.5-0.1,0.7-0.7,0.7c-5.7,0.1-11.4,0.2-17.1,0.2c-3.4,0-6.7-0.2-10.1-0.4C20.4,62.3,20,62.3,19.5,62.3z M48.2,61.9
				c0-0.2,0.1-0.3,0.1-0.3c0-2.9,0-5.8,0-8.7c0-4.5-0.1-9,0-13.4c0.1-5.2,0.2-10.3,0.3-15.5c0-0.3,0-0.5,0-0.8c0-4.1,0-8.2,0.1-12.3
				c0-0.3-0.1-0.6-0.1-1c-1.1,0-2.1,0-3.1,0c-8.3-0.1-16.6-0.2-24.9-0.3c-0.5,0-0.7,0.2-0.7,0.7c0,2.6-0.1,5.1-0.1,7.7
				c0,5,0.2,10,0.2,14.9c0,9.2-0.1,18.3-0.1,27.5c0,0.4,0,0.9,0,1.3C29.4,62.4,38.7,62,48.2,61.9z"/>
			<path class="st6" d="M34.3,63.7c1.4-0.1,2.1,1.1,2.1,2.1c0.1,1.2-0.9,2.1-2.2,2.1c-1.2,0-2.2-0.9-2.2-1.9
				C32.1,64.6,33,63.7,34.3,63.7z M34.4,67.1c0.7,0,1.3-0.6,1.3-1.3c0-0.7-0.8-1.5-1.5-1.5c-0.8,0-1.4,0.6-1.4,1.5
				C32.8,66.5,33.5,67.1,34.4,67.1z"/>
			<path class="st6" d="M34.4,6.2c-0.9,0-1.8,0-2.7,0c-0.3,0-0.7,0-0.7-0.5c0-0.4,0.4-0.4,0.7-0.4c1.9,0,3.7,0.1,5.6,0.1
				c0.2,0,0.4,0.3,0.6,0.4c-0.2,0.1-0.4,0.4-0.6,0.4C36.3,6.3,35.4,6.3,34.4,6.2C34.4,6.3,34.4,6.2,34.4,6.2z"/>
			<path class="st6" d="M29,5.8c0,0.5-0.2,0.8-0.7,0.8c-0.5,0-0.9-0.3-0.9-0.8c0-0.5,0.3-0.8,0.8-0.8C28.7,5.1,29,5.3,29,5.8z"/>
			<path class="st37" d="M48.2,61.9c-9.4,0-18.8,0.5-28.3-0.2c0-0.4,0-0.9,0-1.3c0-9.2,0.1-18.3,0.1-27.5c0-5-0.1-10-0.2-14.9
				c0-2.6,0.1-5.1,0.1-7.7c0-0.5,0.2-0.7,0.7-0.7c8.3,0.1,16.6,0.2,24.9,0.3c1,0,2,0,3.1,0c0.1,0.4,0.1,0.7,0.1,1
				c0,4.1,0,8.2-0.1,12.3c0,0.3,0,0.5,0,0.8c-0.1,5.2-0.3,10.3-0.3,15.5c-0.1,4.5,0,9,0,13.4c0,2.9,0,5.8,0,8.7
				C48.2,61.7,48.2,61.8,48.2,61.9z M25.6,42.6c0.4,0,0.8,0,1.2,0c1.3,0,2.6,0,3.9,0c0.6,0,0.9-0.2,1-0.8c0.2-1,0.5-1.9,0.8-2.9
				c0.2-0.8,0.1-1-0.7-1c-2.3,0-4.5,0-6.8,0c-0.6,0-0.8-0.2-0.9-0.7c-0.2-0.9-0.3-1-1.2-0.8c-0.2,0-0.4,0.2-0.5,0.3
				c0.2,0.1,0.3,0.4,0.5,0.4c0.4,0,0.5,0.2,0.6,0.5c0.5,2,1,3.9,1.4,5.9c0.1,0.5,0.3,0.7,0.8,0.7c1.5,0,2.9,0.1,4.4,0.1
				c0.3,0,0.6,0,0.9-0.1c0.1,0,0.3-0.2,0.3-0.4c0-0.1-0.2-0.2-0.3-0.3c-0.2-0.1-0.4,0-0.6,0c-1.4,0-2.7-0.1-4.1,0
				C25.7,43.5,25.5,43.2,25.6,42.6z M45.9,28.6c0.1,0,0.1,0,0.2,0c0-1.6,0-3.1,0-4.7c0-0.6-0.1-0.9-0.8-0.9c-0.4,0-0.8-0.1-1.2-0.1
				c-2.8,0-5.6,0-8.3,0c-0.9,0-1,0-1,1c0,3.1,0,6.1,0,9.2c0,0.6,0.2,0.8,0.8,0.8c3.1,0.1,6.2,0.2,9.3,0.3c0.8,0,0.9-0.1,0.9-0.9
				C45.9,31.7,45.9,30.1,45.9,28.6z M34.8,40.9C34.8,40.9,34.8,40.9,34.8,40.9c-0.1,1.5-0.1,3-0.1,4.5c0,1,0.1,1.1,1.1,1.1
				c2.1,0,4.3-0.1,6.4-0.1c1,0,1.9,0.1,2.9,0.1c0.5,0,0.7-0.2,0.7-0.7c0-0.3,0-0.6,0-0.9c0-2.9,0-5.7,0.1-8.6c0-0.5-0.2-0.7-0.7-0.7
				c-0.6,0-1.3-0.1-1.9-0.1c-2.6,0-5.2,0-7.8-0.1c-0.5,0-0.7,0.2-0.7,0.7C34.9,37.7,34.8,39.3,34.8,40.9z M22.1,28.4
				c0,0,0.1,0,0.1,0c0,1.7,0,3.4,0,5c0,0.5,0.2,0.6,0.6,0.6c0.8,0,1.7,0,2.5,0c2.3,0,4.7,0.1,7,0.1c0.6,0,0.8-0.2,0.9-0.8
				c0-0.2,0-0.3,0-0.5c0-3.1,0-6.1,0-9.2c0-0.5-0.2-0.7-0.7-0.7c-2.4-0.1-4.8-0.2-7.2-0.3c-0.8,0-1.6,0-2.4,0
				c-0.5,0-0.8,0.3-0.7,0.8C22.1,25.1,22.1,26.7,22.1,28.4z M26.9,45.5c0-0.4-0.4-0.8-0.8-0.8c-0.4,0-0.9,0.4-0.9,0.9
				c0,0.5,0.4,0.9,0.9,0.9C26.5,46.4,26.8,46,26.9,45.5z M31.1,45.5c0-0.4-0.4-0.8-0.8-0.7c-0.5,0.1-0.7,0.4-0.7,0.9
				c0,0.5,0.3,0.7,0.7,0.7C30.7,46.4,31.1,45.9,31.1,45.5z"/>
			<path class="st37" d="M34.4,67.1c-0.9,0-1.6-0.6-1.6-1.3c0-0.9,0.6-1.5,1.4-1.5c0.7,0,1.5,0.8,1.5,1.5
				C35.7,66.5,35.1,67.1,34.4,67.1z"/>
			<path class="st6" d="M25.6,42.6c-0.1,0.7,0.1,0.9,0.7,0.9c1.4,0,2.7,0,4.1,0c0.2,0,0.4,0,0.6,0c0.1,0,0.3,0.2,0.3,0.3
				c0,0.1-0.2,0.3-0.3,0.4c-0.3,0.1-0.6,0.1-0.9,0.1c-1.5,0-2.9,0-4.4-0.1c-0.5,0-0.7-0.2-0.8-0.7c-0.4-2-0.9-3.9-1.4-5.9
				c-0.1-0.4-0.2-0.5-0.6-0.5c-0.2,0-0.4-0.2-0.5-0.4c0.2-0.1,0.3-0.3,0.5-0.3c0.9-0.2,1-0.1,1.2,0.8c0.1,0.5,0.3,0.7,0.9,0.7
				c2.3,0,4.5,0,6.8,0c0.8,0,0.9,0.2,0.7,1c-0.3,1-0.6,1.9-0.8,2.9c-0.1,0.6-0.4,0.8-1,0.8c-1.3,0-2.6,0-3.9,0
				C26.4,42.6,26,42.6,25.6,42.6z M26.3,38.7c0,1.3,0.2,1.4,1.5,1.2c0-0.4,0-0.7,0-1.2C27.3,38.7,26.8,38.7,26.3,38.7z M30,38.7
				c-0.5,0-1,0-1.5,0c0,0.4,0,0.8,0,1.1C29.7,40.1,29.8,40,30,38.7z M30.1,41.9c0.9,0.2,1.2-0.1,1.2-1.4
				C30.2,40.3,30,40.6,30.1,41.9z M26.6,40.6c0.1,1.4,0.2,1.6,1.1,1.3c0-0.4,0-0.8,0-1.3c-0.2,0-0.4,0-0.6,0
				C27,40.6,26.9,40.6,26.6,40.6z M24.5,38.7c0.1,1.3,0.2,1.4,1.2,1.1C25.7,38.6,25.6,38.5,24.5,38.7z M30.5,39.8
				c1.1,0.2,1.4,0,1.2-1.1C30.6,38.5,30.5,38.6,30.5,39.8z M28.5,41.9c0.9,0.1,1-0.1,1-1.3c-0.3,0-0.6,0-1,0
				C28.5,41,28.5,41.5,28.5,41.9z M26.2,41.9c-0.1-1.4-0.2-1.5-1.1-1.2C25.2,42,25.2,42,26.2,41.9z"/>
			<path class="st6" d="M45.9,28.6c0,1.6,0,3.1,0,4.7c0,0.8-0.1,0.9-0.9,0.9c-3.1-0.1-6.2-0.2-9.3-0.3c-0.6,0-0.8-0.3-0.8-0.8
				c0-3.1,0-6.1,0-9.2c0-1,0-1,1-1c2.8,0,5.6,0,8.3,0c0.4,0,0.8,0.1,1.2,0.1c0.7-0.1,0.8,0.3,0.8,0.9c0,1.6,0,3.1,0,4.7
				C46.1,28.6,46,28.6,45.9,28.6z M45.4,23.5c-3.2,0-6.5,0-9.8,0c0,0,0,0.1,0,0.2c0,3,0,6.1,0,9.1c0,0.4,0.2,0.4,0.5,0.4
				c2.9,0.1,5.8,0.2,8.7,0.3c0.5,0,0.6-0.2,0.6-0.6c0-1.4,0-2.7,0-4.1C45.4,27.1,45.4,25.4,45.4,23.5z"/>
			<path class="st6" d="M34.8,40.9c0-1.6,0-3.2,0-4.9c0-0.5,0.2-0.7,0.7-0.7c2.6,0.1,5.2,0.1,7.8,0.1c0.6,0,1.3,0.1,1.9,0.1
				c0.5,0,0.7,0.2,0.7,0.7c0,2.9-0.1,5.7-0.1,8.6c0,0.3,0,0.6,0,0.9c0.1,0.5-0.2,0.7-0.7,0.7c-1,0-1.9-0.1-2.9-0.1
				c-2.1,0-4.3,0-6.4,0.1c-1,0-1.1-0.1-1.1-1.1C34.8,43.9,34.8,42.4,34.8,40.9C34.8,40.9,34.8,40.9,34.8,40.9z M45.3,36.2
				C42,36.1,38.8,36,35.4,36c0,3.4,0,6.6,0,9.8c3.2,0,6.5,0,9.8,0C45.3,42.6,45.3,39.5,45.3,36.2z"/>
			<path class="st6" d="M22.1,28.4c0-1.6,0-3.3,0-4.9c0-0.6,0.2-0.8,0.7-0.8c0.8,0,1.6,0,2.4,0c2.4,0.1,4.8,0.2,7.2,0.3
				c0.5,0,0.7,0.2,0.7,0.7c0,3.1,0,6.1,0,9.2c0,0.2,0,0.3,0,0.5c0,0.6-0.3,0.8-0.9,0.8c-2.3-0.1-4.7-0.1-7-0.1c-0.8,0-1.7,0-2.5,0
				c-0.4,0-0.6-0.1-0.6-0.6c0-1.7,0-3.4,0-5C22.2,28.4,22.1,28.4,22.1,28.4z M22.6,33.4c0.2,0,0.2,0,0.3,0c3,0,6,0,9,0
				c0.5,0,0.6-0.2,0.6-0.6c0-2.9,0-5.8,0-8.7c0-0.4-0.1-0.6-0.6-0.6c-2.2-0.1-4.3-0.2-6.5-0.2c-0.9,0-1.8,0-2.8,0
				C22.6,26.6,22.6,30,22.6,33.4z"/>
			<path class="st6" d="M26.9,45.5c0,0.5-0.4,0.9-0.9,0.9c-0.5,0-0.9-0.4-0.9-0.9c0-0.5,0.5-0.9,0.9-0.9
				C26.5,44.7,26.9,45.1,26.9,45.5z"/>
			<path class="st6" d="M31.1,45.5c0,0.4-0.4,0.9-0.8,0.9c-0.5,0-0.7-0.3-0.7-0.7c0-0.5,0.2-0.8,0.7-0.9
				C30.6,44.7,31.1,45.1,31.1,45.5z"/>
			<path class="st37" d="M26.3,38.7c0.5,0,1,0,1.5,0c0,0.4,0,0.8,0,1.2C26.5,40.1,26.3,40,26.3,38.7z"/>
			<path class="st37" d="M30,38.7c-0.2,1.3-0.3,1.3-1.5,1.1c0-0.3,0-0.7,0-1.1C29,38.7,29.5,38.7,30,38.7z"/>
			<path class="st37" d="M30.1,41.9c-0.1-1.3,0.1-1.6,1.2-1.4C31.3,41.8,31,42.1,30.1,41.9z"/>
			<path class="st37" d="M26.6,40.6c0.2,0,0.4,0,0.5,0c0.2,0,0.4,0,0.6,0c0,0.4,0,0.9,0,1.3C26.9,42.1,26.7,42,26.6,40.6z"/>
			<path class="st37" d="M24.5,38.7c1.1-0.2,1.2-0.1,1.2,1.1C24.8,40.1,24.6,39.9,24.5,38.7z"/>
			<path class="st37" d="M30.5,39.8c0-1.2,0.1-1.2,1.2-1.1C31.9,39.7,31.6,40,30.5,39.8z"/>
			<path class="st37" d="M28.5,41.9c0-0.5,0-0.9,0-1.3c0.4,0,0.7,0,1,0C29.6,41.8,29.4,42.1,28.5,41.9z"/>
			<path class="st37" d="M26.2,41.9C25.2,42,25.2,42,25,40.6C25.9,40.4,26.1,40.5,26.2,41.9z"/>
			<path class="st33" d="M45.4,23.5c0,1.9,0,3.6,0,5.3c0,1.4,0,2.7,0,4.1c0,0.5-0.1,0.7-0.6,0.6c-2.9-0.1-5.8-0.2-8.7-0.3
				c-0.3,0-0.5,0-0.5-0.4c0-3,0-6.1,0-9.1c0-0.1,0-0.2,0-0.2C38.8,23.5,42.1,23.5,45.4,23.5z"/>
			<path class="st38" d="M45.3,36.2c0,3.3,0,6.5,0,9.6c-3.3,0-6.6,0-9.8,0c0-3.2,0-6.4,0-9.8C38.8,36,42,36.1,45.3,36.2z"/>
			<path class="st32" d="M22.6,33.4c0-3.4,0-6.8,0-10.1c1,0,1.9,0,2.8,0c2.2,0.1,4.3,0.2,6.5,0.2c0.5,0,0.6,0.2,0.6,0.6
				c0,2.9,0,5.8,0,8.7c0,0.4-0.1,0.6-0.6,0.6c-3,0-6,0-9,0C22.9,33.4,22.8,33.4,22.6,33.4z"/>
		</g>
	</g>
</g>
<g id="Calque_3">
</g>
</svg>
