<?xml version="1.0" encoding="utf-8"?>
<!-- Generator: Adobe Illustrator 23.0.1, SVG Export Plug-In . SVG Version: 6.00 Build 0)  -->
<svg version="1.1" xmlns="http://www.w3.org/2000/svg" x="0px" y="0px"
     viewBox="0 0 72 72" style="enable-background:new 0 0 72 72;" xml:space="preserve">
<style type="text/css">
	.st0{opacity:0.4;fill:url(#SVGID_1_);}
	.st1{opacity:0.6;fill:url(#SVGID_2_);}
	.st2{opacity:0.6;fill:url(#SVGID_3_);}
	.st3{opacity:0.6;fill:url(#SVGID_4_);}
	.st4{opacity:0.6;fill:url(#SVGID_5_);}
	.st5{opacity:0.6;fill:url(#SVGID_6_);}
	.st6{fill:#1F2B50;}
	.st7{fill:none;stroke:#1F2B50;stroke-width:3;stroke-miterlimit:10;}
	.st8{opacity:0.4;fill:url(#SVGID_7_);}
	.st9{opacity:0.4;fill:url(#SVGID_8_);}
	.st10{opacity:0.6;fill:url(#SVGID_9_);}
	.st11{opacity:0.6;fill:url(#SVGID_10_);}
	.st12{opacity:0.4;fill:url(#SVGID_11_);}
	.st13{opacity:0.4;fill:url(#SVGID_12_);}
	.st14{opacity:0.4;fill:url(#SVGID_13_);}
	.st15{opacity:0.4;fill:url(#SVGID_14_);}
	.st16{opacity:0.4;fill:url(#SVGID_15_);}
	.st17{opacity:0.4;fill:url(#SVGID_16_);}
	.st18{opacity:0.4;fill:url(#SVGID_17_);}
	.st19{fill:url(#SVGID_18_);}
	.st20{fill:url(#SVGID_19_);}
	.st21{fill:url(#SVGID_20_);}
	.st22{opacity:0.6;fill:url(#SVGID_21_);}
	.st23{opacity:0.6;fill:url(#SVGID_22_);}
	.st24{opacity:0.6;fill:url(#SVGID_23_);}
	.st25{opacity:0.6;fill:url(#SVGID_24_);}
	.st26{opacity:0.6;fill:url(#SVGID_25_);}
	.st27{opacity:0.6;fill:url(#SVGID_26_);}
	.st28{opacity:0.6;fill:url(#SVGID_27_);}
	.st29{opacity:0.6;fill:url(#SVGID_28_);}
	.st30{fill:url(#SVGID_29_);}
	.st31{fill:url(#SVGID_30_);}
	.st32{fill:#EA9001;}
	.st33{fill:#407EA7;}
	.st34{opacity:0.5;fill:#FFFFFF;}
	.st35{fill:none;stroke:#EA9001;stroke-width:2;stroke-miterlimit:10;}
	.st36{fill:#BECBCC;}
	.st37{fill:#FFFFFF;}
	.st38{fill:#979B9B;}
	.st39{fill:none;stroke:#407EA7;stroke-width:3;stroke-miterlimit:10;}
	.st40{fill:none;stroke:#407EA7;stroke-width:3.0377;stroke-miterlimit:10;}
	.st41{fill:none;stroke:#407EA7;stroke-width:2.8985;stroke-miterlimit:10;}
	.st42{fill:none;stroke:#407EA7;stroke-width:2.933;stroke-miterlimit:10;}
	.st43{fill:none;stroke:#EA9001;stroke-width:1.8227;stroke-miterlimit:10;}
	.st44{fill:#AAB2B2;}
	.st45{fill:none;stroke:#407EA7;stroke-width:3.0142;stroke-miterlimit:10;}
	.st46{fill:none;stroke:#407EA7;stroke-width:3.0512;stroke-miterlimit:10;}
	.st47{fill:#D3DDDD;}
	.st48{fill:none;stroke:#1F2B50;stroke-miterlimit:10;}
	.st49{fill:#BECBCC;stroke:#1F2B50;stroke-width:0.75;stroke-miterlimit:10;}
	.st50{fill:url(#SVGID_31_);}
	.st51{fill:none;stroke:#407EA7;stroke-width:2.8066;stroke-linecap:round;stroke-miterlimit:10;}
	.st52{fill:none;stroke:#407EA7;stroke-width:2.7511;stroke-linecap:round;stroke-miterlimit:10;}
	.st53{fill:url(#SVGID_32_);}
	.st54{fill:none;stroke:#EA9001;stroke-width:0.8;stroke-miterlimit:10;}
	.st55{fill:none;stroke:#407EA7;stroke-width:1.2;stroke-miterlimit:10;}
	.st56{fill:none;stroke:#407EA7;stroke-width:1.2151;stroke-miterlimit:10;}
	.st57{fill:none;stroke:#407EA7;stroke-width:1.1594;stroke-miterlimit:10;}
	.st58{fill:none;stroke:#407EA7;stroke-width:1.1732;stroke-miterlimit:10;}
	.st59{fill:url(#SVGID_33_);}
	.st60{fill:none;stroke:#1F2B50;stroke-width:0.4;stroke-miterlimit:10;}
	.st61{fill:#BECBCC;stroke:#1F2B50;stroke-width:0.3;stroke-miterlimit:10;}
	.st62{fill:none;stroke:#407EA7;stroke-width:1.1226;stroke-linecap:round;stroke-miterlimit:10;}
	.st63{fill:none;stroke:#407EA7;stroke-width:1.1004;stroke-linecap:round;stroke-miterlimit:10;}
	.st64{fill:url(#SVGID_34_);}
	.st65{fill:url(#SVGID_35_);}
</style>
<g id="Calque_2">
</g>
<g id="Calque_1">
	<g>
		<path class="st6" d="M9.1,43.7c-0.2,0.7-0.4,1.3-0.5,2c-0.5,2.7,0.3,5.2,1.2,7.6c0.1,0.3,0,0.8,0,1.1c-0.4,0-0.8,0.1-1.2-0.1
			c-2.5-1.2-4.3-3.3-5.7-5.6c-3.3-5.6-2.4-10.9,0.9-16.1c1.3-2.1,2.7-4.1,3.9-6.3c1-1.7,1.6-3.6,1.6-5.7c0-0.6,0.2-0.8,0.8-0.5
			c2.2,1.4,4.2,3,5.8,5.2c1.7,2.5,2.6,5.2,3.1,8.1c0.7,3.8,0.9,7.6-0.4,11.4c-0.9,2.6-2.4,4.8-4.3,6.9c-0.4,0.5-0.8,0.9-1.2,1.4
			c-0.5,0.7-0.9,0.7-1.3-0.1c-1.6-2.9-3-5.9-2.4-9.4C9.3,43.8,9.2,43.7,9.1,43.7z M9,53.8c0-0.1,0.1-0.2,0.1-0.2
			C9,53.3,8.9,53,8.8,52.7c-0.8-2.2-1.3-4.5-1-6.9c0.2-1.4,0.7-2.6,1.6-3.7c0.1-0.2,0.5-0.2,0.7-0.3c0.1,0.2,0.3,0.5,0.2,0.7
			c-0.1,0.7-0.2,1.3-0.3,2c-0.3,3.1,0.9,5.7,2.4,8.4c0.9-1,1.6-1.9,2.4-2.8c1.4-1.7,2.4-3.6,3.1-5.6c1.4-4.3,0.8-8.5-0.2-12.7
			c-0.8-3.4-2.5-6.3-5.1-8.7c-0.7-0.7-1.6-1.2-2.3-1.8c-0.4,1.3-0.6,2.5-1,3.6c-1,3-2.9,5.5-4.7,8.2C1.3,38,0.7,43,3.7,48.2
			C5,50.5,6.8,52.3,9,53.8z"/>
		<path class="st32" d="M9,53.8c-2.3-1.4-4-3.3-5.3-5.6c-3-5.2-2.4-10.2,0.8-15C6.3,30.6,8.2,28,9.2,25c0.4-1.1,0.7-2.3,1-3.6
			c0.8,0.6,1.6,1.1,2.3,1.8c2.6,2.4,4.3,5.2,5.1,8.7c0.9,4.2,1.6,8.4,0.2,12.7c-0.7,2.1-1.7,4-3.1,5.6c-0.8,0.9-1.5,1.8-2.4,2.8
			c-1.4-2.7-2.7-5.3-2.4-8.4c0.1-0.7,0.2-1.3,0.3-2c0-0.2-0.2-0.4-0.2-0.7c-0.2,0.1-0.6,0.1-0.7,0.3c-0.9,1.1-1.4,2.3-1.6,3.7
			c-0.3,2.4,0.2,4.7,1,6.9C8.9,53,9,53.3,9.1,53.5C9.1,53.6,9.1,53.6,9,53.8z"/>
	</g>
	<g>
		<path class="st6" d="M71,44.2c-0.1,0.9-0.1,1.8-0.2,2.7c-0.4,3.3-2.3,5.4-5.3,6.6c-3.1,1.2-7.8-0.2-9.8-2.9
			c-1.1-1.4-1.4-3.1-1.4-4.9c-0.1-4.3,1.3-8.2,3-12c1.7-3.8,3.3-7.6,5-11.4c0.1-0.2,0.3-0.4,0.5-0.7c0.2,0.2,0.5,0.4,0.6,0.7
			c1.9,4.7,3.8,9.4,5.8,14.1C70.2,38.9,71.1,41.4,71,44.2z M62.8,23.5c-0.1,0.2-0.2,0.4-0.3,0.7c-1.5,3.3-3,6.7-4.4,10
			c-1.6,3.7-3,7.4-2.9,11.6c0.1,3,1.4,5.4,4.3,6.4c1.1,0.4,2.4,0.5,3.6,0.6c2.9,0.4,6.3-2.7,6.7-5.5c0.5-3.2,0.3-6.4-1-9.4
			c-1-2.4-2-4.9-3.1-7.3C64.7,28.2,63.8,25.9,62.8,23.5z"/>
		<path class="st33" d="M62.8,23.5c1,2.4,2,4.7,2.9,7c1,2.4,2,4.9,3.1,7.3c1.3,3.1,1.5,6.2,1,9.4c-0.4,2.8-3.8,5.9-6.7,5.5
			c-1.2-0.1-2.5-0.2-3.6-0.6c-2.9-1.1-4.2-3.4-4.3-6.4c-0.1-4.1,1.3-7.9,2.9-11.6c1.5-3.4,2.9-6.7,4.4-10
			C62.5,24,62.6,23.8,62.8,23.5z"/>
	</g>
	<g>
		<path class="st6" d="M31.8,46.1C31.8,46,31.7,46,31.8,46.1c0.5-2.2-0.5-3.5-2-4.7c-1.6-1.3-3-2.9-3.7-4.9
			c-2-5.3-0.6-11.2,3.9-14.4c7-4.9,14.8-1.8,17.7,4.2c1.4,2.8,1.3,5.9,0.3,8.9c-1.1,3.2-2.8,6-5.9,7.6c-0.2,0.1-0.4,0.5-0.4,0.8
			c0,1.3,0,2.7,0,4c0,1.4-0.2,1.6-1.5,2c-0.2,0.1-0.3,0.2-0.4,0.4c-0.1,0.1-0.1,0.2-0.1,0.3c-0.5,2.8-2.7,2.8-4.7,2.2
			c-1-0.3-1.2-1.3-1.4-2.1c-0.1-0.5-0.3-0.8-0.8-0.9c-0.6-0.2-0.9-0.7-0.9-1.3C31.7,47.5,31.7,46.8,31.8,46.1
			C31.7,46.1,31.8,46.1,31.8,46.1z M40.7,46c0-1-0.1-1.9,0-2.7c0-0.4,0.3-1,0.6-1.2c3-1.5,4.7-4.2,5.6-7.3c0.9-2.9,0.9-5.8-0.5-8.5
			c-1.2-2.5-3.3-3.9-5.8-5c-4.2-1.8-9.8,0.4-11.9,2.8c-4.2,4.7-3.3,12,0.5,15.5c0.9,0.9,1.9,1.8,2.7,2.8c0.3,0.4,0.5,1,0.6,1.5
			c0.1,0.7,0,1.3,0,2.1C35.3,46,38,46,40.7,46z M32.4,46.7c-0.3,1.8-0.1,2.2,1.7,2.2c1.8,0,3.7-0.1,5.5-0.1c0.8,0,1.2-0.4,1.2-1.1
			c0-0.3,0-0.6,0-1C38,46.7,35.2,46.7,32.4,46.7z M34.1,49.8c0.3,1.9,0.9,2.3,2.7,2.1c1.4-0.1,2-0.8,2-2.1
			C37.2,49.8,35.7,49.8,34.1,49.8z"/>
		<path class="st36" d="M40.7,46c-2.7,0-5.4,0-8.1,0c0-0.7,0.1-1.4,0-2.1c-0.1-0.5-0.3-1.1-0.6-1.5c-0.9-1-1.8-1.9-2.7-2.8
			c-3.7-3.5-4.6-10.8-0.5-15.5c2.1-2.4,7.7-4.6,11.9-2.8c2.5,1.1,4.6,2.5,5.8,5c1.4,2.8,1.4,5.7,0.5,8.5c-1,3.1-2.6,5.7-5.6,7.3
			c-0.3,0.2-0.5,0.8-0.6,1.2C40.7,44.2,40.7,45,40.7,46z M35.1,22.6c-0.2,0-0.4,0-0.6,0.1c-3,0.9-5.3,2.8-5.8,6.2
			c-0.2,1.1,0.1,2.2,0.2,3.4c0,0.3,0.4,0.5,0.6,0.8c0.2-0.3,0.3-0.5,0.5-0.8c0.1-0.2,0.1-0.4,0.1-0.6c0.3-2.1,1-4.1,2.5-5.6
			c0.9-0.9,2-1.7,3.1-2.5c0.2-0.1,0.3-0.4,0.4-0.6c-0.2-0.1-0.4-0.2-0.6-0.3C35.4,22.7,35.2,22.7,35.1,22.6z"/>
		<path class="st38" d="M32.4,46.7c2.9,0,5.6,0,8.5,0c0,0.4,0,0.7,0,1c0,0.8-0.4,1.1-1.2,1.1c-1.8,0-3.7,0.1-5.5,0.1
			C32.3,48.9,32.1,48.6,32.4,46.7z"/>
		<path class="st38" d="M34.1,49.8c1.6,0,3.1,0,4.6,0c0,1.3-0.5,2-2,2.1C35,52.1,34.4,51.7,34.1,49.8z"/>
		<path class="st6" d="M35.1,22.6c0.2,0,0.3,0,0.4,0.1c0.2,0.1,0.4,0.2,0.6,0.3c-0.1,0.2-0.2,0.4-0.4,0.6c-1,0.8-2.1,1.6-3.1,2.5
			c-1.5,1.5-2.2,3.5-2.5,5.6c0,0.2,0,0.4-0.1,0.6c-0.1,0.3-0.3,0.5-0.5,0.8c-0.2-0.3-0.5-0.5-0.6-0.8c-0.1-1.1-0.4-2.3-0.2-3.4
			c0.5-3.5,2.8-5.3,5.8-6.2C34.7,22.7,34.9,22.7,35.1,22.6z M33.8,23.7c-3.2,0.9-5.7,5.1-4.4,7.6C30,28.2,31.3,25.6,33.8,23.7z"/>
		<path class="st37" d="M33.8,23.7c-2.5,1.9-3.8,4.5-4.4,7.6C28.1,28.8,30.6,24.6,33.8,23.7z"/>
	</g>
</g>
<g id="Calque_3">
</g>
</svg>
