<?xml version="1.0" encoding="utf-8"?>
<!-- Generator: Adobe Illustrator 23.0.1, SVG Export Plug-In . SVG Version: 6.00 Build 0)  -->
<svg version="1.1" xmlns="http://www.w3.org/2000/svg" x="0px" y="0px"
     viewBox="0 0 72 72" style="enable-background:new 0 0 72 72;" xml:space="preserve">
<style type="text/css">
	.st0{opacity:0.4;fill:url(#SVGID_1_);}
	.st1{opacity:0.6;fill:url(#SVGID_2_);}
	.st2{opacity:0.6;fill:url(#SVGID_3_);}
	.st3{opacity:0.6;fill:url(#SVGID_4_);}
	.st4{opacity:0.6;fill:url(#SVGID_5_);}
	.st5{opacity:0.6;fill:url(#SVGID_6_);}
	.st6{fill:#1F2B50;}
	.st7{fill:none;stroke:#1F2B50;stroke-width:3;stroke-miterlimit:10;}
	.st8{opacity:0.4;fill:url(#SVGID_7_);}
	.st9{opacity:0.4;fill:url(#SVGID_8_);}
	.st10{opacity:0.6;fill:url(#SVGID_9_);}
	.st11{opacity:0.6;fill:url(#SVGID_10_);}
	.st12{opacity:0.4;fill:url(#SVGID_11_);}
	.st13{opacity:0.4;fill:url(#SVGID_12_);}
	.st14{opacity:0.4;fill:url(#SVGID_13_);}
	.st15{opacity:0.4;fill:url(#SVGID_14_);}
	.st16{opacity:0.4;fill:url(#SVGID_15_);}
	.st17{opacity:0.4;fill:url(#SVGID_16_);}
	.st18{opacity:0.4;fill:url(#SVGID_17_);}
	.st19{fill:url(#SVGID_18_);}
	.st20{fill:url(#SVGID_19_);}
	.st21{fill:url(#SVGID_20_);}
	.st22{opacity:0.6;fill:url(#SVGID_21_);}
	.st23{opacity:0.6;fill:url(#SVGID_22_);}
	.st24{opacity:0.6;fill:url(#SVGID_23_);}
	.st25{opacity:0.6;fill:url(#SVGID_24_);}
	.st26{opacity:0.6;fill:url(#SVGID_25_);}
	.st27{opacity:0.6;fill:url(#SVGID_26_);}
	.st28{opacity:0.6;fill:url(#SVGID_27_);}
	.st29{opacity:0.6;fill:url(#SVGID_28_);}
	.st30{fill:url(#SVGID_29_);}
	.st31{fill:url(#SVGID_30_);}
	.st32{fill:#EA9001;}
	.st33{fill:#407EA7;}
	.st34{opacity:0.5;fill:#FFFFFF;}
	.st35{fill:none;stroke:#EA9001;stroke-width:2;stroke-miterlimit:10;}
	.st36{fill:#BECBCC;}
	.st37{fill:#FFFFFF;}
	.st38{fill:#979B9B;}
	.st39{fill:none;stroke:#407EA7;stroke-width:3;stroke-miterlimit:10;}
	.st40{fill:none;stroke:#407EA7;stroke-width:3.0377;stroke-miterlimit:10;}
	.st41{fill:none;stroke:#407EA7;stroke-width:2.8985;stroke-miterlimit:10;}
	.st42{fill:none;stroke:#407EA7;stroke-width:2.933;stroke-miterlimit:10;}
	.st43{fill:none;stroke:#EA9001;stroke-width:1.8227;stroke-miterlimit:10;}
	.st44{fill:#AAB2B2;}
	.st45{fill:none;stroke:#407EA7;stroke-width:3.0142;stroke-miterlimit:10;}
	.st46{fill:none;stroke:#407EA7;stroke-width:3.0512;stroke-miterlimit:10;}
	.st47{fill:#D3DDDD;}
	.st48{fill:none;stroke:#1F2B50;stroke-miterlimit:10;}
	.st49{fill:#BECBCC;stroke:#1F2B50;stroke-width:0.75;stroke-miterlimit:10;}
	.st50{fill:url(#SVGID_31_);}
	.st51{fill:none;stroke:#407EA7;stroke-width:2.8066;stroke-linecap:round;stroke-miterlimit:10;}
	.st52{fill:none;stroke:#407EA7;stroke-width:2.7511;stroke-linecap:round;stroke-miterlimit:10;}
	.st53{fill:url(#SVGID_32_);}
	.st54{fill:none;stroke:#EA9001;stroke-width:0.8;stroke-miterlimit:10;}
	.st55{fill:none;stroke:#407EA7;stroke-width:1.2;stroke-miterlimit:10;}
	.st56{fill:none;stroke:#407EA7;stroke-width:1.2151;stroke-miterlimit:10;}
	.st57{fill:none;stroke:#407EA7;stroke-width:1.1594;stroke-miterlimit:10;}
	.st58{fill:none;stroke:#407EA7;stroke-width:1.1732;stroke-miterlimit:10;}
	.st59{fill:url(#SVGID_33_);}
	.st60{fill:none;stroke:#1F2B50;stroke-width:0.4;stroke-miterlimit:10;}
	.st61{fill:#BECBCC;stroke:#1F2B50;stroke-width:0.3;stroke-miterlimit:10;}
	.st62{fill:none;stroke:#407EA7;stroke-width:1.1226;stroke-linecap:round;stroke-miterlimit:10;}
	.st63{fill:none;stroke:#407EA7;stroke-width:1.1004;stroke-linecap:round;stroke-miterlimit:10;}
	.st64{fill:url(#SVGID_34_);}
	.st65{fill:url(#SVGID_35_);}
</style>
<g id="Calque_2">
</g>
<g id="Calque_1">
	<g id="ueXZ5e.tif_5_">
		<g>
			<path class="st6" d="M36.7,13.5c0.8-0.8,1.6-1.6,2.3-2.5c2-2.2,4.5-3.8,7.2-4.9c2-0.8,4.2-1.1,6.4-1.2c2.5-0.1,5,0.3,7.3,1.2
				c1.3,0.5,2.4,1.2,3.4,2c2.1,1.6,3.7,3.6,5,5.9c0.8,1.4,1.3,3.1,1.9,4.6c1,3,1.2,6.1,1.1,9.3c-0.1,1.9-0.7,3.8-1.3,5.6
				c-0.9,2.5-2.3,4.6-3.8,6.7c-1.6,2.2-3.3,4.3-5.1,6.3C57.4,51,53.2,55.1,49,59.2c-2.6,2.6-5.2,5.2-7.9,7.7c-1.3,1.2-2.7,2.2-4,3.3
				c-0.4,0.3-0.8,0.4-1.3,0.1c-1.1-0.9-2.3-1.7-3.3-2.6c-2.4-2.3-4.9-4.6-7.2-6.9c-2.5-2.6-4.9-5.2-7.3-7.9c-1.4-1.5-2.7-3-4.1-4.4
				c-2.5-2.7-5-5.4-7.2-8.3c-1.4-2-2.5-4.1-3.5-6.4c-0.1-0.2-0.2-0.5-0.3-0.7c-1.4-2.6-1.5-5.3-1.4-8.2c0.2-4.5,1.8-8.6,4.3-12.3
				c1.7-2.6,4-4.5,6.7-5.9c1.7-0.9,3.6-1.5,5.5-1.8c1.9-0.3,3.8-0.3,5.7,0.2c1.5,0.4,3,0.8,4.5,1.3c1.7,0.7,3.1,1.7,4.4,3.1
				c0.3,0.3,0.6,0.6,0.9,0.8C34.5,11.4,35.6,12.4,36.7,13.5z M2.1,26.4c0,2,0.2,4,1,5.8c0.6,1.2,1.1,2.4,1.7,3.6
				C5.9,38.1,7.3,40.1,9,42c2.5,2.9,5.2,5.7,7.8,8.6c2.7,3,5.4,6,8.3,9c2.7,2.8,5.5,5.4,8.2,8c0.7,0.7,1.5,1.4,2.4,2
				c0.7,0.5,0.8,0.5,1.5,0c2.3-2,4.6-3.9,6.8-6c4.5-4.5,9-9,13.4-13.6c3.6-3.7,7-7.6,9.9-11.9c2-3.1,3.4-6.4,3.7-10.1
				c0.2-3.2-0.1-6.4-1.2-9.5c-0.5-1.4-0.9-2.9-1.7-4.2c-1.3-2.1-2.8-4.1-4.8-5.7c-1-0.8-2.1-1.5-3.3-1.9c-2.2-0.9-4.6-1.2-7-1.2
				c-4.1,0-7.9,1.3-11.1,3.8c-1.6,1.3-3,2.9-4.5,4.4c-0.5,0.5-0.6,0.5-1.1,0.1c-1-1-2-2-3.1-3c-0.3-0.3-0.7-0.6-1-1
				c-1.2-1.3-2.6-2.3-4.2-2.9c-1.7-0.6-3.5-1.2-5.3-1.5c-1.4-0.2-3-0.1-4.4,0c-1.9,0.2-3.6,0.9-5.3,1.8c-2.6,1.3-4.8,3.1-6.4,5.5
				C3.7,16.9,2.1,21.4,2.1,26.4z"/>
			<path class="st33" d="M2.1,26.4c-0.1-5,1.6-9.5,4.3-13.6c1.6-2.4,3.8-4.2,6.4-5.5c1.7-0.9,3.5-1.5,5.3-1.8c1.5-0.2,3-0.3,4.4,0
				c1.8,0.3,3.6,0.8,5.3,1.5c1.6,0.6,3,1.6,4.2,2.9c0.3,0.4,0.7,0.6,1,1c1,1,2,2,3.1,3c0.5,0.5,0.6,0.4,1.1-0.1
				c1.5-1.5,2.9-3.1,4.5-4.4c3.2-2.6,7-3.8,11.1-3.8c2.4,0,4.7,0.3,7,1.2c1.2,0.5,2.3,1.1,3.3,1.9c2,1.5,3.6,3.5,4.8,5.7
				c0.8,1.3,1.2,2.7,1.7,4.2c1.1,3.1,1.4,6.3,1.2,9.5c-0.3,3.7-1.7,7-3.7,10.1c-2.8,4.3-6.3,8.2-9.9,11.9
				c-4.4,4.6-8.9,9.1-13.4,13.6c-2.2,2.1-4.5,4-6.8,6c-0.6,0.5-0.7,0.5-1.5,0c-0.8-0.6-1.6-1.3-2.4-2c-2.8-2.7-5.6-5.3-8.2-8
				c-2.8-2.9-5.5-6-8.3-9c-2.6-2.9-5.2-5.7-7.8-8.6c-1.6-1.9-3.1-3.9-4.1-6.2c-0.6-1.2-1.1-2.4-1.7-3.6C2.3,30.3,2.1,28.4,2.1,26.4z
				 M32.3,40.3c0,0.7,0,1.3,0,2c0,2.6,0,5.3,0,7.9c0,1-0.2,0.9,1,1c0,0,0.1,0,0.1,0c1.8,0,3.6,0,5.4,0c0.5,0,1.1,0,1.6,0
				c0.2,0,0.4-0.1,0.4-0.4c0-2.5-0.1-5.1-0.1-7.6c0-0.9,0-1.9,0-2.8c0.3,0,0.4,0,0.6,0c3.2,0,6.5-0.1,9.7-0.1c0.7,0,0.7-0.1,0.7-0.8
				c0-2.1,0-4.3,0-6.4c0-0.8,0-0.8-0.9-0.9c-0.2,0-0.4,0-0.6,0c-2.4,0-4.7-0.1-7.1-0.1c-0.8,0-1.5,0-2.3,0c0-0.3,0-0.4,0-0.5
				c0-3.3,0.1-6.6,0.1-9.9c0-0.3,0.1-0.7-0.5-0.8c-0.8,0-1.6-0.1-2.4-0.1c-1.6,0-3.3,0-4.9,0.1c-1,0-1,0-1,1.1c0,3.2,0,6.4,0,9.6
				c0,0.1,0,0.3,0,0.4c-0.2,0-0.4,0.1-0.5,0.1c-1.3,0-2.6-0.1-3.9-0.1c-1.8,0-3.6,0.1-5.4,0.1c-0.4,0-0.7,0.3-0.7,0.7
				c0,0.2,0,0.4,0,0.6c0.1,2.2,0.1,4.3,0.2,6.5c0,0.4,0.1,0.6,0.6,0.6c2.6,0,5.2-0.1,7.8-0.1C30.8,40.3,31.5,40.3,32.3,40.3z"/>
			<path class="st6" d="M32.3,40.3c-0.8,0-1.5,0-2.3,0c-2.6,0-5.2,0-7.8,0.1c-0.4,0-0.5-0.2-0.6-0.6c0-2.2-0.1-4.3-0.2-6.5
				c0-0.2,0-0.4,0-0.6c0-0.4,0.2-0.7,0.7-0.7c1.8,0,3.6-0.1,5.4-0.1c1.3,0,2.6,0.1,3.9,0.1c0.2,0,0.3,0,0.5-0.1c0-0.2,0-0.3,0-0.4
				c0-3.2,0-6.4,0-9.6c0-1,0-1,1-1.1c1.6,0,3.3-0.1,4.9-0.1c0.8,0,1.6,0.1,2.4,0.1c0.5,0,0.5,0.5,0.5,0.8c0,3.3,0,6.6-0.1,9.9
				c0,0.1,0,0.2,0,0.5c0.8,0,1.5,0,2.3,0c2.4,0,4.7,0.1,7.1,0.1c0.2,0,0.4,0,0.6,0c0.8,0.1,0.9,0.1,0.9,0.9c0,2.1,0,4.3,0,6.4
				c0,0.7,0,0.7-0.7,0.8c-3.2,0.1-6.5,0.1-9.7,0.1c-0.2,0-0.3,0-0.6,0c0,1,0,1.9,0,2.8c0,2.5,0.1,5.1,0.1,7.6c0,0.3-0.1,0.4-0.4,0.4
				c-0.5,0-1.1,0-1.6,0c-1.8,0-3.6,0-5.4,0c0,0-0.1,0-0.1,0c-1.1-0.1-1,0-1-1c0-2.6,0-5.3,0-7.9C32.3,41.6,32.3,40.9,32.3,40.3z
				 M32.8,50.5c0.2,0,0.3,0,0.5,0c2,0,4.1,0,6.1,0c0.8,0,0.8,0,0.8-0.7c0-3.2,0-6.3,0-9.5c0-0.5,0.2-0.6,0.7-0.6
				c3.3,0,6.6-0.1,9.9-0.1c0.3,0,0.4-0.1,0.4-0.4c0-2.1-0.1-4.2-0.1-6.3c0-0.1,0-0.2,0-0.2c-3.3-0.1-6.6-0.2-9.9-0.2
				c-0.7,0-0.8-0.1-0.8-0.8c0-2.4,0-4.7,0-7.1c0-1,0-2,0-3c-2.5-0.4-5.1-0.1-7.6-0.2c0,0.3,0,0.4,0,0.6c0,3.3,0,6.6,0,9.8
				c0,0.5-0.2,0.6-0.6,0.7c-1,0-1.9,0-2.9,0c-2.1,0-4.2,0-6.3,0c-0.5,0-0.7,0.2-0.6,0.7c0.1,2,0.1,3.9,0.1,5.9c0,0.8,0,0.8,0.8,0.8
				c2.8,0,5.6,0,8.5-0.1c0.4,0,0.8,0,1.3,0C33,43.3,32.9,46.9,32.8,50.5z"/>
			<path class="st37" d="M32.8,50.5c0.1-3.7,0.1-7.3-0.1-10.8c-0.5,0-0.9,0-1.3,0c-2.8,0-5.6,0-8.5,0.1c-0.8,0-0.8,0-0.8-0.8
				c0-2-0.1-3.9-0.1-5.9c0-0.5,0.1-0.7,0.6-0.7c2.1,0,4.2,0,6.3,0c1,0,1.9,0,2.9,0c0.4,0,0.6-0.2,0.6-0.7c0-3.3,0-6.6,0-9.8
				c0-0.2,0-0.4,0-0.6c2.6,0,5.1-0.2,7.6,0.2c0,1,0,2,0,3c0,2.4,0,4.7,0,7.1c0,0.7,0.1,0.8,0.8,0.8c3.3,0.1,6.6,0.2,9.9,0.2
				c0,0.1,0,0.2,0,0.2c0,2.1,0,4.2,0.1,6.3c0,0.3-0.1,0.4-0.4,0.4c-3.3,0-6.6,0.1-9.9,0.1c-0.4,0-0.7,0.1-0.7,0.6c0,3.2,0,6.3,0,9.5
				c0,0.8,0,0.7-0.8,0.7c-2,0-4.1,0-6.1,0C33.2,50.5,33,50.5,32.8,50.5z"/>
		</g>
	</g>
</g>
<g id="Calque_3">
</g>
</svg>
