<?xml version="1.0" encoding="utf-8"?>
<!-- Generator: Adobe Illustrator 23.0.1, SVG Export Plug-In . SVG Version: 6.00 Build 0)  -->
<svg version="1.1" xmlns="http://www.w3.org/2000/svg" x="0px" y="0px"
     viewBox="0 0 72 72" style="enable-background:new 0 0 72 72;" xml:space="preserve">
<style type="text/css">
	.st0{opacity:0.4;fill:url(#SVGID_1_);}
	.st1{opacity:0.6;fill:url(#SVGID_2_);}
	.st2{opacity:0.6;fill:url(#SVGID_3_);}
	.st3{opacity:0.6;fill:url(#SVGID_4_);}
	.st4{opacity:0.6;fill:url(#SVGID_5_);}
	.st5{opacity:0.6;fill:url(#SVGID_6_);}
	.st6{fill:#1F2B50;}
	.st7{fill:none;stroke:#1F2B50;stroke-width:3;stroke-miterlimit:10;}
	.st8{opacity:0.4;fill:url(#SVGID_7_);}
	.st9{opacity:0.4;fill:url(#SVGID_8_);}
	.st10{opacity:0.6;fill:url(#SVGID_9_);}
	.st11{opacity:0.6;fill:url(#SVGID_10_);}
	.st12{opacity:0.4;fill:url(#SVGID_11_);}
	.st13{opacity:0.4;fill:url(#SVGID_12_);}
	.st14{opacity:0.4;fill:url(#SVGID_13_);}
	.st15{opacity:0.4;fill:url(#SVGID_14_);}
	.st16{opacity:0.4;fill:url(#SVGID_15_);}
	.st17{opacity:0.4;fill:url(#SVGID_16_);}
	.st18{opacity:0.4;fill:url(#SVGID_17_);}
	.st19{fill:url(#SVGID_18_);}
	.st20{fill:url(#SVGID_19_);}
	.st21{fill:url(#SVGID_20_);}
	.st22{opacity:0.6;fill:url(#SVGID_21_);}
	.st23{opacity:0.6;fill:url(#SVGID_22_);}
	.st24{opacity:0.6;fill:url(#SVGID_23_);}
	.st25{opacity:0.6;fill:url(#SVGID_24_);}
	.st26{opacity:0.6;fill:url(#SVGID_25_);}
	.st27{opacity:0.6;fill:url(#SVGID_26_);}
	.st28{opacity:0.6;fill:url(#SVGID_27_);}
	.st29{opacity:0.6;fill:url(#SVGID_28_);}
	.st30{fill:url(#SVGID_29_);}
	.st31{fill:url(#SVGID_30_);}
	.st32{fill:#EA9001;}
	.st33{fill:#407EA7;}
	.st34{opacity:0.5;fill:#FFFFFF;}
	.st35{fill:none;stroke:#EA9001;stroke-width:2;stroke-miterlimit:10;}
	.st36{fill:#BECBCC;}
	.st37{fill:#FFFFFF;}
	.st38{fill:#979B9B;}
	.st39{fill:none;stroke:#407EA7;stroke-width:3;stroke-miterlimit:10;}
	.st40{fill:none;stroke:#407EA7;stroke-width:3.0377;stroke-miterlimit:10;}
	.st41{fill:none;stroke:#407EA7;stroke-width:2.8985;stroke-miterlimit:10;}
	.st42{fill:none;stroke:#407EA7;stroke-width:2.933;stroke-miterlimit:10;}
	.st43{fill:none;stroke:#EA9001;stroke-width:1.8227;stroke-miterlimit:10;}
	.st44{fill:#AAB2B2;}
	.st45{fill:none;stroke:#407EA7;stroke-width:3.0142;stroke-miterlimit:10;}
	.st46{fill:none;stroke:#407EA7;stroke-width:3.0512;stroke-miterlimit:10;}
	.st47{fill:#D3DDDD;}
	.st48{fill:none;stroke:#1F2B50;stroke-miterlimit:10;}
	.st49{fill:#BECBCC;stroke:#1F2B50;stroke-width:0.75;stroke-miterlimit:10;}
	.st50{fill:url(#SVGID_31_);}
	.st51{fill:none;stroke:#407EA7;stroke-width:2.8066;stroke-linecap:round;stroke-miterlimit:10;}
	.st52{fill:none;stroke:#407EA7;stroke-width:2.7511;stroke-linecap:round;stroke-miterlimit:10;}
	.st53{fill:url(#SVGID_32_);}
	.st54{fill:none;stroke:#EA9001;stroke-width:0.8;stroke-miterlimit:10;}
	.st55{fill:none;stroke:#407EA7;stroke-width:1.2;stroke-miterlimit:10;}
	.st56{fill:none;stroke:#407EA7;stroke-width:1.2151;stroke-miterlimit:10;}
	.st57{fill:none;stroke:#407EA7;stroke-width:1.1594;stroke-miterlimit:10;}
	.st58{fill:none;stroke:#407EA7;stroke-width:1.1732;stroke-miterlimit:10;}
	.st59{fill:url(#SVGID_33_);}
	.st60{fill:none;stroke:#1F2B50;stroke-width:0.4;stroke-miterlimit:10;}
	.st61{fill:#BECBCC;stroke:#1F2B50;stroke-width:0.3;stroke-miterlimit:10;}
	.st62{fill:none;stroke:#407EA7;stroke-width:1.1226;stroke-linecap:round;stroke-miterlimit:10;}
	.st63{fill:none;stroke:#407EA7;stroke-width:1.1004;stroke-linecap:round;stroke-miterlimit:10;}
	.st64{fill:url(#SVGID_34_);}
	.st65{fill:url(#SVGID_35_);}
</style>
<g id="Calque_2">
</g>
<g id="Calque_1">
	<g id="EYo7fD.tif_5_">
		<g>
			<path class="st6" d="M52.7,1.3c3-0.1,5.7,0.7,8.2,2.4c1,0.7,1.8,1.4,2.5,2.4C64,7.1,64.6,8,65.2,8.9c1.2,2,1.6,4.2,1.5,6.6
				c-0.1,2.2-0.6,4.2-1.7,6.1c-0.9,1.7-2.2,3-3.6,4.1c-1.1,0.9-2.3,1.6-3.7,2c-1.6,0.6-3.3,1-5.1,0.9c-1.1-0.1-2.2-0.1-3.2-0.5
				c-0.5-0.2-1-0.5-1.5-0.7c-1-0.5-1.9-1.1-2.9-1.7c-0.9-0.6-1.7-1.3-2.4-2.1c-1.1-1.2-1.8-2.7-2.4-4.2c-0.5-1.2-0.6-2.4-0.5-3.7
				c0.1-0.9,0.1-1.7,0.1-2.6c0.1-1.6,0.7-3.1,1.4-4.5c1.2-2.3,3-4.1,5.1-5.5c1.8-1.2,3.8-1.7,6-1.6C52.4,1.3,52.6,1.3,52.7,1.3z
				 M51.7,5.8c-0.9,0-0.9,0-1.6,0.5c-1,0.8-1.8,1.7-2.7,2.7C47.1,9.4,47,9.9,47,10.4c0.2,1.7,0.5,3.3,1.3,4.9
				c0.2,0.4,0.4,0.5,0.8,0.6c0.9,0.2,1.7,0.3,2.6,0.5c0.8,0.1,1.6,0.3,2.4,0.4c0.3,0,0.5,0,0.7-0.3c0.5-0.6,1.1-1.2,1.7-1.8
				c0.7-0.8,1.4-1.5,2-2.3c0.1-0.1,0.1-0.4,0.1-0.5c-0.5-1.4-1-2.7-1.6-4c-0.1-0.3-0.3-0.6-0.5-0.7C55,6.4,53.5,5.8,51.7,5.8z
				 M64.2,18.4c-0.2-1.3-0.3-2.6-0.6-3.8c-0.1-0.5-0.2-1-0.8-1.2c-1.2-0.3-2.4-0.6-3.6-0.9c-0.2-0.1-0.3,0-0.4,0.2
				c-0.6,0.7-1.2,1.4-1.8,2.1c-0.7,0.7-1.4,1.4-2,2.1c-0.1,0.1-0.2,0.2-0.1,0.3c0.5,1.6,0.7,3.2,0.8,4.8c0,0.3,0.2,0.5,0.4,0.6
				c1.4,0.5,2.8,0.7,4.2,0.7c0.2,0,0.4,0,0.5-0.1c0.5-0.4,1-0.8,1.4-1.2c0.6-0.8,1.2-1.6,1.8-2.4C64.2,19.2,64.3,18.9,64.2,18.4z
				 M46.6,10c-0.2,0-0.5,0-0.8-0.1c-0.9-0.1-1.8-0.2-2.7-0.3c-0.1,0-0.2,0.1-0.3,0.1c-1.1,1.3-1.8,2.8-2.5,4.3
				c-0.1,0.2-0.1,0.5-0.1,0.8c0.2,1.3,0.6,2.5,1.2,3.7c0.4,0.8,0.9,1.4,1.8,1.6c0.8,0.2,1.6,0.3,2.5,0.4c0.3,0.1,0.5-0.1,0.7-0.4
				c0.5-1.3,1.1-2.5,1.9-3.6c0.1-0.2,0.2-0.4,0.1-0.6c-0.3-0.8-0.7-1.6-1-2.5C47,12.3,46.8,11.1,46.6,10z M55.4,22.2
				c-0.2-1.8-0.4-3.4-0.9-4.9c0-0.1-0.2-0.2-0.3-0.2c-0.6-0.1-1.1-0.1-1.7-0.2c-1.2-0.2-2.4-0.5-3.6-0.8c-0.2,0-0.3,0-0.4,0.1
				c-0.9,1.2-1.5,2.6-2.1,4c-0.1,0.3-0.1,0.5,0.1,0.7c1,1.4,2.1,2.7,3.5,3.6c0.1,0.1,0.3,0.1,0.4,0.1c1.5-0.4,2.9-1,4.3-1.8
				C55.2,22.7,55.5,22.4,55.4,22.2z M60.5,23.7c-0.2,0-0.3,0-0.3,0c-1.5,0-3-0.3-4.4-0.9c-0.1,0-0.2,0-0.3,0
				c-1.1,0.5-2.2,1.1-3.3,1.5c-0.5,0.2-1.1,0.4-1.6,0.5c-0.2,0.1-0.4,0.2-0.4,0.4c0,0.6,0,1.1,0,1.7c0,0.1,0,0.3,0.1,0.4
				c0.5,0.4,0.9,0.8,1.5,0.9c1,0.1,2,0.1,3-0.1c1.7-0.3,3.3-0.7,4.7-1.7c0.1-0.1,0.3-0.2,0.3-0.3C60.1,25.4,60.3,24.6,60.5,23.7z
				 M49,2.9c0.6,0.9,1.2,1.6,1.8,2.4c0.1,0.2,0.3,0.2,0.5,0.2c0.6,0,1.1,0,1.7,0.1c1.3,0.1,2.5,0.7,3.7,1.2c0.1,0.1,0.3,0,0.4,0
				c0.8-0.5,1.6-1,2.5-1.5C59.7,5.3,60,5.2,60.2,5c-0.3-0.4-0.5-0.7-0.8-1.1C58.9,3,58,2.5,57,2.2c-1.4-0.4-2.8-0.5-4.2-0.6
				c-0.9,0-1.8,0.2-2.6,0.6C49.7,2.5,49.4,2.7,49,2.9z M57,7.2C57,7.3,57,7.3,57,7.2C57,7.3,57,7.4,57.1,7.4c0.8,1.5,1.4,3.1,2,4.7
				c0,0.1,0.2,0.2,0.3,0.2c1.3,0.3,2.5,0.6,3.8,0.9c0.2,0,0.4,0,0.4-0.2c0.2-0.8,0.5-1.7,0.7-2.5C64.2,9.9,64.3,9.5,64,9
				c-0.9-1.5-2.1-2.7-3.5-3.6c-0.1-0.1-0.3-0.1-0.4,0C59.7,5.6,59.3,5.7,59,6C58.3,6.4,57.7,6.8,57,7.2z M41.9,19.8
				c-0.2,1.6,0.1,3,1.4,4.1c0.8,0.7,1.5,1.4,2.5,1.9c0.3,0.2,0.6,0.3,0.9,0.5c0.6,0.3,1.2,0.7,1.7,1c0.6,0.3,1.1,0,1.7,0
				c0-0.8,0-1.5,0-2.1c0-0.1-0.1-0.3-0.2-0.4c-0.3-0.2-0.6-0.4-0.8-0.6c-1.1-0.9-1.9-2-2.7-3.1c-0.1-0.1-0.2-0.2-0.3-0.2
				C44.6,20.8,43.2,20.6,41.9,19.8z M42.9,9.4c0.3,0,0.5,0,0.7,0.1c0.9,0.1,1.8,0.2,2.8,0.2c0.2,0,0.4,0,0.5-0.3
				C46.9,9.2,47,9,47.2,8.8c1-1.1,2-2.3,3.3-3.1c0.1,0,0.1-0.1,0.1-0.1c-0.5-0.9-1.1-1.7-1.8-2.4c-0.1-0.1-0.2-0.1-0.3-0.1
				c-0.5,0.2-1.1,0.3-1.6,0.6c-0.8,0.4-1.6,0.9-2.4,1.3c-0.1,0.1-0.3,0.2-0.3,0.4c-0.3,0.7-0.6,1.3-0.8,2C43.1,8,43,8.7,42.9,9.4z
				 M64.6,9.7c-0.3,1.2-0.6,2.4-0.9,3.6c0,0.1,0,0.3,0,0.4c0.4,0.9,0.5,1.8,0.6,2.7c0.1,0.8,0.2,1.6,0.3,2.4
				c0.4,0.1,0.7,0.3,1.1,0.4c0.1-0.2,0.2-0.4,0.2-0.7c0.2-1.1,0.4-2.2,0.5-3.2c0.1-1.8-0.2-3.5-0.9-5.1C65.3,9.7,64.9,9.8,64.6,9.7z
				 M60.3,26.1C60.3,26.1,60.3,26.1,60.3,26.1c0.1-0.1,0.2-0.1,0.3-0.2c1-0.7,1.9-1.6,2.7-2.5c1-1.1,1.6-2.3,2.1-3.6
				c0-0.1,0-0.3-0.1-0.3c-0.2-0.1-0.4-0.2-0.7-0.4c-0.2-0.1-0.3,0-0.4,0.2c-0.5,1-1.1,2-1.9,2.8c-0.5,0.5-1,0.9-1.5,1.4
				c-0.1,0.1-0.2,0.2-0.2,0.3C60.5,24.6,60.4,25.4,60.3,26.1z M43.9,5.4c-1.9,1.4-4.2,6.4-3.8,8.4c0.1-0.1,0.1-0.3,0.2-0.4
				c0.6-1,1.1-2.1,1.7-3c0.4-0.6,0.7-1.1,0.8-1.9C42.9,7.4,43.3,6.4,43.9,5.4z M65.2,9.6C63.7,6.9,62,4.4,59.1,3c0,0.1,0,0.1,0,0.1
				c0.4,0.7,0.9,1.3,1.3,2c0.1,0.1,0.1,0.1,0.2,0.2c1.6,0.9,2.8,2.2,3.6,3.8C64.5,9.4,64.7,9.5,65.2,9.6z M41.6,21.6
				c0-0.6,0-1.2,0-1.8c0-0.2-0.1-0.3-0.1-0.5c-0.4-1-0.8-1.9-1.2-2.8c-0.1-0.2-0.1-0.4-0.1-0.5c0-0.2-0.1-0.3-0.1-0.5
				C39.7,17.7,40.5,19.7,41.6,21.6z M50.7,1.7c-1.3-0.2-5.1,1.6-5.8,2.8c0.1,0,0.1-0.1,0.2-0.1c0.8-0.5,1.6-1,2.6-1.2
				c0.4-0.1,0.8-0.2,1.2-0.4C49.5,2.4,50.1,2.1,50.7,1.7z M50.7,28.2c-0.4-0.7-1-0.7-1.6-0.5C49.6,27.9,50.2,28,50.7,28.2z"/>
			<path class="st37" d="M51.7,5.8c1.7,0,3.3,0.5,4.8,1.3c0.2,0.1,0.4,0.5,0.5,0.7c0.5,1.3,1.1,2.7,1.6,4c0.1,0.1,0,0.4-0.1,0.5
				c-0.7,0.8-1.3,1.6-2,2.3c-0.5,0.6-1.1,1.2-1.7,1.8c-0.2,0.2-0.4,0.3-0.7,0.3c-0.8-0.1-1.6-0.3-2.4-0.4c-0.9-0.2-1.7-0.3-2.6-0.5
				c-0.4-0.1-0.6-0.2-0.8-0.6c-0.7-1.6-1.1-3.2-1.3-4.9c-0.1-0.5,0.1-1,0.4-1.4c0.8-0.9,1.7-1.9,2.7-2.7C50.8,5.8,50.8,5.8,51.7,5.8
				z"/>
			<path class="st37" d="M64.2,18.4c0,0.5-0.1,0.8-0.4,1.2c-0.6,0.8-1.1,1.6-1.8,2.4c-0.4,0.5-0.9,0.8-1.4,1.2
				c-0.1,0.1-0.3,0.1-0.5,0.1c-1.4,0-2.8-0.3-4.2-0.7c-0.3-0.1-0.4-0.3-0.4-0.6c-0.1-1.6-0.4-3.3-0.8-4.8c0-0.1,0.1-0.2,0.1-0.3
				c0.7-0.7,1.4-1.4,2-2.1c0.6-0.7,1.2-1.4,1.8-2.1c0.1-0.1,0.2-0.2,0.4-0.2c1.2,0.3,2.4,0.7,3.6,0.9c0.7,0.2,0.8,0.7,0.8,1.2
				C63.9,15.8,64.1,17.1,64.2,18.4z"/>
			<path class="st37" d="M46.6,10c0.2,1.2,0.4,2.3,0.7,3.4c0.2,0.9,0.6,1.7,1,2.5c0.1,0.2,0.1,0.4-0.1,0.6c-0.8,1.1-1.4,2.3-1.9,3.6
				c-0.1,0.3-0.3,0.5-0.7,0.4c-0.8-0.1-1.7-0.2-2.5-0.4c-0.9-0.2-1.4-0.8-1.8-1.6c-0.6-1.2-1-2.4-1.2-3.7c0-0.2,0-0.5,0.1-0.8
				c0.7-1.5,1.4-3,2.5-4.3c0.1-0.1,0.2-0.1,0.3-0.1c0.9,0.1,1.8,0.2,2.7,0.3C46.1,10,46.4,10,46.6,10z"/>
			<path class="st6" d="M55.4,22.2c0.1,0.2-0.2,0.4-0.5,0.6c-1.4,0.7-2.8,1.4-4.3,1.8c-0.1,0-0.3,0-0.4-0.1
				c-1.4-0.9-2.5-2.2-3.5-3.6c-0.2-0.2-0.2-0.4-0.1-0.7c0.6-1.4,1.2-2.8,2.1-4c0.1-0.2,0.2-0.2,0.4-0.1c1.2,0.3,2.4,0.5,3.6,0.8
				c0.6,0.1,1.1,0.1,1.7,0.2c0.1,0,0.2,0.1,0.3,0.2C55,18.8,55.2,20.4,55.4,22.2z"/>
			<path class="st37" d="M60.5,23.7c-0.2,0.9-0.4,1.7-0.6,2.5c0,0.1-0.2,0.3-0.3,0.3c-1.5,0.9-3.1,1.3-4.7,1.7c-1,0.2-2,0.2-3,0.1
				c-0.6-0.1-1.1-0.5-1.5-0.9c-0.1-0.1-0.1-0.2-0.1-0.4c0-0.6,0-1.1,0-1.7c0-0.2,0.1-0.3,0.4-0.4c0.6-0.2,1.1-0.3,1.6-0.5
				c1.1-0.5,2.2-1,3.3-1.5c0.1,0,0.2-0.1,0.3,0c1.4,0.6,2.9,0.8,4.4,0.9C60.2,23.7,60.3,23.7,60.5,23.7z"/>
			<path class="st37" d="M49,2.9c0.3-0.2,0.7-0.5,1.1-0.7c0.8-0.5,1.7-0.7,2.6-0.6c1.4,0,2.8,0.2,4.2,0.6C58,2.5,58.9,3,59.5,3.9
				C59.7,4.3,60,4.7,60.2,5c-0.3,0.1-0.5,0.2-0.7,0.3c-0.8,0.5-1.6,1-2.5,1.5c-0.1,0.1-0.3,0.1-0.4,0c-1.2-0.5-2.4-1.1-3.7-1.2
				c-0.6-0.1-1.1-0.1-1.7-0.1c-0.2,0-0.4-0.1-0.5-0.2C50.2,4.6,49.7,3.8,49,2.9z"/>
			<path class="st6" d="M57,7.2c0.7-0.4,1.3-0.9,2-1.3c0.3-0.2,0.7-0.4,1.1-0.5c0.1-0.1,0.3-0.1,0.4,0C62,6.3,63.1,7.5,64,9
				c0.3,0.5,0.2,0.9,0.1,1.4c-0.2,0.8-0.4,1.7-0.7,2.5c-0.1,0.2-0.2,0.3-0.4,0.2c-1.3-0.3-2.5-0.6-3.8-0.9c-0.1,0-0.2-0.1-0.3-0.2
				c-0.6-1.6-1.1-3.2-2-4.7C57,7.4,57,7.3,57,7.2C57,7.3,57,7.3,57,7.2z"/>
			<path class="st37" d="M41.9,19.8c1.3,0.9,2.7,1,4.1,1c0.1,0,0.2,0.1,0.3,0.2c0.8,1.2,1.7,2.2,2.7,3.1c0.3,0.2,0.6,0.4,0.8,0.6
				c0.1,0.1,0.2,0.2,0.2,0.4c0,0.7,0,1.4,0,2.1c-0.6,0-1.1,0.3-1.7,0c-0.6-0.3-1.2-0.7-1.7-1c-0.3-0.2-0.6-0.3-0.9-0.5
				c-0.9-0.5-1.7-1.2-2.5-1.9C42,22.8,41.7,21.4,41.9,19.8z"/>
			<path class="st6" d="M42.9,9.4c0.1-0.7,0.2-1.3,0.4-2c0.2-0.7,0.5-1.3,0.8-2c0.1-0.2,0.2-0.3,0.3-0.4c0.8-0.5,1.6-0.9,2.4-1.3
				c0.5-0.2,1.1-0.4,1.6-0.6c0.1,0,0.3,0,0.3,0.1c0.7,0.7,1.3,1.5,1.8,2.4c-0.1,0.1-0.1,0.1-0.1,0.1c-1.3,0.8-2.3,2-3.3,3.1
				C47,9,46.9,9.2,46.8,9.4c-0.1,0.3-0.3,0.3-0.5,0.3c-0.9-0.1-1.8-0.2-2.8-0.2C43.4,9.4,43.2,9.4,42.9,9.4z"/>
			<path class="st37" d="M64.6,9.7c0.3,0.1,0.7,0.1,0.9,0.5c0.7,1.6,1,3.3,0.9,5.1c-0.1,1.1-0.3,2.2-0.5,3.2c0,0.2-0.1,0.5-0.2,0.7
				c-0.4-0.1-0.8-0.3-1.1-0.4c-0.1-0.8-0.1-1.6-0.3-2.4c-0.1-0.9-0.2-1.8-0.6-2.7c0-0.1,0-0.3,0-0.4C64,12.1,64.3,10.9,64.6,9.7z"/>
			<path class="st6" d="M60.3,26.1c0.1-0.8,0.2-1.5,0.4-2.3c0-0.1,0.1-0.2,0.2-0.3c0.5-0.5,1-0.9,1.5-1.4c0.8-0.8,1.4-1.8,1.9-2.8
				c0.1-0.2,0.2-0.3,0.4-0.2c0.2,0.1,0.5,0.2,0.7,0.4c0.1,0,0.1,0.2,0.1,0.3c-0.5,1.3-1.2,2.5-2.1,3.6c-0.8,0.9-1.7,1.8-2.7,2.5
				C60.5,26,60.4,26.1,60.3,26.1C60.3,26.1,60.3,26.1,60.3,26.1z"/>
			<path class="st37" d="M43.9,5.4c-0.5,1-0.9,2-1,3.1c-0.1,0.7-0.4,1.3-0.8,1.9c-0.6,1-1.2,2-1.7,3c-0.1,0.1-0.1,0.2-0.2,0.4
				C39.7,11.8,41.9,6.8,43.9,5.4z"/>
			<path class="st37" d="M65.2,9.6c-0.4-0.1-0.7-0.2-0.9-0.6c-0.9-1.6-2.1-2.8-3.6-3.8c-0.1,0-0.2-0.1-0.2-0.2
				c-0.5-0.6-0.9-1.3-1.3-2c0,0,0,0,0-0.1C62,4.4,63.7,6.9,65.2,9.6z"/>
			<path class="st6" d="M41.6,21.6c-1.2-1.9-1.9-3.9-1.6-6.2c0,0.2,0.1,0.3,0.1,0.5c0,0.2,0.1,0.4,0.1,0.5c0.4,1,0.8,1.9,1.2,2.8
				c0.1,0.2,0.1,0.3,0.1,0.5C41.6,20.4,41.6,21,41.6,21.6z"/>
			<path class="st37" d="M50.7,1.7c-0.6,0.3-1.2,0.7-1.8,1c-0.4,0.2-0.8,0.3-1.2,0.4c-0.9,0.2-1.8,0.7-2.6,1.2
				c-0.1,0-0.1,0.1-0.2,0.1C45.6,3.3,49.4,1.6,50.7,1.7z"/>
			<path class="st6" d="M50.7,28.2c-0.5-0.2-1.1-0.3-1.6-0.5C49.8,27.5,50.3,27.5,50.7,28.2z"/>
		</g>
	</g>
	<g>
		<g id="YkyY0X.tif_5_">
			<g>
				<path class="st6" d="M57.5,65.9c0.1,0.1,0.1,0.1,0.2,0.1c0.4,0.2,0.8,0.4,0.8,0.9c0.1,0.7,0.1,1.4-0.4,2
					c-0.2,0.2-0.5,0.5-0.8,0.5c-1.6,0.4-3.3,0.8-5,0.8c-1.8,0-3.5,0.1-5.3,0.1c-1.5,0-2.9-0.2-4.3-0.4c-0.6-0.1-1.2-0.3-1.7-0.6
					c-0.8-0.4-0.6-1.2-0.6-1.9c0-0.5,0.3-0.9,0.8-1c0,0,0.1,0,0.1-0.1c0,0,0-0.1,0-0.1c-1.1-1.2-0.4-2.8,1-3.5
					c0.3-0.1,0.6-0.3,0.9-0.3c0.5-0.1,0.8-1,0.6-1.5c-0.1-0.1-0.2-0.3-0.3-0.4c-0.9-0.2-1.3-0.9-1.5-1.7c-0.4-1.2-0.8-2.5-0.9-3.8
					c0-1.8,0.5-3.3,1.7-4.7c0.9-1,1.9-1.8,2.9-2.7c0.7-0.6,1.4-1.3,2.1-1.9c0.2-0.2,0.3-0.5,0.5-0.8c-0.5-0.1-0.9-0.1-1.3-0.2
					c-1-0.1-2.1,0-3.1,0.2c-0.6,0.1-1.1,0.4-1.5,1c-0.1,0.1-0.2,0.2-0.3,0.4c-0.2,0.3-0.4,0.5-0.8,0.4c-0.4-0.1-0.8-0.3-0.9-0.7
					c-0.1-0.2,0-0.5,0.2-0.7c0.2-0.3,0.4-0.5,0.6-0.8c-0.3,0.1-0.5,0.3-0.8,0.4c-0.3,0.2-0.6,0.4-0.9,0.5c-0.4,0.2-0.7-0.1-0.7-0.5
					c0-0.6,0.1-1.2,0.1-1.9c0-1,0.6-1.8,1.3-2.4c0.6-0.5,1.3-0.9,2-1.3c0.6-0.4,1.2-0.8,1.8-1.2c0.7-0.5,1.3-1.1,1.9-1.7
					c0.6-0.5,1.3-1,2.1-1.2c0.1,0,0.2-0.1,0.2-0.2c0.1-0.1,0.1-0.2,0.2-0.4c0.3-0.7,0.8-0.9,1.5-0.8c0.6,0.1,1.2,0,1.8,0.1
					c0.5,0.1,1,0,1.4-0.2c0.4-0.2,0.8-0.4,1.2-0.5c0.1,0,0.2,0,0.3,0c0,0.1,0,0.2-0.1,0.3c-0.2,0.4-0.5,0.8-0.7,1.1
					c0.5,0.3,1,0.6,1.4,1c1.8,1.6,2.8,3.6,3.2,6c0.3,2.1-0.1,4.1-0.7,6.1c-0.4,1.3-0.9,2.6-1.1,4c-0.1,1.5,0.1,2.8,0.8,4.1
					c0.2,0.5,0.5,1,0.8,1.4c0.2,0.3,0.2,0.6,0,0.8c-0.5,0.5-1,1-1.6,1.4c-0.5,0.3-1.1,0.5-1.6,0.7c-0.2,0.1-0.3,0.2-0.3,0.5
					c0.1,0.4,0.2,0.7,0.6,0.9c0.4,0.2,0.9,0.4,1.3,0.6c0.6,0.3,1,0.7,1.2,1.4C58,64.6,58,65.3,57.5,65.9z M54.2,33.9
					c-0.1,0-0.2,0.1-0.3,0.1c-0.8,0.3-1.7,0.6-2.5,0.9c-0.4,0.2-0.9,0.3-1.3,0.5c-0.5,0.2-0.5,0.5-0.2,0.9c0.2,0.2,0.3,0.4,0.5,0.6
					c-0.4,0.1-0.8-0.3-1.1-1.2c-0.5,0.1-1.1,0-1.6,0.3c-0.5,0.3-1,0.6-1.5,1c-0.6,0.5-1.2,1.1-1.8,1.6c-0.6,0.5-1.3,0.9-1.9,1.3
					c-0.6,0.4-1.3,0.8-1.9,1.3c-0.6,0.5-1.2,1.2-1.2,2.1c0,0.6-0.1,1.2-0.1,1.9c0,0.2,0.1,0.3,0.3,0.2c0.3-0.1,0.5-0.3,0.8-0.5
					c0.5-0.2,0.9-0.4,1.4-0.6c0.1,0,0.3,0,0.4,0.1c-0.1,0.1-0.1,0.3-0.2,0.4c-0.3,0.3-0.7,0.6-0.9,0.9c-0.3,0.4-0.3,0.7,0.2,0.9
					c0.4,0.2,0.5,0.2,0.8-0.2c0.1-0.1,0.2-0.3,0.3-0.4c0.4-0.5,0.9-0.8,1.5-1c1.6-0.4,3.2-0.3,4.8-0.1c0.1,0,0.2,0.2,0.2,0.2
					c-0.2,0.4-0.4,0.7-0.7,1c-0.7,0.7-1.4,1.4-2.1,2.1c-1,0.9-2.1,1.6-3,2.7c-0.8,1-1.3,2.1-1.5,3.4c-0.2,1.9,0.3,3.7,1.1,5.5
					c0.2,0.4,0.4,0.6,0.8,0.6c1,0.2,2,0.4,3,0.5c2.1,0.2,4.1,0.1,6.2,0c1,0,1.9-0.3,2.8-0.6c0.5-0.2,0.9-0.4,1.4-0.6
					c-0.3-0.6-0.6-1.2-0.9-1.8c-0.5-1.2-1-2.4-1.1-3.7c-0.1-1.9,0-3.8,0.5-5.6c0.3-1.1,0.7-2.2,0.8-3.4c0.1-1,0-2,0-3
					c0-0.8-0.2-1.6-0.6-2.3c-0.7-1.2-1.5-2.4-2.8-3c-0.1,0-0.2,0-0.3,0c-0.3,0.1-0.6,0.2-0.9,0.3c-0.1,0-0.2-0.1-0.2-0.1
					c0.1-0.1,0.1-0.1,0.2-0.2c0.3-0.1,0.5-0.2,0.8-0.3C53.1,35.7,53.7,34.8,54.2,33.9z M44,60.7c0.2,1-0.1,1.8-1.3,2.2
					c-0.4,0.1-0.8,0.4-1.1,0.7c-0.7,0.7-0.8,1.6-0.2,2.4c0.1,0.1,0.2,0.3,0.3,0.3c0.7,0.1,1.4,0.2,2.1,0.3c2.1,0.3,4.1,0.4,6.2,0.3
					c1.2,0,2.5-0.1,3.7-0.2c1-0.1,2-0.3,2.9-0.7c0.6-0.2,0.9-0.7,0.9-1.3c0-1.3-0.3-1.7-1.3-2c-0.1,0-0.2-0.1-0.3-0.1
					c-0.6-0.3-1.4-0.5-1.5-1.4c0-0.1-0.1-0.3-0.1-0.4C51,61.2,47.5,61.2,44,60.7z M50.6,70c0,0,0-0.1,0-0.1c1.1,0,2.1,0,3.2-0.1
					c1.1-0.1,2.1-0.4,3.2-0.6c0.5-0.1,0.9-0.3,1-0.8c0.1-0.5,0.1-1.1,0.1-1.6c-0.1-0.4-0.8-0.7-1.2-0.5c-1,0.3-2,0.6-3.1,0.8
					c-1.9,0.2-3.7,0.3-5.6,0.2c-2.1-0.1-4.1-0.2-6.1-0.7c-0.1,0-0.2,0-0.3,0c-0.7,0-1.1,0.4-1.1,1.1c0,0.3,0,0.6,0.1,0.9
					c0,0.2,0.2,0.4,0.3,0.5c0.3,0.2,0.6,0.4,0.9,0.4c1.1,0.2,2.3,0.5,3.4,0.5C47.1,70,48.8,70,50.6,70z M57,59.1
					c0.4-0.4,0.7-0.7,1-1c0.1-0.1,0.1-0.3,0-0.4c-0.2-0.2-0.3-0.5-0.5-0.8c-1-1.7-1.5-3.5-1.1-5.5c0.2-1.2,0.6-2.4,1-3.6
					c0.6-1.9,1.1-3.8,0.8-5.8c-0.3-2.1-1.1-4-2.6-5.5c-0.5-0.5-1-1-1.7-1.2c-0.1,0-0.2,0-0.2,0c-0.3,0.3-0.5,0.6-0.8,0.9
					c0.2,0.1,0.5,0.2,0.7,0.5c0.4,0.4,0.8,0.9,1.2,1.3c0.8,0.9,1.4,1.9,1.5,3.1c0.1,0.8,0.2,1.5,0.2,2.3c0,0.7-0.1,1.4-0.2,2.1
					c-0.3,1.4-0.7,2.7-1,4.1c-0.3,1.6-0.4,3.2-0.2,4.9c0.2,1.2,0.7,2.3,1.2,3.5C56.6,58.3,56.8,58.7,57,59.1z M51.5,34.5
					C51.5,34.5,51.5,34.4,51.5,34.5c-0.7-0.1-1.5-0.1-2.2-0.2c-0.1,0-0.2,0.1-0.2,0.1c-0.2,0.3-0.4,0.6-0.6,0.9c0.5,0,1,0.2,1.4-0.2
					c0.2-0.2,0.5-0.3,0.8-0.4C50.9,34.7,51.2,34.6,51.5,34.5z"/>
				<path class="st32" d="M54.2,33.9c-0.5,0.9-1,1.8-1.9,2.3c-0.2,0.1-0.5,0.2-0.8,0.3c-0.1,0-0.1,0.1-0.2,0.2
					c0.1,0,0.2,0.1,0.2,0.1c0.3-0.1,0.6-0.2,0.9-0.3c0.1,0,0.2,0,0.3,0c1.3,0.6,2.1,1.8,2.8,3c0.4,0.7,0.6,1.5,0.6,2.3
					c0,1,0.1,2,0,3c-0.1,1.1-0.5,2.2-0.8,3.4c-0.5,1.8-0.7,3.7-0.5,5.6c0.1,1.3,0.6,2.5,1.1,3.7c0.3,0.6,0.6,1.2,0.9,1.8
					c-0.4,0.2-0.9,0.5-1.4,0.6c-0.9,0.4-1.8,0.6-2.8,0.6c-2.1,0.1-4.2,0.2-6.2,0c-1-0.1-2-0.3-3-0.5c-0.4-0.1-0.7-0.3-0.8-0.6
					c-0.8-1.8-1.3-3.6-1.1-5.5c0.1-1.3,0.7-2.4,1.5-3.4c0.8-1.1,2-1.8,3-2.7c0.7-0.6,1.4-1.3,2.1-2.1c0.3-0.3,0.5-0.7,0.7-1
					c0,0-0.1-0.2-0.2-0.2c-1.6-0.2-3.2-0.3-4.8,0.1c-0.6,0.2-1.1,0.5-1.5,1c-0.1,0.2-0.2,0.3-0.3,0.4c-0.3,0.4-0.4,0.4-0.8,0.2
					c-0.4-0.3-0.5-0.5-0.2-0.9c0.3-0.3,0.6-0.6,0.9-0.9c0.1-0.1,0.1-0.3,0.2-0.4c-0.1,0-0.3-0.1-0.4-0.1c-0.5,0.2-0.9,0.4-1.4,0.6
					c-0.3,0.1-0.5,0.3-0.8,0.5c-0.2,0.1-0.3,0-0.3-0.2c0-0.6,0.1-1.2,0.1-1.9c0-0.9,0.6-1.5,1.2-2.1c0.6-0.5,1.3-0.8,1.9-1.3
					c0.6-0.4,1.3-0.8,1.9-1.3c0.6-0.5,1.2-1.1,1.8-1.6c0.5-0.4,1-0.7,1.5-1c0.5-0.3,1.1-0.2,1.6-0.3c0.3,0.9,0.7,1.3,1.1,1.2
					c-0.2-0.2-0.4-0.4-0.5-0.6c-0.4-0.4-0.3-0.7,0.2-0.9c0.4-0.2,0.8-0.4,1.3-0.5c0.8-0.3,1.7-0.6,2.5-0.9
					C53.9,34,54,33.9,54.2,33.9z M45.9,39c0.4,0,0.7-0.1,1-0.1c0.3,0,0.6,0,1,0c0.1,0,0.2,0,0.2-0.1c0.1-0.1,0.2-0.2,0.1-0.3
					c-0.2-0.4-0.9-0.9-1.4-0.9c-0.5,0-1,0.4-1.2,0.9C45.5,38.9,45.6,39,45.9,39z"/>
				<path class="st32" d="M44,60.7c3.5,0.5,6.9,0.5,10.4,0.1c0,0.1,0.1,0.3,0.1,0.4c0.1,0.9,0.9,1,1.5,1.4c0.1,0.1,0.2,0.1,0.3,0.1
					c1,0.4,1.3,0.7,1.3,2c0,0.6-0.3,1.1-0.9,1.3c-0.9,0.4-1.9,0.6-2.9,0.7c-1.2,0.1-2.5,0.2-3.7,0.2c-2.1,0-4.2,0-6.2-0.3
					c-0.7-0.1-1.4-0.2-2.1-0.3c-0.1,0-0.2-0.2-0.3-0.3c-0.6-0.8-0.5-1.7,0.2-2.4c0.3-0.3,0.7-0.6,1.1-0.7C44,62.5,44.2,61.7,44,60.7
					z"/>
				<path class="st32" d="M50.6,70c-1.8,0-3.6,0-5.3-0.1c-1.2-0.1-2.3-0.3-3.4-0.5c-0.3-0.1-0.6-0.2-0.9-0.4
					c-0.1-0.1-0.3-0.3-0.3-0.5c-0.1-0.3-0.1-0.6-0.1-0.9c0-0.7,0.4-1.1,1.1-1.1c0.1,0,0.2,0,0.3,0c2,0.5,4.1,0.6,6.1,0.7
					c1.9,0.1,3.7,0,5.6-0.2c1-0.1,2.1-0.5,3.1-0.8c0.4-0.1,1.2,0.1,1.2,0.5c0.1,0.5,0.1,1.1-0.1,1.6c-0.1,0.5-0.6,0.7-1,0.8
					c-1.1,0.2-2.1,0.5-3.2,0.6c-1.1,0.1-2.1,0.1-3.2,0.1C50.6,70,50.6,70,50.6,70z"/>
				<path class="st32" d="M57,59.1c-0.2-0.5-0.5-0.8-0.6-1.2c-0.5-1.1-1-2.2-1.2-3.5c-0.3-1.6-0.2-3.3,0.2-4.9
					c0.3-1.4,0.7-2.7,1-4.1c0.1-0.7,0.2-1.4,0.2-2.1c0-0.8,0-1.5-0.2-2.3c-0.2-1.2-0.7-2.2-1.5-3.1c-0.4-0.5-0.8-0.9-1.2-1.3
					c-0.2-0.2-0.5-0.3-0.7-0.5c0.2-0.3,0.5-0.6,0.8-0.9c0,0,0.2,0,0.2,0c0.7,0.2,1.2,0.7,1.7,1.2c1.6,1.5,2.3,3.4,2.6,5.5
					c0.3,2-0.2,3.9-0.8,5.8c-0.4,1.2-0.7,2.4-1,3.6c-0.4,2,0.1,3.8,1.1,5.5c0.2,0.3,0.3,0.5,0.5,0.8c0.1,0.2,0.1,0.3,0,0.4
					C57.7,58.5,57.4,58.8,57,59.1z"/>
				<path class="st32" d="M51.5,34.5c-0.3,0.1-0.6,0.2-0.9,0.3c-0.3,0.1-0.6,0.2-0.8,0.4c-0.4,0.4-0.8,0.2-1.4,0.2
					c0.2-0.3,0.4-0.6,0.6-0.9c0-0.1,0.1-0.1,0.2-0.1C50,34.3,50.7,34.4,51.5,34.5C51.5,34.4,51.5,34.5,51.5,34.5z"/>
				<path class="st6" d="M45.9,39c-0.3,0-0.4-0.1-0.2-0.5c0.2-0.6,0.7-0.9,1.2-0.9c0.5,0,1.3,0.5,1.4,0.9c0,0.1-0.1,0.2-0.1,0.3
					c0,0-0.1,0-0.2,0.1c-0.3,0-0.6,0-1,0C46.6,38.9,46.3,38.9,45.9,39z M45.9,38.6c0.6,0,1.2,0,1.9-0.1c-0.3-0.4-0.6-0.6-1-0.6
					C46.4,37.9,46.1,38.2,45.9,38.6z"/>
				<path class="st32" d="M45.9,38.6c0.2-0.4,0.5-0.6,0.9-0.6c0.4,0,0.7,0.2,1,0.6C47.2,38.5,46.6,38.5,45.9,38.6z"/>
			</g>
		</g>
		<path class="st6" d="M39.8,43.1c-0.1-0.2-0.1-0.4,0-0.5c0.1-0.2,0.2-0.5,0.4-0.7c0.1-0.1,0.3-0.2,0.4-0.1c0.1,0,0.2,0.3,0.2,0.4
			c-0.1,0.3-0.3,0.6-0.5,0.9C40.2,43.2,40,43.2,39.8,43.1C39.9,43.2,39.8,43.2,39.8,43.1z"/>
		<path class="st32" d="M39.9,42.9c0-0.1,0-0.3,0.1-0.4c0.1-0.2,0.2-0.3,0.3-0.5c0-0.1,0.2-0.1,0.2,0c0,0,0,0.2,0,0.3
			c-0.1,0.2-0.2,0.5-0.4,0.7C40.1,43,40,43,39.9,42.9C39.9,43,39.9,43,39.9,42.9z"/>
	</g>
	<g id="xYOQb3.tif_5_">
		<g>
			<path class="st6" d="M25.9,53.9c-0.4,0-0.8,0-1.3,0c0.1,0.3,0.1,0.6,0.3,0.8c0.4,0.7,0.3,1.7-0.2,2.3c-0.7,0.7-1.6,1-2.4,0.7
				c-0.6-0.2-0.8-0.6-0.9-1.2c-0.1-0.9,0.2-1.6,0.9-2.2c0.1-0.1,0.1-0.3,0.2-0.4c-0.1-0.1-0.3-0.1-0.4-0.1c-2.8-0.2-5.6-0.4-8.3-0.6
				c-0.3,0-0.4,0-0.5,0.3c-0.2,0.5-0.6,0.7-1.1,0.6c-0.5-0.1-0.9-0.2-1.1-0.7C11,53.4,11,53.2,10.9,53c-0.7-0.1-1.5-0.2-2.3-0.4
				c0,0.2,0.1,0.4,0.1,0.6c0.1,0.7,0.1,1.4-0.3,2.1c-0.4,0.7-1.2,1-1.9,0.7c-0.6-0.2-0.7-0.7-0.8-1.3C5.7,54.1,6,53,6.9,52.7
				c0.1,0,0.2-0.2,0.2-0.3c0-0.3,0-0.6-0.3-0.9c-0.3-0.3-0.4-0.7-0.5-1.1c-0.3-1.5-0.5-3.1-0.7-4.6c-0.5-4-0.3-8-0.3-12
				c0-2.8,0.1-5.6,0.2-8.5c0-0.9,0.2-1.8,0.5-2.7c0.3-1.2,1.1-2,2.1-2.6c1.2-0.7,2.4-1,3.7-1.2c0.7-0.1,1.5-0.1,2.2-0.2
				c0.2,0,0.4-0.1,0.6-0.2c0.4-0.3,0.7-0.5,1.1-0.8c0.1-0.1,0.3-0.3,0.3-0.5c0-1.1,0.1-2.3-0.1-3.4c-0.1-0.5-0.2-1-0.2-1.5
				c0-0.6,0.3-1.1,0.9-1.3c0.7-0.4,1.5-0.5,2.3-0.6c1.8-0.1,3.6,0,5.3,0.6c0.6,0.2,0.7,0.3,0.7,1c0,0.5,0.1,0.9,0,1.4
				c-0.3,1.8,0,3.7,0,5.5c0,0.1,0,0.2,0,0.3c0.6,0.1,1.2,0.2,1.9,0.3c2.1,0.3,3.4,1.5,3.7,3.6c0.2,1.2,0.4,2.5,0.4,3.7
				c0,4.6-0.1,9.1-0.2,13.7c0,2.9,0,5.7-0.1,8.6c0,0.6-0.1,1.2-0.2,1.8c-0.1,0.7-0.6,1.1-1.1,1.4c-0.4,0.3-0.5,0.5-0.2,1
				c0.1,0.3,0.2,0.7,0.2,1c0,1.1-1,2-2.1,1.9c-0.8,0-1.3-0.9-1.2-1.7C25.9,54.2,25.9,54.1,25.9,53.9z M21.9,53.5c0,0,0.2,0,0.3,0
				c1,0,2,0,3,0.1c0.9,0,1.5-0.3,1.8-1.1c0.1-0.2,0.2-0.5,0.2-0.7c0.1-1,0.3-2.1,0.4-3.1c0-2.2-0.1-4.4-0.1-6.6
				c-0.1-5.7,0.1-11.4-0.2-17.1c-0.1-1.1-0.1-2.3-0.7-3.3c-0.6-1-1.4-1.8-2.6-1.8c-0.2,0-0.4,0.1-0.5,0.2c-0.8,0.8-1.1,1.9-1.1,3.1
				c0,1.4,0.1,2.7,0.1,4.1c0,2.8-0.1,5.7-0.1,8.5c-0.1,4.5-0.2,8.9-0.3,13.4C21.8,50.6,21.9,52,21.9,53.5z M21.3,19.8
				c-0.6,0-1.1-0.1-1.6-0.1c-0.1,0-0.2,0.1-0.2,0.2c-0.3,0.5-0.6,0.9-0.7,1.5c-0.2,1.1-0.3,2.1-0.3,3.2c0,2.1,0,4.2,0,6.4
				c-0.1,4.6-0.2,9.2-0.3,13.9c0,2.1,0,4.2-0.1,6.4c0,0.7,0,1.4,0,2.1c0.4,0,0.9,0,1.3,0.1c0.4,0,0.5-0.1,0.5-0.4c0-2.1,0-4.3,0-6.4
				c0.1-5.2,0.1-10.4,0.2-15.5c0-2.2,0-4.5,0-6.7c0-1.5,0.1-3,1.2-4.2C21.2,20,21.2,19.9,21.3,19.8z M17.5,19.7
				C17.5,19.6,17.5,19.6,17.5,19.7c-0.4-0.1-0.9-0.2-1.2,0c-0.9,0.5-1.6,1.2-1.7,2.3c-0.1,0.4-0.1,0.8-0.1,1.3
				c0,2.6-0.1,5.2-0.1,7.8c0,6,0,12,0,17.9c0,1.3,0,2.6,0,4c0.6,0.1,1.1,0.1,1.8,0.2c0-0.4,0-0.8,0-1.2c-0.1-1.9-0.2-3.8-0.2-5.7
				c0-4.4,0.1-8.9,0.2-13.3c0-3.2,0-6.3,0-9.5C16.2,22.1,16.4,20.7,17.5,19.7z M14,19.5c-0.8,0-1.6-0.2-2.1,0.6
				c-0.4,0.7-0.8,1.3-0.9,2.1c-0.1,1.3-0.2,2.5-0.2,3.8c0,5.7,0,11.4,0,17.1c0,3,0,6.1,0.1,9.1c0,0.1,0.1,0.3,0.1,0.3
				c0.5,0.1,0.9,0.2,1.5,0.3c0-0.3,0-0.6,0-0.8c0-6.6,0-13.3,0-19.9c0-3.2,0-6.4,0-9.6c0-0.7,0.2-1.4,0.5-1.9
				C13.3,20.2,13.7,19.9,14,19.5z M23.2,19.9c-0.5,0-0.8-0.1-1.2-0.1c-0.1,0-0.3,0-0.4,0.1c-0.5,0.5-0.9,1.1-1,1.8
				c-0.1,0.9-0.3,1.8-0.3,2.7c0,1.9,0,3.7,0,5.6c0,3-0.1,6-0.2,9c0,2.5,0,5.1-0.1,7.6c0,2.2,0,4.3-0.1,6.5c0,0.3,0.1,0.4,0.3,0.4
				c0.3,0,0.6,0,0.8,0.1c0.3,0,0.3-0.1,0.4-0.3c0-0.5,0.1-1,0.1-1.5c0-4.3,0.1-8.5,0.1-12.8C21.8,34.9,21.9,31,22,27
				c0-1.2,0-2.3-0.1-3.5C21.9,22.2,22.1,20.9,23.2,19.9z M19.3,19.7c-0.5,0-0.9-0.1-1.3-0.1c-0.1,0-0.2,0-0.3,0.1
				c-0.6,0.7-1.1,1.5-1.1,2.4c-0.1,1.5-0.1,2.9-0.1,4.4c-0.1,5.6-0.1,11.1-0.1,16.7c0,2.7,0,5.4,0.1,8c0,0.6,0,1.2,0,1.9
				c0.3,0,0.6,0,0.8,0c0.6,0,0.6,0,0.6-0.5c0-2.6,0-5.1,0.1-7.7c0.1-4,0.1-7.9,0.2-11.9c0-2.2,0-4.5,0.1-6.7c0-1.5,0.1-3.1,0.2-4.6
				C18.4,21.1,18.7,20.3,19.3,19.7z M12,19.6C12,19.6,12,19.5,12,19.6c-0.5-0.1-1-0.1-1.5,0c-0.1,0-0.2,0-0.2,0.1
				c-0.6,0.4-1,1-1.2,1.7C9,21.7,9,22,9,22.3c0,1.6,0,3.2,0,4.7c0,3.2,0,6.4,0,9.5c0.1,5.2,0.1,10.4,0.2,15.5c0,0.1,0.1,0.3,0.2,0.3
				c0.4,0.1,0.8,0.1,1.2,0.2c0-0.2,0-0.4,0-0.5c0-0.8-0.1-1.7-0.1-2.5c0-4.1,0-8.2,0-12.4c0-4.8-0.2-9.6,0.1-14.4
				c0.1-1,0.3-1.8,0.9-2.6C11.7,19.9,11.9,19.8,12,19.6z M9,52.3c0-0.2,0-0.3,0-0.4c-0.1-2.7-0.2-5.3-0.2-8C8.8,36.9,8.7,30,8.6,23
				c0-1.2,0.1-2.5,1.2-3.3c-0.4,0.1-0.7,0.2-1.1,0.3c-0.9,0.3-1.2,1-1.3,1.8c-0.1,1-0.2,2-0.2,3.1c0,3-0.1,5.9-0.1,8.9
				c0,2.6,0,5.1,0.1,7.7c0,2.5,0.1,5,0.2,7.5c0,0.8,0,1.6,0,2.4c0,0.3,0.1,0.5,0.4,0.5C8.2,52,8.6,52.1,9,52.3z M15.9,19.6
				c-0.3,0-0.5,0-0.7,0c-0.3,0-0.7-0.1-0.9,0.1c-0.4,0.4-0.8,0.8-1.1,1.2c-0.5,0.8-0.5,1.6-0.5,2.5c0,1.6,0,3.3,0,4.9
				c0,4.3,0,8.5,0,12.8c0,3.8,0,7.6,0,11.4c0,0.2,0,0.3,0.3,0.4c0.3,0,0.6,0.1,0.9,0.1c0.3,0.1,0.4-0.1,0.4-0.4c0-0.6,0-1.1,0-1.7
				c-0.1-2.7-0.2-5.4-0.2-8c0-4.7,0.1-9.5,0.1-14.2c0-1.9,0.1-3.9,0.1-5.8c0-1.2,0.3-2.2,1.3-3C15.7,19.8,15.8,19.7,15.9,19.6z
				 M26.2,19.6c0.2,0.2,0.5,0.3,0.7,0.5c0.8,0.8,1.4,1.7,1.6,2.8c0.4,1.9,0.6,3.8,0.6,5.8c0,2.2-0.1,4.5-0.1,6.7c0,3.4,0,6.7,0,10.1
				c0,2.1,0.3,4.2-0.2,6.3c0.6-0.3,1-0.6,1.1-1.3c0.1-1.3,0.2-2.5,0.2-3.8c0-2.1,0.1-4.1,0.1-6.2c0.1-4.2,0.1-8.4,0.2-12.5
				c0-1.7,0-3.3-0.4-5c-0.2-0.8-0.3-1.6-0.9-2.2C28.2,20.1,27.3,19.7,26.2,19.6z M27.2,52.8c0.8-0.3,1.4-0.7,1.4-1.6
				c0.1-1,0.1-2,0.1-3.1c0-2.5-0.1-5-0.1-7.5c0-4,0.1-8,0.1-11.9c0-1.9-0.1-3.8-0.6-5.7c-0.4-1.7-1.4-3-3.1-3.5
				c-0.9-0.3-1.8-0.3-2.7-0.4c-0.1,0-0.2,0-0.3,0.1c-0.5,0.2-0.9,0.1-1.4-0.1c-0.1-0.1-0.3-0.1-0.4-0.2c-1.3,0-2.7-0.1-4-0.1
				c-0.1,0-0.3,0-0.3,0c-0.5,0.5-1.1,0.3-1.7,0.1c-0.1,0-0.2-0.1-0.3-0.1c-1,0.1-1.9,0.2-2.9,0.3c0,0,0,0.1,0,0.1
				c0.5,0,1.1,0.1,1.6,0.1c2.3,0,4.6,0.1,6.9,0.1c0.1,0,0.3,0,0.4,0c1,0,2,0.1,3,0.1c1.1,0.1,2.2,0.1,3,1.1c0.7,0.8,1.3,1.7,1.3,2.8
				c0.1,2.3,0.3,4.5,0.3,6.8c0,4.3,0,8.5,0,12.8c0,2.1,0.1,4.1,0.2,6.2C27.9,50.4,27.7,51.6,27.2,52.8z M7.3,21
				c-0.5,0.4-0.9,0.9-1,1.6c-0.2,1.3-0.5,2.7-0.5,4c-0.1,2.7-0.1,5.4-0.2,8.1C5.5,39.1,5.4,43.5,6,47.9c0.2,1.1,0.3,2.2,0.7,3.3
				c0.1,0.2,0.2,0.4,0.4,0.3c0-0.1,0-0.1,0-0.2c0-1.3,0-2.5-0.1-3.8c-0.1-2.4-0.2-4.9-0.3-7.3c0-4.6,0-9.2,0-13.9
				C6.9,24.5,6.9,22.8,7.3,21z M23.3,18.8c0-0.3,0.1-0.7,0.1-1c0-1.3,0-2.6,0-3.9c0-0.1,0-0.2,0-0.2c-0.5-0.2-0.3-0.6-0.3-1
				c0-0.4-0.2-0.6-0.5-0.6c-0.1,0-0.3-0.1-0.4-0.1c-1.1,0-2.2,0-3.3,0.1c-0.4,0-0.7,0.1-1,0.2c-0.3,0.1-0.5,0.3-0.4,0.7
				c0,0.2,0,0.3-0.1,0.5c0,0.2-0.2,0.3-0.1,0.5c0,0.6,0.1,1.3,0.1,1.9c0,0.3-0.1,0.8,0.1,0.9c0.2,0.2,0.6,0.1,1,0.1
				c1.4,0.1,2.7,0.5,3.7,1.5C22.4,18.9,22.8,18.9,23.3,18.8z M24.4,13.3c0-0.5,0-1,0-1.5c0-0.3-0.1-0.5-0.4-0.6
				c-0.8-0.2-1.7-0.5-2.5-0.5c-1.2-0.1-2.5-0.1-3.8,0.1c-1.4,0.3-1.6,0.6-1.7,1.8c0,0.9,0.1,0.9,0.9,0.7c0,0,0.1,0,0.1-0.1
				c0-0.9,0.2-1.1,0.9-1.3c1.5-0.4,3.1-0.3,4.6-0.2c0.1,0,0.1,0,0.2,0c0.6,0.2,0.7,0.4,0.8,1c0,0.2,0,0.3,0,0.5
				C23.8,13.3,24,13.3,24.4,13.3z M24.4,19c0-1.8,0-3.5,0-5.3c-0.3,0-0.5,0-0.7,0c0,0.9,0,1.7,0,2.6c0,0.9,0,1.7,0,2.6
				C23.9,18.9,24.1,18.9,24.4,19z M14.6,18.7c0.4,0.1,0.7,0.1,1.1-0.2c0.4-0.3,0.8-0.6,1.3-0.7c0.4,0,0.7-0.1,1.1-0.1
				c1.1,0,2.1,0.1,2.9,1.1c0.2,0.2,0.7,0.2,0.9,0.1C20.7,16.9,16.1,16.8,14.6,18.7z M23,54c-0.1,0.3-0.2,0.6-0.3,0.7
				c-0.8,0.4-1,1-0.9,1.8c0,0.8,0.6,1.3,1.4,1c-0.7-0.9-0.6-2,0.3-2.7c0.3-0.3,0.4-0.5,0.3-0.9C23.5,54,23.2,54,23,54z M7.4,52.2
				C7.4,52.2,7.4,52.2,7.4,52.2c0,0.1,0,0.1,0,0.2c0,0.4,0,0.7-0.5,0.7c-0.1,0-0.1,0.1-0.2,0.1c-0.6,0.5-0.8,1.8-0.2,2.4
				c0.3,0.3,0.9,0.4,1.2,0.1c-0.4-0.2-0.5-0.5-0.5-0.9c0-0.8,0.2-1.5,1-1.8c0.1,0,0.1-0.2,0.1-0.3c0-0.1-0.1-0.2-0.1-0.2
				C7.9,52.3,7.7,52.2,7.4,52.2z M24.2,53.9c0,0.1-0.1,0.2,0,0.2c0.1,0.5-0.1,0.8-0.6,1.1c-0.5,0.3-0.6,0.9-0.5,1.5
				c0.1,0.6,0.6,0.7,1,0.4c0.7-0.5,0.8-1.2,0.6-2c-0.1-0.3-0.2-0.7-0.3-1C24.4,54,24.3,54,24.2,53.9z M16.1,13.7
				c0,1.2,0.1,2.3,0.1,3.4c0.8-0.1,0.8-0.1,0.7-0.8c0-0.8,0-1.7-0.1-2.5c0-0.1,0-0.1,0-0.2C16.6,13.7,16.4,13.7,16.1,13.7z
				 M28.3,52.7c-0.5,0.2-1.1,1.5-0.8,2c0.1,0.3,0.5,0.4,0.8,0.3c0.5-0.2,0.8-0.9,0.5-1.4C28.6,53.3,28.5,53,28.3,52.7z M28,55.4
				c-0.8-0.2-1.2-0.7-0.7-2.1c-0.6,0.2-1.1,0.4-1.1,1.1c0,0.4,0,0.9,0.5,1.1C27.1,55.7,27.5,55.7,28,55.4z M8.6,54
				C8.6,54,8.5,54,8.6,54c-0.1-0.1,0-0.2-0.1-0.3c0-0.1-0.1-0.3-0.2-0.4c-0.1,0-0.3,0.1-0.4,0.1c-0.4,0.3-0.6,1.1-0.4,1.5
				c0.1,0.1,0.3,0.2,0.4,0.3c0.1,0,0.3-0.1,0.3-0.2C8.4,54.7,8.5,54.4,8.6,54z M20,18.6c-0.8-0.4-1.6-0.5-2.5-0.4
				c-0.1,0-0.1,0.1-0.2,0.2c0.1,0.1,0.2,0.2,0.2,0.2c0.3,0,0.6,0,1,0C19,18.6,19.5,18.6,20,18.6z M11.3,53c0,0.5,0.1,0.7,0.6,0.8
				c0-0.2,0-0.4,0.1-0.6c-0.1,0-0.1,0-0.2-0.1C11.7,53.1,11.5,53.1,11.3,53z M12.4,53.9c0.1,0,0.1,0,0.2,0c0.2-0.2,0.3-0.4,0.5-0.6
				c0,0,0-0.1-0.1-0.1c-0.2,0-0.5,0-0.7,0.1C12.3,53.5,12.4,53.7,12.4,53.9z M16.3,18.5c0.7,0.2,0.8,0.2,0.6-0.3
				C16.7,18.3,16.5,18.4,16.3,18.5z"/>
			<path class="st33" d="M21.9,53.5c0-1.4,0-2.8,0-4.3c0.1-4.5,0.2-8.9,0.3-13.4c0.1-2.8,0.1-5.7,0.1-8.5c0-1.4-0.1-2.7-0.1-4.1
				c0-1.1,0.3-2.2,1.1-3.1c0.1-0.1,0.3-0.2,0.5-0.2c1.3,0,2,0.8,2.6,1.8c0.6,1,0.6,2.1,0.7,3.3c0.4,5.7,0.2,11.4,0.2,17.1
				c0,2.2,0.1,4.4,0.1,6.6c0,1-0.2,2.1-0.4,3.1c0,0.2-0.1,0.5-0.2,0.7c-0.3,0.8-0.9,1.2-1.8,1.1c-1-0.1-2,0-3-0.1
				C22,53.5,21.9,53.5,21.9,53.5z"/>
			<path class="st33" d="M21.3,19.8c0,0.1,0,0.2-0.1,0.2c-1.1,1.2-1.1,2.7-1.2,4.2c0,2.2,0,4.5,0,6.7c-0.1,5.2-0.1,10.4-0.2,15.5
				c0,2.1,0,4.3,0,6.4c0,0.4-0.1,0.5-0.5,0.4c-0.4-0.1-0.9-0.1-1.3-0.1c0-0.7,0-1.4,0-2.1c0-2.1,0-4.2,0.1-6.4
				c0.1-4.6,0.2-9.2,0.3-13.9c0-2.1,0-4.2,0-6.4c0-1.1,0.1-2.2,0.3-3.2c0.1-0.5,0.5-1,0.7-1.5c0-0.1,0.2-0.2,0.2-0.2
				C20.2,19.7,20.7,19.8,21.3,19.8z"/>
			<path class="st33" d="M17.5,19.7c-1.1,1.1-1.3,2.5-1.3,3.9c0,3.2,0,6.3,0,9.5c0,4.4-0.2,8.9-0.2,13.3c0,1.9,0.1,3.8,0.2,5.7
				c0,0.4,0,0.7,0,1.2c-0.6-0.1-1.1-0.1-1.8-0.2c0-1.4,0-2.7,0-4c0-6,0-12,0-17.9c0-2.6,0.1-5.2,0.1-7.8c0-0.4,0-0.8,0.1-1.3
				c0.1-1.1,0.8-1.8,1.7-2.3C16.7,19.5,17.1,19.6,17.5,19.7C17.5,19.6,17.5,19.6,17.5,19.7z"/>
			<path class="st33" d="M14,19.5c-0.3,0.4-0.7,0.7-0.9,1c-0.4,0.6-0.5,1.2-0.5,1.9c0,3.2,0,6.4,0,9.6c0,6.6,0,13.3,0,19.9
				c0,0.3,0,0.5,0,0.8c-0.6-0.1-1-0.2-1.5-0.3c-0.1,0-0.1-0.2-0.1-0.3c0-3,0-6.1-0.1-9.1c0-5.7,0-11.4,0-17.1c0-1.3,0.1-2.5,0.2-3.8
				c0.1-0.8,0.4-1.5,0.9-2.1C12.4,19.3,13.2,19.5,14,19.5z"/>
			<path class="st33" d="M23.2,19.9c-1.1,1-1.3,2.3-1.3,3.6c0,1.2,0.1,2.3,0.1,3.5c-0.1,3.9-0.2,7.8-0.2,11.8
				c-0.1,4.3-0.1,8.5-0.1,12.8c0,0.5,0,1-0.1,1.5c0,0.2-0.1,0.3-0.4,0.3c-0.3,0-0.6-0.1-0.8-0.1c-0.3,0-0.3-0.1-0.3-0.4
				c0-2.2,0.1-4.3,0.1-6.5c0-2.5,0-5.1,0.1-7.6c0-3,0.1-6,0.2-9c0-1.9,0-3.7,0-5.6c0-0.9,0.1-1.8,0.3-2.7c0.1-0.7,0.5-1.2,1-1.8
				c0.1-0.1,0.2-0.1,0.4-0.1C22.3,19.8,22.7,19.9,23.2,19.9z"/>
			<path class="st33" d="M19.3,19.7c-0.6,0.6-1,1.3-1,2.1c-0.1,1.5-0.2,3.1-0.2,4.6C18,28.7,18,30.9,18,33.1
				c-0.1,4-0.1,7.9-0.2,11.9c0,2.6,0,5.1-0.1,7.7c0,0.6,0,0.6-0.6,0.5c-0.3,0-0.5,0-0.8,0c0-0.6,0-1.3,0-1.9c0-2.7-0.1-5.4-0.1-8
				c0-5.6,0.1-11.1,0.1-16.7c0-1.5,0.1-2.9,0.1-4.4c0.1-0.9,0.5-1.7,1.1-2.4c0.1-0.1,0.2-0.1,0.3-0.1C18.4,19.6,18.8,19.7,19.3,19.7
				z"/>
			<path class="st33" d="M12,19.6c-0.2,0.2-0.3,0.3-0.5,0.5c-0.6,0.8-0.9,1.6-0.9,2.6c-0.3,4.8-0.1,9.6-0.1,14.4c0,4.1,0,8.2,0,12.4
				c0,0.8,0.1,1.7,0.1,2.5c0,0.2,0,0.3,0,0.5c-0.4-0.1-0.8-0.1-1.2-0.2c-0.1,0-0.2-0.2-0.2-0.3C9.2,46.9,9.1,41.7,9,36.6
				c0-3.2,0-6.4,0-9.5c0-1.6,0-3.2,0-4.7C9,22,9,21.7,9.1,21.4c0.1-0.8,0.6-1.3,1.2-1.7c0.1,0,0.1-0.1,0.2-0.1
				C11,19.6,11.5,19.5,12,19.6C12,19.5,12,19.6,12,19.6z"/>
			<path class="st33" d="M9,52.3c-0.4-0.1-0.8-0.2-1.2-0.3c-0.3-0.1-0.4-0.2-0.4-0.5c0-0.8,0-1.6,0-2.4c-0.1-2.5-0.2-5-0.2-7.5
				c0-2.6-0.1-5.1-0.1-7.7c0-3,0-5.9,0.1-8.9c0-1,0.1-2.1,0.2-3.1c0.1-0.8,0.4-1.5,1.3-1.8c0.4-0.1,0.7-0.3,1.1-0.3
				c-1.1,0.9-1.2,2.1-1.2,3.3C8.7,30,8.8,36.9,8.8,43.8c0,2.7,0.1,5.3,0.2,8C9,52,9,52.1,9,52.3z"/>
			<path class="st33" d="M15.9,19.6c-0.1,0.2-0.2,0.3-0.3,0.3c-1,0.7-1.3,1.8-1.3,3c0,1.9-0.1,3.9-0.1,5.8c0,4.7-0.1,9.5-0.1,14.2
				c0,2.7,0.1,5.4,0.2,8c0,0.6,0,1.1,0,1.7c0,0.3-0.1,0.4-0.4,0.4c-0.3-0.1-0.6-0.1-0.9-0.1c-0.2,0-0.3-0.1-0.3-0.4
				c0-3.8,0-7.6,0-11.4c0-4.3,0-8.5,0-12.8c0-1.6,0-3.3,0-4.9c0-0.9,0-1.7,0.5-2.5c0.3-0.5,0.7-0.9,1.1-1.2c0.2-0.2,0.6-0.1,0.9-0.1
				C15.4,19.5,15.6,19.6,15.9,19.6z"/>
			<path class="st33" d="M26.2,19.6c1.1,0,2,0.5,2.8,1.2c0.6,0.6,0.8,1.4,0.9,2.2c0.4,1.6,0.4,3.3,0.4,5c0,4.2-0.1,8.4-0.2,12.5
				c0,2.1,0,4.1-0.1,6.2c0,1.3-0.1,2.5-0.2,3.8c0,0.7-0.5,1.1-1.1,1.3c0.5-2.1,0.1-4.2,0.2-6.3c0-3.4,0-6.7,0-10.1
				c0-2.2,0.1-4.5,0.1-6.7c0-1.9-0.1-3.9-0.6-5.8c-0.3-1.1-0.8-2-1.6-2.8C26.7,20,26.4,19.8,26.2,19.6z"/>
			<path class="st38" d="M27.2,52.8c0.5-1.2,0.7-2.3,0.7-3.6c0-2.1-0.2-4.1-0.2-6.2c0-4.3,0-8.5,0-12.8c0-2.3-0.2-4.5-0.3-6.8
				c-0.1-1.1-0.6-2-1.3-2.8c-0.8-1-1.9-1-3-1.1c-1-0.1-2-0.1-3-0.1c-0.1,0-0.3,0-0.4,0c-2.3,0-4.6-0.1-6.9-0.1c-0.5,0-1.1,0-1.6-0.1
				c0,0,0-0.1,0-0.1c1-0.1,1.9-0.2,2.9-0.3c0.1,0,0.2,0.1,0.3,0.1c0.6,0.2,1.1,0.4,1.7-0.1c0.1-0.1,0.2,0,0.3,0c1.3,0,2.7,0.1,4,0.1
				c0.2,0,0.3,0.1,0.4,0.2c0.5,0.2,0.9,0.3,1.4,0.1c0.1,0,0.2-0.1,0.3-0.1c0.9,0.1,1.8,0.2,2.7,0.4c1.7,0.5,2.7,1.7,3.1,3.5
				c0.4,1.9,0.6,3.8,0.6,5.7c0,4-0.1,8-0.1,11.9c0,2.5,0.1,5,0.1,7.5c0,1-0.1,2-0.1,3.1C28.6,52,28,52.5,27.2,52.8z"/>
			<path class="st33" d="M7.3,21c-0.4,1.7-0.4,3.5-0.4,5.2c0,4.6,0,9.2,0,13.9c0,2.4,0.2,4.9,0.3,7.3c0,1.3,0.1,2.5,0.1,3.8
				c0,0.1,0,0.1,0,0.2c-0.3,0.1-0.4-0.1-0.4-0.3c-0.5-1-0.6-2.1-0.7-3.3c-0.6-4.4-0.5-8.8-0.5-13.2c0-2.7,0-5.4,0.2-8.1
				c0.1-1.3,0.3-2.7,0.5-4C6.4,22,6.7,21.5,7.3,21z"/>
			<path class="st32" d="M24.4,13.3c-0.3,0-0.6,0-0.9,0c0-0.2,0-0.4,0-0.5c0-0.6-0.2-0.8-0.8-1c-0.1,0-0.1,0-0.2,0
				c-1.5-0.1-3.1-0.2-4.6,0.2c-0.8,0.2-0.9,0.4-0.9,1.3c0,0-0.1,0-0.1,0.1c-0.8,0.2-0.9,0.1-0.9-0.7c0-1.2,0.3-1.5,1.7-1.8
				c1.2-0.3,2.5-0.3,3.8-0.1c0.9,0.1,1.7,0.4,2.5,0.5c0.3,0.1,0.5,0.3,0.4,0.6C24.4,12.3,24.4,12.8,24.4,13.3z"/>
			<path class="st36" d="M24.4,19c-0.2,0-0.4,0-0.7-0.1c0-0.9,0-1.7,0-2.6c0-0.9,0-1.7,0-2.6c0.2,0,0.4,0,0.7,0
				C24.4,15.4,24.4,17.2,24.4,19z"/>
			<path class="st38" d="M14.6,18.7c1.5-1.9,6.1-1.8,7.3,0.2c-0.3,0.2-0.7,0.2-0.9-0.1c-0.8-0.9-1.8-1-2.9-1.1c-0.4,0-0.7,0-1.1,0.1
				c-0.5,0.1-0.9,0.4-1.3,0.7C15.4,18.8,15,18.9,14.6,18.7z"/>
			<path class="st38" d="M23,54c0.2,0,0.5,0,0.8,0c0,0.4,0,0.7-0.3,0.9c-0.9,0.6-1,1.7-0.3,2.7c-0.8,0.2-1.4-0.2-1.4-1
				c0-0.8,0.2-1.4,0.9-1.8C22.9,54.6,22.9,54.2,23,54z"/>
			<path class="st38" d="M7.4,52.2c0.2,0.1,0.5,0.2,0.7,0.3c0.1,0,0.1,0.2,0.1,0.2c0,0.1-0.1,0.3-0.1,0.3c-0.8,0.3-1,1-1,1.8
				c0,0.4,0.1,0.7,0.5,0.9c-0.3,0.3-0.9,0.2-1.2-0.1c-0.5-0.6-0.4-1.9,0.2-2.4c0.1,0,0.1-0.1,0.2-0.1c0.5,0,0.5-0.3,0.5-0.7
				C7.4,52.3,7.4,52.2,7.4,52.2C7.4,52.2,7.4,52.2,7.4,52.2z"/>
			<path class="st36" d="M24.2,53.9c0.1,0.1,0.2,0.2,0.2,0.2c0.1,0.3,0.2,0.7,0.3,1c0.2,0.8,0.1,1.5-0.6,2c-0.5,0.3-0.9,0.2-1-0.4
				c-0.1-0.6,0-1.2,0.5-1.5c0.4-0.3,0.6-0.6,0.6-1.1C24.1,54.1,24.2,54,24.2,53.9z"/>
			<path class="st36" d="M16.1,13.7c0.3,0,0.5,0,0.8,0c0,0.1,0,0.1,0,0.2c0,0.8,0.1,1.7,0.1,2.5c0,0.7,0,0.7-0.7,0.8
				C16.2,16,16.1,14.9,16.1,13.7z"/>
			<path class="st36" d="M28.3,52.7c0.2,0.3,0.3,0.6,0.5,0.9c0.3,0.5,0,1.3-0.5,1.4c-0.3,0.1-0.7,0-0.8-0.3
				C27.2,54.1,27.7,52.9,28.3,52.7z"/>
			<path class="st38" d="M28,55.4c-0.5,0.3-0.9,0.3-1.3,0.1c-0.4-0.2-0.5-0.7-0.5-1.1c0-0.7,0.6-0.9,1.1-1.1
				C26.8,54.7,27.2,55.1,28,55.4z"/>
			<path class="st36" d="M8.6,54c-0.1,0.4-0.2,0.7-0.3,1.1c0,0.1-0.2,0.2-0.3,0.2c-0.2,0-0.4-0.1-0.4-0.3c-0.2-0.5,0-1.2,0.4-1.5
				c0.1-0.1,0.3-0.2,0.4-0.1c0.1,0.1,0.2,0.2,0.2,0.4C8.5,53.8,8.5,53.9,8.6,54C8.5,54,8.6,54,8.6,54z"/>
			<path class="st38" d="M11.3,53c0.2,0,0.4,0,0.5,0.1c0.1,0,0.1,0,0.2,0.1c0,0.2,0,0.4-0.1,0.6C11.4,53.7,11.3,53.5,11.3,53z"/>
			<path class="st36" d="M12.4,53.9c0-0.2-0.1-0.4-0.1-0.6c0.2,0,0.5,0,0.7-0.1c0,0,0,0.1,0.1,0.1c-0.2,0.2-0.3,0.4-0.5,0.6
				C12.5,53.9,12.5,53.9,12.4,53.9z"/>
			<path class="st36" d="M16.3,18.5c0.2-0.1,0.4-0.2,0.6-0.3C17.1,18.6,17,18.7,16.3,18.5z"/>
		</g>
	</g>
</g>
<g id="Calque_3">
</g>
</svg>
