<?xml version="1.0" encoding="utf-8"?>
<!-- Generator: Adobe Illustrator 23.0.1, SVG Export Plug-In . SVG Version: 6.00 Build 0)  -->
<svg version="1.1" xmlns="http://www.w3.org/2000/svg" x="0px" y="0px"
     viewBox="0 0 72 72" style="enable-background:new 0 0 72 72;" xml:space="preserve">
<style type="text/css">
	.st0{opacity:0.4;fill:url(#SVGID_1_);}
	.st1{opacity:0.6;fill:url(#SVGID_2_);}
	.st2{opacity:0.6;fill:url(#SVGID_3_);}
	.st3{opacity:0.6;fill:url(#SVGID_4_);}
	.st4{opacity:0.6;fill:url(#SVGID_5_);}
	.st5{opacity:0.6;fill:url(#SVGID_6_);}
	.st6{fill:#1F2B50;}
	.st7{fill:none;stroke:#1F2B50;stroke-width:3;stroke-miterlimit:10;}
	.st8{opacity:0.4;fill:url(#SVGID_7_);}
	.st9{opacity:0.4;fill:url(#SVGID_8_);}
	.st10{opacity:0.6;fill:url(#SVGID_9_);}
	.st11{opacity:0.6;fill:url(#SVGID_10_);}
	.st12{opacity:0.4;fill:url(#SVGID_11_);}
	.st13{opacity:0.4;fill:url(#SVGID_12_);}
	.st14{opacity:0.4;fill:url(#SVGID_13_);}
	.st15{opacity:0.4;fill:url(#SVGID_14_);}
	.st16{opacity:0.4;fill:url(#SVGID_15_);}
	.st17{opacity:0.4;fill:url(#SVGID_16_);}
	.st18{opacity:0.4;fill:url(#SVGID_17_);}
	.st19{fill:url(#SVGID_18_);}
	.st20{fill:url(#SVGID_19_);}
	.st21{fill:url(#SVGID_20_);}
	.st22{opacity:0.6;fill:url(#SVGID_21_);}
	.st23{opacity:0.6;fill:url(#SVGID_22_);}
	.st24{opacity:0.6;fill:url(#SVGID_23_);}
	.st25{opacity:0.6;fill:url(#SVGID_24_);}
	.st26{opacity:0.6;fill:url(#SVGID_25_);}
	.st27{opacity:0.6;fill:url(#SVGID_26_);}
	.st28{opacity:0.6;fill:url(#SVGID_27_);}
	.st29{opacity:0.6;fill:url(#SVGID_28_);}
	.st30{fill:url(#SVGID_29_);}
	.st31{fill:url(#SVGID_30_);}
	.st32{fill:#EA9001;}
	.st33{fill:#407EA7;}
	.st34{opacity:0.5;fill:#FFFFFF;}
	.st35{fill:none;stroke:#EA9001;stroke-width:2;stroke-miterlimit:10;}
	.st36{fill:#BECBCC;}
	.st37{fill:#FFFFFF;}
	.st38{fill:#979B9B;}
	.st39{fill:none;stroke:#407EA7;stroke-width:3;stroke-miterlimit:10;}
	.st40{fill:none;stroke:#407EA7;stroke-width:3.0377;stroke-miterlimit:10;}
	.st41{fill:none;stroke:#407EA7;stroke-width:2.8985;stroke-miterlimit:10;}
	.st42{fill:none;stroke:#407EA7;stroke-width:2.933;stroke-miterlimit:10;}
	.st43{fill:none;stroke:#EA9001;stroke-width:1.8227;stroke-miterlimit:10;}
	.st44{fill:#AAB2B2;}
	.st45{fill:none;stroke:#407EA7;stroke-width:3.0142;stroke-miterlimit:10;}
	.st46{fill:none;stroke:#407EA7;stroke-width:3.0512;stroke-miterlimit:10;}
	.st47{fill:#D3DDDD;}
	.st48{fill:none;stroke:#1F2B50;stroke-miterlimit:10;}
	.st49{fill:#BECBCC;stroke:#1F2B50;stroke-width:0.75;stroke-miterlimit:10;}
	.st50{fill:url(#SVGID_31_);}
	.st51{fill:none;stroke:#407EA7;stroke-width:2.8066;stroke-linecap:round;stroke-miterlimit:10;}
	.st52{fill:none;stroke:#407EA7;stroke-width:2.7511;stroke-linecap:round;stroke-miterlimit:10;}
	.st53{fill:url(#SVGID_32_);}
	.st54{fill:none;stroke:#EA9001;stroke-width:0.8;stroke-miterlimit:10;}
	.st55{fill:none;stroke:#407EA7;stroke-width:1.2;stroke-miterlimit:10;}
	.st56{fill:none;stroke:#407EA7;stroke-width:1.2151;stroke-miterlimit:10;}
	.st57{fill:none;stroke:#407EA7;stroke-width:1.1594;stroke-miterlimit:10;}
	.st58{fill:none;stroke:#407EA7;stroke-width:1.1732;stroke-miterlimit:10;}
	.st59{fill:url(#SVGID_33_);}
	.st60{fill:none;stroke:#1F2B50;stroke-width:0.4;stroke-miterlimit:10;}
	.st61{fill:#BECBCC;stroke:#1F2B50;stroke-width:0.3;stroke-miterlimit:10;}
	.st62{fill:none;stroke:#407EA7;stroke-width:1.1226;stroke-linecap:round;stroke-miterlimit:10;}
	.st63{fill:none;stroke:#407EA7;stroke-width:1.1004;stroke-linecap:round;stroke-miterlimit:10;}
	.st64{fill:url(#SVGID_34_);}
	.st65{fill:url(#SVGID_35_);}
</style>
<g id="Calque_2">
</g>
<g id="Calque_1">
	<g>
		<g id="TXCV9n.tif_6_">
			<g>
				<path class="st6" d="M34.6,65.7c-3.5,0-7.1,0.1-10.6,0.1c-3.4,0-6.8-0.2-10.3-0.3c-3-0.1-5.9-0.1-8.9-0.1c-0.7,0-1.5,0-2.2-0.1
					c-1.2-0.2-1.5-1.1-0.8-2c0.7-0.8,1.4-1.6,2.1-2.4c2.1-2.3,4.1-4.6,6.2-6.9c0.3-0.3,0.3-0.7,0.3-1.1c0-5.6,0.1-11.1,0.1-16.7
					c0-4.5-0.2-9.1-0.2-13.6c0-1.3,0.1-2.5,0.2-3.8c0.1-0.5,0.4-0.9,0.6-1.3c0.1-0.1,0.3-0.2,0.4-0.2c1.8-0.1,3.6-0.1,5.4-0.1
					c1.6,0,3.3,0,4.9,0c5.3,0,10.5,0.1,15.8,0.1c5.1,0,10.2-0.2,15.3-0.2c2.3,0,4.6,0.2,6.9,0.3c0.6,0,1,0.4,1.1,1
					c0.1,0.7,0.2,1.3,0.2,2c0,4.3-0.1,8.6-0.2,12.9C61,38.2,61,43,60.9,47.8c0,1.7,0,3.3,0,5c0,0.1,0,0.3,0.1,0.3
					c0.7,0.7,1.4,1.3,2,2.1c2.2,2.5,4.4,4.9,6.5,7.4c0.3,0.3,0.6,0.6,0.8,0.9c0.1,0.1,0,0.3,0,0.5c0,0.1-0.1,0.1-0.1,0.2
					c-0.4,1.1-1.2,1.4-2.2,1.5c-3.1,0.1-6.2,0.2-9.2,0.2c-4.5,0-9-0.1-13.5-0.1C41.8,65.7,38.2,65.8,34.6,65.7
					C34.6,65.8,34.6,65.7,34.6,65.7z M2.2,63.5c0,0,0,0.1,0.1,0.1c0.2,0,0.4,0,0.6,0c2.6,0,5.1-0.1,7.7-0.1c7.4,0,14.8,0.1,22.2,0.1
					c4.1,0,8.2,0.1,12.3,0.2c3.6,0,7.2,0,10.8,0c4.6,0,9.2-0.1,13.7-0.1c0.1,0,0.3,0,0.5,0c-0.1-0.2-0.2-0.2-0.3-0.3
					c-1-1.1-2.1-2.2-3.1-3.3c-1.8-2-3.6-4.1-5.4-6.1c-0.3-0.3-0.6-0.4-1-0.4c-1.6,0.1-3.2,0.2-4.9,0.2c-3.4,0-6.8-0.1-10.3-0.1
					c-5,0-10.1,0.1-15.1,0.1c-4.4,0-8.7-0.1-13.1-0.1c-1.7,0-3.4,0-5.1-0.1c-0.7,0-1.1,0-1.5,0.6c-2,2.3-4.1,4.6-6.1,6.9
					C3.6,61.9,2.9,62.7,2.2,63.5z M36,53.2C36,53.3,36,53.3,36,53.2c4.5,0.1,9,0.1,13.6,0.1c3.4,0,6.7,0,10.1-0.1
					c1,0,0.9,0.1,0.9-0.9c0-1.9-0.1-3.8-0.1-5.8c0-3.4,0.1-6.8,0.1-10.2c0-4.3,0.1-8.6,0.1-13c0-1.5,0-2.9-0.1-4.4
					c-0.1-1-0.2-1.1-1.2-1.1c-3-0.1-6-0.2-9-0.2c-3.1,0-6.2,0-9.2,0.1c-4,0-8,0-12,0c-5.7,0-11.5-0.1-17.2-0.1
					c-0.5,0-0.8,0.2-0.9,0.6c-0.1,0.5-0.3,1.1-0.3,1.6c0,2.2,0,4.5,0,6.7c0,1.9,0,3.8,0.1,5.8c0,4.5,0.1,8.9,0.1,13.4
					c0,2.4-0.1,4.7-0.1,7.1c0,0.2,0,0.4,0.3,0.4c0.6,0,1.1,0.1,1.7,0.1c2,0,4.1-0.1,6.1-0.1C24.6,53.2,30.3,53.2,36,53.2z
					 M44.7,65.3c0.1,0,0.2,0,0.3,0c4.6,0.1,9.3,0.2,13.9,0.2c3,0,6.1-0.1,9.1-0.2c0.3,0,0.6-0.1,0.9-0.1c0.5-0.1,0.9-0.5,1-1
					c-8.4,0-16.8,0-25.2,0C44.7,64.6,44.7,65,44.7,65.3z M25.9,64.1C17.9,64,10,64,2.1,63.9c-0.1,0.7,0,0.8,0.6,0.9
					c0.5,0.1,1,0.1,1.4,0.1c2.3,0,4.5,0,6.8,0c4.2,0.1,8.3,0.3,12.5,0.4c0.8,0,1.6,0,2.5,0C25.9,65,25.9,64.6,25.9,64.1z M26.3,65.4
					c0.2,0,0.4,0,0.6,0c1.7,0,3.5-0.1,5.2-0.1c3.7,0,7.4,0,11.1,0c0.9,0,0.9,0,1-0.9c0,0,0-0.1-0.1-0.2c-6,0-11.9,0-18,0
					C26.3,64.6,26.3,65,26.3,65.4z"/>
				<path class="st38" d="M2.2,63.5c0.7-0.8,1.4-1.6,2.1-2.4c2-2.3,4.1-4.5,6.1-6.9c0.5-0.6,0.9-0.6,1.5-0.6
					c1.7,0.1,3.4,0.1,5.1,0.1c4.4,0,8.7,0.1,13.1,0.1c5,0,10.1-0.1,15.1-0.1c3.4,0,6.8,0.1,10.3,0.1c1.6,0,3.2-0.1,4.9-0.2
					c0.4,0,0.7,0,1,0.4c1.8,2,3.6,4.1,5.4,6.1c1,1.1,2.1,2.2,3.1,3.3c0.1,0.1,0.1,0.2,0.3,0.3c-0.2,0-0.4,0-0.5,0
					c-4.6,0-9.2,0.1-13.7,0.1c-3.6,0-7.2,0-10.8,0c-4.1,0-8.2-0.1-12.3-0.2c-7.4-0.1-14.8-0.1-22.2-0.1c-2.6,0-5.1,0-7.7,0.1
					c-0.2,0-0.4,0-0.6,0C2.3,63.6,2.2,63.5,2.2,63.5z M65.5,59.5c-0.5-0.6-1.1-1.1-1.5-1.6c-0.9-1.1-1.8-2.1-2.7-3.2
					c-0.3-0.4-0.5-0.4-0.9-0.4c-2.3,0-4.5,0.1-6.8,0.1c-3.2,0-6.5,0.1-9.7,0.2c-2.5,0-5,0-7.5,0c-4.5-0.1-9-0.2-13.5-0.3
					c-2.7,0-5.4,0-8.1-0.1c-1.1,0-2.2-0.1-3.2-0.1c-0.3,0-0.7-0.1-0.9,0.3c-1.2,1.5-2.4,3.1-3.5,4.6c-0.1,0.2-0.2,0.4-0.2,0.6
					c0.2,0.1,0.4,0.2,0.6,0.2c1.9,0,3.8,0,5.7,0.1c6.7,0.2,13.4,0.1,20.1-0.1c2.6-0.1,5.3-0.2,7.9-0.2c2.8,0,5.7,0,8.5,0
					c1.7,0,3.4,0,5.1,0.1c2.3,0,4.6,0.1,6.9,0.2c1.2,0,2.4-0.1,3.6-0.1C65.3,59.6,65.4,59.6,65.5,59.5z"/>
				<path class="st38" d="M36,53.2c-5.7,0-11.3,0-17,0c-2,0-4.1,0.1-6.1,0.1c-0.6,0-1.1-0.1-1.7-0.1c-0.3,0-0.3-0.2-0.3-0.4
					c0-2.4,0.1-4.7,0.1-7.1c0-4.5-0.1-8.9-0.1-13.4c0-1.9,0-3.8-0.1-5.8c0-2.2,0-4.5,0-6.7c0-0.5,0.1-1.1,0.3-1.6
					c0.1-0.4,0.5-0.6,0.9-0.6c5.7,0,11.5,0.1,17.2,0.1c4,0,8,0,12,0c3.1,0,6.2-0.1,9.2-0.1c3,0,6,0.1,9,0.2c1,0,1.1,0.1,1.2,1.1
					c0.1,1.5,0.1,2.9,0.1,4.4c0,4.3-0.1,8.6-0.1,13c0,3.4-0.1,6.8-0.1,10.2c0,1.9,0.1,3.8,0.1,5.8c0,1,0.1,0.9-0.9,0.9
					c-3.4,0-6.7,0.1-10.1,0.1C45,53.3,40.5,53.3,36,53.2C36,53.3,36,53.3,36,53.2z M36.3,51.5C36.3,51.5,36.3,51.4,36.3,51.5
					c2.8,0,5.6,0,8.4,0c3.3,0,6.6,0,9.9,0c1.3,0,2.7,0,4,0.1c0.9,0,0.9,0.1,0.9-0.8c0-1.7,0-3.3,0-5c0-8,0-16,0-24
					c0-0.7,0-1.3-0.1-2c0-0.6-0.2-0.8-0.8-0.8c-0.5,0-1.1,0-1.6,0c-3.5,0-7.1,0-10.6,0c-4.2,0-8.5,0.1-12.7,0.1
					c-3.2,0-6.5-0.2-9.7-0.2c-2.4,0-4.9,0-7.3,0c-1.4,0-2.8,0-4.1-0.1c-0.4,0-0.5,0.1-0.5,0.4c0,0.1,0,0.3,0,0.4
					c0.1,4.7,0.2,9.4,0.2,14.1c0,5.3-0.3,10.7,0.1,16c0.1,1.5,0.1,1.5,1.6,1.5c3.9,0,7.8,0.1,11.7,0.1
					C29.1,51.5,32.7,51.5,36.3,51.5z"/>
				<path class="st38" d="M44.7,65.3c0-0.3,0-0.7,0-1.1c8.4,0,16.8,0,25.2,0c-0.1,0.5-0.5,0.9-1,1c-0.3,0.1-0.6,0.1-0.9,0.1
					c-3,0.1-6.1,0.2-9.1,0.2c-4.6,0-9.3-0.1-13.9-0.2C44.9,65.3,44.8,65.3,44.7,65.3z"/>
				<path class="st38" d="M25.9,64.1c0,0.5,0,0.9,0,1.4c-0.9,0-1.7,0-2.5,0c-4.2-0.1-8.3-0.3-12.5-0.4c-2.3-0.1-4.5,0-6.8,0
					c-0.5,0-1-0.1-1.4-0.1c-0.6-0.1-0.7-0.3-0.6-0.9C10,64,17.9,64,25.9,64.1z"/>
				<path class="st37" d="M26.3,65.4c0-0.5,0-0.8,0-1.2c6,0,12,0,18,0c0,0.1,0.1,0.2,0.1,0.2c-0.1,0.9-0.1,0.9-1,0.9
					c-3.7,0-7.4,0-11.1,0c-1.7,0-3.5,0.1-5.2,0.1C26.7,65.4,26.6,65.4,26.3,65.4z"/>
				<path class="st6" d="M65.5,59.5c-0.1,0-0.2,0.1-0.3,0.1c-1.2,0.1-2.4,0.2-3.6,0.1c-2.3,0-4.6-0.1-6.9-0.2
					c-1.7,0-3.4-0.1-5.1-0.1c-2.8,0-5.7-0.1-8.5,0c-2.6,0-5.3,0.1-7.9,0.2c-6.7,0.2-13.4,0.2-20.1,0.1c-1.9,0-3.8,0-5.7-0.1
					c-0.2,0-0.4-0.1-0.6-0.2c0.1-0.2,0.1-0.4,0.2-0.6c1.2-1.5,2.4-3.1,3.5-4.6c0.3-0.3,0.6-0.3,0.9-0.3c1.1,0,2.2,0.1,3.2,0.1
					c2.7,0,5.4,0,8.1,0.1c4.5,0.1,9,0.2,13.5,0.3c2.5,0,5,0,7.5,0c3.2,0,6.5-0.1,9.7-0.2c2.3,0,4.5-0.1,6.8-0.1
					c0.4,0,0.6,0.1,0.9,0.4c0.8,1.1,1.8,2.1,2.7,3.2C64.5,58.4,65,58.9,65.5,59.5z M44.6,58.6c-0.5,0-0.9,0-1.3,0
					c-3.8,0-7.5-0.1-11.3-0.1c-2.8,0-5.7,0-8.5,0c-0.3,0-0.5,0.1-0.6,0.4c0,0.2-0.1,0.3-0.1,0.6c7.3-0.1,14.6-0.3,21.9-0.4
					C44.6,59,44.6,58.8,44.6,58.6z M48.2,57.2c0.1-0.3-0.1-0.4-0.4-0.4c-1,0-2,0-3.1,0c-4.5-0.1-9.1-0.2-13.6-0.2
					c-1.5,0-3,0-4.5,0.1c-0.7,0-0.8,0.2-0.9,1C33.2,56.7,40.7,57.6,48.2,57.2z M64,58.3c-0.2-0.4-0.4-0.7-0.9-0.7
					c-2.2,0-4.4,0-6.5,0c-0.6,0-1.3,0-2,0c0.2,0.5,0.4,0.7,0.9,0.7c2.7,0,5.4,0,8,0C63.7,58.4,63.8,58.3,64,58.3z M12.6,55.4
					c2.8,0,5.5-0.1,8.2-0.1c0.1-0.2,0.1-0.5,0.2-0.7c-0.2,0-0.4,0-0.5,0c-1,0-2,0-3-0.1c-0.5,0-0.8,0.1-0.9,0.5
					c0,0.1-0.1,0.2-0.2,0.3c0,0-0.1,0-0.1-0.1c0.1-0.2,0.1-0.4,0.2-0.7c-0.2,0-0.4,0-0.5,0c-0.7,0-1.4,0-2,0
					C13,54.4,13,54.4,12.6,55.4z M15,56.6c-0.1,0-0.2,0-0.4,0c-1.5,0-3,0-4.5,0c-0.6,0-0.9,0.2-1.2,1c1.7,0,3.3,0,4.9,0
					C14.7,57.5,14.7,57.5,15,56.6z M15.8,57.9c0,0-0.1-0.1-0.1-0.1c-0.2,0-0.3,0-0.5,0c-2,0-4.1,0-6.1-0.1c-0.5,0-0.7,0.1-0.9,0.6
					c0.3,0,0.5,0.1,0.8,0.1c2.1,0,4.2,0,6.3-0.1C15.5,58.2,15.6,58,15.8,57.9z M63.1,57.4c0-0.1,0.1-0.1,0.1-0.2
					c-0.2-0.1-0.4-0.4-0.7-0.4c-1.8-0.1-3.6-0.1-5.5-0.1c-0.3,0-0.6,0-0.9,0.1c0,0.5,0.2,0.6,0.6,0.6c1.8,0,3.6,0,5.3,0
					C62.4,57.4,62.7,57.4,63.1,57.4z M61.4,55.5c0,0,0-0.1,0-0.1c-0.2-0.3-0.4-0.7-0.9-0.7c-1.6,0-3.2,0.1-4.8,0.1c0,0,0,0-0.2,0.1
					c0.2,0.2,0.4,0.5,0.6,0.6C57.9,55.5,59.6,55.5,61.4,55.5z M55.7,56.8c-2.4,0-4.8,0-7.2,0c0,0.5,0,0.5,0.5,0.5
					c2.1,0,4.3,0.1,6.4,0.1c0.1,0,0.3,0,0.4,0C55.8,57.1,55.7,57,55.7,56.8z M15.9,58c0,0.1,0.1,0.1,0.1,0.2c0.1,0,0.1,0,0.2,0
					c2.2,0,4.4,0,6.5,0.1c0.3,0,0.4-0.2,0.4-0.5c-0.1,0-0.1,0-0.2,0c-2.2,0-4.3-0.1-6.5-0.1C16.3,57.7,16.1,57.9,15.9,58z
					 M18.9,58.5c-1.1,0-2.2,0-3.2,0c-0.8,0-0.9,0.1-1,1c1.3,0,2.5,0,3.8,0C18.6,59.2,18.7,58.9,18.9,58.5z M25.7,56.6
					c-1.2,0-2.4,0-3.5,0c-0.1,0-0.2,0.1-0.2,0.2c-0.1,0.2-0.2,0.5-0.3,0.8c1.2,0,2.3,0,3.4,0c0.1,0,0.2-0.1,0.3-0.2
					C25.5,57.2,25.6,57,25.7,56.6z M22.7,58.6c-1.1,0-2.2,0-3.3,0c-0.1,0-0.2,0.1-0.2,0.2c-0.1,0.2-0.2,0.5-0.3,0.8c1,0,1.8,0,2.7,0
					C22.4,59.5,22.4,59.6,22.7,58.6z M58.1,55.7c0.1,0.5,0.3,0.8,0.7,0.8c1.1,0,2.2,0.1,3.4,0.1c0.1,0,0.2,0,0.3-0.1
					c-0.3-0.6-0.7-0.9-1.3-0.8c-0.4,0-0.9,0-1.3,0C59.2,55.6,58.7,55.7,58.1,55.7z M21.8,56.6c-0.9,0-1.7,0-2.5,0
					c-0.8,0-0.8,0-1,0.9c1.1,0,2.1,0,3.2,0C21.6,57.2,21.7,56.9,21.8,56.6z M39.7,55.7c0,0.3,0,0.5,0,0.8c1.2,0,2.3,0,3.5,0
					c0,0,0.1-0.1,0.1-0.1c-0.2-0.2-0.4-0.6-0.5-0.7C41.8,55.7,40.8,55.7,39.7,55.7z M17.6,56.3c1.2,0,2.3,0,3.4,0
					c0.1-0.3,0.2-0.5,0.3-0.8c-0.9,0-1.9,0-2.8,0C17.8,55.5,17.8,55.5,17.6,56.3z M13.8,55.5c-1,0-2,0-3,0c-0.7,0-0.8,0-1.1,0.8
					c0.2,0,0.3,0,0.5,0c0.9,0,1.7,0,2.6,0C13.4,56.4,13.7,56.2,13.8,55.5z M39.5,55.6c-0.9,0-1.8,0-2.7,0c-0.7,0-0.8,0.1-0.6,0.9
					c1,0,2.1,0,3.2,0C39.4,56.2,39.4,55.9,39.5,55.6z M11,58.6c-0.8,0-1.5,0-2.3-0.1c-0.8-0.1-0.9,0-1.4,0.9c0.8,0,1.6,0,2.4,0.1
					C10.4,59.5,10.8,59.2,11,58.6z M14.6,58.5c-0.9,0-1.7,0-2.5,0c-0.7,0-0.8,0-1,0.9c1,0,2,0,3,0c0.1,0,0.2-0.1,0.3-0.2
					C14.4,59.1,14.5,58.8,14.6,58.5z M14.1,55.6c-0.1,0.3-0.2,0.5-0.3,0.8c0.9,0,1.8,0,2.7,0c0.8,0,0.8,0,1-0.8
					C16.4,55.6,15.3,55.6,14.1,55.6z M23.4,55.4c1,0,1.9,0,2.8,0c0.6,0,0.6,0,0.7-0.7c-1.1-0.1-2.2-0.1-3.3-0.2
					C23.6,54.8,23.5,55.1,23.4,55.4z M28.6,55.6c-1,0-1.9,0-2.8,0c-0.6,0-0.7,0.1-0.6,0.7c0.9,0,1.9,0,2.8,0
					C28.5,56.3,28.5,56.3,28.6,55.6z M48.6,54.8c0,0.8,0,0.8,0.7,0.8c0.5,0,1,0,1.5,0c0.3,0,0.7,0,1,0c-0.1-0.3-0.1-0.6-0.2-0.8
					C50.7,54.8,49.6,54.8,48.6,54.8z M52,54.8c0.1,0.8,0.1,0.8,0.9,0.8c0.9,0,1.7,0,2.6,0c0-0.1,0.1-0.1,0.1-0.2
					c-0.2-0.2-0.3-0.6-0.5-0.6C54,54.7,53,54.8,52,54.8z M15,57.5c0.8,0,1.6,0,2.3,0c0.8,0,0.8,0,1-0.9c-0.9,0-1.9,0-2.8,0
					c-0.1,0-0.2,0.1-0.3,0.2C15.1,57,15,57.2,15,57.5z M31.4,58.2c1.2,0,2.4,0,3.6,0c0-0.2,0.1-0.4,0.1-0.7c-0.2,0-0.4,0-0.6,0
					c-0.9,0-1.7,0-2.6,0.1C31.4,57.5,31.4,57.6,31.4,58.2z M35.4,58.2c0.9,0,1.8,0,2.7,0c0.7,0,0.7,0,0.6-0.7c-1.1,0-2.2,0-3.2,0
					C35.4,57.7,35.4,57.9,35.4,58.2z M24.9,55.5c-0.9,0-1.7,0-2.6,0c-0.7,0-0.8,0.1-0.8,0.9c0.9,0,1.7,0,2.6,0
					C24.7,56.4,24.7,56.4,24.9,55.5z M44.8,54.9c0.2,0.3,0.3,0.6,0.4,0.6c1,0,2,0,3,0c-0.1-0.3,0.2-0.8-0.3-0.8
					C47,54.8,46,54.9,44.8,54.9z M30.9,58.2c0-0.2,0.1-0.4,0.1-0.7c-1.1,0.1-2.2,0.1-3.2,0.2c-0.4,0-0.5,0.2-0.5,0.5
					C28.5,58.2,29.7,58.2,30.9,58.2z M42.8,58.3c0-0.2,0-0.4,0-0.7c-1.3,0-2.5,0-3.8,0c0,0.2,0,0.4,0,0.7
					C40.3,58.3,41.5,58.3,42.8,58.3z M32.3,55.6c-1,0-1.9,0-2.9,0c-0.7,0-0.7,0-0.6,0.7c1,0,1.9,0,2.9,0
					C32.1,56.3,32.3,56.1,32.3,55.6z M47,55.9c0,0.5,0.2,0.8,0.7,0.7c0.3,0,0.6,0,0.8,0c0.7,0,1.4,0,2.2,0c0-0.3-0.1-0.5-0.1-0.7
					C49.4,55.9,48.2,55.9,47,55.9z M54.4,55.7c0,0.1-0.1,0.1-0.1,0.2c0.2,0.2,0.4,0.5,0.6,0.5c1,0.1,2.1,0,3.1,0
					c0-0.1,0.1-0.1,0.1-0.2c-0.2-0.2-0.3-0.6-0.5-0.6C56.5,55.7,55.4,55.7,54.4,55.7z M48.7,58.6c0,0.5,0.3,0.6,0.8,0.6
					c1,0,2.1,0,3.1,0c0.1,0,0.3,0,0.4,0c0,0,0-0.1,0.1-0.1c-0.2-0.1-0.3-0.4-0.5-0.4C51.3,58.6,50,58.6,48.7,58.6z M50.9,58.3
					c1.2,0,2.4,0,3.7,0c-0.2-0.3-0.4-0.6-0.6-0.6c-1.1,0-2.2,0-3.3,0C50.7,57.9,50.8,58.1,50.9,58.3z M46.7,55.8c-1.2,0-2.3,0-3.5,0
					c0.2,0.3,0.4,0.7,0.5,0.7c1,0.1,2.1,0,3.1,0C46.8,56.3,46.8,56.1,46.7,55.8z M32.5,56.3c1.1,0,2.1,0,3.2,0
					c0-0.2,0.1-0.4,0.1-0.7c-0.9,0-1.9,0-2.8,0C32.6,55.6,32.5,55.8,32.5,56.3z M54.2,56.5c0-0.1,0.1-0.1,0.1-0.2
					c-0.2-0.2-0.3-0.5-0.5-0.5c-0.9-0.1-1.9,0-2.8,0c0,0.1-0.1,0.1-0.1,0.2c0.1,0.2,0.3,0.5,0.4,0.5C52.2,56.5,53.2,56.5,54.2,56.5z
					 M48.5,59.2c0-0.6,0-0.7-0.6-0.7c-0.4,0-0.8,0-1.2,0c-0.6,0-1.2,0-1.8,0c0,0-0.1,0.1-0.1,0.1c0.1,0.2,0.2,0.5,0.3,0.5
					C46.3,59.2,47.4,59.2,48.5,59.2z M50.4,58.2c-0.1-0.5-0.3-0.7-0.8-0.6c-0.1,0-0.3,0-0.4,0c-0.8,0-1.6,0-2.4,0
					c0.1,0.3,0.1,0.4,0.1,0.7C48.2,58.2,49.3,58.2,50.4,58.2z M61.1,59.4c-0.2-0.7-0.2-0.7-0.8-0.6c-1,0-1.9,0-2.9,0.1
					c-0.1,0-0.1,0-0.3,0.1c0.3,0.2,0.5,0.5,0.8,0.5C58.9,59.4,60,59.4,61.1,59.4z M30.5,54.7c-0.8,0-1.7,0-2.5,0
					c-0.6,0-0.6,0-0.7,0.8c0.9,0,1.7,0,2.6,0C30.3,55.5,30.4,55.4,30.5,54.7z M43.2,58.2c1.2,0,2.3,0,3.4,0c0-0.3-0.1-0.4-0.1-0.6
					c-1.1,0-2.3,0-3.4,0C43.1,57.9,43.1,58.1,43.2,58.2z M64.9,59.4c-0.3-0.6-0.6-0.8-1.2-0.7c-0.4,0.1-0.9,0-1.3,0.1
					c-0.4,0-0.8,0-1.2,0c0.2,0.4,0.4,0.7,0.9,0.7C63,59.4,63.9,59.4,64.9,59.4z M41.2,55.4c1.1,0.1,2.3,0.1,3.4,0.2
					c0-0.3,0-0.4,0-0.7c-1.2,0-2.3,0-3.4,0C41.2,55.1,41.2,55.2,41.2,55.4z M56.9,59.3c-0.1-0.4-0.3-0.6-0.8-0.5c-0.3,0-0.6,0-0.8,0
					c-0.7,0-1.4,0-2.1,0c0,0,0,0.1-0.1,0.1c0.2,0.1,0.4,0.4,0.7,0.4C54.9,59.3,55.9,59.3,56.9,59.3z M30.7,55.4c1.1,0,2.1,0,3.2,0
					c0-0.2,0-0.4,0-0.6c-1,0-2,0-3,0C30.7,55,30.7,55.2,30.7,55.4z M12.8,54.4c-1.6-0.3-1.8-0.2-2.3,0.9c0.6,0,1.2,0,1.7,0
					c0.1,0,0.2-0.1,0.2-0.1C12.5,55,12.6,54.7,12.8,54.4z M23.2,58.2c0,0,0,0.1,0.1,0.1c1.1,0,2.2,0,3.2,0c0.4,0,0.6-0.2,0.7-0.5
					c-1.2,0-2.4,0-3.6,0C23.4,57.8,23.3,58.1,23.2,58.2z M40.9,54.9c-1,0-2,0-3.2,0c0.2,0.2,0.3,0.4,0.4,0.4c0.9,0,1.8,0,2.8,0
					C40.9,55.2,40.9,55.1,40.9,54.9z M34.2,55.3c1.1,0,2.1,0,3.1,0c0.3,0,0.3-0.2,0.3-0.5c-1.1,0-2.3,0-3.4,0
					C34.2,55,34.2,55.1,34.2,55.3z M21.1,55.3c0.5,0,0.9,0.1,1.3,0.1c0.7,0.1,0.8,0,0.8-0.8c-0.5,0-0.9,0-1.4,0
					C21.3,54.5,21.3,54.5,21.1,55.3z"/>
				<path class="st6" d="M36.3,51.5c-3.6,0-7.1,0-10.7,0c-3.9,0-7.8-0.1-11.7-0.1c-1.5,0-1.5-0.1-1.6-1.5c-0.4-5.3,0-10.7-0.1-16
					c0-4.7-0.1-9.4-0.2-14.1c0-0.1,0-0.3,0-0.4c0-0.3,0.1-0.4,0.5-0.4c1.4,0.1,2.8,0.1,4.1,0.1c2.4,0,4.9-0.1,7.3,0
					c3.2,0,6.5,0.2,9.7,0.2c4.2,0,8.5-0.1,12.7-0.1c3.5,0,7.1,0,10.6,0c0.5,0,1.1,0,1.6,0c0.6,0,0.7,0.1,0.8,0.8
					c0,0.7,0.1,1.3,0.1,2c0,8,0,16,0,24c0,1.7,0,3.3,0,5c0,0.9,0,0.8-0.9,0.8c-1.3,0-2.7,0-4-0.1c-3.3,0-6.6,0-9.9,0
					C41.9,51.4,39.1,51.4,36.3,51.5C36.3,51.4,36.3,51.5,36.3,51.5z M59,19.5c-0.8,0-1.4,0-2,0c-3.6,0-7.2,0-10.9,0
					c-4.1,0-8.2,0.1-12.3,0.1c-3.7,0-7.4-0.2-11.1-0.2c-2.5,0-5,0-7.5,0c-0.9,0-1.8-0.1-2.8-0.1c0,0.1,0,0.1,0,0.2
					c0,3.1,0.1,6.3,0.1,9.4c0,3,0.1,6,0.1,9c0,4.2,0,8.5,0,12.7c0,0.4,0.1,0.5,0.5,0.5c1,0,2,0,3,0c3.2,0,6.3,0.1,9.5,0.1
					c6.5,0,13,0,19.5-0.1c3.9,0,7.8,0,11.7,0c0.8,0,1.5,0,2.3,0C59.3,40.6,59.1,30.1,59,19.5z"/>
				<path class="st37" d="M44.6,58.6c0,0.2,0,0.4,0,0.6c-7.3,0.1-14.6,0.3-21.9,0.4c0.1-0.2,0.1-0.4,0.1-0.6
					c0.1-0.3,0.3-0.4,0.6-0.4c2.8,0,5.7-0.1,8.5,0c3.8,0,7.5,0.1,11.3,0.1C43.6,58.6,44.1,58.6,44.6,58.6z"/>
				<path class="st37" d="M48.2,57.2c-7.5,0.4-15-0.5-22.5,0.4c0.1-0.9,0.2-1,0.9-1c1.5,0,3-0.1,4.5-0.1c4.5,0.1,9.1,0.2,13.6,0.2
					c1,0,2,0,3.1,0C48.1,56.8,48.2,56.9,48.2,57.2z"/>
				<path class="st37" d="M64,58.3c-0.2,0-0.3,0.1-0.4,0.1c-2.7,0-5.4,0-8,0c-0.5,0-0.7-0.2-0.9-0.7c0.7,0,1.3,0,2,0
					c2.2,0,4.4,0,6.5,0C63.5,57.7,63.7,57.9,64,58.3z"/>
				<path class="st37" d="M12.6,55.4c0.4-0.9,0.4-0.9,1.2-0.9c0.7,0,1.4,0,2,0c0.2,0,0.3,0,0.5,0c-0.1,0.3-0.2,0.5-0.2,0.7
					c0,0,0.1,0,0.1,0.1c0.1-0.1,0.2-0.2,0.2-0.3c0.1-0.5,0.5-0.6,0.9-0.5c1,0,2,0,3,0.1c0.2,0,0.3,0,0.5,0c-0.1,0.3-0.1,0.5-0.2,0.7
					C18.1,55.3,15.4,55.3,12.6,55.4z"/>
				<path class="st37" d="M15,56.6c-0.3,0.9-0.3,0.9-1.1,0.9c-1.6,0-3.3,0-4.9,0c0.2-0.7,0.6-1,1.2-1c1.5,0,3,0,4.5,0
					C14.7,56.6,14.8,56.6,15,56.6z"/>
				<path class="st37" d="M15.8,57.9c-0.2,0.1-0.3,0.3-0.5,0.4c-2.1,0-4.2,0.1-6.3,0.1c-0.2,0-0.5-0.1-0.8-0.1
					c0.2-0.4,0.4-0.6,0.9-0.6c2,0.1,4.1,0.1,6.1,0.1c0.2,0,0.3,0,0.5,0C15.8,57.8,15.8,57.8,15.8,57.9z"/>
				<path class="st37" d="M63.1,57.4c-0.4,0-0.7,0-1.1,0c-1.8,0-3.6,0-5.3,0c-0.4,0-0.6-0.1-0.6-0.6c0.3,0,0.6-0.1,0.9-0.1
					c1.8,0,3.6,0,5.5,0.1c0.2,0,0.4,0.3,0.7,0.4C63.1,57.2,63.1,57.3,63.1,57.4z"/>
				<path class="st37" d="M61.4,55.5c-1.7,0-3.5,0-5.2,0c-0.2,0-0.4-0.3-0.6-0.6c0.1-0.1,0.2-0.1,0.2-0.1c1.6,0,3.2-0.1,4.8-0.1
					c0.5,0,0.6,0.4,0.9,0.7C61.4,55.4,61.4,55.4,61.4,55.5z"/>
				<path class="st37" d="M55.7,56.8c0,0.2,0.1,0.3,0.1,0.5c-0.1,0-0.3,0-0.4,0c-2.1,0-4.3-0.1-6.4-0.1c-0.4,0-0.4,0-0.5-0.5
					C50.9,56.8,53.3,56.8,55.7,56.8z"/>
				<path class="st37" d="M15.9,58c0.2-0.1,0.4-0.3,0.6-0.3c2.2,0,4.3,0,6.5,0.1c0,0,0.1,0,0.2,0c0,0.3,0,0.5-0.4,0.5
					c-2.2,0-4.4,0-6.5-0.1c-0.1,0-0.1,0-0.2,0C15.9,58.1,15.9,58.1,15.9,58z"/>
				<path class="st37" d="M18.9,58.5c-0.2,0.4-0.3,0.7-0.4,1c-1.3,0-2.5,0-3.8,0c0.1-0.9,0.2-1,1-1C16.7,58.5,17.8,58.5,18.9,58.5z"
					/>
				<path class="st37" d="M25.7,56.6c-0.2,0.4-0.2,0.6-0.3,0.8c0,0.1-0.2,0.2-0.3,0.2c-1.1,0-2.2,0-3.4,0c0.1-0.3,0.2-0.6,0.3-0.8
					c0-0.1,0.1-0.2,0.2-0.2C23.4,56.6,24.5,56.6,25.7,56.6z"/>
				<path class="st37" d="M22.7,58.6c-0.3,1-0.3,1-1.1,1c-0.9,0-1.8,0-2.7,0c0.1-0.3,0.2-0.6,0.3-0.8c0-0.1,0.1-0.2,0.2-0.2
					C20.5,58.6,21.6,58.6,22.7,58.6z"/>
				<path class="st37" d="M58.1,55.7c0.6,0,1.2,0,1.7,0c0.4,0,0.9,0.1,1.3,0c0.6-0.1,1,0.2,1.3,0.8c-0.1,0-0.2,0.1-0.3,0.1
					c-1.1,0-2.2,0-3.4-0.1C58.3,56.4,58.2,56.1,58.1,55.7z"/>
				<path class="st37" d="M21.8,56.6c-0.1,0.4-0.2,0.7-0.3,0.9c-1,0-2.1,0-3.2,0c0.2-0.9,0.2-0.9,1-0.9C20.2,56.5,21,56.6,21.8,56.6
					z"/>
				<path class="st37" d="M39.7,55.7c1,0,2,0,3,0c0.2,0,0.4,0.4,0.5,0.7c0,0-0.1,0.1-0.1,0.1c-1.1,0-2.3,0-3.5,0
					C39.7,56.2,39.7,55.9,39.7,55.7z"/>
				<path class="st37" d="M17.6,56.3c0.2-0.8,0.2-0.8,0.9-0.8c0.9,0,1.8,0,2.8,0c-0.1,0.3-0.2,0.5-0.3,0.8
					C19.9,56.3,18.8,56.3,17.6,56.3z"/>
				<path class="st37" d="M13.8,55.5c-0.1,0.7-0.5,0.9-1,0.8c-0.9,0-1.7,0-2.6,0c-0.1,0-0.3,0-0.5,0c0.3-0.8,0.4-0.8,1.1-0.8
					C11.9,55.6,12.8,55.5,13.8,55.5z"/>
				<path class="st37" d="M39.5,55.6c0,0.4-0.1,0.6-0.1,0.9c-1.1,0-2.1,0-3.2,0c-0.2-0.8-0.1-0.9,0.6-0.9
					C37.7,55.6,38.5,55.6,39.5,55.6z"/>
				<path class="st37" d="M11,58.6c-0.2,0.7-0.6,0.9-1.3,0.8c-0.8-0.1-1.5-0.1-2.4-0.1c0.5-0.9,0.6-0.9,1.4-0.9
					C9.5,58.5,10.2,58.5,11,58.6z"/>
				<path class="st37" d="M14.6,58.5c-0.1,0.3-0.2,0.5-0.3,0.7c0,0.1-0.2,0.2-0.3,0.2c-1,0-2,0-3,0c0.2-0.9,0.3-0.9,1-0.9
					C12.9,58.5,13.7,58.5,14.6,58.5z"/>
				<path class="st37" d="M14.1,55.6c1.1,0,2.3,0,3.4,0c-0.2,0.8-0.2,0.8-1,0.8c-0.9,0-1.8,0-2.7,0C14,56.1,14.1,55.8,14.1,55.6z"/>
				<path class="st37" d="M23.4,55.4c0.1-0.4,0.2-0.6,0.2-0.9c1.1,0.1,2.2,0.1,3.3,0.2c-0.1,0.7-0.1,0.7-0.7,0.7
					C25.3,55.4,24.4,55.4,23.4,55.4z"/>
				<path class="st37" d="M28.6,55.6c-0.1,0.7-0.1,0.7-0.7,0.7c-0.9,0-1.9,0-2.8,0c-0.1-0.6,0-0.7,0.6-0.7
					C26.7,55.6,27.6,55.6,28.6,55.6z"/>
				<path class="st37" d="M48.6,54.8c1,0,2.1,0,3.1,0c0.1,0.3,0.1,0.5,0.2,0.8c-0.4,0-0.7,0-1,0c-0.5,0-1,0-1.5,0
					C48.6,55.6,48.6,55.6,48.6,54.8z"/>
				<path class="st37" d="M52,54.8c1,0,2,0,3,0c0.2,0,0.3,0.4,0.5,0.6c0,0.1-0.1,0.1-0.1,0.2c-0.9,0-1.7,0-2.6,0
					C52.1,55.6,52.1,55.5,52,54.8z"/>
				<path class="st37" d="M15,57.5c0.1-0.2,0.1-0.5,0.2-0.7c0-0.1,0.2-0.2,0.3-0.2c0.9,0,1.9,0,2.8,0c-0.2,0.9-0.2,0.9-1,0.9
					C16.5,57.5,15.8,57.5,15,57.5z"/>
				<path class="st37" d="M31.4,58.2c0-0.6,0-0.6,0.6-0.7c0.9,0,1.7,0,2.6-0.1c0.2,0,0.3,0,0.6,0c0,0.3-0.1,0.5-0.1,0.7
					C33.8,58.2,32.6,58.2,31.4,58.2z"/>
				<path class="st37" d="M35.4,58.2c0-0.3,0-0.5,0-0.7c1.1,0,2.2,0,3.2,0c0.1,0.7,0.1,0.7-0.6,0.7C37.2,58.2,36.3,58.2,35.4,58.2z"
					/>
				<path class="st37" d="M24.9,55.5c-0.2,0.8-0.2,0.8-0.8,0.8c-0.9,0-1.7,0-2.6,0c0-0.8,0.2-0.9,0.8-0.9
					C23.1,55.5,24,55.5,24.9,55.5z"/>
				<path class="st37" d="M44.8,54.9c1.2-0.1,2.2-0.1,3.1-0.1c0.5,0,0.2,0.5,0.3,0.8c-1.1,0-2.1,0-3,0C45.1,55.6,45,55.2,44.8,54.9z
					"/>
				<path class="st37" d="M30.9,58.2c-1.2,0-2.4,0-3.6,0c0-0.4,0.1-0.5,0.5-0.5c1.1,0,2.1-0.1,3.2-0.2C31,57.8,31,58,30.9,58.2z"/>
				<path class="st37" d="M42.8,58.3c-1.3,0-2.5,0-3.7,0c0-0.2,0-0.4,0-0.7c1.3,0,2.5,0,3.8,0C42.8,57.8,42.8,58,42.8,58.3z"/>
				<path class="st37" d="M32.3,55.6c0,0.5-0.1,0.7-0.6,0.7c-1,0-1.9,0-2.9,0c0-0.7,0-0.7,0.6-0.7C30.4,55.6,31.3,55.6,32.3,55.6z"
					/>
				<path class="st37" d="M47,55.9c1.2,0,2.4,0,3.6,0c0,0.2,0.1,0.4,0.1,0.7c-0.7,0-1.5,0-2.2,0c-0.3,0-0.6,0-0.8,0
					C47.2,56.6,47,56.4,47,55.9z"/>
				<path class="st37" d="M54.4,55.7c1.1,0,2.2,0,3.2,0c0.2,0,0.3,0.4,0.5,0.6c0,0.1-0.1,0.1-0.1,0.2c-1,0-2.1,0-3.1,0
					c-0.2,0-0.4-0.3-0.6-0.5C54.3,55.9,54.3,55.8,54.4,55.7z"/>
				<path class="st37" d="M48.7,58.6c1.3,0,2.6,0,3.9,0c0.2,0,0.3,0.3,0.5,0.4c0,0,0,0.1-0.1,0.1c-0.1,0-0.3,0-0.4,0
					c-1,0-2.1,0-3.1,0C49,59.3,48.7,59.1,48.7,58.6z"/>
				<path class="st37" d="M50.9,58.3c-0.1-0.2-0.1-0.4-0.2-0.6c1.1,0,2.2,0,3.3,0c0.2,0,0.3,0.3,0.6,0.6
					C53.2,58.3,52,58.3,50.9,58.3z"/>
				<path class="st37" d="M46.7,55.8c0,0.3,0.1,0.5,0.1,0.7c-1.1,0-2.1,0-3.1,0c-0.2,0-0.3-0.4-0.5-0.7
					C44.4,55.8,45.6,55.8,46.7,55.8z"/>
				<path class="st37" d="M32.5,56.3c0-0.6,0.1-0.8,0.6-0.7c0.9,0,1.8,0,2.8,0c-0.1,0.3-0.1,0.5-0.1,0.7
					C34.7,56.3,33.6,56.3,32.5,56.3z"/>
				<path class="st37" d="M54.2,56.5c-1,0-2,0-2.9,0c-0.1,0-0.3-0.3-0.4-0.5c0-0.1,0.1-0.1,0.1-0.2c0.9,0,1.9,0,2.8,0
					c0.2,0,0.4,0.4,0.5,0.5C54.2,56.4,54.2,56.4,54.2,56.5z"/>
				<path class="st37" d="M48.5,59.2c-1.1,0-2.2,0-3.3,0c-0.1,0-0.2-0.3-0.3-0.5c0,0,0.1-0.1,0.1-0.1c0.6,0,1.2,0,1.8,0
					c0.4,0,0.8,0,1.2,0C48.4,58.5,48.5,58.6,48.5,59.2z"/>
				<path class="st37" d="M50.4,58.2c-1.1,0-2.3,0-3.4,0c0-0.2-0.1-0.4-0.1-0.7c0.8,0,1.6,0,2.4,0c0.1,0,0.3,0.1,0.4,0
					C50.2,57.5,50.4,57.8,50.4,58.2z"/>
				<path class="st37" d="M61.1,59.4c-1.1,0-2.1,0-3.2,0c-0.2,0-0.5-0.3-0.8-0.5c0.2,0,0.2-0.1,0.3-0.1c1,0,1.9,0,2.9-0.1
					C60.9,58.7,60.9,58.7,61.1,59.4z"/>
				<path class="st37" d="M30.5,54.7c0,0.7-0.1,0.7-0.7,0.8c-0.9,0-1.7,0-2.6,0c0.1-0.8,0.1-0.8,0.7-0.8
					C28.8,54.7,29.6,54.7,30.5,54.7z"/>
				<path class="st37" d="M43.2,58.2c0-0.2,0-0.3-0.1-0.6c1.2,0,2.3,0,3.4,0c0,0.2,0.1,0.3,0.1,0.6C45.4,58.2,44.3,58.2,43.2,58.2z"
					/>
				<path class="st37" d="M64.9,59.4c-1,0-1.9,0-2.8,0c-0.5,0-0.7-0.2-0.9-0.7c0.4,0,0.8,0,1.2,0c0.4,0,0.9,0,1.3-0.1
					C64.3,58.6,64.6,58.8,64.9,59.4z"/>
				<path class="st37" d="M41.2,55.4c0-0.2,0-0.3,0-0.5c1.1,0,2.3,0,3.4,0c0,0.2,0,0.4,0,0.7C43.5,55.5,42.4,55.5,41.2,55.4z"/>
				<path class="st37" d="M56.9,59.3c-1,0-2.1,0-3.1,0c-0.2,0-0.4-0.3-0.7-0.4c0,0,0-0.1,0.1-0.1c0.7,0,1.4,0,2.1,0
					c0.3,0,0.6,0.1,0.8,0C56.6,58.7,56.9,58.8,56.9,59.3z"/>
				<path class="st37" d="M30.7,55.4c0-0.2,0.1-0.4,0.1-0.6c1,0,2,0,3,0c0,0.2,0,0.3,0,0.6C32.8,55.4,31.7,55.4,30.7,55.4z"/>
				<path class="st37" d="M12.8,54.4c-0.1,0.3-0.3,0.6-0.4,0.8c0,0.1-0.1,0.1-0.2,0.1c-0.6,0-1.1,0-1.7,0
					C11,54.2,11.1,54.2,12.8,54.4z"/>
				<path class="st37" d="M23.2,58.2c0.1-0.1,0.2-0.4,0.4-0.4c1.2,0,2.4,0,3.6,0c-0.1,0.3-0.2,0.5-0.7,0.5c-1.1,0-2.2,0-3.2,0
					C23.3,58.3,23.2,58.2,23.2,58.2z"/>
				<path class="st37" d="M40.9,54.9c0,0.2,0,0.3,0,0.5c-0.9,0-1.9,0-2.8,0c-0.1,0-0.2-0.2-0.4-0.4C38.9,54.9,39.8,54.9,40.9,54.9z"
					/>
				<path class="st37" d="M34.2,55.3c0-0.2,0-0.3,0-0.5c1.1,0,2.3,0,3.4,0c0.1,0.3,0.1,0.5-0.3,0.5C36.3,55.3,35.2,55.3,34.2,55.3z"
					/>
				<path class="st37" d="M21.1,55.3c0.1-0.7,0.1-0.7,0.8-0.7c0.5,0,0.9,0,1.4,0c-0.1,0.8-0.2,0.9-0.8,0.8
					C22,55.3,21.6,55.3,21.1,55.3z"/>
				<path class="st32" d="M59,19.5c0.1,10.6,0.3,21.1,0.1,31.5c-0.8,0-1.5,0-2.3,0c-3.9,0-7.8,0-11.7,0c-6.5,0-13,0.1-19.5,0.1
					c-3.2,0-6.3-0.1-9.5-0.1c-1,0-2,0-3,0c-0.4,0-0.5-0.1-0.5-0.5c0-4.2,0-8.5,0-12.7c0-3-0.1-6-0.1-9c0-3.1-0.1-6.3-0.1-9.4
					c0,0,0-0.1,0-0.2c0.9,0,1.8,0.1,2.8,0.1c2.5,0,5,0,7.5,0c3.7,0.1,7.4,0.2,11.1,0.2c4.1,0,8.2-0.1,12.3-0.1c3.6,0,7.2,0,10.9,0
					C57.6,19.5,58.2,19.5,59,19.5z M26,34.9c0,2.1,0.3,3.6,1.2,5.3c1.5,2.8,3.8,4.7,6.9,5.4c2,0.5,4,0.1,6-0.6c1-0.3,1.9-1,2.6-1.7
					c1.2-1.2,2.3-2.6,3.1-4.1c1.4-2.6,1.6-5.3,0.7-8c-0.6-1.8-1.7-3.5-3.2-4.9c-0.7-0.7-1.6-1.2-2.5-1.6c-2-0.7-4-1-6.1-0.9
					c-0.2,0-0.4,0-0.6,0.1c-0.7,0.2-1.3,0.5-2,0.8c-2.4,0.9-4.1,2.5-5.1,4.7C26.2,31.2,26,33,26,34.9z"/>
				<path class="st6" d="M26,34.9c0-1.9,0.3-3.7,1.1-5.4c1-2.2,2.7-3.9,5.1-4.7c0.7-0.2,1.3-0.5,2-0.8c0.2-0.1,0.4-0.1,0.6-0.1
					c2.1-0.1,4.1,0.1,6.1,0.9c0.9,0.4,1.8,0.9,2.5,1.6c1.4,1.4,2.5,3,3.2,4.9c1,2.7,0.7,5.4-0.7,8c-0.8,1.5-1.8,2.9-3.1,4.1
					c-0.8,0.7-1.6,1.4-2.6,1.7c-1.9,0.6-3.9,1-6,0.6c-3.1-0.7-5.4-2.6-6.9-5.4C26.3,38.5,26,37,26,34.9z M46.5,34.5
					c0-2.6-1-4.7-2.5-6.6c-1,0.6-1.9,1.1-2.9,1.6C41.1,29.6,41,29.8,41,30c0.1,0.7,0.2,1.4,0.3,2.1c0.1,0.8,0.1,1.6,0.2,2.4
					C43.2,34.5,44.8,34.5,46.5,34.5z M46.5,35.2c-0.1,0-0.1-0.1-0.1-0.1c-1.5,0-3.1,0-4.6,0c-0.1,0-0.3,0.2-0.3,0.3
					c-0.1,0.8-0.1,1.7-0.2,2.5c-0.1,0.7-0.3,1.4-0.4,2.1c0.9,0.5,1.9,1,2.8,1.5C45.1,39.7,46.3,37.7,46.5,35.2z M26.5,35.1
					c0,2.6,0.8,4.8,2.4,6.8c0.8-0.5,1.6-1.1,2.3-1.6c0.1-0.1,0.1-0.3,0.1-0.4c-0.2-1.4-0.5-2.9-0.7-4.3c0-0.3-0.2-0.4-0.5-0.4
					c-0.5,0-1.1,0-1.6,0C27.8,35.1,27.2,35.1,26.5,35.1z M30.5,34.5c0-0.4,0-0.7,0.1-1.1c0.2-1.2,0.4-2.3,0.6-3.5
					c0-0.2,0-0.4-0.1-0.5c-0.8-0.5-1.7-1-2.6-1.5c-1.5,1.9-1.9,4.1-2,6.5C27.8,34.5,29.1,34.5,30.5,34.5z M31.7,29.9
					c-0.1,0.3-0.2,0.7-0.3,1c-0.2,1.1-0.3,2.2-0.4,3.3c0,0.1,0.2,0.4,0.2,0.4c1.4,0,2.8,0,4.2,0c0.1,0,0.3-0.2,0.3-0.3
					c0-1.2,0-2.3,0-3.5c0-0.1-0.2-0.3-0.3-0.3C34.3,30.3,33,30.1,31.7,29.9z M31.8,39.8c1.4-0.3,2.7-0.5,4-0.8c0,0,0,0,0-0.1
					c0-1.2,0-2.3,0-3.5c0-0.3-0.1-0.3-0.4-0.3c-1.4,0-2.7,0-4.1,0c-0.1,0-0.2,0-0.3,0.1C31.1,36.8,31.3,38.3,31.8,39.8z M36.3,39
					c1.3,0.3,2.6,0.5,3.9,0.8c0.4-1.5,0.7-3,0.6-4.6c-1.5,0-3,0-4.6,0C36.3,36.5,36.3,37.7,36.3,39z M36.4,34.5c1.5,0,3,0,4.6,0
					c0.1-1.6-0.1-3.1-0.5-4.5c-1.4,0.2-2.7,0.4-4.1,0.7C36.4,31.9,36.4,33.1,36.4,34.5z M35.8,29.9c0-1.8,0-3.5,0-5.4
					c-0.3,0.1-0.7,0.1-1,0.3c-1.8,0.9-2.4,2.6-2.9,4.4C33.2,29.6,34.4,29.9,35.8,29.9z M36.4,24.6c0,1.7,0,3.4,0,5.1
					c0,0.1,0.2,0.3,0.3,0.3c1.1,0,2.2-0.2,3.3-0.5c0.2-0.1,0.3-0.2,0.2-0.4c-0.4-1.3-1-2.5-2-3.4C37.7,25,37.2,24.6,36.4,24.6z
					 M36.2,45c0.2,0,0.4,0,0.6-0.1c0.6-0.4,1.3-0.7,1.6-1.2c0.6-0.9,1.1-1.9,1.6-2.9c0.1-0.2,0-0.4-0.2-0.4c-1-0.2-2-0.4-3-0.6
					c-0.3-0.1-0.5,0.1-0.5,0.5c0,1.5-0.1,2.9-0.1,4.4C36.2,44.6,36.2,44.8,36.2,45z M32,40.4c0.3,1.3,1.4,3.2,2.4,4
					c0.4,0.3,0.8,0.5,1.3,0.5c0-1.7,0-3.4,0-5.2C34.5,39.7,33.3,39.9,32,40.4z M43.6,27.5c-0.9-1.5-4.1-3.1-5.5-2.9
					c0.5,0.6,1.1,1.3,1.6,2c0.5,0.7,0.8,1.6,1.2,2.5C41.8,28.6,42.7,28.1,43.6,27.5z M37.6,45c2.3-0.2,4.1-1.2,5.6-3
					c-0.9-0.5-1.7-0.9-2.6-1.4C39.9,42.3,39.3,44,37.6,45z M34.3,45.1c-1.4-1.2-2.2-2.7-2.8-4.5c-0.8,0.5-1.6,1-2.4,1.5
					C30.6,43.7,32.3,44.7,34.3,45.1z M31.4,29.1c0.5-1.7,1.1-3.2,2.4-4.3c-1.9,0.5-3.5,1.2-4.9,2.8C29.7,28.1,30.5,28.6,31.4,29.1z"
					/>
				<path class="st32" d="M46.5,34.5c-1.7,0-3.4,0-5,0c-0.1-0.8-0.1-1.6-0.2-2.4c-0.1-0.7-0.2-1.4-0.3-2.1c0-0.1,0-0.4,0.1-0.4
					c0.9-0.5,1.9-1.1,2.9-1.6C45.5,29.8,46.5,32,46.5,34.5z"/>
				<path class="st32" d="M46.5,35.2c-0.2,2.5-1.3,4.5-2.9,6.4c-1-0.5-1.9-1-2.8-1.5c0.1-0.7,0.3-1.4,0.4-2.1
					c0.1-0.8,0.1-1.7,0.2-2.5c0-0.1,0.2-0.3,0.3-0.3c1.5,0,3.1,0,4.6,0C46.4,35.1,46.4,35.2,46.5,35.2z"/>
				<path class="st32" d="M26.5,35.1c0.7,0,1.4,0,2.1,0c0.5,0,1.1,0,1.6,0c0.3,0,0.4,0.1,0.5,0.4c0.2,1.4,0.5,2.9,0.7,4.3
					c0,0.1,0,0.3-0.1,0.4c-0.7,0.5-1.5,1.1-2.3,1.6C27.3,39.9,26.4,37.6,26.5,35.1z"/>
				<path class="st32" d="M30.5,34.5c-1.3,0-2.6,0-4,0c0.1-2.4,0.6-4.7,2-6.5c0.9,0.5,1.7,1,2.6,1.5c0.1,0.1,0.1,0.3,0.1,0.5
					c-0.2,1.2-0.4,2.3-0.6,3.5C30.5,33.8,30.5,34.1,30.5,34.5z"/>
				<path class="st32" d="M31.7,29.9c1.3,0.2,2.5,0.4,3.8,0.6c0.1,0,0.3,0.2,0.3,0.3c0,1.2,0,2.3,0,3.5c0,0.1-0.2,0.3-0.3,0.3
					c-1.4,0-2.8,0-4.2,0c-0.1,0-0.3-0.3-0.2-0.4c0.1-1.1,0.3-2.2,0.4-3.3C31.5,30.5,31.7,30.2,31.7,29.9z"/>
				<path class="st32" d="M31.8,39.8c-0.5-1.4-0.6-3-0.8-4.6c0.1,0,0.2-0.1,0.3-0.1c1.4,0,2.7,0,4.1,0c0.2,0,0.4,0,0.4,0.3
					c0,1.2,0,2.3,0,3.5c0,0.1,0,0.1,0,0.1C34.5,39.2,33.2,39.5,31.8,39.8z"/>
				<path class="st32" d="M36.3,39c0-1.2,0-2.5,0-3.8c1.5,0,3,0,4.6,0c0,1.6-0.2,3.2-0.6,4.6C39,39.5,37.7,39.2,36.3,39z"/>
				<path class="st32" d="M36.4,34.5c0-1.3,0-2.6,0-3.9c1.4-0.2,2.7-0.4,4.1-0.7c0.3,1.4,0.5,3,0.5,4.5
					C39.4,34.5,37.9,34.5,36.4,34.5z"/>
				<path class="st32" d="M35.8,29.9c-1.4,0-2.6-0.2-3.9-0.7c0.6-1.8,1.1-3.5,2.9-4.4c0.3-0.2,0.7-0.2,1-0.3
					C35.8,26.3,35.8,28.1,35.8,29.9z"/>
				<path class="st32" d="M36.4,24.6c0.8,0,1.4,0.5,1.9,1c1,1,1.5,2.1,2,3.4c0.1,0.2,0,0.4-0.2,0.4c-1.1,0.3-2.2,0.6-3.3,0.5
					c-0.1,0-0.3-0.2-0.3-0.3C36.4,28,36.4,26.3,36.4,24.6z"/>
				<path class="st32" d="M36.2,45c0-0.2,0-0.4,0-0.5c0-1.5,0.1-2.9,0.1-4.4c0-0.4,0.1-0.5,0.5-0.5c1,0.2,2,0.4,3,0.6
					c0.2,0.1,0.3,0.2,0.2,0.4c-0.5,1-0.9,2-1.6,2.9c-0.4,0.5-1.1,0.9-1.6,1.2C36.6,45,36.4,44.9,36.2,45z"/>
				<path class="st32" d="M32,40.4c1.2-0.6,2.4-0.8,3.8-0.7c0,1.7,0,3.4,0,5.2c-0.6,0.1-1-0.2-1.3-0.5C33.5,43.7,32.3,41.8,32,40.4z
					"/>
				<path class="st32" d="M43.6,27.5c-0.9,0.5-1.8,1.1-2.7,1.6c-0.4-0.9-0.8-1.8-1.2-2.5c-0.5-0.7-1.1-1.4-1.6-2
					C39.5,24.4,42.6,26,43.6,27.5z"/>
				<path class="st32" d="M37.6,45c1.7-1.1,2.3-2.7,3-4.5c0.9,0.5,1.7,0.9,2.6,1.4C41.7,43.9,39.9,44.8,37.6,45z"/>
				<path class="st32" d="M34.3,45.1c-2.1-0.4-3.8-1.4-5.2-3c0.8-0.5,1.6-1,2.4-1.5C32.1,42.4,33,43.9,34.3,45.1z"/>
				<path class="st32" d="M31.4,29.1c-0.9-0.5-1.7-1-2.5-1.5c1.4-1.6,3-2.3,4.9-2.8C32.5,25.9,31.9,27.4,31.4,29.1z"/>
			</g>
		</g>
		<g id="lj8wQa.tif_6_">
			<g>
				<path class="st37" d="M69.9,22.7C69.9,22.7,69.9,22.7,69.9,22.7c0.1-1.6,0.2-3.2,0.2-4.7c0-3.3,0-6.7-0.1-10
					c0-1.3-0.7-2.1-2-2.3c-0.5-0.1-1-0.1-1.5-0.1c-3.7,0-7.3,0.1-11,0.1c-0.6,0-1.3,0.1-1.9,0.2c-0.6,0.1-1,0.4-1.3,1
					c-0.4,0.7-0.4,1.4-0.4,2.1c0,1.7,0,3.4,0,5.2c0,6.7,0,13.5,0,20.2c0,1.4,0,2.9,0.1,4.3c0,0.6,0.2,1.2,0.4,1.8
					c0.1,0.2,0.2,0.4,0.4,0.5c0.3,0.2,0.6,0.4,1,0.4c1.2,0.2,2.4,0.3,3.6,0.3c2.9,0.1,5.9,0.1,8.8,0.1c0.7,0,1.5-0.2,2.2-0.3
					c0.2,0,0.3-0.1,0.5-0.2c0.6-0.6,1-1.3,1-2.1c0-0.8,0-1.6,0-2.4c0-1.2,0-2.4,0-3.6C69.9,29.6,69.9,26.1,69.9,22.7z"/>
				<path class="st6" d="M69.9,22.7c0,3.5,0,6.9,0,10.4c0,1.2,0,2.4,0,3.6c0,0.8,0,1.6,0,2.4c0,0.8-0.4,1.6-1,2.1
					c-0.1,0.1-0.3,0.2-0.5,0.2c-0.7,0.1-1.5,0.3-2.2,0.3c-2.9,0-5.9,0-8.8-0.1c-1.2,0-2.4-0.2-3.6-0.3c-0.3,0-0.7-0.2-1-0.4
					c-0.2-0.1-0.4-0.3-0.4-0.5c-0.2-0.6-0.4-1.2-0.4-1.8c-0.1-1.4-0.1-2.9-0.1-4.3c0-6.7,0-13.5,0-20.2c0-1.7-0.1-3.4,0-5.2
					c0-0.7,0.1-1.5,0.4-2.1c0.3-0.5,0.7-0.9,1.3-1c0.6-0.1,1.3-0.2,1.9-0.2c3.7-0.1,7.3-0.1,11-0.1c0.5,0,1,0.1,1.5,0.1
					c1.3,0.2,2,1,2,2.3c0,3.3,0.1,6.7,0.1,10C70,19.5,70,21.1,69.9,22.7C69.9,22.7,69.9,22.7,69.9,22.7z M52.3,23.1
					C52.3,23.1,52.3,23.1,52.3,23.1c0,3,0,6.1,0,9.1c0,1.4,0,2.9,0,4.3c-0.1,1.2,0,2.3,0.4,3.4c0.1,0.2,0.3,0.5,0.5,0.6
					c0.2,0.2,0.5,0.3,0.7,0.3c1.1,0.1,2.2,0.3,3.3,0.3c3,0.1,6,0.1,9,0.1c0.7,0,1.4-0.2,2.1-0.3c0.2,0,0.4-0.2,0.5-0.3
					c0.2-0.3,0.4-0.7,0.5-1.1c0.1-0.7,0.1-1.5,0.2-2.2c0-0.9,0-1.8,0-2.7c0-2.7,0-5.4,0-8.2c0-3.2,0.1-6.5,0.1-9.7
					c0-1.2,0-2.3,0-3.5c-0.1-1.9,0.2-3.9-0.1-5.8c-0.1-0.5-0.3-0.9-0.8-1.2c-0.7-0.4-1.5-0.5-2.3-0.5c-3.7,0-7.4,0.1-11.2,0.1
					c-0.5,0-1.1,0.1-1.6,0.1c-0.5,0.1-0.9,0.3-1.1,0.8c-0.2,0.5-0.4,1.1-0.4,1.6c0,1.8,0,3.6,0,5.4C52.3,17,52.3,20,52.3,23.1z"/>
				<path class="st36" d="M52.3,23.1c0-3,0-6.1,0-9.1c0-1.8-0.1-3.6,0-5.4c0-0.6,0.2-1.1,0.4-1.6c0.2-0.5,0.6-0.7,1.1-0.8
					C54.3,6.1,54.8,6,55.3,6c3.7-0.1,7.4-0.1,11.2-0.1c0.8,0,1.6,0.1,2.3,0.5c0.5,0.3,0.7,0.7,0.8,1.2c0.3,1.9,0,3.9,0.1,5.8
					c0,1.2,0,2.3,0,3.5c0,3.2-0.1,6.5-0.1,9.7c0,2.7,0,5.4,0,8.2c0,0.9,0,1.8,0,2.7c0,0.7,0,1.5-0.2,2.2c-0.1,0.4-0.3,0.8-0.5,1.1
					c-0.1,0.2-0.3,0.3-0.5,0.3c-0.7,0.1-1.4,0.3-2.1,0.3c-3,0-6,0-9-0.1c-1.1,0-2.2-0.2-3.3-0.3c-0.2,0-0.5-0.1-0.7-0.3
					c-0.2-0.2-0.4-0.4-0.5-0.6c-0.4-1.1-0.4-2.3-0.4-3.4c0.1-1.4,0-2.9,0-4.3C52.3,29.1,52.3,26.1,52.3,23.1
					C52.3,23.1,52.3,23.1,52.3,23.1z M53.2,37.5c0.3,0,0.5,0,0.7,0c1.8,0.1,3.5,0.2,5.3,0.2c3,0,6-0.1,9-0.1c0.3,0,0.4-0.1,0.4-0.4
					c0-1.1,0-2.3,0.1-3.4c0-0.6,0-1.2,0-1.8c0-3,0.1-6.1,0.1-9.1c0-2.1,0.1-4.1,0.1-6.2c0-2,0-4.1,0-6.1c0-0.9-0.1-0.9-0.9-0.9
					c-2.2,0-4.4,0-6.6,0c-2.5,0-5.1,0-7.6,0c-0.4,0-0.6,0.1-0.6,0.6c0,0.7,0,1.5,0,2.2c0,1.7,0,3.4,0,5.1c0,5.8,0,11.6,0,17.4
					c0,0.7,0,1.5,0,2.2C53.1,37.1,53.2,37.3,53.2,37.5z M59.8,39.4c0,0.6,0.5,1,1.2,1c0.6,0,1.1-0.4,1.1-1.1c0-0.6-0.4-1.1-1.1-1.1
					C60.3,38.2,59.9,38.6,59.8,39.4z M61.1,7.9C61.1,7.9,61.1,8,61.1,7.9c0.5,0,1,0,1.5,0c0.1,0,0.2-0.1,0.3-0.2
					c-0.1-0.1-0.2-0.2-0.3-0.2c-1,0-2-0.1-2.9-0.1c-0.2,0-0.4,0-0.4,0.2c0,0.2,0.2,0.2,0.4,0.2C60.1,7.9,60.6,7.9,61.1,7.9z
					 M58.2,7.7c0-0.3-0.1-0.4-0.4-0.4c-0.3,0-0.4,0.1-0.4,0.4c0,0.2,0.2,0.4,0.4,0.4C58.1,8.1,58.2,8,58.2,7.7z"/>
				<path class="st6" d="M53.2,37.5c0-0.2-0.1-0.4-0.1-0.5c0-0.7,0-1.5,0-2.2c0-5.8,0-11.6,0-17.4c0-1.7,0-3.4,0-5.1
					c0-0.7,0-1.5,0-2.2c0-0.4,0.1-0.6,0.6-0.6c2.5,0,5.1,0,7.6,0c2.2,0,4.4,0,6.6,0c0.9,0,0.9,0.1,0.9,0.9c0,2,0,4.1,0,6.1
					c0,2.1-0.1,4.1-0.1,6.2c0,3-0.1,6.1-0.1,9.1c0,0.6,0,1.2,0,1.8c0,1.1,0,2.3-0.1,3.4c0,0.3-0.1,0.4-0.4,0.4c-3,0-6,0.1-9,0.1
					c-1.8,0-3.5-0.1-5.3-0.2C53.7,37.5,53.5,37.5,53.2,37.5z M68.3,37.3c0-0.1,0-0.2,0-0.2c0-1.2,0-2.4,0-3.5c0-3,0-6.1,0-9.1
					c0-4.2,0.2-8.3,0.2-12.5c0-0.6,0-1.2,0-1.7c0-0.2-0.1-0.3-0.4-0.3c-0.4,0-0.9,0-1.3,0c-4.4,0-8.7-0.1-13.1-0.1
					c-0.2,0-0.4,0.1-0.4,0.3c0,1.3,0,2.7,0,4c0,2.7,0.1,5.3,0.1,8c0,4.8,0,9.7,0,14.5c0,0.2,0,0.5,0,0.7
					C58.4,37.5,63.3,37.3,68.3,37.3z"/>
				<path class="st6" d="M59.8,39.4c0-0.7,0.5-1.2,1.2-1.2c0.6,0,1.1,0.5,1.1,1.1c0,0.6-0.5,1.1-1.1,1.1
					C60.3,40.4,59.8,39.9,59.8,39.4z M60.2,39.3c0,0.4,0.3,0.7,0.8,0.7c0.4,0,0.7-0.3,0.7-0.7c0-0.4-0.4-0.8-0.8-0.8
					C60.5,38.5,60.2,38.8,60.2,39.3z"/>
				<path class="st6" d="M61.1,7.9c-0.5,0-1,0-1.4,0c-0.2,0-0.4,0-0.4-0.2c0-0.2,0.2-0.2,0.4-0.2c1,0,2,0,2.9,0.1
					c0.1,0,0.2,0.2,0.3,0.2C62.8,7.8,62.7,8,62.6,8C62.1,8,61.6,8,61.1,7.9C61.1,8,61.1,7.9,61.1,7.9z"/>
				<path class="st6" d="M58.2,7.7c0,0.3-0.1,0.4-0.4,0.4c-0.3,0-0.5-0.2-0.4-0.4c0-0.3,0.2-0.4,0.4-0.4C58.1,7.3,58.2,7.5,58.2,7.7
					z"/>
				<path class="st33" d="M68.3,37.3c-5,0-9.9,0.2-14.9-0.1c0-0.2,0-0.4,0-0.7c0-4.8,0-9.7,0-14.5c0-2.7-0.1-5.3-0.1-8
					c0-1.3,0-2.7,0-4c0-0.3,0.1-0.3,0.4-0.3c4.4,0,8.7,0.1,13.1,0.1c0.4,0,0.9,0,1.3,0c0.3,0,0.4,0.1,0.4,0.3c0,0.6,0.1,1.2,0,1.7
					c-0.1,4.2-0.2,8.3-0.2,12.5c0,3,0,6.1,0,9.1c0,1.2,0,2.4,0,3.5C68.3,37.1,68.3,37.2,68.3,37.3z"/>
				<path class="st37" d="M60.2,39.3c0-0.4,0.3-0.8,0.8-0.8c0.4,0,0.8,0.4,0.8,0.8c0,0.4-0.3,0.7-0.7,0.7
					C60.5,40,60.2,39.7,60.2,39.3z"/>
			</g>
		</g>
		<g id="UeF2Ue.tif_6_">
			<g>
				<path class="st6" d="M55.8,20.1c0-0.1,0-0.3,0.1-0.4c0.3-0.7,0.9-1.2,1.5-1.6c1.4-0.8,2.9-1,4.4-0.8c0.9,0.2,1.8,0.4,2.6,0.9
					c0.5,0.2,0.8,0.7,1.1,1.1c0,0.1,0,0.2,0,0.3c-0.1,0-0.2,0-0.2-0.1c-0.8-1.2-2.1-1.5-3.4-1.8c-1.5-0.3-2.9-0.1-4.2,0.7
					c-0.7,0.4-1.2,0.9-1.6,1.6c0,0.1-0.1,0.1-0.1,0.2C55.8,20.1,55.8,20.1,55.8,20.1z"/>
				<path class="st6" d="M60.9,19.4c0.9,0,2,0.3,2.9,1c0.3,0.2,0.5,0.5,0.7,0.8c0,0.1,0,0.2,0,0.2c-0.1,0-0.2,0-0.3-0.1
					c-1.1-1.7-4.2-2-5.8-1.1c-0.5,0.3-0.9,0.8-1.3,1.3c0,0.1-0.1,0.1-0.2,0.1c0-0.1,0-0.2,0-0.3c0.4-0.8,1-1.3,1.8-1.6
					C59.5,19.5,60.1,19.4,60.9,19.4z"/>
				<path class="st6" d="M60.9,21.4c1,0,1.9,0.5,2.5,1.3c0.1,0.1,0.1,0.1,0.2,0.2c0,0.1,0,0.2,0,0.2c-0.1,0-0.2,0-0.3,0
					c-0.1,0-0.1-0.1-0.1-0.2c-0.8-1-1.8-1.4-3-1.2c-0.8,0.1-1.5,0.5-1.9,1.2c0,0.1-0.1,0.1-0.2,0.1c0-0.1-0.1-0.2,0-0.2
					c0.2-0.2,0.3-0.5,0.5-0.7C59.2,21.6,60,21.5,60.9,21.4z"/>
			</g>
		</g>
	</g>
</g>
<g id="Calque_3">
</g>
</svg>
