<?xml version="1.0" encoding="utf-8"?>
<!-- Generator: Adobe Illustrator 23.0.1, SVG Export Plug-In . SVG Version: 6.00 Build 0)  -->
<svg version="1.1" xmlns="http://www.w3.org/2000/svg" x="0px" y="0px"
     viewBox="0 0 72 72" style="enable-background:new 0 0 72 72;" xml:space="preserve">
<style type="text/css">
	.st0{opacity:0.4;fill:url(#SVGID_1_);}
	.st1{opacity:0.6;fill:url(#SVGID_2_);}
	.st2{opacity:0.6;fill:url(#SVGID_3_);}
	.st3{opacity:0.6;fill:url(#SVGID_4_);}
	.st4{opacity:0.6;fill:url(#SVGID_5_);}
	.st5{opacity:0.6;fill:url(#SVGID_6_);}
	.st6{fill:#1F2B50;}
	.st7{fill:none;stroke:#1F2B50;stroke-width:3;stroke-miterlimit:10;}
	.st8{opacity:0.4;fill:url(#SVGID_7_);}
	.st9{opacity:0.4;fill:url(#SVGID_8_);}
	.st10{opacity:0.6;fill:url(#SVGID_9_);}
	.st11{opacity:0.6;fill:url(#SVGID_10_);}
	.st12{opacity:0.4;fill:url(#SVGID_11_);}
	.st13{opacity:0.4;fill:url(#SVGID_12_);}
	.st14{opacity:0.4;fill:url(#SVGID_13_);}
	.st15{opacity:0.4;fill:url(#SVGID_14_);}
	.st16{opacity:0.4;fill:url(#SVGID_15_);}
	.st17{opacity:0.4;fill:url(#SVGID_16_);}
	.st18{opacity:0.4;fill:url(#SVGID_17_);}
	.st19{fill:url(#SVGID_18_);}
	.st20{fill:url(#SVGID_19_);}
	.st21{fill:url(#SVGID_20_);}
	.st22{opacity:0.6;fill:url(#SVGID_21_);}
	.st23{opacity:0.6;fill:url(#SVGID_22_);}
	.st24{opacity:0.6;fill:url(#SVGID_23_);}
	.st25{opacity:0.6;fill:url(#SVGID_24_);}
	.st26{opacity:0.6;fill:url(#SVGID_25_);}
	.st27{opacity:0.6;fill:url(#SVGID_26_);}
	.st28{opacity:0.6;fill:url(#SVGID_27_);}
	.st29{opacity:0.6;fill:url(#SVGID_28_);}
	.st30{fill:url(#SVGID_29_);}
	.st31{fill:url(#SVGID_30_);}
	.st32{fill:#EA9001;}
	.st33{fill:#407EA7;}
	.st34{opacity:0.5;fill:#FFFFFF;}
	.st35{fill:none;stroke:#EA9001;stroke-width:2;stroke-miterlimit:10;}
	.st36{fill:#BECBCC;}
	.st37{fill:#FFFFFF;}
	.st38{fill:#979B9B;}
	.st39{fill:none;stroke:#407EA7;stroke-width:3;stroke-miterlimit:10;}
	.st40{fill:none;stroke:#407EA7;stroke-width:3.0377;stroke-miterlimit:10;}
	.st41{fill:none;stroke:#407EA7;stroke-width:2.8985;stroke-miterlimit:10;}
	.st42{fill:none;stroke:#407EA7;stroke-width:2.933;stroke-miterlimit:10;}
	.st43{fill:none;stroke:#EA9001;stroke-width:1.8227;stroke-miterlimit:10;}
	.st44{fill:#AAB2B2;}
	.st45{fill:none;stroke:#407EA7;stroke-width:3.0142;stroke-miterlimit:10;}
	.st46{fill:none;stroke:#407EA7;stroke-width:3.0512;stroke-miterlimit:10;}
	.st47{fill:#D3DDDD;}
	.st48{fill:none;stroke:#1F2B50;stroke-miterlimit:10;}
	.st49{fill:#BECBCC;stroke:#1F2B50;stroke-width:0.75;stroke-miterlimit:10;}
	.st50{fill:url(#SVGID_31_);}
	.st51{fill:none;stroke:#407EA7;stroke-width:2.8066;stroke-linecap:round;stroke-miterlimit:10;}
	.st52{fill:none;stroke:#407EA7;stroke-width:2.7511;stroke-linecap:round;stroke-miterlimit:10;}
	.st53{fill:url(#SVGID_32_);}
	.st54{fill:none;stroke:#EA9001;stroke-width:0.8;stroke-miterlimit:10;}
	.st55{fill:none;stroke:#407EA7;stroke-width:1.2;stroke-miterlimit:10;}
	.st56{fill:none;stroke:#407EA7;stroke-width:1.2151;stroke-miterlimit:10;}
	.st57{fill:none;stroke:#407EA7;stroke-width:1.1594;stroke-miterlimit:10;}
	.st58{fill:none;stroke:#407EA7;stroke-width:1.1732;stroke-miterlimit:10;}
	.st59{fill:url(#SVGID_33_);}
	.st60{fill:none;stroke:#1F2B50;stroke-width:0.4;stroke-miterlimit:10;}
	.st61{fill:#BECBCC;stroke:#1F2B50;stroke-width:0.3;stroke-miterlimit:10;}
	.st62{fill:none;stroke:#407EA7;stroke-width:1.1226;stroke-linecap:round;stroke-miterlimit:10;}
	.st63{fill:none;stroke:#407EA7;stroke-width:1.1004;stroke-linecap:round;stroke-miterlimit:10;}
	.st64{fill:url(#SVGID_34_);}
	.st65{fill:url(#SVGID_35_);}
</style>
<g id="Calque_2">
</g>
<g id="Calque_1">
	<g id="nG5UVu.tif_5_">
		<g>
			<path class="st6" d="M38,61.4c-0.1,0.6-0.4,1.1-0.9,1.5c-0.6,0.4-1,0.3-1.7-0.1c-0.4,0.4-0.8,0.3-1.2,0.1c-0.1,0-0.2-0.1-0.3,0
				c-0.5,0.3-0.9,0.2-1.4,0c-0.4-0.2-0.8-0.3-1.3-0.4c-0.6-0.2-0.9-0.5-0.8-1.1c0-0.6,0.2-1.1,0.7-1.5c0.9-0.8,1.2-1.9,1.1-3
				c-0.1-2.5-0.2-5-0.5-7.6c-0.2-2-1.1-3.9-2.1-5.7c-1.1-1.9-1.9-3.9-2.2-6c-0.2-1.3-0.1-2.7,0.1-4c0.4-2.5,0.5-5.1,0.4-7.6
				c0-0.8-0.4-1.6-0.5-2.4c-0.3-1.6-0.3-3.2,0.2-4.8c0.2-0.7,0.4-0.7,1-0.5c1.2,0.4,2,1.3,2.8,2.2c0.5,0.6,1,0.7,1.6,0.7
				c0.5,0,1.1,0,1.6,0c0.2,0,0.4-0.1,0.4-0.3c0.6-1.2,1.5-2.1,2.5-3c0,0,0.1-0.1,0.1-0.1c0.7-0.5,0.9-0.4,0.9,0.4
				c0.1,1.1,0.1,2.3,0.2,3.4c0,0.1,0.1,0.3,0.2,0.4c0.3,0.3,0.7,0.7,1,1c0.9,0.7,1.2,1.6,1.3,2.6c0.2,1,0,2-0.4,3
				c-0.1,0.3,0,0.7,0.1,1.1c0,0.2,0.2,0.5,0.2,0.7c0.1,0.5,0.4,0.8,0.8,1.1c1.1,0.7,2.4,1.1,3.7,1.4c2,0.4,3.6,1.4,4.8,2.9
				c1.6,2,2.7,4.3,3.3,6.8c0.3,1.3,0.8,2.6,0.9,4c0.2,2.2,0.5,4.5,0.1,6.7c-0.1,0.5-0.1,0.9,0,1.4c0.1,0.6,0.4,1,1,1.1
				c2.3,0.4,4.7,0.7,7,1.1c1.8,0.3,3.6,0.7,5.3,1.4c0.9,0.4,1.6,0.9,2.1,1.8c0.5,1,0.3,2.1-0.6,2.9c-0.8,0.7-1.9,1.1-2.9,1.3
				c-0.9,0.2-1.8,0.1-2.6-0.2c-0.4-0.1-0.8-0.3-0.9-0.8c-0.1-0.5,0.3-0.8,0.7-1c0.4-0.2,0.9-0.4,1.3-0.5c0.6-0.2,0.6-0.5,0.1-0.8
				c-0.3-0.2-0.7-0.4-1-0.5c-2.4-0.5-4.8-0.9-7.2-0.8c-1,0-1.8,0.3-2.6,1c-0.5,0.5-1.3,0.8-2,1c-0.6,0.2-1.3,0.2-2,0.3
				c-1.5,0-3.1,0-4.6,0c-0.9,0-1.9,0.2-2.8,0.3c-0.6,0-1.3,0.3-1.9-0.1c-0.1,0-0.2,0-0.3,0c-0.2,0-0.4,0.1-0.5,0
				c-0.2-0.1-0.5-0.1-0.7,0c-0.2,0-0.6-0.1-0.8-0.3C38.7,61.5,38.4,61.5,38,61.4z M28.2,18.4c-0.1,0.3-0.1,0.5-0.1,0.8
				c-0.2,1.7,0.3,3.2,1.1,4.7c0.1,0.1,0.1,0.3,0.1,0.5c-0.1,0-0.1,0-0.2,0c-0.8-1.2-1.2-2.6-1.5-4c-0.1,1-0.1,2,0.1,3
				c0.1,0.6,0.3,1.2,0.4,1.8c0.3,2.7,0.3,5.5-0.1,8.2c-0.2,1.3-0.2,2.6-0.1,4c0.2,2.2,1.1,4.1,2.2,6c1.1,2.1,2,4.2,2.2,6.6
				c0.2,2,0.2,4,0.4,6c0.1,1.5-0.3,2.8-1.3,4c-0.3,0.3-0.4,0.9-0.5,1.3c-0.1,0.3,0,0.6,0.5,0.6c0.1-0.4,0.2-0.7,0.3-1.1
				c0,0,0.1,0,0.1,0c0,0.3-0.1,0.5-0.1,0.8c0,0.3,0.1,0.6,0.5,0.6c0-0.1,0-0.2,0-0.3c0-0.8,0.2-1.5,1-1.9c0.2-0.1,0.4-0.3,0.4-0.6
				c0.2-0.8,0.4-1.6,0.7-2.4c0.5-1.8,1-3.5,1.5-5.3c0.1-0.5,0.1-0.8-0.3-1.2c-1.1-1.1-2.1-2.4-2.8-3.8c-0.7-1.4-1.3-2.8-2-4.1
				c0-0.1,0-0.2,0-0.3c0.1,0,0.1,0,0.2-0.1c1.4,3,2.7,6,5.2,8.4c0.1-0.2,0.1-0.3,0.1-0.4c0.3-1.8,0.6-3.6,0.6-5.4
				c0-0.3,0-0.6,0.4-0.8c0,0.2,0.1,0.4,0.1,0.5c-0.2,1.7-0.2,3.4-0.5,5c-0.3,1.7-0.8,3.3-1.2,5c-0.4,1.4-0.8,2.8-1.2,4.1
				c-0.2,0.8-0.5,1.5-1.2,1.9c-0.3,0.2-0.5,0.7-0.5,1c-0.1,0.8,0.3,1.1,1.1,0.8c-0.1-1,0.1-1.4,0.5-1.5c-0.1,0.3-0.2,0.6-0.2,0.8
				c0,0.2,0.1,0.5,0.2,0.6c0.2,0.2,0.5,0.3,0.8,0.1c-0.1-0.8,0.1-1.2,0.5-1.2c-0.4,0.6-0.4,0.9,0.1,1.2c0.4,0.3,0.8,0.3,1.3-0.1
				c0.2-0.2,0.4-0.5,0.5-0.8c0.5-2,1.4-3.9,2.3-5.8c0.8-1.7,1.8-3.4,2.5-5.1c0.8-1.8,1.4-3.6,2.1-5.4c0.1-0.1,0.2-0.2,0.3-0.3
				c0,0.2,0.1,0.3,0.1,0.5c-0.1,0.4-0.3,0.7-0.4,1.1c-0.7,1.9-1.4,3.8-2.3,5.5c-1.1,2.1-2.2,4.3-3.2,6.5c-0.4,0.8-0.6,1.7-0.9,2.5
				c0.3,0.1,0.4,0.1,0.6,0.1c0-0.1,0.1-0.3,0.1-0.4c0.2-0.8,1.1-1.6,1.9-1.6c1.2-0.1,1.9-0.9,1.9-2.1c0-0.9-0.1-1.7-0.1-2.6
				c0-2.5,0.8-4.8,2-6.9c0.6-1.1,1.5-2.1,2.8-2.4c0.1,0,0.3,0,0.4,0.1c-0.1,0.1-0.2,0.2-0.3,0.3c-0.4,0.3-1,0.4-1.4,0.8
				c-0.6,0.6-1.1,1.2-1.5,1.9c-1.1,2.2-1.8,4.5-1.7,6.9c0,0.6,0.1,1.2,0.1,1.9c0,1.4-0.9,2.4-2.3,2.5c-0.7,0.1-1.5,0.8-1.5,1.5
				c0,0.4,0.1,0.6,0.4,0.7c0.3-0.5,0.5-1,0.7-1.4c0-0.1,0.2-0.1,0.3-0.1c0,0.1,0.1,0.2,0,0.3c-0.1,0.2-0.2,0.4-0.3,0.6
				c-0.1,0.2-0.1,0.5,0,0.5c0.2,0.1,0.4,0.1,0.6,0.1c0.1,0,0.2-0.2,0.3-0.4c0.1-0.2,0.2-0.4,0.3-0.6c0.1-0.1,0.3-0.2,0.4-0.3
				c0,0.2,0,0.3,0,0.5c-0.1,0.3-0.3,0.5-0.4,0.9c0.3,0,0.5,0,0.6,0c1-0.1,2-0.3,3-0.4c1.9-0.1,3.8,0,5.8,0c1.3,0,2.4-0.4,3.3-1.2
				c0.9-0.8,2-1.1,3.2-1.2c1.5-0.1,3,0.1,4.5,0.4c1,0.2,2.1,0.4,3.1,0.7c0.3,0.1,0.7,0.4,0.9,0.7c0.3,0.3,0.1,0.9-0.4,1.1
				c-0.5,0.2-1,0.4-1.5,0.6c-0.2,0.1-0.4,0.4-0.4,0.6c0,0.2,0.3,0.4,0.5,0.5c1,0.4,2,0.4,3,0c0.8-0.3,1.5-0.6,2.2-1.1
				c0.8-0.6,0.9-1.5,0.5-2.4c-0.4-0.7-1-1.2-1.7-1.5c-2.3-1-4.8-1.3-7.3-1.8c-1.7-0.3-3.5-0.5-5.2-0.8c-0.3,0-0.5-0.2-0.7-0.4
				c-0.7-0.6-0.6-1.4-0.5-2.1c0.1-0.6,0.2-1.2,0.2-1.9c0-1.7-0.1-3.3-0.2-5c-0.1-1.3-0.6-2.6-0.9-3.9c-0.6-2.5-1.6-4.8-3.2-6.8
				c-1.2-1.5-2.6-2.4-4.4-2.8c-1.3-0.3-2.5-0.6-3.7-1.3c-0.7-0.4-1.2-0.8-1.3-1.7c0-0.3-0.2-0.7-0.3-1c-0.1,0-0.1,0.1-0.1,0.1
				c-2.2,2.8-5.2,2.9-8.1,1.7c-0.6-0.2-1.1-0.7-1.7-1.1c-0.1-0.1-0.2-0.3-0.2-0.4c0.1,0,0.3,0.1,0.4,0.1c1.3,1,2.7,1.7,4.3,1.7
				c0.8,0,1.7,0,2.4-0.3c2.3-1,3.7-2.9,3.3-5.6c-0.1-0.6-0.2-1.2-0.6-1.7c-0.4,0.5-0.9,0.8-1.5,0.7c-0.1,0-0.3-0.2-0.4-0.3
				c-0.2-0.7,0.2-1.1,0.7-1.5c-0.2-0.2-0.4-0.4-0.5-0.6c-0.1-0.1-0.2-0.3-0.2-0.4c0-0.5,0-1.1,0-1.6c0-0.6-0.1-1.3-0.2-1.9
				c-0.2,0.1-0.3,0.2-0.4,0.3c-0.5,0.7-1,1.4-1.3,2.1c-0.4,0.7-0.9,0.9-1.6,0.9c-0.9,0-1.8-0.1-2.6-0.1c-0.5,0-0.7-0.2-1-0.5
				c-0.6-0.7-1.3-1.3-2-1.9C29,18.7,28.6,18.6,28.2,18.4z M35.3,21.1c0.6-0.1,0.6-0.2,0.9-0.6c0.4-0.7,0.8-1.4,1.3-2.1
				C36.5,19.1,35.8,20,35.3,21.1z M38.9,24.2c0.6,0,1.1-0.4,1-0.7c-0.1-0.2-0.3-0.4-0.5-0.5c-0.3-0.1-0.8,0.5-0.7,0.9
				C38.7,24,38.8,24.1,38.9,24.2z"/>
			<path class="st36" d="M28.2,18.4c0.4,0.2,0.8,0.3,1,0.5c0.7,0.6,1.4,1.2,2,1.9c0.3,0.3,0.6,0.5,1,0.5c0.9,0,1.8,0.1,2.6,0.1
				c0.7,0,1.3-0.2,1.6-0.9c0.4-0.7,0.9-1.4,1.3-2.1c0.1-0.1,0.2-0.2,0.4-0.3c0.1,0.6,0.2,1.3,0.2,1.9c0,0.5,0,1.1,0,1.6
				c0,0.2,0.1,0.3,0.2,0.4c0.1,0.2,0.3,0.4,0.5,0.6c-0.6,0.4-0.9,0.8-0.7,1.5c0,0.1,0.2,0.3,0.4,0.3c0.6,0.1,1.1-0.1,1.5-0.7
				c0.4,0.5,0.6,1.1,0.6,1.7c0.4,2.7-1,4.6-3.3,5.6c-0.7,0.3-1.6,0.3-2.4,0.3c-1.6,0-3-0.7-4.3-1.7c-0.1-0.1-0.3-0.1-0.4-0.1
				c0.1,0.2,0.1,0.4,0.2,0.4c0.5,0.4,1.1,0.8,1.7,1.1c2.9,1.2,5.9,1.1,8.1-1.7c0,0,0.1-0.1,0.1-0.1c0.1,0.4,0.3,0.7,0.3,1
				c0.1,0.8,0.6,1.3,1.3,1.7c1.1,0.7,2.4,1,3.7,1.3c1.8,0.4,3.3,1.4,4.4,2.8c1.6,2,2.6,4.3,3.2,6.8c0.3,1.3,0.8,2.5,0.9,3.9
				c0.1,1.7,0.2,3.3,0.2,5c0,0.6-0.2,1.2-0.2,1.9c-0.1,0.8-0.1,1.6,0.5,2.1c0.2,0.2,0.5,0.4,0.7,0.4c1.7,0.3,3.5,0.5,5.2,0.8
				c2.5,0.4,4.9,0.8,7.3,1.8c0.7,0.3,1.3,0.7,1.7,1.5c0.4,0.9,0.3,1.8-0.5,2.4c-0.6,0.5-1.4,0.8-2.2,1.1c-1,0.4-2,0.4-3,0
				c-0.2-0.1-0.5-0.3-0.5-0.5c0-0.2,0.2-0.5,0.4-0.6c0.5-0.2,1-0.4,1.5-0.6c0.5-0.2,0.7-0.8,0.4-1.1c-0.3-0.3-0.6-0.6-0.9-0.7
				c-1-0.3-2-0.5-3.1-0.7c-1.5-0.3-3-0.5-4.5-0.4c-1.2,0.1-2.3,0.4-3.2,1.2c-1,0.8-2.1,1.2-3.3,1.2c-1.9,0-3.8,0-5.8,0
				c-1,0-2,0.2-3,0.4c-0.2,0-0.4,0-0.6,0c0.2-0.4,0.3-0.6,0.4-0.9c0.1-0.1,0-0.3,0-0.5c-0.1,0.1-0.3,0.1-0.4,0.3
				c-0.1,0.2-0.2,0.4-0.3,0.6c-0.1,0.1-0.2,0.3-0.3,0.4c-0.2,0.1-0.4,0-0.6-0.1c0,0,0-0.3,0-0.5c0.1-0.2,0.2-0.4,0.3-0.6
				c0-0.1,0-0.2,0-0.3c-0.1,0-0.3,0-0.3,0.1c-0.3,0.5-0.5,0.9-0.7,1.4c-0.3-0.1-0.4-0.3-0.4-0.7c0-0.7,0.8-1.4,1.5-1.5
				c1.4-0.1,2.3-1.1,2.3-2.5c0-0.6,0-1.2-0.1-1.9c-0.1-2.5,0.6-4.8,1.7-6.9c0.4-0.7,0.9-1.3,1.5-1.9c0.4-0.4,0.9-0.5,1.4-0.8
				c0.1-0.1,0.2-0.2,0.3-0.3c-0.1,0-0.3-0.1-0.4-0.1c-1.3,0.4-2.2,1.3-2.8,2.4c-1.2,2.1-2,4.4-2,6.9c0,0.9,0.1,1.7,0.1,2.6
				c0,1.2-0.7,2-1.9,2.1c-0.8,0.1-1.6,0.8-1.9,1.6c0,0.1-0.1,0.2-0.1,0.4c-0.2,0-0.3-0.1-0.6-0.1c0.3-0.9,0.5-1.7,0.9-2.5
				c1-2.2,2.1-4.4,3.2-6.5c0.9-1.8,1.6-3.7,2.3-5.5c0.1-0.4,0.3-0.7,0.4-1.1c0-0.1-0.1-0.3-0.1-0.5c-0.1,0.1-0.3,0.2-0.3,0.3
				c-0.7,1.8-1.4,3.6-2.1,5.4c-0.8,1.7-1.7,3.4-2.5,5.1c-0.9,1.9-1.8,3.7-2.3,5.8c-0.1,0.3-0.3,0.6-0.5,0.8
				c-0.5,0.5-0.9,0.5-1.3,0.1c-0.4-0.4-0.4-0.6-0.1-1.2c-0.5,0-0.6,0.5-0.5,1.2c-0.3,0.2-0.6,0.1-0.8-0.1c-0.1-0.1-0.2-0.4-0.2-0.6
				c0-0.3,0.1-0.5,0.2-0.8c-0.5,0.2-0.6,0.6-0.5,1.5c-0.8,0.3-1.2,0-1.1-0.8c0-0.4,0.2-0.8,0.5-1c0.7-0.5,1-1.2,1.2-1.9
				c0.4-1.4,0.8-2.8,1.2-4.1c0.4-1.7,0.9-3.3,1.2-5c0.3-1.7,0.4-3.4,0.5-5c0-0.2,0-0.3-0.1-0.5c-0.4,0.2-0.4,0.5-0.4,0.8
				c0,1.8-0.3,3.6-0.6,5.4c0,0.1-0.1,0.2-0.1,0.4c-2.5-2.4-3.8-5.4-5.2-8.4c-0.1,0-0.1,0-0.2,0.1c0,0.1,0,0.2,0,0.3
				c0.7,1.4,1.3,2.8,2,4.1c0.7,1.4,1.6,2.7,2.8,3.8c0.4,0.4,0.4,0.7,0.3,1.2c-0.5,1.8-1,3.5-1.5,5.3c-0.2,0.8-0.4,1.6-0.7,2.4
				c-0.1,0.2-0.2,0.4-0.4,0.6c-0.7,0.4-1,1.1-1,1.9c0,0.1,0,0.2,0,0.3c-0.4,0-0.5-0.2-0.5-0.6c0-0.3,0-0.5,0.1-0.8c0,0-0.1,0-0.1,0
				c-0.1,0.4-0.2,0.7-0.3,1.1c-0.4,0-0.5-0.3-0.5-0.6c0.1-0.5,0.2-1,0.5-1.3c1-1.2,1.4-2.5,1.3-4c-0.2-2-0.2-4-0.4-6
				c-0.2-2.4-1.1-4.5-2.2-6.6c-1-1.9-1.9-3.8-2.2-6c-0.1-1.3-0.1-2.6,0.1-4c0.5-2.7,0.5-5.5,0.1-8.2c-0.1-0.6-0.3-1.2-0.4-1.8
				c-0.2-1-0.2-2-0.1-3c0.3,1.4,0.7,2.8,1.5,4c0.1,0,0.1,0,0.2,0c0-0.2-0.1-0.3-0.1-0.5c-0.8-1.5-1.3-3-1.1-4.7
				C28.1,19,28.1,18.8,28.2,18.4z M34.4,23.2c-0.2,0.1-0.5,0.1-0.7,0.2c-0.5,0.2-0.6,0.6-0.4,1.1c0.4,0.7,1.8,0.9,2.5,0.3
				c0.1-0.1,0.1-0.3,0.1-0.4C35.7,23.7,35.1,23.2,34.4,23.2z M39.5,25.3c-0.2-0.1-0.3-0.3-0.4-0.2c-0.5,0.1-1,0.2-1.4,0.4
				c-0.2,0.1-0.2,0.3,0,0.4c0.3,0.2,0.6,0.4,0.9,0.6c0.1,0.1,0.4,0,0.4,0C39.1,26.2,39.3,25.8,39.5,25.3z"/>
			<path class="st38" d="M35.3,21.1c0.5-1.1,1.2-2,2.1-2.7c-0.4,0.7-0.9,1.4-1.3,2.1C35.9,20.9,35.9,20.9,35.3,21.1z"/>
			<path class="st33" d="M38.9,24.2c0-0.1-0.2-0.2-0.2-0.3c0-0.4,0.4-1,0.7-0.9c0.2,0.1,0.5,0.3,0.5,0.5
				C40,23.8,39.5,24.2,38.9,24.2z"/>
			<path class="st6" d="M34.4,23.2c0.8,0,1.4,0.5,1.5,1.2c0,0.1,0,0.4-0.1,0.4c-0.7,0.6-2.1,0.4-2.5-0.3c-0.2-0.5-0.1-0.9,0.4-1.1
				C33.9,23.3,34.1,23.2,34.4,23.2z M33.4,23.9c0.4,0.8,1.1,1,1.8,0.8c0.2-0.1,0.3-0.2,0.2-0.5C35,23.5,33.9,23.3,33.4,23.9z"/>
			<path class="st6" d="M39.5,25.3c-0.2,0.4-0.3,0.8-0.5,1.2c0,0.1-0.3,0.1-0.4,0c-0.3-0.2-0.6-0.4-0.9-0.6c-0.2-0.1-0.2-0.3,0-0.4
				c0.5-0.2,0.9-0.3,1.4-0.4C39.1,25.1,39.3,25.2,39.5,25.3z M38.7,26.2c0.1-0.3,0.1-0.5,0.2-0.7c-0.3,0.1-0.6,0.1-0.8,0.2
				c0,0,0,0.1,0,0.1C38.2,25.9,38.4,26,38.7,26.2z"/>
			<path class="st33" d="M33.4,23.9c0.6-0.6,1.6-0.4,2,0.3c0.1,0.3,0.1,0.4-0.2,0.5C34.4,24.9,33.8,24.7,33.4,23.9z"/>
			<path class="st38" d="M38.7,26.2c-0.3-0.2-0.4-0.3-0.6-0.4c0,0,0-0.1,0-0.1c0.2,0,0.5-0.1,0.8-0.2C38.8,25.7,38.8,25.9,38.7,26.2
				z"/>
		</g>
	</g>
	<g id="RLHAo3.tif_5_">
		<g>
			<path class="st6" d="M23,57.9c-0.7,0.1-1.2-0.1-1.6-0.8c-0.2-0.4-0.5-0.8-0.7-1.2c-0.3-0.5-1.1-0.9-1.6-1c0,1.1,0,2.2,0,3.2
				c0,1.1,0.1,2.1-0.2,3.2c-0.2,0.7-0.6,1.1-1.3,1.3c-0.1,0-0.3,0.1-0.4,0.2c-0.5,0.4-1,0.5-1.6,0.2c-0.1,0-0.2-0.1-0.2,0
				c-0.6,0.3-1.1-0.1-1.6-0.4c-0.8,0.2-1.1,0-1.1-0.9c0-0.5,0.1-0.9,0.3-1.4c0.6-2,1-4,1.1-6c0-0.1,0-0.2,0-0.3c0,0,0,0,0,0
				c-0.7-0.2-1.4-0.4-2.2-0.6c0,0.2-0.1,0.5-0.1,0.8c-0.2,1.1-0.7,1.8-1.8,2c-0.1,0-0.2,0.2-0.2,0.3c-0.2,1-0.3,2-0.5,3
				c-0.1,0.7-0.4,1.4-0.7,2c-0.1,0.2-0.2,0.3-0.3,0.4c-0.4,0.4-0.7,0.4-1.2,0.2c-0.6,0.6-1.3,0.7-2,0.2c0,0-0.1,0-0.1,0
				c-0.5,0.2-1,0.2-1.4-0.3c-0.1-0.1-0.2-0.3-0.2-0.4c0.1-0.6,0.2-1.3,0.4-1.9c0.1-0.4,0.3-0.7,0.5-1.1c-0.1,0-0.2-0.1-0.3-0.1
				c-0.5,0.2-0.9-0.1-1.3-0.2c-0.4-0.1-0.5-0.5-0.6-0.9c-0.1-1.3,1-2.8,2.3-3c0.8-0.1,0.9-0.1,0.8-0.9c-0.1-1.4-0.3-2.8-0.5-4.2
				c0-0.3-0.3-0.5-0.5-0.8c-0.5-0.7-1.2-1.4-1.7-2.2c-1-1.6-1-4.7,0.6-6c0.1-0.1,0.1-0.3,0.1-0.4c-0.2-2.4-0.4-4.8-0.5-7.3
				c-0.1-1.8-0.1-3.6,0.3-5.3c0.4-1.5,0.9-3,1.6-4.4c0.4-0.8,0.7-1.6,1.1-2.4c0-0.1,0.1-0.2,0.1-0.2c-0.3-0.7-0.4-1.5-1.2-2
				C4.5,18.2,4.2,18,4,17.9c-0.9-0.4-1.6-1.1-2.2-1.8c-0.7-0.8-0.9-1.8-0.7-2.9c0.4-2.6,2.1-4,4.4-5c0.1,0,0.2-0.1,0.3-0.1
				c0.7,0,1.2-0.4,1.7-0.8C9.1,5.8,11.2,5,13.5,5c0.1,0,0.3,0,0.4,0c0.4,0.1,0.8,0.2,1-0.3c0-0.1,0.2-0.2,0.4-0.2
				c0.7-0.1,1.4-0.1,2.1,0.2C18,5,18.6,5.2,19.2,5.3c1.5,0.4,2.7,1.2,2.9,2.8c0.1,1,0.1,1.9-0.3,2.7c-0.2,0.3-0.3,0.7-0.4,1
				c-0.3,0.7-0.4,1.4-0.1,2.2c0.1,0.4,0.2,0.8,0.2,1.3c0,0.2-0.1,0.5-0.3,0.6c-0.1,0.1-0.5,0-0.6-0.1c-0.3-0.3-0.5-0.6-0.8-1
				c-0.2-0.2-0.3-0.5-0.5-0.8c-0.3,1.2-0.5,2.2-0.4,3.4c0.1,1,0.1,2.1,0.1,3.1c0,0.1,0,0.2,0,0.3c-0.2,0.4,0,0.7,0.2,1.1
				c0.3,0.4,0.5,0.9,0.7,1.3c0.6,1.8,1.3,3.6,1.4,5.5c0.1,0.8,0.1,1.7,0,2.5c0,0.6,0.1,1.1,0.4,1.6c0.7,1.2,1,2.5,1.2,3.9
				c0,0.3,0.1,0.4,0.4,0.4c1.3,0.4,2.1,1.4,2.5,2.6c0.6,1.7,0.8,3.6,0.5,5.4c0,0.2-0.1,0.3-0.1,0.5c-0.5,1.5-1,3-1.5,4.5
				c-0.3,0.8-0.5,1.7-0.7,2.5c-0.2,0.9,0.1,1.3,1,1.6c1.5,0.4,2.2,1.8,2,3.1c0,0.3-0.3,0.6-0.6,0.6C26.3,58,26,58,25.8,58.1
				c-0.4,0.1-0.8,0.2-1.2,0.3C24,58.7,23.5,58.5,23,57.9z M9.9,55.8c0.9-0.2,1.4-0.8,1.5-1.6c0.1-0.4,0.1-0.7,0.1-1.1
				c0-0.5,0.1-0.5,0.5-0.3c0.6,0.2,1.1,0.4,1.7,0.6c0.2,0.1,0.4,0,0.4-0.3c0.1-2.1,0.4-4.1,0.8-6.2c0.3-1.7,0.5-3.4,0.7-5
				c0-0.2,0.1-0.5,0.2-0.7c0-0.1,0.1-0.1,0.2-0.3c0,0.2,0.1,0.3,0.1,0.3c0,0.4-0.1,0.9-0.2,1.3c-0.2,1.6-0.3,3.2-0.6,4.7
				c-0.4,2-0.7,4-0.8,6.1c-0.1,2.5-0.4,5-1.3,7.4c-0.1,0.4-0.2,0.8-0.2,1.2c0,0.1,0.1,0.3,0.2,0.4c0.1,0,0.3-0.1,0.4-0.2
				c0.2-0.3,0.3-0.7,0.4-1.1c0.1-0.2,0.1-0.5,0.1-0.7c0-0.1,0.2-0.2,0.2-0.3c0,0.1,0.1,0.2,0.1,0.3c-0.1,0.5-0.2,1-0.3,1.5
				c-0.1,0.3-0.2,0.6,0.2,0.7c0.7,0.2,1,0.2,1.1-0.3c0.2-0.6,0.2-1.3,0.4-1.9c0-0.1,0.1-0.3,0.2-0.4c0.1,0.1,0.2,0.3,0.2,0.4
				c-0.1,0.7-0.2,1.4-0.4,2.1c0,0.2,0,0.3,0.2,0.3c0.5,0.1,0.9-0.1,1.1-0.6c0.1-0.3,0.1-0.6,0.2-0.9c0-0.4,0-0.8,0-1.1
				c0-0.1,0.1-0.2,0.2-0.3c0.1,0.1,0.2,0.1,0.2,0.2c0,0.1,0,0.3,0,0.4c0,0.6-0.1,1.1-0.1,1.7c0.4-0.2,0.7-0.4,0.8-0.8
				c0.1-0.4,0.2-0.9,0.2-1.3c0-1.1,0-2.2,0-3.3c0-1-0.1-2.1-0.1-3.1c-0.1-2.1,0.1-4.3,0.6-6.3c0.4-1.7,0.9-3.4,1.3-5.1
				c0.3-1.3,0.5-2.7,0.4-4.1c-0.1-1.9-0.1-3.7,0-5.6c0.1-1.3,0.1-2.5,0.1-3.8c-0.1-1.9-0.8-3.7-1.4-5.6c-0.2-0.6-0.6-1.1-0.8-1.7
				c-0.3,0.1-0.6,0.3-0.8,0.3c-1,0.3-2.1,0.7-3.1,0.9c-1,0.3-2,0.1-2.8-0.5c-0.7-0.5-1-1.1-1.3-1.9c-0.3-0.7-0.6-1.4-1.2-1.9
				c-0.5-0.4-0.9-0.9-1.4-1.3c-0.1,1-0.4,2-0.8,3C6.9,21,6.7,21,6.1,20.8c-0.1,0.4-0.3,0.8-0.4,1.2c-0.7,1.5-1.4,2.9-1.8,4.5
				c-0.6,2.1-0.7,4.2-0.6,6.3c0.1,1.4,0.2,2.8,0.3,4.1c0.2,1.8,0.2,3.6,0.5,5.4c0.3,2.5,0.8,4.9,1.2,7.3c0.3,1.8,0.4,3.7,0.4,5.6
				c0,1.1-0.2,2.1-0.7,3.1C4.6,58.8,4.3,59.4,4,60c-0.2,0.5-0.3,1-0.4,1.5c0,0,0.1,0,0.1,0c0.5-1.2,0.5-1.2,0.9-1.3
				c-0.1,0.2-0.1,0.3-0.2,0.4c-0.1,0.3-0.2,0.6-0.3,0.9c0,0.2,0,0.3,0,0.5c0.2,0,0.4,0,0.6-0.1c0.1,0,0.2-0.2,0.2-0.4
				c0.2-0.4,0.3-0.8,0.5-1.2c0.1,0,0.1,0,0.2,0.1c0,0.1-0.1,0.2-0.1,0.4c-0.1,0.3-0.2,0.7-0.2,1c0,0.1,0.1,0.3,0.2,0.4
				c0.7,0.2,1.1,0,1.3-0.7c0.1-0.3,0.2-0.6,0.3-0.8c0.1,0.3,0.1,0.5,0.2,0.8c0,0.2,0.1,0.3,0.1,0.4c0.2-0.1,0.4-0.1,0.5-0.2
				c0.3-0.4,0.6-0.8,0.7-1.2c0.3-1.6,0.6-3.2,0.8-4.8c0.2-2.1,0-4.1-0.4-6.1c-0.3-1.6-0.3-3.2-0.4-4.8c-0.1-1.1-0.2-2.3-0.2-3.5
				c0-0.1,0.1-0.3,0.2-0.5c0.1,0.1,0.2,0.3,0.2,0.4c0.1,1.1,0.1,2.1,0.2,3.2c0.2,1.9,0.3,3.8,0.6,5.7c0.3,1.7,0.3,3.4,0.3,5.1
				C9.9,55.5,9.9,55.6,9.9,55.8z M6.5,20.6c0.2-0.2,0.3-0.4,0.3-0.5c0.2-0.5,0.4-1,0.6-1.6c0.5-1.4,0.2-2.8-0.4-4.1
				c-0.8-1.7-0.7-3.4,0.3-4.9c0-0.1,0.1-0.1,0.2-0.1c0,0.3-0.1,0.5-0.2,0.7c-0.1,0.4-0.3,0.7-0.3,1.1c-0.1,1-0.1,1.9,0.3,2.9
				c0.3,0.7,0.5,1.3,0.7,2c0.2,0.7,0.5,1.2,1.1,1.7c0.7,0.5,1.3,1.1,1.7,1.9c0.2,0.4,0.3,0.7,0.5,1.1c0.7,1.5,2.1,2,3.5,1.6
				c1.1-0.3,2.2-0.6,3.2-1c0.5-0.1,0.8-0.5,0.8-0.9c0-0.7,0.1-1.3,0-2c-0.1-1.2-0.2-2.5,0.1-3.7c0.1-0.7,0.3-1.5,0.3-2.3
				c0-1.7-0.7-3.3-1.8-4.6c-0.5-0.6-1-1.3-1.8-1.6c-0.1,0-0.1-0.2-0.1-0.3c0.1,0,0.2-0.1,0.3-0.1c0.3,0.2,0.7,0.4,1,0.6
				C16.8,7,17,7.2,17.2,7.4c1.1,1.1,1.8,2.4,2.1,3.9c0.2,0.8,0.2,1.6,0.4,2.3c0.2,0.7,0.7,1.2,1,1.8c0,0.1,0.2,0.1,0.3,0.2
				c0-0.3-0.1-0.6-0.1-0.8c-0.1-0.5-0.2-1-0.3-1.5c0-0.9,0.4-1.7,0.7-2.4c0.4-0.8,0.4-1.6,0.3-2.5C21.6,7,20.5,6,19.2,5.7
				c-0.7-0.1-1.3-0.4-1.9-0.6C16.6,5,16,4.9,15.3,4.9c-0.1,0-0.4,0.2-0.4,0.3c0.1,0.5-0.3,0.5-0.5,0.4c-1.1-0.3-2.1-0.1-3.1,0.1
				C9.7,6,8.4,6.9,7.1,7.9C7.1,7.9,7.1,8,7,8.1C6.9,8.2,6.8,8.3,6.6,8.4c-0.3,0.1-0.7,0-1,0.2c-2.2,0.9-3.8,2.3-4.2,4.8
				c-0.1,1.1,0.1,2,0.9,2.9c0.6,0.6,1.3,1.1,2.1,1.6c0.8,0.5,1.4,1.1,1.7,2.1C6.2,20,6.3,20.3,6.5,20.6z M24.7,55.5
				c0.1,0,0.1,0,0.2,0c0.1,0.7,0.3,1.5,0.4,2.2c0.5,0,0.8-0.2,0.7-0.7c0-0.3-0.2-0.6-0.2-0.9c0-0.2,0-0.3,0-0.5c0.1,0,0.1,0,0.2,0
				c0.2,0.7,0.3,1.3,0.5,2c0.3,0,0.4-0.1,0.4-0.4c0-1.1-0.5-2.3-1.9-2.6c-0.8-0.1-1.3-0.7-1.2-1.5c0-0.4,0.1-0.9,0.2-1.3
				c0.3-1.1,0.7-2.2,1.1-3.4c0.3-0.9,0.6-1.9,0.9-2.8c0.1-0.3,0.1-0.7,0.2-1c0.2-1.4-0.1-2.9-0.4-4.3c-0.2-1-0.8-1.9-1.6-2.5
				c-0.3-0.2-0.6-0.3-1-0.5c0,0.2,0,0.4,0,0.5c-0.1,1.1-0.2,2.1-0.3,3.2c-0.3,1.7-0.8,3.3-1.6,4.8c-0.1,0.1-0.2,0.2-0.3,0.3
				c0,0-0.1,0-0.1-0.1c0-0.1,0.1-0.3,0.1-0.4c0.7-1.5,1.1-3.1,1.5-4.7c0.5-2.4,0.5-4.7-0.4-7.1c-0.1-0.4-0.4-0.8-0.6-1.2
				c0,0-0.1,0-0.1,0c0,1-0.1,2.1-0.1,3.1c0,1.3,0.1,2.6,0,3.9c-0.1,2-0.7,3.9-1.3,5.8c-0.6,1.8-0.9,3.6-1,5.4c0,1.1,0,2.2,0,3.2
				c1.4,0.5,1.9,0.7,2.6,2.1c0.2,0.4,0.5,0.9,1,1c0.3,0.1,0.5,0.1,0.5-0.3c0-0.4,0-0.8,0.1-1.2c0-0.1,0.1-0.2,0.2-0.3
				c0.1,0.1,0.1,0.2,0.2,0.3c0,0.1,0,0.2,0,0.3c0,0.4-0.1,0.8,0,1.2c0,0.4,0.3,0.6,0.7,0.6c0.5,0,0.7-0.2,0.7-0.6
				c0-0.3-0.1-0.6-0.1-0.8C24.6,56.3,24.7,55.9,24.7,55.5z M3.4,40.8c-1.8,2-1.1,5.5,1.2,7.4C4.2,45.7,3.8,43.3,3.4,40.8z M5.3,54.7
				c-0.3,0.1-0.6,0.1-0.9,0.2c-1,0.3-1.9,1.2-1.9,2.5c0,0.2,0.1,0.3,0.1,0.5c0.3-1.3,0.6-1.7,1.2-1.7c0,0,0,0.1,0,0.1
				c0,0.1-0.1,0.1-0.1,0.2c-0.4,0.4-0.5,0.9-0.5,1.5c0,0.1,0.2,0.3,0.3,0.4c0.1-0.1,0.2-0.2,0.2-0.3c0-0.5,0.3-0.9,0.6-1.3
				c0.1-0.1,0.2-0.1,0.3-0.2c0,0,0,0.1,0.1,0.1c-0.1,0.1-0.2,0.2-0.2,0.3c-0.1,0.3-0.3,0.6-0.4,1c0,0.1,0.1,0.3,0.2,0.4
				c0.1-0.1,0.3-0.1,0.4-0.2C5.1,57,5.3,55.9,5.3,54.7z"/>
			<path class="st32" d="M9.9,55.8c0-0.2,0-0.3,0-0.4c0-1.7,0-3.4-0.3-5.1c-0.3-1.9-0.4-3.8-0.6-5.7c-0.1-1.1-0.1-2.1-0.2-3.2
				c0-0.1-0.1-0.3-0.2-0.4c-0.1,0.2-0.2,0.3-0.2,0.5c0.1,1.2,0.1,2.3,0.2,3.5C8.7,46.4,8.8,48,9,49.5c0.3,2,0.6,4.1,0.4,6.1
				c-0.2,1.6-0.5,3.2-0.8,4.8c-0.1,0.4-0.4,0.8-0.7,1.2c-0.1,0.1-0.3,0.1-0.5,0.2c0-0.1-0.1-0.3-0.1-0.4c0-0.2-0.1-0.5-0.2-0.8
				c-0.1,0.3-0.2,0.6-0.3,0.8c-0.2,0.7-0.7,0.9-1.3,0.7c-0.1,0-0.2-0.3-0.2-0.4c0-0.3,0.1-0.7,0.2-1c0-0.1,0.1-0.2,0.1-0.4
				c-0.1,0-0.1,0-0.2-0.1c-0.2,0.4-0.3,0.8-0.5,1.2c-0.1,0.1-0.1,0.3-0.2,0.4C4.6,62,4.3,62,4.1,62c0-0.2-0.1-0.3,0-0.5
				c0.1-0.3,0.2-0.6,0.3-0.9c0-0.1,0.1-0.3,0.2-0.4c-0.4,0.2-0.4,0.2-0.9,1.3c0,0-0.1,0-0.1,0C3.7,61,3.8,60.5,4,60
				c0.3-0.6,0.6-1.2,0.9-1.7c0.5-1,0.7-2,0.7-3.1c0-1.9,0-3.7-0.4-5.6c-0.4-2.4-0.9-4.9-1.2-7.3c-0.3-1.8-0.3-3.6-0.5-5.4
				c-0.1-1.4-0.3-2.8-0.3-4.1c-0.1-2.1-0.1-4.2,0.6-6.3c0.5-1.6,1.2-3,1.8-4.5c0.2-0.4,0.3-0.8,0.4-1.2C6.7,21,6.9,21,7.2,20.3
				c0.4-1,0.8-2,0.8-3c0.5,0.4,0.9,0.9,1.4,1.3c0.6,0.5,0.9,1.2,1.2,1.9c0.3,0.7,0.7,1.4,1.3,1.9c0.9,0.6,1.8,0.7,2.8,0.5
				c1.1-0.3,2.1-0.6,3.1-0.9c0.3-0.1,0.5-0.2,0.8-0.3c0.3,0.6,0.6,1.1,0.8,1.7c0.6,1.8,1.4,3.6,1.4,5.6c0.1,1.3,0,2.5-0.1,3.8
				c-0.1,1.9-0.2,3.7,0,5.6c0.1,1.4-0.1,2.7-0.4,4.1c-0.4,1.7-0.9,3.4-1.3,5.1c-0.5,2.1-0.7,4.2-0.6,6.3c0.1,1,0.1,2.1,0.1,3.1
				c0,1.1,0.1,2.2,0,3.3c0,0.4-0.1,0.9-0.2,1.3c-0.1,0.4-0.4,0.7-0.8,0.8c0-0.6,0.1-1.1,0.1-1.7c0-0.1,0-0.3,0-0.4
				c0-0.1-0.1-0.2-0.2-0.2c-0.1,0.1-0.2,0.2-0.2,0.3c0,0.4,0,0.8,0,1.1c0,0.3-0.1,0.6-0.2,0.9c-0.2,0.5-0.5,0.7-1.1,0.6
				c-0.2,0-0.2-0.1-0.2-0.3c0.1-0.7,0.3-1.4,0.4-2.1c0-0.1-0.1-0.3-0.2-0.4c-0.1,0.1-0.2,0.3-0.2,0.4c-0.1,0.6-0.2,1.3-0.4,1.9
				c-0.1,0.4-0.4,0.5-1.1,0.3c-0.4-0.1-0.3-0.4-0.2-0.7c0.1-0.5,0.2-1,0.3-1.5c0-0.1-0.1-0.2-0.1-0.3c-0.1,0.1-0.2,0.2-0.2,0.3
				c-0.1,0.2-0.1,0.5-0.1,0.7c-0.1,0.4-0.2,0.7-0.4,1.1c-0.1,0.1-0.3,0.2-0.4,0.2c-0.1,0-0.2-0.2-0.2-0.4c0-0.4,0.1-0.8,0.2-1.2
				c0.9-2.4,1.2-4.9,1.3-7.4c0.1-2.1,0.4-4.1,0.8-6.1c0.3-1.6,0.4-3.2,0.6-4.7c0.1-0.4,0.1-0.9,0.2-1.3c0-0.1,0-0.1-0.1-0.3
				c-0.1,0.2-0.2,0.2-0.2,0.3c-0.1,0.2-0.1,0.5-0.2,0.7c-0.2,1.7-0.4,3.4-0.7,5c-0.4,2-0.7,4.1-0.8,6.2c0,0.4-0.2,0.4-0.4,0.3
				c-0.6-0.2-1.2-0.4-1.7-0.6c-0.4-0.2-0.5-0.2-0.5,0.3c0,0.4-0.1,0.7-0.1,1.1C11.2,55,10.7,55.6,9.9,55.8z"/>
			<path class="st32" d="M6.5,20.6c-0.2-0.4-0.3-0.6-0.4-0.9c-0.2-0.9-0.8-1.6-1.7-2.1c-0.8-0.4-1.5-0.9-2.1-1.6
				c-0.8-0.8-1.1-1.8-0.9-2.9c0.3-2.5,2-3.9,4.2-4.8c0.3-0.1,0.7-0.1,1-0.2c0.1,0,0.3-0.2,0.4-0.3C7.1,8,7.1,7.9,7.1,7.9
				C8.4,6.9,9.7,6,11.3,5.7c1-0.2,2-0.4,3.1-0.1c0.3,0.1,0.6,0.1,0.5-0.4c0-0.1,0.2-0.3,0.4-0.3C16,4.9,16.6,5,17.3,5.1
				c0.6,0.1,1.3,0.5,1.9,0.6C20.5,6,21.6,7,21.8,8.3c0.1,0.9,0.1,1.7-0.3,2.5c-0.3,0.8-0.8,1.6-0.7,2.4c0,0.5,0.2,1,0.3,1.5
				c0,0.2,0.1,0.5,0.1,0.8c-0.2-0.1-0.3-0.1-0.3-0.2c-0.4-0.6-0.8-1.2-1-1.8c-0.3-0.7-0.3-1.5-0.4-2.3c-0.3-1.5-1.1-2.8-2.1-3.9
				C17,7.2,16.8,7,16.6,6.8c-0.3-0.2-0.6-0.4-1-0.6c-0.1,0-0.2,0.1-0.3,0.1c0,0.1,0.1,0.2,0.1,0.3c0.8,0.3,1.3,1,1.8,1.6
				c1.1,1.3,1.7,2.8,1.8,4.6c0,0.8-0.2,1.5-0.3,2.3c-0.2,1.2-0.2,2.4-0.1,3.7c0.1,0.6,0.1,1.3,0,2c0,0.5-0.3,0.8-0.8,0.9
				c-1.1,0.3-2.1,0.7-3.2,1c-1.4,0.3-2.8-0.1-3.5-1.6c-0.2-0.4-0.3-0.7-0.5-1.1c-0.4-0.8-1-1.4-1.7-1.9c-0.6-0.4-0.9-0.9-1.1-1.7
				c-0.2-0.7-0.4-1.4-0.7-2c-0.4-0.9-0.4-1.9-0.3-2.9c0-0.4,0.2-0.7,0.3-1.1c0.1-0.2,0.2-0.5,0.2-0.7c-0.1,0-0.1,0.1-0.2,0.1
				c-1,1.6-1.1,3.2-0.3,4.9c0.6,1.3,0.9,2.7,0.4,4.1c-0.2,0.5-0.4,1-0.6,1.6C6.8,20.3,6.6,20.4,6.5,20.6z M16.6,18.8
				c0.2-0.1,0.5-0.2,0.6-0.4c0.4-0.7-0.2-1.8-1-1.8c-0.3,0-0.6,0-0.9,0c-0.6,0-1,0.3-1.4,0.7c-0.3,0.3-0.2,0.6-0.2,0.9
				c0,0.4,0,0.8,0.4,1c0.4,0.2,0.7-0.1,0.9-0.4c0,0.3,0,0.6,0.1,0.9c0.1,0.3,0.5,0.3,0.8,0.3C16.5,19.8,16.6,19.5,16.6,18.8z
				 M9.8,14.4c0.2-0.1,0.5-0.1,0.7-0.2c0.2-0.1,0.5-0.2,0.6-0.4c0.1-0.1-0.1-0.4-0.2-0.6c-0.4-1-1.1-1.2-1.8-0.5
				c-0.3,0.3-0.5,0.8-0.5,1.1C8.8,14.3,9.3,14.4,9.8,14.4z M15.5,11.3c0,0.2,0.1,0.4,0.1,0.6c0,0.4,0.2,0.4,0.5,0.4
				c0.7-0.1,1.2-0.4,1.7-1c0.1-0.1,0.1-0.4,0-0.5c-0.2-0.2-0.4-0.5-0.7-0.6C16.3,9.9,15.4,10.4,15.5,11.3z"/>
			<path class="st32" d="M24.7,55.5c0,0.4,0,0.7,0,1.1c0,0.3,0.1,0.6,0.1,0.8c0,0.4-0.2,0.6-0.7,0.6c-0.4,0-0.7-0.2-0.7-0.6
				c0-0.4,0-0.8,0-1.2c0-0.1,0-0.2,0-0.3c0-0.1-0.1-0.2-0.2-0.3C23.2,55.8,23,55.9,23,56c-0.1,0.4-0.1,0.8-0.1,1.2
				c0,0.3-0.2,0.4-0.5,0.3c-0.5-0.2-0.7-0.6-1-1c-0.7-1.4-1.1-1.6-2.6-2.1c0-1.1,0-2.1,0-3.2c0.1-1.9,0.5-3.7,1-5.4
				c0.6-1.9,1.1-3.8,1.3-5.8c0.1-1.3,0-2.6,0-3.9c0-1,0.1-2.1,0.1-3.1c0,0,0.1,0,0.1,0c0.2,0.4,0.4,0.8,0.6,1.2
				c0.8,2.3,0.9,4.7,0.4,7.1c-0.3,1.6-0.8,3.2-1.5,4.7c-0.1,0.1-0.1,0.3-0.1,0.4c0,0,0.1,0,0.1,0.1c0.1-0.1,0.2-0.2,0.3-0.3
				c0.8-1.5,1.3-3.1,1.6-4.8c0.2-1.1,0.2-2.1,0.3-3.2c0-0.1,0-0.3,0-0.5c0.4,0.2,0.7,0.3,1,0.5c0.8,0.6,1.4,1.5,1.6,2.5
				c0.3,1.4,0.6,2.8,0.4,4.3c0,0.3-0.1,0.7-0.2,1c-0.3,0.9-0.6,1.9-0.9,2.8c-0.4,1.1-0.7,2.2-1.1,3.4c-0.1,0.4-0.2,0.9-0.2,1.3
				c0,0.8,0.5,1.3,1.2,1.5c1.4,0.3,1.9,1.4,1.9,2.6c0,0.3-0.1,0.3-0.4,0.4c-0.2-0.7-0.3-1.3-0.5-2c-0.1,0-0.1,0-0.2,0
				c0,0.2,0,0.4,0,0.5c0.1,0.3,0.2,0.6,0.2,0.9c0.1,0.5-0.2,0.8-0.7,0.7c-0.1-0.7-0.3-1.5-0.4-2.2C24.8,55.5,24.7,55.5,24.7,55.5z"
				/>
			<path class="st32" d="M3.4,40.8c0.4,2.5,0.8,4.9,1.2,7.4C2.3,46.3,1.6,42.8,3.4,40.8z"/>
			<path class="st32" d="M5.3,54.7c0,1.2-0.1,2.3-0.7,3.3c-0.1,0.1-0.2,0.1-0.4,0.2c-0.1-0.1-0.2-0.3-0.2-0.4c0.1-0.3,0.2-0.6,0.4-1
				c0.1-0.1,0.1-0.2,0.2-0.3c0,0,0-0.1-0.1-0.1c-0.1,0.1-0.3,0.1-0.3,0.2c-0.4,0.3-0.6,0.8-0.6,1.3c0,0.1-0.1,0.2-0.2,0.3
				c-0.1-0.1-0.3-0.3-0.3-0.4c0-0.5,0.1-1.1,0.5-1.5c0,0,0.1-0.1,0.1-0.2c0,0,0,0,0-0.1c-0.6,0-0.8,0.4-1.2,1.7
				c0-0.2-0.1-0.3-0.1-0.5c0-1.2,0.9-2.2,1.9-2.5C4.7,54.9,5,54.8,5.3,54.7z"/>
			<path class="st6" d="M16.6,18.8c0.1,0.6-0.1,1-0.6,1.1c-0.3,0.1-0.6,0-0.8-0.3c-0.1-0.2-0.1-0.5-0.1-0.9
				c-0.3,0.4-0.5,0.7-0.9,0.4c-0.4-0.2-0.4-0.6-0.4-1c0-0.3-0.1-0.6,0.2-0.9c0.4-0.4,0.8-0.7,1.4-0.7c0.3,0,0.6,0,0.9,0
				c0.8,0,1.4,1.1,1,1.8C17.1,18.6,16.8,18.7,16.6,18.8z M16.9,18.3c0.2-0.7-0.2-1.3-0.9-1.3c-0.2,0-0.5,0-0.7,0
				c-0.8,0.1-1.4,0.7-1.3,1.3c0,0.2,0.1,0.5,0.3,0.6c0.2,0.2,0.3-0.1,0.5-0.3c0.1-0.1,0.3-0.2,0.4-0.2c0.1,0,0.2,0.2,0.3,0.3
				c0,0.1,0,0.2,0,0.4c0,0.1,0,0.3,0.1,0.3c0.1,0.1,0.3,0.1,0.4,0c0.3-0.1,0.4-0.3,0.3-0.7c-0.1-0.2,0-0.4,0.1-0.6
				c0-0.1,0.3,0,0.5,0C16.8,18.3,16.8,18.3,16.9,18.3z"/>
			<path class="st6" d="M9.8,14.4c-0.5-0.1-1-0.2-1.1-0.5c-0.1-0.3,0.2-0.8,0.5-1.1c0.7-0.8,1.5-0.5,1.8,0.5
				c0.1,0.2,0.2,0.5,0.2,0.6c-0.1,0.2-0.4,0.3-0.6,0.4C10.3,14.3,10,14.4,9.8,14.4z M9.7,14.1c0.5-0.1,0.9-0.3,0.9-0.6
				c0-0.3-0.4-0.8-0.7-0.8c-0.4,0-1,0.5-0.9,0.9C9.2,13.8,9.5,13.9,9.7,14.1z"/>
			<path class="st6" d="M15.5,11.3c0-0.9,0.8-1.4,1.5-1c0.3,0.1,0.5,0.4,0.7,0.6c0.1,0.1,0.1,0.4,0,0.5c-0.4,0.5-1,0.9-1.7,1
				c-0.3,0-0.5,0-0.5-0.4C15.6,11.7,15.5,11.5,15.5,11.3z M17.3,11.1c-0.4-0.7-1-0.8-1.3-0.3c-0.2,0.2-0.1,0.5-0.2,0.8
				c0,0.2,0.1,0.3,0.3,0.2C16.6,11.8,17,11.5,17.3,11.1z"/>
			<path class="st38" d="M16.9,18.3c-0.1,0-0.1,0-0.1,0c-0.2,0-0.5-0.1-0.5,0c-0.1,0.2-0.1,0.4-0.1,0.6c0.1,0.3,0,0.5-0.3,0.7
				c-0.1,0.1-0.3,0-0.4,0c-0.1,0,0-0.2-0.1-0.3c0-0.1,0-0.3,0-0.4c-0.1-0.1-0.2-0.3-0.3-0.3c-0.1,0-0.3,0.1-0.4,0.2
				c-0.1,0.2-0.2,0.4-0.5,0.3c-0.2-0.1-0.3-0.4-0.3-0.6c-0.1-0.7,0.5-1.3,1.3-1.3c0.2,0,0.5,0,0.7,0C16.7,17,17.1,17.6,16.9,18.3z"
				/>
			<path class="st33" d="M9.7,14.1c-0.2-0.1-0.6-0.2-0.6-0.4C9,13.3,9.6,12.8,10,12.8c0.2,0,0.7,0.5,0.7,0.8
				C10.7,13.8,10.2,14,9.7,14.1z"/>
			<path class="st33" d="M17.3,11.1c-0.3,0.4-0.7,0.6-1.2,0.8c-0.2,0.1-0.3,0-0.3-0.2c0-0.3,0-0.6,0.2-0.8
				C16.4,10.4,16.9,10.5,17.3,11.1z"/>
		</g>
	</g>
</g>
<g id="Calque_3">
</g>
</svg>
