<?xml version="1.0" encoding="utf-8"?>
<!-- Generator: Adobe Illustrator 23.0.1, SVG Export Plug-In . SVG Version: 6.00 Build 0)  -->
<svg version="1.1" xmlns="http://www.w3.org/2000/svg" x="0px" y="0px"
     viewBox="0 0 72 72" style="enable-background:new 0 0 72 72;" xml:space="preserve">
<style type="text/css">
	.st0{opacity:0.4;fill:url(#SVGID_1_);}
	.st1{opacity:0.6;fill:url(#SVGID_2_);}
	.st2{opacity:0.6;fill:url(#SVGID_3_);}
	.st3{opacity:0.6;fill:url(#SVGID_4_);}
	.st4{opacity:0.6;fill:url(#SVGID_5_);}
	.st5{opacity:0.6;fill:url(#SVGID_6_);}
	.st6{fill:#1F2B50;}
	.st7{fill:none;stroke:#1F2B50;stroke-width:3;stroke-miterlimit:10;}
	.st8{opacity:0.4;fill:url(#SVGID_7_);}
	.st9{opacity:0.4;fill:url(#SVGID_8_);}
	.st10{opacity:0.6;fill:url(#SVGID_9_);}
	.st11{opacity:0.6;fill:url(#SVGID_10_);}
	.st12{opacity:0.4;fill:url(#SVGID_11_);}
	.st13{opacity:0.4;fill:url(#SVGID_12_);}
	.st14{opacity:0.4;fill:url(#SVGID_13_);}
	.st15{opacity:0.4;fill:url(#SVGID_14_);}
	.st16{opacity:0.4;fill:url(#SVGID_15_);}
	.st17{opacity:0.4;fill:url(#SVGID_16_);}
	.st18{opacity:0.4;fill:url(#SVGID_17_);}
	.st19{fill:url(#SVGID_18_);}
	.st20{fill:url(#SVGID_19_);}
	.st21{fill:url(#SVGID_20_);}
	.st22{opacity:0.6;fill:url(#SVGID_21_);}
	.st23{opacity:0.6;fill:url(#SVGID_22_);}
	.st24{opacity:0.6;fill:url(#SVGID_23_);}
	.st25{opacity:0.6;fill:url(#SVGID_24_);}
	.st26{opacity:0.6;fill:url(#SVGID_25_);}
	.st27{opacity:0.6;fill:url(#SVGID_26_);}
	.st28{opacity:0.6;fill:url(#SVGID_27_);}
	.st29{opacity:0.6;fill:url(#SVGID_28_);}
	.st30{fill:url(#SVGID_29_);}
	.st31{fill:url(#SVGID_30_);}
	.st32{fill:#EA9001;}
	.st33{fill:#407EA7;}
	.st34{opacity:0.5;fill:#FFFFFF;}
	.st35{fill:none;stroke:#EA9001;stroke-width:2;stroke-miterlimit:10;}
	.st36{fill:#BECBCC;}
	.st37{fill:#FFFFFF;}
	.st38{fill:#979B9B;}
	.st39{fill:none;stroke:#407EA7;stroke-width:3;stroke-miterlimit:10;}
	.st40{fill:none;stroke:#407EA7;stroke-width:3.0377;stroke-miterlimit:10;}
	.st41{fill:none;stroke:#407EA7;stroke-width:2.8985;stroke-miterlimit:10;}
	.st42{fill:none;stroke:#407EA7;stroke-width:2.933;stroke-miterlimit:10;}
	.st43{fill:none;stroke:#EA9001;stroke-width:1.8227;stroke-miterlimit:10;}
	.st44{fill:#AAB2B2;}
	.st45{fill:none;stroke:#407EA7;stroke-width:3.0142;stroke-miterlimit:10;}
	.st46{fill:none;stroke:#407EA7;stroke-width:3.0512;stroke-miterlimit:10;}
	.st47{fill:#D3DDDD;}
	.st48{fill:none;stroke:#1F2B50;stroke-miterlimit:10;}
	.st49{fill:#BECBCC;stroke:#1F2B50;stroke-width:0.75;stroke-miterlimit:10;}
	.st50{fill:url(#SVGID_31_);}
	.st51{fill:none;stroke:#407EA7;stroke-width:2.8066;stroke-linecap:round;stroke-miterlimit:10;}
	.st52{fill:none;stroke:#407EA7;stroke-width:2.7511;stroke-linecap:round;stroke-miterlimit:10;}
	.st53{fill:url(#SVGID_32_);}
	.st54{fill:none;stroke:#EA9001;stroke-width:0.8;stroke-miterlimit:10;}
	.st55{fill:none;stroke:#407EA7;stroke-width:1.2;stroke-miterlimit:10;}
	.st56{fill:none;stroke:#407EA7;stroke-width:1.2151;stroke-miterlimit:10;}
	.st57{fill:none;stroke:#407EA7;stroke-width:1.1594;stroke-miterlimit:10;}
	.st58{fill:none;stroke:#407EA7;stroke-width:1.1732;stroke-miterlimit:10;}
	.st59{fill:url(#SVGID_33_);}
	.st60{fill:none;stroke:#1F2B50;stroke-width:0.4;stroke-miterlimit:10;}
	.st61{fill:#BECBCC;stroke:#1F2B50;stroke-width:0.3;stroke-miterlimit:10;}
	.st62{fill:none;stroke:#407EA7;stroke-width:1.1226;stroke-linecap:round;stroke-miterlimit:10;}
	.st63{fill:none;stroke:#407EA7;stroke-width:1.1004;stroke-linecap:round;stroke-miterlimit:10;}
	.st64{fill:url(#SVGID_34_);}
	.st65{fill:url(#SVGID_35_);}
</style>
<g id="Calque_2">
</g>
<g id="Calque_1">
	<g id="IoAXMc.tif_6_">
		<g>
			<path class="st6" d="M2.3,60c0-2.7,0-5.4,0-8.2c-0.6,0.2-1,0.3-1.4,0.5c0-0.1-0.1-0.1-0.1-0.2c0.1-0.3,0.2-0.7,0.4-0.9
				c2.1-2.7,4.2-5.5,6.3-8.1c0.8-1,2-1.6,3-2.3c4.8-2.9,9.6-5.7,14.4-8.6c2.1-1.3,4-2.7,6.1-4c1.2-0.8,2.4-1.6,3.5-2.4
				c0.6-0.4,1-0.4,1.4,0.3c0.2,0.4,0.4,0.7,0.7,1.1c0.1-0.1,0.2-0.1,0.2-0.2c0.1-4.5,0.2-9,0.2-13.7c0.6-0.5,1.4-1.3,2.3-1.9
				c1.9-1.4,3.9-2.8,5.8-4.2c0.2-0.1,0.4-0.1,0.6-0.1c3.5,1.1,6.9,2.1,10.4,3.2c0.5,0.2,0.9,0.3,0.8,1.3c-0.1,1.5,0,3.1,0,4.8
				c1.1-0.7,2-1.3,2.9-2c0.5-0.4,1-0.6,1.7-0.4c2.9,0.9,5.7,1.7,8.6,2.5c0.3,0.1,0.5,0.2,0.5,0.7c0,0.4,0.1,0.8,0.1,1.1
				c0,11.7,0.1,23.3,0.1,35c0,1.9,0,3.8,0,5.7c0,0.9-0.2,1.1-0.9,1.1c-2.5-0.1-4.9-0.3-7.4-0.3c-4.2,0.1-8.3,0.4-12.5,0.6
				c-2.1,0.1-4.1,0-6.2,0c-3.9,0-7.8,0.1-11.7,0.1c-5.5,0-11.1-0.1-16.6-0.2c-2.6,0-5.2-0.1-7.7-0.2c-1.7,0-3.4,0-5,0
				C2.8,60.1,2.6,60,2.3,60z M23.7,59.6c0.4,0,0.8,0.1,1.3,0.1c2.8,0,5.6,0,8.4,0c4.5,0,8.9-0.1,13.4-0.1c0.4,0,0.6-0.2,0.6-0.8
				c0-1.1,0.1-2.2,0.1-3.2c0-4.4,0.1-8.9,0.1-13.3c0-0.3-0.2-0.7-0.4-0.9c-2-2.6-4.1-5.1-6.1-7.7c-1.8-2.3-3.5-4.7-5.2-7
				c-0.3-0.4-0.5-0.5-0.9,0c-1,1.4-2.1,2.8-3.2,4.2c-2.7,3.5-5.3,7-8,10.5c-0.2,0.2-0.3,0.7-0.3,1C23.4,48.1,23.6,53.8,23.7,59.6z
				 M70.4,17.3c-1.9-0.6-3.8-1.1-5.7-1.7c-1.1-0.3-2.2-0.7-3.2-1.1c-0.5-0.2-0.6,0-0.6,0.6c0,0.6,0.1,1.2,0.1,1.8
				c0,3.9-0.1,7.8-0.1,11.7c0,4.3,0.1,8.6,0,13c0,1.2,0.5,1.7,0.9,2.2c0.3-0.2,0.5-0.4,0.7-0.5c0.2-0.1,0.4,0,0.6-0.1
				c0.7,0,0.8,0.1,0.8,1c0,0.7,0,1.4,0,2.1c0,1.8,0,1.8-1.3,2.2c-0.2,0.7,0,1,0.6,0.9c0.4-0.1,0.6,0.2,0.6,0.8c0,0.8,0,1.6,0,2.5
				c0,1.5,0,1.5-1.1,1.6c0,0-0.1,0.1-0.2,0.2c0,1.4,0,3,0,4.7c2.6,0,5.3,0,7.8,0C70.4,45.3,70.4,31.3,70.4,17.3z M48,44.2
				c0.8,0,1.6,0,2.3,0c0.6,0,0.8,0.2,0.8,1c0,2.2-0.1,4.3-0.1,6.5c0,0.7-0.3,1-0.8,1c-0.6,0-1.3,0.1-1.9,0.1c-0.4,0-0.5,0.2-0.5,0.6
				c0,1.9,0,3.7-0.1,5.6c0,0.5,0.1,0.7,0.5,0.7c1.2,0,2.4-0.1,3.6-0.1c3.2-0.1,6.3-0.2,9.5-0.2c0.4,0,0.6-0.2,0.6-0.8
				c0-1.1,0.1-2.2,0.1-3.3c0-3,0-6.1,0.1-9.1c0-0.6-0.1-1-0.4-1.5c-2.8-3.4-5.9-6.5-8.4-10.2c-0.1-0.1-0.4-0.1-0.5,0
				c-1.9,2.1-3.7,4.2-5.7,6.4C48.5,41.6,47.7,43,48,44.2z M9.3,59.5c0-0.4,0-0.6,0-0.9c0-2.5,0-5,0-7.6c0-0.3,0.1-0.8,0.3-1
				c0.7-0.6,1.4-1,2.1-1.5c1-0.7,1.2-0.6,1.1,1c0,3.1-0.1,6.2-0.2,9.3c0,0.6,0.2,0.8,0.6,0.8c2.2,0,4.4,0,6.6,0.1c1,0,2.1,0,3.1,0
				c0-0.2,0-0.3,0-0.4c0-5.6-0.1-11.2-0.1-16.8c0-0.5-0.1-0.6-0.5-0.5c-1.2,0.6-2.3,1.1-3.5,1.6c-3.1,1.5-6.1,3-9.2,4.6
				c-2.2,1.1-4.5,2.2-6.7,3.3c-0.2,0.1-0.4,0.4-0.4,0.6c0.1,2.3,0.1,4.6,0.2,6.9c0,0.2,0.2,0.5,0.3,0.5C5.2,59.5,7.2,59.5,9.3,59.5z
				 M56.8,37.8c0-0.4,0-0.6,0-0.8c-0.1-4.4-0.2-8.8-0.2-13.2c0-3.9,0-7.9,0.1-11.8c0-0.6-0.1-0.9-0.6-1.1c-0.6-0.2-1.2-0.5-1.8-0.6
				c-2.7-0.8-5.4-1.6-8-2.4c-0.6-0.2-0.6,0.2-0.6,0.8c-0.1,5.2-0.1,10.3-0.2,15.5c0,4.3,0,8.5,0,13c0.7-0.3,1.2-0.6,1.7-0.8
				c0.1-0.1,0.2-0.3,0.2-0.5c0.1-1,0.1-2.1,0.2-3.2c0.4,0,0.7,0,1.1,0c0.4,0,0.6,0.2,0.6,0.8c0,0.6,0,1.2,0,1.8
				c1.3-0.3,1.3-0.4,1.4-2c0-0.2,0.1-0.4,0.2-0.4c0.5-0.1,0.9-0.2,1.4-0.1c0.2,0,0.3,0.6,0.5,0.9c0.4-0.2,0.9-0.5,1.1,0.3
				c0.1-0.3,0.2-0.8,0.4-0.9c0.9-0.5,1.5,0,1.5,1.4c0,0.3,0,0.5,0,0.8C55.3,36.5,56,37.1,56.8,37.8z M45.1,8.2
				c-0.3,0.2-0.5,0.3-0.7,0.5c-2.1,1.5-4.2,3.1-6.3,4.6c-0.3,0.2-0.4,0.5-0.4,1c-0.1,4.3-0.2,8.6-0.3,12.9c0,0.6,0.1,1,0.4,1.4
				c2.2,2.8,4.3,5.7,6.5,8.5c0.1,0.2,0.4,0.4,0.6,0.3c0.1,0,0.2-0.5,0.2-0.7c0-2.2-0.1-4.4,0-6.6c0-6.4,0.1-12.9,0.1-19.3
				C45.1,9.9,45.1,9.1,45.1,8.2z M33.5,27.3c-0.3,0.2-0.4,0.3-0.6,0.4c-2.3,1.6-4.6,3.3-7,4.7c-5,3.1-10.1,6-15.1,9
				c-2,1.2-3.7,2.8-5.1,5.1c-1,1.5-2.2,2.8-3.3,4.2c-0.1,0.1-0.2,0.3-0.3,0.4c2.2-0.9,4.3-2,6.4-3c4.7-2.3,9.4-4.6,14.2-6.9
				c0.4-0.2,0.7-0.4,1-0.8c2.6-3.3,5.1-6.7,7.6-10.1C32,29.3,32.7,28.4,33.5,27.3z M60.5,42.3c0-9.1,0-18.2,0-27.4
				c-1.1,0.7-2.1,1.3-3,1.8c-0.3,0.2-0.5,0.5-0.5,1c0,1.9,0,3.9,0,5.8c0,4.3,0.1,8.5,0,12.8c0,1.5,0.2,2.6,1.2,3.4
				c0.6,0.5,1.1,1.3,1.7,2C60.1,41.9,60.3,42.1,60.5,42.3z M12.2,49c-0.8,0.5-1.6,1-2.3,1.5c-0.1,0.1-0.1,0.4-0.1,0.6
				c0,2.5,0,5.1,0,7.6c0,0.2,0,0.5,0,0.8c0.9,0,1.6,0,2.5,0C12.2,56,12.2,52.6,12.2,49z M51.9,34.6c0-0.1-0.1-0.2-0.1-0.2
				c-2.2,1.1-4.4,2.3-6.8,3.5c0.6,0.8,1.1,1.4,1.6,2.1c0.3,0.4,0.5,0.4,0.8,0c0.8-1.1,1.7-2.1,2.5-3.1
				C50.5,36.1,51.2,35.3,51.9,34.6z M50.7,48.5c-0.6,0-1.1,0-1.5,0c0,1.2,0,2.3,0,3.4c0.4,0,0.7,0,1,0c0.1,0,0.3-0.2,0.3-0.4
				C50.6,50.5,50.6,49.5,50.7,48.5z M49.1,47.7c0.5,0,0.9,0,1.3,0c0.1,0,0.3-0.3,0.3-0.4c0-0.8-0.1-1.7-0.1-2.5c-0.5,0-1,0-1.5,0
				C49.1,45.8,49.1,46.7,49.1,47.7z M62.7,47.6c0.8,0.2,0.9,0.2,0.9-0.8c0-0.7,0-1.3,0-2c0-1.2,0-1.2-0.9-1.2
				c-0.5,0-0.7,0.4-0.3,0.9c0.4,0.5,0.4,1,0.4,1.7C62.6,46.7,62.7,47.1,62.7,47.6z M62.7,49.9c0,1.3,0,2.5,0,3.7
				c0.6,0.1,0.8-0.1,0.8-0.8c0-0.7,0-1.3,0-2C63.5,50.1,63.3,49.8,62.7,49.9z M48,48.5c0,1.1,0,2.3,0,3.4c0.5,0.2,0.8-0.1,0.7-0.8
				c0-0.6,0-1.3,0-1.9C48.8,48.5,48.5,48.3,48,48.5z M47.7,35.9c0.2-0.1,0.4-0.2,0.5-0.3c0.2-0.1,0.3-0.2,0.4-0.2c0-0.5,0-0.9,0-1.3
				c0-1.1-0.1-1.1-0.9-0.9C47.7,34.1,47.7,35,47.7,35.9z M47.9,46.3C48,46.3,48,46.3,47.9,46.3c0,0.4,0,0.8,0,1.1
				c0,0.2,0.2,0.3,0.3,0.5c0.1-0.2,0.4-0.3,0.4-0.5c0-0.8,0-1.5,0-2.3c0-0.1-0.2-0.3-0.4-0.4c-0.1,0-0.3,0.2-0.3,0.4
				C47.9,45.5,47.9,45.9,47.9,46.3z M55.1,35.8c0-0.7,0-1.3,0.1-1.8c0-0.5-0.2-0.5-0.5-0.5c-0.3,0-0.5,0-0.5,0.5
				C54.1,34.9,54.7,35.1,55.1,35.8z M50.9,34.4c0.4-0.4,1-0.1,1-1c0-0.1-0.4-0.2-0.6-0.2C50.7,33.3,50.8,33.8,50.9,34.4z"/>
			<path class="st36" d="M23.7,59.6c-0.1-5.9-0.2-11.6-0.3-17.3c0-0.3,0.1-0.7,0.3-1c2.7-3.5,5.3-7,8-10.5c1.1-1.4,2.2-2.8,3.2-4.2
				c0.4-0.5,0.6-0.4,0.9,0c1.7,2.4,3.4,4.7,5.2,7c2,2.6,4.1,5.1,6.1,7.7c0.2,0.2,0.4,0.6,0.4,0.9c0,4.4-0.1,8.9-0.1,13.3
				c0,1.1-0.1,2.2-0.1,3.2c0,0.6-0.1,0.8-0.6,0.8c-4.5,0-8.9,0.1-13.4,0.1c-2.8,0-5.6,0-8.4,0C24.5,59.7,24.1,59.7,23.7,59.6z
				 M34,45.1c0-0.9-0.1-1.9-0.1-2.8c0-0.5-0.2-0.8-0.6-0.8c-1.5,0.1-3.1,0.1-4.6,0.2c-0.8,0.1-0.8,0.1-0.8,1.2
				c-0.1,2.2-0.1,4.4-0.2,6.6c-0.1,1.6-0.1,1.7,1.2,1.6c1.4,0,2.8-0.1,4.2-0.2c0.4,0,0.8-0.2,0.8-0.9C33.9,48.4,33.9,46.8,34,45.1z
				 M39.9,51C39.9,51,39.9,51,39.9,51c0.8,0.1,1.5,0.1,2.3,0.1c0.4,0,0.7-0.2,0.7-0.8c0-2.6,0.1-5.3,0.1-7.9c0-0.6-0.2-0.9-0.7-0.9
				c-1.4,0-2.8,0-4.2,0c-0.5,0-0.8,0.2-0.8,0.9c-0.1,2.5-0.3,5.1-0.5,7.6c0,0.7,0.2,1,0.7,1C38.4,51,39.1,51,39.9,51z"/>
			<path class="st37" d="M70.4,17.3c0,14,0,28,0,41.9c-2.6,0-5.2,0-7.8,0c0-1.7,0-3.2,0-4.7c0.1-0.1,0.2-0.2,0.2-0.2
				c1.1-0.2,1.1-0.2,1.1-1.6c0-0.8,0-1.6,0-2.5c0-0.6-0.1-0.8-0.6-0.8c-0.5,0.1-0.7-0.2-0.6-0.9c1.3-0.4,1.3-0.4,1.3-2.2
				c0-0.7,0-1.4,0-2.1c0-0.9-0.1-1.1-0.8-1c-0.2,0-0.4,0-0.6,0.1c-0.2,0.1-0.4,0.3-0.7,0.5c-0.4-0.4-0.9-0.9-0.9-2.2
				c0.1-4.3,0-8.6,0-13c0-3.9,0.1-7.8,0.1-11.7c0-0.6,0-1.2-0.1-1.8c-0.1-0.6,0.1-0.8,0.6-0.6c1.1,0.4,2.2,0.7,3.2,1.1
				C66.6,16.2,68.5,16.7,70.4,17.3z M62.2,30.1c0,1.4-0.1,2.8-0.1,4.1c0,0.5,0.1,0.7,0.5,0.7c0.3,0,0.6,0,0.8,0.2
				c0.6,0.4,0.6,0,0.6-0.5c0-0.9,0-1.7,0-2.6c0-1.9-0.1-1.9-1.5-1.9C62.4,30.1,62.3,30.1,62.2,30.1z M66.7,46.1
				C66.8,46.1,66.8,46.1,66.7,46.1c0-0.6-0.1-1.2-0.1-1.8c0-0.4-0.1-0.6-0.4-0.6c-0.2,0-0.5,0-0.7,0c-0.4,0-0.6,0.2-0.6,0.8
				c0,0.9,0,1.8-0.1,2.7c-0.1,1.4-0.1,1.4,1,1.5c0.1,0,0.2,0,0.3,0.1c0.4,0.2,0.5-0.1,0.5-0.6C66.8,47.4,66.7,46.8,66.7,46.1z
				 M65,35.1c0.5,0.1,0.9,0.2,1.3,0.2c0.2,0,0.5-0.2,0.5-0.4c0-1.1,0-2.2,0-3.4c0-0.3-0.2-0.7-0.3-0.7c-0.4-0.1-0.9-0.1-1.4-0.1
				c0,0-0.1,0.2-0.1,0.3C65,32.3,65,33.7,65,35.1z M68.1,37.3c-0.1,0-0.1,0-0.2,0c0,1.4,0,2.8,0,4.3c0,0.1,0.2,0.3,0.4,0.4
				c0.2,0.1,0.4,0,0.6,0c0.5,0.1,0.7-0.2,0.7-0.8c0-0.8,0-1.5,0-2.3C69.5,37.1,69.5,37.1,68.1,37.3C68.1,37.2,68.1,37.3,68.1,37.3z
				 M66.7,38.9C66.7,38.9,66.7,38.9,66.7,38.9c0.1-0.2,0.1-0.4,0.1-0.6c0-1.4,0-1.4-1.1-1.4c-0.4,0-0.5,0.2-0.5,0.7
				c0,1.2-0.1,2.3-0.1,3.5c0,0.5,0.1,0.8,0.5,0.8c0.2,0,0.3,0,0.5,0.1c0.4,0,0.6-0.1,0.6-0.7C66.7,40.4,66.7,39.7,66.7,38.9z
				 M65.1,18.7c0,1.6,0,3.1,0,4.5c0.4,0.1,0.8,0.3,1.3,0.4c0.1,0,0.3,0.2,0.4,0.1c0.1-0.1,0.2-0.4,0.2-0.6c0-0.6,0-1.2,0-1.8
				C66.7,19,66.9,19.1,65.1,18.7z M65,54.5c0.5,0.1,0.9,0.2,1.2,0.2c0.2,0,0.5-0.3,0.5-0.5c0-1.3,0-2.7-0.1-4c0-0.6-0.5-0.5-0.8-0.5
				c-0.3,0-0.6-0.1-0.7,0.5C65.1,51.6,65.1,53,65,54.5z M69.6,33.8C69.6,33.8,69.6,33.8,69.6,33.8c0-0.6,0-1.2,0-1.8
				c0-0.8-0.5-0.8-0.9-0.8c-0.4,0-0.7,0.2-0.7,0.9c0,0.8,0,1.7,0,2.5c0,1.3,0.2,1.6,1.2,1.6c0.3,0,0.5-0.2,0.5-0.6
				C69.6,35,69.6,34.4,69.6,33.8z M68,24c0-0.1,0.1-0.1,0.1-0.2c0.4,0.2,0.8,0.3,1.1,0.6c0.4,0.2,0.5,0.1,0.5-0.4
				c0-1.2,0-2.5-0.1-3.7c-0.1-0.8-0.7-0.7-1.2-0.8c-0.4-0.1-0.5,0.4-0.5,0.8c-0.1,1.1-0.1,2.2-0.1,3.3C67.9,23.7,67.9,23.9,68,24z
				 M62.2,39.2C62.2,39.2,62.2,39.2,62.2,39.2c-0.1,0.6-0.1,1.2-0.1,1.8c0,0.2,0.1,0.5,0.2,0.6c0.7,0.5,1.4,0,1.4-1.1
				c0-1.1-0.1-2.1-0.1-3.2c0-0.8-0.4-0.7-0.8-0.7c-0.4,0-0.7,0.1-0.7,0.7C62.2,38,62.2,38.6,62.2,39.2z M62.2,17.9
				c0,0-0.1,0.1-0.1,0.1c0,0.8,0,1.7,0,2.5c0,1.8,0,1.8,1.3,2.4c0.1,0,0.1,0.1,0.2,0.1c0.1-0.2,0.3-0.3,0.3-0.5
				c0-0.7-0.1-1.5-0.1-2.2C63.9,18.1,63.9,18.1,62.2,17.9C62.2,17.9,62.2,17.9,62.2,17.9z M68.1,52.4C68.1,52.4,68.1,52.4,68.1,52.4
				C68,53,68,53.5,68,54c0,0.2,0.1,0.5,0.1,0.5c0.4,0,0.8,0,1.2-0.1c0.2,0,0.3-0.4,0.3-0.7c0.1-1,0-2,0.1-3.1c0-0.7-0.2-0.9-0.6-0.9
				c-0.4,0-1-0.1-1,0.8C68.1,51.2,68.1,51.8,68.1,52.4z M68.2,46.1C68.2,46.1,68.2,46.1,68.2,46.1c-0.1,0.6-0.1,1.2-0.1,1.8
				c0,0.6,0.3,0.7,0.6,0.7c0.3,0,0.9,0.2,0.9-0.5c0.1-1.2,0.1-2.5,0-3.7c-0.1-0.8-0.6-0.6-1-0.6c-0.4,0-0.4,0.3-0.4,0.7
				C68.2,45,68.2,45.5,68.2,46.1z M62.1,23.8c0,0.5,0.1,1,0.1,1.4c0,0.8-0.1,1.6-0.1,2.5c0,0.2,0.1,0.6,0.2,0.6
				c0.4,0.1,0.9,0.1,1.3,0.1c0,0,0.1-0.2,0.1-0.3c0-1,0-2-0.1-3C63.6,23.9,63.1,23.5,62.1,23.8z M65,24.6c0,1.1-0.1,2.1-0.1,3.1
				c0,1.3,0,1.3,0.9,1.5c0.1,0,0.2,0,0.2,0.1c0.5,0.4,0.6,0,0.6-0.6c0-1.1-0.1-2.2-0.1-3.3c0-0.2-0.1-0.4-0.2-0.5
				C66,24.8,65.6,24.7,65,24.6z M69.4,29.9c0-0.1,0.1-0.1,0.1-0.2c0-1,0-2-0.1-3.1c0-0.9-0.2-1.2-0.9-1.2c-0.3,0-0.5,0.1-0.5,0.6
				c0,1.1,0,2.1,0,3.2c0,0.2,0.1,0.5,0.1,0.6C68.6,29.8,69,29.9,69.4,29.9z"/>
			<path class="st36" d="M48,44.2c-0.3-1.2,0.4-2.6-0.9-3.4c2-2.2,3.8-4.3,5.7-6.4c0.1-0.1,0.4-0.1,0.5,0c2.6,3.8,5.6,6.8,8.4,10.2
				c0.4,0.4,0.4,0.9,0.4,1.5c-0.1,3-0.1,6.1-0.1,9.1c0,1.1-0.1,2.2-0.1,3.3c0,0.6-0.2,0.8-0.6,0.8c-3.2,0.1-6.3,0.2-9.5,0.2
				c-1.2,0-2.4,0.1-3.6,0.1c-0.4,0-0.5-0.2-0.5-0.7c0-1.9,0.1-3.7,0.1-5.6c0-0.5,0.1-0.6,0.5-0.6c0.6,0,1.3-0.1,1.9-0.1
				c0.5,0,0.8-0.3,0.8-1c0-2.2,0.1-4.3,0.1-6.5c0-0.8-0.2-1-0.8-1C49.6,44.2,48.8,44.2,48,44.2z M58.6,49C58.5,49,58.5,49,58.6,49
				c-0.1-1.4-0.2-2.7-0.2-4.1c0-0.4-0.1-0.9-0.5-0.9c-1.1,0-2.2,0.1-3.3,0.2c-0.2,0-0.4,0.3-0.4,0.5c-0.1,2.3-0.3,4.7-0.4,7
				c0,0.2,0.2,0.6,0.4,0.6c1.2,0,2.5-0.1,3.7-0.2c0.5,0,0.6-0.4,0.7-1C58.6,50.5,58.6,49.7,58.6,49z"/>
			<path class="st36" d="M9.3,59.5c-2.1,0-4.1,0-6.1,0c-0.1,0-0.3-0.3-0.3-0.5c-0.1-2.3-0.2-4.6-0.2-6.9c0-0.2,0.2-0.5,0.4-0.6
				c2.2-1.1,4.5-2.2,6.7-3.3c3.1-1.5,6.1-3,9.2-4.6c1.2-0.6,2.3-1.1,3.5-1.6c0.4-0.2,0.5,0,0.5,0.5c0,5.6,0.1,11.2,0.1,16.8
				c0,0.1,0,0.2,0,0.4c-1,0-2.1,0-3.1,0c-2.2,0-4.4-0.1-6.6-0.1c-0.5,0-0.6-0.2-0.6-0.8c0.1-3.1,0.1-6.2,0.2-9.3
				c0-1.5-0.1-1.6-1.1-1c-0.7,0.5-1.4,0.9-2.1,1.5c-0.2,0.2-0.3,0.7-0.3,1c0,2.5,0,5,0,7.6C9.3,58.8,9.3,59.1,9.3,59.5z"/>
			<path class="st37" d="M56.8,37.8c-0.7-0.8-1.5-1.4-1.2-2.7c0.1-0.2,0-0.5,0-0.8c0-1.3-0.6-1.9-1.5-1.4c-0.2,0.1-0.3,0.6-0.4,0.9
				c-0.2-0.8-0.7-0.5-1.1-0.3c-0.2-0.4-0.3-0.9-0.5-0.9c-0.4-0.1-0.9,0-1.4,0.1c-0.1,0-0.2,0.3-0.2,0.4c-0.1,1.6-0.1,1.6-1.4,2
				c0-0.6,0-1.2,0-1.8c0-0.6-0.2-0.8-0.6-0.8c-0.4,0-0.7,0-1.1,0c-0.1,1.1-0.1,2.2-0.2,3.2c0,0.2-0.1,0.4-0.2,0.5
				c-0.5,0.3-1,0.5-1.7,0.8c0-4.4,0-8.7,0-13c0-5.2,0.1-10.3,0.2-15.5c0-0.6,0.1-0.9,0.6-0.8c2.7,0.8,5.4,1.6,8,2.4
				c0.6,0.2,1.2,0.5,1.8,0.6c0.5,0.1,0.6,0.4,0.6,1.1c0,3.9-0.1,7.9-0.1,11.8c0,4.4,0.1,8.8,0.2,13.2C56.8,37.2,56.8,37.5,56.8,37.8
				z M53.7,19.5c0,1.1,0,2.1,0,3c0,0.5-0.2,1.2,0,1.4c0.3,0.3,0.8,0.2,1.2,0.3c0.4,0.1,0.6-0.1,0.6-0.7c0.1-1.1,0.1-2.2,0.2-3.3
				c0-0.2-0.2-0.5-0.4-0.6C54.8,19.6,54.3,19.6,53.7,19.5z M47.1,27.8c0,0.4,0,0.9,0,1.3c0,0.6,0,1.1,0.6,1c0.2-0.1,0.4,0.1,0.7,0.2
				c0.4,0.1,0.6,0.1,0.6-0.6c0-1.3,0-2.7,0-4c0-0.1-0.1-0.4-0.2-0.4c-0.4-0.1-0.9-0.1-1.3-0.1c-0.1,0-0.3,0.3-0.3,0.5
				C47.2,26.3,47.2,27,47.1,27.8z M49,14.7C49,14.7,49,14.7,49,14.7c0-0.4,0-0.8,0-1.2c0-1.4-0.2-1.6-1.2-1.6
				c-0.4,0-0.6,0.2-0.6,0.8c0,1.1,0,2.1,0,3.2c0,0.3,0.3,0.7,0.5,0.9c0.3,0.2,0.6,0.2,0.9,0.2c0.3,0.1,0.5-0.1,0.5-0.5
				C49,15.8,49,15.3,49,14.7z M50.5,30.4c0.4,0,0.8-0.1,1,0c0.5,0.2,0.5-0.1,0.6-0.6c0-1,0-2,0.1-2.9c0-1.5,0-1.5-1.1-1.6
				c-0.4,0-0.5,0.2-0.5,0.7c0,1.3,0,2.6-0.1,3.9C50.4,30,50.4,30.2,50.5,30.4z M53.7,30.3c0.5,0,0.9,0,1.2,0.1
				c0.4,0.2,0.5,0,0.5-0.5c0-1.2,0.1-2.5,0-3.7c0-0.2-0.2-0.5-0.3-0.7c-0.2-0.1-0.5-0.1-0.7-0.2c-0.6-0.1-0.8,0.2-0.8,1
				c0,1.2,0,2.4,0,3.5C53.6,30.1,53.6,30.3,53.7,30.3z M47.3,22.9c0.4,0.1,0.7,0.2,1,0.2c0.2,0,0.5,0,0.7,0c0-0.2-0.1-0.5-0.1-0.7
				c0-0.2,0-0.3,0-0.5c0-0.9,0-1.8-0.1-2.8c0-0.2-0.1-0.4-0.2-0.4c-0.5-0.1-0.9-0.1-1.3-0.2C47.3,20.1,47.3,21.5,47.3,22.9z
				 M50.5,19c0,1.3,0,2.6,0,3.9c0,0.1,0.2,0.3,0.3,0.4c0.2,0.1,0.4,0.2,0.7,0.2c0.4,0.1,0.6,0,0.6-0.6c0-0.6,0-1.2,0.1-1.8
				c0.1-2.1,0.1-2.1-1.5-2.3C50.7,18.9,50.7,19,50.5,19z M52.1,17.6c0-0.1,0.1-0.3,0.1-0.5c0-1.2,0-2.4-0.1-3.6
				c0-0.2-0.1-0.4-0.3-0.5c-0.4-0.2-0.9-0.2-1.4-0.4c0,1.5,0,2.8,0,4.1c0,0.5,0.2,0.7,0.6,0.7C51.4,17.4,51.7,17.5,52.1,17.6z
				 M53.8,13.7c-0.1,1-0.1,1.8-0.2,2.6c-0.1,1.4-0.1,1.4,1,1.7c0.1,0,0.3,0.3,0.4,0.2c0.2-0.1,0.4-0.2,0.4-0.4c0-1.1,0-2.3,0-3.4
				c0-0.2-0.1-0.4-0.3-0.5C54.7,13.9,54.3,13.8,53.8,13.7z"/>
			<path class="st36" d="M45.1,8.2c0,0.9,0,1.7,0,2.5c0,6.4-0.1,12.9-0.1,19.3c0,2.2,0,4.4,0,6.6c0,0.3-0.1,0.7-0.2,0.7
				c-0.2,0.1-0.4-0.1-0.6-0.3c-2.2-2.8-4.3-5.7-6.5-8.5c-0.3-0.4-0.4-0.8-0.4-1.4c0.1-4.3,0.2-8.6,0.3-12.9c0-0.5,0.1-0.7,0.4-1
				c2.1-1.5,4.2-3,6.3-4.6C44.6,8.5,44.8,8.4,45.1,8.2z"/>
			<path class="st33" d="M33.5,27.3c-0.8,1.1-1.5,2-2.2,3c-2.5,3.4-5.1,6.7-7.6,10.1c-0.3,0.3-0.6,0.6-1,0.8
				c-4.7,2.3-9.4,4.6-14.2,6.9c-2.1,1-4.2,2.1-6.4,3c0.1-0.1,0.2-0.3,0.3-0.4c1.1-1.4,2.3-2.6,3.3-4.2c1.4-2.3,3.1-3.9,5.1-5.1
				c5-3,10.1-5.9,15.1-9c2.4-1.5,4.7-3.1,7-4.7C33,27.6,33.2,27.5,33.5,27.3z"/>
			<path class="st36" d="M60.5,42.3c-0.2-0.2-0.3-0.4-0.5-0.5c-0.6-0.7-1.1-1.5-1.7-2c-1-0.9-1.2-2-1.2-3.4c0.1-4.3,0-8.5,0-12.8
				c0-1.9,0-3.9,0-5.8c0-0.5,0.1-0.8,0.5-1c1-0.6,1.9-1.2,3-1.8C60.5,24.1,60.5,33.1,60.5,42.3z"/>
			<path class="st37" d="M12.2,49c0,3.6,0,7,0,10.5c-0.8,0-1.6,0-2.5,0c0-0.3,0-0.5,0-0.8c0-2.5,0-5.1,0-7.6c0-0.2,0-0.5,0.1-0.6
				C10.7,50,11.4,49.5,12.2,49z"/>
			<path class="st33" d="M51.9,34.6c-0.7,0.7-1.3,1.4-2,2.2c-0.9,1-1.7,2.1-2.5,3.1c-0.3,0.4-0.5,0.4-0.8,0c-0.5-0.7-1-1.3-1.6-2.1
				c2.3-1.2,4.6-2.3,6.8-3.5C51.8,34.5,51.8,34.5,51.9,34.6z"/>
			<path class="st32" d="M50.7,48.5c-0.1,1-0.1,2-0.2,3c0,0.2-0.2,0.4-0.3,0.4c-0.3,0.1-0.6,0-1,0c0-1.1,0-2.2,0-3.4
				C49.6,48.5,50.1,48.5,50.7,48.5z"/>
			<path class="st32" d="M49.1,47.7c0-1,0-1.9,0-2.9c0.5,0,1,0,1.5,0c0,0.8,0.1,1.7,0.1,2.5c0,0.1-0.2,0.4-0.3,0.4
				C50,47.8,49.6,47.7,49.1,47.7z"/>
			<path class="st38" d="M62.7,47.6c0-0.5,0-1,0-1.4c0.1-0.6,0-1.2-0.4-1.7c-0.3-0.4-0.1-0.8,0.3-0.9c0.9-0.1,0.9-0.1,0.9,1.2
				c0,0.7,0,1.3,0,2C63.6,47.8,63.5,47.9,62.7,47.6z"/>
			<path class="st38" d="M62.7,49.9c0.6-0.2,0.8,0.2,0.8,0.9c0,0.7,0,1.3,0,2c0,0.7-0.2,1-0.8,0.8C62.7,52.4,62.7,51.2,62.7,49.9z"
				/>
			<path class="st32" d="M48,48.5c0.6-0.2,0.8,0,0.8,0.7c0,0.6,0,1.3,0,1.9c0,0.7-0.2,1-0.7,0.8C48,50.8,48,49.7,48,48.5z"/>
			<path class="st38" d="M47.7,35.9c0-1,0-1.8,0-2.7c0.9-0.2,0.9-0.2,0.9,0.9c0,0.4,0,0.8,0,1.3c-0.1,0.1-0.3,0.2-0.4,0.2
				C48.1,35.8,47.9,35.8,47.7,35.9z"/>
			<path class="st32" d="M47.9,46.3c0-0.4,0-0.7,0-1.1c0-0.2,0.2-0.4,0.3-0.4c0.1,0,0.4,0.2,0.4,0.4c0,0.8,0.1,1.5,0,2.3
				c0,0.2-0.3,0.3-0.4,0.5c-0.1-0.2-0.3-0.3-0.3-0.5C47.9,47,48,46.6,47.9,46.3C48,46.3,48,46.3,47.9,46.3z"/>
			<path class="st38" d="M55.1,35.8c-0.4-0.7-1-0.9-0.9-1.8c0-0.5,0.2-0.5,0.5-0.5c0.3,0,0.5,0.1,0.5,0.5
				C55.1,34.6,55.1,35.1,55.1,35.8z"/>
			<path class="st38" d="M50.9,34.4c-0.1-0.6-0.2-1.1,0.4-1.2c0.2,0,0.6,0.1,0.6,0.2C51.9,34.3,51.3,34,50.9,34.4z"/>
			<path class="st6" d="M34,45.1c-0.1,1.7-0.1,3.3-0.2,5c0,0.7-0.4,0.9-0.8,0.9c-1.4,0.1-2.8,0.2-4.2,0.2c-1.2,0-1.2,0-1.2-1.6
				c0.1-2.2,0.1-4.4,0.2-6.6c0-1.1,0-1.1,0.8-1.2c1.5-0.1,3.1-0.1,4.6-0.2c0.4,0,0.6,0.2,0.6,0.8C33.9,43.3,34,44.2,34,45.1z
				 M30.9,46.1c0.8-0.1,1.4-0.2,2.1-0.3c0.3,0,0.5-0.2,0.4-0.6c0-0.8,0-1.5-0.1-2.3c0-0.2-0.1-0.5-0.2-0.5c-0.7,0-1.5,0-2.2,0
				C30.9,43.6,30.9,44.8,30.9,46.1z M28,50.5c0.8,0,1.4,0,2.1,0c0.1,0,0.3-0.3,0.3-0.5c0-0.9,0-1.7,0-2.6c0-0.4-0.1-0.6-0.5-0.6
				c-0.4,0-0.9-0.1-1.3-0.1c-0.3,0-0.5,0.1-0.5,0.6C28.1,48.2,28.1,49.3,28,50.5z M30.9,50.4c0.7,0,1.4-0.1,2-0.1
				c0.1,0,0.3-0.2,0.3-0.4c0.1-1.1,0.1-2.2,0.1-3.3c-0.8,0.1-1.5,0.1-2.2,0.2c-0.1,0-0.3,0.2-0.3,0.4C30.9,48.2,30.9,49.2,30.9,50.4
				z M30.4,42.3c-0.6,0.1-1.2,0.1-1.8,0.2c-0.1,0-0.3,0.3-0.3,0.5c0,0.8,0,1.6,0,2.5c0,0.2,0.1,0.5,0.2,0.5c0.6,0,1.2,0,1.9,0
				C30.4,44.7,30.4,43.6,30.4,42.3z"/>
			<path class="st6" d="M39.9,51c-0.8,0-1.5,0-2.3,0c-0.5,0-0.8-0.2-0.7-1c0.2-2.5,0.3-5.1,0.5-7.6c0-0.7,0.3-0.9,0.8-0.9
				c1.4,0,2.8,0,4.2,0c0.5,0,0.7,0.2,0.7,0.9c-0.1,2.6-0.1,5.3-0.1,7.9c0,0.6-0.3,0.8-0.7,0.8C41.4,51.1,40.6,51.1,39.9,51
				C39.9,51,39.9,51,39.9,51z M42.2,46.2c-0.7,0-1.3,0-1.9,0c-0.2,0-0.4,0.3-0.4,0.5c-0.1,1-0.1,2-0.1,3c0,0.2,0.2,0.5,0.3,0.5
				c0.7,0,1.4,0,2.1,0C42.2,48.8,42.2,47.6,42.2,46.2z M37.6,46.3c-0.1,1.4-0.1,2.7-0.2,4c0.7,0,1.3,0,2,0c0-1.4,0-2.7,0-4
				C38.8,46.3,38.2,46.3,37.6,46.3z M42.3,45.4c0-1.1,0-2.1,0-3.1c-0.8,0-1.6,0-2.3,0c0,1.1,0,2.1,0,3.1
				C40.8,45.4,41.5,45.4,42.3,45.4z M39.5,45.5c0-1.1,0.1-2.2,0.1-3.3c-0.7-0.1-1.3-0.1-1.9-0.2c0,1.2,0,2.3,0,3.4
				C38.3,45.5,38.8,45.5,39.5,45.5z"/>
			<path class="st6" d="M62.2,30.1c0.1,0,0.2,0,0.3,0c1.4-0.1,1.5,0,1.5,1.9c0,0.9,0,1.7,0,2.6c0,0.5,0,1-0.6,0.5
				c-0.2-0.2-0.5-0.1-0.8-0.2c-0.4,0-0.5-0.2-0.5-0.7C62.2,32.9,62.2,31.5,62.2,30.1z M62.5,30.6c0,1.2,0,2.4,0,3.7
				c0.9,0.1,0.9,0.1,0.9-0.9c0-0.6,0-1.2,0-1.8C63.4,30.7,63.3,30.6,62.5,30.6z"/>
			<path class="st6" d="M66.7,46.1c0,0.7,0,1.3,0,2c0,0.5-0.1,0.8-0.5,0.6c-0.1,0-0.2,0-0.3-0.1c-1-0.1-1-0.1-1-1.5
				c0-0.9,0.1-1.8,0.1-2.7c0-0.6,0.2-0.8,0.6-0.8c0.2,0,0.5,0,0.7,0c0.3,0,0.4,0.2,0.4,0.6C66.7,44.9,66.7,45.5,66.7,46.1
				C66.8,46.1,66.8,46.1,66.7,46.1z M66.3,47.9c0-0.9,0-1.8,0-2.7c0-1-0.1-1.2-1-1c0,1.2,0,2.4,0,3.7C65.7,47.9,65.9,47.9,66.3,47.9
				z"/>
			<path class="st6" d="M65,35.1c0-1.4,0-2.7,0-4.1c0-0.1,0.1-0.3,0.1-0.3c0.5,0,0.9,0,1.4,0.1c0.1,0,0.3,0.5,0.3,0.7
				c0,1.1,0,2.2,0,3.4c0,0.1-0.3,0.4-0.5,0.4C65.8,35.3,65.4,35.2,65,35.1z M65.3,31.2c0,1,0,2,0,3c0,0.2,0.3,0.4,0.4,0.4
				c0.1,0,0.4-0.2,0.4-0.4c0.1-0.6,0.1-1.2,0.1-1.8C66.3,31.3,66.3,31.3,65.3,31.2z"/>
			<path class="st6" d="M68.1,37.3C68.1,37.3,68.1,37.2,68.1,37.3c1.4-0.2,1.4-0.2,1.5,1.5c0,0.8,0,1.5,0,2.3c0,0.6-0.2,0.9-0.7,0.8
				c-0.2,0-0.4,0-0.6,0c-0.1-0.1-0.4-0.2-0.4-0.4c0-1.4,0-2.8,0-4.3C68,37.3,68.1,37.3,68.1,37.3z M68.4,37.7c0,1,0.1,2,0.1,3
				c0,0.2,0.2,0.3,0.3,0.5c0.1-0.2,0.3-0.3,0.3-0.5c0-0.8-0.1-1.6-0.1-2.4C69.1,37.7,68.8,37.6,68.4,37.7z"/>
			<path class="st6" d="M66.7,38.9c0,0.8,0,1.5,0,2.3c0,0.5-0.2,0.7-0.6,0.7c-0.2,0-0.4-0.1-0.5-0.1C65.1,41.9,65,41.6,65,41
				c0.1-1.1,0.1-2.3,0.1-3.5c0-0.5,0.1-0.7,0.5-0.7c1.1,0,1.1,0,1.1,1.4C66.7,38.5,66.7,38.7,66.7,38.9
				C66.7,38.9,66.7,38.9,66.7,38.9z M66.2,41.2c0-1.2,0-2.4,0-3.7c-0.2,0-0.4,0-0.6-0.1c0,0.2,0,0.2,0,0.3c0,0.9,0,1.9,0,2.8
				C65.5,41.2,65.7,41.3,66.2,41.2z"/>
			<path class="st6" d="M65.1,18.7c1.8,0.3,1.6,0.3,1.8,2.6c0,0.6,0,1.2,0,1.8c0,0.2-0.1,0.4-0.2,0.6c0,0.1-0.3-0.1-0.4-0.1
				c-0.4-0.1-0.8-0.3-1.3-0.4C65.1,21.8,65.1,20.3,65.1,18.7z M65.4,19.4c0,0.8,0.1,1.6,0.1,2.4c0,0.9,0.1,1.1,1,1
				c0-0.8-0.1-1.6-0.1-2.3C66.3,19.4,66.2,19.3,65.4,19.4z"/>
			<path class="st6" d="M65,54.5c0.1-1.4,0.1-2.9,0.2-4.3c0-0.6,0.4-0.4,0.7-0.5c0.3,0,0.8-0.1,0.8,0.5c0.1,1.3,0.1,2.7,0.1,4
				c0,0.2-0.3,0.5-0.5,0.5C65.9,54.7,65.5,54.6,65,54.5z M65.5,50.3c0,1.2,0,2.4,0,3.6c0.3,0.1,0.5,0.1,0.9,0.2
				c0-1.1-0.1-2.1-0.1-3.1C66.2,50.3,66,50.1,65.5,50.3z"/>
			<path class="st6" d="M69.6,33.8c0,0.6,0,1.1,0,1.7c0,0.5-0.2,0.6-0.5,0.6c-1,0-1.2-0.3-1.2-1.6c0-0.8,0-1.7,0-2.5
				c0-0.7,0.3-0.8,0.7-0.9c0.4,0,0.9,0,0.9,0.8C69.6,32.6,69.6,33.2,69.6,33.8C69.6,33.8,69.6,33.8,69.6,33.8z M69.1,35.3
				c0-0.9,0-1.8,0-2.8c0-0.8-0.2-1-0.8-0.9c0,1,0,2,0,3C68.4,35.3,68.6,35.4,69.1,35.3z"/>
			<path class="st6" d="M68,24c0-0.1-0.1-0.3-0.1-0.4c0-1.1,0-2.2,0.1-3.3c0-0.4,0.1-0.9,0.5-0.8c0.4,0.1,1.1,0,1.2,0.8
				c0.1,1.2,0.1,2.5,0.1,3.7c0,0.4-0.1,0.6-0.5,0.4c-0.4-0.2-0.8-0.4-1.1-0.6C68,23.9,68,23.9,68,24z M69.3,23.5c0-0.8,0-1.6,0-2.3
				c0-1-0.2-1.2-1-1.2c0,1,0,2,0,3c0,0.1,0.2,0.3,0.3,0.4C68.8,23.5,69,23.4,69.3,23.5z"/>
			<path class="st6" d="M62.2,39.2c0-0.6,0-1.2,0-1.8c0-0.7,0.3-0.8,0.7-0.7c0.4,0,0.8,0,0.8,0.7c0,1.1,0.1,2.1,0.1,3.2
				c0,1-0.7,1.6-1.4,1.1c-0.1-0.1-0.2-0.4-0.2-0.6C62.1,40.4,62.1,39.8,62.2,39.2C62.2,39.2,62.2,39.2,62.2,39.2z M62.6,37.2
				c0,1.3,0,2.6,0,3.8c0.6,0.2,0.8,0,0.7-0.7c0-0.7,0-1.4,0-2.1C63.4,37.3,63.2,37.1,62.6,37.2z"/>
			<path class="st6" d="M62.2,17.9C62.2,17.9,62.2,17.9,62.2,17.9c1.7,0.2,1.7,0.2,1.7,2.4c0,0.7,0.1,1.5,0.1,2.2
				c0,0.2-0.2,0.3-0.3,0.5c0,0-0.1,0-0.2-0.1c-1.3-0.5-1.3-0.5-1.3-2.4c0-0.8,0-1.7,0-2.5C62.1,18,62.2,17.9,62.2,17.9z M63.5,22
				c0-0.8,0-1.6,0-2.3c0-1.2-0.1-1.3-1-1.3c0,0.9,0,1.7,0,2.6C62.5,22,62.5,22.1,63.5,22z"/>
			<path class="st6" d="M68.1,52.4c0-0.6,0-1.2,0-1.8c0-0.9,0.5-0.8,1-0.8c0.4,0,0.7,0.2,0.6,0.9c-0.1,1,0,2-0.1,3.1
				c0,0.2-0.2,0.6-0.3,0.7c-0.4,0.1-0.8,0.1-1.2,0.1c0,0-0.1-0.4-0.1-0.5C68,53.5,68,53,68.1,52.4C68.1,52.4,68.1,52.4,68.1,52.4z
				 M68.5,50.4c0,1.2,0,2.4,0,3.6c0.6,0.1,0.8-0.3,0.8-0.9c0-0.6,0-1.2,0-1.9C69.2,50.2,69.2,50.2,68.5,50.4z"/>
			<path class="st6" d="M68.2,46.1c0-0.5,0-1.1,0-1.6c0-0.4,0-0.8,0.4-0.7c0.4,0,1-0.2,1,0.6c0.1,1.2,0.1,2.5,0,3.7
				c0,0.7-0.6,0.5-0.9,0.5c-0.3,0-0.6-0.1-0.6-0.7C68.2,47.2,68.1,46.7,68.2,46.1C68.2,46.1,68.2,46.1,68.2,46.1z M68.6,44.2
				c0,1.1,0,2.2,0,3.2c0,0.2,0.2,0.3,0.3,0.5c0.1-0.2,0.3-0.3,0.3-0.5c0-0.8,0-1.6,0-2.5C69.3,44.3,69.1,44,68.6,44.2z"/>
			<path class="st6" d="M62.1,23.8c1-0.3,1.5,0.1,1.5,1.4c0,1,0,2,0.1,3c0,0.1,0,0.3-0.1,0.3c-0.5,0-0.9,0-1.3-0.1
				c-0.1,0-0.2-0.4-0.2-0.6c0-0.8,0.1-1.6,0.1-2.5C62.2,24.8,62.2,24.3,62.1,23.8z M63.3,27.8c0-0.9,0-1.8,0-2.6
				c0-0.7-0.2-0.9-0.7-0.8c0,0.9-0.1,1.8-0.1,2.7c0,0.2,0,0.3,0,0.6C62.8,27.7,63,27.7,63.3,27.8z"/>
			<path class="st6" d="M65,24.6c0.5,0.1,0.9,0.2,1.3,0.3c0.1,0,0.2,0.3,0.2,0.5c0,1.1,0.1,2.2,0.1,3.3c0,0.5,0,1-0.6,0.6
				c-0.1,0-0.1-0.1-0.2-0.1c-1-0.2-1-0.2-0.9-1.5C65,26.7,65,25.7,65,24.6z M66.2,28.7c0-0.7,0-1.4,0-2.1c0-1.1,0-1.1-0.9-1.3
				c0,0.8,0,1.6,0,2.4C65.3,28.7,65.3,28.7,66.2,28.7z"/>
			<path class="st6" d="M69.4,29.9c-0.4,0-0.8-0.1-1.3-0.1c0-0.1-0.1-0.3-0.1-0.6c0-1.1,0.1-2.1,0-3.2c0-0.5,0.2-0.6,0.5-0.6
				c0.6,0,0.9,0.3,0.9,1.2c0,1,0,2,0.1,3.1C69.5,29.8,69.4,29.8,69.4,29.9z M69.1,29.2c0-0.8,0-1.7,0-2.5c0-0.7-0.3-0.9-0.8-0.8
				c0,0.4,0.1,0.8,0.1,1.2c0,0.4,0,0.9,0,1.3C68.4,29.1,68.5,29.4,69.1,29.2z"/>
			<path class="st6" d="M58.6,49c0,0.7,0,1.4,0,2.2c0,0.6-0.2,1-0.7,1c-1.2,0.1-2.5,0.2-3.7,0.2c-0.1,0-0.4-0.4-0.4-0.6
				c0.1-2.3,0.2-4.7,0.4-7c0-0.2,0.3-0.5,0.4-0.5c1.1-0.1,2.2-0.2,3.3-0.2c0.4,0,0.5,0.4,0.5,0.9C58.4,46.3,58.5,47.7,58.6,49
				C58.5,49,58.5,49,58.6,49z M56.2,51.4c0.2,0,0.3,0.1,0.4,0.1c1.4,0.1,1.4,0.1,1.3-1.7c-0.1-1.9,0.2-1.5-1.3-1.5
				c-0.1,0-0.4,0.3-0.4,0.5C56.2,49.7,56.2,50.5,56.2,51.4z M56.3,44.8c0,1,0,1.9,0,3c0.6-0.1,1.1-0.2,1.6-0.3
				c0-0.8-0.1-1.6-0.1-2.3c0-0.2-0.2-0.4-0.3-0.4C57.1,44.8,56.7,44.8,56.3,44.8z M54.3,51.6c0.5,0,0.9-0.1,1.3-0.1
				c0-1.1,0.1-2,0.1-3c-0.4,0-0.8,0-1.3,0C54.4,49.5,54.4,50.5,54.3,51.6z M54.5,46.3C54.5,46.3,54.5,46.3,54.5,46.3
				c0,0.4,0,0.8,0,1.2c0,0.2,0.1,0.4,0.2,0.4c0.7,0.3,1.1,0,1.1-1c0-0.4,0-0.9,0-1.3c0-0.6-0.1-0.8-0.6-0.8c-0.5,0-0.8,0.1-0.7,0.9
				C54.5,45.9,54.5,46.1,54.5,46.3z"/>
			<path class="st6" d="M53.7,19.5c0.6,0.1,1.1,0.1,1.6,0.2c0.1,0,0.4,0.4,0.4,0.6c0,1.1-0.1,2.2-0.2,3.3c0,0.5-0.2,0.8-0.6,0.7
				c-0.4-0.1-0.9,0-1.2-0.3c-0.2-0.2,0-0.9,0-1.4C53.7,21.6,53.7,20.6,53.7,19.5z M54.1,20.2c0,0.8,0,1.5,0,2.3c0,1.1,0.1,1.1,1,1
				c0-0.7,0.1-1.4,0.1-2.1C55.2,20.2,55.1,20,54.1,20.2z"/>
			<path class="st6" d="M47.1,27.8c0-0.8,0-1.5,0.1-2.1c0-0.2,0.2-0.5,0.3-0.5c0.4,0,0.9,0.1,1.3,0.1c0.1,0,0.2,0.2,0.2,0.4
				c0,1.3-0.1,2.7,0,4c0,0.7-0.2,0.7-0.6,0.6c-0.2-0.1-0.5-0.2-0.7-0.2c-0.7,0.2-0.7-0.3-0.6-1C47.1,28.6,47.1,28.2,47.1,27.8z
				 M48.6,29.4c0-0.8,0-1.5,0-2.2c0-1.4,0.2-1.3-1.1-1.5c0,0,0,0-0.1,0c0,0-0.1,0.1-0.1,0.1c0,0.8,0,1.6,0,2.5c0,1.2,0,1.2,0.9,1.2
				C48.5,29.5,48.5,29.5,48.6,29.4z"/>
			<path class="st6" d="M49,14.7c0,0.6,0,1.1,0,1.7c0,0.4-0.1,0.6-0.5,0.5c-0.3-0.1-0.7,0-0.9-0.2c-0.2-0.2-0.5-0.6-0.5-0.9
				c-0.1-1,0-2.1,0-3.2c0-0.5,0.2-0.8,0.6-0.8c1.1,0,1.2,0.2,1.2,1.6C49,13.9,49,14.3,49,14.7C49,14.7,49,14.7,49,14.7z M48.6,16.3
				c0-1,0-1.9,0-2.8c0-1.2-0.1-1.3-1.1-1.2c0,1.3,0,2.6,0,3.8C47.9,16.2,48.2,16.3,48.6,16.3z"/>
			<path class="st6" d="M50.5,30.4c0-0.1-0.1-0.3-0.1-0.5c0-1.3,0.1-2.6,0.1-3.9c0-0.5,0.1-0.7,0.5-0.7c1.1,0.1,1.1,0.1,1.1,1.6
				c0,1,0,2-0.1,2.9c0,0.5-0.1,0.8-0.6,0.6C51.2,30.2,50.9,30.4,50.5,30.4z M50.8,25.8c0,1.2,0,2.4,0,3.7c0.3,0,0.6,0,0.9-0.1
				c0-0.9,0-1.7,0-2.4C51.7,25.9,51.7,25.9,50.8,25.8z"/>
			<path class="st6" d="M53.7,30.3c0,0-0.1-0.2-0.1-0.3c0-1.2,0-2.4,0-3.5c0-0.8,0.3-1.1,0.8-1c0.3,0,0.5,0,0.7,0.2
				c0.2,0.1,0.3,0.4,0.3,0.7c0,1.2,0,2.5,0,3.7c0,0.5-0.1,0.7-0.5,0.5C54.5,30.3,54.1,30.3,53.7,30.3z M54,29.7c1,0.1,1,0.1,1-1
				c0-0.5,0-1,0-1.5c0-1.2-0.1-1.3-1-1.1C54,27.2,54,28.4,54,29.7z"/>
			<path class="st6" d="M47.3,22.9c0-1.4,0-2.8,0-4.3c0.4,0,0.9,0.1,1.3,0.2c0.1,0,0.2,0.3,0.2,0.4c0,0.9,0,1.8,0.1,2.8
				c0,0.2,0,0.3,0,0.5c0,0.2,0.1,0.5,0.1,0.7c-0.2,0-0.5,0-0.7,0C48,23.1,47.8,23,47.3,22.9z M48.5,22.3c0-0.7,0-1.5,0-2.2
				c0-1,0-1.1-0.8-0.9c0,0.7,0,1.4,0,2.1C47.6,22.1,47.9,22.4,48.5,22.3z"/>
			<path class="st6" d="M50.5,19c0.2-0.1,0.2-0.1,0.2-0.1c1.6,0.2,1.6,0.2,1.5,2.3c0,0.6-0.1,1.2-0.1,1.8c0,0.6-0.2,0.7-0.6,0.6
				c-0.2-0.1-0.5-0.1-0.7-0.2c-0.1-0.1-0.3-0.2-0.3-0.4C50.5,21.7,50.5,20.3,50.5,19z M51.8,23c0-0.8,0-1.5,0-2.3c0-1,0-1.1-0.9-1.2
				c0,0.8,0,1.5,0,2.3C50.8,22.5,51,22.9,51.8,23z"/>
			<path class="st6" d="M52.1,17.6c-0.4-0.1-0.7-0.1-1-0.2c-0.4,0-0.6-0.2-0.6-0.7c0-1.3,0-2.6,0-4.1c0.5,0.1,1,0.2,1.4,0.4
				c0.1,0,0.3,0.3,0.3,0.5c0,1.2,0.1,2.4,0.1,3.6C52.2,17.3,52.1,17.5,52.1,17.6z M50.8,16.8c0.4-0.1,0.6-0.1,1-0.2c0-1,0-1.9,0-2.8
				c0-0.1-0.1-0.4-0.2-0.4c-0.3-0.1-0.6-0.2-0.9-0.3C50.8,14.4,50.8,15.6,50.8,16.8z"/>
			<path class="st6" d="M53.8,13.7c0.5,0.1,0.9,0.1,1.2,0.3c0.1,0,0.3,0.3,0.3,0.5c0,1.1,0.1,2.3,0,3.4c0,0.1-0.3,0.3-0.4,0.4
				c-0.1,0-0.2-0.2-0.4-0.2c-1-0.3-1-0.3-1-1.7C53.7,15.5,53.8,14.7,53.8,13.7z M54,17.4c1,0.2,1,0.2,1-1c0-0.3,0-0.6,0-0.8
				c0-1.2,0-1.2-1-1.3C54,15.3,54,16.3,54,17.4z"/>
			<path class="st32" d="M30.9,46.1c0-1.3,0-2.5,0-3.7c0.7,0,1.5,0,2.2,0c0.1,0,0.2,0.3,0.2,0.5c0,0.8,0,1.5,0.1,2.3
				c0,0.4-0.1,0.6-0.4,0.6C32.3,45.9,31.7,46,30.9,46.1z"/>
			<path class="st32" d="M28,50.5c0.1-1.2,0.1-2.3,0.2-3.4c0-0.4,0.1-0.6,0.5-0.6c0.4,0.1,0.9,0.1,1.3,0.1c0.3,0,0.5,0.2,0.5,0.6
				c0,0.9,0,1.7,0,2.6c0,0.2-0.2,0.5-0.3,0.5C29.4,50.5,28.8,50.5,28,50.5z"/>
			<path class="st32" d="M30.9,50.4c0-1.2,0-2.2,0-3.3c0-0.1,0.2-0.4,0.3-0.4c0.7-0.1,1.4-0.1,2.2-0.2c0,1.1-0.1,2.2-0.1,3.3
				c0,0.1-0.2,0.3-0.3,0.4C32.2,50.3,31.6,50.3,30.9,50.4z"/>
			<path class="st32" d="M30.4,42.3c0,1.3,0,2.5,0,3.7c-0.7,0-1.3,0-1.9,0c-0.1,0-0.2-0.3-0.2-0.5c0-0.8,0-1.6,0-2.5
				c0-0.2,0.2-0.5,0.3-0.5C29.2,42.4,29.8,42.3,30.4,42.3z"/>
			<path class="st32" d="M42.2,46.2c0,1.3,0,2.6,0,4.1c-0.7,0-1.4,0-2.1,0c-0.1,0-0.3-0.3-0.3-0.5c0-1,0-2,0.1-3
				c0-0.2,0.3-0.5,0.4-0.5C41,46.2,41.6,46.2,42.2,46.2z"/>
			<path class="st32" d="M37.6,46.3c0.6,0,1.2,0,1.8,0c0,1.4,0,2.7,0,4c-0.7,0-1.3,0-2,0C37.5,49,37.5,47.7,37.6,46.3z"/>
			<path class="st32" d="M42.3,45.4c-0.8,0-1.5,0-2.3,0c0-1,0-2,0-3.1c0.7,0,1.5,0,2.3,0C42.3,43.3,42.3,44.3,42.3,45.4z"/>
			<path class="st32" d="M39.5,45.5c-0.6,0-1.2,0-1.8,0c0-1.1,0-2.2,0-3.4c0.6,0.1,1.2,0.1,1.9,0.2C39.6,43.4,39.5,44.4,39.5,45.5z"
				/>
			<path class="st38" d="M62.5,30.6c0.8-0.1,0.9,0,0.9,0.9c0,0.6,0,1.2,0,1.8c0,1,0,1-0.9,0.9C62.5,33.1,62.5,31.9,62.5,30.6z"/>
			<path class="st38" d="M66.3,47.9c-0.4,0-0.7,0-1,0c0-1.3,0-2.5,0-3.7c0.9-0.2,1-0.1,1,1C66.3,46,66.3,46.9,66.3,47.9z"/>
			<path class="st38" d="M65.3,31.2c0.9,0.1,0.9,0.1,0.9,1.2c0,0.6,0,1.2-0.1,1.8c0,0.2-0.3,0.4-0.4,0.4c-0.1,0-0.4-0.3-0.4-0.4
				C65.3,33.2,65.3,32.2,65.3,31.2z"/>
			<path class="st38" d="M68.4,37.7c0.5-0.2,0.7,0,0.7,0.6c0,0.8,0.1,1.6,0.1,2.4c0,0.2-0.2,0.3-0.3,0.5c-0.1-0.2-0.3-0.3-0.3-0.5
				C68.4,39.8,68.4,38.8,68.4,37.7z"/>
			<path class="st38" d="M66.2,41.2c-0.4,0.1-0.7,0-0.7-0.7c0-0.9,0-1.9,0-2.8c0-0.1,0-0.1,0-0.3c0.2,0,0.4,0,0.6,0.1
				C66.2,38.7,66.2,39.9,66.2,41.2z"/>
			<path class="st38" d="M65.4,19.4c0.8,0,0.9,0.1,1,1c0.1,0.8,0.1,1.6,0.1,2.3c-0.9,0.1-1,0-1-1C65.5,20.9,65.4,20.1,65.4,19.4z"/>
			<path class="st38" d="M65.5,50.3c0.5-0.2,0.7,0,0.7,0.7c0,1,0.1,2,0.1,3.1c-0.4-0.1-0.6-0.2-0.9-0.2
				C65.5,52.6,65.5,51.5,65.5,50.3z"/>
			<path class="st38" d="M69.1,35.3c-0.5,0.1-0.8,0-0.8-0.7c0-1,0-2,0-3c0.6-0.1,0.8,0.1,0.8,0.9C69.1,33.5,69.1,34.4,69.1,35.3z"/>
			<path class="st38" d="M69.3,23.5c-0.3,0-0.5,0-0.7-0.1c-0.1,0-0.3-0.2-0.3-0.4c0-1,0-2,0-3c0.8-0.1,1,0.2,1,1.2
				C69.3,21.9,69.3,22.7,69.3,23.5z"/>
			<path class="st38" d="M62.6,37.2c0.6-0.2,0.8,0.1,0.8,0.9c-0.1,0.7,0,1.4,0,2.1c0,0.7-0.2,1-0.7,0.7
				C62.6,39.8,62.6,38.5,62.6,37.2z"/>
			<path class="st38" d="M63.5,22c-1,0-1,0-1-1.1c0-0.9,0-1.7,0-2.6c0.9,0,1,0.1,1,1.3C63.5,20.5,63.5,21.2,63.5,22z"/>
			<path class="st38" d="M68.5,50.4c0.8-0.1,0.8-0.1,0.8,0.8c0,0.6,0,1.2,0,1.9c0,0.6-0.2,1-0.8,0.9C68.5,52.8,68.5,51.6,68.5,50.4z
				"/>
			<path class="st38" d="M68.6,44.2c0.5-0.2,0.7,0.1,0.7,0.7c0,0.8,0,1.6,0,2.5c0,0.2-0.2,0.3-0.3,0.5c-0.1-0.2-0.3-0.3-0.3-0.5
				C68.5,46.4,68.6,45.3,68.6,44.2z"/>
			<path class="st38" d="M63.3,27.8c-0.3-0.1-0.5-0.1-0.8-0.2c0-0.2,0-0.4,0-0.6c0-0.9,0.1-1.8,0.1-2.7c0.5-0.1,0.7,0.1,0.7,0.8
				C63.3,26,63.3,26.9,63.3,27.8z"/>
			<path class="st38" d="M66.2,28.7c-0.9,0-0.9,0-0.9-1c0-0.8,0-1.6,0-2.4c0.9,0.2,0.9,0.2,0.9,1.3C66.2,27.2,66.2,27.9,66.2,28.7z"
				/>
			<path class="st38" d="M69.1,29.2c-0.6,0.2-0.8-0.1-0.7-0.7c0-0.4,0-0.9,0-1.3c0-0.4-0.1-0.8-0.1-1.2c0.5-0.1,0.8,0.1,0.8,0.8
				C69.1,27.6,69.1,28.4,69.1,29.2z"/>
			<path class="st32" d="M56.2,51.4c0-0.9,0-1.8,0-2.6c0-0.2,0.3-0.5,0.4-0.5c1.4,0,1.2-0.4,1.3,1.5c0.1,1.8,0.1,1.8-1.3,1.7
				C56.5,51.5,56.4,51.5,56.2,51.4z"/>
			<path class="st32" d="M56.3,44.8c0.4,0,0.8,0,1.2,0c0.1,0,0.3,0.3,0.3,0.4c0.1,0.7,0.1,1.5,0.1,2.3c-0.5,0.1-1,0.2-1.6,0.3
				C56.3,46.8,56.3,45.8,56.3,44.8z"/>
			<path class="st32" d="M54.3,51.6c0-1.1,0.1-2.1,0.1-3.2c0.4,0,0.8,0,1.3,0c0,1-0.1,2-0.1,3C55.2,51.5,54.8,51.6,54.3,51.6z"/>
			<path class="st32" d="M54.5,46.3c0-0.2,0-0.4,0-0.6c-0.1-0.8,0.2-0.9,0.7-0.9c0.5,0,0.6,0.2,0.6,0.8c0,0.4,0,0.9,0,1.3
				c0,1-0.4,1.4-1.1,1c-0.1,0-0.2-0.3-0.2-0.4C54.5,47.1,54.5,46.7,54.5,46.3C54.5,46.3,54.5,46.3,54.5,46.3z"/>
			<path class="st38" d="M54.1,20.2c1-0.2,1.1,0,1.1,1.2c0,0.7-0.1,1.4-0.1,2.1c-0.9,0.2-1,0.1-1-1C54.1,21.7,54.1,21,54.1,20.2z"/>
			<path class="st38" d="M48.6,29.4c-0.1,0-0.2,0.1-0.2,0.1c-0.9,0-0.9,0-0.9-1.2c0-0.8,0-1.6,0-2.5c0,0,0-0.1,0.1-0.1
				c0,0,0,0,0.1,0c1.3,0.2,1,0.1,1.1,1.5C48.6,27.9,48.6,28.7,48.6,29.4z"/>
			<path class="st38" d="M48.6,16.3c-0.4-0.1-0.7-0.1-1.1-0.1c0-1.3,0-2.6,0-3.8c1-0.1,1.1,0,1.1,1.2C48.6,14.5,48.6,15.4,48.6,16.3
				z"/>
			<path class="st38" d="M50.8,25.8c0.9,0.1,0.9,0.1,0.9,1.2c0,0.8,0,1.6,0,2.4c-0.3,0-0.6,0-0.9,0.1C50.8,28.3,50.8,27.1,50.8,25.8
				z"/>
			<path class="st38" d="M54,29.7c0-1.2,0-2.5,0-3.7c0.9-0.2,1-0.1,1,1.1c0,0.5,0,1,0,1.5C55,29.8,55,29.8,54,29.7z"/>
			<path class="st38" d="M48.5,22.3c-0.7,0-0.9-0.3-0.8-1c0-0.7,0-1.4,0-2.1c0.8-0.2,0.9-0.1,0.8,0.9C48.5,20.9,48.5,21.6,48.5,22.3
				z"/>
			<path class="st38" d="M51.8,23c-0.8-0.1-1-0.4-0.9-1.2c0-0.8,0-1.5,0-2.3c0.9,0,0.9,0.1,0.9,1.2C51.8,21.4,51.8,22.2,51.8,23z"/>
			<path class="st38" d="M50.8,16.8c0-1.3-0.1-2.4-0.1-3.6c0.3,0.1,0.6,0.1,0.9,0.3c0.1,0.1,0.2,0.3,0.2,0.4c0,0.9,0,1.8,0,2.8
				C51.5,16.7,51.2,16.8,50.8,16.8z"/>
			<path class="st38" d="M54,17.4c0-1.1,0-2.1,0-3.1c1,0.1,1,0.1,1,1.3c0,0.3,0,0.6,0,0.8C55,17.6,55,17.6,54,17.4z"/>
		</g>
	</g>
</g>
<g id="Calque_3">
</g>
</svg>
