<?xml version="1.0" encoding="utf-8"?>
<!-- Generator: Adobe Illustrator 23.0.1, SVG Export Plug-In . SVG Version: 6.00 Build 0)  -->
<svg version="1.1" xmlns="http://www.w3.org/2000/svg" x="0px" y="0px"
     viewBox="0 0 72 72" style="enable-background:new 0 0 72 72;" xml:space="preserve">
<style type="text/css">
	.st0{opacity:0.4;fill:url(#SVGID_1_);}
	.st1{opacity:0.6;fill:url(#SVGID_2_);}
	.st2{opacity:0.6;fill:url(#SVGID_3_);}
	.st3{opacity:0.6;fill:url(#SVGID_4_);}
	.st4{opacity:0.6;fill:url(#SVGID_5_);}
	.st5{opacity:0.6;fill:url(#SVGID_6_);}
	.st6{fill:#1F2B50;}
	.st7{fill:none;stroke:#1F2B50;stroke-width:3;stroke-miterlimit:10;}
	.st8{opacity:0.4;fill:url(#SVGID_7_);}
	.st9{opacity:0.4;fill:url(#SVGID_8_);}
	.st10{opacity:0.6;fill:url(#SVGID_9_);}
	.st11{opacity:0.6;fill:url(#SVGID_10_);}
	.st12{opacity:0.4;fill:url(#SVGID_11_);}
	.st13{opacity:0.4;fill:url(#SVGID_12_);}
	.st14{opacity:0.4;fill:url(#SVGID_13_);}
	.st15{opacity:0.4;fill:url(#SVGID_14_);}
	.st16{opacity:0.4;fill:url(#SVGID_15_);}
	.st17{opacity:0.4;fill:url(#SVGID_16_);}
	.st18{opacity:0.4;fill:url(#SVGID_17_);}
	.st19{fill:url(#SVGID_18_);}
	.st20{fill:url(#SVGID_19_);}
	.st21{fill:url(#SVGID_20_);}
	.st22{opacity:0.6;fill:url(#SVGID_21_);}
	.st23{opacity:0.6;fill:url(#SVGID_22_);}
	.st24{opacity:0.6;fill:url(#SVGID_23_);}
	.st25{opacity:0.6;fill:url(#SVGID_24_);}
	.st26{opacity:0.6;fill:url(#SVGID_25_);}
	.st27{opacity:0.6;fill:url(#SVGID_26_);}
	.st28{opacity:0.6;fill:url(#SVGID_27_);}
	.st29{opacity:0.6;fill:url(#SVGID_28_);}
	.st30{fill:url(#SVGID_29_);}
	.st31{fill:url(#SVGID_30_);}
	.st32{fill:#EA9001;}
	.st33{fill:#407EA7;}
	.st34{opacity:0.5;fill:#FFFFFF;}
	.st35{fill:none;stroke:#EA9001;stroke-width:2;stroke-miterlimit:10;}
	.st36{fill:#BECBCC;}
	.st37{fill:#FFFFFF;}
	.st38{fill:#979B9B;}
	.st39{fill:none;stroke:#407EA7;stroke-width:3;stroke-miterlimit:10;}
	.st40{fill:none;stroke:#407EA7;stroke-width:3.0377;stroke-miterlimit:10;}
	.st41{fill:none;stroke:#407EA7;stroke-width:2.8985;stroke-miterlimit:10;}
	.st42{fill:none;stroke:#407EA7;stroke-width:2.933;stroke-miterlimit:10;}
	.st43{fill:none;stroke:#EA9001;stroke-width:1.8227;stroke-miterlimit:10;}
	.st44{fill:#AAB2B2;}
	.st45{fill:none;stroke:#407EA7;stroke-width:3.0142;stroke-miterlimit:10;}
	.st46{fill:none;stroke:#407EA7;stroke-width:3.0512;stroke-miterlimit:10;}
	.st47{fill:#D3DDDD;}
	.st48{fill:none;stroke:#1F2B50;stroke-miterlimit:10;}
	.st49{fill:#BECBCC;stroke:#1F2B50;stroke-width:0.75;stroke-miterlimit:10;}
	.st50{fill:url(#SVGID_31_);}
	.st51{fill:none;stroke:#407EA7;stroke-width:2.8066;stroke-linecap:round;stroke-miterlimit:10;}
	.st52{fill:none;stroke:#407EA7;stroke-width:2.7511;stroke-linecap:round;stroke-miterlimit:10;}
	.st53{fill:url(#SVGID_32_);}
	.st54{fill:none;stroke:#EA9001;stroke-width:0.8;stroke-miterlimit:10;}
	.st55{fill:none;stroke:#407EA7;stroke-width:1.2;stroke-miterlimit:10;}
	.st56{fill:none;stroke:#407EA7;stroke-width:1.2151;stroke-miterlimit:10;}
	.st57{fill:none;stroke:#407EA7;stroke-width:1.1594;stroke-miterlimit:10;}
	.st58{fill:none;stroke:#407EA7;stroke-width:1.1732;stroke-miterlimit:10;}
	.st59{fill:url(#SVGID_33_);}
	.st60{fill:none;stroke:#1F2B50;stroke-width:0.4;stroke-miterlimit:10;}
	.st61{fill:#BECBCC;stroke:#1F2B50;stroke-width:0.3;stroke-miterlimit:10;}
	.st62{fill:none;stroke:#407EA7;stroke-width:1.1226;stroke-linecap:round;stroke-miterlimit:10;}
	.st63{fill:none;stroke:#407EA7;stroke-width:1.1004;stroke-linecap:round;stroke-miterlimit:10;}
	.st64{fill:url(#SVGID_34_);}
	.st65{fill:url(#SVGID_35_);}
</style>
<g id="Calque_2">
</g>
<g id="Calque_1">
	<g>
		<path class="st6" d="M33.2,36.2c1.5-2.6,3.8-6.4,6-10.2c0.6-1.1,0.7-2.3,0.4-3.5c-0.6-1.7-1-3.5-0.7-5.3c0.3-2.4,1.4-4.6,2.8-6.6
			c2.2-3,4.9-5.4,8.2-7.1c1.1-0.6,2.4-1.1,3.6-1.4C55,1.6,57,2.3,57.9,4.3c0.9,2,0.6,4,0.2,6c-0.8,3.9-2.4,7.5-4.4,10.9
			c-1.7,2.8-4.1,4.4-7.2,5c-0.8,0.2-1.6,0.3-2.3,0.7c-1.1,0.5-1.8,1.4-2.4,2.4c-2.8,4.6-5.5,9.2-8.2,13.8c-0.4,0.7-0.8,1.3-1.2,2
			c-1.4,2.5-2.8,5-4.1,7.6c-1.9,3.7-3.6,7.5-5.5,11.2c-0.9,1.8-2.2,3.5-3.7,4.9c-0.9,0.9-2.4,1.1-3.4,0.6c-1.3-0.7-2-1.9-1.7-3.3
			c0.2-1,0.5-2,1-2.8c1.3-2.6,2.9-4.9,4.6-7.2c2.6-3.6,5.2-7.2,7.7-10.8C29,42.6,30.7,40,33.2,36.2z M16.7,60.5
			C16.7,60.5,16.8,60.5,16.7,60.5c-0.1,0.4-0.3,0.6-0.4,0.9c-0.8,1.4-1.7,2.8-1.9,4.5c-0.2,1.3,0.3,2.4,1.5,3c0.9,0.5,2.2,0.3,3-0.6
			c1.2-1.4,2.4-2.8,3.3-4.4c1.3-2.1,2.3-4.4,3.4-6.6c1.5-3,2.9-5.9,4.5-8.8c2-3.5,4.1-7,6.1-10.5c1.4-2.4,2.8-4.8,4.2-7.1
			c0.5-0.8,1-1.6,1.5-2.4c1-1.5,2.5-2.3,4.3-2.6c2.7-0.4,5-1.7,6.6-4c1.5-2.1,2.6-4.4,3.5-6.9c0.6-1.6,1-3.2,1.4-4.8
			c0.4-1.5,0.7-3,0.2-4.6c-0.3-1-0.6-2-1.5-2.7c-1-0.8-2.2-0.9-3.5-0.5c-4.6,1.5-8.1,4.4-11.1,8.1c-1.2,1.5-2,3.2-2.5,5
			c-0.7,2.3-0.4,4.6,0.4,6.9c0.5,1.3,0.3,2.6-0.4,3.8c-1.2,2.1-2.4,4.3-3.7,6.4c-2.5,4-5,7.9-7.6,11.8c-2.6,3.8-5.2,7.6-7.9,11.4
			C19.1,57.4,17.9,58.9,16.7,60.5z"/>
		<path class="st32" d="M16.7,60.5c1.2-1.6,2.4-3.1,3.5-4.7c2.7-3.8,5.3-7.6,7.9-11.4c2.6-3.9,5.1-7.8,7.6-11.8
			c1.3-2.1,2.5-4.3,3.7-6.4c0.7-1.2,0.8-2.5,0.4-3.8c-0.8-2.2-1.1-4.5-0.4-6.9c0.6-1.8,1.4-3.5,2.5-5c2.9-3.7,6.5-6.6,11.1-8.1
			c1.2-0.4,2.4-0.2,3.5,0.5c0.9,0.7,1.2,1.7,1.5,2.7c0.5,1.6,0.1,3.1-0.2,4.6c-0.4,1.6-0.8,3.3-1.4,4.8c-0.9,2.4-2,4.7-3.5,6.9
			c-1.6,2.3-3.9,3.6-6.6,4c-1.8,0.3-3.2,1.1-4.3,2.6c-0.5,0.8-1.1,1.6-1.5,2.4c-1.4,2.4-2.8,4.7-4.2,7.1c-2.1,3.5-4.2,7-6.1,10.5
			c-1.6,2.9-3,5.9-4.5,8.8c-1.1,2.2-2.1,4.5-3.4,6.6c-0.9,1.6-2.1,3-3.3,4.4c-0.7,0.9-2.1,1.1-3,0.6c-1.2-0.6-1.7-1.8-1.5-3
			c0.3-1.7,1.1-3.1,1.9-4.5C16.4,61.1,16.6,60.8,16.7,60.5C16.8,60.5,16.7,60.5,16.7,60.5z"/>
	</g>
	<g>
		<path class="st6" d="M16.9,2c2.9,4.1,5.8,8.3,8.7,12.4c0.1,0,0.1-0.1,0.2-0.1c-0.1-0.2-0.1-0.4-0.2-0.6c-0.4-0.9-0.9-1.8-1.3-2.6
			c-1.6-3-3.2-6-4.7-9c-0.1-0.3-0.4-0.6,0-1c0.3,0.4,0.6,0.7,0.9,1c2.9,4.2,5.8,8.4,8.7,12.6c1.5,2.1,2.3,4.5,2.6,7
			c0.3,2.9,1.4,5.5,3.1,7.9c2.9,4.1,5.9,8.1,8.8,12.2c1.5,2.1,3,4.3,4.5,6.5c2.2,3.3,4.5,6.6,6.7,9.9c1.1,1.7,2.4,3.3,3.5,5
			c0.6,0.9,1.1,1.8,1.5,2.8c0.8,2.1-0.5,4.2-2.8,4.4c-0.4,0-1,0-1.3-0.3c-0.8-0.7-1.4-1.5-2-2.3c-1.8-2.4-3.1-5.1-4.6-7.7
			c-2.6-4.5-5.3-9-7.9-13.5c-3.3-5.5-6.5-11-9.8-16.5c-1-1.7-2.6-2.9-4.3-3.9c-1.4-0.8-2.8-1.7-4.2-2.6c-1.5-1-2.5-2.4-3.4-4
			c-1.3-2.5-2.7-4.9-3.9-7.4c-1.1-2.1-2-4.3-3-6.5c-0.1-0.1-0.1-0.3-0.1-0.5c0,0,0.1-0.1,0.1-0.1c0.2,0.1,0.3,0.3,0.5,0.4
			c0.7,1,1.3,1.9,2,2.9c1.6,2.5,3.2,5,4.8,7.4c0.4,0.6,0.9,1.1,1.4,1.7c0.1,0,0.2-0.1,0.2-0.1c-0.1-0.4-0.2-0.8-0.4-1.1
			c-1.3-2.3-2.7-4.6-4-6.9C16,7.8,15.3,6,14.4,4.3c-0.1-0.2-0.1-0.4-0.1-0.6c0.1,0,0.1-0.1,0.2-0.1c0.2,0.1,0.3,0.3,0.5,0.5
			C16,5.7,17.1,7.4,18.3,9c1.7,2.5,3.4,4.9,5.1,7.4c0.1,0.2,0.3,0.4,0.5,0.6c0,0,0.1-0.1,0.1-0.1c-0.4-0.9-0.8-1.9-1.3-2.8
			c-1.5-2.8-3.2-5.6-4.7-8.4c-0.5-1-0.9-2.1-1.3-3.2c0-0.1,0-0.3,0-0.4C16.8,2.1,16.8,2.1,16.9,2z M13.1,6.2c0,0-0.1,0-0.1,0.1
			c0.1,0.2,0.2,0.4,0.3,0.6c0.5,1,1,2,1.5,3c1.5,3,3.1,6,4.6,9.1c0.8,1.5,1.7,3,3.2,4c1.3,1,2.7,1.9,4.1,2.7
			c2.5,1.4,4.5,3.2,5.9,5.7c3,5.2,6.1,10.3,9.1,15.5c2.1,3.6,4.2,7.2,6.3,10.7c1.5,2.5,2.8,5,4.4,7.5c0.9,1.5,1.9,2.8,3,4.2
			c0.4,0.5,0.8,0.9,1.5,0.9c1.8,0,3.7-1.7,2.9-3.9c-0.4-1.1-0.9-2.1-1.6-3c-3.4-5.1-6.9-10.1-10.4-15.1c-2.5-3.6-5-7.1-7.5-10.6
			c-1.8-2.6-3.7-5.1-5.5-7.7c-1.7-2.5-3-5.2-3.3-8.2c-0.2-2-0.8-4-2-5.8c-1.3-2-2.6-3.9-3.9-5.9c-1.5-2.1-3-4.2-4.5-6.4
			c-0.3-0.4-0.6-0.9-0.9-1.4c0,0-0.1,0-0.1,0.1c0,0.1,0,0.2,0.1,0.3c1.4,2.7,2.8,5.4,4.3,8.1c0.5,1,1.1,2,1.6,3.1
			c0.1,0.3,0.2,0.6,0.3,1c-0.1,0-0.1,0.1-0.2,0.1c-0.2-0.2-0.5-0.3-0.6-0.5c-2.2-3-4.4-6-6.6-9.1c-0.4-0.6-0.8-1.3-1.2-1.9
			c-0.1,0-0.1,0.1-0.2,0.1C17.6,4,17.8,4.4,18,4.9c1.5,2.9,3.1,5.7,4.7,8.5c0.6,1.1,1.1,2.3,1.6,3.5c0.1,0.2,0.1,0.4,0.1,0.6
			c-0.1,0-0.1,0.1-0.2,0.1c-1.9-1.8-3.1-4.1-4.6-6.2c-1.5-2.1-2.9-4.3-4.4-6.4c0,0-0.1,0.1-0.1,0.1c0.7,1.3,1.3,2.7,2,4
			c1.3,2.2,2.6,4.4,3.9,6.7c0.3,0.4,0.4,0.9,0.6,1.4c0.1,0.2-0.1,0.4-0.1,0.6c-0.2-0.1-0.4-0.1-0.6-0.2c-0.4-0.5-0.9-1-1.3-1.5
			c-2-3-3.9-6-5.9-9C13.5,6.8,13.3,6.5,13.1,6.2z"/>
		<path class="st32" d="M13.1,6.2c0.2,0.3,0.4,0.6,0.6,0.9c2,3,3.9,6,5.9,9c0.4,0.5,0.8,1,1.3,1.5c0.1,0.1,0.4,0.1,0.6,0.2
			c0-0.2,0.2-0.4,0.1-0.6c-0.2-0.5-0.4-1-0.6-1.4c-1.3-2.2-2.6-4.4-3.9-6.7c-0.7-1.3-1.4-2.7-2-4c0,0,0.1-0.1,0.1-0.1
			c1.5,2.1,2.9,4.3,4.4,6.4c1.5,2.1,2.8,4.4,4.6,6.2c0.1,0,0.1-0.1,0.2-0.1c0-0.2,0-0.4-0.1-0.6c-0.5-1.2-1-2.3-1.6-3.5
			c-1.5-2.9-3.1-5.7-4.7-8.5c-0.2-0.4-0.4-0.9-0.5-1.3c0.1,0,0.1-0.1,0.2-0.1c0.4,0.6,0.8,1.3,1.2,1.9c2.2,3,4.4,6.1,6.6,9.1
			c0.2,0.2,0.4,0.3,0.6,0.5c0.1,0,0.1-0.1,0.2-0.1c-0.1-0.3-0.1-0.7-0.3-1c-0.5-1-1-2.1-1.6-3.1c-1.4-2.7-2.8-5.4-4.3-8.1
			C20,2.5,20,2.4,20,2.3c0,0,0.1,0,0.1-0.1c0.3,0.5,0.6,0.9,0.9,1.4c1.5,2.1,3,4.2,4.5,6.4c1.3,1.9,2.7,3.9,3.9,5.9
			c1.1,1.7,1.8,3.7,2,5.8c0.3,3.1,1.5,5.8,3.3,8.2c1.8,2.6,3.7,5.1,5.5,7.7c2.5,3.5,5,7.1,7.5,10.6c3.5,5,7,10.1,10.4,15.1
			c0.6,0.9,1.2,2,1.6,3c0.8,2.2-1.1,3.8-2.9,3.9c-0.7,0-1.2-0.4-1.5-0.9c-1-1.4-2.1-2.7-3-4.2c-1.5-2.5-2.9-5-4.4-7.5
			c-2.1-3.6-4.2-7.2-6.3-10.7c-3-5.2-6.1-10.3-9.1-15.5c-1.4-2.5-3.4-4.3-5.9-5.7c-1.4-0.8-2.8-1.7-4.1-2.7c-1.4-1-2.4-2.5-3.2-4
			c-1.5-3-3.1-6-4.6-9.1c-0.5-1-1-2-1.5-3c-0.1-0.2-0.2-0.4-0.3-0.6C13,6.3,13.1,6.2,13.1,6.2z"/>
	</g>
</g>
<g id="Calque_3">
</g>
</svg>
