<?xml version="1.0" encoding="utf-8"?>
<!-- Generator: Adobe Illustrator 23.0.1, SVG Export Plug-In . SVG Version: 6.00 Build 0)  -->
<svg version="1.1" xmlns="http://www.w3.org/2000/svg" x="0px" y="0px"
     viewBox="0 0 72 72" style="enable-background:new 0 0 72 72;" xml:space="preserve">
<style type="text/css">
	.st0{opacity:0.4;fill:url(#SVGID_1_);}
	.st1{opacity:0.6;fill:url(#SVGID_2_);}
	.st2{opacity:0.6;fill:url(#SVGID_3_);}
	.st3{opacity:0.6;fill:url(#SVGID_4_);}
	.st4{opacity:0.6;fill:url(#SVGID_5_);}
	.st5{opacity:0.6;fill:url(#SVGID_6_);}
	.st6{fill:#1F2B50;}
	.st7{fill:none;stroke:#1F2B50;stroke-width:3;stroke-miterlimit:10;}
	.st8{opacity:0.4;fill:url(#SVGID_7_);}
	.st9{opacity:0.4;fill:url(#SVGID_8_);}
	.st10{opacity:0.6;fill:url(#SVGID_9_);}
	.st11{opacity:0.6;fill:url(#SVGID_10_);}
	.st12{opacity:0.4;fill:url(#SVGID_11_);}
	.st13{opacity:0.4;fill:url(#SVGID_12_);}
	.st14{opacity:0.4;fill:url(#SVGID_13_);}
	.st15{opacity:0.4;fill:url(#SVGID_14_);}
	.st16{opacity:0.4;fill:url(#SVGID_15_);}
	.st17{opacity:0.4;fill:url(#SVGID_16_);}
	.st18{opacity:0.4;fill:url(#SVGID_17_);}
	.st19{fill:url(#SVGID_18_);}
	.st20{fill:url(#SVGID_19_);}
	.st21{fill:url(#SVGID_20_);}
	.st22{opacity:0.6;fill:url(#SVGID_21_);}
	.st23{opacity:0.6;fill:url(#SVGID_22_);}
	.st24{opacity:0.6;fill:url(#SVGID_23_);}
	.st25{opacity:0.6;fill:url(#SVGID_24_);}
	.st26{opacity:0.6;fill:url(#SVGID_25_);}
	.st27{opacity:0.6;fill:url(#SVGID_26_);}
	.st28{opacity:0.6;fill:url(#SVGID_27_);}
	.st29{opacity:0.6;fill:url(#SVGID_28_);}
	.st30{fill:url(#SVGID_29_);}
	.st31{fill:url(#SVGID_30_);}
	.st32{fill:#EA9001;}
	.st33{fill:#407EA7;}
	.st34{opacity:0.5;fill:#FFFFFF;}
	.st35{fill:none;stroke:#EA9001;stroke-width:2;stroke-miterlimit:10;}
	.st36{fill:#BECBCC;}
	.st37{fill:#FFFFFF;}
	.st38{fill:#979B9B;}
	.st39{fill:none;stroke:#407EA7;stroke-width:3;stroke-miterlimit:10;}
	.st40{fill:none;stroke:#407EA7;stroke-width:3.0377;stroke-miterlimit:10;}
	.st41{fill:none;stroke:#407EA7;stroke-width:2.8985;stroke-miterlimit:10;}
	.st42{fill:none;stroke:#407EA7;stroke-width:2.933;stroke-miterlimit:10;}
	.st43{fill:none;stroke:#EA9001;stroke-width:1.8227;stroke-miterlimit:10;}
	.st44{fill:#AAB2B2;}
	.st45{fill:none;stroke:#407EA7;stroke-width:3.0142;stroke-miterlimit:10;}
	.st46{fill:none;stroke:#407EA7;stroke-width:3.0512;stroke-miterlimit:10;}
	.st47{fill:#D3DDDD;}
	.st48{fill:none;stroke:#1F2B50;stroke-miterlimit:10;}
	.st49{fill:#BECBCC;stroke:#1F2B50;stroke-width:0.75;stroke-miterlimit:10;}
	.st50{fill:url(#SVGID_31_);}
	.st51{fill:none;stroke:#407EA7;stroke-width:2.8066;stroke-linecap:round;stroke-miterlimit:10;}
	.st52{fill:none;stroke:#407EA7;stroke-width:2.7511;stroke-linecap:round;stroke-miterlimit:10;}
	.st53{fill:url(#SVGID_32_);}
	.st54{fill:none;stroke:#EA9001;stroke-width:0.8;stroke-miterlimit:10;}
	.st55{fill:none;stroke:#407EA7;stroke-width:1.2;stroke-miterlimit:10;}
	.st56{fill:none;stroke:#407EA7;stroke-width:1.2151;stroke-miterlimit:10;}
	.st57{fill:none;stroke:#407EA7;stroke-width:1.1594;stroke-miterlimit:10;}
	.st58{fill:none;stroke:#407EA7;stroke-width:1.1732;stroke-miterlimit:10;}
	.st59{fill:url(#SVGID_33_);}
	.st60{fill:none;stroke:#1F2B50;stroke-width:0.4;stroke-miterlimit:10;}
	.st61{fill:#BECBCC;stroke:#1F2B50;stroke-width:0.3;stroke-miterlimit:10;}
	.st62{fill:none;stroke:#407EA7;stroke-width:1.1226;stroke-linecap:round;stroke-miterlimit:10;}
	.st63{fill:none;stroke:#407EA7;stroke-width:1.1004;stroke-linecap:round;stroke-miterlimit:10;}
	.st64{fill:url(#SVGID_34_);}
	.st65{fill:url(#SVGID_35_);}
</style>
<g id="Calque_2">
</g>
<g id="Calque_1">
</g>
<g id="Calque_3">
	<g id="TfDUQX.tif_1_">
		<g>
			<path class="st6" d="M37.9,71.5c-0.1,0-0.1,0-0.2-0.1c-0.2-0.1-0.2-0.2-0.2-0.4c0-0.1,0.1-0.2,0.2-0.3c0.3-0.5,0.6-0.9,0.9-1.4
				c0.4-0.6,0.7-1.3,0.7-2c0-0.2,0-0.4,0.1-0.6c0.1-0.6,0.1-1.2,0.1-1.9c0-0.1,0-0.1,0-0.2c0-0.5-0.1-1-0.1-1.6
				c0-0.9-0.1-1.9-0.1-2.8c0-0.8-0.1-1.5-0.1-2.3c0-0.2,0-0.3,0-0.5c0-0.4,0-0.7-0.1-1c0-0.1,0-0.1-0.1-0.1c-0.1,0-0.1-0.1-0.2-0.1
				c-0.4-0.2-0.8-0.4-1.2-0.7c-0.4-0.3-0.8-0.6-1.1-1c0-0.1-0.1-0.2-0.1-0.3c0-0.9,0-1.8,0.1-2.7c0-0.9,0.1-1.7,0.2-2.6
				c0.1-1.3,0.2-2.5,0.3-3.8c0.1-0.7,0.1-1.4,0.2-2.2c0.1-1.1,0.3-2.1,0.4-3.2c0.1-0.8,0.2-1.6,0.3-2.4c0-0.3,0-0.3-0.3-0.4
				c-0.1,0-0.1-0.1-0.1-0.2c0-0.1,0.1-0.2,0.1-0.4c0.4-1.1,0.7-2.1,0.8-3.3c0.1-1.1,0.3-2.3,0.3-3.4c0.1-0.9,0-1.7,0-2.6
				c0-1-0.1-2-0.1-3c0-0.4-0.1-0.8-0.1-1.3c0,0,0-0.1,0-0.2c-0.3,0.3-0.6,0.6-1,0.9c-0.3,0.3-0.7,0.5-1.1,0.7
				c-0.1,0.2-0.2,0.3-0.2,0.5c0,0.1-0.1,0.1-0.1,0.2c-0.1,1-0.3,2-0.6,3c-0.3,0.9-0.7,1.7-1.1,2.6c-0.1,0.2-0.2,0.4-0.4,0.6
				c-0.1,0.2-0.2,0.3-0.3,0.6c-0.1,0.2-0.2,0.4-0.3,0.6c0,0.1-0.1,0.2-0.1,0.3c0,1.1,0,2.1,0,3.2c0,0.2,0,0.3,0,0.5
				c0,0.2-0.1,0.3-0.3,0.2c-0.1,0-0.3,0-0.4-0.1c0,0,0,0-0.1,0c0,0,0,0.1,0,0.1c0.1,0.7,0.2,1.3,0.2,2c0.1,1,0.1,2,0.1,3
				c0,0.8,0,1.6,0,2.4c0,0.8-0.1,1.6-0.2,2.4c-0.1,1.3-0.1,2.5-0.2,3.8c-0.1,1.3-0.1,2.5-0.2,3.8c0,1-0.1,2.1-0.2,3.1
				c-0.1,1.2-0.2,2.5-0.3,3.7c-0.1,0.7-0.1,1.4-0.2,2.2c-0.1,1-0.3,1.9-0.6,2.9c0,0.1,0,0.1-0.1,0.2c-0.1,0.1-0.1,0.1-0.2,0.1
				c-0.1-0.1-0.2,0-0.3,0c0.1,0.3,0.2,0.6,0.4,0.9c0.3,0.4,0.7,0.8,1.1,1.1c0.4,0.3,0.8,0.7,1.1,1.1c0.1,0.2,0.2,0.4,0.2,0.6
				c0,0.2,0,0.4-0.1,0.6c0,0.2-0.2,0.4-0.4,0.5c-0.5,0.2-1,0.3-1.5,0.1c-0.1,0-0.2-0.1-0.3-0.1c-0.1,0-0.2-0.1-0.3-0.1
				c-0.4-0.3-0.8-0.5-1.3-0.8c-0.3-0.2-0.6-0.3-1-0.4c-0.2,0-0.3-0.1-0.5-0.1c-0.2,0-0.3-0.1-0.5-0.2c-0.5-0.4-0.7-1-0.6-1.6
				c0-0.2,0-0.5,0-0.7c0-0.3,0.1-0.7,0.1-1c-0.2,0-0.3,0-0.2-0.3c0-0.7,0-1.4,0-2.1c0-1,0.1-2.1,0.2-3.1c0.1-1,0.1-2.1,0.2-3.1
				c0.1-1,0.1-2,0.1-3c0-0.4,0-0.8,0-1.2c0-0.6-0.1-1.1-0.1-1.7c-0.1-1.1-0.3-2.3-0.4-3.4c-0.1-0.7-0.2-1.4-0.3-2.1
				c-0.1-0.7-0.2-1.3-0.3-2c-0.1-0.7-0.2-1.4-0.4-2.2c-0.1-0.3-0.2-0.6-0.3-0.9c0-0.1,0-0.1-0.1-0.2c-0.1-0.2-0.2-0.2-0.4,0
				c-0.1,0.1-0.2,0.3-0.3,0.4c-0.1,0.3-0.3,0.6-0.3,0.9c-0.4,1.2-0.7,2.3-0.9,3.6c-0.2,0.9-0.3,1.9-0.4,2.9c-0.1,1-0.1,2.1-0.2,3.1
				c0,1,0,2.1,0,3.1c0,0.9,0,1.8,0.1,2.7c0,0.7,0.1,1.3,0.2,2c0.1,1,0.3,2,0.4,3c0.1,0.7,0.1,1.5,0.2,2.2c0,0.2,0.1,0.4,0.1,0.6
				c0,0.1,0,0.3,0,0.4c0,0.2-0.1,0.3-0.3,0.4c-0.1,0-0.1,0.1-0.1,0.1c0,0.3,0.1,0.5,0.1,0.7c0,0.3,0,0.7,0,1c0,0.3-0.2,0.6-0.4,0.8
				c-0.6,0.6-1.3,1-2,1.5c-0.3,0.2-0.7,0.3-1.1,0.4c-0.4,0-0.7,0-1.1-0.1c-0.3-0.1-0.6-0.2-0.9-0.3c-0.4-0.3-0.6-0.7-0.3-1.1
				c0.1-0.2,0.3-0.4,0.5-0.5c0.5-0.3,0.9-0.7,1.2-1.1c0.2-0.3,0.5-0.6,0.6-0.9c0-0.1,0-0.2,0-0.2c-0.2-1.2-0.5-2.4-0.6-3.6
				c-0.2-1.6-0.4-3.2-0.6-4.8c-0.1-0.8-0.1-1.6-0.2-2.4c-0.1-1-0.2-2.1-0.2-3.1c-0.1-1.1-0.1-2.2-0.1-3.2c-0.1-1.3-0.1-2.6-0.2-3.9
				c-0.1-1.4-0.1-2.8-0.1-4.2c0-0.6,0.1-1.3,0.1-1.9c0-0.1,0-0.2,0-0.3c0-0.7,0-1.3,0-2c-0.3-0.1-0.3-0.3-0.3-0.5
				c-0.1-0.5-0.1-1-0.2-1.6c0,0,0,0,0,0c-0.5-0.1-0.8-0.4-1-0.8c0,0-0.1-0.1-0.1-0.1c-0.4-0.4-0.6-0.8-0.8-1.2
				c-0.1-0.2-0.2-0.5-0.3-0.7c-0.1-0.2-0.1-0.5,0-0.7c0.1-0.2,0.2-0.4,0.3-0.6c0.1-0.1,0.1-0.2,0.1-0.4c-0.1-0.3-0.2-0.5-0.2-0.8
				c-0.2-0.8-0.3-1.6-0.3-2.5c0-0.4,0-0.7,0-1.1c0-0.9,0.1-1.8,0.3-2.7c0.1-0.4,0.1-0.8,0.2-1.2c-0.1-0.1-0.3-0.2-0.4-0.3
				c-0.1-0.1-0.2-0.2-0.2-0.3c0-0.7,0.1-1.4,0.3-2.1c0.2-0.6,0.3-1.3,0.4-1.9c-0.1-0.1-0.1-0.1-0.2-0.2c-0.5-0.4-1.1-0.7-1.6-1.1
				c-0.5-0.4-1.1-0.7-1.6-1.1c-0.2-0.2-0.2-0.2-0.1-0.5c0.1-0.1,0.2-0.3,0.3-0.4c-0.2-0.2-0.4-0.4-0.6-0.7c-0.1-0.1-0.1-0.1-0.1-0.2
				c0-0.1,0-0.1,0-0.2c0.1-0.3,0.3-0.6,0.4-1c0,0,0-0.1,0-0.1c0.1-0.2,0.3-0.2,0.4-0.1c0.1,0.1,0.2,0.2,0.2,0.2c0.9,1,1.8,2,2.7,3
				c0.4,0.4,0.7,0.8,1.1,1.2c0-0.1-0.1-0.1-0.1-0.2c-0.6-0.8-1.2-1.6-1.7-2.4c-0.5-0.9-1-1.8-1.6-2.7c0,0-0.1-0.1-0.1-0.1
				c0-0.1,0-0.2,0.1-0.2c0.1,0,0.2-0.1,0.2-0.2c0,0,0,0,0,0c0.3-0.4,0.5-0.4,0.8,0c0.5,0.7,0.9,1.4,1.4,2.1c0.1,0.2,0.2,0.3,0.3,0.5
				c0-0.1,0-0.1-0.1-0.2c-0.2-0.5-0.4-1.1-0.6-1.6c-0.1-0.3-0.3-0.6-0.4-0.9C14.8,10,14.8,9.9,15,9.8c0.1-0.1,0.2-0.2,0.3-0.3
				c0.2-0.1,0.3-0.1,0.4,0.1c0.1,0.1,0.1,0.3,0.2,0.4c0-0.2,0-0.4,0-0.5c0-0.2,0-0.4,0.1-0.5c0.2-0.5,0.8-0.6,1.2-0.3
				c0.5,0.4,0.9,0.8,1.2,1.4c0.4,0.7,0.7,1.3,1.1,2c0,0,0,0.1,0.1,0.1c0.1,0,0.1-0.1,0.2-0.1c0.4-0.3,0.9-0.5,1.3-0.8
				c0.1-0.1,0.2-0.2,0.3-0.4c0.1-0.4,0.5-0.7,0.8-0.9c0.4-0.2,0.8-0.4,1.3-0.5c0-0.2,0.1-0.4,0.1-0.6c0.1-0.2,0-0.5,0-0.7
				c0-0.3,0-0.7,0-1c0-0.2,0-0.4,0-0.5c-0.4-0.2-0.4-0.2-0.4-0.6c0-0.3,0.1-0.6,0.2-0.9c0.1-0.2,0.1-0.5,0.2-0.7
				c0-0.1,0-0.3,0.1-0.4c0.1-0.5,0.3-1,0.5-1.5c0.1-0.3,0.3-0.6,0.6-0.8c0.7-0.5,1.4-0.9,2.2-1.1c0.3-0.1,0.6-0.1,1,0
				c0.5,0.2,0.9,0.4,1.4,0.6c0.3,0.1,0.5,0.3,0.7,0.6c0.4,0.3,0.5,0.8,0.4,1.3c0,0.2-0.1,0.3-0.1,0.5c0,0.1,0,0.2,0,0.3
				c0.2,0.4,0.2,0.8-0.1,1.1c-0.1,0.1-0.1,0.2-0.1,0.3c0,0.2-0.1,0.4-0.1,0.5c0.3,0.2,0.3,0.5,0.3,0.9c0,0.1-0.1,0.2-0.1,0.3
				c-0.1,0.2-0.2,0.3-0.4,0.3c0,0-0.1,0-0.1,0c-0.3,0.9-0.5,1.8-1.1,2.6c0.3,0.2,0.5,0.6,0.7,0.9c0.1,0.1,0.2,0.2,0.3,0.3
				c0.2,0.2,0.5,0.5,0.8,0.6c0.2,0.1,0.4,0.2,0.6,0.3c0.2,0.1,0.3,0.2,0.5,0.3c0.3,0.2,0.6,0.3,0.9,0.5c0.5,0.3,1,0.6,1.4,1.1
				c0.1,0.1,0.1,0.2,0.2,0.3c0.2,0.4,0.3,0.8,0.5,1.3c0.3,0.8,0.5,1.5,0.8,2.3c0.2,0.6,0.4,1.2,0.6,1.8c0,0.1,0,0.1,0.1,0.2
				c0.6-0.9,1.1-1.7,1.6-2.6c0.3-0.4,0.5-0.8,0.9-1.2c0.4-0.4,0.8-0.5,1.3-0.4c0.2,0,0.4,0.1,0.6,0.1c-0.2-0.3-0.2-0.6-0.4-0.9
				c-0.6-0.7-0.9-1.6-1.1-2.5c0-0.3,0-0.5,0.1-0.8c0.2-0.8,0.7-1.4,1.3-1.9c0.1-0.1,0.2-0.1,0.2-0.2c0,0,0,0,0,0c0,0,0,0,0,0
				c-0.5-0.2-0.8-0.8-0.6-1.3c0.2-0.4,0.4-0.8,0.8-1c0.4-0.3,0.9-0.3,1.4-0.3c0.2,0,0.4,0.2,0.5,0.3c0.2,0.1,0.3,0.3,0.5,0.5
				c0.1,0.2,0.2,0.3,0.2,0.5c0,0.1,0,0.2,0,0.2c0,0,0,0,0,0c0.5,0,0.8,0.2,1.2,0.4c0.3,0.2,0.6,0.3,0.8,0.5c0.7,0.7,1.3,1.5,1.3,2.6
				c0,0.4-0.1,0.7-0.3,1c0,0.1-0.1,0.2-0.1,0.3c0,0.2-0.1,0.4-0.4,0.4c0.1,0.5,0.1,0.9,0.3,1.4c0.1,0.2,0.1,0.2,0.3,0.1
				c0.1,0,0.2-0.1,0.2-0.1c0.4-0.2,0.7-0.4,1.1-0.5c0.7-0.2,1.4-0.3,2.1-0.1c0.5,0.1,1,0.4,1.4,0.7c0.5,0.4,0.9,0.8,1.3,1.3
				c0.3,0.5,0.7,1,1,1.5c0.1,0.1,0.2,0.3,0.3,0.5c0.4,0.8,0.8,1.7,1.2,2.5c0.2,0.5,0.5,1,0.7,1.5c0.5,1.1,1,2.2,1.3,3.4
				c0.3,0.8,0.5,1.5,0.4,2.4c0,0.2,0,0.3-0.1,0.4c-0.1,0.2-0.3,0.4-0.4,0.6c-0.4,0.6-0.9,1-1.5,1.5c-0.2,0.2-0.4,0.3-0.6,0.5
				c-0.5,0.5-1.1,1-1.7,1.4c-0.2,0.1-0.3,0.3-0.2,0.5c0,0,0,0.1,0,0.1c0,0.3,0,0.5,0.2,0.7c0.2,0.2,0.3,0.4,0.3,0.7
				c0.1,0.7,0.1,1.4,0.2,2.1c0,1,0.1,1.9,0.1,2.8c0,0.4,0,0.8,0,1.1c0,0.9,0.1,1.8,0.1,2.7c0,0.5,0,1.1,0,1.6c0,1.9,0,3.7,0,5.6
				c0,3,0,6,0,8.9c0,1.4,0,2.8,0,4.2c0,1.6,0,3.2,0,4.8c0,0.8,0,1.5,0,2.3c0,0.4,0,0.4-0.4,0.4c-0.2,0-0.5,0-0.8-0.1
				c-0.1,0-0.2-0.1-0.2-0.2c0,0,0-0.1,0-0.1c0-1.4,0-2.7,0-4.1c0-1.4,0.1-2.8,0.1-4.1c0-2.8,0-5.7,0-8.5c0-1.7,0-3.4,0-5.1
				c0-1.4-0.1-2.8-0.2-4.2c0-0.9-0.1-1.7-0.1-2.6c-0.1-1-0.1-2-0.2-3c0-0.6-0.1-1.2-0.1-1.8c0-0.5,0-1.1,0-1.6c0,0,0-0.1,0-0.1
				c-0.1,0-0.1,0.1-0.2,0.1c0,0.1,0,0.1,0,0.2c0.1,0.7,0,1.4-0.1,2c0,0.1,0,0.1,0,0.2c0,0.1-0.1,0.2-0.2,0.2
				c-0.3,0.1-0.3,0.1-0.3,0.4c0.1,0.6,0.1,1.3,0.1,1.9c0,1.2,0.1,2.3,0.1,3.5c0.1,1.4,0.1,2.7,0.2,4.1c0,1,0,1.9,0.1,2.9
				c0.1,1.6,0.1,3.1,0.1,4.7c0,0.3,0,0.6-0.1,0.9c0,0.2-0.1,0.4-0.4,0.5c-0.1,0-0.1,0.1-0.2,0.1c-0.1,0.1-0.2,0.1-0.2,0.3
				c0,0.5,0,1.1,0,1.6c0,0.7,0,1.3,0,2c0,0.9,0,1.7,0,2.6c0,0.1,0,0.3,0,0.4c0,0.4,0,0.7,0,1.1c0,0.4,0,0.7,0,1.1
				c0,0.7-0.1,1.3-0.1,2c0,0.6-0.1,1.1-0.3,1.7c-0.1,0.3-0.3,0.6-0.4,0.9c0,0.1-0.1,0.1-0.1,0.1c-0.1,0.1-0.3,0.2-0.4,0
				c-0.2-0.2-0.4-0.5-0.5-0.8c-0.2-0.4-0.3-0.8-0.4-1.2c-0.1-0.3-0.2-0.7-0.2-1c0-0.5,0-0.9,0-1.4c0-0.4-0.1-0.8-0.1-1.2
				c0-0.1,0-0.2,0-0.3c0-0.2,0-0.4,0.3-0.5c-0.3-2.1-0.6-4.3-0.9-6.4c-0.1,0-0.2,0-0.2,0c-1.1,0-2.2,0-3.4-0.2
				c-0.5-0.1-1-0.2-1.6-0.2c0,0-0.1,0-0.2,0c0,0,0,0.1,0,0.1c0,0.7,0,1.4,0,2.1c0,0.9-0.1,1.7-0.1,2.6c0,0.4,0,0.8,0,1.2
				c0,0,0,0.1,0,0.1c0.1,0.1,0.1,0.2,0.1,0.4c0,0.4,0,0.8-0.1,1.1c0,0.3-0.1,0.7-0.1,1c-0.1,0.5-0.1,1.1-0.2,1.6
				c-0.1,0.5-0.2,1.1-0.2,1.6c0,0.1,0,0.3-0.2,0.4c-0.2,0.1-0.4,0.1-0.5,0c-0.1,0-0.1-0.2-0.1-0.3c0-0.1,0-0.3,0.1-0.4
				c0-0.1,0-0.2,0-0.3c0,0-0.1,0-0.1,0c-0.2,0.3-0.4,0.6-0.6,0.9c-0.3,0.5-0.7,0.9-1.3,1.2c-0.3,0.1-0.6,0.3-1,0.4c0,0-0.1,0-0.1,0
				C38.1,71.5,38,71.5,37.9,71.5z M27.1,65.8c0.2,0,0.3,0,0.4,0c0.5,0,1,0,1.4,0c0.4,0,0.7,0,1.1,0c0.2,0,0.3,0,0.5,0
				c0.4,0,0.4-0.1,0.5-0.4c0,0,0,0,0,0c0.3-1.1,0.4-2.3,0.5-3.4c0.1-1.4,0.2-2.8,0.3-4.1c0.1-1,0.1-1.9,0.2-2.9
				c0.1-1.8,0.2-3.7,0.2-5.5c0-0.3,0-0.7,0.1-1c0.1-1,0.1-2,0.2-3.1c0-0.7,0.1-1.5,0.1-2.2c0-0.7,0-1.4,0-2.1c0-0.7,0-1.5-0.1-2.2
				c0-0.3,0-0.6-0.1-0.8c0-0.5-0.1-1-0.2-1.6c-0.4,0-0.7-0.1-1-0.1C30.2,36.1,29.1,36,28,36c-0.7,0-1.4,0-2.1,0
				c-0.7,0-1.4,0.1-2.1,0.1c-0.4,0-0.9,0.1-1.3,0.2c-0.5,0-1,0.1-1.5,0.1c-0.3,0-0.7,0.1-1,0.1c-0.3,0-0.6,0.1-0.8,0.1
				c-0.3,0-0.6,0.1-1,0.2c0,0.1,0,0.2,0,0.3c0,0.6,0,1.2,0,1.8c0,0.6-0.1,1.3-0.1,1.9c0,1.1,0,2.2,0,3.3c0,1.2,0.1,2.4,0.1,3.6
				c0,1.1,0.1,2.1,0.1,3.2c0,0.8,0.1,1.6,0.1,2.3c0.1,0.8,0.1,1.7,0.2,2.5c0.1,1.1,0.2,2.2,0.3,3.2c0.1,0.9,0.2,1.8,0.3,2.6
				c0.2,1.3,0.4,2.7,0.6,4c0,0.2,0.1,0.5,0.1,0.7c1.2,0.2,2.3,0,3.4-0.5c0-0.1,0-0.2,0-0.3c-0.1-0.5-0.1-1.1-0.2-1.6
				c-0.1-1.1-0.3-2.3-0.4-3.4c-0.1-1-0.2-2-0.3-3c-0.1-0.8-0.1-1.6-0.1-2.4c0-1.1,0-2.2,0-3.2c0-0.6,0.1-1.3,0.1-1.9
				c0-0.8,0.1-1.6,0.2-2.4c0.1-0.9,0.3-1.8,0.5-2.6c0.3-1.1,0.6-2.1,0.9-3.1c0.1-0.2,0.2-0.4,0.2-0.6c0.1-0.2,0.2-0.4,0.4-0.6
				c0.3-0.2,0.6-0.1,0.7,0.2c0.1,0.4,0.3,0.7,0.4,1.1c0.2,0.8,0.3,1.6,0.4,2.3c0.1,0.6,0.1,1.2,0.2,1.8c0.2,1.3,0.4,2.6,0.5,3.9
				c0.1,0.6,0.1,1.2,0.2,1.9c0,0.4,0.1,0.8,0.1,1.3c0,1.1,0,2.2,0,3.2c0,1-0.1,1.9-0.2,2.9c0,0.8-0.1,1.6-0.2,2.4
				c0,0.6-0.1,1.3-0.1,1.9C27.1,64.2,27.1,65,27.1,65.8z M51.3,56.8c0.2-0.4,0.2-0.8,0.2-1.2c0-1.5,0-3.1-0.1-4.6
				c0-1.1-0.1-2.1-0.1-3.2c0-0.7,0-1.3-0.1-2c0-0.9-0.1-1.7-0.1-2.6c-0.1-1.3-0.1-2.7-0.1-4c0-0.3,0-0.5-0.1-0.8
				c-0.3,0.1-0.5,0.2-0.8,0.2c-0.7,0.2-1.4,0.3-2.1,0.3c-1.1,0-2.1,0-3.2-0.1c-0.3,0-0.7-0.1-1-0.1c-0.6-0.1-1.2-0.2-1.8-0.2
				c-0.8-0.1-1.5-0.3-2.3-0.5c-0.4-0.2-0.9-0.4-1.3-0.6c-0.1,0-0.1-0.1-0.2-0.1c-0.1,0.4-0.1,0.7-0.2,1c-0.2,1.4-0.4,2.9-0.5,4.3
				c-0.1,1.3-0.3,2.5-0.4,3.8C37,47.7,37,48.8,36.9,50c-0.1,1.4-0.2,2.8-0.2,4.2c0,0.3,0.1,0.5,0.4,0.7c0.1,0.1,0.2,0.2,0.3,0.3
				c0.1,0.1,0.2,0.2,0.3,0.2c0.1,0.1,0.3,0.2,0.5,0.3c0.4,0.2,0.8,0.5,1.3,0.7c0.1,0,0.2,0.1,0.2,0.1c0.3,0.1,0.6,0.2,0.9,0.4
				c0.1,0,0.2,0.1,0.3,0.1c0.5,0.1,1,0.2,1.5,0.4c0.1,0,0.3,0.1,0.4,0.1c0.5,0.1,1,0.2,1.5,0.2c0.9,0.1,1.9,0.2,2.8,0.2
				c0.3,0,0.5,0,0.8,0c0.5-0.1,1-0.2,1.5-0.2c0.5-0.1,1.1-0.2,1.5-0.5C51,56.9,51.2,56.9,51.3,56.8z M17.5,31
				c-0.1,0.3-0.2,0.6-0.3,1c0,0.1,0,0.1,0,0.2c0.1,0.3,0.2,0.6,0.4,0.9c0.2,0.4,0.6,0.7,1.1,0.7c0.5,0,0.9,0.2,1.3,0.3
				c0.1,0,0.2,0.1,0.2,0.2c0.1,0.2,0.2,0.2,0.4,0.2c0.1,0,0.3,0,0.4,0.1c0.6,0.1,1.2,0.2,1.8,0.3c0.4,0.1,0.9,0.1,1.3,0.2
				c0.2,0,0.5,0,0.7,0.1c0.6,0.1,1.3,0.1,1.9,0.1c0.5,0,1.1-0.1,1.6-0.2c0.1,0,0.2-0.1,0.3-0.1c0.3-0.2,0.7-0.4,1-0.5
				c0.6-0.2,1-0.6,1.1-1.1c0-0.1,0.1-0.2,0.1-0.3c0.1-0.3,0-0.7-0.2-1c-0.1-0.1-0.1-0.1-0.3-0.1c-0.3,0-0.5,0.1-0.6,0.3
				c-0.1,0.2-0.3,0.3-0.5,0.3c-0.4,0.1-0.6-0.1-0.5-0.5c0.1-0.4,0.3-0.8,0.8-1c0.4-0.2,0.9-0.4,1.3-0.5c0.5-0.2,0.9-0.2,1.4,0.1
				c0-0.1,0.1-0.2,0.1-0.2c0.2-0.6,0.3-1.1,0.5-1.7c0.3-1.2,0.4-2.5,0.5-3.8c0.1-1,0.1-2.1,0.2-3.2c0-0.7,0-1.4-0.1-2.1
				c0-0.1,0-0.2-0.1-0.2c-0.2-0.2-0.4-0.5-0.7-0.6c-0.4-0.3-0.9-0.5-1.3-0.7c-0.4-0.2-0.9-0.3-1.3-0.4c-0.1,0-0.2-0.1-0.3-0.1
				c-0.7-0.1-1.4-0.1-2.1-0.2c-0.9-0.1-1.8-0.1-2.7-0.1c-1.1,0.1-2.1,0.1-3.2,0.3c-0.6,0.1-1.3,0.2-1.9,0.4
				c-0.7,0.2-1.5,0.4-2.2,0.7c-0.1,0-0.2,0.1-0.2,0.2c0,0.2-0.1,0.3-0.1,0.5c-0.1,0.4-0.2,0.9-0.2,1.3c0,0.4,0,0.8-0.1,1.2
				c0,0.2,0,0.5-0.1,0.7c-0.2,0.8-0.2,1.7-0.1,2.5c0.1,1.2,0.1,2.3,0.2,3.5c0,0.3,0.1,0.6,0.1,0.8c0.2,0.1,0.4,0.2,0.5,0.2
				c0.2,0.1,0.4,0.2,0.6,0.4c0.4,0.3,0.7,0.6,0.6,1.1c0,0.2-0.1,0.3-0.3,0.3c-0.2,0-0.4,0-0.6-0.1C17.8,31,17.7,31,17.5,31z
				 M50.3,33c0,0,0-0.1,0-0.2c0.1-0.3,0.2-0.7,0.5-0.9c0,0,0.1-0.1,0.1-0.2c0.1-0.3,0.2-0.6,0.4-0.8c0.2-0.3,0.4-0.5,0.6-0.8
				c0.1-0.1,0.1-0.2,0.1-0.3c0-0.4,0-0.9,0-1.3c0-0.7,0-1.3,0-2c0-0.5,0-1.1,0-1.6c0-0.9,0-1.8-0.1-2.7c-0.1-0.4-0.1-0.9-0.3-1.3
				c-0.1-0.1-0.1-0.2-0.1-0.3c-0.2-0.6-0.5-1.1-0.9-1.6c-0.1-0.1-0.1-0.2-0.2-0.3c0-0.1,0-0.1,0.1-0.2c0,0,0.1,0.1,0.1,0.1
				c0,0,0.1,0.1,0.1,0.1c0.5,0.5,0.9,1.2,1.1,1.8c0,0.1,0,0.1,0.1,0.2c0.1,0.1,0.1,0.2,0.2,0.3c0,0.1,0,0.1,0.1,0.2
				c0.3,0.4,0.5,0.8,0.7,1.3c0.1,0.1,0.2,0.3,0.2,0.4c0.3,0.6,0.7,1.2,1,1.8c0.1,0.2,0.2,0.5,0.3,0.7c0.2,0.4,0.3,0.7,0.4,1.1
				c0,0.2,0,0.4-0.1,0.6c-0.3,0.4-0.5,0.8-0.8,1.1c-0.3,0.4-0.6,0.8-1,1.2c-0.2,0.3-0.4,0.5-0.7,0.8c-0.3,0.3-0.6,0.7-0.8,1.2
				c-0.1,0.1-0.1,0.3-0.1,0.4c0.2,0,0.4,0.1,0.6,0.1c0.2,0.1,0.4,0.1,0.6,0.2c0.1,0.1,0.5,0,0.6-0.1c0.6-0.5,1.2-0.9,1.8-1.5
				c0.1-0.1,0.3-0.2,0.4-0.3c0.7-0.6,1.3-1.2,1.8-2c0.1-0.2,0.2-0.4,0.2-0.7c-0.1-0.7-0.2-1.3-0.4-1.9c-0.4-1.2-0.9-2.4-1.4-3.5
				c-0.2-0.5-0.5-0.9-0.7-1.4c-0.4-0.8-0.8-1.7-1.2-2.5c-0.1-0.2-0.2-0.3-0.3-0.4c-0.3-0.5-0.7-1-1-1.5c-0.5-0.7-1.1-1.2-1.8-1.6
				c-0.2-0.1-0.5-0.2-0.8-0.3c-0.9-0.2-1.7,0-2.5,0.4c-0.2,0.1-0.3,0.2-0.3,0.4c0,0.7,0,1.4-0.1,2.1c0,0.4-0.1,0.7-0.2,1.1
				c0,0.2-0.1,0.4-0.1,0.6c-0.1,0.3-0.1,0.6-0.2,0.9c-0.2,1-0.4,1.9-0.7,2.8c-0.3,0.7-0.5,1.4-0.7,2c-0.1,0.2-0.1,0.4-0.3,0.6
				c0,0,0,0.1,0,0.1c0,0.4,0,0.8,0,1.2c0,0.7,0.1,1.4,0.1,2.1c0,0.4,0,0.8,0,1.2c0.1,1.4,0,2.9,0,4.3c0,1.3-0.2,2.5-0.4,3.8
				c0,0.1,0,0.3-0.1,0.5c0.1,0,0.1,0,0.2,0c0.6,0,1.2,0.1,1.8,0.1c1.3,0.1,2.5,0,3.7-0.3c0.5-0.1,1-0.3,1.5-0.7
				c0.1-0.7,0.1-1.5,0.1-2.2c-0.2-0.1-0.5-0.1-0.6-0.2c-0.2-0.1-0.4-0.3-0.5-0.4c-0.2,0.1-0.3,0.4-0.3,0.6c0,0.3,0,0.6,0.1,0.9
				c0,0.2,0,0.3-0.2,0.3c-0.3,0.1-0.6,0.2-0.9,0.2c-0.2,0-0.3-0.1-0.3-0.3c0-0.6,0-1.2,0.1-1.8C49.1,34.1,49.4,33.4,50.3,33z
				 M43.8,38.6c0-0.2,0.1-0.5,0.1-0.7c0.1-0.4,0.2-0.7,0.2-1.1c0-0.8,0.1-1.7,0.1-2.5c0-1.4,0-2.8,0-4.2c0-0.7,0-1.4-0.1-2.1
				c0-0.8-0.1-1.6-0.1-2.4c0-0.1,0-0.2-0.1-0.3c-0.3-0.6-0.6-1.1-0.8-1.7c-0.2-0.4-0.4-0.7-0.5-1.1c-0.3-0.7-0.7-1.4-1-2.2
				c-0.3-0.8-0.7-1.6-0.8-2.4c0,0,0,0,0-0.1c-0.1-0.4-0.2-0.7-0.1-1.1c0,0,0-0.1,0-0.1c-0.2-0.3-0.3-0.7-0.8-0.6c-0.1,0-0.1,0-0.2,0
				c-0.2,0-0.5,0-0.7-0.1c-0.2,0-0.3,0.1-0.5,0.2c-0.2,0.2-0.4,0.4-0.6,0.7c-0.2,0.3-0.5,0.7-0.7,1c-0.5,0.7-0.9,1.5-1.5,2.1
				c0.1,0.2,0.1,0.4,0,0.6c-0.1,0.2-0.1,0.3-0.1,0.5c0,0.1,0,0.2,0,0.3c0.1,0.6,0.1,1.2,0.2,1.9c0,0.1,0,0.2,0.1,0.2
				c0.2,0.2,0.3,0.4,0.4,0.7c0.5-0.3,0.9-0.6,1.3-1c0.2-0.2,0.4-0.4,0.7-0.7c0.1-0.1,0.3-0.1,0.3,0.1c0,0.1,0.1,0.2,0.1,0.3
				c0.1,0.5,0.1,1.1,0.1,1.6c0,1,0.1,1.9,0.1,2.9c0,1.3,0,2.5-0.1,3.8c0,0.4-0.1,0.9-0.2,1.3c-0.1,1.1-0.2,2.1-0.6,3.1
				c-0.1,0.4-0.2,0.8-0.4,1.1c-0.1,0.2-0.1,0.2,0.1,0.3c0.2,0.1,0.4,0.2,0.5,0.3c0.4,0.2,0.8,0.4,1.2,0.5c0.2,0.1,0.4,0.1,0.6,0.2
				c0.5,0.2,1,0.3,1.5,0.3c0.2,0,0.4,0,0.5,0.1C42.9,38.4,43.3,38.5,43.8,38.6z M19.8,12.3c0.7,1.6,1.4,3.1,2.2,4.6
				c0.1,0,0.1,0,0.1,0c0.9-0.1,1.7-0.1,2.6-0.1c0.7,0,1.4-0.1,2,0c0.9,0,1.8,0.2,2.6,0.2c0.4,0,0.8,0.1,1.1,0.3
				c0.1,0,0.2,0.1,0.3,0.1c0.4,0.1,0.8,0.2,1.1,0.5c0.1,0.1,0.2,0.2,0.4,0.2c0.4,0.1,0.7,0.3,0.9,0.6c0.2,0.2,0.4,0.5,0.4,0.8
				c0,0.6,0,1.2,0,1.7c0,0,0,0.1,0,0.1c0,0,0,0,0.1,0c0,0,0.1,0,0.1,0c0.6-0.1,1.1-0.4,1.5-0.8c0.1-0.1,0.2-0.3,0.1-0.5
				c-0.1-0.4-0.2-0.9-0.4-1.3c-0.3-0.9-0.6-1.8-0.9-2.7c-0.2-0.6-0.4-1.1-0.6-1.7c-0.1-0.3-0.3-0.5-0.6-0.7
				c-0.2-0.2-0.4-0.3-0.6-0.5c-0.1-0.1-0.1-0.1-0.2-0.1c-0.3-0.2-0.6-0.3-0.9-0.5c-0.2-0.1-0.3-0.2-0.5-0.3
				c-0.2-0.1-0.4-0.3-0.7-0.4c-0.2-0.1-0.3-0.2-0.4-0.3c0,0-0.1,0-0.1-0.1c0,0.1,0,0.2,0,0.3c0.1,0.5,0,0.9-0.1,1.4
				c0,0.2-0.2,0.2-0.3,0.1c0,0-0.1-0.1-0.1-0.1c-0.2-0.1-0.3-0.2-0.5-0.3c-0.2-0.1-0.5-0.1-0.7-0.2c-0.3-0.1-0.6,0-0.9,0.1
				c-0.2,0.1-0.4,0.2-0.5,0.5c-0.1,0.3-0.1,0.6-0.2,0.9c0,0.1,0,0.2-0.1,0.2c-0.1,0-0.3-0.1-0.3-0.2c0-0.1-0.1-0.1-0.1-0.2
				c-0.1-0.3-0.2-0.5-0.3-0.8c-0.1-0.4-0.4-0.7-0.8-0.8c-0.2-0.1-0.3-0.1-0.5,0c-0.3,0.1-0.6,0.2-0.9,0.3c-0.3,0.1-0.5,0.3-0.8,0.5
				c-0.2,0.2-0.3,0.2-0.4,0c-0.1-0.2-0.3-0.4-0.4-0.6c-0.2-0.4-0.4-0.7-0.4-1.2c0-0.1,0-0.3,0-0.5C20.8,11.6,20.3,12,19.8,12.3z
				 M23.6,6.3c0,0,0.1-0.1,0.1-0.1c0.1-0.1,0.1-0.1,0.2-0.1c0,0,0.1,0.1,0,0.2c0,0.4-0.1,0.9-0.1,1.3c0,1,0.4,1.8,1.2,2.4
				c0.4,0.3,0.8,0.5,1.2,0.6c0.2,0,0.4,0,0.6,0c0.4,0,0.8-0.2,1.1-0.5c0.4-0.4,0.7-0.8,0.8-1.3c0.1-0.4,0.3-0.8,0.4-1.2
				c0.2-0.8,0.4-1.5,0.6-2.3c0-0.2,0-0.3,0-0.5c0-0.2-0.1-0.4-0.2-0.6c-0.1-0.1-0.1-0.2-0.3-0.3c-0.5-0.3-1-0.6-1.6-0.6
				c-0.3,0-0.7,0-1,0.1c-0.6,0.1-1.1,0.3-1.6,0.7c0,0-0.1,0.1-0.1,0.1c-0.2,0-0.2,0.1-0.3,0.3c-0.1,0.3-0.2,0.5-0.3,0.8
				c0,0.2-0.1,0.3-0.3,0.3c-0.2,0-0.3-0.1-0.3-0.2c0-0.2,0-0.3-0.1-0.4C23.5,5.3,23.4,6,23.6,6.3z M52.8,33.9
				C52.8,33.9,52.8,33.9,52.8,33.9c-0.1,0.5-0.2,0.9-0.5,1.3c0,0,0,0.1,0,0.2c0,0.2,0,0.3,0,0.5c0,0.3,0,0.6,0,0.9
				c0.1,1.5,0.2,3,0.3,4.5c0,0.7,0,1.3,0.1,2c0.1,1.5,0.2,2.9,0.2,4.4c0,1.6,0.1,3.2,0.1,4.8c0,4.3,0,8.6-0.1,12.9
				c0,1.7,0,3.3-0.1,5c0,0.1,0,0.2,0,0.3c0.3,0.1,0.6,0.1,0.8,0.1c0-0.1,0-0.1,0-0.2c0-1.4,0-2.7,0-4.1c0-1.8,0-3.7-0.1-5.5
				c0-3.8,0-7.6,0-11.3c0-2.4,0-4.8-0.1-7.1c-0.1-1.4-0.1-2.8-0.2-4.1c0-0.9-0.1-1.7-0.1-2.6c0-0.4-0.1-0.9-0.2-1.3
				C53,34.2,52.9,34.1,52.8,33.9z M41.2,17C41.2,17,41.1,17,41.2,17c0,0.2,0,0.4,0,0.5c0.1,0.7,0.3,1.3,0.6,2
				c0.3,0.7,0.5,1.4,0.8,2.1c0.3,0.5,0.5,1.1,0.8,1.6c0.3,0.6,0.6,1.2,0.9,1.7c0,0.1,0.1,0.1,0.1,0.2c0.1-0.2,0.1-0.3,0.1-0.4
				c0.1-0.4,0.2-0.8,0.4-1.1c0.4-0.9,0.7-1.8,0.9-2.8c0.1-0.4,0.1-0.8,0.2-1.2c0.1-0.3,0.2-0.5,0.2-0.8c0.1-0.8,0.2-1.6,0.3-2.3
				c0-0.4,0-0.7,0-1.1c-0.4,0.1-0.4,0.1-0.6,0c-0.1,0.3-0.1,0.5-0.2,0.8c-0.1,0.3-0.2,0.5-0.3,0.7c-0.2,0.5-0.6,0.7-1,0.9
				c-0.4,0.2-0.9,0.2-1.3,0.1c-0.6-0.1-1.1-0.4-1.5-0.8C41.4,17.1,41.3,17,41.2,17z M45.4,11.9C45.4,11.9,45.4,11.9,45.4,11.9
				c-0.1,0.2-0.2,0.3-0.3,0.4c-0.1,0.1-0.3,0-0.4,0c0,0,0,0,0,0c-0.6,0-1.2-0.1-1.8-0.3c-0.3-0.1-0.7-0.2-1-0.4
				c-0.1-0.1-0.2-0.2-0.3-0.3c0,0.1,0,0.1-0.1,0.2c-0.1,0.3-0.2,0.6-0.5,0.9c-0.2,0.2-0.3,0.4-0.5,0.6c-0.4,0.5-0.6,1.1-0.4,1.7
				c0.2,0.9,0.7,1.7,1.4,2.3c0.4,0.3,0.9,0.6,1.4,0.7c0.3,0.1,0.6,0.1,0.9,0c0.3-0.1,0.6-0.3,0.9-0.5c0.2-0.1,0.3-0.3,0.4-0.5
				c0.2-0.4,0.4-0.8,0.4-1.3c0-0.6,0-1.2-0.1-1.7c0-0.3,0-0.3,0.3-0.3c0,0,0,0,0,0C45.9,13,45.7,12.1,45.4,11.9z M42.1,64.1
				c0.1-2.2,0.2-4.3,0.3-6.5c-0.4-0.1-0.8-0.2-1.3-0.3c-0.2-0.1-0.4-0.1-0.7-0.2c-0.3-0.1-0.7-0.3-1-0.4c0,0-0.1,0-0.2,0
				c0,0.2,0.1,0.4,0.1,0.6c0.1,0.5,0.1,1,0.1,1.5c0,0.8,0.1,1.6,0.1,2.4c0,0.1,0,0.2,0,0.2c0.1,1,0.1,2.1,0.2,3.1c0,0,0,0.1,0,0.2
				c0.2,0,0.4-0.1,0.6-0.1c0.2-0.1,0.4-0.2,0.6-0.2C41.4,64.4,41.7,64.3,42.1,64.1z M28.8,35c0.1,0,0.1,0,0.1,0.1
				c0.9,0,1.8-0.2,2.5-0.8c0.2-0.2,0.3-0.3,0.5-0.5c0.6-0.5,1.1-1.1,1.4-1.8c0-0.1,0.1-0.2,0.1-0.3c0-0.1,0-0.1,0.1-0.2
				c0.4-0.5,0.7-1,0.9-1.5c0.2-0.5,0.5-1.1,0.7-1.6c0.3-0.8,0.5-1.6,0.6-2.4c0-0.2,0.1-0.4,0.1-0.6c-0.1,0-0.1,0-0.2,0.1
				c-0.4,0.4-0.8,0.6-1.3,0.9c-0.3,0.1-0.6,0.2-0.9,0.2c-0.2,1.4-0.5,2.8-1,4.1c0.1,0.1,0.2,0.3,0.2,0.4c0,0,0,0.1,0,0.2
				c-0.1,0-0.1,0-0.1-0.1c-0.1-0.1-0.3-0.3-0.4-0.4c-0.3-0.3-0.7-0.3-1-0.2c-0.4,0.2-0.7,0.3-1.1,0.5c-0.1,0-0.2,0.1-0.4,0.2
				c-0.3,0.1-0.5,0.4-0.6,0.7c0,0.1,0,0.1,0,0.2c0.3,0,0.3,0,0.5-0.2c0.2-0.3,0.5-0.4,0.9-0.4c0.2,0,0.3,0,0.4,0.2
				c0.2,0.2,0.2,0.4,0.3,0.6c0,0.2,0.2,0.4,0,0.7c0,0,0,0.1,0,0.1c-0.1,0.7-0.5,1.2-1.2,1.5c-0.3,0.1-0.6,0.3-0.9,0.4
				C29,34.8,28.9,34.9,28.8,35z M21.7,17c0-0.1-0.1-0.1-0.1-0.2c-0.2-0.5-0.5-0.9-0.7-1.4c-0.4-0.9-0.8-1.8-1.2-2.7
				c-0.4-1-1-1.9-1.5-2.9c-0.1-0.2-0.2-0.4-0.4-0.5c-0.2-0.2-0.4-0.4-0.6-0.5c-0.4-0.3-0.7,0-0.8,0.3c0,0.2-0.1,0.4,0,0.6
				c0,0.8,0.3,1.5,0.5,2.2c0.3,0.8,0.7,1.6,1,2.4c0.4,0.9,0.8,1.7,1.3,2.5c0.1,0.2,0.3,0.4,0.4,0.7C20.3,17.4,21,17.2,21.7,17z
				 M27.3,66.1c0,0.1-0.1,0.3-0.1,0.4c0,0.4-0.1,0.8-0.1,1.2c0,0.4,0,0.7,0.2,1c0.2,0.3,0.4,0.5,0.7,0.5c0.1,0,0.3,0,0.4,0.1
				c0.4,0.1,0.7,0.2,1,0.4c0.3,0.2,0.6,0.3,0.9,0.5c0.3,0.2,0.6,0.4,1,0.5c0.3,0.1,0.7,0.1,1,0c0.4-0.1,0.5-0.2,0.6-0.7
				c0-0.1,0-0.1,0-0.2c0-0.2,0-0.4-0.2-0.5c-0.3-0.4-0.6-0.7-1-1c-0.3-0.2-0.6-0.5-0.8-0.8c-0.4-0.4-0.7-0.8-0.8-1.3
				c0,0,0-0.1-0.1-0.1C29.3,66.1,28.3,66.1,27.3,66.1z M33.2,32.9c-0.4,0.5-0.8,0.9-1.3,1.3c-0.2,0.2-0.5,0.5-0.8,0.6
				c-0.7,0.4-1.4,0.5-2.1,0.5c-0.2,0-0.4,0-0.5-0.3c-0.1,0-0.2,0-0.2,0.1c-0.1,0.1-0.3,0.1-0.4,0.1c-0.1,0-0.1,0-0.2,0
				c-0.9,0.1-1.7,0.2-2.6,0.1c-0.3,0-0.6-0.1-0.8-0.1c-0.6-0.1-1.1-0.1-1.7-0.2c-0.7-0.1-1.4-0.2-2.1-0.4c-0.2,0-0.3-0.1-0.5,0
				c-0.1,0.1-0.2,0.1-0.3,0.1c-0.1,0.1-0.3,0.2-0.5,0.2c-0.2,0-0.4,0-0.6,0c-0.2,0-0.5,0-0.7-0.1c-0.1,0-0.2,0-0.3-0.1
				c0.1,0.6,0.1,1.2,0.2,1.7c0.2,0,0.4-0.1,0.6-0.1c0.4,0,0.7-0.1,1.1-0.1c0.6-0.1,1.3-0.1,1.9-0.2c0.6-0.1,1.1-0.1,1.7-0.2
				c0.7-0.1,1.4-0.2,2.1-0.2c1,0,2.1,0,3.1,0c0.1,0,0.2,0,0.3,0c1.2,0.1,2.4,0.2,3.7,0.4c0.2,0,0.4,0.1,0.7,0.1
				C33.2,35.1,33.2,34.1,33.2,32.9z M50.8,57.4c-0.9,0.4-1.8,0.5-2.7,0.7c0.1,0.5,0.1,1,0.2,1.4c0.1,0.4,0.1,0.7,0.2,1.1
				c0,0.3,0.1,0.6,0.1,0.9c0.1,0.7,0.2,1.4,0.3,2.1c0,0.3,0.1,0.6,0.2,0.8c0.3-0.1,0.5-0.2,0.8-0.3c0.2-0.1,0.4-0.1,0.5-0.1
				c0.1,0,0.2,0,0.2,0C50.8,61.8,50.8,59.6,50.8,57.4z M23.1,66.3c0,0-0.1,0-0.1,0c-0.8,0.3-1.7,0.3-2.6,0.2c-0.1,0-0.2,0-0.2,0.2
				c-0.1,0.4-0.3,0.7-0.5,0.9c-0.4,0.5-0.8,0.9-1.3,1.2c-0.2,0.1-0.3,0.3-0.4,0.5c-0.2,0.3-0.1,0.6,0.2,0.8c0.2,0.2,0.5,0.3,0.8,0.3
				c0.4,0.1,0.8,0,1.2,0c0.3,0,0.5-0.1,0.7-0.3c0.7-0.5,1.4-1,2-1.6c0.2-0.2,0.3-0.3,0.3-0.6c0-0.4,0-0.8,0-1.2
				C23.3,66.6,23.2,66.4,23.1,66.3z M37.8,71.1c0.2,0.1,0.3,0.1,0.5,0c0.3,0,0.6-0.2,0.9-0.3c0.5-0.2,0.8-0.6,1.1-1
				c0.3-0.4,0.5-0.8,0.8-1.2c0-0.1,0.1-0.1,0.1-0.2c0.1-0.1,0.1-0.1,0.2-0.1c0.1,0,0.1,0.1,0.1,0.2c0,0.2,0,0.4,0,0.7
				c0,0.2,0,0.3-0.1,0.5c0.2,0,0.2,0,0.3-0.2c0.1-0.5,0.2-1.1,0.2-1.6c0.1-0.5,0.1-1.1,0.2-1.6c0.1-0.6,0.1-1.1,0.2-1.7
				c0-0.1,0-0.1,0-0.2c-0.4,0-0.8,0.3-1.2,0.4c-0.4,0-0.8,0.2-1.3,0.3c0,0.1,0,0.2,0,0.3c0,0.5,0,1.1-0.1,1.6c0,0.1,0,0.3-0.1,0.4
				c0,0.3-0.1,0.6-0.1,0.8c-0.2,0.7-0.5,1.3-1,1.9C38.3,70.5,38.1,70.8,37.8,71.1z M46,12.5c0.1-0.3,0.2-0.6,0.2-0.9
				c-0.1-0.9-0.5-1.5-1.2-2.1c-0.4-0.4-0.9-0.6-1.4-0.9c-0.1,0-0.1-0.1-0.2-0.1c-0.7,0-1.3,0.1-2,0.4c0,0,0,0,0,0.1
				c0.2,0.6,0.3,1.2,0.2,1.8c0,0.1,0,0.1,0.1,0.2c0.2,0.2,0.4,0.3,0.7,0.4c0.8,0.4,1.7,0.4,2.6,0.4c0-0.1,0.1-0.2,0.1-0.2
				c0.1-0.2,0.3-0.3,0.5-0.1c0.1,0.1,0.2,0.3,0.3,0.5C46,12.3,46,12.4,46,12.5z M23.5,11.5c0.3,0.2,0.6,0.5,1,0.7
				c0.1,0.1,0.2,0.1,0.3,0.2c0.5,0.2,0.8,0.5,1,1c0.1,0.2,0.1,0.5,0.2,0.7c0,0.1,0,0.1,0.1,0.2c0,0,0,0,0.1,0
				c0.1-0.4,0.1-0.7,0.2-1.1c0-0.2,0.1-0.3,0.3-0.3c0.7-0.3,1.3-0.7,1.6-1.5c0.1-0.3,0.2-0.7,0.2-1c0,0,0,0,0,0c0,0-0.1,0.1-0.1,0.1
				c-0.3,0.2-0.6,0.4-0.9,0.5c-0.5,0.1-1.1,0.1-1.6-0.2C25,10.4,24.4,9.9,24,9.2c0,0-0.1-0.1-0.1-0.2C23.7,9.9,23.6,10.7,23.5,11.5z
				 M48.8,64.9c0,0.2,0,0.3,0,0.4c0,0.4,0.1,0.9,0.1,1.3c0,0.4,0,0.9,0,1.3c0,0.3,0,0.6,0.2,1c0.1,0.4,0.3,0.8,0.4,1.2
				c0.1,0.2,0.2,0.4,0.4,0.6c0.1-0.1,0.1-0.3,0.2-0.4c0.3-0.5,0.5-1,0.5-1.6c0.1-0.7,0.1-1.3,0.2-2c0-0.7,0-1.4,0.1-2.1
				c0-0.1,0-0.2-0.2-0.3c-0.2,0.1-0.4,0.1-0.6,0.2c-0.2,0.1-0.5,0.2-0.8,0.3C49.1,64.8,49,64.8,48.8,64.9z M16.9,29.2
				c0,0,0-0.1,0-0.2c-0.1-0.4-0.2-0.8-0.2-1.2c-0.1-0.9-0.2-1.9-0.2-2.8c0-0.6-0.1-1.3,0-1.9c0-0.2,0-0.5,0.1-0.7
				c-0.3-0.1-0.5-0.2-0.8-0.3c-0.1,0.3-0.1,0.7-0.1,1c-0.1,0.7-0.2,1.3-0.3,2c-0.1,0.7,0,1.4-0.1,2.2c0,0.5,0,0.9,0.1,1.4
				c0.1,0.5,0.2,1,0.4,1.5C16.2,29.8,16.6,29.5,16.9,29.2z M52.3,29.6c0.1-0.1,0.2-0.2,0.3-0.3c0.1-0.1,0.2-0.3,0.4-0.5
				c0.5-0.5,0.9-1.1,1.3-1.7c0.1-0.1,0.1-0.3,0.1-0.4c-0.1-0.3-0.2-0.6-0.3-1c-0.1-0.3-0.2-0.5-0.4-0.8c-0.1-0.2-0.2-0.4-0.3-0.6
				c-0.3-0.7-0.8-1.3-1.1-2c0-0.1-0.1-0.2-0.1-0.2c0,0.2,0,0.3,0,0.5c0,0.6,0.1,1.1,0.1,1.7c0,0.7,0,1.3,0,2c0,1.1,0,2.2,0,3.3
				C52.3,29.5,52.3,29.5,52.3,29.6z M30.1,3.3c0.1-0.5,0.2-0.9-0.2-1.3c-0.2-0.2-0.5-0.5-0.8-0.6C28.8,1.2,28.4,1,28,0.9
				c-0.3-0.1-0.6-0.1-0.9-0.1C26.2,1,25.5,1.5,24.8,2c-0.1,0.1-0.2,0.2-0.3,0.3c-0.2,0.5-0.4,1-0.5,1.6c0.1-0.1,0.2-0.1,0.3-0.2
				c0.1-0.1,0.2-0.1,0.3-0.2c0.1-0.2,0.3-0.3,0.5-0.4c0.5-0.3,1-0.5,1.6-0.6c0.6-0.1,1.2-0.2,1.8,0C29.1,2.6,29.6,2.9,30.1,3.3
				C30.1,3.3,30.1,3.3,30.1,3.3z M18.5,30.8c0-0.3,0-0.5-0.2-0.6c-0.3-0.2-0.6-0.5-1-0.7c-0.1-0.1-0.3-0.1-0.4,0
				c-0.3,0.3-0.5,0.5-0.8,0.8c-0.3,0.2-0.5,0.5-0.6,0.8c-0.1,0.2-0.1,0.5,0,0.7c0.2,0.4,0.4,0.8,0.6,1.2c0,0.1,0.1,0.1,0.1,0.2
				c0.2,0.2,0.3,0.4,0.5,0.6c0.2,0.2,0.4,0.5,0.7,0.6c0.3,0.1,0.6,0.1,0.9,0.2c0.1,0,0.2,0,0.4,0c0.2,0,0.4,0,0.6,0
				c0.3,0,0.4-0.1,0.6-0.4c-0.1,0-0.2-0.1-0.3-0.1c-0.2-0.1-0.5-0.2-0.8-0.2c-0.6,0-1.1-0.3-1.4-0.8c-0.2-0.3-0.4-0.7-0.5-1.1
				c0-0.1,0-0.1,0-0.2c0.1-0.3,0.2-0.7,0.4-1c0-0.1,0.1-0.2,0.3-0.2c0.2,0,0.3,0,0.4,0.1C18.1,30.8,18.3,30.9,18.5,30.8z M39.8,14.3
				c0-0.2,0.1-0.4,0.1-0.6c0.1-0.3,0.2-0.6,0.4-0.9c0.2-0.2,0.4-0.4,0.5-0.7c0.1-0.1,0.2-0.3,0.3-0.5c0.3-0.6,0.3-1.1,0.2-1.7
				c0-0.2-0.1-0.4-0.2-0.6c-0.1,0-0.1,0.1-0.1,0.1c0,0-0.1,0-0.1,0.1c-0.8,0.4-1.4,1-1.7,1.8c-0.3,0.6-0.3,1.3,0,1.9
				c0.1,0.3,0.3,0.6,0.4,0.9C39.7,14.1,39.7,14.2,39.8,14.3z M18.9,17.8c-0.2-0.3-0.4-0.6-0.6-0.9c-0.4-0.7-0.9-1.3-1.3-2
				c-0.4-0.5-0.7-1.1-1-1.7c-0.2-0.3-0.3-0.5-0.5-0.7c-0.4-0.7-0.8-1.3-1.3-2c0-0.1-0.1-0.1-0.2-0.2c-0.1,0.2-0.3,0.3-0.4,0.5
				c0.1,0.1,0.1,0.2,0.2,0.3c0.3,0.5,0.6,1.1,0.9,1.6c0.5,0.8,1,1.6,1.6,2.4c0.7,0.9,1.4,1.8,2,2.7c0,0,0,0,0.1,0
				C18.5,17.9,18.7,17.8,18.9,17.8z M12.5,12c-0.1,0.3-0.2,0.6-0.3,0.8c-0.1,0.2-0.1,0.3,0.1,0.4c0.3,0.2,0.5,0.5,0.8,0.7
				c1.1,1.1,2.3,2.1,3.4,3.2c0.3,0.3,0.7,0.6,0.9,1c0,0,0.1,0.1,0.1,0.1c0.2,0,0.4-0.1,0.6-0.1c-0.1-0.1-0.1-0.1-0.2-0.2
				c-0.2-0.2-0.4-0.3-0.5-0.5c-1-1.1-1.9-2.2-2.9-3.2c-0.6-0.6-1.2-1.3-1.7-1.9C12.6,12.1,12.6,12.1,12.5,12z M16.7,22.1
				c0-0.3,0.1-0.6,0.1-0.8c0-0.2,0-0.5,0.1-0.7c0-0.3,0-0.5,0.1-0.8c0.1-0.5,0.2-1,0.3-1.5c-0.4-0.3-0.8-0.5-1.1-0.8
				c0,0.1,0,0.1-0.1,0.2c-0.1,0.7-0.3,1.3-0.4,2c-0.1,0.4-0.2,0.7-0.2,1.1c0,0.6,0,0.5,0.4,0.9C16,21.9,16.3,22,16.7,22.1z
				 M50.8,32.3c0,0.1-0.1,0.1-0.1,0.2c-0.3,0.7-0.4,1.5-0.1,2.2c0.1,0.4,0.6,0.7,1,0.6c0.3-0.1,0.5-0.3,0.6-0.5
				c0.2-0.4,0.3-0.7,0.3-1.1c0-0.3,0-0.7,0-0.9C52,32.4,51.4,32.3,50.8,32.3z M33.5,26.1c0.3,0.1,0.5,0,0.7-0.1
				c0.4-0.2,0.8-0.4,1.2-0.7c0.3-0.2,0.5-0.5,0.7-0.7c0.3-0.4,0.1-0.8-0.4-1c-0.5-0.1-1,0-1.4,0.2c-0.2,0.1-0.3,0.2-0.5,0.4
				c-0.1,0.1-0.2,0.2-0.2,0.3c0,0.2,0,0.4,0,0.6C33.6,25.4,33.5,25.7,33.5,26.1z M42.9,8.3c0-0.3,0-0.5-0.2-0.7
				c-0.1-0.1-0.2-0.2-0.2-0.3C42.2,7.1,42,7,41.7,7.1c-0.1,0-0.2,0-0.3,0c-0.7,0.1-1.1,0.4-1.3,1.1c-0.1,0.3-0.1,0.5,0,0.7
				c0.1,0.2,0.7,0.4,0.9,0.3c0,0,0,0,0,0c0.1-0.1,0.2-0.2,0.4-0.3c0.1-0.1,0.3-0.2,0.4-0.2C42.2,8.5,42.5,8.4,42.9,8.3z M35.6,20.9
				c-0.3,0.2-0.6,0.4-0.9,0.5c-0.3,0.2-0.6,0.2-1,0.2c0,0.7,0,1.5-0.1,2.2c0,0,0,0,0.1,0c0.3-0.2,0.5-0.5,0.9-0.6
				c0.4,0,0.7-0.1,1.1-0.1C35.7,22.5,35.7,21.7,35.6,20.9z M15.2,10c0.1,0.1,0.1,0.2,0.1,0.3c0.1,0.3,0.3,0.6,0.4,1
				c0.3,0.7,0.5,1.4,0.8,2.1c0.1,0.2,0.1,0.4,0.2,0.5c0.3,0.5,0.5,0.9,0.8,1.4c0.5,0.8,1.1,1.6,1.6,2.4c0,0,0.1,0,0.2-0.1
				c0-0.1-0.1-0.1-0.1-0.2c-0.1-0.2-0.3-0.4-0.4-0.6c-0.6-1-1.1-2.1-1.6-3.2c-0.3-0.8-0.7-1.5-0.9-2.3c0-0.1,0-0.1-0.1-0.2
				c-0.2-0.4-0.4-0.8-0.6-1.2c0-0.1-0.1-0.1-0.1-0.2C15.4,9.8,15.3,9.9,15.2,10z M22,10.4c-0.2,0.1-0.3,0.3-0.3,0.5
				c-0.1,0.7,0,1.4,0.4,2c0.1,0.1,0.2,0.3,0.3,0.4c0.3-0.4,0.6-0.5,1-0.6c0.2-0.1,0.3-0.1,0.5-0.2c0.1,0,0.2-0.1,0.3-0.1
				c-0.1-0.1-0.1-0.1-0.2-0.2c-0.3-0.2-0.7-0.5-1-0.7C22.6,11.2,22.2,10.9,22,10.4z M24.8,3.6c0.1,0.1,0.1,0.2,0.2,0.3
				C25,4,25.1,4,25.2,3.9c0.1-0.1,0.2-0.2,0.4-0.3c0.6-0.3,1.3-0.5,2-0.5c0.6,0,1.1,0.1,1.7,0.4c0.4,0.2,0.7,0.5,0.8,0.9
				c0,0.1,0.1,0.1,0.1,0.3c0.2-0.3,0.2-0.5,0.1-0.8c-0.1-0.2-0.2-0.3-0.3-0.4c-0.2-0.3-0.5-0.4-0.8-0.6c-0.6-0.4-1.3-0.4-2.1-0.3
				c-0.7,0.1-1.4,0.4-2,0.7C25,3.5,24.9,3.5,24.8,3.6z M50.3,34.7c0-0.5-0.1-0.9-0.1-1.4c-0.1,0.1-0.2,0.1-0.2,0.2
				c-0.4,0.4-0.7,0.9-0.8,1.5C49,35.5,49,36,49,36.5c0,0.1,0,0.1,0,0.2c0.3,0,0.5,0,0.8-0.1c0-0.3-0.1-0.5-0.1-0.8
				C49.7,35.3,49.8,34.9,50.3,34.7z M28.6,10.4c-0.1,0.9-0.4,1.6-1.1,2.2c0.6,0,1.2,0.2,1.7,0.5C29.5,12.3,29.2,10.9,28.6,10.4z
				 M23.2,11.3c0.1-0.5,0.2-1,0.2-1.5c-0.1,0-0.1,0-0.1,0c-0.3,0.1-0.7,0.3-1,0.4c-0.1,0.1-0.1,0.1,0,0.3
				C22.5,10.8,22.8,11.1,23.2,11.3z M12.5,14.6c0.9,0.7,1.8,1.3,2.7,1.9c-0.8-0.8-1.6-1.6-2.4-2.3C12.8,14.3,12.7,14.4,12.5,14.6z
				 M24.3,5.4c0.1-0.5,0.3-0.9,0.6-1.3c-0.1-0.1-0.2-0.2-0.2-0.4c-0.4,0.2-0.7,0.4-0.8,0.9C24.2,4.7,24.2,5.1,24.3,5.4z M30,6
				c-0.1,0.3-0.2,0.7-0.3,1c0.1,0,0.2,0,0.2,0C30.1,6.7,30.2,6.4,30,6z"/>
			<path class="st38" d="M27.1,65.8c0-0.8,0-1.5,0.1-2.3c0-0.6,0.1-1.3,0.1-1.9c0-0.8,0.1-1.6,0.2-2.4c0.1-1,0.1-1.9,0.2-2.9
				c0-1.1,0-2.2,0-3.2c0-0.4-0.1-0.8-0.1-1.3c-0.1-0.6-0.1-1.3-0.2-1.9c-0.2-1.3-0.4-2.6-0.5-3.9c-0.1-0.6-0.1-1.2-0.2-1.8
				c-0.1-0.8-0.2-1.6-0.4-2.3c-0.1-0.4-0.2-0.8-0.4-1.1c-0.1-0.3-0.4-0.4-0.7-0.2c-0.2,0.2-0.3,0.3-0.4,0.6
				c-0.1,0.2-0.2,0.4-0.2,0.6c-0.3,1-0.6,2.1-0.9,3.1c-0.2,0.9-0.3,1.8-0.5,2.6c-0.1,0.8-0.1,1.6-0.2,2.4c0,0.6-0.1,1.3-0.1,1.9
				c0,1.1,0,2.2,0,3.2c0,0.8,0,1.6,0.1,2.4c0.1,1,0.1,2,0.3,3c0.2,1.1,0.3,2.3,0.4,3.4c0.1,0.5,0.1,1.1,0.2,1.6c0,0.1,0,0.2,0,0.3
				c-1.1,0.5-2.2,0.7-3.4,0.5c0-0.2-0.1-0.5-0.1-0.7c-0.2-1.3-0.4-2.7-0.6-4c-0.1-0.9-0.2-1.8-0.3-2.6c-0.1-1.1-0.2-2.2-0.3-3.2
				c-0.1-0.8-0.2-1.7-0.2-2.5c-0.1-0.8-0.1-1.6-0.1-2.3c-0.1-1.1-0.1-2.1-0.1-3.2c-0.1-1.2-0.1-2.4-0.1-3.6c0-1.1,0-2.2,0-3.3
				c0-0.6,0.1-1.3,0.1-1.9c0-0.6,0-1.2,0-1.8c0-0.1,0-0.2,0-0.3c0.3-0.1,0.6-0.1,1-0.2c0.3,0,0.6-0.1,0.8-0.1c0.3,0,0.7-0.1,1-0.1
				c0.5,0,1-0.1,1.5-0.1c0.4,0,0.9-0.1,1.3-0.2c0.7-0.1,1.4-0.1,2.1-0.1c0.7,0,1.4,0,2.1,0c1.1,0,2.2,0.1,3.3,0.3
				c0.3,0,0.7,0.1,1,0.1c0.1,0.5,0.1,1.1,0.2,1.6c0,0.3,0,0.6,0.1,0.8c0,0.7,0.1,1.5,0.1,2.2c0,0.7,0,1.4,0,2.1
				c0,0.7-0.1,1.5-0.1,2.2c-0.1,1-0.1,2-0.2,3.1c0,0.3,0,0.7-0.1,1c-0.1,1.8-0.1,3.7-0.2,5.5c0,1-0.1,1.9-0.2,2.9
				c-0.1,1.4-0.2,2.8-0.3,4.1c-0.1,1.1-0.3,2.3-0.5,3.4c0,0,0,0,0,0c-0.1,0.4-0.1,0.4-0.5,0.4c-0.2,0-0.3,0-0.5,0
				c-0.4,0-0.7,0-1.1,0c-0.5,0-1,0-1.4,0C27.4,65.8,27.2,65.8,27.1,65.8z"/>
			<path class="st33" d="M51.3,56.8c-0.1,0.1-0.3,0.2-0.4,0.2c-0.5,0.3-1,0.4-1.5,0.5c-0.5,0.1-1,0.2-1.5,0.2c-0.3,0-0.5,0-0.8,0
				c-1,0-1.9-0.1-2.8-0.2c-0.5-0.1-1-0.1-1.5-0.2c-0.1,0-0.3,0-0.4-0.1c-0.5-0.2-1-0.3-1.5-0.4c-0.1,0-0.2-0.1-0.3-0.1
				c-0.3-0.1-0.6-0.2-0.9-0.4c-0.1,0-0.2-0.1-0.2-0.1c-0.4-0.2-0.8-0.5-1.3-0.7c-0.2-0.1-0.3-0.2-0.5-0.3c-0.1-0.1-0.2-0.1-0.3-0.2
				c-0.1-0.1-0.2-0.2-0.3-0.3c-0.2-0.2-0.4-0.4-0.4-0.7c0-1.4,0.1-2.8,0.2-4.2c0.1-1.1,0.2-2.3,0.3-3.4c0.1-1.3,0.2-2.5,0.4-3.8
				c0.2-1.4,0.4-2.9,0.5-4.3c0-0.3,0.1-0.7,0.2-1c0.1,0,0.2,0.1,0.2,0.1c0.4,0.2,0.8,0.4,1.3,0.6c0.7,0.3,1.5,0.5,2.3,0.5
				c0.6,0,1.2,0.1,1.8,0.2c0.3,0,0.7,0.1,1,0.1c1.1,0.1,2.1,0.1,3.2,0.1c0.7,0,1.4-0.2,2.1-0.3c0.3-0.1,0.5-0.1,0.8-0.2
				c0,0.3,0.1,0.5,0.1,0.8c0.1,1.3,0.1,2.7,0.1,4c0,0.9,0.1,1.7,0.1,2.6c0,0.7,0.1,1.3,0.1,2c0,1.1,0,2.1,0.1,3.2
				c0.1,1.5,0.1,3.1,0.1,4.6C51.5,56,51.5,56.4,51.3,56.8z"/>
			<path class="st36" d="M17.5,31c0.1,0,0.2,0.1,0.4,0.1c0.2,0,0.4,0.1,0.6,0.1c0.2,0,0.3-0.1,0.3-0.3c0-0.5-0.3-0.8-0.6-1.1
				c-0.2-0.1-0.4-0.2-0.6-0.4c-0.2-0.1-0.3-0.1-0.5-0.2c0-0.2-0.1-0.5-0.1-0.8c-0.1-1.2-0.2-2.3-0.2-3.5c0-0.8,0-1.7,0.1-2.5
				c0-0.2,0-0.5,0.1-0.7c0-0.4,0-0.8,0.1-1.2c0.1-0.4,0.1-0.9,0.2-1.3c0-0.2,0.1-0.3,0.1-0.5c0-0.1,0.1-0.2,0.2-0.2
				c0.7-0.2,1.5-0.5,2.2-0.7c0.6-0.2,1.3-0.3,1.9-0.4c1.1-0.2,2.1-0.2,3.2-0.3c0.9-0.1,1.8,0,2.7,0.1c0.7,0.1,1.4,0.1,2.1,0.2
				c0.1,0,0.2,0,0.3,0.1c0.4,0.1,0.9,0.3,1.3,0.4c0.5,0.2,0.9,0.4,1.3,0.7c0.3,0.2,0.5,0.4,0.7,0.6c0.1,0.1,0.1,0.2,0.1,0.2
				c0,0.7,0.1,1.4,0.1,2.1c0,1.1-0.1,2.1-0.2,3.2c-0.1,1.3-0.2,2.5-0.5,3.8c-0.1,0.6-0.3,1.1-0.5,1.7c0,0.1-0.1,0.2-0.1,0.2
				c-0.5-0.3-0.9-0.3-1.4-0.1c-0.4,0.2-0.9,0.4-1.3,0.5c-0.4,0.2-0.7,0.5-0.8,1c-0.1,0.4,0.1,0.6,0.5,0.5c0.2-0.1,0.4-0.1,0.5-0.3
				c0.2-0.2,0.4-0.3,0.6-0.3c0.1,0,0.2,0,0.3,0.1c0.2,0.3,0.2,0.6,0.2,1c0,0.1,0,0.2-0.1,0.3c-0.2,0.6-0.6,0.9-1.1,1.1
				c-0.4,0.1-0.7,0.3-1,0.5c-0.1,0.1-0.2,0.1-0.3,0.1c-0.5,0.1-1.1,0.2-1.6,0.2c-0.6,0-1.3,0-1.9-0.1c-0.2,0-0.5,0-0.7-0.1
				c-0.4,0-0.9-0.1-1.3-0.2c-0.6-0.1-1.2-0.2-1.8-0.3c-0.1,0-0.3-0.1-0.4-0.1c-0.2,0-0.3-0.1-0.4-0.2c0-0.1-0.1-0.1-0.2-0.2
				c-0.4-0.1-0.9-0.3-1.3-0.3c-0.5,0-0.8-0.3-1.1-0.7c-0.2-0.3-0.3-0.6-0.4-0.9c0-0.1,0-0.1,0-0.2C17.3,31.6,17.4,31.3,17.5,31z"/>
			<path class="st38" d="M50.3,33c-0.8,0.4-1.2,1.1-1.4,1.9c-0.1,0.6-0.1,1.2-0.1,1.8c0,0.2,0.1,0.3,0.3,0.3c0.3,0,0.6,0,0.9-0.2
				c0.2-0.1,0.2-0.2,0.2-0.3c0-0.3-0.1-0.6-0.1-0.9c0-0.2,0.1-0.5,0.3-0.6c0.2,0.1,0.3,0.3,0.5,0.4c0.2,0.1,0.4,0.2,0.6,0.2
				c0,0.7,0,1.4-0.1,2.2c-0.5,0.3-1,0.5-1.5,0.7c-1.2,0.3-2.5,0.3-3.7,0.3c-0.6,0-1.2-0.1-1.8-0.1c-0.1,0-0.1,0-0.2,0
				c0-0.2,0-0.3,0.1-0.5c0.2-1.3,0.4-2.5,0.4-3.8c0-1.4,0.1-2.9,0-4.3c0-0.4,0-0.8,0-1.2c0-0.7-0.1-1.4-0.1-2.1c0-0.4,0-0.8,0-1.2
				c0,0,0-0.1,0-0.1c0.2-0.1,0.2-0.4,0.3-0.6c0.3-0.7,0.5-1.4,0.7-2c0.3-0.9,0.6-1.9,0.7-2.8c0.1-0.3,0.1-0.6,0.2-0.9
				c0-0.2,0.1-0.4,0.1-0.6c0.1-0.4,0.1-0.7,0.2-1.1c0.1-0.7,0.2-1.4,0.1-2.1c0-0.2,0.1-0.3,0.3-0.4c0.8-0.4,1.6-0.6,2.5-0.4
				c0.3,0.1,0.5,0.2,0.8,0.3c0.7,0.4,1.3,0.9,1.8,1.6c0.3,0.5,0.7,1,1,1.5c0.1,0.1,0.2,0.3,0.3,0.4c0.4,0.8,0.8,1.7,1.2,2.5
				c0.2,0.5,0.5,0.9,0.7,1.4c0.5,1.2,1,2.3,1.4,3.5c0.2,0.6,0.3,1.3,0.4,1.9c0,0.2,0,0.5-0.2,0.7c-0.5,0.8-1.1,1.4-1.8,2
				c-0.1,0.1-0.3,0.2-0.4,0.3c-0.5,0.5-1.2,1-1.8,1.5c-0.1,0.1-0.5,0.1-0.6,0.1c-0.2-0.1-0.4-0.2-0.6-0.2C51.6,32,51.4,32,51.1,32
				c0-0.2,0-0.3,0.1-0.4c0.2-0.4,0.5-0.8,0.8-1.2c0.2-0.3,0.5-0.5,0.7-0.8c0.3-0.4,0.7-0.8,1-1.2c0.3-0.4,0.5-0.8,0.8-1.1
				c0.1-0.2,0.2-0.4,0.1-0.6c-0.1-0.4-0.2-0.8-0.4-1.1c-0.1-0.2-0.2-0.5-0.3-0.7c-0.3-0.6-0.6-1.2-1-1.8c-0.1-0.1-0.2-0.3-0.2-0.4
				c-0.2-0.4-0.4-0.9-0.7-1.3c0-0.1-0.1-0.1-0.1-0.2c0-0.1-0.1-0.2-0.2-0.3c0,0-0.1-0.1-0.1-0.2c-0.3-0.7-0.6-1.3-1.1-1.8
				c0,0-0.1-0.1-0.1-0.1c0,0-0.1-0.1-0.1-0.1c-0.1,0-0.1,0.1-0.1,0.2c0.1,0.1,0.1,0.2,0.2,0.3c0.4,0.5,0.7,1,0.9,1.6
				c0,0.1,0.1,0.2,0.1,0.3c0.2,0.4,0.3,0.8,0.3,1.3C52,23.1,52,24,52,24.9c0,0.5,0,1.1,0,1.6c0,0.7,0,1.3,0,2c0,0.4,0,0.9,0,1.3
				c0,0.1-0.1,0.2-0.1,0.3c-0.2,0.3-0.4,0.5-0.6,0.8c-0.2,0.3-0.3,0.5-0.4,0.8c0,0.1,0,0.1-0.1,0.2c-0.3,0.3-0.4,0.6-0.5,0.9
				C50.3,32.9,50.3,32.9,50.3,33z"/>
			<path class="st38" d="M43.8,38.6c-0.5-0.1-1-0.1-1.4-0.2c-0.2,0-0.4,0-0.5-0.1c-0.5,0-1-0.1-1.5-0.3c-0.2-0.1-0.4-0.1-0.6-0.2
				c-0.4-0.2-0.8-0.4-1.2-0.5c-0.2-0.1-0.4-0.2-0.5-0.3c-0.2-0.1-0.2-0.1-0.1-0.3c0.1-0.4,0.2-0.8,0.4-1.1c0.4-1,0.5-2,0.6-3.1
				c0-0.4,0.1-0.9,0.2-1.3c0.1-1.3,0.2-2.5,0.1-3.8c0-1-0.1-1.9-0.1-2.9c0-0.5-0.1-1.1-0.1-1.6c0-0.1-0.1-0.2-0.1-0.3
				c0-0.2-0.2-0.2-0.3-0.1c-0.2,0.2-0.4,0.5-0.7,0.7c-0.4,0.4-0.8,0.7-1.3,1c0-0.3-0.1-0.5-0.4-0.7c-0.1-0.1-0.1-0.2-0.1-0.2
				c-0.1-0.6-0.1-1.2-0.2-1.9c0-0.1,0-0.2,0-0.3c0-0.2,0-0.4,0.1-0.5c0.1-0.2,0.1-0.4,0-0.6c0.6-0.7,1-1.4,1.5-2.1
				c0.2-0.3,0.4-0.7,0.7-1c0.2-0.2,0.4-0.5,0.6-0.7c0.1-0.1,0.3-0.2,0.5-0.2c0.2,0,0.5,0,0.7,0.1c0.1,0,0.1,0,0.2,0
				c0.5-0.1,0.6,0.3,0.8,0.6c0,0,0,0.1,0,0.1c-0.1,0.4,0,0.7,0.1,1.1c0,0,0,0,0,0.1c0.1,0.8,0.5,1.6,0.8,2.4c0.3,0.7,0.6,1.5,1,2.2
				c0.2,0.4,0.3,0.7,0.5,1.1c0.3,0.6,0.6,1.1,0.8,1.7c0,0.1,0.1,0.2,0.1,0.3c0,0.8,0.1,1.6,0.1,2.4c0,0.7,0.1,1.4,0.1,2.1
				c0,1.4,0,2.8,0,4.2c0,0.8-0.1,1.7-0.1,2.5c0,0.4-0.1,0.7-0.2,1.1C43.9,38.1,43.9,38.3,43.8,38.6z"/>
			<path class="st33" d="M19.8,12.3c0.5-0.3,1-0.7,1.6-1c0,0.2,0,0.3,0,0.5c0,0.4,0.2,0.8,0.4,1.2c0.1,0.2,0.2,0.4,0.4,0.6
				c0.2,0.2,0.3,0.2,0.4,0c0.2-0.2,0.5-0.4,0.8-0.5c0.3-0.1,0.6-0.2,0.9-0.3c0.2-0.1,0.3-0.1,0.5,0c0.4,0.2,0.7,0.4,0.8,0.8
				c0.1,0.3,0.2,0.5,0.3,0.8c0,0.1,0,0.1,0.1,0.2c0,0.1,0.2,0.2,0.3,0.2c0.1,0,0.1-0.1,0.1-0.2c0.1-0.3,0.1-0.6,0.2-0.9
				c0.1-0.3,0.2-0.4,0.5-0.5c0.3-0.1,0.6-0.1,0.9-0.1c0.2,0,0.5,0.1,0.7,0.2c0.2,0.1,0.3,0.2,0.5,0.3c0,0,0.1,0.1,0.1,0.1
				c0.2,0.1,0.3,0.1,0.3-0.1c0.1-0.5,0.1-0.9,0.1-1.4c0-0.1,0-0.2,0-0.3c0.1,0,0.1,0,0.1,0.1c0.1,0.2,0.3,0.2,0.4,0.3
				c0.2,0.1,0.4,0.3,0.7,0.4c0.2,0.1,0.3,0.2,0.5,0.3c0.3,0.2,0.6,0.3,0.9,0.5c0.1,0,0.1,0.1,0.2,0.1c0.2,0.2,0.4,0.3,0.6,0.5
				c0.3,0.2,0.5,0.4,0.6,0.7c0.2,0.6,0.4,1.1,0.6,1.7c0.3,0.9,0.6,1.8,0.9,2.7c0.1,0.4,0.2,0.9,0.4,1.3c0.1,0.2,0,0.4-0.1,0.5
				c-0.4,0.4-0.9,0.7-1.5,0.8c0,0-0.1,0-0.1,0c0,0,0,0-0.1,0c0,0,0-0.1,0-0.1c0-0.6,0-1.2,0-1.7c0-0.4-0.1-0.6-0.4-0.8
				c-0.3-0.3-0.6-0.5-0.9-0.6c-0.1,0-0.3-0.1-0.4-0.2c-0.3-0.2-0.7-0.4-1.1-0.5c-0.1,0-0.2-0.1-0.3-0.1c-0.4-0.2-0.7-0.2-1.1-0.3
				c-0.9-0.1-1.8-0.2-2.6-0.2c-0.7,0-1.4,0-2,0c-0.9,0-1.7,0.1-2.6,0.1c0,0-0.1,0-0.1,0C21.2,15.4,20.5,13.9,19.8,12.3z"/>
			<path class="st32" d="M23.6,6.3c-0.2-0.3-0.1-1,0.3-1.3C24,5.1,24,5.2,24,5.4c0,0.2,0.1,0.3,0.3,0.2c0.2,0,0.2-0.1,0.3-0.3
				c0-0.3,0.1-0.6,0.3-0.8c0.1-0.1,0.1-0.3,0.3-0.3c0,0,0.1,0,0.1-0.1c0.4-0.4,1-0.6,1.6-0.7c0.3-0.1,0.7-0.1,1-0.1
				c0.6,0,1.1,0.2,1.6,0.6c0.1,0.1,0.2,0.2,0.3,0.3c0.1,0.2,0.2,0.4,0.2,0.6c0,0.2,0,0.3,0,0.5c-0.2,0.8-0.4,1.5-0.6,2.3
				c-0.1,0.4-0.2,0.8-0.4,1.2c-0.2,0.5-0.5,0.9-0.8,1.3c-0.3,0.3-0.7,0.5-1.1,0.5c-0.2,0-0.4,0-0.6,0c-0.5,0-0.9-0.3-1.2-0.6
				c-0.8-0.6-1.2-1.4-1.2-2.4c0-0.4,0.1-0.9,0.1-1.3c0-0.1,0-0.2,0-0.2c-0.1-0.1-0.1,0-0.2,0.1C23.7,6.2,23.7,6.2,23.6,6.3z M27,8.8
				c0.2,0,0.4,0,0.6-0.1c0.1-0.1,0.2-0.2,0.1-0.2c-0.1-0.1-0.2-0.1-0.2,0c-0.1,0-0.2,0.1-0.3,0.1c-0.5,0-1-0.2-1.3-0.6c0,0,0,0,0,0
				c0,0-0.1-0.1-0.1,0c0,0-0.1,0.1-0.1,0.1c0,0.1,0,0.2,0.1,0.3c0.1,0.1,0.2,0.3,0.4,0.4C26.4,8.6,26.7,8.8,27,8.8z M27.3,7.4
				c0.2,0,0.4-0.1,0.6-0.2C28,7.1,28,7,27.9,6.9c-0.1-0.1-0.2,0-0.2,0c-0.3,0.2-0.6,0.2-0.8-0.1c-0.1-0.1-0.1-0.2-0.2-0.1
				c-0.1,0.1,0,0.2,0,0.3c0,0.1,0.1,0.1,0.1,0.1C26.9,7.2,27.1,7.4,27.3,7.4z M26.3,5.2c0-0.1-0.1-0.2-0.2-0.2
				c-0.1,0-0.2,0.1-0.2,0.3c0,0.1,0.1,0.2,0.2,0.2C26.2,5.5,26.3,5.4,26.3,5.2z M28.9,5.5c0-0.1,0-0.2-0.1-0.3
				c-0.1,0-0.2,0.1-0.2,0.1c0,0.1,0,0.1,0,0.2c0,0.1,0.1,0.2,0.2,0.2c0.1,0,0.2-0.1,0.2-0.1C28.9,5.6,28.9,5.6,28.9,5.5z"/>
			<path class="st37" d="M52.8,33.9c0.1,0.2,0.2,0.3,0.2,0.5c0.1,0.4,0.1,0.9,0.2,1.3c0,0.9,0.1,1.7,0.1,2.6c0,1.4,0.1,2.8,0.2,4.1
				c0.1,2.4,0.1,4.8,0.1,7.1c0,3.8,0,7.6,0,11.3c0,1.8,0,3.7,0.1,5.5c0,1.4,0,2.7,0,4.1c0,0,0,0.1,0,0.2c-0.3,0-0.5,0-0.8-0.1
				c0-0.1,0-0.2,0-0.3c0-1.7,0-3.3,0.1-5c0.1-4.3,0.1-8.6,0.1-12.9c0-1.6,0-3.2-0.1-4.8c0-1.5-0.1-2.9-0.2-4.4c0-0.7,0-1.3-0.1-2
				c-0.1-1.5-0.2-3-0.3-4.5c0-0.3,0-0.6,0-0.9c0-0.2,0-0.3,0-0.5c0-0.1,0-0.1,0-0.2C52.6,34.8,52.8,34.4,52.8,33.9
				C52.8,33.9,52.8,33.9,52.8,33.9z"/>
			<path class="st37" d="M41.2,17c0.1,0.1,0.2,0.1,0.3,0.2c0.4,0.4,1,0.6,1.5,0.8c0.4,0.1,0.9,0.1,1.3-0.1c0.4-0.2,0.8-0.5,1-0.9
				c0.1-0.2,0.2-0.5,0.3-0.7c0.1-0.3,0.1-0.5,0.2-0.8c0.3,0.1,0.3,0.1,0.6,0c0,0.4,0,0.7,0,1.1c-0.1,0.8-0.2,1.6-0.3,2.3
				c0,0.3-0.1,0.5-0.2,0.8c-0.1,0.4-0.1,0.8-0.2,1.2c-0.2,1-0.5,1.9-0.9,2.8c-0.2,0.4-0.3,0.8-0.4,1.1c0,0.1-0.1,0.2-0.1,0.4
				c-0.1-0.1-0.1-0.1-0.1-0.2c-0.3-0.6-0.6-1.2-0.9-1.7c-0.3-0.5-0.5-1.1-0.8-1.6c-0.3-0.7-0.5-1.4-0.8-2.1c-0.3-0.6-0.4-1.3-0.6-2
				C41.2,17.3,41.2,17.1,41.2,17C41.1,17,41.2,17,41.2,17z"/>
			<path class="st32" d="M45.4,11.9c0.3,0.3,0.5,1.1,0.4,1.4c0,0,0,0,0,0c-0.3-0.1-0.4,0-0.3,0.3c0.1,0.6,0.1,1.1,0.1,1.7
				c0,0.5-0.2,0.9-0.4,1.3C45,16.8,45,17,44.8,17.1c-0.3,0.2-0.5,0.4-0.9,0.5c-0.3,0.1-0.6,0-0.9,0c-0.5-0.1-1-0.4-1.4-0.7
				c-0.8-0.6-1.2-1.4-1.4-2.3c-0.2-0.6,0-1.2,0.4-1.7c0.2-0.2,0.3-0.4,0.5-0.6c0.2-0.3,0.4-0.6,0.5-0.9c0,0,0-0.1,0.1-0.2
				c0.1,0.1,0.2,0.2,0.3,0.3c0.3,0.2,0.6,0.3,1,0.4c0.6,0.2,1.2,0.2,1.8,0.3c0,0,0,0,0,0c0.1,0,0.3,0.1,0.4,0
				C45.2,12.2,45.3,12.1,45.4,11.9C45.4,11.9,45.4,11.9,45.4,11.9z M42.1,13.3C42,13.5,42,13.5,42,13.6c0,0.2,0.1,0.4,0.1,0.6
				c0,0.4,0.1,0.7,0.1,1.1c0,0.2,0.1,0.3,0.3,0.2c0.2-0.1,0.4-0.3,0.5-0.5c0.1-0.1,0.1-0.3,0-0.3c-0.1-0.1-0.2,0.1-0.2,0.1
				c-0.1,0.1-0.1,0.3-0.3,0.4c0-0.3-0.1-0.5-0.1-0.7C42.4,14,42.2,13.7,42.1,13.3z M44.3,14.8c0,0-0.1-0.1-0.1-0.2
				c-0.1,0-0.2,0.1-0.2,0.2c0,0.1,0,0.1,0,0.2c-0.1,0.5-0.3,0.9-0.8,1.1c-0.1,0-0.2,0.1-0.3,0.2c0,0-0.1,0.1-0.1,0.1
				c0,0,0.1,0.1,0.1,0.1c0.1,0,0.1,0,0.2,0c0.1,0,0.1-0.1,0.2-0.1C44,16,44.2,15.5,44.3,14.8z M43,13.1c0,0.2,0.1,0.3,0.2,0.4
				c0.1,0.1,0.2,0,0.2-0.1c0-0.1,0-0.3-0.1-0.4c-0.1-0.1-0.1-0.2-0.3-0.1C43,12.9,43,13,43,13.1z M40.8,13.8c0,0.2,0.1,0.4,0.3,0.5
				c0.1,0,0.2,0,0.2-0.2c0-0.1-0.1-0.3-0.2-0.4c0,0-0.1-0.1-0.2,0C40.9,13.7,40.8,13.7,40.8,13.8z M43.1,13.9c0.1,0.1,0.2,0.1,0.3,0
				c0.3-0.1,0.4-0.2,0.4-0.4C43.6,13.6,43.4,13.8,43.1,13.9z M40.9,14.6C40.9,14.6,40.9,14.7,40.9,14.6c0.3,0.2,0.4,0,0.6-0.1
				c0.1,0,0.1-0.1,0-0.2c-0.1,0.1-0.2,0.1-0.3,0.2C41.1,14.6,41,14.6,40.9,14.6z"/>
			<path class="st32" d="M42.1,64.1c-0.4,0.1-0.7,0.3-1.1,0.3c-0.2,0-0.4,0.1-0.6,0.2c-0.2,0-0.4,0.1-0.6,0.1c0-0.1,0-0.1,0-0.2
				c-0.1-1-0.1-2.1-0.2-3.1c0-0.1,0-0.2,0-0.2c0-0.8-0.1-1.6-0.1-2.4c0-0.5-0.1-1-0.1-1.5c0-0.2-0.1-0.4-0.1-0.6c0.1,0,0.1,0,0.2,0
				c0.3,0.1,0.7,0.3,1,0.4c0.2,0.1,0.4,0.1,0.7,0.2c0.4,0.1,0.8,0.2,1.3,0.3C42.2,59.8,42.2,62,42.1,64.1z"/>
			<path class="st32" d="M28.8,35c0.1-0.1,0.2-0.2,0.3-0.2c0.3-0.1,0.6-0.3,0.9-0.4c0.7-0.3,1.1-0.8,1.2-1.5c0,0,0-0.1,0-0.1
				c0.2-0.2,0-0.4,0-0.7c0-0.2-0.1-0.4-0.3-0.6c-0.1-0.1-0.2-0.2-0.4-0.2c-0.4,0-0.7,0.2-0.9,0.4C29.5,32,29.4,32,29.1,32
				c0-0.1,0-0.1,0-0.2c0.1-0.3,0.2-0.6,0.6-0.7c0.1-0.1,0.2-0.1,0.4-0.2c0.4-0.2,0.7-0.3,1.1-0.5c0.4-0.2,0.8-0.1,1,0.2
				c0.1,0.1,0.3,0.3,0.4,0.4c0,0,0.1,0,0.1,0.1c0-0.1,0.1-0.1,0-0.2c-0.1-0.1-0.2-0.3-0.2-0.4c0.4-1.4,0.8-2.7,1-4.1
				c0.3,0,0.6,0,0.9-0.2c0.5-0.2,0.9-0.5,1.3-0.9c0,0,0.1-0.1,0.2-0.1c0,0.2,0,0.4-0.1,0.6c-0.1,0.8-0.3,1.6-0.6,2.4
				c-0.2,0.5-0.4,1.1-0.7,1.6c-0.2,0.5-0.5,1.1-0.9,1.5c0,0-0.1,0.1-0.1,0.2c0,0.1-0.1,0.2-0.1,0.3c-0.4,0.7-0.9,1.3-1.4,1.8
				c-0.2,0.2-0.3,0.3-0.5,0.5c-0.7,0.6-1.6,0.8-2.5,0.8C28.9,35.1,28.9,35,28.8,35z"/>
			<path class="st32" d="M21.7,17c-0.7,0.2-1.4,0.4-2.2,0.5c-0.1-0.2-0.3-0.4-0.4-0.7c-0.4-0.8-0.9-1.7-1.3-2.5
				c-0.4-0.8-0.7-1.6-1-2.4c-0.3-0.7-0.5-1.4-0.5-2.2c0-0.2,0-0.4,0-0.6c0.1-0.4,0.4-0.6,0.8-0.3c0.2,0.1,0.4,0.3,0.6,0.5
				c0.2,0.2,0.3,0.3,0.4,0.5c0.6,0.9,1.1,1.9,1.5,2.9c0.4,0.9,0.8,1.8,1.2,2.7c0.2,0.5,0.5,0.9,0.7,1.4C21.7,16.9,21.7,16.9,21.7,17
				z M17,10.8c0,0,0.1,0,0.1,0c0.2-0.1,0.5-0.2,0.7-0.4c0,0,0.1-0.1,0.1-0.2c0-0.1-0.1-0.1-0.2-0.1c-0.3,0.1-0.5,0.3-0.8,0.4
				c0,0,0,0.1,0,0.2C16.9,10.7,16.9,10.8,17,10.8z M18.9,13.1c-0.2,0.1-0.4,0.2-0.6,0.2c-0.1,0-0.2,0.1-0.1,0.2
				c0.1,0.1,0.1,0.1,0.2,0c0.1-0.1,0.3-0.1,0.4-0.1c0.1,0,0.1,0,0.2-0.1c0,0,0.1-0.1,0.1-0.2C19,13.2,18.9,13.2,18.9,13.1z M20.2,16
				c-0.2,0.1-0.3,0.1-0.5,0.2c-0.1,0-0.1,0.1-0.1,0.2c0,0.1,0.1,0.1,0.2,0.1c0.1,0,0.3-0.1,0.4-0.1c0.2,0,0.3-0.1,0.2-0.2
				C20.4,16.1,20.3,16.1,20.2,16z M18.2,11.5c-0.3,0-0.5,0.1-0.7,0.3c-0.1,0-0.1,0.1-0.1,0.2c0,0.1,0.1,0.1,0.2,0
				c0.2-0.1,0.4-0.1,0.6-0.2c0.1,0,0.1-0.1,0.1-0.2C18.3,11.5,18.2,11.5,18.2,11.5z M19.5,14.7c-0.2,0.1-0.4,0.1-0.5,0.2
				c-0.1,0-0.1,0.1-0.1,0.2c0,0,0.1,0.1,0.2,0.1c0.2,0,0.3-0.1,0.5-0.1c0.1,0,0.1-0.1,0.1-0.2C19.6,14.8,19.6,14.8,19.5,14.7z"/>
			<path class="st6" d="M27.3,66.1c1,0,1.9,0.1,2.9,0.1c0,0,0,0.1,0.1,0.1c0.1,0.5,0.4,1,0.8,1.3c0.3,0.3,0.5,0.5,0.8,0.8
				c0.3,0.3,0.7,0.6,1,1c0.1,0.2,0.2,0.3,0.2,0.5c0,0.1,0,0.1,0,0.2c0,0.5-0.2,0.5-0.6,0.7c-0.3,0.1-0.6,0.1-1,0
				c-0.4-0.1-0.7-0.3-1-0.5c-0.3-0.2-0.6-0.3-0.9-0.5c-0.3-0.2-0.7-0.3-1-0.4c-0.1,0-0.3-0.1-0.4-0.1c-0.4,0-0.6-0.2-0.7-0.5
				c-0.2-0.3-0.2-0.7-0.2-1c0-0.4,0.1-0.8,0.1-1.2C27.2,66.3,27.3,66.2,27.3,66.1z"/>
			<path class="st33" d="M33.2,32.9c0,1.1,0,2.2,0,3.3c-0.3,0-0.5-0.1-0.7-0.1c-1.2-0.2-2.4-0.3-3.7-0.4c-0.1,0-0.2,0-0.3,0
				c-1,0-2.1,0-3.1,0c-0.7,0-1.4,0.1-2.1,0.2c-0.6,0.1-1.1,0.1-1.7,0.2c-0.6,0.1-1.3,0.1-1.9,0.2c-0.4,0-0.7,0.1-1.1,0.1
				c-0.2,0-0.4,0.1-0.6,0.1c-0.1-0.6-0.1-1.1-0.2-1.7c0.1,0,0.2,0,0.3,0.1c0.2,0.1,0.5,0.1,0.7,0.1c0.2,0,0.4,0,0.6,0
				c0.2,0,0.3-0.1,0.5-0.2c0.1,0,0.2-0.1,0.3-0.1c0.1-0.1,0.3-0.1,0.5,0c0.7,0.1,1.4,0.3,2.1,0.4c0.6,0.1,1.1,0.1,1.7,0.2
				c0.3,0,0.6,0.1,0.8,0.1c0.9,0.1,1.7,0.1,2.6-0.1c0.1,0,0.1,0,0.2,0c0.1,0,0.3,0,0.4-0.1c0.1,0,0.1,0,0.2-0.1
				c0.1,0.3,0.3,0.3,0.5,0.3c0.8,0,1.5-0.1,2.1-0.5c0.3-0.2,0.6-0.4,0.8-0.6C32.4,33.8,32.8,33.4,33.2,32.9z"/>
			<path class="st32" d="M50.8,57.4c0,2.2-0.1,4.4-0.1,6.7c-0.1,0-0.2,0-0.2,0c-0.2,0-0.4,0.1-0.5,0.1c-0.3,0.1-0.5,0.2-0.8,0.3
				c-0.2-0.3-0.2-0.6-0.2-0.8c-0.1-0.7-0.2-1.4-0.3-2.1c0-0.3-0.1-0.6-0.1-0.9c-0.1-0.4-0.1-0.7-0.2-1.1c-0.1-0.5-0.1-1-0.2-1.4
				C49,57.9,50,57.8,50.8,57.4z"/>
			<path class="st6" d="M23.1,66.3c0.1,0.1,0.2,0.3,0.2,0.4c0,0.4,0,0.8,0,1.2c0,0.2-0.1,0.4-0.3,0.6c-0.6,0.6-1.3,1.1-2,1.6
				c-0.2,0.2-0.5,0.3-0.7,0.3c-0.4,0-0.8,0-1.2,0c-0.3,0-0.6-0.1-0.8-0.3c-0.3-0.2-0.4-0.5-0.2-0.8c0.1-0.2,0.3-0.3,0.4-0.5
				c0.5-0.3,0.9-0.7,1.3-1.2c0.2-0.3,0.4-0.6,0.5-0.9c0-0.2,0.1-0.2,0.2-0.2c0.9,0.1,1.7,0.1,2.6-0.2C23,66.3,23.1,66.3,23.1,66.3z"
				/>
			<path class="st6" d="M37.8,71.1c0.3-0.4,0.5-0.7,0.7-1c0.4-0.6,0.8-1.2,1-1.9c0.1-0.3,0.1-0.5,0.1-0.8c0-0.1,0-0.3,0.1-0.4
				c0.1-0.5,0.1-1.1,0.1-1.6c0-0.1,0-0.2,0-0.3c0.4-0.1,0.8-0.3,1.3-0.3c0.4,0,0.8-0.3,1.2-0.4c0,0.1,0,0.2,0,0.2
				c-0.1,0.6-0.1,1.1-0.2,1.7c-0.1,0.5-0.1,1.1-0.2,1.6c-0.1,0.5-0.2,1.1-0.2,1.6c0,0.2,0,0.2-0.3,0.2c0-0.2,0-0.3,0.1-0.5
				c0-0.2,0-0.4,0-0.7c0-0.1-0.1-0.2-0.1-0.2c-0.1-0.1-0.2,0-0.2,0.1c0,0.1-0.1,0.1-0.1,0.2c-0.3,0.4-0.5,0.8-0.8,1.2
				c-0.3,0.4-0.6,0.8-1.1,1c-0.3,0.1-0.6,0.3-0.9,0.3C38.1,71.2,38,71.2,37.8,71.1z"/>
			<path class="st37" d="M46,12.5c0-0.1,0-0.3-0.1-0.3c-0.1-0.2-0.2-0.4-0.3-0.5c-0.2-0.2-0.4-0.1-0.5,0.1c0,0.1-0.1,0.2-0.1,0.2
				c-0.9,0-1.7-0.1-2.6-0.4c-0.2-0.1-0.5-0.2-0.7-0.4c0,0-0.1-0.1-0.1-0.2c0.1-0.6,0-1.2-0.2-1.8c0,0,0,0,0-0.1
				c0.6-0.3,1.3-0.5,2-0.4c0.1,0,0.1,0,0.2,0.1c0.5,0.2,1,0.5,1.4,0.9c0.6,0.6,1.1,1.2,1.2,2.1C46.2,11.9,46.2,12.2,46,12.5z"/>
			<path class="st32" d="M23.5,11.5c0.1-0.8,0.3-1.6,0.4-2.5C23.9,9.1,24,9.1,24,9.2c0.4,0.7,1,1.2,1.8,1.5c0.5,0.2,1,0.3,1.6,0.2
				c0.3-0.1,0.6-0.2,0.9-0.5c0,0,0.1-0.1,0.1-0.1c0,0,0,0,0,0c0,0.4-0.1,0.7-0.2,1c-0.3,0.7-0.9,1.2-1.6,1.5
				c-0.2,0.1-0.3,0.2-0.3,0.3c0,0.4-0.1,0.7-0.2,1.1c0,0,0,0-0.1,0c0-0.1,0-0.1-0.1-0.2c-0.1-0.2-0.1-0.5-0.2-0.7
				c-0.1-0.5-0.5-0.8-1-1c-0.1-0.1-0.2-0.1-0.3-0.2C24.1,12,23.8,11.7,23.5,11.5z"/>
			<path class="st6" d="M48.8,64.9c0.2-0.1,0.3-0.1,0.5-0.1c0.3,0,0.5-0.1,0.8-0.3c0.2-0.1,0.4-0.1,0.6-0.2c0.1,0.1,0.2,0.2,0.2,0.3
				c0,0.7,0,1.4-0.1,2.1c0,0.7-0.1,1.3-0.2,2c-0.1,0.6-0.2,1.1-0.5,1.6c-0.1,0.1-0.1,0.2-0.2,0.4c-0.2-0.2-0.3-0.4-0.4-0.6
				c-0.2-0.4-0.3-0.8-0.4-1.2c-0.1-0.3-0.2-0.6-0.2-1c0-0.4,0-0.9,0-1.3c0-0.4-0.1-0.9-0.1-1.3C48.8,65.2,48.8,65,48.8,64.9z"/>
			<path class="st32" d="M16.9,29.2c-0.4,0.3-0.7,0.6-1.1,1c-0.2-0.5-0.3-1-0.4-1.5c-0.1-0.5-0.1-0.9-0.1-1.4c0-0.7,0-1.4,0.1-2.2
				c0.1-0.7,0.2-1.3,0.3-2c0-0.3,0.1-0.7,0.1-1c0.3,0.1,0.5,0.2,0.8,0.3c0,0.2,0,0.4-0.1,0.7c-0.1,0.6-0.1,1.3,0,1.9
				c0,0.9,0.1,1.9,0.2,2.8c0,0.4,0.1,0.8,0.2,1.2C16.9,29.1,16.9,29.2,16.9,29.2z"/>
			<path class="st38" d="M30.1,3.3C30.1,3.3,30.1,3.3,30.1,3.3c-0.5-0.5-1.1-0.7-1.6-0.9c-0.6-0.2-1.2-0.1-1.8,0
				c-0.6,0.1-1.1,0.3-1.6,0.6c-0.2,0.1-0.4,0.2-0.5,0.4c-0.1,0.1-0.2,0.1-0.3,0.2c-0.1,0.1-0.2,0.1-0.3,0.2c0.1-0.6,0.3-1.1,0.5-1.6
				C24.6,2.2,24.7,2,24.8,2c0.7-0.5,1.4-0.9,2.3-1.2c0.3-0.1,0.6-0.1,0.9,0.1c0.4,0.2,0.8,0.3,1.2,0.6c0.3,0.2,0.6,0.4,0.8,0.6
				C30.3,2.4,30.3,2.9,30.1,3.3z"/>
			<path class="st32" d="M18.5,30.8c-0.2,0-0.4,0-0.5-0.1c-0.1,0-0.3-0.1-0.4-0.1c-0.1,0-0.2,0.1-0.3,0.2c-0.1,0.3-0.2,0.7-0.4,1
				c0,0.1,0,0.1,0,0.2c0.2,0.4,0.3,0.8,0.5,1.1c0.3,0.5,0.8,0.8,1.4,0.8c0.3,0,0.5,0.1,0.8,0.2c0.1,0,0.2,0.1,0.3,0.1
				c-0.1,0.2-0.3,0.4-0.6,0.4c-0.2,0-0.4,0-0.6,0c-0.1,0-0.3,0-0.4,0c-0.3-0.1-0.6-0.2-0.9-0.2c-0.3-0.1-0.5-0.3-0.7-0.6
				c-0.2-0.2-0.3-0.4-0.5-0.6c0-0.1-0.1-0.1-0.1-0.2c-0.2-0.4-0.4-0.8-0.6-1.2c-0.1-0.2-0.1-0.5,0-0.7c0.1-0.3,0.3-0.6,0.6-0.8
				c0.3-0.3,0.5-0.5,0.8-0.8c0.1-0.1,0.2-0.1,0.4,0c0.3,0.2,0.7,0.5,1,0.7C18.5,30.4,18.5,30.6,18.5,30.8z"/>
			<path class="st37" d="M39.8,14.3c-0.1-0.1-0.1-0.2-0.2-0.2c-0.1-0.3-0.3-0.6-0.4-0.9c-0.3-0.6-0.2-1.3,0-1.9
				c0.4-0.8,0.9-1.4,1.7-1.8c0,0,0.1,0,0.1-0.1c0,0,0.1,0,0.1-0.1c0.1,0.2,0.1,0.4,0.2,0.6c0.1,0.6,0.1,1.2-0.2,1.7
				c-0.1,0.2-0.2,0.3-0.3,0.5c-0.2,0.2-0.4,0.4-0.5,0.7c-0.2,0.3-0.4,0.6-0.4,0.9C39.9,13.9,39.9,14,39.8,14.3z"/>
			<path class="st37" d="M18.9,17.8c-0.2,0-0.3,0.1-0.5,0.1c0,0,0,0-0.1,0c-0.6-1-1.3-1.8-2-2.7c-0.6-0.8-1.1-1.6-1.6-2.4
				c-0.3-0.5-0.6-1.1-0.9-1.6c-0.1-0.1-0.1-0.2-0.2-0.3c0.1-0.2,0.2-0.3,0.4-0.5c0.1,0.1,0.1,0.1,0.2,0.2c0.4,0.7,0.8,1.3,1.3,2
				c0.2,0.3,0.3,0.5,0.5,0.7c0.3,0.6,0.7,1.1,1,1.7c0.4,0.7,0.9,1.3,1.3,2C18.5,17.2,18.6,17.5,18.9,17.8z"/>
			<path class="st37" d="M12.5,12c0.1,0.1,0.1,0.1,0.1,0.1c0.6,0.6,1.2,1.3,1.7,1.9c1,1.1,1.9,2.2,2.9,3.2c0.2,0.2,0.4,0.4,0.5,0.5
				c0,0,0.1,0.1,0.2,0.2c-0.2,0.1-0.4,0.1-0.6,0.1c0,0-0.1,0-0.1-0.1c-0.2-0.4-0.6-0.7-0.9-1c-1.1-1.1-2.2-2.1-3.4-3.2
				c-0.3-0.2-0.5-0.5-0.8-0.7c-0.1-0.1-0.1-0.2-0.1-0.4C12.3,12.6,12.4,12.3,12.5,12z"/>
			<path class="st33" d="M16.7,22.1c-0.3-0.1-0.7-0.2-0.9-0.4c-0.4-0.4-0.4-0.4-0.4-0.9c0-0.4,0.2-0.7,0.2-1.1
				c0.1-0.7,0.2-1.3,0.4-2c0-0.1,0-0.1,0.1-0.2c0.4,0.3,0.8,0.5,1.1,0.8c-0.1,0.5-0.2,1-0.3,1.5c0,0.3-0.1,0.5-0.1,0.8
				c0,0.2,0,0.5-0.1,0.7C16.7,21.5,16.7,21.8,16.7,22.1z"/>
			<path class="st32" d="M50.8,32.3c0.6,0,1.1,0.2,1.7,0.5c0,0.3,0,0.6,0,0.9c0,0.4-0.1,0.8-0.3,1.1c-0.1,0.2-0.3,0.4-0.6,0.5
				c-0.4,0.1-0.9-0.2-1-0.6c-0.2-0.8-0.1-1.5,0.1-2.2C50.8,32.4,50.8,32.3,50.8,32.3z"/>
			<path class="st32" d="M33.5,26.1c0-0.4,0.1-0.7,0.1-1.1c0-0.2,0-0.4,0-0.6c0-0.1,0.1-0.2,0.2-0.3c0.2-0.1,0.3-0.3,0.5-0.4
				c0.4-0.3,0.9-0.3,1.4-0.2c0.5,0.1,0.6,0.5,0.4,1c-0.2,0.3-0.4,0.5-0.7,0.7c-0.3,0.3-0.8,0.5-1.2,0.7C34,26.2,33.8,26.2,33.5,26.1
				z"/>
			<path class="st37" d="M42.9,8.3c-0.3,0.1-0.6,0.2-1,0.3c-0.2,0.1-0.3,0.2-0.4,0.2c-0.1,0.1-0.3,0.2-0.4,0.3c0,0,0,0,0,0
				c-0.2,0.1-0.8,0-0.9-0.3c-0.1-0.2-0.1-0.5,0-0.7c0.2-0.6,0.7-1,1.3-1.1c0.1,0,0.2,0,0.3,0c0.3,0,0.5,0.1,0.7,0.3
				c0.1,0.1,0.2,0.2,0.2,0.3C42.8,7.8,42.9,8.1,42.9,8.3z"/>
			<path class="st32" d="M35.6,20.9c0.1,0.8,0.1,1.5,0.2,2.3c-0.4,0-0.7,0.1-1.1,0.1c-0.4,0-0.7,0.3-0.9,0.6c0,0,0,0-0.1,0
				c0-0.7,0-1.5,0.1-2.2c0.4,0,0.7-0.1,1-0.2C35,21.3,35.3,21.1,35.6,20.9z"/>
			<path class="st37" d="M15.2,10c0.1-0.1,0.2-0.2,0.3-0.3c0,0.1,0.1,0.1,0.1,0.2c0.2,0.4,0.4,0.8,0.6,1.2c0,0.1,0.1,0.1,0.1,0.2
				c0.3,0.8,0.6,1.6,0.9,2.3c0.5,1.1,1,2.2,1.6,3.2c0.1,0.2,0.2,0.4,0.4,0.6c0,0,0.1,0.1,0.1,0.2c-0.1,0-0.1,0-0.2,0.1
				c-0.5-0.8-1.1-1.6-1.6-2.4c-0.3-0.4-0.6-0.9-0.8-1.4c-0.1-0.2-0.1-0.4-0.2-0.5c-0.3-0.7-0.5-1.4-0.8-2.1c-0.1-0.3-0.3-0.6-0.4-1
				C15.3,10.2,15.2,10.1,15.2,10z"/>
			<path class="st33" d="M22,10.4c0.2,0.4,0.6,0.8,0.9,1c0.3,0.2,0.7,0.5,1,0.7c0.1,0,0.1,0.1,0.2,0.2c-0.1,0.1-0.2,0.1-0.3,0.1
				c-0.1,0.1-0.3,0.1-0.5,0.2c-0.4,0.1-0.7,0.3-1,0.6c-0.1-0.2-0.2-0.3-0.3-0.4c-0.4-0.6-0.5-1.3-0.4-2C21.7,10.7,21.8,10.6,22,10.4
				z"/>
			<path class="st38" d="M24.8,3.6c0.1-0.1,0.2-0.2,0.3-0.2c0.6-0.4,1.3-0.7,2-0.7c0.7-0.1,1.4,0,2.1,0.3c0.3,0.2,0.6,0.3,0.8,0.6
				c0.1,0.1,0.2,0.3,0.3,0.4c0.1,0.2,0.1,0.5-0.1,0.8c0-0.1-0.1-0.2-0.1-0.3c-0.1-0.4-0.4-0.7-0.8-0.9c-0.5-0.3-1.1-0.4-1.7-0.4
				c-0.7,0-1.4,0.1-2,0.5c-0.1,0.1-0.3,0.2-0.4,0.3C25.1,4,25,4,25,3.9C24.9,3.8,24.9,3.7,24.8,3.6z"/>
			<path class="st37" d="M50.3,34.7c-0.4,0.2-0.6,0.6-0.5,1.1c0,0.3,0,0.5,0.1,0.8c-0.2,0.1-0.5,0.2-0.8,0.1c0-0.1,0-0.1,0-0.2
				c0-0.5,0-1,0.1-1.5c0.1-0.6,0.4-1.1,0.8-1.5c0.1-0.1,0.2-0.1,0.2-0.2C50.2,33.8,50.2,34.2,50.3,34.7z"/>
			<path class="st33" d="M28.6,10.4c0.6,0.5,0.9,2,0.6,2.7c-0.5-0.3-1.1-0.5-1.7-0.5C28.2,12,28.5,11.2,28.6,10.4z"/>
			<path class="st33" d="M23.2,11.3c-0.4-0.2-0.7-0.5-0.9-0.8c-0.1-0.1-0.1-0.2,0-0.3c0.3-0.1,0.7-0.3,1-0.4c0,0,0.1,0,0.1,0
				C23.4,10.3,23.3,10.8,23.2,11.3z"/>
			<path class="st37" d="M12.5,14.6c0.1-0.2,0.2-0.3,0.3-0.4c0.9,0.8,1.6,1.6,2.4,2.3C14.4,15.9,13.4,15.3,12.5,14.6z"/>
			<path class="st6" d="M24.3,5.4c-0.1-0.3-0.1-0.7-0.5-0.8c0.1-0.5,0.4-0.7,0.8-0.9c0.1,0.1,0.1,0.2,0.2,0.4
				C24.6,4.5,24.4,4.9,24.3,5.4z"/>
			<path class="st32" d="M30,6c0.2,0.3,0.1,0.6,0,0.9c0,0.1-0.1,0.1-0.2,0C29.8,6.7,29.9,6.4,30,6z"/>
			<path class="st6" d="M27,8.8c-0.3,0-0.7-0.1-1-0.3c-0.1-0.1-0.3-0.2-0.4-0.4c-0.1-0.1-0.1-0.2-0.1-0.3c0,0,0.1-0.1,0.1-0.1
				c0,0,0.1,0,0.1,0c0,0,0,0,0,0c0.3,0.5,0.8,0.6,1.3,0.6c0.1,0,0.2,0,0.3-0.1c0.1,0,0.2-0.1,0.2,0c0.1,0.1,0,0.2-0.1,0.2
				C27.4,8.8,27.3,8.8,27,8.8z"/>
			<path class="st6" d="M27.3,7.4c-0.2,0-0.4-0.1-0.6-0.2c0,0-0.1-0.1-0.1-0.1c0-0.1-0.1-0.2,0-0.3c0.1-0.1,0.2,0,0.2,0.1
				c0.2,0.2,0.6,0.3,0.8,0.1c0.1-0.1,0.2-0.1,0.2,0c0.1,0.1,0,0.2,0,0.3C27.7,7.3,27.6,7.4,27.3,7.4z"/>
			<path class="st6" d="M26.3,5.2c0,0.2-0.1,0.3-0.2,0.3c-0.1,0-0.2-0.1-0.2-0.2C25.9,5.1,26,5,26.2,5C26.3,5,26.3,5.1,26.3,5.2z"/>
			<path class="st6" d="M28.9,5.5c0,0,0,0.1,0,0.1c0,0.1-0.1,0.2-0.2,0.1c-0.1,0-0.2-0.1-0.2-0.2c0-0.1,0-0.1,0-0.2
				c0-0.1,0.1-0.2,0.2-0.1C28.9,5.3,28.9,5.4,28.9,5.5z"/>
			<path class="st6" d="M42.1,13.3c0.1,0.4,0.3,0.7,0.3,1.2c0,0.2,0,0.5,0.1,0.7c0.2-0.1,0.2-0.2,0.3-0.4c0.1-0.1,0.1-0.2,0.2-0.1
				c0.1,0,0.1,0.2,0,0.3c-0.1,0.2-0.3,0.4-0.5,0.5c-0.2,0.1-0.3,0-0.3-0.2c0-0.4,0-0.7-0.1-1.1c0-0.2-0.1-0.4-0.1-0.6
				C42,13.5,42,13.5,42.1,13.3z"/>
			<path class="st6" d="M44.3,14.8c-0.1,0.7-0.3,1.3-1,1.6c-0.1,0-0.1,0.1-0.2,0.1c-0.1,0-0.1,0.1-0.2,0c-0.1,0-0.1-0.1-0.1-0.1
				c0,0,0-0.1,0.1-0.1c0.1-0.1,0.2-0.1,0.3-0.2c0.5-0.2,0.7-0.6,0.8-1.1c0-0.1,0-0.1,0-0.2c0-0.1,0.1-0.2,0.2-0.2
				C44.3,14.6,44.3,14.8,44.3,14.8z"/>
			<path class="st6" d="M43,13.1c0-0.1,0-0.2,0.1-0.3c0.1,0,0.2,0,0.3,0.1c0.1,0.1,0.1,0.3,0.1,0.4c0,0.1-0.1,0.1-0.2,0.1
				C43.1,13.4,43,13.3,43,13.1z"/>
			<path class="st6" d="M40.8,13.8c0,0,0.1-0.1,0.1-0.1c0,0,0.2,0,0.2,0c0.1,0.1,0.2,0.3,0.2,0.4c0,0.1-0.1,0.2-0.2,0.2
				C40.9,14.2,40.8,14,40.8,13.8z"/>
			<path class="st6" d="M43.1,13.9c0.3-0.1,0.5-0.3,0.7-0.4c0,0.2-0.1,0.3-0.4,0.4C43.3,14,43.2,14,43.1,13.9z"/>
			<path class="st6" d="M40.9,14.6c0.1,0,0.2-0.1,0.3-0.1c0.1,0,0.2-0.1,0.3-0.2c0.1,0.1,0,0.1,0,0.2C41.4,14.6,41.2,14.8,40.9,14.6
				C40.9,14.7,40.9,14.6,40.9,14.6z"/>
			<path class="st6" d="M17,10.8c0,0-0.1,0-0.1-0.1c0,0,0-0.1,0-0.2c0.3-0.1,0.5-0.3,0.8-0.4c0.1,0,0.2,0,0.2,0.1
				c0,0.1,0,0.1-0.1,0.2c-0.2,0.1-0.5,0.2-0.7,0.4C17,10.8,17,10.8,17,10.8z"/>
			<path class="st6" d="M18.9,13.1c0.1,0,0.1,0.1,0.1,0.1c0,0.1,0,0.1-0.1,0.2c0,0-0.1,0-0.2,0.1c-0.1,0-0.3,0.1-0.4,0.1
				c-0.1,0-0.2,0.1-0.2,0c-0.1-0.1,0-0.2,0.1-0.2C18.4,13.3,18.6,13.2,18.9,13.1z"/>
			<path class="st6" d="M20.2,16c0.1,0,0.2,0,0.3,0.2c0,0.1-0.1,0.1-0.2,0.2c-0.1,0-0.3,0.1-0.4,0.1c-0.1,0-0.2,0-0.2-0.1
				c0-0.1,0-0.2,0.1-0.2C19.8,16.1,20,16.1,20.2,16z"/>
			<path class="st6" d="M18.2,11.5c0,0,0.1,0.1,0.1,0.1c0,0.1,0,0.1-0.1,0.2c-0.2,0.1-0.4,0.1-0.6,0.2c-0.1,0-0.2,0-0.2,0
				c0-0.1,0-0.1,0.1-0.2C17.7,11.6,17.9,11.5,18.2,11.5z"/>
			<path class="st6" d="M19.5,14.7c0,0,0.1,0.1,0.1,0.1c0,0.1,0,0.1-0.1,0.2c-0.2,0-0.3,0.1-0.5,0.1c-0.1,0-0.1,0-0.2-0.1
				c-0.1-0.1,0-0.2,0.1-0.2C19.1,14.8,19.3,14.8,19.5,14.7z"/>
		</g>
	</g>
</g>
</svg>
