<?xml version="1.0" encoding="utf-8"?>
<!-- Generator: Adobe Illustrator 23.0.1, SVG Export Plug-In . SVG Version: 6.00 Build 0)  -->
<svg version="1.1" xmlns="http://www.w3.org/2000/svg" x="0px" y="0px"
     viewBox="0 0 72 72" style="enable-background:new 0 0 72 72;" xml:space="preserve">
<style type="text/css">
	.st0{opacity:0.4;fill:url(#SVGID_1_);}
	.st1{opacity:0.6;fill:url(#SVGID_2_);}
	.st2{opacity:0.6;fill:url(#SVGID_3_);}
	.st3{opacity:0.6;fill:url(#SVGID_4_);}
	.st4{opacity:0.6;fill:url(#SVGID_5_);}
	.st5{opacity:0.6;fill:url(#SVGID_6_);}
	.st6{fill:#1F2B50;}
	.st7{fill:none;stroke:#1F2B50;stroke-width:3;stroke-miterlimit:10;}
	.st8{opacity:0.4;fill:url(#SVGID_7_);}
	.st9{opacity:0.4;fill:url(#SVGID_8_);}
	.st10{opacity:0.6;fill:url(#SVGID_9_);}
	.st11{opacity:0.6;fill:url(#SVGID_10_);}
	.st12{opacity:0.4;fill:url(#SVGID_11_);}
	.st13{opacity:0.4;fill:url(#SVGID_12_);}
	.st14{opacity:0.4;fill:url(#SVGID_13_);}
	.st15{opacity:0.4;fill:url(#SVGID_14_);}
	.st16{opacity:0.4;fill:url(#SVGID_15_);}
	.st17{opacity:0.4;fill:url(#SVGID_16_);}
	.st18{opacity:0.4;fill:url(#SVGID_17_);}
	.st19{fill:url(#SVGID_18_);}
	.st20{fill:url(#SVGID_19_);}
	.st21{fill:url(#SVGID_20_);}
	.st22{opacity:0.6;fill:url(#SVGID_21_);}
	.st23{opacity:0.6;fill:url(#SVGID_22_);}
	.st24{opacity:0.6;fill:url(#SVGID_23_);}
	.st25{opacity:0.6;fill:url(#SVGID_24_);}
	.st26{opacity:0.6;fill:url(#SVGID_25_);}
	.st27{opacity:0.6;fill:url(#SVGID_26_);}
	.st28{opacity:0.6;fill:url(#SVGID_27_);}
	.st29{opacity:0.6;fill:url(#SVGID_28_);}
	.st30{fill:url(#SVGID_29_);}
	.st31{fill:url(#SVGID_30_);}
	.st32{fill:#EA9001;}
	.st33{fill:#407EA7;}
	.st34{opacity:0.5;fill:#FFFFFF;}
	.st35{fill:none;stroke:#EA9001;stroke-width:2;stroke-miterlimit:10;}
	.st36{fill:#BECBCC;}
	.st37{fill:#FFFFFF;}
	.st38{fill:#979B9B;}
	.st39{fill:none;stroke:#407EA7;stroke-width:3;stroke-miterlimit:10;}
	.st40{fill:none;stroke:#407EA7;stroke-width:3.0377;stroke-miterlimit:10;}
	.st41{fill:none;stroke:#407EA7;stroke-width:2.8985;stroke-miterlimit:10;}
	.st42{fill:none;stroke:#407EA7;stroke-width:2.933;stroke-miterlimit:10;}
	.st43{fill:none;stroke:#EA9001;stroke-width:1.8227;stroke-miterlimit:10;}
	.st44{fill:#AAB2B2;}
	.st45{fill:none;stroke:#407EA7;stroke-width:3.0142;stroke-miterlimit:10;}
	.st46{fill:none;stroke:#407EA7;stroke-width:3.0512;stroke-miterlimit:10;}
	.st47{fill:#D3DDDD;}
	.st48{fill:none;stroke:#1F2B50;stroke-miterlimit:10;}
	.st49{fill:#BECBCC;stroke:#1F2B50;stroke-width:0.75;stroke-miterlimit:10;}
	.st50{fill:url(#SVGID_31_);}
	.st51{fill:none;stroke:#407EA7;stroke-width:2.8066;stroke-linecap:round;stroke-miterlimit:10;}
	.st52{fill:none;stroke:#407EA7;stroke-width:2.7511;stroke-linecap:round;stroke-miterlimit:10;}
	.st53{fill:url(#SVGID_32_);}
	.st54{fill:none;stroke:#EA9001;stroke-width:0.8;stroke-miterlimit:10;}
	.st55{fill:none;stroke:#407EA7;stroke-width:1.2;stroke-miterlimit:10;}
	.st56{fill:none;stroke:#407EA7;stroke-width:1.2151;stroke-miterlimit:10;}
	.st57{fill:none;stroke:#407EA7;stroke-width:1.1594;stroke-miterlimit:10;}
	.st58{fill:none;stroke:#407EA7;stroke-width:1.1732;stroke-miterlimit:10;}
	.st59{fill:url(#SVGID_33_);}
	.st60{fill:none;stroke:#1F2B50;stroke-width:0.4;stroke-miterlimit:10;}
	.st61{fill:#BECBCC;stroke:#1F2B50;stroke-width:0.3;stroke-miterlimit:10;}
	.st62{fill:none;stroke:#407EA7;stroke-width:1.1226;stroke-linecap:round;stroke-miterlimit:10;}
	.st63{fill:none;stroke:#407EA7;stroke-width:1.1004;stroke-linecap:round;stroke-miterlimit:10;}
	.st64{fill:url(#SVGID_34_);}
	.st65{fill:url(#SVGID_35_);}
</style>
<g id="Calque_2">
</g>
<g id="Calque_1">
	<g>
		<g id="L2kqML.tif_6_">
			<g>
				<path class="st6" d="M38,60.9c-2.9,0.1-5.8,0.2-8.7,0.2c-7.4,0-14.9-0.1-22.3-0.2c-1.2,0-2.4-0.2-3.7-0.3
					c-0.4,0-0.5-0.3-0.5-0.6c0-1.1,0-2.3,0.1-3.4c0-1.5,0-3.1,0-4.6c0-4.4-0.1-8.9-0.1-13.3c0-3.1,0.1-6.2,0.1-9.2
					c0-0.6-0.1-1-0.7-1.3c-1-0.7-1.5-1.8-1.5-3c0-1.3,0.2-2.6,0.2-3.9c0-0.9,0.5-1.4,1.2-1.9c2.8-2.1,5.5-4.2,8.2-6.3
					c0.3-0.2,0.4-0.5,0.4-0.8c0-1.3,0-1.3,1.3-1.3c10,0,20,0,30,0c4.2,0,8.4,0.1,12.5,0.2c1.7,0,3.4,0,5.1,0c0.1,0,0.2,0,0.3,0
					c1.2,0,1.5,0.5,1.2,1.6c-0.1,0.3-0.1,0.4,0.2,0.6c2.4,1.6,4.9,3.1,7.3,4.7c0.8,0.5,1.5,1,2.3,1.6c0.2,0.1,0.3,0.4,0.3,0.6
					c0.1,1.4,0.2,2.9,0.2,4.3c0,0.8,0,1.6-0.2,2.4c-0.1,0.3-0.4,0.6-0.6,0.9c-0.1,0.2-0.3,0.4-0.3,0.6c-0.1,3.7-0.2,7.4-0.2,11.1
					c0,4.9,0,9.8,0,14.7c0,1.7,0,3.4-0.1,5.1c0,0.1,0,0.2,0,0.3c0.1,0.9,0.1,1-0.9,1c-2.4,0-4.8,0-7.2,0c-3.3,0-6.6,0.1-9.9,0.1
					C47.5,60.9,42.8,60.9,38,60.9C38,60.9,38,60.9,38,60.9z M7.5,54.4c1.3,0.1,2.4,0.2,3.6,0.2c2.9,0.1,5.7,0.1,8.6,0.1
					c5.3,0.1,10.5,0.2,15.8,0.3c1.8,0,3.6,0,5.4,0c0.4,0,0.5-0.1,0.5-0.5c0-0.3,0-0.5,0-0.8c0.1-3,0.2-6,0.3-8.9
					c0.1-4.1,0.1-8.2,0.1-12.3c0-1.2,0-2.3,0-3.6c-1.4,0.1-2.5-0.5-3.2-1.9c-0.7,0.9-1.4,1.5-2.5,1.5c-1,0-2-0.2-2.6-1.1
					c-1.8,1.9-3.7,1.9-5.6,0c-0.7,0.9-1.6,1.5-2.7,1.5c-1.2,0-2-0.6-2.8-1.4c-0.6,0.9-1.5,1.3-2.6,1.3c-1.1,0-2-0.2-2.5-1.4
					c-2,2.3-4.1,2-5.5,0.1c-0.7,1.5-1.8,2.2-3.6,1.5c0,0.2,0,0.4,0,0.5c0,2.2,0,4.4,0,6.5C8.1,38.4,8,41,7.9,43.5
					c-0.1,2.1-0.3,4.2-0.3,6.3C7.5,51.3,7.5,52.8,7.5,54.4z M44.3,27.2c-0.1,0.1-0.2,0.3-0.3,0.4c-0.4,0.3-0.7,0.8-1.2,0.9
					c-0.6,0.1-0.6,0.4-0.6,0.9c0,5,0,10-0.1,15c0,2.5-0.1,4.9-0.2,7.4c0,1-0.2,2-0.2,2.9c0,0.5-0.2,0.7-0.6,0.7c-0.1,0-0.3,0-0.4,0
					c-4,0-7.9,0-11.9-0.1c-5-0.1-10-0.1-15-0.2c-1.2,0-2.4-0.1-3.6-0.1c-0.9,0-1.8-0.1-2.7-0.1c-0.1,0-0.2-0.2-0.2-0.3
					c0-1.8-0.1-3.6,0-5.4c0-2,0.2-4,0.2-6c0.1-4.8,0.2-9.5,0.3-14.3c0-0.2-0.1-0.4-0.3-0.6C7,27.9,6.6,27.4,6.1,27
					c-0.7,0.8-1.5,1.6-2.7,1.6c0,0.6,0,1.1,0,1.7c0,1.9-0.1,3.8-0.1,5.7c0,2.5,0,5,0,7.5c0,2,0,4.1,0,6.1c0,1.9,0.1,3.8,0.1,5.7
					c0,0.9-0.1,1.8-0.1,2.8c0,0.7,0,1.4,0,2.1c1.2,0.1,2.4,0.3,3.6,0.3c7.1,0.1,14.1,0.1,21.2,0.1c3.6,0,7.2-0.1,10.7-0.2
					c3,0,6.1,0,9.1,0c0.2,0,0.4,0,0.6,0c0.1-10.9,0.5-21.8,0.4-32.8C47,28.8,46,28.7,44.3,27.2z M60.6,27.2
					c-0.7,1.1-1.6,1.3-2.8,1.2c-1.1-0.1-2.1-0.3-2.8-1.3c-0.9,1.1-2,1.2-3.3,1.1c-0.1,4.8-0.1,9.6-0.2,14.5c0.7,0,1.3,0,1.9,0
					c0.2,0,0.4,0.1,0.5,0.2c0.3,0.5,0,1.1-0.6,1.1c-0.6,0-1.1,0-1.7,0.1c0,2.9,0,5.8,0,8.7c3.8,0.1,7.5,0.2,11.3,0.3
					c0-0.7,0-1.4,0-2c0-2.7,0.1-5.4,0.1-8.1c0.1-4.6,0.1-9.2,0.2-13.7c0-0.3,0-0.5-0.4-0.6C61.9,28.5,61.1,28.1,60.6,27.2z
					 M51.2,39.9c0-0.3,0-0.5,0-0.7c0-1.6,0-3.1,0-4.7c0-2,0.1-4,0.2-5.9c0-0.1-0.1-0.3-0.2-0.3c-0.6-0.3-1.3-0.5-1.8-0.7
					c-0.2,10.9-0.3,21.9-0.5,33c5.4,0,10.8,0,16.3,0c0.1-2.4,0.2-4.8,0.2-7.1c0-1.7-0.1-3.5-0.1-5.2c0-3.2,0-6.5,0-9.7
					c0-3.2-0.1-6.4-0.1-9.6c0-0.1,0-0.2,0-0.4c-0.6,0.2-1.1,0.3-1.7,0.5c0,0.1,0,0.3,0,0.5c-0.1,4.3-0.1,8.6-0.2,13
					c-0.1,3.2-0.2,6.5-0.2,9.7c0,0.3-0.1,0.6,0,0.9c0.3,0.5-0.1,0.5-0.4,0.5c-1,0-1.9-0.1-2.9-0.1c-2.7-0.1-5.4-0.1-8.1-0.2
					c-0.3,0-0.5-0.1-0.5-0.4c0-1.5-0.1-2.9-0.1-4.4c0-0.3,0-0.7,0-1c-1.3-0.1-1.3-0.2-1.3-1.4c0-1.5,0-3,0-4.5
					C49.9,40.1,49.9,40.1,51.2,39.9z M69.9,60.3c0-5.4-0.1-10.7-0.1-16c0-5.3,0.1-10.6,0.2-16c-1.4,0.3-2.8,0.2-4-0.8
					c-0.1,0.3-0.2,0.6-0.2,0.8c0,2,0.1,4,0.1,6c0,4.7,0,9.4,0,14.1c0,3.8,0.1,7.6-0.2,11.4c0,0.2,0,0.3,0,0.5
					C67.1,60.3,68.4,60.3,69.9,60.3z M36,11.4C36,11.4,36,11.4,36,11.4c-6.9,0-13.9,0-20.8,0c-1.1,0-2.3,0-3.4,0
					c-0.2,0-0.4,0.1-0.5,0.2c-0.1,0.2-0.2,0.6-0.1,0.7c0.2,0.2,0.3,0.4,0.7,0.4c1.5-0.1,2.9-0.1,4.4-0.1c4.7,0.1,9.4,0.2,14.1,0.2
					c5.5,0,11,0,16.5,0c1.9,0,3.8,0,5.7,0c2.5,0.1,5,0.2,7.5,0.3c0.1,0,0.3,0,0.3-0.1c0.1-0.4,0.1-0.8,0.1-1.2
					c0-0.1-0.5-0.2-0.7-0.2c-3.4-0.1-6.7-0.2-10.1-0.2C45.3,11.3,40.7,11.4,36,11.4z M39,20.3c0,0.2,0,0.3,0,0.5
					c-0.1,1.5-0.1,2.9-0.2,4.4c0,0.6,0.2,1.1,0.5,1.7c0.6,1.2,1.8,1.3,2.9,1.3c1.2-0.1,2.1-1.2,2.1-2.5c0-1.6,0-3.3,0-4.9
					c0-0.4-0.1-0.5-0.5-0.5c-1.4,0-2.9,0-4.3,0C39.3,20.3,39.1,20.3,39,20.3z M55.4,20.3c0,0.1,0,0.1,0,0.1c0,1.9,0,3.8,0,5.8
					c0,0.4,0.1,0.8,0.5,1.1c0.9,0.7,2,0.7,3,0.7c0.9-0.1,1.3-0.9,1.7-1.5c0.2-0.2,0.1-0.6,0.1-0.9c0-1.1-0.1-2.2-0.1-3.3
					c0-0.5-0.1-0.9-0.1-1.4c0-0.3-0.2-0.4-0.5-0.4c-1,0-2,0-2.9-0.1C56.5,20.3,56,20.3,55.4,20.3z M17.1,20.3c-1.7,0-3.3,0-4.9,0
					c0,0.1,0,0.1,0,0.2c-0.1,1.8-0.2,3.5-0.2,5.3c0,0.8,0.3,1.5,1.1,2c1.4,0.8,2.1,0.5,3.3-0.5c0.7-0.5,1-1.3,0.8-2.2
					c-0.1-0.5-0.1-1.1-0.1-1.6C17.1,22.4,17.1,21.4,17.1,20.3z M28.3,20.3c0,0.1,0,0.2,0,0.3c0,1.8,0,3.5,0,5.3
					c0,0.5,0.2,0.9,0.4,1.3C29.2,28,30,28,30.8,28c1.3,0,2.5-1,2.6-2.3c0-1.7,0-3.4-0.1-5.1c0-0.3-0.1-0.4-0.4-0.4
					c-0.6,0-1.2,0-1.7,0C30.3,20.3,29.3,20.3,28.3,20.3z M49.8,20.2c0,0.6,0,1.1,0,1.6c0,1.6,0,3.2,0,4.7c0,0.4,0.2,0.6,0.5,0.8
					c1,0.5,2.1,0.6,3.2,0.4c0.8-0.2,1.4-1,1.4-1.6c0-1.8-0.1-3.6-0.1-5.4c0-0.3-0.1-0.4-0.4-0.4c-1.2,0-2.3,0-3.5-0.1
					C50.6,20.2,50.2,20.2,49.8,20.2z M6.9,20.3c0,0.2-0.1,0.4-0.1,0.5c-0.1,1.5-0.1,3.1-0.2,4.6c-0.1,1.3,0.4,2.1,1.5,2.7
					c1,0.5,1.9,0.5,2.5-0.3c0.4-0.6,0.7-1.4,0.8-2.1c0.2-1.7,0.1-3.3,0.2-5c0-0.1,0-0.2,0-0.3C10.1,20.3,8.5,20.3,6.9,20.3z
					 M27.8,23.4C27.8,23.4,27.8,23.4,27.8,23.4c-0.1-0.9-0.1-1.7-0.1-2.6c0-0.4-0.1-0.5-0.5-0.5c-1.2,0-2.5,0-3.7,0.1
					c-0.3,0-0.4,0.1-0.4,0.4c0,0.6-0.1,1.2-0.2,1.8c-0.1,1.3-0.1,2.6-0.2,3.9c0,0.3,0.1,0.7,0.3,0.8c0.5,0.5,1.1,0.8,1.8,0.9
					c1.2,0.1,3.1-1.1,2.9-2.7C27.8,24.7,27.8,24,27.8,23.4z M17.6,20.4c0,0.2,0,0.3,0,0.5c0,1.2,0,2.3,0,3.5c0,0.8,0.1,1.6,0.2,2.3
					c0.1,0.6,0.5,1.1,1.1,1.2c0.5,0.1,1.1,0.2,1.6,0.1c0.6-0.1,1.1-0.4,1.4-1c0.4-0.8,0.6-1.5,0.6-2.4c-0.1-0.8,0.1-1.6,0.1-2.4
					c0-0.6,0.1-1.2,0.1-1.8C21,20.4,19.3,20.4,17.6,20.4z M61.1,20.5c0,2,0,4.1,0,6.1c0,0.6,0.2,1.1,0.8,1.3
					c0.6,0.2,1.2,0.4,1.8,0.3c0.5,0,1.1-0.2,1.5-0.5c0.5-0.4,0.8-0.8,0.7-1.6c-0.1-1.5-0.2-3-0.2-4.4c0-1.1,0-1.1-1.1-1.1
					C63.4,20.5,62.2,20.5,61.1,20.5z M6.3,20.3c-1.3,0-2.7,0-4.1,0c-0.4,0-0.6,0.1-0.6,0.5c-0.1,1.4-0.2,2.9-0.3,4.3
					c0,0.9,0.4,1.7,1,2.3c0.5,0.6,1.5,0.8,2.2,0.3c1.1-0.7,2-1.6,1.9-3C6.2,23.3,6.3,21.9,6.3,20.3z M66.3,20.5c0,0.1,0,0.1,0,0.2
					c0,2,0,4,0.1,5.9c0,0.3,0.2,0.7,0.5,0.9c1,0.5,2.1,0.7,3.1,0.2c0.8-0.3,1.2-1,1.2-1.9c-0.1-1-0.1-2.1-0.2-3.1
					c-0.1-0.7-0.1-1.5-0.2-2.3C69.2,20.5,67.8,20.5,66.3,20.5z M44.8,20.3c-0.1,2-0.1,4-0.1,5.9c0,0.1,0,0.3,0.1,0.4
					c0.3,0.8,0.9,1.2,1.8,1.3c1,0.1,1.7-0.2,2.3-1c0.2-0.3,0.5-0.6,0.5-0.9c0-1.5,0-2.9,0-4.4c0-0.4,0-0.9-0.1-1.3
					C47.7,20.3,46.3,20.3,44.8,20.3z M38.4,20.3c-1.5,0-2.9,0-4.4,0c-0.1,0-0.2,0.2-0.2,0.3c0,0.4,0.1,0.9,0.1,1.3
					c0,1.2-0.1,2.5-0.1,3.7c0,0.5,0.1,1.1,0.3,1.5c0.5,0.9,2.6,1.1,3.6-0.1c0.2-0.3,0.5-0.6,0.6-1c0.1-1.7,0.1-3.4,0.1-5.1
					C38.5,20.7,38.4,20.5,38.4,20.3z M38.9,19.8c1.8,0,3.5,0,5.2,0c0-0.1,0-0.1,0-0.2c-0.3-2-0.6-4-0.9-6.1c0-0.1-0.2-0.3-0.4-0.3
					c-1.2,0-2.5,0-3.7,0c-0.1,0-0.1,0-0.2,0.1C38.9,15.4,38.9,17.6,38.9,19.8z M38.4,19.8c0-2.1,0-4.2,0-6.3c0-0.1-0.2-0.3-0.4-0.3
					c-0.8,0-1.6,0-2.4,0c-0.6,0-1.2,0-1.8,0c-0.1,2.3-0.1,4.4-0.2,6.6C35.3,19.8,36.9,19.8,38.4,19.8z M28,19.8c1.8,0,3.5,0,5.2,0
					c0.1-2.2,0.1-4.3,0.2-6.5c-1.4,0-2.8,0-4.2,0C28.8,15.4,28.4,17.6,28,19.8z M21.4,13c-1.1,0-2.2,0-3.3,0c-0.1,0-0.2,0.1-0.3,0.2
					c-1.4,1.7-2.8,3.4-4.2,5.1c-0.4,0.5-0.7,0.9-1.1,1.4c0.1,0,0.1,0.1,0.2,0.1c1.4,0,2.8,0.1,4.2,0.1c0.2,0,0.5-0.2,0.6-0.4
					c0.3-0.4,0.5-0.9,0.8-1.3C19.3,16.5,20.3,14.8,21.4,13z M51,13.3c1.3,2.1,2.6,4.2,3.9,6.3c0.1,0.1,0.3,0.2,0.4,0.2
					c1.1,0.1,2.1,0.1,3.2,0.1c0.4,0,0.9,0,1.4,0c-0.6-0.7-1-1.3-1.5-1.9c-1.2-1.5-2.4-3-3.6-4.5c-0.1-0.1-0.2-0.2-0.3-0.2
					C53.4,13.3,52.2,13.3,51,13.3z M17.7,19.9c1.7,0,3.3,0,4.9,0c0.1,0,0.3-0.2,0.4-0.4c0.4-1.4,0.8-2.7,1.3-4.1
					c0.2-0.7,0.5-1.4,0.8-2.3c-1,0-2,0-2.9,0c-0.1,0-0.3,0.1-0.3,0.2c-1.1,1.8-2.2,3.5-3.3,5.3C18.2,19,18,19.4,17.7,19.9z
					 M55.2,13.3c0.5,0.5,0.8,0.9,1.1,1.4c1.3,1.6,2.5,3.2,3.8,4.8c0.1,0.2,0.4,0.3,0.7,0.3c1.4,0.1,2.8,0.1,4.2,0.1
					c0.1,0,0.3,0,0.5,0c-0.2-0.2-0.3-0.3-0.4-0.4c-2-1.9-4-3.8-6-5.8c-0.1-0.1-0.3-0.3-0.5-0.3C57.5,13.4,56.4,13.4,55.2,13.3z
					 M47.4,13.2c0,0.1,0,0.2,0,0.2c0.7,2,1.4,4,2.1,6c0.1,0.3,0.3,0.3,0.5,0.3c1.3,0,2.6,0,4,0.1c0.2,0,0.4,0,0.6,0
					c-0.1-0.2-0.1-0.3-0.2-0.3c-1.3-2-2.6-4.1-3.8-6.1c0-0.1-0.2-0.1-0.3-0.2C49.4,13.2,48.4,13.2,47.4,13.2z M49.2,19.8
					c0-0.2-0.1-0.3-0.1-0.4c-0.7-2-1.3-3.9-2-5.9c0-0.1-0.2-0.2-0.2-0.2c-1.1,0-2.1,0-3.2,0c0,0.1,0,0.2,0,0.2
					c0.3,1.7,0.6,3.3,0.8,5c0.1,0.4,0,1,0.2,1.2c0.3,0.2,0.9,0.1,1.3,0.1C47.1,19.8,48.1,19.8,49.2,19.8z M27.6,19.8
					c0.4-2.2,0.7-4.4,1.1-6.7c-1,0-1.9,0-2.8,0c-0.3,0-0.5,0.1-0.6,0.4c-0.5,1.4-1,2.8-1.4,4.3c-0.2,0.7-0.4,1.3-0.6,2
					C24.7,19.8,26.2,19.8,27.6,19.8z M7.6,19.8c0.1,0,0.2,0,0.3,0c1,0,2.1-0.1,3.1,0c0.9,0.1,1.3-0.3,1.8-1c1.3-1.7,2.6-3.3,4-5
					c0.2-0.3,0.4-0.5,0.7-0.9c-1,0-1.9,0-2.8,0c-0.1,0-0.3,0.1-0.4,0.2c-1.3,1.2-2.6,2.4-3.8,3.6C9.5,17.8,8.5,18.8,7.6,19.8z
					 M13.8,13c-0.9,0-1.8,0-2.6,0c-0.1,0-0.3,0.1-0.4,0.2c-2.8,2.1-5.5,4.3-8.3,6.4c-0.1,0.1-0.2,0.2-0.3,0.3c0,0,0,0.1,0.1,0.1
					c1.5,0,2.9-0.1,4.4-0.2c0.1,0,0.3-0.1,0.4-0.2c0.4-0.4,0.8-0.7,1.2-1.1c1.3-1.3,2.5-2.6,3.7-3.8C12.6,14.2,13.2,13.6,13.8,13z
					 M70.7,20c0.1-0.1,0.1-0.1,0.2-0.2c-0.2-0.1-0.3-0.2-0.5-0.3c-0.6-0.4-1.1-0.7-1.6-1.1c-2.4-1.6-4.9-3.2-7.3-4.7
					c-0.6-0.4-1.2-0.1-1.9-0.1c0.2,0.3,0.5,0.5,0.7,0.7c1.8,1.7,3.5,3.4,5.3,5.1c0.3,0.3,0.7,0.5,1.2,0.5c1.2,0,2.5,0,3.7,0.1
					C70.5,20,70.6,20,70.7,20z M51.2,44.1c-0.7-0.1-0.7-0.2-0.6-0.9c0-0.1,0.2-0.3,0.3-0.4c0.1-0.1,0.2-0.2,0.2-0.3
					c0-0.7,0-1.4,0-2.1c-0.8,0.1-0.8,0.1-0.8,0.8c0,0.9-0.1,1.8-0.1,2.7c0,0.8-0.1,1.6-0.1,2.4c0,0.4,0.3,0.4,0.6,0.4
					c0.3,0,0.5-0.1,0.5-0.4C51.2,45.6,51.2,44.9,51.2,44.1z M51,43.5c0.8,0,1.5,0,2.3,0c0.1,0,0.2-0.1,0.3-0.2
					c-0.1-0.1-0.2-0.2-0.3-0.2c-0.7,0-1.4,0-2.1,0c-0.1,0-0.1,0-0.2,0.1C51,43.3,51,43.4,51,43.5z"/>
				<path class="st36" d="M7.5,54.4c0-1.5,0-3,0-4.5c0.1-2.1,0.2-4.2,0.3-6.3C8,41,8.1,38.4,8.1,35.8c0-2.2,0-4.4,0-6.5
					c0-0.1,0-0.3,0-0.5c1.7,0.7,2.8,0,3.6-1.5c1.5,1.9,3.5,2.2,5.5-0.1c0.5,1.1,1.4,1.4,2.5,1.4c1.1,0,2-0.3,2.6-1.3
					c0.8,0.8,1.6,1.4,2.8,1.4c1.1,0,2.1-0.6,2.7-1.5c1.9,1.9,3.8,2,5.6,0c0.6,0.9,1.6,1.1,2.6,1.1c1.1,0,1.8-0.6,2.5-1.5
					c0.7,1.4,1.8,2,3.2,1.9c0,1.2,0,2.4,0,3.6c0,4.1,0,8.2-0.1,12.3c0,3-0.2,6-0.3,8.9c0,0.3,0,0.6,0,0.8c0,0.4-0.1,0.5-0.5,0.5
					c-1.8,0-3.6,0.1-5.4,0c-5.3-0.1-10.5-0.2-15.8-0.3c-2.9,0-5.7,0-8.6-0.1C10,54.6,8.8,54.4,7.5,54.4z"/>
				<path class="st38" d="M44.3,27.2c1.7,1.4,2.7,1.5,4.6,0.4c0.1,10.9-0.3,21.8-0.4,32.8c-0.2,0-0.4,0-0.6,0c-3,0-6.1,0-9.1,0
					c-3.6,0-7.2,0.2-10.7,0.2c-7.1,0-14.1-0.1-21.2-0.1c-1.2,0-2.4-0.2-3.6-0.3c0-0.7,0-1.4,0-2.1c0-0.9,0.2-1.8,0.1-2.8
					c0-1.9-0.1-3.8-0.1-5.7c0-2,0-4.1,0-6.1c0-2.5,0-5,0-7.5c0-1.9,0.1-3.8,0.1-5.7c0-0.6,0-1.1,0-1.7c1.2,0,2-0.8,2.7-1.6
					c0.5,0.4,0.9,0.8,1.3,1.3c0.1,0.1,0.3,0.4,0.3,0.6c-0.1,4.8-0.2,9.5-0.3,14.3c-0.1,2-0.2,4-0.2,6c0,1.8,0,3.6,0,5.4
					c0,0.1,0.1,0.3,0.2,0.3c0.9,0.1,1.8,0.1,2.7,0.1c1.2,0,2.4,0.1,3.6,0.1c5,0.1,10,0.2,15,0.2c4,0,7.9,0.1,11.9,0.1
					c0.1,0,0.3,0,0.4,0c0.4,0,0.6-0.1,0.6-0.7c0-1,0.1-2,0.2-2.9c0.1-2.5,0.2-4.9,0.2-7.4c0.1-5,0.1-10,0.1-15c0-0.5,0-0.8,0.6-0.9
					c0.4-0.1,0.8-0.6,1.2-0.9C44.2,27.5,44.2,27.4,44.3,27.2z"/>
				<path class="st36" d="M60.6,27.2c0.5,0.9,1.2,1.3,2.1,1.3c0.4,0,0.4,0.3,0.4,0.6c-0.1,4.6-0.1,9.2-0.2,13.7
					c0,2.7-0.1,5.4-0.1,8.1c0,0.6,0,1.3,0,2c-3.8-0.1-7.5-0.2-11.3-0.3c0-2.9,0-5.7,0-8.7c0.6,0,1.2-0.1,1.7-0.1
					c0.6,0,0.9-0.6,0.6-1.1c-0.1-0.1-0.3-0.2-0.5-0.2c-0.6,0-1.2,0-1.9,0c0.1-4.8,0.1-9.6,0.2-14.5c1.3,0.1,2.4,0,3.3-1.1
					c0.7,1,1.7,1.2,2.8,1.3C59,28.6,60,28.3,60.6,27.2z"/>
				<path class="st33" d="M51.2,39.9c-1.4,0.2-1.4,0.2-1.4,1.5c0,1.5,0,3,0,4.5c0,1.2,0.1,1.3,1.3,1.4c0,0.3,0,0.7,0,1
					c0,1.5,0.1,2.9,0.1,4.4c0,0.3,0.2,0.4,0.5,0.4c2.7,0,5.4,0.1,8.1,0.2c1,0,1.9,0.1,2.9,0.1c0.3,0,0.7,0,0.4-0.5
					c-0.1-0.2,0-0.6,0-0.9c0.1-3.2,0.2-6.5,0.2-9.7c0.1-4.3,0.1-8.6,0.2-13c0-0.2,0-0.3,0-0.5c0.6-0.2,1.1-0.3,1.7-0.5
					c0,0.1,0,0.2,0,0.4c0,3.2,0.1,6.4,0.1,9.6c0,3.2,0,6.5,0,9.7c0,1.7,0.1,3.5,0.1,5.2c0,2.4-0.1,4.7-0.2,7.1c-5.5,0-10.9,0-16.3,0
					c0.2-11,0.3-22.1,0.5-33c0.5,0.2,1.2,0.5,1.8,0.7c0.1,0,0.2,0.2,0.2,0.3c0,2-0.1,4-0.2,5.9c0,1.6,0,3.1,0,4.7
					C51.2,39.4,51.2,39.6,51.2,39.9z"/>
				<path class="st38" d="M69.9,60.3c-1.5,0-2.8,0-4.2,0c0-0.1,0-0.3,0-0.5c0.3-3.8,0.2-7.6,0.2-11.4c-0.1-4.7,0-9.4,0-14.1
					c0-2-0.1-4-0.1-6c0-0.3,0.1-0.5,0.2-0.8c1.3,1,2.6,1.1,4,0.8c-0.1,5.3-0.2,10.6-0.2,16C69.8,49.6,69.9,54.9,69.9,60.3z"/>
				<path class="st32" d="M36,11.4c4.6,0,9.3,0,13.9,0c3.4,0,6.7,0.1,10.1,0.2c0.3,0,0.7,0.1,0.7,0.2c0,0.4,0,0.8-0.1,1.2
					c0,0-0.2,0.1-0.3,0.1c-2.5-0.1-5-0.2-7.5-0.3c-1.9,0-3.8,0-5.7,0c-5.5,0-11,0-16.5,0c-4.7,0-9.4-0.2-14.1-0.2
					c-1.5,0-2.9,0-4.4,0.1c-0.4,0-0.6-0.2-0.7-0.4c-0.1-0.1,0-0.5,0.1-0.7c0-0.1,0.3-0.2,0.5-0.2c1.1,0,2.3,0,3.4,0
					C22.2,11.4,29.1,11.4,36,11.4C36,11.4,36,11.4,36,11.4z"/>
				<path class="st37" d="M39,20.3c0.2,0,0.3,0,0.5,0c1.4,0,2.9,0,4.3,0c0.4,0,0.5,0.1,0.5,0.5c0,1.6,0,3.3,0,4.9
					c0,1.3-0.9,2.4-2.1,2.5c-1.2,0.1-2.3,0-2.9-1.3c-0.3-0.5-0.5-1-0.5-1.7c0.1-1.5,0.1-2.9,0.2-4.4C38.9,20.7,38.9,20.5,39,20.3z"
					/>
				<path class="st32" d="M55.4,20.3c0.6,0,1.1,0,1.7,0c1,0,2,0.1,2.9,0.1c0.3,0,0.5,0.1,0.5,0.4c0,0.5,0.1,0.9,0.1,1.4
					c0,1.1,0.1,2.2,0.1,3.3c0,0.3,0.1,0.7-0.1,0.9c-0.5,0.6-0.8,1.4-1.7,1.5c-1.1,0.1-2.1,0.1-3-0.7c-0.4-0.3-0.5-0.7-0.5-1.1
					c0-1.9,0-3.8,0-5.8C55.4,20.4,55.4,20.4,55.4,20.3z"/>
				<path class="st32" d="M17.1,20.3c0,1.1,0,2.2,0,3.2c0,0.5,0,1.1,0.1,1.6c0.2,0.9-0.2,1.6-0.8,2.2c-1.2,1-1.9,1.3-3.3,0.5
					c-0.8-0.4-1.1-1.2-1.1-2c0-1.8,0.1-3.5,0.2-5.3c0-0.1,0-0.1,0-0.2C13.8,20.3,15.4,20.3,17.1,20.3z"/>
				<path class="st37" d="M28.3,20.3c1,0,2,0,2.9,0c0.6,0,1.2,0,1.7,0c0.3,0,0.4,0.1,0.4,0.4c0,1.7,0.1,3.4,0.1,5.1
					c0,1.3-1.3,2.3-2.6,2.3c-0.8,0-1.7-0.1-2.1-0.8c-0.2-0.4-0.4-0.9-0.4-1.3c0-1.8,0-3.5,0-5.3C28.3,20.5,28.3,20.4,28.3,20.3z"/>
				<path class="st37" d="M49.8,20.2c0.4,0,0.8,0,1.1,0c1.2,0,2.3,0.1,3.5,0.1c0.3,0,0.4,0.1,0.4,0.4c0,1.8,0,3.6,0.1,5.4
					c0,0.6-0.7,1.4-1.4,1.6c-1.1,0.3-2.2,0.2-3.2-0.4c-0.3-0.2-0.5-0.4-0.5-0.8c0-1.6,0-3.2,0-4.7C49.8,21.3,49.8,20.8,49.8,20.2z"
					/>
				<path class="st37" d="M6.9,20.3c1.6,0,3.1,0,4.7,0c0,0.1,0,0.2,0,0.3c0,1.7,0,3.4-0.2,5c-0.1,0.7-0.4,1.5-0.8,2.1
					c-0.6,0.8-1.5,0.9-2.5,0.3c-1.1-0.6-1.6-1.5-1.5-2.7c0.1-1.5,0.1-3.1,0.2-4.6C6.9,20.6,6.9,20.5,6.9,20.3z"/>
				<path class="st32" d="M27.8,23.4c0,0.7-0.1,1.4,0,2.1c0.2,1.5-1.7,2.8-2.9,2.7c-0.7-0.1-1.3-0.4-1.8-0.9
					c-0.2-0.2-0.3-0.6-0.3-0.8c0-1.3,0.1-2.6,0.2-3.9c0-0.6,0.1-1.2,0.2-1.8c0-0.3,0.2-0.4,0.4-0.4c1.2,0,2.5,0,3.7-0.1
					c0.4,0,0.5,0.1,0.5,0.5C27.7,21.6,27.8,22.5,27.8,23.4C27.8,23.4,27.8,23.4,27.8,23.4z"/>
				<path class="st37" d="M17.6,20.4c1.7,0,3.3,0,5.1,0c0,0.6-0.1,1.2-0.1,1.8c0,0.8-0.2,1.6-0.1,2.4c0.1,0.9-0.2,1.7-0.6,2.4
					c-0.3,0.6-0.8,0.9-1.4,1c-0.5,0.1-1.1,0-1.6-0.1c-0.6-0.1-1-0.5-1.1-1.2c-0.1-0.8-0.2-1.6-0.2-2.3c0-1.2,0-2.3,0-3.5
					C17.6,20.7,17.6,20.5,17.6,20.4z"/>
				<path class="st37" d="M61.1,20.5c1.1,0,2.3,0,3.5,0c1.1,0,1.1,0,1.1,1.1c0,1.5,0.1,3,0.2,4.4c0.1,0.7-0.3,1.2-0.7,1.6
					c-0.4,0.3-1,0.5-1.5,0.5c-0.6,0-1.2-0.1-1.8-0.3c-0.6-0.2-0.8-0.6-0.8-1.3C61.1,24.5,61.1,22.5,61.1,20.5z"/>
				<path class="st32" d="M6.3,20.3c0,1.6-0.1,3,0,4.4c0.1,1.5-0.8,2.3-1.9,3c-0.7,0.5-1.7,0.3-2.2-0.3c-0.6-0.7-1-1.4-1-2.3
					c0.1-1.4,0.2-2.9,0.3-4.3c0-0.4,0.2-0.5,0.6-0.5C3.6,20.3,5,20.3,6.3,20.3z"/>
				<path class="st32" d="M66.3,20.5c1.5,0,2.9,0,4.4,0c0.1,0.8,0.1,1.5,0.2,2.3c0.1,1,0.2,2.1,0.2,3.1c0,0.8-0.4,1.6-1.2,1.9
					c-1.1,0.4-2.1,0.3-3.1-0.2c-0.2-0.1-0.5-0.6-0.5-0.9c-0.1-2-0.1-4-0.1-5.9C66.3,20.6,66.3,20.6,66.3,20.5z"/>
				<path class="st32" d="M44.8,20.3c1.5,0,3,0,4.5,0c0,0.4,0.1,0.8,0.1,1.3c0,1.5,0,2.9,0,4.4c0,0.3-0.3,0.7-0.5,0.9
					c-0.6,0.8-1.3,1.1-2.3,1c-0.9-0.1-1.5-0.5-1.8-1.3c0-0.1-0.1-0.2-0.1-0.4C44.7,24.2,44.7,22.3,44.8,20.3z"/>
				<path class="st32" d="M38.4,20.3c0,0.2,0,0.4,0,0.6c0,1.7-0.1,3.4-0.1,5.1c0,0.3-0.3,0.7-0.6,1c-1,1.3-3.1,1-3.6,0.1
					c-0.2-0.4-0.3-1-0.3-1.5c0-1.2,0-2.5,0.1-3.7c0-0.4-0.1-0.9-0.1-1.3c0-0.1,0.1-0.3,0.2-0.3C35.5,20.3,36.9,20.3,38.4,20.3z"/>
				<path class="st37" d="M38.9,19.8c0-2.2,0-4.3,0-6.5c0.1,0,0.2-0.1,0.2-0.1c1.2,0,2.5,0,3.7,0c0.1,0,0.4,0.2,0.4,0.3
					c0.3,2,0.6,4,0.9,6.1c0,0,0,0.1,0,0.2C42.4,19.8,40.7,19.8,38.9,19.8z"/>
				<path class="st32" d="M38.4,19.8c-1.5,0-3.1,0-4.8,0c0.1-2.2,0.1-4.3,0.2-6.6c0.6,0,1.2,0,1.8,0c0.8,0,1.6,0,2.4,0
					c0.1,0,0.4,0.2,0.4,0.3C38.4,15.6,38.4,17.6,38.4,19.8z"/>
				<path class="st37" d="M28,19.8c0.4-2.2,0.8-4.4,1.1-6.5c1.4,0,2.8,0,4.2,0c-0.1,2.2-0.1,4.3-0.2,6.5
					C31.5,19.8,29.8,19.8,28,19.8z"/>
				<path class="st32" d="M21.4,13c-1.1,1.8-2.1,3.5-3.1,5.2c-0.3,0.4-0.5,0.9-0.8,1.3c-0.1,0.2-0.4,0.4-0.6,0.4
					c-1.4,0-2.8,0-4.2-0.1c0,0-0.1,0-0.2-0.1c0.4-0.5,0.7-1,1.1-1.4c1.4-1.7,2.8-3.4,4.2-5.1c0.1-0.1,0.2-0.2,0.3-0.2
					C19.2,13,20.3,13,21.4,13z"/>
				<path class="st32" d="M51,13.3c1.2,0,2.4,0,3.5,0c0.1,0,0.2,0.1,0.3,0.2c1.2,1.5,2.4,3,3.6,4.5c0.5,0.6,1,1.2,1.5,1.9
					c-0.6,0-1,0-1.4,0c-1.1,0-2.1-0.1-3.2-0.1c-0.2,0-0.4-0.1-0.4-0.2C53.6,17.5,52.3,15.4,51,13.3z"/>
				<path class="st37" d="M17.7,19.9c0.3-0.5,0.6-0.9,0.8-1.3c1.1-1.8,2.2-3.5,3.3-5.3c0.1-0.1,0.2-0.2,0.3-0.2c0.9,0,1.9,0,2.9,0
					c-0.3,0.8-0.5,1.6-0.8,2.3c-0.4,1.4-0.8,2.7-1.3,4.1c-0.1,0.2-0.2,0.4-0.4,0.4C21,19.9,19.4,19.9,17.7,19.9z"/>
				<path class="st37" d="M55.2,13.3c1.3,0.1,2.4,0.1,3.5,0.2c0.2,0,0.3,0.2,0.5,0.3c2,1.9,4,3.8,6,5.8c0.1,0.1,0.2,0.2,0.4,0.4
					c-0.2,0-0.4,0-0.5,0c-1.4,0-2.8,0-4.2-0.1c-0.2,0-0.5-0.2-0.7-0.3c-1.3-1.6-2.5-3.2-3.8-4.8C56,14.3,55.6,13.9,55.2,13.3z"/>
				<path class="st37" d="M47.4,13.2c1,0,2,0,2.9,0c0.1,0,0.2,0.1,0.3,0.2c1.3,2,2.6,4.1,3.8,6.1c0,0.1,0.1,0.2,0.2,0.3
					c-0.3,0-0.4,0-0.6,0c-1.3,0-2.6,0-4-0.1c-0.2,0-0.4,0-0.5-0.3c-0.7-2-1.4-4-2.1-6C47.5,13.4,47.5,13.3,47.4,13.2z"/>
				<path class="st32" d="M49.2,19.8c-1.1,0-2.1,0-3.2,0c-0.4,0-1,0.1-1.3-0.1c-0.2-0.2-0.1-0.8-0.2-1.2c-0.3-1.7-0.6-3.3-0.8-5
					c0-0.1,0-0.1,0-0.2c1.1,0,2.1,0,3.2,0c0.1,0,0.2,0.1,0.2,0.2c0.7,2,1.3,3.9,2,5.9C49.1,19.5,49.2,19.5,49.2,19.8z"/>
				<path class="st32" d="M27.6,19.8c-1.5,0-2.9,0-4.4,0c0.2-0.7,0.4-1.3,0.6-2c0.5-1.4,1-2.8,1.4-4.3c0.1-0.3,0.3-0.4,0.6-0.4
					c0.9,0,1.9,0,2.8,0C28.4,15.4,28,17.6,27.6,19.8z"/>
				<path class="st37" d="M7.6,19.8c1-1,1.9-2,2.9-3c1.3-1.2,2.6-2.4,3.8-3.6c0.1-0.1,0.2-0.2,0.4-0.2c0.9,0,1.8,0,2.8,0
					c-0.3,0.4-0.5,0.6-0.7,0.9c-1.3,1.7-2.7,3.3-4,5c-0.5,0.6-1,1-1.8,1c-1-0.1-2.1,0-3.1,0C7.8,19.8,7.7,19.8,7.6,19.8z"/>
				<path class="st32" d="M13.8,13c-0.6,0.6-1.2,1.1-1.8,1.7c-1.3,1.3-2.5,2.6-3.7,3.8c-0.4,0.4-0.8,0.8-1.2,1.1
					c-0.1,0.1-0.3,0.2-0.4,0.2C5.2,19.9,3.8,20,2.3,20c0,0,0-0.1-0.1-0.1c0.1-0.1,0.2-0.2,0.3-0.3c2.8-2.1,5.5-4.3,8.3-6.4
					c0.1-0.1,0.2-0.2,0.4-0.2C12.1,13,12.9,13,13.8,13z"/>
				<path class="st32" d="M70.7,20c-0.1,0-0.2,0-0.3,0c-1.2,0-2.5-0.1-3.7-0.1c-0.5,0-0.8-0.2-1.2-0.5c-1.7-1.7-3.5-3.4-5.3-5.1
					c-0.2-0.2-0.5-0.4-0.7-0.7c0.7,0,1.3-0.3,1.9,0.1c2.4,1.6,4.9,3.2,7.3,4.7c0.6,0.4,1.1,0.7,1.6,1.1c0.2,0.1,0.3,0.2,0.5,0.3
					C70.8,19.9,70.7,19.9,70.7,20z"/>
				<path class="st32" d="M51.2,44.1c0,0.8,0,1.6,0,2.3c0,0.3-0.2,0.4-0.5,0.4c-0.3,0-0.6,0-0.6-0.4c0-0.8,0.1-1.6,0.1-2.4
					c0-0.9,0.1-1.8,0.1-2.7c0-0.7,0-0.7,0.8-0.8c0,0.7,0,1.4,0,2.1c0,0.1-0.1,0.2-0.2,0.3c-0.1,0.1-0.3,0.2-0.3,0.4
					C50.5,43.9,50.5,43.9,51.2,44.1z"/>
				<path class="st32" d="M51,43.5c0-0.1,0-0.3,0-0.4c0.1,0,0.1-0.1,0.2-0.1c0.7,0,1.4,0,2.1,0c0.1,0,0.2,0.1,0.3,0.2
					c-0.1,0.1-0.2,0.2-0.3,0.2C52.5,43.5,51.8,43.5,51,43.5z"/>
			</g>
		</g>
		<path class="st37" d="M7.5,54.3l32.6-25.9c0,0,0.5,0.3,1.6,0.3l-0.3,25.4v0.2c0,0.3-0.2,0.5-0.5,0.5h-0.2L7.5,54.3z"/>
		<path class="st37" d="M51.6,52.7l9.6-24.8c0,0,0.5,0.6,1.5,0.6c0.4,0,0.5,0.5,0.5,0.5l-0.3,24L51.6,52.7z"/>
	</g>
</g>
<g id="Calque_3">
</g>
</svg>
