<?xml version="1.0" encoding="utf-8"?>
<!-- Generator: Adobe Illustrator 23.0.1, SVG Export Plug-In . SVG Version: 6.00 Build 0)  -->
<svg version="1.1" xmlns="http://www.w3.org/2000/svg" x="0px" y="0px"
     viewBox="0 0 72 72" style="enable-background:new 0 0 72 72;" xml:space="preserve">
<style type="text/css">
	.st0{opacity:0.4;fill:url(#SVGID_1_);}
	.st1{opacity:0.6;fill:url(#SVGID_2_);}
	.st2{opacity:0.6;fill:url(#SVGID_3_);}
	.st3{opacity:0.6;fill:url(#SVGID_4_);}
	.st4{opacity:0.6;fill:url(#SVGID_5_);}
	.st5{opacity:0.6;fill:url(#SVGID_6_);}
	.st6{fill:#1F2B50;}
	.st7{fill:none;stroke:#1F2B50;stroke-width:3;stroke-miterlimit:10;}
	.st8{opacity:0.4;fill:url(#SVGID_7_);}
	.st9{opacity:0.4;fill:url(#SVGID_8_);}
	.st10{opacity:0.6;fill:url(#SVGID_9_);}
	.st11{opacity:0.6;fill:url(#SVGID_10_);}
	.st12{opacity:0.4;fill:url(#SVGID_11_);}
	.st13{opacity:0.4;fill:url(#SVGID_12_);}
	.st14{opacity:0.4;fill:url(#SVGID_13_);}
	.st15{opacity:0.4;fill:url(#SVGID_14_);}
	.st16{opacity:0.4;fill:url(#SVGID_15_);}
	.st17{opacity:0.4;fill:url(#SVGID_16_);}
	.st18{opacity:0.4;fill:url(#SVGID_17_);}
	.st19{fill:url(#SVGID_18_);}
	.st20{fill:url(#SVGID_19_);}
	.st21{fill:url(#SVGID_20_);}
	.st22{opacity:0.6;fill:url(#SVGID_21_);}
	.st23{opacity:0.6;fill:url(#SVGID_22_);}
	.st24{opacity:0.6;fill:url(#SVGID_23_);}
	.st25{opacity:0.6;fill:url(#SVGID_24_);}
	.st26{opacity:0.6;fill:url(#SVGID_25_);}
	.st27{opacity:0.6;fill:url(#SVGID_26_);}
	.st28{opacity:0.6;fill:url(#SVGID_27_);}
	.st29{opacity:0.6;fill:url(#SVGID_28_);}
	.st30{fill:url(#SVGID_29_);}
	.st31{fill:url(#SVGID_30_);}
	.st32{fill:#EA9001;}
	.st33{fill:#407EA7;}
	.st34{opacity:0.5;fill:#FFFFFF;}
	.st35{fill:none;stroke:#EA9001;stroke-width:2;stroke-miterlimit:10;}
	.st36{fill:#BECBCC;}
	.st37{fill:#FFFFFF;}
	.st38{fill:#979B9B;}
	.st39{fill:none;stroke:#407EA7;stroke-width:3;stroke-miterlimit:10;}
	.st40{fill:none;stroke:#407EA7;stroke-width:3.0377;stroke-miterlimit:10;}
	.st41{fill:none;stroke:#407EA7;stroke-width:2.8985;stroke-miterlimit:10;}
	.st42{fill:none;stroke:#407EA7;stroke-width:2.933;stroke-miterlimit:10;}
	.st43{fill:none;stroke:#EA9001;stroke-width:1.8227;stroke-miterlimit:10;}
	.st44{fill:#AAB2B2;}
	.st45{fill:none;stroke:#407EA7;stroke-width:3.0142;stroke-miterlimit:10;}
	.st46{fill:none;stroke:#407EA7;stroke-width:3.0512;stroke-miterlimit:10;}
	.st47{fill:#D3DDDD;}
	.st48{fill:none;stroke:#1F2B50;stroke-miterlimit:10;}
	.st49{fill:#BECBCC;stroke:#1F2B50;stroke-width:0.75;stroke-miterlimit:10;}
	.st50{fill:url(#SVGID_31_);}
	.st51{fill:none;stroke:#407EA7;stroke-width:2.8066;stroke-linecap:round;stroke-miterlimit:10;}
	.st52{fill:none;stroke:#407EA7;stroke-width:2.7511;stroke-linecap:round;stroke-miterlimit:10;}
	.st53{fill:url(#SVGID_32_);}
	.st54{fill:none;stroke:#EA9001;stroke-width:0.8;stroke-miterlimit:10;}
	.st55{fill:none;stroke:#407EA7;stroke-width:1.2;stroke-miterlimit:10;}
	.st56{fill:none;stroke:#407EA7;stroke-width:1.2151;stroke-miterlimit:10;}
	.st57{fill:none;stroke:#407EA7;stroke-width:1.1594;stroke-miterlimit:10;}
	.st58{fill:none;stroke:#407EA7;stroke-width:1.1732;stroke-miterlimit:10;}
	.st59{fill:url(#SVGID_33_);}
	.st60{fill:none;stroke:#1F2B50;stroke-width:0.4;stroke-miterlimit:10;}
	.st61{fill:#BECBCC;stroke:#1F2B50;stroke-width:0.3;stroke-miterlimit:10;}
	.st62{fill:none;stroke:#407EA7;stroke-width:1.1226;stroke-linecap:round;stroke-miterlimit:10;}
	.st63{fill:none;stroke:#407EA7;stroke-width:1.1004;stroke-linecap:round;stroke-miterlimit:10;}
	.st64{fill:url(#SVGID_34_);}
	.st65{fill:url(#SVGID_35_);}
</style>
<g id="Calque_2">
</g>
<g id="Calque_1">
	<g id="rvND0J.tif_5_">
		<g>
			<path class="st6" d="M59.7,51.1c-1,0.2-2,0.4-3,0.6c-2.3,0.5-4.5,1.1-6.8,1.7c-0.2,0-0.4,0.1-0.5,0.1c-0.7,0.1-0.7,0.1-0.9,0.8
				c-0.2,0.9-0.3,1.8-0.7,2.6c-0.6,1.5-1.8,2.6-3.3,3.1c-1.6,0.5-3.3,0.6-5,0c-0.6-0.2-1.2-0.4-1.7-0.8c-1-0.6-1.6-1.6-1.8-2.7
				c-0.1-0.4-0.3-0.5-0.7-0.5c-1.5,0-2.9,0-4.4-0.1c-2.6-0.1-5.2-0.2-7.8-0.2c-2.7-0.1-5.5-0.2-8.2-0.3c-0.3,0-0.5,0-0.6,0.3
				c-0.7,1.3-1.6,2.4-2.9,3.2c-1.1,0.7-2.4,0.8-3.7,0.4c-0.8-0.2-1.5-0.6-2.2-1c-1.2-0.7-2-1.9-2.2-3.3c-0.1-0.4-0.3-0.7-0.7-0.8
				c-0.5-0.1-0.6-0.4-0.7-0.9c-0.1-1.1-0.3-2.1-0.4-3.2c-0.1-1.5,0-3.1,0.3-4.6c0.5-2.1,0.9-4.2,1.4-6.4c0.4-1.7,1.5-2.8,2.9-3.8
				c1.1-0.8,2.2-1.5,3.2-2.3c0.5-0.4,0.8-1.1,1.2-1.6c1.1-1.4,2.2-2.9,3.4-4.2c0.9-1,1.9-2,2.8-2.9c1.8-1.7,3.7-3.2,5.8-4.4
				c2.3-1.3,5-1.8,7.6-2.2c1.4-0.2,2.7-0.3,4.1-0.5c0.2,0,0.4-0.2,0.5-0.4c1-2,2.1-4,3.1-6c0.1-0.2,0.3-0.4,0.5-0.5
				c0,0.2,0,0.5-0.1,0.7c-0.9,1.9-1.9,3.7-2.8,5.6c-0.1,0.1-0.1,0.3-0.2,0.5c0.5,0,1-0.1,1.5-0.1c1.8-0.1,3.6-0.2,5.4-0.2
				c3.5,0,7.1,0.1,10.6,0.2c1.4,0,2.9,0,4.3,0.1c2.2,0.1,4.4,0.4,6.4,1.4c0.9,0.4,1.6,1,2.2,1.8c0.9,1.2,1.3,2.5,1.7,3.9
				c0.6,1.8,1.1,3.7,1.6,5.5c0.3,1,0.4,2,0.6,3c0.2,1.6,0.4,3.2,0.6,4.9c0.3,2.6,0.1,5.2-0.1,7.8c0,0.5-0.1,1-0.1,1.6
				c0,0.2-0.2,0.4-0.4,0.4c-0.5,0-0.5,0.3-0.5,0.7c0,2-0.1,4-0.7,5.9c-0.2,0.6-0.5,1.1-0.9,1.6c-0.6,0.8-1.6,1-2.5,0.8
				c-1-0.2-2-0.3-2.9-0.8c-0.6-0.4-1.1-0.8-1.4-1.4c-0.5-0.9-0.7-1.9-0.6-3C59.8,51.4,59.7,51.3,59.7,51.1z M2.1,52.6
				c0,0.2,0.1,0.4,0.1,0.6c0,0.4,0.2,0.6,0.7,0.8c1.4,0.4,2.9,0.6,4.4,0.6c1.6,0,3.2,0.1,4.8,0.2c1.5,0.1,3.1,0.4,4.6,0.5
				c5.1,0.2,10.2,0.3,15.2,0.5c2.3,0.1,4.6-0.3,6.9-0.2c0.4,0,0.7-0.2,0.8-0.7c0.1-0.9,0.3-1.8,0.5-2.7c0.4-1.9,0.8-3.9,1.6-5.7
				c0.2-0.6,0.5-1.1,1.1-1.4c0.9-0.5,1.9-0.8,3-0.8c0.9,0,1.6,0.6,1.9,1.5c0.7,1.8,0.6,3.6,0.5,5.4c0,0.7,0,1.4,0,2.1
				c1.1-0.2,2.3-0.3,3.4-0.6c2-0.5,4.1-1,6.1-1.5c0.1,0,0.3-0.3,0.3-0.4c0.1-1,0.1-2.1,0.1-3.1c0-1.4,0-2.8,0-4.2
				c0-2.6,0-5.2-0.1-7.8c0-0.8-0.3-1.6-0.5-2.4c-0.3,0.2-0.7,0.2-0.8,0.4c-0.2,0.4-0.6,0.6-1.1,0.7c-1.5,0.4-3,0.6-4.6,0.6
				c-0.5,0-0.9,0.1-1.4,0.3c-0.9,0.4-1.9,0.5-2.9,0.6c-0.6,0.1-1.3,0.1-1.9,0.2c-0.3,0.1-0.4-0.1-0.3-0.3c0-0.1,0.1-0.3,0.1-0.4
				c0.5-1.3,1.1-2.6,1.5-3.9c0.7-2.2,1.6-4.3,2.6-6.3c0.6-1.3,1.6-2.3,2.8-3c0.8-0.5,1.5-1,2.5-1c2.4-0.1,4.9,0,7.3,0.4
				c1.2,0.2,2.2,0.7,2.6,2.1c0.6,2.2,0.9,4.4,0.8,6.6c0,0.9-0.2,1.1-1.1,1.4c-1.4,0.4-2.8,0.8-4.2,1.2c-0.5,0.2-1.1,0.3-1.6,0.4
				c0.2,0.9,0.5,1.7,0.5,2.5c0.1,1.4,0.1,2.9,0.1,4.3c0,2.1-0.1,4.1-0.1,6.2c0,1.5-0.1,2.9-0.1,4.4c0,0.1,0,0.3,0,0.5
				c1.6-0.3,3.1-0.6,4.4-1.3c0.3-0.2,0.5-0.5,0.5-0.9c0.3-1.5,0.5-3,0.9-4.4c0.1-0.6,0.5-1.1,0.8-1.6c0.5-0.7,1.3-0.8,2.1-0.6
				c0.7,0.1,1.1,0.7,1.2,1.3c0.1,0.3,0.1,0.5,0.2,0.8c0.1,0.9,0.2,1.7,0.3,2.6c0,0.3,0.1,0.5,0.4,0.5c0.4,0,0.3-0.3,0.3-0.5
				c0-0.4,0-0.8,0.1-1.2c0.2-2.7,0.5-5.3,0.1-8.1c-0.4-2.8-0.7-5.5-1.3-8.2c-0.1-0.6-0.3-1.1-0.5-1.7c-0.5-1.7-1-3.5-1.6-5.2
				c-0.5-1.4-1.5-2.6-2.9-3.3c-2-1-4.1-1.3-6.3-1.5c-1.4-0.1-2.8-0.1-4.2-0.1c-3.1-0.1-6.1-0.2-9.2-0.2c-2.6,0-5.1,0.1-7.7,0.2
				c-0.7,0-1.1,0.2-1.3,0.9c-0.1,0.2-0.2,0.4-0.3,0.6c-0.1,0.1-0.2,0.2-0.3,0.3c0-0.1-0.1-0.3-0.1-0.4c0.1-0.4,0.3-0.8,0.4-1.2
				c-0.2,0-0.4,0-0.6,0c-2.4,0.3-4.8,0.6-7.1,1.1c-1.7,0.4-3.3,1-4.8,2c-4.7,3.1-8.7,6.9-11.6,11.7c-0.1,0.2-0.2,0.4-0.4,0.5
				c-1.1,0.9-2.2,1.7-3.4,2.6c-0.4,0.3-0.9,0.7-1.4,1c0.7,0.4,1,0.9,1.1,1.5c0.1,0.3,0.3,0.4,0.6,0.3c0.6-0.1,1.3-0.2,1.9-0.3
				c3.4-0.4,6.7-0.5,10.1-0.2c2.5,0.3,5,0.6,7.6,1c0.6,0.1,1.2,0.3,1.8-0.2c0.2-0.1,0.5-0.2,0.7-0.3c1.6-0.5,3.3-1,4.9-1.5
				c1-0.2,2-0.3,3-0.5c0.6-0.1,0.8,0.2,1,0.7c0,0.1,0.1,0.2,0.1,0.4c0.9-0.4,1.9-0.8,2.8-1.3c0.9-0.5,1.2-1.3,1.3-2.3
				c0.1-0.9-0.3-1.3-1.2-1.2c-2.6,0.1-5.1,0.2-7.7,0.3c-3.7,0.1-7.4,0.1-11.1,0.1c-2.4,0-4.8,0-7.2-0.1c-0.7,0-1.4-0.2-2.1-0.3
				c-1.3-0.2-1.3-0.7-0.7-1.6c0.8-1.2,1.6-2.4,2.6-3.5c1.6-1.7,3.3-3.2,5-4.8c1.2-1.2,2.7-1.8,4.4-1.9c1.6-0.1,3.1-0.2,4.7-0.3
				c3.7-0.2,7.5,0,11.2,0.1c2.1,0.1,4.3,0.2,6.4,0.4c0.4,0,0.9,0.1,1.3,0.2c0.4,0.1,0.6,0.4,0.4,0.8c-0.2,0.6-0.3,1.2-0.6,1.8
				c-0.9,2.2-2.1,4.2-3.3,6.1c-0.6,0.9-1.2,1.8-2.3,2.4c0.9,0.6,0.8,1.4,0.5,2.3c-0.2,0.9-0.7,1.6-1.6,2c-0.5,0.2-1,0.5-1.5,0.7
				c-1,0.2-1.3,0.7-1.3,1.7c0.1,1.1-0.5,1.6-1.5,1.9c-0.7,0.2-1.5,0.3-2.2,0.5c-1.7,0.3-3.5,0.6-5.2,0.9c-0.3,0-0.8-0.1-1-0.3
				c-0.5-0.5-0.8-1.2-1.2-1.8c-0.1-0.2-0.2-0.4-0.2-0.6c0-0.2,0.3-0.3,0.4-0.4c-4.3-1.4-16.8-1.7-20.2-0.6c0.2,0.6,0,1.1-0.3,1.5
				c-0.3,0.5-0.7,1-1,1.5c-0.2,0.4-0.6,0.4-1,0.2c-0.4-0.2-0.8-0.4-1.2-0.6c-0.4,2.3-1.1,4.5-1.2,6.9c0.6-0.2,1-0.3,1.5,0
				c1,0.7,1.2,2.6,0.3,3.4C3.2,52.5,2.7,52.6,2.1,52.6z M37.4,32.8C37.4,32.8,37.4,32.7,37.4,32.8c0.8-0.1,1.6-0.1,2.4-0.1
				c1.6,0.1,2.8-0.7,3.6-2c0.8-1.4,1.7-2.7,2.4-4.1c0.6-1.2,1.1-2.5,1.6-3.8c0.2-0.5,0.1-0.6-0.4-0.8c-0.2-0.1-0.5-0.1-0.7-0.1
				c-0.7-0.1-1.4-0.1-2.2-0.2c-3.7-0.2-7.5-0.4-11.2-0.4c-3,0-6.1,0.2-9.1,0.3c-1.3,0.1-2.6,0.5-3.6,1.5c-1,0.9-2,1.8-3,2.7
				c-1.7,1.5-3.2,3.2-4.5,5.1c-0.3,0.4-0.5,0.8-0.7,1.2c-0.2,0.4-0.1,0.6,0.3,0.7c0.8,0.1,1.6,0.3,2.4,0.3c2.1,0.1,4.3,0.1,6.4,0.1
				c0.7,0,1.4,0,2.1,0c1.5,0,3,0,4.5,0C30.9,33,34.2,32.9,37.4,32.8z M56.6,33c0.7-0.1,0.7-0.1,0.6-0.7c-0.2-1.5-0.5-3.1-0.8-4.6
				c-0.4-1.8-0.8-3.5-1.3-5.2c-0.2-0.8-0.5-1-1.4-0.9c-1.9,0.3-3.4,1.3-4.4,2.9c-0.9,1.5-1.5,3.1-2.3,4.7c0,0.1-0.1,0.2-0.1,0.3
				c0.1,1.1,0.2,2.2,0.4,3.3c0,0.1,0.1,0.3,0.2,0.3c0.4,0,0.9,0.1,1.3,0.1c0.2,0,0.3-0.4,0.4-0.7c0.4-0.9,1-1.7,2.1-1.8
				c1.4-0.1,2.8-0.1,4.1,0.2c0.6,0.1,0.9,0.4,1,1.1C56.6,32.3,56.6,32.7,56.6,33z M57.7,32.8c0.6-0.2,1.1-0.4,1.5-0.5
				c1.4-0.4,2.7-0.8,4.1-1.2c0.7-0.2,0.8-0.3,0.8-1c0-0.6,0.1-1.2,0-1.8c-0.2-1.5-0.5-2.9-0.7-4.4c-0.3-1.4-0.9-1.8-2.4-2.1
				c-1.7-0.3-3.3-0.3-5-0.4c-0.2,0-0.5,0-0.6,0C56.5,25.1,57.4,28.8,57.7,32.8z M48.2,53.7c-0.5,0.1-0.6-0.3-0.6-0.7
				c0-0.1,0-0.2,0-0.4c0-1.2,0.2-2.5,0.1-3.7c0-1-0.2-1.9-0.5-2.9c-0.1-0.4-0.4-0.8-0.8-1c-1.6-0.9-3.7-0.1-4.4,1.5
				c-0.8,1.7-1.2,3.6-1.6,5.4c-0.2,1-0.4,2.1-0.6,3.1c-0.1,0.3-0.2,0.5-0.5,0.6c-0.6,0.1-1.3,0.1-1.9,0.1c-0.4,0-0.8,0.1-1.3,0.1
				c0.2,0.6,0.4,1,0.6,1.5c0.8,1.3,2,2,3.5,2.4c1.2,0.3,2.3,0.3,3.5,0c0.3-0.1,0.7-0.1,0.9-0.2C47,58.3,48.1,56.3,48.2,53.7z
				 M68.4,48.6C68.3,48.6,68.3,48.6,68.4,48.6c-0.1-0.5-0.1-1-0.2-1.5c-0.2-1.3-0.3-2.5-0.5-3.7c-0.1-0.6-0.5-0.9-1.1-0.8
				c-0.4,0-0.8,0.2-1.2,0.4c-0.6,0.3-0.9,1-1.1,1.6c-0.3,1.4-0.6,2.9-0.8,4.4c-0.1,0.6-0.4,1.1-1,1.3c-0.7,0.3-1.4,0.5-2.2,0.8
				c-0.1,0-0.3,0.2-0.3,0.3c0,1.2,0.1,2.4,0.8,3.3c0.3,0.4,0.7,0.8,1.2,0.9c0.9,0.3,1.9,0.5,2.8,0.7c0.9,0.2,1.7-0.2,2.1-1
				c0.3-0.7,0.7-1.4,0.8-2.1C68.1,51.5,68.2,50.1,68.4,48.6z M26.7,40.2c0.5,0.6,0.9,1,1.2,1.5c0.3,0.5,0.8,0.5,1.3,0.4
				c1.3-0.2,2.6-0.4,3.9-0.7c1.1-0.2,2.2-0.5,3.2-0.7c0.6-0.1,0.9-0.5,1-1.1c0-0.6,0-1.2,0-1.7c0-0.5-0.2-0.7-0.7-0.6
				c-0.8,0.1-1.6,0.1-2.3,0.3c-1.9,0.5-3.9,1.1-5.8,1.7C27.9,39.5,27.4,39.9,26.7,40.2z M44.9,35.5c0.5-0.1,1-0.1,1.4-0.2
				c0.9-0.2,1.8-0.3,2.7-0.5c0.7-0.1,1.5-0.3,2.2-0.4c1.2-0.2,2.4-0.3,3.6-0.5c1.5-0.3,1.2-0.5,1.2-1.6c0-0.7-0.2-0.9-0.9-1
				c-1-0.1-2.1-0.1-3.1-0.2c-1.2-0.1-1.9,0.5-2.2,1.5C49.4,34,49,33.8,48,33.7c-0.1,0-0.2,0-0.3,0c-0.4,0-0.7-0.2-0.7-0.6
				c-0.1-0.8-0.3-1.5-0.4-2.3C46.1,32.3,45.5,33.9,44.9,35.5z M3.6,54.6c0.4,2.6,2.1,4,4.9,4.4c2.1,0.3,4.9-1.7,5.3-3.6
				c-0.9-0.2-0.9-0.2-1.3,0.5c-0.5,1-1.5,1.7-2.4,1.6c-1.2-0.1-2.8-0.9-2.9-2.5C6,54.8,4.9,54.7,3.6,54.6z M3,41.1
				c0.5,0.3,0.9,0.5,1.3,0.8C4.6,42.1,4.8,42,5,41.8c0.3-0.6,0.7-1.1,1-1.7c0.1-0.2,0.2-0.6,0.1-0.8C6,38.8,5.8,38.4,5.6,38
				c-0.2-0.3-0.4-0.6-0.7-0.9c-0.3,0.3-0.6,0.5-0.8,0.8C3.8,39,3.4,40.1,3,41.1z M7.7,54.9c-0.1,1.1,1.4,2.1,2.7,2.1
				c0.8,0,1.8-0.9,1.8-1.8C10.7,55,9.2,54.9,7.7,54.9z M1.9,50.4C1.9,50.4,1.9,50.4,1.9,50.4c0.1,0.4,0.1,0.7,0.1,1.1
				c0,0.4,0.3,0.7,0.8,0.6c0.2,0,0.4-0.1,0.5-0.3c0.7-0.6,0.5-2.4-0.3-2.9c-0.6-0.3-1.1,0-1.1,0.7C1.9,49.9,1.9,50.1,1.9,50.4z"/>
			<path class="st32" d="M2.1,52.6c0.6,0,1.1-0.1,1.5-0.5c0.9-0.8,0.7-2.7-0.3-3.4c-0.4-0.3-0.9-0.2-1.5,0C1.9,46.2,2.6,44,3,41.7
				c0.5,0.2,0.9,0.4,1.2,0.6c0.4,0.2,0.7,0.1,1-0.2c0.3-0.5,0.7-1,1-1.5c0.3-0.5,0.5-1,0.3-1.5c3.5-1.2,15.9-0.8,20.2,0.6
				c-0.1,0.1-0.4,0.2-0.4,0.4c0,0.2,0.1,0.4,0.2,0.6c0.4,0.6,0.8,1.3,1.2,1.8c0.2,0.2,0.7,0.4,1,0.3c1.7-0.3,3.5-0.6,5.2-0.9
				c0.7-0.1,1.5-0.3,2.2-0.5c1.1-0.2,1.6-0.8,1.5-1.9c-0.1-1,0.3-1.5,1.3-1.7c0.5-0.1,1-0.4,1.5-0.7c0.8-0.4,1.3-1.1,1.6-2
				c0.2-0.8,0.3-1.7-0.5-2.3c1.1-0.5,1.7-1.4,2.3-2.4c1.2-2,2.4-4,3.3-6.1c0.2-0.6,0.4-1.2,0.6-1.8c0.1-0.4,0-0.7-0.4-0.8
				c-0.4-0.1-0.8-0.2-1.3-0.2c-2.1-0.1-4.3-0.3-6.4-0.4C36,21,32.3,20.8,28.6,21c-1.6,0.1-3.1,0.2-4.7,0.3c-1.7,0.1-3.1,0.7-4.4,1.9
				c-1.6,1.6-3.4,3.2-5,4.8c-1,1-1.8,2.2-2.6,3.5c-0.6,0.9-0.6,1.5,0.7,1.6c0.7,0.1,1.4,0.2,2.1,0.3c2.4,0.1,4.8,0.1,7.2,0.1
				c3.7,0,7.4,0,11.1-0.1c2.6,0,5.1-0.2,7.7-0.3c0.9,0,1.3,0.3,1.2,1.2c-0.1,1-0.4,1.8-1.3,2.3c-0.9,0.5-1.8,0.9-2.8,1.3
				c-0.1-0.2-0.1-0.3-0.1-0.4c-0.2-0.5-0.4-0.8-1-0.7c-1,0.1-2,0.2-3,0.5c-1.7,0.4-3.3,1-4.9,1.5c-0.2,0.1-0.5,0.1-0.7,0.3
				c-0.6,0.5-1.2,0.2-1.8,0.2c-2.5-0.4-5-0.7-7.6-1C15.4,37.8,12,38,8.7,38.4c-0.6,0.1-1.3,0.2-1.9,0.3c-0.3,0.1-0.5,0-0.6-0.3
				c-0.2-0.6-0.5-1.1-1.1-1.5c0.5-0.4,0.9-0.7,1.4-1c1.1-0.9,2.2-1.7,3.4-2.6c0.2-0.1,0.3-0.3,0.4-0.5c2.9-4.8,6.9-8.6,11.6-11.7
				c1.5-1,3.1-1.6,4.8-2c2.3-0.6,4.7-0.9,7.1-1.1c0.2,0,0.4,0,0.6,0c-0.2,0.4-0.3,0.8-0.4,1.2c0,0.1,0,0.3,0.1,0.4
				c0.1-0.1,0.2-0.2,0.3-0.3c0.1-0.2,0.2-0.4,0.3-0.6c0.2-0.7,0.6-0.9,1.3-0.9c2.6-0.1,5.1-0.2,7.7-0.2c3.1,0,6.1,0.2,9.2,0.2
				c1.4,0,2.8,0.1,4.2,0.1c2.2,0.1,4.3,0.4,6.3,1.5c1.4,0.7,2.3,1.9,2.9,3.3c0.6,1.7,1.1,3.5,1.6,5.2c0.2,0.6,0.4,1.1,0.5,1.7
				c0.7,2.7,1,5.5,1.3,8.2c0.4,2.7,0.1,5.4-0.1,8.1c0,0.4,0,0.8-0.1,1.2c0,0.2,0,0.5-0.3,0.5c-0.3,0-0.4-0.3-0.4-0.5
				c-0.1-0.9-0.2-1.7-0.3-2.6c0-0.3-0.1-0.5-0.2-0.8c-0.2-0.7-0.5-1.2-1.2-1.3c-0.8-0.1-1.6,0-2.1,0.6c-0.4,0.5-0.7,1-0.8,1.6
				c-0.4,1.5-0.6,3-0.9,4.4c-0.1,0.4-0.2,0.7-0.5,0.9c-1.4,0.7-2.9,1.1-4.4,1.3c0-0.2,0-0.4,0-0.5c0-1.5,0.1-2.9,0.1-4.4
				c0-2.1,0.1-4.1,0.1-6.2c0-1.4,0-2.9-0.1-4.3c-0.1-0.8-0.3-1.7-0.5-2.5c0.5-0.1,1-0.3,1.6-0.4c1.4-0.4,2.8-0.8,4.2-1.2
				c0.8-0.3,1-0.5,1.1-1.4c0.1-2.2-0.2-4.4-0.8-6.6c-0.4-1.3-1.4-1.9-2.6-2.1c-2.4-0.4-4.8-0.5-7.3-0.4c-1,0-1.7,0.6-2.5,1
				c-1.2,0.7-2.1,1.7-2.8,3c-1,2-1.9,4.1-2.6,6.3c-0.4,1.3-1,2.6-1.5,3.9c0,0.1-0.1,0.3-0.1,0.4c-0.1,0.3,0,0.4,0.3,0.3
				c0.6-0.1,1.3-0.2,1.9-0.2c1-0.1,1.9-0.2,2.9-0.6c0.4-0.2,0.9-0.3,1.4-0.3c1.5-0.1,3.1-0.2,4.6-0.6c0.4-0.1,0.8-0.3,1.1-0.7
				c0.1-0.2,0.5-0.2,0.8-0.4c0.2,0.9,0.5,1.6,0.5,2.4c0.1,2.6,0.1,5.2,0.1,7.8c0,1.4,0,2.8,0,4.2c0,1,0,2.1-0.1,3.1
				c0,0.2-0.2,0.4-0.3,0.4c-2,0.5-4.1,1.1-6.1,1.5c-1.1,0.3-2.2,0.4-3.4,0.6c0-0.7,0-1.4,0-2.1c0.1-1.8,0.2-3.7-0.5-5.4
				c-0.3-0.8-1-1.4-1.9-1.5c-1.1,0-2.1,0.2-3,0.8c-0.6,0.3-0.9,0.9-1.1,1.4c-0.8,1.8-1.2,3.8-1.6,5.7c-0.2,0.9-0.3,1.8-0.5,2.7
				c-0.1,0.4-0.3,0.7-0.8,0.7c-2.3,0-4.6,0.3-6.9,0.2c-5.1-0.2-10.2-0.3-15.2-0.5c-1.5-0.1-3.1-0.4-4.6-0.5
				c-1.6-0.1-3.2-0.2-4.8-0.2c-1.5,0-3-0.2-4.4-0.6c-0.4-0.1-0.6-0.3-0.7-0.8C2.2,53,2.1,52.8,2.1,52.6z M17.3,46.6
				c0.4,0,1.1,0,1.8,0c1.4,0,2.9-0.1,4.3-0.2c0.2,0,0.6-0.2,0.6-0.4c0.3-1.1,0.4-2.3,0.3-3.4c-0.1-0.5-0.3-0.6-0.7-0.7
				c-1.8-0.2-3.7-0.6-5.5-0.7c-3.2-0.1-6.5,0.1-9.7,0.1c-0.5,0-0.8,0.2-0.8,0.8c-0.1,1.1,0,2.1,0,3.2c0,0.1,0.2,0.3,0.3,0.3
				c0.7,0.2,1.4,0.4,2.1,0.4C12.4,46.3,14.7,46.4,17.3,46.6z M9.1,50.9C9.1,50.9,9.1,50.9,9.1,50.9c0,0.5,0,1.1,0,1.6
				c0,0.4,0.2,0.5,0.5,0.5c1.3,0,2.6,0.1,4,0.2c2.2,0.1,4.4,0.2,6.6,0.3c0.3,0,0.7,0.1,0.9,0c0.2-0.2,0.1-0.6,0.1-0.9
				c0-0.9,0-1.8,0-2.7c0-0.4-0.2-0.5-0.6-0.6c-1.1,0-2.2-0.1-3.2-0.1c-2.6-0.1-5.2-0.2-7.8-0.4c-0.3,0-0.5,0.1-0.5,0.5
				C9.1,49.8,9.1,50.3,9.1,50.9z M30.9,48.8c-1.2-0.1-2.5,1.1-2.4,2.6c0,1.3,0.9,2.1,2.4,2.2c1.2,0.1,2.4-1.1,2.3-2.4
				C33.1,49.8,32.4,48.7,30.9,48.8z M55.3,36.8c0.5-0.2,1-0.3,1.5-0.6c0.1-0.1,0.3-0.3,0.3-0.4c-0.1-0.2-0.3-0.3-0.5-0.4
				c-0.6-0.1-1.1,0.2-1.6,0.5c-0.1,0.1-0.3,0.4-0.3,0.5C54.8,36.6,55.1,36.7,55.3,36.8z M61.3,34.1c0,0,0,0.1-0.1,0.1
				c-0.5-0.1-0.9,0.2-1.3,0.5c-0.1,0.1-0.2,0.3-0.2,0.5c0,0.1,0.3,0.2,0.4,0.2c0.4,0,0.9-0.1,1.2-0.2c0.2-0.1,0.4-0.4,0.6-0.6
				C61.8,34.4,61.6,34.3,61.3,34.1z M16.1,39.7c0.3,0,0.6,0,0.8-0.1c0.1,0,0.3-0.2,0.3-0.3c0-0.1-0.1-0.3-0.2-0.4
				c-0.7-0.2-1.3-0.4-2-0.2c-0.1,0-0.3,0.2-0.3,0.4c0,0.1,0.2,0.3,0.3,0.3C15.4,39.6,15.8,39.7,16.1,39.7z"/>
			<path class="st37" d="M37.4,32.8c-3.2,0.1-6.5,0.2-9.7,0.3c-1.5,0-3,0-4.5,0c-0.7,0-1.4,0-2.1,0c-2.1,0-4.3,0-6.4-0.1
				c-0.8,0-1.6-0.2-2.4-0.3c-0.4-0.1-0.5-0.3-0.3-0.7c0.2-0.4,0.4-0.8,0.7-1.2c1.3-1.9,2.9-3.5,4.5-5.1c1-0.9,2-1.7,3-2.7
				c1-1,2.3-1.4,3.6-1.5c3-0.2,6.1-0.4,9.1-0.3c3.7,0,7.5,0.3,11.2,0.4c0.7,0,1.4,0.1,2.2,0.2c0.2,0,0.5,0,0.7,0.1
				c0.5,0.1,0.6,0.3,0.4,0.8c-0.5,1.3-1,2.6-1.6,3.8c-0.7,1.4-1.6,2.7-2.4,4.1c-0.8,1.4-1.9,2.1-3.6,2C39,32.7,38.2,32.7,37.4,32.8
				C37.4,32.7,37.4,32.8,37.4,32.8z"/>
			<path class="st37" d="M56.6,33c0-0.3,0-0.7-0.1-1c-0.1-0.6-0.3-0.9-1-1.1c-1.4-0.3-2.8-0.3-4.1-0.2c-1.1,0.1-1.7,0.9-2.1,1.8
				c-0.1,0.3-0.2,0.7-0.4,0.7c-0.4,0.1-0.9,0-1.3-0.1c-0.1,0-0.2-0.2-0.2-0.3c-0.1-1.1-0.2-2.2-0.4-3.3c0-0.1,0-0.2,0.1-0.3
				c0.8-1.6,1.4-3.2,2.3-4.7c1-1.6,2.5-2.7,4.4-2.9c0.8-0.1,1.1,0,1.4,0.9c0.5,1.7,0.9,3.5,1.3,5.2c0.3,1.5,0.5,3.1,0.8,4.6
				C57.3,32.9,57.3,32.9,56.6,33z"/>
			<path class="st37" d="M57.7,32.8c-0.3-4-1.2-7.7-2.4-11.4c0.2,0,0.4,0,0.6,0c1.7,0.1,3.4,0.2,5,0.4c1.5,0.2,2.1,0.7,2.4,2.1
				c0.3,1.4,0.5,2.9,0.7,4.4c0.1,0.6,0,1.2,0,1.8c0,0.7-0.1,0.8-0.8,1c-1.4,0.4-2.7,0.8-4.1,1.2C58.7,32.4,58.3,32.6,57.7,32.8z"/>
			<path class="st6" d="M48.2,53.7c-0.1,2.6-1.2,4.6-3.5,5.8c-0.3,0.1-0.6,0.2-0.9,0.2c-1.2,0.2-2.4,0.3-3.5,0
				c-1.5-0.3-2.7-1-3.5-2.4c-0.2-0.4-0.4-0.9-0.6-1.5c0.5,0,0.9-0.1,1.3-0.1c0.6-0.1,1.3-0.1,1.9-0.1c0.3,0,0.5-0.2,0.5-0.6
				c0.2-1,0.4-2.1,0.6-3.1c0.4-1.8,0.8-3.7,1.6-5.4c0.7-1.6,2.9-2.4,4.4-1.5c0.3,0.2,0.7,0.6,0.8,1c0.2,0.9,0.4,1.9,0.5,2.9
				c0.1,1.2-0.1,2.5-0.1,3.7c0,0.1,0,0.2,0,0.4C47.6,53.5,47.7,53.8,48.2,53.7z M40.8,53.6c0,1.4,0.3,2.6,1,3.8
				c0.6,0.9,1.9,1.4,2.9,0.3c0.6-0.6,1-1.3,1.2-2.2c0.2-1.3,0.5-2.7,0.7-4c0.2-1.1,0.1-2.3-0.2-3.4c-0.3-1.3-1.9-1.9-3-1.3
				c-1.1,0.6-1.8,1.7-2.1,2.9C41.1,51,41,52.3,40.8,53.6z"/>
			<path class="st6" d="M68.4,48.6c-0.2,1.4-0.3,2.9-0.5,4.3c-0.1,0.7-0.4,1.5-0.8,2.1c-0.4,0.8-1.2,1.2-2.1,1
				c-1-0.2-1.9-0.4-2.8-0.7c-0.4-0.2-0.9-0.5-1.2-0.9c-0.7-1-0.8-2.2-0.8-3.3c0-0.1,0.2-0.2,0.3-0.3c0.7-0.3,1.4-0.5,2.2-0.8
				c0.6-0.2,0.9-0.7,1-1.3c0.2-1.5,0.5-2.9,0.8-4.4c0.1-0.7,0.4-1.3,1.1-1.6c0.4-0.2,0.8-0.3,1.2-0.4c0.6,0,1,0.2,1.1,0.8
				c0.2,1.2,0.4,2.5,0.5,3.7C68.3,47.6,68.3,48.1,68.4,48.6C68.3,48.6,68.3,48.6,68.4,48.6z M64.1,49.5c-0.1,1.3,0.1,2.5,0.5,3.7
				c0.2,0.5,0.4,0.9,0.9,1.2c0.5,0.3,0.8,0.2,1.1-0.2c0.2-0.3,0.4-0.7,0.5-1.1c0.5-1.5,0.6-3,0.6-4.6c0-0.9-0.1-1.9-0.3-2.8
				c-0.1-0.3-0.3-0.7-0.6-0.9c-0.8-0.4-1.6,0-2,0.9C64.4,46.9,64,48.1,64.1,49.5z"/>
			<path class="st36" d="M26.7,40.2c0.7-0.4,1.2-0.7,1.8-0.9c1.9-0.6,3.9-1.2,5.8-1.7c0.7-0.2,1.5-0.2,2.3-0.3
				c0.5,0,0.7,0.1,0.7,0.6c0,0.6,0,1.2,0,1.7c0,0.6-0.3,1-1,1.1c-1.1,0.3-2.2,0.5-3.2,0.7c-1.3,0.2-2.6,0.4-3.9,0.7
				c-0.5,0.1-0.9,0.1-1.3-0.4C27.5,41.2,27.1,40.8,26.7,40.2z"/>
			<path class="st38" d="M44.9,35.5c0.6-1.6,1.1-3.2,1.7-4.8c0.1,0.8,0.3,1.6,0.4,2.3c0.1,0.4,0.3,0.7,0.7,0.6c0.1,0,0.2,0,0.3,0
				c1,0,1.4,0.3,1.8-1.1c0.4-1,1.1-1.6,2.2-1.5c1,0.1,2.1,0.1,3.1,0.2c0.7,0.1,0.8,0.3,0.9,1c0,1.1,0.3,1.4-1.2,1.6
				c-1.2,0.2-2.4,0.3-3.6,0.5c-0.7,0.1-1.5,0.3-2.2,0.4c-0.9,0.2-1.8,0.4-2.7,0.5C45.9,35.5,45.5,35.5,44.9,35.5z"/>
			<path class="st6" d="M3.6,54.6C4.9,54.7,6,54.8,7.2,55c0.1,1.6,1.7,2.4,2.9,2.5c0.9,0.1,1.9-0.6,2.4-1.6c0.4-0.8,0.4-0.8,1.3-0.5
				c-0.4,1.9-3.2,3.9-5.3,3.6C5.7,58.6,4,57.2,3.6,54.6z"/>
			<path class="st36" d="M3,41.1C3.4,40.1,3.8,39,4.2,38c0.1-0.3,0.5-0.5,0.8-0.8c0.2,0.3,0.5,0.6,0.7,0.9c0.2,0.4,0.4,0.8,0.4,1.2
				c0.1,0.3,0,0.6-0.1,0.8c-0.3,0.6-0.7,1.1-1,1.7c-0.2,0.3-0.4,0.3-0.6,0.1C4,41.7,3.6,41.4,3,41.1z"/>
			<path class="st38" d="M7.7,54.9c1.5,0.1,3,0.2,4.5,0.2c0,0.9-1,1.9-1.8,1.8C9,56.9,7.6,55.9,7.7,54.9z"/>
			<path class="st36" d="M1.9,50.4c0-0.3,0-0.6,0-0.8c0-0.7,0.5-1,1.1-0.7c0.9,0.4,1,2.3,0.3,2.9C3.1,51.9,2.9,52,2.7,52
				c-0.4,0.1-0.7-0.1-0.8-0.6C1.9,51.1,1.9,50.8,1.9,50.4C1.9,50.4,1.9,50.4,1.9,50.4z"/>
			<path class="st6" d="M17.3,46.6c-2.6-0.2-5-0.3-7.3-0.5c-0.7-0.1-1.4-0.3-2.1-0.4c-0.1,0-0.3-0.2-0.3-0.3c0-1.1-0.1-2.2,0-3.2
				c0-0.6,0.3-0.8,0.8-0.8c3.2,0,6.5-0.2,9.7-0.1c1.9,0,3.7,0.4,5.5,0.7c0.4,0.1,0.6,0.2,0.7,0.7c0.2,1.2,0.1,2.3-0.3,3.4
				c0,0.2-0.4,0.3-0.6,0.4c-1.4,0.1-2.9,0.1-4.3,0.2C18.5,46.6,17.8,46.6,17.3,46.6z M23.9,42.5c0,0,0-0.1,0-0.1
				c-0.1,0-0.2-0.1-0.4-0.1c-1.8-0.2-3.7-0.6-5.5-0.6c-2.5-0.1-5.1-0.1-7.7-0.1c-0.8,0-1.5,0.1-2.3,0.1c-0.1,0-0.2,0.1-0.3,0.2
				C8,41.9,8.1,42,8.1,42.1c0.1,0,0.1,0,0.2,0c1.1,0.1,2.1,0.2,3.2,0.2c4,0.1,8,0.2,12,0.2C23.7,42.5,23.8,42.5,23.9,42.5z
				 M23.9,45.4c-5.4,0.5-10.7-0.1-16-0.7c0.1,0.3-0.1,0.7,0.4,0.8c0.6,0.1,1.1,0.3,1.7,0.3c2.3,0.1,4.5,0.3,6.8,0.3
				c2.2,0.1,4.4,0.2,6.5,0C23.7,46,23.9,45.9,23.9,45.4z M24,42.8c-2.7,0-5.4,0-8.1,0c-2.7-0.1-5.4-0.2-8.1-0.4c0,0.1,0,0.3,0,0.4
				c0.8,0.1,1.5,0.3,2.2,0.3c3.9,0.1,7.8,0.2,11.7,0.3c0.7,0,1.5-0.1,2.2-0.1c0,0,0.1,0,0.1-0.1C24,43.2,24,43.1,24,42.8z M24,43.7
				c-5.4,0-10.8,0.2-16.2-0.6c-0.1,0.6-0.1,0.6,0.5,0.7c3.7,0.4,7.3,0.6,11,0.6c1.4,0,2.8-0.1,4.2-0.2C24,44.3,24.2,44.1,24,43.7z
				 M24,44.5c-5.4,0.5-10.8,0-16.1-0.6c-0.1,0.3,0,0.5,0.3,0.5c1,0.1,2,0.2,3,0.3c2.3,0.2,4.6,0.4,7,0.5c1.8,0.1,3.6-0.1,5.4-0.2
				C23.8,45.1,24.1,45,24,44.5z"/>
			<path class="st6" d="M9.1,50.9c0-0.5,0-1.1,0-1.6c0-0.3,0.1-0.5,0.5-0.5c2.6,0.1,5.2,0.2,7.8,0.4c1.1,0,2.2,0.1,3.2,0.1
				c0.4,0,0.6,0.1,0.6,0.6c0,0.9,0,1.8,0,2.7c0,0.3,0.1,0.7-0.1,0.9c-0.1,0.1-0.6,0-0.9,0c-2.2-0.1-4.4-0.2-6.6-0.3
				c-1.3-0.1-2.6-0.1-4-0.2c-0.3,0-0.5-0.1-0.5-0.5C9.1,51.9,9.1,51.4,9.1,50.9C9.1,50.9,9.1,50.9,9.1,50.9z M20.8,52.9
				c0-1,0-2,0-2.9c0-0.3-0.2-0.3-0.4-0.3c-2.6-0.1-5.1-0.3-7.7-0.4c-1.1-0.1-2.2-0.1-3.3-0.1c0,1.1,0,2.2,0,3.3
				C13.2,52.6,17,52.8,20.8,52.9z"/>
			<path class="st6" d="M30.9,48.8c1.5-0.1,2.2,1,2.3,2.4c0.1,1.3-1.1,2.5-2.3,2.4c-1.4-0.1-2.3-0.8-2.4-2.2
				C28.4,49.8,29.7,48.7,30.9,48.8z M29,51.3c0.1,1.1,0.6,1.7,1.8,1.7c0.9,0,1.9-0.9,1.8-1.9c-0.1-1.1-0.5-1.9-1.5-1.9
				C29.8,49.3,29,50.1,29,51.3z"/>
			<path class="st6" d="M55.3,36.8c-0.2-0.1-0.5-0.2-0.5-0.4c0-0.1,0.1-0.4,0.3-0.5c0.5-0.3,1-0.6,1.6-0.5c0.2,0,0.4,0.2,0.5,0.4
				c0,0.1-0.1,0.4-0.3,0.4C56.3,36.5,55.8,36.6,55.3,36.8z M55.1,36.1c0,0.1,0.1,0.2,0.1,0.3c0.4-0.1,0.9-0.3,1.3-0.4
				c0-0.1,0-0.1-0.1-0.2C56,35.9,55.6,36,55.1,36.1z"/>
			<path class="st6" d="M61.3,34.1c0.2,0.1,0.5,0.3,0.7,0.4c-0.2,0.2-0.3,0.5-0.6,0.6c-0.4,0.2-0.8,0.2-1.2,0.2
				c-0.1,0-0.4-0.1-0.4-0.2c0-0.1,0-0.4,0.2-0.5c0.4-0.3,0.8-0.6,1.3-0.5C61.3,34.2,61.3,34.1,61.3,34.1z M61.5,34.8
				c0-0.1,0-0.1,0-0.2c-0.8-0.1-1-0.1-1.4,0.5C60.7,35,61.1,34.9,61.5,34.8z"/>
			<path class="st6" d="M16.1,39.7c-0.3-0.1-0.8-0.1-1.2-0.2c-0.1,0-0.3-0.2-0.3-0.3c0-0.1,0.2-0.3,0.3-0.4c0.7-0.2,1.4-0.1,2,0.2
				c0.1,0,0.2,0.3,0.2,0.4c0,0.1-0.2,0.2-0.3,0.3C16.7,39.7,16.4,39.7,16.1,39.7z M16.8,39.4c0-0.1,0-0.1,0-0.2
				c-0.6-0.4-1.4-0.4-1.8,0C15.6,39.4,16.2,39.4,16.8,39.4z"/>
			<path class="st6" d="M40.8,53.6c0.2-1.3,0.3-2.6,0.6-3.9c0.3-1.2,0.9-2.3,2.1-2.9c1.1-0.6,2.7,0,3,1.3c0.3,1.1,0.4,2.3,0.2,3.4
				c-0.2,1.4-0.5,2.7-0.7,4c-0.2,0.8-0.6,1.5-1.2,2.2c-1,1.1-2.3,0.6-2.9-0.3C41.1,56.2,40.9,55,40.8,53.6z M46.2,50.5
				c0,0,0.1,0,0.1,0c-0.2-0.9-0.3-1.8-0.5-2.7c0-0.2-0.2-0.4-0.4-0.5c-0.6-0.2-1.2-0.4-1.7,0c-1,0.6-1.6,1.4-1.8,2.5
				c-0.3,1.5-0.5,2.9-0.6,4.4c-0.1,1.1,0.3,2.1,0.9,3c0.5,0.7,1.5,1.1,2.2,0.2c0.4-0.5,0.8-1,0.9-1.5C45.8,54.1,46.3,52.3,46.2,50.5
				z"/>
			<path class="st6" d="M64.1,49.5c-0.1-1.4,0.2-2.6,0.7-3.9c0.4-0.9,1.2-1.3,2-0.9c0.3,0.2,0.6,0.6,0.6,0.9
				c0.2,0.9,0.3,1.9,0.3,2.8c0,1.6-0.1,3.1-0.6,4.6c-0.1,0.4-0.3,0.7-0.5,1.1c-0.3,0.5-0.6,0.5-1.1,0.2c-0.5-0.3-0.7-0.7-0.9-1.2
				C64.2,52,64.1,50.8,64.1,49.5z M64.6,49.8c-0.1,1,0.1,2.2,0.6,3.4c0.2,0.4,0.4,0.8,0.9,0.8c0.2,0,0.5-0.5,0.6-0.8
				c0.5-1.3,0.7-2.7,0.8-4.2c0.1-1.1,0-2.2-0.3-3.3c-0.1-0.3-0.2-0.6-0.6-0.7c-0.4-0.1-0.7,0.1-0.9,0.4c-0.1,0.1-0.2,0.2-0.2,0.4
				C64.7,46.9,64.6,48.2,64.6,49.8z"/>
			<path class="st37" d="M23.9,42.5c-0.1,0-0.2,0-0.3,0c-4-0.1-8-0.1-12-0.2c-1.1,0-2.1-0.1-3.2-0.2c-0.1,0-0.2,0-0.2,0
				C8.1,42,8,41.9,7.9,41.8c0.1-0.1,0.2-0.2,0.3-0.2c0.8-0.1,1.5-0.1,2.3-0.1c2.6,0,5.1-0.1,7.7,0.1c1.8,0.1,3.7,0.4,5.5,0.6
				c0.1,0,0.2,0.1,0.4,0.1C23.9,42.4,23.9,42.5,23.9,42.5z"/>
			<path class="st37" d="M23.9,45.4c0.1,0.5-0.1,0.6-0.6,0.7c-2.2,0.3-4.4,0.1-6.5,0c-2.3-0.1-4.5-0.2-6.8-0.3
				c-0.6,0-1.2-0.2-1.7-0.3c-0.5-0.1-0.3-0.5-0.4-0.8C13.2,45.2,18.5,45.9,23.9,45.4z"/>
			<path class="st37" d="M24,42.8c0,0.3,0,0.4,0,0.5c0,0-0.1,0.1-0.1,0.1c-0.7,0-1.5,0.1-2.2,0.1c-3.9-0.1-7.8-0.2-11.7-0.3
				c-0.7,0-1.4-0.2-2.2-0.3c0-0.2,0-0.3,0-0.4c2.7,0.1,5.4,0.3,8.1,0.4C18.6,42.8,21.3,42.8,24,42.8z"/>
			<path class="st37" d="M24,43.7c0.1,0.4-0.1,0.5-0.4,0.5c-1.4,0.1-2.8,0.2-4.2,0.2c-3.7,0-7.4-0.2-11-0.6
				c-0.6-0.1-0.6-0.1-0.5-0.7C13.2,43.9,18.6,43.8,24,43.7z"/>
			<path class="st37" d="M24,44.5c0.1,0.5-0.2,0.6-0.5,0.6c-1.8,0.1-3.6,0.2-5.4,0.2c-2.3-0.1-4.6-0.3-7-0.5c-1-0.1-2-0.2-3-0.3
				c-0.3,0-0.4-0.2-0.3-0.5C13.2,44.6,18.6,45,24,44.5z"/>
			<path class="st37" d="M20.8,52.9c-3.8-0.2-7.6-0.3-11.3-0.5c0-1.1,0-2.2,0-3.3c1.1,0,2.2,0.1,3.3,0.1c2.6,0.1,5.1,0.3,7.7,0.4
				c0.2,0,0.4,0,0.4,0.3C20.8,51,20.8,52,20.8,52.9z"/>
			<path class="st36" d="M29,51.3c0-1.3,0.8-2.1,2.1-2c1.1,0,1.5,0.8,1.5,1.9c0.1,1-0.9,1.9-1.8,1.9C29.6,53,29,52.5,29,51.3z"/>
			<path class="st37" d="M55.1,36.1c0.5-0.1,0.9-0.3,1.4-0.4c0,0.1,0,0.1,0.1,0.2c-0.4,0.1-0.9,0.3-1.3,0.4
				C55.2,36.3,55.1,36.2,55.1,36.1z"/>
			<path class="st37" d="M61.5,34.8c-0.4,0.1-0.9,0.2-1.4,0.3c0.3-0.6,0.6-0.6,1.4-0.5C61.5,34.7,61.5,34.8,61.5,34.8z"/>
			<path class="st37" d="M16.8,39.4c-0.6,0-1.2-0.1-1.8-0.1c0.4-0.5,1.2-0.4,1.8,0C16.8,39.3,16.8,39.4,16.8,39.4z"/>
			<path class="st38" d="M46.2,50.5c0,1.8-0.4,3.6-0.9,5.3c-0.2,0.6-0.6,1.1-0.9,1.5c-0.7,0.9-1.7,0.5-2.2-0.2c-0.6-0.9-1-1.9-0.9-3
				c0.1-1.5,0.3-3,0.6-4.4c0.2-1,0.9-1.9,1.8-2.5c0.6-0.3,1.2-0.2,1.7,0c0.2,0.1,0.3,0.3,0.4,0.5c0.2,0.9,0.4,1.8,0.5,2.7
				C46.3,50.5,46.3,50.5,46.2,50.5z"/>
			<path class="st38" d="M64.6,49.8c0-1.6,0.1-2.9,0.8-4c0.1-0.1,0.1-0.2,0.2-0.4c0.2-0.3,0.5-0.5,0.9-0.4c0.4,0.1,0.5,0.3,0.6,0.7
				c0.3,1.1,0.4,2.2,0.3,3.3c-0.1,1.4-0.3,2.8-0.8,4.2c-0.1,0.3-0.4,0.7-0.6,0.8c-0.4,0.1-0.7-0.4-0.9-0.8
				C64.6,52,64.5,50.8,64.6,49.8z"/>
		</g>
	</g>
</g>
<g id="Calque_3">
</g>
</svg>
